%TF.GenerationSoftware,KiCad,Pcbnew,9.0.2-9.0.2-0~ubuntu24.04.1*%
%TF.CreationDate,2025-07-25T21:32:27+01:00*%
%TF.ProjectId,PCB,5043422e-6b69-4636-9164-5f7063625858,rev?*%
%TF.SameCoordinates,Original*%
%TF.FileFunction,Copper,L2,Bot*%
%TF.FilePolarity,Positive*%
%FSLAX46Y46*%
G04 Gerber Fmt 4.6, Leading zero omitted, Abs format (unit mm)*
G04 Created by KiCad (PCBNEW 9.0.2-9.0.2-0~ubuntu24.04.1) date 2025-07-25 21:32:27*
%MOMM*%
%LPD*%
G01*
G04 APERTURE LIST*
G04 Aperture macros list*
%AMRoundRect*
0 Rectangle with rounded corners*
0 $1 Rounding radius*
0 $2 $3 $4 $5 $6 $7 $8 $9 X,Y pos of 4 corners*
0 Add a 4 corners polygon primitive as box body*
4,1,4,$2,$3,$4,$5,$6,$7,$8,$9,$2,$3,0*
0 Add four circle primitives for the rounded corners*
1,1,$1+$1,$2,$3*
1,1,$1+$1,$4,$5*
1,1,$1+$1,$6,$7*
1,1,$1+$1,$8,$9*
0 Add four rect primitives between the rounded corners*
20,1,$1+$1,$2,$3,$4,$5,0*
20,1,$1+$1,$4,$5,$6,$7,0*
20,1,$1+$1,$6,$7,$8,$9,0*
20,1,$1+$1,$8,$9,$2,$3,0*%
G04 Aperture macros list end*
%TA.AperFunction,ComponentPad*%
%ADD10C,5.000000*%
%TD*%
%TA.AperFunction,ComponentPad*%
%ADD11RoundRect,0.250000X0.550000X-0.550000X0.550000X0.550000X-0.550000X0.550000X-0.550000X-0.550000X0*%
%TD*%
%TA.AperFunction,ComponentPad*%
%ADD12C,1.600000*%
%TD*%
%TA.AperFunction,ComponentPad*%
%ADD13R,1.700000X1.700000*%
%TD*%
%TA.AperFunction,ComponentPad*%
%ADD14C,1.700000*%
%TD*%
%TA.AperFunction,ComponentPad*%
%ADD15C,4.000000*%
%TD*%
%TA.AperFunction,ComponentPad*%
%ADD16R,1.730000X2.030000*%
%TD*%
%TA.AperFunction,ComponentPad*%
%ADD17O,1.730000X2.030000*%
%TD*%
%TA.AperFunction,ComponentPad*%
%ADD18RoundRect,0.250001X0.949999X-0.949999X0.949999X0.949999X-0.949999X0.949999X-0.949999X-0.949999X0*%
%TD*%
%TA.AperFunction,ComponentPad*%
%ADD19C,2.400000*%
%TD*%
%TA.AperFunction,ComponentPad*%
%ADD20C,1.320800*%
%TD*%
%TA.AperFunction,ComponentPad*%
%ADD21R,3.000000X3.000000*%
%TD*%
%TA.AperFunction,ComponentPad*%
%ADD22C,3.000000*%
%TD*%
%TA.AperFunction,ComponentPad*%
%ADD23C,2.500000*%
%TD*%
%TA.AperFunction,ComponentPad*%
%ADD24C,1.524000*%
%TD*%
%TA.AperFunction,ComponentPad*%
%ADD25C,2.200000*%
%TD*%
%TA.AperFunction,ComponentPad*%
%ADD26R,1.750000X1.750000*%
%TD*%
%TA.AperFunction,ComponentPad*%
%ADD27C,1.750000*%
%TD*%
%TA.AperFunction,ComponentPad*%
%ADD28C,2.700000*%
%TD*%
%TA.AperFunction,ComponentPad*%
%ADD29R,1.800000X1.800000*%
%TD*%
%TA.AperFunction,ComponentPad*%
%ADD30C,1.800000*%
%TD*%
%TA.AperFunction,ViaPad*%
%ADD31C,0.600000*%
%TD*%
%TA.AperFunction,Conductor*%
%ADD32C,0.400000*%
%TD*%
%TA.AperFunction,Conductor*%
%ADD33C,0.200000*%
%TD*%
G04 APERTURE END LIST*
D10*
%TO.P,J1,1,L*%
%TO.N,Net-(J1-L)*%
X44875000Y-80500000D03*
%TO.P,J1,2,N*%
%TO.N,Net-(J1-N)*%
X61875000Y-80500000D03*
%TD*%
D11*
%TO.P,U3,1*%
%TO.N,Net-(R2-Pad2)*%
X202225000Y-104805000D03*
D12*
%TO.P,U3,2*%
%TO.N,GND*%
X204765000Y-104805000D03*
%TO.P,U3,3*%
%TO.N,Net-(U6-Dim+)*%
X204765000Y-97185000D03*
%TO.P,U3,4*%
%TO.N,Net-(U6-Dim-)*%
X202225000Y-97185000D03*
%TD*%
%TO.P,R2,1*%
%TO.N,Net-(U1-GPIO29{slash}ADC3{slash}A3)*%
X171000000Y-91880000D03*
%TO.P,R2,2*%
%TO.N,Net-(R2-Pad2)*%
X171000000Y-107120000D03*
%TD*%
D13*
%TO.P,M2,1,PWM*%
%TO.N,Net-(M2-PWM)*%
X116000000Y-98920000D03*
D14*
%TO.P,M2,2,+*%
%TO.N,+5V*%
X116000000Y-101460000D03*
%TO.P,M2,3,-*%
%TO.N,GND*%
X116000000Y-104000000D03*
%TO.P,M2,4,Sense*%
%TO.N,Net-(M2-Sense)*%
X116000000Y-106540000D03*
%TD*%
D15*
%TO.P,U2,1,L_in*%
%TO.N,Net-(J1-L)*%
X44875000Y-67875000D03*
%TO.P,U2,2,N_in*%
%TO.N,Net-(J1-N)*%
X61875000Y-67875000D03*
%TD*%
D16*
%TO.P,M1,1,-*%
%TO.N,Net-(M1--)*%
X130580000Y-112000000D03*
D17*
%TO.P,M1,2,+*%
%TO.N,Net-(M1-+)*%
X133120000Y-112000000D03*
%TO.P,M1,3,Tacho*%
%TO.N,unconnected-(M1-Tacho-Pad3)*%
X135660000Y-112000000D03*
%TO.P,M1,4,PWM*%
%TO.N,unconnected-(M1-PWM-Pad4)*%
X138200000Y-112000000D03*
%TD*%
D18*
%TO.P,TC1,1,+*%
%TO.N,Net-(TC1-+)*%
X200070000Y-81500000D03*
D19*
%TO.P,TC1,2,-*%
%TO.N,Net-(TC1--)*%
X200070000Y-76500000D03*
%TD*%
D12*
%TO.P,R4,1*%
%TO.N,Net-(U1-GPIO3{slash}MOSI)*%
X125830000Y-59000000D03*
%TO.P,R4,2*%
%TO.N,Net-(D2-A)*%
X141070000Y-59000000D03*
%TD*%
D20*
%TO.P,U8,1,VIN+*%
%TO.N,+5V*%
X123950000Y-88880000D03*
%TO.P,U8,2,VIN-*%
%TO.N,GND*%
X123950000Y-91420000D03*
%TO.P,U8,5,VOUT-*%
%TO.N,Net-(M1--)*%
X123950000Y-99040000D03*
%TO.P,U8,7,VOUT+*%
%TO.N,Net-(M1-+)*%
X123950000Y-104120000D03*
%TD*%
D21*
%TO.P,PS1,1,AC/N*%
%TO.N,Net-(J1-N)*%
X75842500Y-74250000D03*
D22*
%TO.P,PS1,2,AC/L*%
%TO.N,Net-(J1-L)*%
X75842500Y-85000000D03*
%TO.P,PS1,3,-Vo*%
%TO.N,GND*%
X114342500Y-85000000D03*
%TO.P,PS1,4,+Vo*%
%TO.N,+5V*%
X114342500Y-77000000D03*
%TD*%
D23*
%TO.P,U6,1,Dim+*%
%TO.N,Net-(U6-Dim+)*%
X196000000Y-109500000D03*
%TO.P,U6,2,Dim-*%
%TO.N,Net-(U6-Dim-)*%
X196000000Y-92500000D03*
%TD*%
D12*
%TO.P,C1,1*%
%TO.N,+3V3*%
X198570000Y-47500000D03*
%TO.P,C1,2*%
%TO.N,GND*%
X201070000Y-47500000D03*
%TD*%
D24*
%TO.P,U1,1,GPIO26/ADC0/A0*%
%TO.N,Net-(U1-GPIO26{slash}ADC0{slash}A0)*%
X122000000Y-34840000D03*
%TO.P,U1,2,GPIO27/ADC1/A1*%
%TO.N,Net-(M2-Sense)*%
X122000000Y-37380000D03*
%TO.P,U1,3,GPIO28/ADC2/A2*%
%TO.N,Net-(M2-PWM)*%
X122000000Y-39920000D03*
%TO.P,U1,4,GPIO29/ADC3/A3*%
%TO.N,Net-(U1-GPIO29{slash}ADC3{slash}A3)*%
X122000000Y-42460000D03*
%TO.P,U1,5,GPIO6/SDA*%
%TO.N,Net-(U1-GPIO6{slash}SDA)*%
X122000000Y-45000000D03*
%TO.P,U1,6,GPIO7/SCL*%
%TO.N,Net-(U1-GPIO7{slash}SCL)*%
X122000000Y-47540000D03*
%TO.P,U1,7,GPIO0/TX*%
%TO.N,Net-(U1-GPIO0{slash}TX)*%
X122000000Y-50080000D03*
%TO.P,U1,8,GPIO1/RX*%
%TO.N,Net-(U1-GPIO1{slash}RX)*%
X137240000Y-50080000D03*
%TO.P,U1,9,GPIO2/SCK*%
%TO.N,Net-(U1-GPIO2{slash}SCK)*%
X137240000Y-47540000D03*
%TO.P,U1,10,GPIO4/MISO*%
%TO.N,Net-(U1-GPIO4{slash}MISO)*%
X137240000Y-45000000D03*
%TO.P,U1,11,GPIO3/MOSI*%
%TO.N,Net-(U1-GPIO3{slash}MOSI)*%
X137240000Y-42460000D03*
%TO.P,U1,12,3V3*%
%TO.N,+3V3*%
X137240000Y-39920000D03*
%TO.P,U1,13,GND*%
%TO.N,GND*%
X137240000Y-37380000D03*
%TO.P,U1,14,VBUS*%
%TO.N,+5V*%
X137240000Y-34840000D03*
%TD*%
D25*
%TO.P,SW2,1,1*%
%TO.N,Net-(U1-GPIO0{slash}TX)*%
X149110000Y-99920000D03*
%TO.P,SW2,2,2*%
%TO.N,GND*%
X155460000Y-102460000D03*
%TD*%
%TO.P,SW4,1,1*%
%TO.N,Net-(U1-GPIO6{slash}SDA)*%
X139570000Y-72840000D03*
%TO.P,SW4,2,2*%
%TO.N,GND*%
X145920000Y-75380000D03*
%TD*%
D26*
%TO.P,RV1,1,1*%
%TO.N,+3V3*%
X182820000Y-39480000D03*
D27*
%TO.P,RV1,2,2*%
%TO.N,Net-(U1-GPIO26{slash}ADC0{slash}A0)*%
X186320000Y-39480000D03*
%TO.P,RV1,3,3*%
%TO.N,GND*%
X182820000Y-112980000D03*
D28*
%TO.P,RV1,MP*%
%TO.N,N/C*%
X188770000Y-43630000D03*
X180370000Y-44830000D03*
X180370000Y-107630000D03*
X188770000Y-108830000D03*
%TD*%
D25*
%TO.P,SW3,1,1*%
%TO.N,Net-(U1-GPIO7{slash}SCL)*%
X158650000Y-72840000D03*
%TO.P,SW3,2,2*%
%TO.N,GND*%
X165000000Y-75380000D03*
%TD*%
D29*
%TO.P,D2,1,K*%
%TO.N,GND*%
X153070000Y-59000000D03*
D30*
%TO.P,D2,2,A*%
%TO.N,Net-(D2-A)*%
X150530000Y-59000000D03*
%TD*%
D31*
%TO.N,+5V*%
X129200000Y-53400000D03*
%TO.N,GND*%
X200000000Y-71500000D03*
X184500000Y-51000000D03*
%TO.N,Net-(U1-GPIO4{slash}MISO)*%
X208000000Y-54000000D03*
%TO.N,Net-(U1-GPIO2{slash}SCK)*%
X205500000Y-62000000D03*
X195000000Y-62000000D03*
%TO.N,Net-(U1-GPIO1{slash}RX)*%
X210365000Y-56135000D03*
%TO.N,Net-(U1-GPIO7{slash}SCL)*%
X138500000Y-53000000D03*
%TO.N,Net-(U1-GPIO6{slash}SDA)*%
X131500000Y-59500000D03*
X127200000Y-55200000D03*
%TD*%
D32*
%TO.N,+5V*%
X133500000Y-37000000D02*
X135660000Y-34840000D01*
X135660000Y-34840000D02*
X137240000Y-34840000D01*
X120620000Y-88880000D02*
X123950000Y-88880000D01*
X113200000Y-96300000D02*
X118000000Y-91500000D01*
X118000000Y-80657500D02*
X114342500Y-77000000D01*
X118000000Y-91500000D02*
X118000000Y-80657500D01*
X133500000Y-49100000D02*
X133500000Y-37000000D01*
X118000000Y-91500000D02*
X120620000Y-88880000D01*
X116000000Y-101460000D02*
X115260000Y-101460000D01*
X129200000Y-53400000D02*
X133500000Y-49100000D01*
X115260000Y-101460000D02*
X113200000Y-99400000D01*
X113200000Y-99400000D02*
X113200000Y-96300000D01*
D33*
%TO.N,Net-(U1-GPIO4{slash}MISO)*%
X193000000Y-49500000D02*
X178500000Y-49500000D01*
X178500000Y-49500000D02*
X174000000Y-45000000D01*
X174000000Y-45000000D02*
X137240000Y-45000000D01*
X195000000Y-51500000D02*
X193000000Y-49500000D01*
X205500000Y-51500000D02*
X195000000Y-51500000D01*
X208000000Y-54000000D02*
X205500000Y-51500000D01*
%TO.N,Net-(U1-GPIO2{slash}SCK)*%
X195000000Y-62000000D02*
X205500000Y-62000000D01*
%TO.N,Net-(U1-GPIO1{slash}RX)*%
X206500000Y-60000000D02*
X178500000Y-60000000D01*
X210365000Y-56135000D02*
X206500000Y-60000000D01*
X178500000Y-60000000D02*
X175000000Y-56500000D01*
X175000000Y-56500000D02*
X175000000Y-52500000D01*
X172580000Y-50080000D02*
X137240000Y-50080000D01*
X175000000Y-52500000D02*
X172580000Y-50080000D01*
%TO.N,Net-(U1-GPIO3{slash}MOSI)*%
X135100000Y-49900000D02*
X135100000Y-43400000D01*
X135100000Y-43400000D02*
X136040000Y-42460000D01*
X125830000Y-59000000D02*
X126000000Y-59000000D01*
X136040000Y-42460000D02*
X137240000Y-42460000D01*
X126000000Y-59000000D02*
X135100000Y-49900000D01*
%TO.N,Net-(U1-GPIO0{slash}TX)*%
X141920000Y-99920000D02*
X122000000Y-80000000D01*
X149110000Y-99920000D02*
X141920000Y-99920000D01*
X122000000Y-80000000D02*
X122000000Y-50080000D01*
%TO.N,Net-(U1-GPIO7{slash}SCL)*%
X127000000Y-61500000D02*
X124000000Y-61500000D01*
X135500000Y-53000000D02*
X127000000Y-61500000D01*
X124000000Y-61500000D02*
X123500000Y-61000000D01*
X123500000Y-61000000D02*
X123500000Y-49040000D01*
X138500000Y-53000000D02*
X135500000Y-53000000D01*
X123500000Y-49040000D02*
X122000000Y-47540000D01*
%TO.N,Net-(U1-GPIO6{slash}SDA)*%
X139570000Y-67570000D02*
X139570000Y-72840000D01*
X127200000Y-55200000D02*
X125000000Y-53000000D01*
X125000000Y-48000000D02*
X122000000Y-45000000D01*
X125000000Y-53000000D02*
X125000000Y-48000000D01*
X131500000Y-59500000D02*
X139570000Y-67570000D01*
D32*
%TO.N,Net-(U6-Dim+)*%
X196000000Y-105950000D02*
X204765000Y-97185000D01*
X196000000Y-109500000D02*
X196000000Y-105950000D01*
%TD*%
%TA.AperFunction,Conductor*%
%TO.N,GND*%
G36*
X206502443Y-32500596D02*
G01*
X206965865Y-32518803D01*
X206975535Y-32519564D01*
X207433696Y-32573792D01*
X207443300Y-32575313D01*
X207895775Y-32665316D01*
X207905234Y-32667587D01*
X208349257Y-32792814D01*
X208358517Y-32795822D01*
X208791339Y-32955499D01*
X208800334Y-32959225D01*
X209219300Y-33152370D01*
X209227952Y-33156778D01*
X209630502Y-33382217D01*
X209638767Y-33387282D01*
X209969972Y-33608587D01*
X210022367Y-33643596D01*
X210030243Y-33649319D01*
X210392539Y-33934929D01*
X210399937Y-33941247D01*
X210738715Y-34254411D01*
X210745588Y-34261284D01*
X211058747Y-34600056D01*
X211065070Y-34607460D01*
X211350680Y-34969756D01*
X211356403Y-34977632D01*
X211612711Y-35361223D01*
X211617786Y-35369504D01*
X211843216Y-35772038D01*
X211847629Y-35780699D01*
X212040774Y-36199665D01*
X212044500Y-36208660D01*
X212204177Y-36641482D01*
X212207185Y-36650742D01*
X212332412Y-37094765D01*
X212334685Y-37104233D01*
X212424685Y-37556693D01*
X212426208Y-37566309D01*
X212480433Y-38024445D01*
X212481197Y-38034152D01*
X212499404Y-38497556D01*
X212499500Y-38502424D01*
X212499500Y-113497575D01*
X212499404Y-113502443D01*
X212481197Y-113965847D01*
X212480433Y-113975554D01*
X212426208Y-114433690D01*
X212424685Y-114443306D01*
X212334685Y-114895766D01*
X212332412Y-114905234D01*
X212207185Y-115349257D01*
X212204177Y-115358517D01*
X212044500Y-115791339D01*
X212040774Y-115800334D01*
X211847629Y-116219300D01*
X211843210Y-116227971D01*
X211617792Y-116630483D01*
X211612711Y-116638776D01*
X211356403Y-117022367D01*
X211350680Y-117030243D01*
X211065070Y-117392539D01*
X211058747Y-117399943D01*
X210745594Y-117738709D01*
X210738709Y-117745594D01*
X210399943Y-118058747D01*
X210392539Y-118065070D01*
X210030243Y-118350680D01*
X210022367Y-118356403D01*
X209638776Y-118612711D01*
X209630483Y-118617792D01*
X209227975Y-118843209D01*
X209219300Y-118847629D01*
X208800334Y-119040774D01*
X208791339Y-119044500D01*
X208358517Y-119204177D01*
X208349257Y-119207185D01*
X207905234Y-119332412D01*
X207895766Y-119334685D01*
X207443306Y-119424685D01*
X207433690Y-119426208D01*
X206975554Y-119480433D01*
X206965847Y-119481197D01*
X206502443Y-119499404D01*
X206497575Y-119499500D01*
X113002425Y-119499500D01*
X112997557Y-119499404D01*
X112534152Y-119481197D01*
X112524445Y-119480433D01*
X112066309Y-119426208D01*
X112056693Y-119424685D01*
X111604233Y-119334685D01*
X111594765Y-119332412D01*
X111150742Y-119207185D01*
X111141482Y-119204177D01*
X110708660Y-119044500D01*
X110699665Y-119040774D01*
X110280699Y-118847629D01*
X110272038Y-118843216D01*
X109869504Y-118617786D01*
X109861223Y-118612711D01*
X109477632Y-118356403D01*
X109469756Y-118350680D01*
X109107460Y-118065070D01*
X109100056Y-118058747D01*
X108761284Y-117745588D01*
X108754411Y-117738715D01*
X108441247Y-117399937D01*
X108434929Y-117392539D01*
X108149319Y-117030243D01*
X108143596Y-117022367D01*
X107887288Y-116638776D01*
X107882217Y-116630502D01*
X107656778Y-116227952D01*
X107652370Y-116219300D01*
X107634567Y-116180683D01*
X107459225Y-115800334D01*
X107455499Y-115791339D01*
X107295822Y-115358517D01*
X107292814Y-115349257D01*
X107167587Y-114905234D01*
X107165314Y-114895766D01*
X107117129Y-114653526D01*
X107075313Y-114443300D01*
X107073791Y-114433690D01*
X107019564Y-113975535D01*
X107018803Y-113965865D01*
X107000596Y-113502443D01*
X107000500Y-113497575D01*
X107000500Y-113345528D01*
X110345694Y-113345528D01*
X110345694Y-113654471D01*
X110380280Y-113961437D01*
X110380283Y-113961455D01*
X110449025Y-114262635D01*
X110449029Y-114262647D01*
X110551056Y-114554222D01*
X110551062Y-114554236D01*
X110685097Y-114832562D01*
X110685099Y-114832565D01*
X110849459Y-115094143D01*
X111042074Y-115335674D01*
X111260520Y-115554120D01*
X111502051Y-115746735D01*
X111763629Y-115911095D01*
X112041965Y-116045135D01*
X112041971Y-116045137D01*
X112333546Y-116147164D01*
X112333558Y-116147168D01*
X112634742Y-116215911D01*
X112634748Y-116215911D01*
X112634756Y-116215913D01*
X112839400Y-116238970D01*
X112941723Y-116250499D01*
X112941726Y-116250500D01*
X112941729Y-116250500D01*
X113250662Y-116250500D01*
X113250663Y-116250499D01*
X113450575Y-116227975D01*
X113557631Y-116215913D01*
X113557636Y-116215912D01*
X113557646Y-116215911D01*
X113858830Y-116147168D01*
X114150423Y-116045135D01*
X114428759Y-115911095D01*
X114690337Y-115746735D01*
X114931868Y-115554120D01*
X115150314Y-115335674D01*
X115342929Y-115094143D01*
X115507289Y-114832565D01*
X115641329Y-114554229D01*
X115743362Y-114262636D01*
X115812105Y-113961452D01*
X115846694Y-113654465D01*
X115846694Y-113345535D01*
X115814846Y-113062872D01*
X115812107Y-113038562D01*
X115812104Y-113038544D01*
X115743362Y-112737364D01*
X115743358Y-112737352D01*
X115641331Y-112445777D01*
X115641329Y-112445771D01*
X115507289Y-112167435D01*
X115342929Y-111905857D01*
X115150314Y-111664326D01*
X114931868Y-111445880D01*
X114690337Y-111253265D01*
X114428759Y-111088905D01*
X114428756Y-111088903D01*
X114338682Y-111045526D01*
X114150430Y-110954868D01*
X114150416Y-110954862D01*
X114099755Y-110937135D01*
X129214500Y-110937135D01*
X129214500Y-113062870D01*
X129214501Y-113062876D01*
X129220908Y-113122483D01*
X129271202Y-113257328D01*
X129271206Y-113257335D01*
X129357452Y-113372544D01*
X129357455Y-113372547D01*
X129472664Y-113458793D01*
X129472671Y-113458797D01*
X129607517Y-113509091D01*
X129607516Y-113509091D01*
X129614444Y-113509835D01*
X129667127Y-113515500D01*
X131492872Y-113515499D01*
X131552483Y-113509091D01*
X131687331Y-113458796D01*
X131802546Y-113372546D01*
X131888796Y-113257331D01*
X131932048Y-113141365D01*
X131973917Y-113085433D01*
X132039381Y-113061015D01*
X132107654Y-113075866D01*
X132135910Y-113097018D01*
X132230437Y-113191545D01*
X132404322Y-113317880D01*
X132464237Y-113348408D01*
X132595829Y-113415458D01*
X132595832Y-113415459D01*
X132733283Y-113460119D01*
X132800245Y-113481876D01*
X133012533Y-113515500D01*
X133012534Y-113515500D01*
X133227466Y-113515500D01*
X133227467Y-113515500D01*
X133439755Y-113481876D01*
X133439758Y-113481875D01*
X133439759Y-113481875D01*
X133644167Y-113415459D01*
X133644170Y-113415458D01*
X133835678Y-113317880D01*
X134009563Y-113191545D01*
X134161545Y-113039563D01*
X134287880Y-112865678D01*
X134287879Y-112865678D01*
X134289682Y-112863198D01*
X134345012Y-112820532D01*
X134414625Y-112814553D01*
X134476420Y-112847159D01*
X134490318Y-112863198D01*
X134617728Y-113038562D01*
X134618455Y-113039563D01*
X134770437Y-113191545D01*
X134944322Y-113317880D01*
X135004237Y-113348408D01*
X135135829Y-113415458D01*
X135135832Y-113415459D01*
X135273283Y-113460119D01*
X135340245Y-113481876D01*
X135552533Y-113515500D01*
X135552534Y-113515500D01*
X135767466Y-113515500D01*
X135767467Y-113515500D01*
X135979755Y-113481876D01*
X135979758Y-113481875D01*
X135979759Y-113481875D01*
X136184167Y-113415459D01*
X136184170Y-113415458D01*
X136375678Y-113317880D01*
X136549563Y-113191545D01*
X136701545Y-113039563D01*
X136827880Y-112865678D01*
X136827879Y-112865678D01*
X136829682Y-112863198D01*
X136885012Y-112820532D01*
X136954625Y-112814553D01*
X137016420Y-112847159D01*
X137030318Y-112863198D01*
X137157728Y-113038562D01*
X137158455Y-113039563D01*
X137310437Y-113191545D01*
X137484322Y-113317880D01*
X137544237Y-113348408D01*
X137675829Y-113415458D01*
X137675832Y-113415459D01*
X137813283Y-113460119D01*
X137880245Y-113481876D01*
X138092533Y-113515500D01*
X138092534Y-113515500D01*
X138307466Y-113515500D01*
X138307467Y-113515500D01*
X138519755Y-113481876D01*
X138519758Y-113481875D01*
X138519759Y-113481875D01*
X138724167Y-113415459D01*
X138724170Y-113415458D01*
X138915678Y-113317880D01*
X139089563Y-113191545D01*
X139241545Y-113039563D01*
X139363447Y-112871779D01*
X181445000Y-112871779D01*
X181445000Y-113088220D01*
X181478857Y-113301981D01*
X181545736Y-113507816D01*
X181618683Y-113650985D01*
X181618684Y-113650985D01*
X182220000Y-113049669D01*
X182220000Y-113058991D01*
X182260889Y-113211591D01*
X182339881Y-113348408D01*
X182451592Y-113460119D01*
X182588409Y-113539111D01*
X182741009Y-113580000D01*
X182750330Y-113580000D01*
X182149014Y-114181314D01*
X182292182Y-114254263D01*
X182292185Y-114254264D01*
X182498018Y-114321142D01*
X182711780Y-114355000D01*
X182928220Y-114355000D01*
X183141981Y-114321142D01*
X183347814Y-114254264D01*
X183347817Y-114254263D01*
X183490984Y-114181314D01*
X182889671Y-113580000D01*
X182898991Y-113580000D01*
X183051591Y-113539111D01*
X183188408Y-113460119D01*
X183300119Y-113348408D01*
X183379111Y-113211591D01*
X183420000Y-113058991D01*
X183420000Y-113049670D01*
X184021314Y-113650984D01*
X184094263Y-113507817D01*
X184094264Y-113507814D01*
X184146994Y-113345528D01*
X203845694Y-113345528D01*
X203845694Y-113654471D01*
X203880280Y-113961437D01*
X203880283Y-113961455D01*
X203949025Y-114262635D01*
X203949029Y-114262647D01*
X204051056Y-114554222D01*
X204051062Y-114554236D01*
X204185097Y-114832562D01*
X204185099Y-114832565D01*
X204349459Y-115094143D01*
X204542074Y-115335674D01*
X204760520Y-115554120D01*
X205002051Y-115746735D01*
X205263629Y-115911095D01*
X205541965Y-116045135D01*
X205541971Y-116045137D01*
X205833546Y-116147164D01*
X205833558Y-116147168D01*
X206134742Y-116215911D01*
X206134748Y-116215911D01*
X206134756Y-116215913D01*
X206339400Y-116238970D01*
X206441723Y-116250499D01*
X206441726Y-116250500D01*
X206441729Y-116250500D01*
X206750662Y-116250500D01*
X206750663Y-116250499D01*
X206950575Y-116227975D01*
X207057631Y-116215913D01*
X207057636Y-116215912D01*
X207057646Y-116215911D01*
X207358830Y-116147168D01*
X207650423Y-116045135D01*
X207928759Y-115911095D01*
X208190337Y-115746735D01*
X208431868Y-115554120D01*
X208650314Y-115335674D01*
X208842929Y-115094143D01*
X209007289Y-114832565D01*
X209141329Y-114554229D01*
X209243362Y-114262636D01*
X209312105Y-113961452D01*
X209346694Y-113654465D01*
X209346694Y-113345535D01*
X209314846Y-113062872D01*
X209312107Y-113038562D01*
X209312104Y-113038544D01*
X209243362Y-112737364D01*
X209243358Y-112737352D01*
X209141331Y-112445777D01*
X209141329Y-112445771D01*
X209007289Y-112167435D01*
X208842929Y-111905857D01*
X208650314Y-111664326D01*
X208431868Y-111445880D01*
X208190337Y-111253265D01*
X207928759Y-111088905D01*
X207928756Y-111088903D01*
X207650430Y-110954868D01*
X207650416Y-110954862D01*
X207358841Y-110852835D01*
X207358829Y-110852831D01*
X207057649Y-110784089D01*
X207057631Y-110784086D01*
X206750665Y-110749500D01*
X206750659Y-110749500D01*
X206441729Y-110749500D01*
X206441722Y-110749500D01*
X206134756Y-110784086D01*
X206134738Y-110784089D01*
X205833558Y-110852831D01*
X205833546Y-110852835D01*
X205541971Y-110954862D01*
X205541957Y-110954868D01*
X205263631Y-111088903D01*
X205002052Y-111253264D01*
X204760520Y-111445879D01*
X204542073Y-111664326D01*
X204349458Y-111905858D01*
X204185097Y-112167437D01*
X204051062Y-112445763D01*
X204051056Y-112445777D01*
X203949029Y-112737352D01*
X203949025Y-112737364D01*
X203880283Y-113038544D01*
X203880280Y-113038562D01*
X203845694Y-113345528D01*
X184146994Y-113345528D01*
X184160572Y-113303738D01*
X184160573Y-113303736D01*
X184161142Y-113301982D01*
X184195000Y-113088220D01*
X184195000Y-112871779D01*
X184161142Y-112658018D01*
X184094264Y-112452185D01*
X184094263Y-112452182D01*
X184021314Y-112309014D01*
X183420000Y-112910328D01*
X183420000Y-112901009D01*
X183379111Y-112748409D01*
X183300119Y-112611592D01*
X183188408Y-112499881D01*
X183051591Y-112420889D01*
X182898991Y-112380000D01*
X182889671Y-112380000D01*
X183490985Y-111778684D01*
X183490985Y-111778683D01*
X183347816Y-111705736D01*
X183141981Y-111638857D01*
X182928220Y-111605000D01*
X182711780Y-111605000D01*
X182498018Y-111638857D01*
X182292183Y-111705736D01*
X182149013Y-111778683D01*
X182750330Y-112380000D01*
X182741009Y-112380000D01*
X182588409Y-112420889D01*
X182451592Y-112499881D01*
X182339881Y-112611592D01*
X182260889Y-112748409D01*
X182220000Y-112901009D01*
X182220000Y-112910330D01*
X181618683Y-112309013D01*
X181545736Y-112452183D01*
X181478857Y-112658018D01*
X181445000Y-112871779D01*
X139363447Y-112871779D01*
X139367880Y-112865678D01*
X139390883Y-112820532D01*
X139395934Y-112810619D01*
X139395934Y-112810618D01*
X139465458Y-112674170D01*
X139465459Y-112674167D01*
X139531875Y-112469759D01*
X139531875Y-112469758D01*
X139531876Y-112469755D01*
X139565500Y-112257467D01*
X139565500Y-111742533D01*
X139531876Y-111530245D01*
X139531875Y-111530241D01*
X139531875Y-111530240D01*
X139465459Y-111325832D01*
X139465458Y-111325829D01*
X139390882Y-111179467D01*
X139367880Y-111134322D01*
X139241545Y-110960437D01*
X139089563Y-110808455D01*
X138915678Y-110682120D01*
X138912499Y-110680500D01*
X138724170Y-110584541D01*
X138724167Y-110584540D01*
X138519757Y-110518124D01*
X138362559Y-110493226D01*
X138307467Y-110484500D01*
X138092533Y-110484500D01*
X138037441Y-110493226D01*
X137880243Y-110518124D01*
X137880240Y-110518124D01*
X137675832Y-110584540D01*
X137675829Y-110584541D01*
X137484321Y-110682120D01*
X137400981Y-110742671D01*
X137310437Y-110808455D01*
X137310435Y-110808457D01*
X137310434Y-110808457D01*
X137158457Y-110960434D01*
X137158457Y-110960435D01*
X137158455Y-110960437D01*
X137096634Y-111045526D01*
X137030318Y-111136802D01*
X136974988Y-111179467D01*
X136905374Y-111185446D01*
X136843579Y-111152840D01*
X136829682Y-111136802D01*
X136816836Y-111119121D01*
X136701545Y-110960437D01*
X136549563Y-110808455D01*
X136375678Y-110682120D01*
X136372499Y-110680500D01*
X136245725Y-110615905D01*
X136194929Y-110567930D01*
X136178134Y-110500109D01*
X136200672Y-110433974D01*
X136214333Y-110417744D01*
X136281789Y-110350289D01*
X136369394Y-110219179D01*
X136429737Y-110073497D01*
X136460500Y-109918842D01*
X136460500Y-109761158D01*
X136460500Y-109761155D01*
X136460499Y-109761153D01*
X136429737Y-109606503D01*
X136429735Y-109606498D01*
X136369397Y-109460827D01*
X136369390Y-109460814D01*
X136281789Y-109329711D01*
X136281786Y-109329707D01*
X136170292Y-109218213D01*
X136170288Y-109218210D01*
X136039185Y-109130609D01*
X136039172Y-109130602D01*
X135893501Y-109070264D01*
X135893489Y-109070261D01*
X135738845Y-109039500D01*
X135738842Y-109039500D01*
X135581158Y-109039500D01*
X135581155Y-109039500D01*
X135426510Y-109070261D01*
X135426498Y-109070264D01*
X135280827Y-109130602D01*
X135280814Y-109130609D01*
X135149711Y-109218210D01*
X135149707Y-109218213D01*
X135038213Y-109329707D01*
X135038210Y-109329711D01*
X134950609Y-109460814D01*
X134950602Y-109460827D01*
X134890264Y-109606498D01*
X134890261Y-109606510D01*
X134859500Y-109761153D01*
X134859500Y-109918846D01*
X134890261Y-110073489D01*
X134890264Y-110073501D01*
X134950602Y-110219172D01*
X134950609Y-110219185D01*
X135038210Y-110350288D01*
X135038213Y-110350292D01*
X135105660Y-110417739D01*
X135139145Y-110479062D01*
X135134161Y-110548754D01*
X135092289Y-110604687D01*
X135074275Y-110615904D01*
X134944323Y-110682118D01*
X134851581Y-110749500D01*
X134770437Y-110808455D01*
X134770435Y-110808457D01*
X134770434Y-110808457D01*
X134618457Y-110960434D01*
X134618457Y-110960435D01*
X134618455Y-110960437D01*
X134556634Y-111045526D01*
X134490318Y-111136802D01*
X134434988Y-111179467D01*
X134365374Y-111185446D01*
X134303579Y-111152840D01*
X134289682Y-111136802D01*
X134276836Y-111119121D01*
X134161545Y-110960437D01*
X134009563Y-110808455D01*
X133835678Y-110682120D01*
X133832499Y-110680500D01*
X133644170Y-110584541D01*
X133644167Y-110584540D01*
X133439757Y-110518124D01*
X133282559Y-110493226D01*
X133227467Y-110484500D01*
X133012533Y-110484500D01*
X132957441Y-110493226D01*
X132800243Y-110518124D01*
X132800240Y-110518124D01*
X132595832Y-110584540D01*
X132595829Y-110584541D01*
X132404321Y-110682120D01*
X132230438Y-110808454D01*
X132135910Y-110902982D01*
X132074586Y-110936466D01*
X132004895Y-110931482D01*
X131948962Y-110889610D01*
X131932047Y-110858632D01*
X131929883Y-110852831D01*
X131891344Y-110749500D01*
X131888798Y-110742673D01*
X131888793Y-110742664D01*
X131802547Y-110627455D01*
X131802544Y-110627452D01*
X131687335Y-110541206D01*
X131687328Y-110541202D01*
X131552482Y-110490908D01*
X131552483Y-110490908D01*
X131492883Y-110484501D01*
X131492881Y-110484500D01*
X131492873Y-110484500D01*
X131492864Y-110484500D01*
X129667129Y-110484500D01*
X129667123Y-110484501D01*
X129607516Y-110490908D01*
X129472671Y-110541202D01*
X129472664Y-110541206D01*
X129357455Y-110627452D01*
X129357452Y-110627455D01*
X129271206Y-110742664D01*
X129271202Y-110742671D01*
X129220908Y-110877517D01*
X129214501Y-110937116D01*
X129214500Y-110937135D01*
X114099755Y-110937135D01*
X113858841Y-110852835D01*
X113858829Y-110852831D01*
X113557649Y-110784089D01*
X113557631Y-110784086D01*
X113250665Y-110749500D01*
X113250659Y-110749500D01*
X112941729Y-110749500D01*
X112941722Y-110749500D01*
X112634756Y-110784086D01*
X112634738Y-110784089D01*
X112333558Y-110852831D01*
X112333546Y-110852835D01*
X112041971Y-110954862D01*
X112041957Y-110954868D01*
X111763631Y-111088903D01*
X111502052Y-111253264D01*
X111260520Y-111445879D01*
X111042073Y-111664326D01*
X110849458Y-111905858D01*
X110685097Y-112167437D01*
X110551062Y-112445763D01*
X110551056Y-112445777D01*
X110449029Y-112737352D01*
X110449025Y-112737364D01*
X110380283Y-113038544D01*
X110380280Y-113038562D01*
X110345694Y-113345528D01*
X107000500Y-113345528D01*
X107000500Y-106433713D01*
X114649500Y-106433713D01*
X114649500Y-106646286D01*
X114676295Y-106815466D01*
X114682754Y-106856243D01*
X114736853Y-107022743D01*
X114748444Y-107058414D01*
X114844951Y-107247820D01*
X114969890Y-107419786D01*
X115120213Y-107570109D01*
X115292179Y-107695048D01*
X115292181Y-107695049D01*
X115292184Y-107695051D01*
X115481588Y-107791557D01*
X115683757Y-107857246D01*
X115893713Y-107890500D01*
X115893714Y-107890500D01*
X116106286Y-107890500D01*
X116106287Y-107890500D01*
X116316243Y-107857246D01*
X116518412Y-107791557D01*
X116707816Y-107695051D01*
X116729789Y-107679086D01*
X116879786Y-107570109D01*
X116879788Y-107570106D01*
X116879792Y-107570104D01*
X117030104Y-107419792D01*
X117030106Y-107419788D01*
X117030109Y-107419786D01*
X117155048Y-107247820D01*
X117155047Y-107247820D01*
X117155051Y-107247816D01*
X117251557Y-107058412D01*
X117317246Y-106856243D01*
X117350500Y-106646287D01*
X117350500Y-106433713D01*
X117317246Y-106223757D01*
X117251557Y-106021588D01*
X117155051Y-105832184D01*
X117155049Y-105832181D01*
X117155048Y-105832179D01*
X117030109Y-105660213D01*
X116879786Y-105509890D01*
X116707817Y-105384949D01*
X116698504Y-105380204D01*
X116647707Y-105332230D01*
X116630912Y-105264409D01*
X116646883Y-105217539D01*
X116652397Y-105182727D01*
X116000001Y-104530330D01*
X116000000Y-104530330D01*
X115347601Y-105182727D01*
X115351335Y-105206306D01*
X115352291Y-105207208D01*
X115369086Y-105275029D01*
X115346549Y-105341164D01*
X115301501Y-105380201D01*
X115292181Y-105384950D01*
X115120213Y-105509890D01*
X114969890Y-105660213D01*
X114844951Y-105832179D01*
X114748444Y-106021585D01*
X114682753Y-106223760D01*
X114649500Y-106433713D01*
X107000500Y-106433713D01*
X107000500Y-103893753D01*
X114650000Y-103893753D01*
X114650000Y-104106246D01*
X114683242Y-104316127D01*
X114683242Y-104316130D01*
X114748904Y-104518217D01*
X114748906Y-104518220D01*
X114817272Y-104652397D01*
X115469670Y-104000000D01*
X115403844Y-103934174D01*
X115500000Y-103934174D01*
X115500000Y-104065826D01*
X115534075Y-104192993D01*
X115599901Y-104307007D01*
X115692993Y-104400099D01*
X115807007Y-104465925D01*
X115934174Y-104500000D01*
X116065826Y-104500000D01*
X116192993Y-104465925D01*
X116307007Y-104400099D01*
X116400099Y-104307007D01*
X116465925Y-104192993D01*
X116500000Y-104065826D01*
X116500000Y-103999999D01*
X116530330Y-103999999D01*
X116530330Y-104000000D01*
X117182726Y-104652396D01*
X117251095Y-104518217D01*
X117316757Y-104316130D01*
X117316757Y-104316127D01*
X117350000Y-104106246D01*
X117350000Y-104028629D01*
X122789100Y-104028629D01*
X122789100Y-104211370D01*
X122817684Y-104391841D01*
X122817685Y-104391845D01*
X122874152Y-104565631D01*
X122957109Y-104728444D01*
X123064515Y-104876276D01*
X123193724Y-105005485D01*
X123341556Y-105112891D01*
X123504369Y-105195848D01*
X123678155Y-105252315D01*
X123745835Y-105263034D01*
X123858630Y-105280900D01*
X123858635Y-105280900D01*
X124041370Y-105280900D01*
X124145486Y-105264409D01*
X124221845Y-105252315D01*
X124395631Y-105195848D01*
X124558444Y-105112891D01*
X124706276Y-105005485D01*
X124798372Y-104913389D01*
X145469500Y-104913389D01*
X145469500Y-105086610D01*
X145488600Y-105207208D01*
X145496598Y-105257701D01*
X145550127Y-105422445D01*
X145628768Y-105576788D01*
X145730586Y-105716928D01*
X145853072Y-105839414D01*
X145993212Y-105941232D01*
X146147555Y-106019873D01*
X146312299Y-106073402D01*
X146483389Y-106100500D01*
X146483390Y-106100500D01*
X146656610Y-106100500D01*
X146656611Y-106100500D01*
X146827701Y-106073402D01*
X146992445Y-106019873D01*
X147146788Y-105941232D01*
X147286928Y-105839414D01*
X147409414Y-105716928D01*
X147511232Y-105576788D01*
X147589873Y-105422445D01*
X147643402Y-105257701D01*
X147670500Y-105086611D01*
X147670500Y-104913389D01*
X147660854Y-104852486D01*
X149399500Y-104852486D01*
X149399500Y-105147513D01*
X149424228Y-105335330D01*
X149438007Y-105439993D01*
X149512212Y-105716930D01*
X149514361Y-105724951D01*
X149514364Y-105724961D01*
X149627254Y-105997500D01*
X149627258Y-105997510D01*
X149774761Y-106252993D01*
X149954352Y-106487040D01*
X149954358Y-106487047D01*
X150162952Y-106695641D01*
X150162959Y-106695647D01*
X150397006Y-106875238D01*
X150652489Y-107022741D01*
X150652490Y-107022741D01*
X150652493Y-107022743D01*
X150925048Y-107135639D01*
X151210007Y-107211993D01*
X151502494Y-107250500D01*
X151502501Y-107250500D01*
X151797499Y-107250500D01*
X151797506Y-107250500D01*
X152089993Y-107211993D01*
X152374952Y-107135639D01*
X152647507Y-107022743D01*
X152656332Y-107017648D01*
X169699500Y-107017648D01*
X169699500Y-107222351D01*
X169731522Y-107424534D01*
X169794781Y-107619223D01*
X169833418Y-107695051D01*
X169886745Y-107799711D01*
X169887715Y-107801613D01*
X170008028Y-107967213D01*
X170152786Y-108111971D01*
X170247910Y-108181081D01*
X170318390Y-108232287D01*
X170434607Y-108291503D01*
X170500776Y-108325218D01*
X170500778Y-108325218D01*
X170500781Y-108325220D01*
X170556546Y-108343339D01*
X170695465Y-108388477D01*
X170796557Y-108404488D01*
X170897648Y-108420500D01*
X170897649Y-108420500D01*
X171102351Y-108420500D01*
X171102352Y-108420500D01*
X171304534Y-108388477D01*
X171499219Y-108325220D01*
X171681610Y-108232287D01*
X171774590Y-108164732D01*
X171847213Y-108111971D01*
X171847215Y-108111968D01*
X171847219Y-108111966D01*
X171991966Y-107967219D01*
X171991968Y-107967215D01*
X171991971Y-107967213D01*
X172071865Y-107857246D01*
X172112287Y-107801610D01*
X172205220Y-107619219D01*
X172241126Y-107508711D01*
X178519500Y-107508711D01*
X178519500Y-107751288D01*
X178547926Y-107967213D01*
X178551162Y-107991789D01*
X178564452Y-108041389D01*
X178613947Y-108226104D01*
X178694469Y-108420500D01*
X178706776Y-108450212D01*
X178828064Y-108660289D01*
X178828066Y-108660292D01*
X178828067Y-108660293D01*
X178975733Y-108852736D01*
X178975739Y-108852743D01*
X179147256Y-109024260D01*
X179147263Y-109024266D01*
X179207205Y-109070261D01*
X179339711Y-109171936D01*
X179549788Y-109293224D01*
X179684719Y-109349114D01*
X179771997Y-109385266D01*
X179773900Y-109386054D01*
X180008211Y-109448838D01*
X180188586Y-109472584D01*
X180248711Y-109480500D01*
X180248712Y-109480500D01*
X180491289Y-109480500D01*
X180539388Y-109474167D01*
X180731789Y-109448838D01*
X180966100Y-109386054D01*
X181190212Y-109293224D01*
X181400289Y-109171936D01*
X181592738Y-109024265D01*
X181764265Y-108852738D01*
X181874781Y-108708711D01*
X186919500Y-108708711D01*
X186919500Y-108951288D01*
X186951161Y-109191785D01*
X187013947Y-109426104D01*
X187092083Y-109614741D01*
X187106776Y-109650212D01*
X187228064Y-109860289D01*
X187228066Y-109860292D01*
X187228067Y-109860293D01*
X187375733Y-110052736D01*
X187375739Y-110052743D01*
X187547256Y-110224260D01*
X187547263Y-110224266D01*
X187614541Y-110275890D01*
X187739711Y-110371936D01*
X187949788Y-110493224D01*
X188173900Y-110586054D01*
X188408211Y-110648838D01*
X188588586Y-110672584D01*
X188648711Y-110680500D01*
X188648712Y-110680500D01*
X188891289Y-110680500D01*
X188939388Y-110674167D01*
X189131789Y-110648838D01*
X189366100Y-110586054D01*
X189590212Y-110493224D01*
X189800289Y-110371936D01*
X189992738Y-110224265D01*
X190164265Y-110052738D01*
X190311936Y-109860289D01*
X190433224Y-109650212D01*
X190526054Y-109426100D01*
X190536998Y-109385258D01*
X194249500Y-109385258D01*
X194249500Y-109614741D01*
X194268777Y-109761153D01*
X194279452Y-109842238D01*
X194299979Y-109918846D01*
X194338842Y-110063887D01*
X194426650Y-110275876D01*
X194426657Y-110275890D01*
X194541392Y-110474617D01*
X194681081Y-110656661D01*
X194681089Y-110656670D01*
X194843330Y-110818911D01*
X194843338Y-110818918D01*
X195025382Y-110958607D01*
X195025385Y-110958608D01*
X195025388Y-110958611D01*
X195224112Y-111073344D01*
X195224117Y-111073346D01*
X195224123Y-111073349D01*
X195261679Y-111088905D01*
X195436113Y-111161158D01*
X195657762Y-111220548D01*
X195885266Y-111250500D01*
X195885273Y-111250500D01*
X196114727Y-111250500D01*
X196114734Y-111250500D01*
X196342238Y-111220548D01*
X196563887Y-111161158D01*
X196775888Y-111073344D01*
X196974612Y-110958611D01*
X197156661Y-110818919D01*
X197156665Y-110818914D01*
X197156670Y-110818911D01*
X197318911Y-110656670D01*
X197318914Y-110656665D01*
X197318919Y-110656661D01*
X197458611Y-110474612D01*
X197573344Y-110275888D01*
X197661158Y-110063887D01*
X197720548Y-109842238D01*
X197750500Y-109614734D01*
X197750500Y-109385266D01*
X197720548Y-109157762D01*
X197661158Y-108936113D01*
X197573344Y-108724112D01*
X197458611Y-108525388D01*
X197458608Y-108525385D01*
X197458607Y-108525382D01*
X197318918Y-108343338D01*
X197318911Y-108343330D01*
X197156670Y-108181089D01*
X197156661Y-108181081D01*
X196974617Y-108041392D01*
X196775890Y-107926657D01*
X196772242Y-107924858D01*
X196772801Y-107923723D01*
X196722626Y-107883268D01*
X196700578Y-107816968D01*
X196700500Y-107812574D01*
X196700500Y-106291518D01*
X196720185Y-106224479D01*
X196736814Y-106203842D01*
X198735673Y-104204983D01*
X200924500Y-104204983D01*
X200924500Y-105405001D01*
X200924501Y-105405018D01*
X200935000Y-105507796D01*
X200935001Y-105507799D01*
X200957862Y-105576788D01*
X200990186Y-105674334D01*
X201082288Y-105823656D01*
X201206344Y-105947712D01*
X201355666Y-106039814D01*
X201522203Y-106094999D01*
X201624991Y-106105500D01*
X202825008Y-106105499D01*
X202927797Y-106094999D01*
X203094334Y-106039814D01*
X203239053Y-105950551D01*
X204149776Y-105950551D01*
X204265968Y-106009755D01*
X204460582Y-106072990D01*
X204662683Y-106105000D01*
X204867317Y-106105000D01*
X205069417Y-106072990D01*
X205264025Y-106009756D01*
X205380222Y-105950551D01*
X204765001Y-105335330D01*
X204765000Y-105335330D01*
X204149776Y-105950551D01*
X203239053Y-105950551D01*
X203243656Y-105947712D01*
X203367712Y-105823656D01*
X203459814Y-105674334D01*
X203514663Y-105508808D01*
X203554434Y-105451365D01*
X203612406Y-105427262D01*
X204234670Y-104805000D01*
X204182009Y-104752339D01*
X204365000Y-104752339D01*
X204365000Y-104857661D01*
X204392259Y-104959394D01*
X204444920Y-105050606D01*
X204519394Y-105125080D01*
X204610606Y-105177741D01*
X204712339Y-105205000D01*
X204817661Y-105205000D01*
X204919394Y-105177741D01*
X205010606Y-105125080D01*
X205085080Y-105050606D01*
X205137741Y-104959394D01*
X205165000Y-104857661D01*
X205165000Y-104804999D01*
X205295330Y-104804999D01*
X205295330Y-104805001D01*
X205910551Y-105420222D01*
X205969756Y-105304025D01*
X206032990Y-105109417D01*
X206065000Y-104907317D01*
X206065000Y-104702682D01*
X206032990Y-104500582D01*
X205969755Y-104305968D01*
X205910551Y-104189776D01*
X205295330Y-104804999D01*
X205165000Y-104804999D01*
X205165000Y-104752339D01*
X205137741Y-104650606D01*
X205085080Y-104559394D01*
X205010606Y-104484920D01*
X204919394Y-104432259D01*
X204817661Y-104405000D01*
X204712339Y-104405000D01*
X204610606Y-104432259D01*
X204519394Y-104484920D01*
X204444920Y-104559394D01*
X204392259Y-104650606D01*
X204365000Y-104752339D01*
X204182009Y-104752339D01*
X203608770Y-104179100D01*
X203582471Y-104175701D01*
X203529020Y-104130704D01*
X203514663Y-104101188D01*
X203496126Y-104045248D01*
X203459814Y-103935666D01*
X203367712Y-103786344D01*
X203243656Y-103662288D01*
X203239048Y-103659446D01*
X204149776Y-103659446D01*
X204765000Y-104274670D01*
X204765001Y-104274670D01*
X205380221Y-103659447D01*
X205264031Y-103600244D01*
X205069417Y-103537009D01*
X204867317Y-103505000D01*
X204662683Y-103505000D01*
X204460582Y-103537009D01*
X204265972Y-103600243D01*
X204265965Y-103600246D01*
X204149776Y-103659446D01*
X203239048Y-103659446D01*
X203094334Y-103570186D01*
X202927797Y-103515001D01*
X202927795Y-103515000D01*
X202825010Y-103504500D01*
X201624998Y-103504500D01*
X201624981Y-103504501D01*
X201522203Y-103515000D01*
X201522200Y-103515001D01*
X201355668Y-103570185D01*
X201355663Y-103570187D01*
X201206342Y-103662289D01*
X201082289Y-103786342D01*
X200990187Y-103935663D01*
X200990185Y-103935668D01*
X200975453Y-103980127D01*
X200935001Y-104102203D01*
X200935001Y-104102204D01*
X200935000Y-104102204D01*
X200924500Y-104204983D01*
X198735673Y-104204983D01*
X204438852Y-98501803D01*
X204500173Y-98468320D01*
X204545929Y-98467013D01*
X204600395Y-98475639D01*
X204662648Y-98485500D01*
X204662649Y-98485500D01*
X204867351Y-98485500D01*
X204867352Y-98485500D01*
X205069534Y-98453477D01*
X205264219Y-98390220D01*
X205446610Y-98297287D01*
X205548057Y-98223582D01*
X205612213Y-98176971D01*
X205612215Y-98176968D01*
X205612219Y-98176966D01*
X205756966Y-98032219D01*
X205756968Y-98032215D01*
X205756971Y-98032213D01*
X205809732Y-97959590D01*
X205877287Y-97866610D01*
X205970220Y-97684219D01*
X206033477Y-97489534D01*
X206065500Y-97287352D01*
X206065500Y-97082648D01*
X206048718Y-96976693D01*
X206033477Y-96880465D01*
X205970218Y-96685776D01*
X205913509Y-96574480D01*
X205877287Y-96503390D01*
X205805372Y-96404406D01*
X205756971Y-96337786D01*
X205612213Y-96193028D01*
X205446613Y-96072715D01*
X205446612Y-96072714D01*
X205446610Y-96072713D01*
X205389653Y-96043691D01*
X205264223Y-95979781D01*
X205069534Y-95916522D01*
X204894995Y-95888878D01*
X204867352Y-95884500D01*
X204662648Y-95884500D01*
X204638329Y-95888351D01*
X204460465Y-95916522D01*
X204265776Y-95979781D01*
X204083386Y-96072715D01*
X203917786Y-96193028D01*
X203773028Y-96337786D01*
X203652715Y-96503386D01*
X203605485Y-96596080D01*
X203557510Y-96646876D01*
X203489689Y-96663671D01*
X203423554Y-96641134D01*
X203384515Y-96596080D01*
X203373509Y-96574480D01*
X203337287Y-96503390D01*
X203265372Y-96404406D01*
X203216971Y-96337786D01*
X203072213Y-96193028D01*
X202906613Y-96072715D01*
X202906612Y-96072714D01*
X202906610Y-96072713D01*
X202849653Y-96043691D01*
X202724223Y-95979781D01*
X202529534Y-95916522D01*
X202354995Y-95888878D01*
X202327352Y-95884500D01*
X202122648Y-95884500D01*
X202098329Y-95888351D01*
X201920465Y-95916522D01*
X201725776Y-95979781D01*
X201543386Y-96072715D01*
X201377786Y-96193028D01*
X201233028Y-96337786D01*
X201112715Y-96503386D01*
X201019781Y-96685776D01*
X200956522Y-96880465D01*
X200924500Y-97082648D01*
X200924500Y-97287351D01*
X200956522Y-97489534D01*
X201019781Y-97684223D01*
X201055799Y-97754911D01*
X201106102Y-97853636D01*
X201112715Y-97866613D01*
X201233028Y-98032213D01*
X201377786Y-98176971D01*
X201524718Y-98283721D01*
X201543390Y-98297287D01*
X201659607Y-98356503D01*
X201725776Y-98390218D01*
X201725778Y-98390218D01*
X201725781Y-98390220D01*
X201830137Y-98424127D01*
X201920465Y-98453477D01*
X202021557Y-98469488D01*
X202122648Y-98485500D01*
X202122649Y-98485500D01*
X202174480Y-98485500D01*
X202241519Y-98505185D01*
X202287274Y-98557989D01*
X202297218Y-98627147D01*
X202268193Y-98690703D01*
X202262161Y-98697181D01*
X195455888Y-105503453D01*
X195455887Y-105503454D01*
X195379222Y-105618192D01*
X195326421Y-105745667D01*
X195326418Y-105745679D01*
X195300906Y-105873938D01*
X195300905Y-105873945D01*
X195299501Y-105881001D01*
X195299500Y-105881011D01*
X195299500Y-107812574D01*
X195279815Y-107879613D01*
X195227710Y-107924761D01*
X195227758Y-107924858D01*
X195227390Y-107925039D01*
X195227011Y-107925368D01*
X195224553Y-107926438D01*
X195224109Y-107926657D01*
X195025382Y-108041392D01*
X194843338Y-108181081D01*
X194681081Y-108343338D01*
X194541392Y-108525382D01*
X194426657Y-108724109D01*
X194426650Y-108724123D01*
X194338842Y-108936112D01*
X194338842Y-108936113D01*
X194286730Y-109130602D01*
X194279453Y-109157759D01*
X194279451Y-109157770D01*
X194249500Y-109385258D01*
X190536998Y-109385258D01*
X190588838Y-109191789D01*
X190620500Y-108951288D01*
X190620500Y-108708712D01*
X190588838Y-108468211D01*
X190526054Y-108233900D01*
X190433224Y-108009788D01*
X190311936Y-107799711D01*
X190173443Y-107619223D01*
X190164266Y-107607263D01*
X190164260Y-107607256D01*
X189992743Y-107435739D01*
X189992736Y-107435733D01*
X189800293Y-107288067D01*
X189800292Y-107288066D01*
X189800289Y-107288064D01*
X189590212Y-107166776D01*
X189590205Y-107166773D01*
X189366104Y-107073947D01*
X189131785Y-107011161D01*
X188891289Y-106979500D01*
X188891288Y-106979500D01*
X188648712Y-106979500D01*
X188648711Y-106979500D01*
X188408214Y-107011161D01*
X188173895Y-107073947D01*
X187949794Y-107166773D01*
X187949785Y-107166777D01*
X187739706Y-107288067D01*
X187547263Y-107435733D01*
X187547256Y-107435739D01*
X187375739Y-107607256D01*
X187375733Y-107607263D01*
X187228067Y-107799706D01*
X187106777Y-108009785D01*
X187106773Y-108009794D01*
X187013947Y-108233895D01*
X186951161Y-108468214D01*
X186919500Y-108708711D01*
X181874781Y-108708711D01*
X181911936Y-108660289D01*
X182033224Y-108450212D01*
X182126054Y-108226100D01*
X182188838Y-107991789D01*
X182220500Y-107751288D01*
X182220500Y-107508712D01*
X182188838Y-107268211D01*
X182126054Y-107033900D01*
X182121433Y-107022745D01*
X182072823Y-106905389D01*
X182033224Y-106809788D01*
X181911936Y-106599711D01*
X181764265Y-106407262D01*
X181764260Y-106407256D01*
X181592743Y-106235739D01*
X181592736Y-106235733D01*
X181400293Y-106088067D01*
X181400292Y-106088066D01*
X181400289Y-106088064D01*
X181190212Y-105966776D01*
X181190205Y-105966773D01*
X180966104Y-105873947D01*
X180810225Y-105832179D01*
X180731789Y-105811162D01*
X180731788Y-105811161D01*
X180731785Y-105811161D01*
X180491289Y-105779500D01*
X180491288Y-105779500D01*
X180248712Y-105779500D01*
X180248711Y-105779500D01*
X180008214Y-105811161D01*
X179773895Y-105873947D01*
X179549794Y-105966773D01*
X179549785Y-105966777D01*
X179339706Y-106088067D01*
X179147263Y-106235733D01*
X179147256Y-106235739D01*
X178975739Y-106407256D01*
X178975733Y-106407263D01*
X178828067Y-106599706D01*
X178706777Y-106809785D01*
X178706773Y-106809794D01*
X178613947Y-107033895D01*
X178551161Y-107268214D01*
X178519500Y-107508711D01*
X172241126Y-107508711D01*
X172268477Y-107424534D01*
X172300500Y-107222352D01*
X172300500Y-107017648D01*
X172282720Y-106905389D01*
X172268477Y-106815465D01*
X172205218Y-106620776D01*
X172171503Y-106554607D01*
X172112287Y-106438390D01*
X172089672Y-106407263D01*
X171991971Y-106272786D01*
X171847213Y-106128028D01*
X171681613Y-106007715D01*
X171681612Y-106007714D01*
X171681610Y-106007713D01*
X171601261Y-105966773D01*
X171499223Y-105914781D01*
X171304534Y-105851522D01*
X171128598Y-105823657D01*
X171102352Y-105819500D01*
X170897648Y-105819500D01*
X170873329Y-105823351D01*
X170695465Y-105851522D01*
X170500776Y-105914781D01*
X170318386Y-106007715D01*
X170152786Y-106128028D01*
X170008028Y-106272786D01*
X169887715Y-106438386D01*
X169794781Y-106620776D01*
X169731522Y-106815465D01*
X169699500Y-107017648D01*
X152656332Y-107017648D01*
X152902994Y-106875238D01*
X153137042Y-106695646D01*
X153345646Y-106487042D01*
X153525238Y-106252994D01*
X153672743Y-105997507D01*
X153785639Y-105724952D01*
X153861993Y-105439993D01*
X153900500Y-105147506D01*
X153900500Y-104852494D01*
X153861993Y-104560007D01*
X153785639Y-104275048D01*
X153785482Y-104274670D01*
X153715719Y-104106246D01*
X153672743Y-104002493D01*
X153631461Y-103930991D01*
X153583313Y-103847595D01*
X153525238Y-103747006D01*
X153345647Y-103512959D01*
X153345641Y-103512952D01*
X153137047Y-103304358D01*
X153137040Y-103304352D01*
X152902993Y-103124761D01*
X152647510Y-102977258D01*
X152647500Y-102977254D01*
X152374961Y-102864364D01*
X152374954Y-102864362D01*
X152374952Y-102864361D01*
X152089993Y-102788007D01*
X152041113Y-102781571D01*
X151797513Y-102749500D01*
X151797506Y-102749500D01*
X151502494Y-102749500D01*
X151502486Y-102749500D01*
X151224085Y-102786153D01*
X151210007Y-102788007D01*
X151100792Y-102817271D01*
X150925048Y-102864361D01*
X150925038Y-102864364D01*
X150652499Y-102977254D01*
X150652489Y-102977258D01*
X150397006Y-103124761D01*
X150162959Y-103304352D01*
X150162952Y-103304358D01*
X149954358Y-103512952D01*
X149954352Y-103512959D01*
X149774761Y-103747006D01*
X149627258Y-104002489D01*
X149627254Y-104002499D01*
X149514364Y-104275038D01*
X149514361Y-104275048D01*
X149458127Y-104484920D01*
X149438008Y-104560004D01*
X149438006Y-104560015D01*
X149399500Y-104852486D01*
X147660854Y-104852486D01*
X147643402Y-104742299D01*
X147589873Y-104577555D01*
X147511232Y-104423212D01*
X147409414Y-104283072D01*
X147286928Y-104160586D01*
X147146788Y-104058768D01*
X146992445Y-103980127D01*
X146827701Y-103926598D01*
X146827699Y-103926597D01*
X146827698Y-103926597D01*
X146696271Y-103905781D01*
X146656611Y-103899500D01*
X146483389Y-103899500D01*
X146443728Y-103905781D01*
X146312302Y-103926597D01*
X146147552Y-103980128D01*
X145993211Y-104058768D01*
X145927864Y-104106246D01*
X145853072Y-104160586D01*
X145853070Y-104160588D01*
X145853069Y-104160588D01*
X145730588Y-104283069D01*
X145730588Y-104283070D01*
X145730586Y-104283072D01*
X145713951Y-104305968D01*
X145628768Y-104423211D01*
X145550128Y-104577552D01*
X145496597Y-104742302D01*
X145469500Y-104913389D01*
X124798372Y-104913389D01*
X124835485Y-104876276D01*
X124942891Y-104728444D01*
X125025848Y-104565631D01*
X125082315Y-104391845D01*
X125095752Y-104307007D01*
X125110900Y-104211370D01*
X125110900Y-104028629D01*
X125082315Y-103848158D01*
X125082315Y-103848155D01*
X125025848Y-103674369D01*
X124942891Y-103511556D01*
X124835485Y-103363724D01*
X124706276Y-103234515D01*
X124558444Y-103127109D01*
X124395631Y-103044152D01*
X124221845Y-102987685D01*
X124221843Y-102987684D01*
X124221841Y-102987684D01*
X124041370Y-102959100D01*
X124041365Y-102959100D01*
X123858635Y-102959100D01*
X123858630Y-102959100D01*
X123678158Y-102987684D01*
X123504366Y-103044153D01*
X123341555Y-103127109D01*
X123193721Y-103234517D01*
X123064517Y-103363721D01*
X122957109Y-103511555D01*
X122874153Y-103674366D01*
X122817684Y-103848158D01*
X122789100Y-104028629D01*
X117350000Y-104028629D01*
X117350000Y-103893753D01*
X117316757Y-103683872D01*
X117316757Y-103683869D01*
X117251095Y-103481782D01*
X117251094Y-103481779D01*
X117182726Y-103347602D01*
X116530330Y-103999999D01*
X116500000Y-103999999D01*
X116500000Y-103934174D01*
X116465925Y-103807007D01*
X116400099Y-103692993D01*
X116307007Y-103599901D01*
X116192993Y-103534075D01*
X116065826Y-103500000D01*
X115934174Y-103500000D01*
X115807007Y-103534075D01*
X115692993Y-103599901D01*
X115599901Y-103692993D01*
X115534075Y-103807007D01*
X115500000Y-103934174D01*
X115403844Y-103934174D01*
X114817271Y-103347601D01*
X114748905Y-103481780D01*
X114748905Y-103481781D01*
X114683242Y-103683869D01*
X114683242Y-103683872D01*
X114650000Y-103893753D01*
X107000500Y-103893753D01*
X107000500Y-101499977D01*
X106964827Y-101001204D01*
X106893663Y-100506246D01*
X106893662Y-100506239D01*
X106787372Y-100017634D01*
X106787369Y-100017624D01*
X106785814Y-100012328D01*
X106646490Y-99537836D01*
X106507818Y-99166040D01*
X106500000Y-99122707D01*
X106500000Y-84868905D01*
X112342500Y-84868905D01*
X112342500Y-85131094D01*
X112376720Y-85391009D01*
X112376722Y-85391020D01*
X112444575Y-85644255D01*
X112544904Y-85886471D01*
X112544909Y-85886482D01*
X112675994Y-86113526D01*
X112685827Y-86126340D01*
X112685829Y-86126340D01*
X113616689Y-85195479D01*
X113621322Y-85218767D01*
X113677859Y-85355258D01*
X113759937Y-85478097D01*
X113864403Y-85582563D01*
X113987242Y-85664641D01*
X114123733Y-85721178D01*
X114147019Y-85725809D01*
X113216157Y-86656670D01*
X113216158Y-86656671D01*
X113228974Y-86666505D01*
X113228973Y-86666505D01*
X113456017Y-86797590D01*
X113456028Y-86797595D01*
X113698244Y-86897924D01*
X113951479Y-86965777D01*
X113951490Y-86965779D01*
X114211405Y-86999999D01*
X114211420Y-87000000D01*
X114473580Y-87000000D01*
X114473594Y-86999999D01*
X114733509Y-86965779D01*
X114733520Y-86965777D01*
X114986755Y-86897924D01*
X115228971Y-86797595D01*
X115228982Y-86797590D01*
X115456016Y-86666512D01*
X115456019Y-86666509D01*
X115468841Y-86656670D01*
X114537980Y-85725810D01*
X114561267Y-85721178D01*
X114697758Y-85664641D01*
X114820597Y-85582563D01*
X114925063Y-85478097D01*
X115007141Y-85355258D01*
X115063678Y-85218767D01*
X115068310Y-85195480D01*
X115999170Y-86126341D01*
X116009009Y-86113519D01*
X116009012Y-86113516D01*
X116140090Y-85886482D01*
X116140095Y-85886471D01*
X116240424Y-85644255D01*
X116308277Y-85391020D01*
X116308279Y-85391009D01*
X116342499Y-85131094D01*
X116342500Y-85131080D01*
X116342500Y-84868919D01*
X116342499Y-84868905D01*
X116308279Y-84608990D01*
X116308277Y-84608979D01*
X116240424Y-84355744D01*
X116140095Y-84113528D01*
X116140090Y-84113517D01*
X116009005Y-83886474D01*
X115999171Y-83873658D01*
X115999170Y-83873657D01*
X115068309Y-84804518D01*
X115063678Y-84781233D01*
X115007141Y-84644742D01*
X114925063Y-84521903D01*
X114820597Y-84417437D01*
X114697758Y-84335359D01*
X114561267Y-84278822D01*
X114537980Y-84274190D01*
X115468840Y-83343329D01*
X115468840Y-83343327D01*
X115456026Y-83333494D01*
X115228982Y-83202409D01*
X115228971Y-83202404D01*
X114986755Y-83102075D01*
X114733520Y-83034222D01*
X114733509Y-83034220D01*
X114473594Y-83000000D01*
X114211405Y-83000000D01*
X113951490Y-83034220D01*
X113951479Y-83034222D01*
X113698244Y-83102075D01*
X113456028Y-83202404D01*
X113456017Y-83202409D01*
X113228974Y-83333493D01*
X113228967Y-83333497D01*
X113216157Y-83343327D01*
X113216157Y-83343328D01*
X114147019Y-84274189D01*
X114123733Y-84278822D01*
X113987242Y-84335359D01*
X113864403Y-84417437D01*
X113759937Y-84521903D01*
X113677859Y-84644742D01*
X113621322Y-84781233D01*
X113616690Y-84804519D01*
X112685828Y-83873657D01*
X112685827Y-83873657D01*
X112675997Y-83886467D01*
X112675993Y-83886474D01*
X112544909Y-84113517D01*
X112544904Y-84113528D01*
X112444575Y-84355744D01*
X112376722Y-84608979D01*
X112376720Y-84608990D01*
X112342500Y-84868905D01*
X106500000Y-84868905D01*
X106500000Y-76868872D01*
X112342000Y-76868872D01*
X112342000Y-77131127D01*
X112368623Y-77333339D01*
X112376230Y-77391116D01*
X112444102Y-77644418D01*
X112444105Y-77644428D01*
X112544453Y-77886690D01*
X112544458Y-77886700D01*
X112675575Y-78113803D01*
X112835218Y-78321851D01*
X112835226Y-78321860D01*
X113020640Y-78507274D01*
X113020648Y-78507281D01*
X113228696Y-78666924D01*
X113455799Y-78798041D01*
X113455809Y-78798046D01*
X113698071Y-78898394D01*
X113698081Y-78898398D01*
X113951384Y-78966270D01*
X114211380Y-79000500D01*
X114211387Y-79000500D01*
X114473613Y-79000500D01*
X114473620Y-79000500D01*
X114733616Y-78966270D01*
X114986919Y-78898398D01*
X115096568Y-78852978D01*
X115166037Y-78845510D01*
X115228516Y-78876785D01*
X115231702Y-78879859D01*
X117263181Y-80911338D01*
X117296666Y-80972661D01*
X117299500Y-80999019D01*
X117299500Y-91158480D01*
X117279815Y-91225519D01*
X117263181Y-91246161D01*
X112655888Y-95853453D01*
X112655887Y-95853454D01*
X112579222Y-95968192D01*
X112526421Y-96095667D01*
X112526418Y-96095679D01*
X112504239Y-96207182D01*
X112504239Y-96207185D01*
X112499500Y-96231007D01*
X112499500Y-99331006D01*
X112499500Y-99468994D01*
X112499500Y-99468996D01*
X112499499Y-99468996D01*
X112526418Y-99604322D01*
X112526421Y-99604332D01*
X112579222Y-99731807D01*
X112655887Y-99846545D01*
X112655888Y-99846546D01*
X114708470Y-101899127D01*
X114738719Y-101948487D01*
X114748443Y-101978413D01*
X114844951Y-102167820D01*
X114969890Y-102339786D01*
X115120213Y-102490109D01*
X115292179Y-102615048D01*
X115292181Y-102615049D01*
X115292184Y-102615051D01*
X115301491Y-102619793D01*
X115352288Y-102667765D01*
X115369085Y-102735586D01*
X115353118Y-102782445D01*
X115347601Y-102817271D01*
X116000000Y-103469670D01*
X116000001Y-103469670D01*
X116652397Y-102817272D01*
X116648662Y-102793691D01*
X116647709Y-102792791D01*
X116630914Y-102724970D01*
X116653451Y-102658835D01*
X116698505Y-102619795D01*
X116698511Y-102619792D01*
X116707816Y-102615051D01*
X116747901Y-102585928D01*
X116879786Y-102490109D01*
X116879788Y-102490106D01*
X116879792Y-102490104D01*
X117030104Y-102339792D01*
X117034261Y-102334071D01*
X153860000Y-102334071D01*
X153860000Y-102585928D01*
X153899397Y-102834669D01*
X153977219Y-103074184D01*
X154091397Y-103298270D01*
X154734189Y-102655479D01*
X154738822Y-102678767D01*
X154795359Y-102815258D01*
X154877437Y-102938097D01*
X154981903Y-103042563D01*
X155104742Y-103124641D01*
X155241233Y-103181178D01*
X155264519Y-103185809D01*
X154621727Y-103828600D01*
X154845815Y-103942780D01*
X155085330Y-104020602D01*
X155334072Y-104060000D01*
X155585928Y-104060000D01*
X155836038Y-104020386D01*
X155905331Y-104029340D01*
X155958783Y-104074337D01*
X155979423Y-104141088D01*
X155960698Y-104208402D01*
X155943118Y-104230539D01*
X155890589Y-104283068D01*
X155890588Y-104283070D01*
X155890586Y-104283072D01*
X155873951Y-104305968D01*
X155788768Y-104423211D01*
X155710128Y-104577552D01*
X155656597Y-104742302D01*
X155629500Y-104913389D01*
X155629500Y-105086610D01*
X155648600Y-105207208D01*
X155656598Y-105257701D01*
X155710127Y-105422445D01*
X155788768Y-105576788D01*
X155890586Y-105716928D01*
X156013072Y-105839414D01*
X156153212Y-105941232D01*
X156307555Y-106019873D01*
X156472299Y-106073402D01*
X156643389Y-106100500D01*
X156643390Y-106100500D01*
X156816610Y-106100500D01*
X156816611Y-106100500D01*
X156987701Y-106073402D01*
X157152445Y-106019873D01*
X157306788Y-105941232D01*
X157446928Y-105839414D01*
X157569414Y-105716928D01*
X157671232Y-105576788D01*
X157749873Y-105422445D01*
X157803402Y-105257701D01*
X157830500Y-105086611D01*
X157830500Y-104913389D01*
X157803402Y-104742299D01*
X157749873Y-104577555D01*
X157671232Y-104423212D01*
X157569414Y-104283072D01*
X157446928Y-104160586D01*
X157306788Y-104058768D01*
X157152445Y-103980127D01*
X156987701Y-103926598D01*
X156987699Y-103926597D01*
X156987698Y-103926597D01*
X156856271Y-103905781D01*
X156816611Y-103899500D01*
X156643389Y-103899500D01*
X156611192Y-103904599D01*
X156472301Y-103926597D01*
X156472291Y-103926600D01*
X156464903Y-103929000D01*
X156395062Y-103930991D01*
X156335232Y-103894907D01*
X156306857Y-103837186D01*
X155655480Y-103185810D01*
X155678767Y-103181178D01*
X155815258Y-103124641D01*
X155938097Y-103042563D01*
X156042563Y-102938097D01*
X156124641Y-102815258D01*
X156181178Y-102678767D01*
X156185809Y-102655480D01*
X156828600Y-103298271D01*
X156942779Y-103074184D01*
X157020602Y-102834668D01*
X157060000Y-102585928D01*
X157060000Y-102334071D01*
X157020602Y-102085330D01*
X156942780Y-101845815D01*
X156828600Y-101621727D01*
X156185809Y-102264518D01*
X156181178Y-102241233D01*
X156124641Y-102104742D01*
X156042563Y-101981903D01*
X155938097Y-101877437D01*
X155815258Y-101795359D01*
X155678767Y-101738822D01*
X155655480Y-101734190D01*
X156298271Y-101091398D01*
X156074184Y-100977219D01*
X155834669Y-100899397D01*
X155585928Y-100860000D01*
X155334072Y-100860000D01*
X155085330Y-100899397D01*
X154845815Y-100977219D01*
X154845812Y-100977220D01*
X154621728Y-101091398D01*
X155264519Y-101734189D01*
X155241233Y-101738822D01*
X155104742Y-101795359D01*
X154981903Y-101877437D01*
X154877437Y-101981903D01*
X154795359Y-102104742D01*
X154738822Y-102241233D01*
X154734189Y-102264519D01*
X154091398Y-101621728D01*
X153977220Y-101845812D01*
X153977219Y-101845815D01*
X153899397Y-102085330D01*
X153860000Y-102334071D01*
X117034261Y-102334071D01*
X117155051Y-102167816D01*
X117251557Y-101978412D01*
X117317246Y-101776243D01*
X117350500Y-101566287D01*
X117350500Y-101353713D01*
X117317246Y-101143757D01*
X117251557Y-100941588D01*
X117155051Y-100752184D01*
X117155049Y-100752181D01*
X117155048Y-100752179D01*
X117030109Y-100580213D01*
X116916569Y-100466673D01*
X116883084Y-100405350D01*
X116888068Y-100335658D01*
X116929940Y-100279725D01*
X116960915Y-100262810D01*
X117092331Y-100213796D01*
X117207546Y-100127546D01*
X117293796Y-100012331D01*
X117344091Y-99877483D01*
X117350500Y-99817873D01*
X117350499Y-98948629D01*
X122789100Y-98948629D01*
X122789100Y-99131370D01*
X122816219Y-99302591D01*
X122817685Y-99311845D01*
X122874152Y-99485631D01*
X122957109Y-99648444D01*
X123064515Y-99796276D01*
X123193724Y-99925485D01*
X123341556Y-100032891D01*
X123504369Y-100115848D01*
X123678155Y-100172315D01*
X123745835Y-100183034D01*
X123858630Y-100200900D01*
X123858635Y-100200900D01*
X124041370Y-100200900D01*
X124141631Y-100185019D01*
X124221845Y-100172315D01*
X124395631Y-100115848D01*
X124558444Y-100032891D01*
X124706276Y-99925485D01*
X124835485Y-99796276D01*
X124942891Y-99648444D01*
X125025848Y-99485631D01*
X125082315Y-99311845D01*
X125095019Y-99231631D01*
X125110900Y-99131370D01*
X125110900Y-98948629D01*
X125082315Y-98768158D01*
X125082315Y-98768155D01*
X125025848Y-98594369D01*
X124942891Y-98431556D01*
X124835485Y-98283724D01*
X124706276Y-98154515D01*
X124558444Y-98047109D01*
X124395631Y-97964152D01*
X124221845Y-97907685D01*
X124221843Y-97907684D01*
X124221841Y-97907684D01*
X124041370Y-97879100D01*
X124041365Y-97879100D01*
X123858635Y-97879100D01*
X123858630Y-97879100D01*
X123678158Y-97907684D01*
X123504366Y-97964153D01*
X123341555Y-98047109D01*
X123193721Y-98154517D01*
X123064517Y-98283721D01*
X122957109Y-98431555D01*
X122874153Y-98594366D01*
X122817684Y-98768158D01*
X122789100Y-98948629D01*
X117350499Y-98948629D01*
X117350499Y-98877350D01*
X117350499Y-98022129D01*
X117350498Y-98022123D01*
X117350497Y-98022116D01*
X117344091Y-97962517D01*
X117293796Y-97827669D01*
X117293795Y-97827668D01*
X117293793Y-97827664D01*
X117207547Y-97712455D01*
X117207544Y-97712452D01*
X117092335Y-97626206D01*
X117092328Y-97626202D01*
X116957482Y-97575908D01*
X116957483Y-97575908D01*
X116897883Y-97569501D01*
X116897881Y-97569500D01*
X116897873Y-97569500D01*
X116897864Y-97569500D01*
X115102129Y-97569500D01*
X115102123Y-97569501D01*
X115042516Y-97575908D01*
X114907671Y-97626202D01*
X114907664Y-97626206D01*
X114792455Y-97712452D01*
X114792452Y-97712455D01*
X114706206Y-97827664D01*
X114706202Y-97827671D01*
X114655908Y-97962517D01*
X114649501Y-98022116D01*
X114649501Y-98022123D01*
X114649500Y-98022135D01*
X114649500Y-99559481D01*
X114629815Y-99626520D01*
X114577011Y-99672275D01*
X114507853Y-99682219D01*
X114444297Y-99653194D01*
X114437819Y-99647162D01*
X113936819Y-99146162D01*
X113903334Y-99084839D01*
X113900500Y-99058481D01*
X113900500Y-96641519D01*
X113920185Y-96574480D01*
X113936819Y-96553838D01*
X118028898Y-92461759D01*
X123438568Y-92461759D01*
X123504562Y-92495384D01*
X123678271Y-92551827D01*
X123858670Y-92580400D01*
X124041330Y-92580400D01*
X124221728Y-92551827D01*
X124395440Y-92495383D01*
X124395444Y-92495382D01*
X124461430Y-92461759D01*
X123950001Y-91950330D01*
X123950000Y-91950330D01*
X123438568Y-92461759D01*
X118028898Y-92461759D01*
X119161988Y-91328669D01*
X122789600Y-91328669D01*
X122789600Y-91511330D01*
X122818173Y-91691729D01*
X122818173Y-91691732D01*
X122874613Y-91865436D01*
X122908238Y-91931429D01*
X123419670Y-91420000D01*
X123366166Y-91366496D01*
X123543600Y-91366496D01*
X123543600Y-91473504D01*
X123571295Y-91576865D01*
X123624799Y-91669536D01*
X123700464Y-91745201D01*
X123793135Y-91798705D01*
X123896496Y-91826400D01*
X124003504Y-91826400D01*
X124106865Y-91798705D01*
X124199536Y-91745201D01*
X124275201Y-91669536D01*
X124328705Y-91576865D01*
X124356400Y-91473504D01*
X124356400Y-91419999D01*
X124480330Y-91419999D01*
X124480330Y-91420000D01*
X124991759Y-91931430D01*
X125025382Y-91865444D01*
X125025383Y-91865440D01*
X125081827Y-91691728D01*
X125110400Y-91511330D01*
X125110400Y-91328669D01*
X125081827Y-91148271D01*
X125025384Y-90974562D01*
X124991759Y-90908568D01*
X124480330Y-91419999D01*
X124356400Y-91419999D01*
X124356400Y-91366496D01*
X124328705Y-91263135D01*
X124275201Y-91170464D01*
X124199536Y-91094799D01*
X124106865Y-91041295D01*
X124003504Y-91013600D01*
X123896496Y-91013600D01*
X123793135Y-91041295D01*
X123700464Y-91094799D01*
X123624799Y-91170464D01*
X123571295Y-91263135D01*
X123543600Y-91366496D01*
X123366166Y-91366496D01*
X122908238Y-90908568D01*
X122874614Y-90974561D01*
X122874614Y-90974562D01*
X122818173Y-91148267D01*
X122818173Y-91148270D01*
X122789600Y-91328669D01*
X119161988Y-91328669D01*
X120873838Y-89616819D01*
X120935161Y-89583334D01*
X120961519Y-89580500D01*
X122960810Y-89580500D01*
X123027849Y-89600185D01*
X123061124Y-89631609D01*
X123064515Y-89636276D01*
X123193724Y-89765485D01*
X123341556Y-89872891D01*
X123504369Y-89955848D01*
X123678155Y-90012315D01*
X123727539Y-90020136D01*
X123775795Y-90027780D01*
X123838930Y-90057709D01*
X123875861Y-90117021D01*
X123874863Y-90186883D01*
X123836253Y-90245116D01*
X123775796Y-90272726D01*
X123678268Y-90288173D01*
X123678267Y-90288173D01*
X123504562Y-90344614D01*
X123504561Y-90344614D01*
X123438568Y-90378238D01*
X123950000Y-90889670D01*
X123950001Y-90889670D01*
X124461430Y-90378239D01*
X124395436Y-90344613D01*
X124221731Y-90288173D01*
X124124203Y-90272726D01*
X124061069Y-90242796D01*
X124024138Y-90183485D01*
X124025136Y-90113622D01*
X124063746Y-90055390D01*
X124124204Y-90027780D01*
X124155999Y-90022743D01*
X124221845Y-90012315D01*
X124395631Y-89955848D01*
X124558444Y-89872891D01*
X124706276Y-89765485D01*
X124835485Y-89636276D01*
X124942891Y-89488444D01*
X125025848Y-89325631D01*
X125082315Y-89151845D01*
X125095019Y-89071631D01*
X125110900Y-88971370D01*
X125110900Y-88788629D01*
X125082315Y-88608158D01*
X125082315Y-88608155D01*
X125025848Y-88434369D01*
X124942891Y-88271556D01*
X124835485Y-88123724D01*
X124706276Y-87994515D01*
X124558444Y-87887109D01*
X124395631Y-87804152D01*
X124221845Y-87747685D01*
X124221843Y-87747684D01*
X124221841Y-87747684D01*
X124041370Y-87719100D01*
X124041365Y-87719100D01*
X123858635Y-87719100D01*
X123858630Y-87719100D01*
X123678158Y-87747684D01*
X123504366Y-87804153D01*
X123341555Y-87887109D01*
X123193721Y-87994517D01*
X123064514Y-88123724D01*
X123061125Y-88128390D01*
X123005793Y-88171053D01*
X122960810Y-88179500D01*
X120551005Y-88179500D01*
X120415677Y-88206418D01*
X120415667Y-88206421D01*
X120288192Y-88259222D01*
X120173454Y-88335887D01*
X120173453Y-88335888D01*
X118912181Y-89597161D01*
X118850858Y-89630646D01*
X118781166Y-89625662D01*
X118725233Y-89583790D01*
X118700816Y-89518326D01*
X118700500Y-89509480D01*
X118700500Y-80588506D01*
X118694745Y-80559578D01*
X118694745Y-80559575D01*
X118673581Y-80453179D01*
X118673580Y-80453172D01*
X118673578Y-80453167D01*
X118620777Y-80325692D01*
X118544112Y-80210954D01*
X118544111Y-80210953D01*
X116222359Y-77889202D01*
X116188874Y-77827879D01*
X116193858Y-77758187D01*
X116195479Y-77754068D01*
X116240898Y-77644419D01*
X116308770Y-77391116D01*
X116343000Y-77131120D01*
X116343000Y-76868880D01*
X116308770Y-76608884D01*
X116240898Y-76355581D01*
X116186541Y-76224352D01*
X116140546Y-76113309D01*
X116140541Y-76113299D01*
X116009424Y-75886196D01*
X115849781Y-75678148D01*
X115849774Y-75678140D01*
X115664360Y-75492726D01*
X115664351Y-75492718D01*
X115456303Y-75333075D01*
X115229200Y-75201958D01*
X115229190Y-75201953D01*
X114986928Y-75101605D01*
X114986921Y-75101603D01*
X114986919Y-75101602D01*
X114733616Y-75033730D01*
X114665347Y-75024742D01*
X114473627Y-74999500D01*
X114473620Y-74999500D01*
X114211380Y-74999500D01*
X114211372Y-74999500D01*
X113980272Y-75029926D01*
X113951384Y-75033730D01*
X113698081Y-75101602D01*
X113698071Y-75101605D01*
X113455809Y-75201953D01*
X113455799Y-75201958D01*
X113228696Y-75333075D01*
X113020648Y-75492718D01*
X112835218Y-75678148D01*
X112675575Y-75886196D01*
X112544458Y-76113299D01*
X112544453Y-76113309D01*
X112444105Y-76355571D01*
X112444102Y-76355581D01*
X112376230Y-76608885D01*
X112342000Y-76868872D01*
X106500000Y-76868872D01*
X106500000Y-52877291D01*
X106507818Y-52833958D01*
X106646490Y-52462164D01*
X106787370Y-51982373D01*
X106812095Y-51868716D01*
X106893662Y-51493760D01*
X106915410Y-51342500D01*
X106964827Y-50998796D01*
X107000500Y-50500023D01*
X107000500Y-50250000D01*
X107000500Y-50184108D01*
X107000500Y-38502424D01*
X107000596Y-38497556D01*
X107003089Y-38434108D01*
X107006569Y-38345528D01*
X110249500Y-38345528D01*
X110249500Y-38654471D01*
X110284086Y-38961437D01*
X110284089Y-38961455D01*
X110352831Y-39262635D01*
X110352835Y-39262647D01*
X110454862Y-39554222D01*
X110454868Y-39554236D01*
X110588903Y-39832562D01*
X110588905Y-39832565D01*
X110753265Y-40094143D01*
X110945880Y-40335674D01*
X111164326Y-40554120D01*
X111405857Y-40746735D01*
X111667435Y-40911095D01*
X111945771Y-41045135D01*
X111945777Y-41045137D01*
X112237352Y-41147164D01*
X112237364Y-41147168D01*
X112538548Y-41215911D01*
X112538554Y-41215911D01*
X112538562Y-41215913D01*
X112743206Y-41238970D01*
X112845529Y-41250499D01*
X112845532Y-41250500D01*
X112845535Y-41250500D01*
X113154468Y-41250500D01*
X113154469Y-41250499D01*
X113311356Y-41232822D01*
X113461437Y-41215913D01*
X113461442Y-41215912D01*
X113461452Y-41215911D01*
X113762636Y-41147168D01*
X114054229Y-41045135D01*
X114332565Y-40911095D01*
X114594143Y-40746735D01*
X114835674Y-40554120D01*
X115054120Y-40335674D01*
X115246735Y-40094143D01*
X115411095Y-39832565D01*
X115545135Y-39554229D01*
X115647168Y-39262636D01*
X115715911Y-38961452D01*
X115716411Y-38957021D01*
X115743960Y-38712510D01*
X115750500Y-38654465D01*
X115750500Y-38345535D01*
X115738970Y-38243206D01*
X115715913Y-38038562D01*
X115715910Y-38038544D01*
X115647168Y-37737364D01*
X115647164Y-37737352D01*
X115545137Y-37445777D01*
X115545135Y-37445771D01*
X115411095Y-37167435D01*
X115246735Y-36905857D01*
X115054120Y-36664326D01*
X114835674Y-36445880D01*
X114594143Y-36253265D01*
X114332565Y-36088905D01*
X114332562Y-36088903D01*
X114054236Y-35954868D01*
X114054222Y-35954862D01*
X113762647Y-35852835D01*
X113762635Y-35852831D01*
X113461455Y-35784089D01*
X113461437Y-35784086D01*
X113154471Y-35749500D01*
X113154465Y-35749500D01*
X112845535Y-35749500D01*
X112845528Y-35749500D01*
X112538562Y-35784086D01*
X112538544Y-35784089D01*
X112237364Y-35852831D01*
X112237352Y-35852835D01*
X111945777Y-35954862D01*
X111945763Y-35954868D01*
X111667437Y-36088903D01*
X111405858Y-36253264D01*
X111164326Y-36445879D01*
X110945879Y-36664326D01*
X110753264Y-36905858D01*
X110588903Y-37167437D01*
X110454868Y-37445763D01*
X110454862Y-37445777D01*
X110352835Y-37737352D01*
X110352831Y-37737364D01*
X110284089Y-38038544D01*
X110284086Y-38038562D01*
X110249500Y-38345528D01*
X107006569Y-38345528D01*
X107018803Y-38034132D01*
X107019564Y-38024466D01*
X107073792Y-37566299D01*
X107075314Y-37556693D01*
X107076333Y-37551571D01*
X107165317Y-37104218D01*
X107167587Y-37094765D01*
X107292814Y-36650742D01*
X107295822Y-36641482D01*
X107455502Y-36208651D01*
X107459225Y-36199665D01*
X107652376Y-35780685D01*
X107656772Y-35772057D01*
X107882224Y-35369485D01*
X107887275Y-35361243D01*
X108143606Y-34977617D01*
X108149319Y-34969756D01*
X108329939Y-34740639D01*
X120737500Y-34740639D01*
X120737500Y-34939360D01*
X120768587Y-35135637D01*
X120829993Y-35324629D01*
X120829994Y-35324632D01*
X120920213Y-35501694D01*
X121037019Y-35662464D01*
X121177536Y-35802981D01*
X121338306Y-35919787D01*
X121407156Y-35954868D01*
X121494780Y-35999515D01*
X121545576Y-36047490D01*
X121562371Y-36115311D01*
X121539833Y-36181446D01*
X121494780Y-36220485D01*
X121338305Y-36300213D01*
X121177533Y-36417021D01*
X121037021Y-36557533D01*
X120920213Y-36718305D01*
X120829994Y-36895367D01*
X120829993Y-36895370D01*
X120768587Y-37084362D01*
X120755430Y-37167435D01*
X120737500Y-37280639D01*
X120737500Y-37479361D01*
X120748937Y-37551571D01*
X120768587Y-37675637D01*
X120829993Y-37864629D01*
X120829994Y-37864632D01*
X120911424Y-38024445D01*
X120920213Y-38041694D01*
X121037019Y-38202464D01*
X121177536Y-38342981D01*
X121338306Y-38459787D01*
X121456832Y-38520179D01*
X121494780Y-38539515D01*
X121545576Y-38587490D01*
X121562371Y-38655311D01*
X121539833Y-38721446D01*
X121494780Y-38760485D01*
X121338305Y-38840213D01*
X121177533Y-38957021D01*
X121037021Y-39097533D01*
X120920213Y-39258305D01*
X120829994Y-39435367D01*
X120829993Y-39435370D01*
X120768587Y-39624362D01*
X120737500Y-39820639D01*
X120737500Y-40019360D01*
X120768587Y-40215637D01*
X120829993Y-40404629D01*
X120829994Y-40404632D01*
X120906163Y-40554120D01*
X120920213Y-40581694D01*
X121037019Y-40742464D01*
X121177536Y-40882981D01*
X121338306Y-40999787D01*
X121427298Y-41045131D01*
X121494780Y-41079515D01*
X121545576Y-41127490D01*
X121562371Y-41195311D01*
X121539833Y-41261446D01*
X121494780Y-41300485D01*
X121338305Y-41380213D01*
X121177533Y-41497021D01*
X121037021Y-41637533D01*
X120920213Y-41798305D01*
X120829994Y-41975367D01*
X120829993Y-41975370D01*
X120768587Y-42164362D01*
X120737500Y-42360639D01*
X120737500Y-42559360D01*
X120768587Y-42755637D01*
X120829993Y-42944629D01*
X120829994Y-42944632D01*
X120915063Y-43111587D01*
X120920213Y-43121694D01*
X121037019Y-43282464D01*
X121177536Y-43422981D01*
X121338306Y-43539787D01*
X121456832Y-43600179D01*
X121494780Y-43619515D01*
X121545576Y-43667490D01*
X121562371Y-43735311D01*
X121539833Y-43801446D01*
X121494780Y-43840485D01*
X121338305Y-43920213D01*
X121177533Y-44037021D01*
X121037021Y-44177533D01*
X120920213Y-44338305D01*
X120829994Y-44515367D01*
X120829993Y-44515370D01*
X120768587Y-44704362D01*
X120737500Y-44900639D01*
X120737500Y-45099360D01*
X120768587Y-45295637D01*
X120829993Y-45484629D01*
X120829994Y-45484632D01*
X120889033Y-45600500D01*
X120920213Y-45661694D01*
X121037019Y-45822464D01*
X121177536Y-45962981D01*
X121338306Y-46079787D01*
X121456832Y-46140179D01*
X121494780Y-46159515D01*
X121545576Y-46207490D01*
X121562371Y-46275311D01*
X121539833Y-46341446D01*
X121494780Y-46380485D01*
X121338305Y-46460213D01*
X121177533Y-46577021D01*
X121037021Y-46717533D01*
X120920213Y-46878305D01*
X120829994Y-47055367D01*
X120829993Y-47055370D01*
X120768587Y-47244362D01*
X120737500Y-47440639D01*
X120737500Y-47639360D01*
X120768587Y-47835637D01*
X120829993Y-48024629D01*
X120829994Y-48024632D01*
X120875739Y-48114410D01*
X120920213Y-48201694D01*
X121037019Y-48362464D01*
X121177536Y-48502981D01*
X121338306Y-48619787D01*
X121439374Y-48671284D01*
X121494780Y-48699515D01*
X121545576Y-48747490D01*
X121562371Y-48815311D01*
X121539833Y-48881446D01*
X121494780Y-48920485D01*
X121338305Y-49000213D01*
X121177533Y-49117021D01*
X121037021Y-49257533D01*
X120920213Y-49418305D01*
X120829994Y-49595367D01*
X120829993Y-49595370D01*
X120768587Y-49784362D01*
X120737500Y-49980639D01*
X120737500Y-50179360D01*
X120768587Y-50375637D01*
X120829993Y-50564629D01*
X120829994Y-50564632D01*
X120918204Y-50737752D01*
X120920213Y-50741694D01*
X121037019Y-50902464D01*
X121177536Y-51042981D01*
X121321860Y-51147838D01*
X121338309Y-51159789D01*
X121340285Y-51161000D01*
X121340878Y-51161656D01*
X121342248Y-51162651D01*
X121342039Y-51162938D01*
X121387163Y-51212810D01*
X121399500Y-51266730D01*
X121399500Y-79913330D01*
X121399499Y-79913348D01*
X121399499Y-80079054D01*
X121399498Y-80079054D01*
X121440423Y-80231785D01*
X121469358Y-80281900D01*
X121469359Y-80281904D01*
X121469360Y-80281904D01*
X121519479Y-80368714D01*
X121519481Y-80368717D01*
X121638349Y-80487585D01*
X121638355Y-80487590D01*
X141435139Y-100284374D01*
X141435149Y-100284385D01*
X141439479Y-100288715D01*
X141439480Y-100288716D01*
X141551284Y-100400520D01*
X141638095Y-100450639D01*
X141638097Y-100450641D01*
X141676151Y-100472611D01*
X141688215Y-100479577D01*
X141840943Y-100520500D01*
X147543700Y-100520500D01*
X147610739Y-100540185D01*
X147654184Y-100588204D01*
X147737736Y-100752184D01*
X147741132Y-100758848D01*
X147889201Y-100962649D01*
X147889205Y-100962654D01*
X148067345Y-101140794D01*
X148067350Y-101140798D01*
X148245117Y-101269952D01*
X148271155Y-101288870D01*
X148398417Y-101353713D01*
X148495616Y-101403239D01*
X148495618Y-101403239D01*
X148495621Y-101403241D01*
X148735215Y-101481090D01*
X148984038Y-101520500D01*
X148984039Y-101520500D01*
X149235961Y-101520500D01*
X149235962Y-101520500D01*
X149484785Y-101481090D01*
X149724379Y-101403241D01*
X149948845Y-101288870D01*
X150152656Y-101140793D01*
X150330793Y-100962656D01*
X150478870Y-100758845D01*
X150593241Y-100534379D01*
X150671090Y-100294785D01*
X150710500Y-100045962D01*
X150710500Y-99794038D01*
X150671090Y-99545215D01*
X150593241Y-99305621D01*
X150593239Y-99305618D01*
X150593239Y-99305616D01*
X150522121Y-99166040D01*
X150478870Y-99081155D01*
X150382589Y-98948635D01*
X150330798Y-98877350D01*
X150330794Y-98877345D01*
X150152654Y-98699205D01*
X150152649Y-98699201D01*
X149948848Y-98551132D01*
X149948847Y-98551131D01*
X149948845Y-98551130D01*
X149820039Y-98485500D01*
X149724383Y-98436760D01*
X149484785Y-98358910D01*
X149235962Y-98319500D01*
X148984038Y-98319500D01*
X148859626Y-98339205D01*
X148735214Y-98358910D01*
X148495616Y-98436760D01*
X148271151Y-98551132D01*
X148067350Y-98699201D01*
X148067345Y-98699205D01*
X147889205Y-98877345D01*
X147889201Y-98877350D01*
X147741132Y-99081151D01*
X147654185Y-99251795D01*
X147606211Y-99302591D01*
X147543700Y-99319500D01*
X142220097Y-99319500D01*
X142153058Y-99299815D01*
X142132416Y-99283181D01*
X134626883Y-91777648D01*
X169699500Y-91777648D01*
X169699500Y-91982351D01*
X169731522Y-92184534D01*
X169794781Y-92379223D01*
X169836836Y-92461759D01*
X169882728Y-92551827D01*
X169887715Y-92561613D01*
X170008028Y-92727213D01*
X170152786Y-92871971D01*
X170307749Y-92984556D01*
X170318390Y-92992287D01*
X170434607Y-93051503D01*
X170500776Y-93085218D01*
X170500778Y-93085218D01*
X170500781Y-93085220D01*
X170605137Y-93119127D01*
X170695465Y-93148477D01*
X170796557Y-93164488D01*
X170897648Y-93180500D01*
X170897649Y-93180500D01*
X171102351Y-93180500D01*
X171102352Y-93180500D01*
X171304534Y-93148477D01*
X171499219Y-93085220D01*
X171681610Y-92992287D01*
X171774590Y-92924732D01*
X171847213Y-92871971D01*
X171847215Y-92871968D01*
X171847219Y-92871966D01*
X171991966Y-92727219D01*
X171991968Y-92727215D01*
X171991971Y-92727213D01*
X172073690Y-92614734D01*
X172112287Y-92561610D01*
X172202143Y-92385258D01*
X194249500Y-92385258D01*
X194249500Y-92614741D01*
X194264308Y-92727213D01*
X194279452Y-92842238D01*
X194279453Y-92842240D01*
X194338842Y-93063887D01*
X194426650Y-93275876D01*
X194426657Y-93275890D01*
X194541392Y-93474617D01*
X194681081Y-93656661D01*
X194681089Y-93656670D01*
X194843330Y-93818911D01*
X194843338Y-93818918D01*
X195025382Y-93958607D01*
X195025385Y-93958608D01*
X195025388Y-93958611D01*
X195224112Y-94073344D01*
X195224117Y-94073346D01*
X195224123Y-94073349D01*
X195315480Y-94111190D01*
X195436113Y-94161158D01*
X195657762Y-94220548D01*
X195885266Y-94250500D01*
X195885273Y-94250500D01*
X196114727Y-94250500D01*
X196114734Y-94250500D01*
X196342238Y-94220548D01*
X196563887Y-94161158D01*
X196775888Y-94073344D01*
X196974612Y-93958611D01*
X197156661Y-93818919D01*
X197156665Y-93818914D01*
X197156670Y-93818911D01*
X197318911Y-93656670D01*
X197318914Y-93656665D01*
X197318919Y-93656661D01*
X197458611Y-93474612D01*
X197573344Y-93275888D01*
X197661158Y-93063887D01*
X197720548Y-92842238D01*
X197750500Y-92614734D01*
X197750500Y-92385266D01*
X197720548Y-92157762D01*
X197661158Y-91936113D01*
X197604242Y-91798705D01*
X197573349Y-91724123D01*
X197573346Y-91724117D01*
X197573344Y-91724112D01*
X197458611Y-91525388D01*
X197458608Y-91525385D01*
X197458607Y-91525382D01*
X197318918Y-91343338D01*
X197318911Y-91343330D01*
X197156670Y-91181089D01*
X197156661Y-91181081D01*
X196974617Y-91041392D01*
X196775890Y-90926657D01*
X196775876Y-90926650D01*
X196563887Y-90838842D01*
X196342238Y-90779452D01*
X196304215Y-90774446D01*
X196114741Y-90749500D01*
X196114734Y-90749500D01*
X195885266Y-90749500D01*
X195885258Y-90749500D01*
X195668715Y-90778009D01*
X195657762Y-90779452D01*
X195564076Y-90804554D01*
X195436112Y-90838842D01*
X195224123Y-90926650D01*
X195224109Y-90926657D01*
X195025382Y-91041392D01*
X194843338Y-91181081D01*
X194681081Y-91343338D01*
X194541392Y-91525382D01*
X194426657Y-91724109D01*
X194426650Y-91724123D01*
X194338842Y-91936112D01*
X194279453Y-92157759D01*
X194279451Y-92157770D01*
X194249500Y-92385258D01*
X172202143Y-92385258D01*
X172205220Y-92379219D01*
X172268477Y-92184534D01*
X172300500Y-91982352D01*
X172300500Y-91777648D01*
X172286891Y-91691728D01*
X172268477Y-91575465D01*
X172239127Y-91485137D01*
X172205220Y-91380781D01*
X172205218Y-91380778D01*
X172205218Y-91380776D01*
X172145276Y-91263135D01*
X172112287Y-91198390D01*
X172075871Y-91148267D01*
X171991971Y-91032786D01*
X171847213Y-90888028D01*
X171681613Y-90767715D01*
X171681612Y-90767714D01*
X171681610Y-90767713D01*
X171624653Y-90738691D01*
X171499223Y-90674781D01*
X171304534Y-90611522D01*
X171129995Y-90583878D01*
X171102352Y-90579500D01*
X170897648Y-90579500D01*
X170873329Y-90583351D01*
X170695465Y-90611522D01*
X170500776Y-90674781D01*
X170318386Y-90767715D01*
X170152786Y-90888028D01*
X170008028Y-91032786D01*
X169887715Y-91198386D01*
X169794781Y-91380776D01*
X169731522Y-91575465D01*
X169699500Y-91777648D01*
X134626883Y-91777648D01*
X123349219Y-80499984D01*
X198369500Y-80499984D01*
X198369500Y-82500015D01*
X198380000Y-82602795D01*
X198380001Y-82602796D01*
X198435186Y-82769335D01*
X198435187Y-82769337D01*
X198527286Y-82918651D01*
X198527289Y-82918655D01*
X198651344Y-83042710D01*
X198651348Y-83042713D01*
X198800662Y-83134812D01*
X198800664Y-83134813D01*
X198800666Y-83134814D01*
X198967203Y-83189999D01*
X199069992Y-83200500D01*
X199069997Y-83200500D01*
X201070003Y-83200500D01*
X201070008Y-83200500D01*
X201172797Y-83189999D01*
X201339334Y-83134814D01*
X201488655Y-83042711D01*
X201612711Y-82918655D01*
X201704814Y-82769334D01*
X201759999Y-82602797D01*
X201770500Y-82500008D01*
X201770500Y-80499992D01*
X201759999Y-80397203D01*
X201704814Y-80230666D01*
X201692657Y-80210957D01*
X201612713Y-80081348D01*
X201612710Y-80081344D01*
X201488655Y-79957289D01*
X201488651Y-79957286D01*
X201339337Y-79865187D01*
X201339335Y-79865186D01*
X201256065Y-79837593D01*
X201172797Y-79810001D01*
X201172795Y-79810000D01*
X201070015Y-79799500D01*
X201070008Y-79799500D01*
X199069992Y-79799500D01*
X199069984Y-79799500D01*
X198967204Y-79810000D01*
X198967203Y-79810001D01*
X198800664Y-79865186D01*
X198800662Y-79865187D01*
X198651348Y-79957286D01*
X198651344Y-79957289D01*
X198527289Y-80081344D01*
X198527286Y-80081348D01*
X198435187Y-80230662D01*
X198435186Y-80230664D01*
X198380001Y-80397203D01*
X198380000Y-80397204D01*
X198369500Y-80499984D01*
X123349219Y-80499984D01*
X122636819Y-79787584D01*
X122603334Y-79726261D01*
X122600500Y-79699903D01*
X122600500Y-77833389D01*
X135929500Y-77833389D01*
X135929500Y-78006610D01*
X135955600Y-78171405D01*
X135956598Y-78177701D01*
X136010127Y-78342445D01*
X136088768Y-78496788D01*
X136190586Y-78636928D01*
X136313072Y-78759414D01*
X136453212Y-78861232D01*
X136607555Y-78939873D01*
X136772299Y-78993402D01*
X136943389Y-79020500D01*
X136943390Y-79020500D01*
X137116610Y-79020500D01*
X137116611Y-79020500D01*
X137287701Y-78993402D01*
X137452445Y-78939873D01*
X137606788Y-78861232D01*
X137746928Y-78759414D01*
X137869414Y-78636928D01*
X137971232Y-78496788D01*
X138049873Y-78342445D01*
X138103402Y-78177701D01*
X138130500Y-78006611D01*
X138130500Y-77833389D01*
X138120854Y-77772486D01*
X139859500Y-77772486D01*
X139859500Y-78067513D01*
X139877009Y-78200500D01*
X139898007Y-78359993D01*
X139972212Y-78636930D01*
X139974361Y-78644951D01*
X139974364Y-78644961D01*
X140087254Y-78917500D01*
X140087258Y-78917510D01*
X140234761Y-79172993D01*
X140414352Y-79407040D01*
X140414358Y-79407047D01*
X140622952Y-79615641D01*
X140622959Y-79615647D01*
X140857006Y-79795238D01*
X141112489Y-79942741D01*
X141112490Y-79942741D01*
X141112493Y-79942743D01*
X141385048Y-80055639D01*
X141670007Y-80131993D01*
X141962494Y-80170500D01*
X141962501Y-80170500D01*
X142257499Y-80170500D01*
X142257506Y-80170500D01*
X142549993Y-80131993D01*
X142834952Y-80055639D01*
X143107507Y-79942743D01*
X143362994Y-79795238D01*
X143597042Y-79615646D01*
X143805646Y-79407042D01*
X143985238Y-79172994D01*
X144132743Y-78917507D01*
X144245639Y-78644952D01*
X144321993Y-78359993D01*
X144360500Y-78067506D01*
X144360500Y-77772494D01*
X144321993Y-77480007D01*
X144245639Y-77195048D01*
X144132743Y-76922493D01*
X144091461Y-76850991D01*
X144043313Y-76767595D01*
X143985238Y-76667006D01*
X143805647Y-76432959D01*
X143805641Y-76432952D01*
X143597047Y-76224358D01*
X143597040Y-76224352D01*
X143362993Y-76044761D01*
X143107510Y-75897258D01*
X143107500Y-75897254D01*
X142834961Y-75784364D01*
X142834954Y-75784362D01*
X142834952Y-75784361D01*
X142549993Y-75708007D01*
X142501113Y-75701571D01*
X142257513Y-75669500D01*
X142257506Y-75669500D01*
X141962494Y-75669500D01*
X141962486Y-75669500D01*
X141684085Y-75706153D01*
X141670007Y-75708007D01*
X141495865Y-75754668D01*
X141385048Y-75784361D01*
X141385038Y-75784364D01*
X141112499Y-75897254D01*
X141112489Y-75897258D01*
X140857006Y-76044761D01*
X140622959Y-76224352D01*
X140622952Y-76224358D01*
X140414358Y-76432952D01*
X140414352Y-76432959D01*
X140234761Y-76667006D01*
X140087258Y-76922489D01*
X140087254Y-76922499D01*
X139974364Y-77195038D01*
X139974361Y-77195048D01*
X139898008Y-77480004D01*
X139898006Y-77480015D01*
X139859500Y-77772486D01*
X138120854Y-77772486D01*
X138103402Y-77662299D01*
X138049873Y-77497555D01*
X137971232Y-77343212D01*
X137869414Y-77203072D01*
X137746928Y-77080586D01*
X137606788Y-76978768D01*
X137452445Y-76900127D01*
X137287701Y-76846598D01*
X137287699Y-76846597D01*
X137287698Y-76846597D01*
X137156271Y-76825781D01*
X137116611Y-76819500D01*
X136943389Y-76819500D01*
X136903728Y-76825781D01*
X136772302Y-76846597D01*
X136607552Y-76900128D01*
X136453211Y-76978768D01*
X136373256Y-77036859D01*
X136313072Y-77080586D01*
X136313070Y-77080588D01*
X136313069Y-77080588D01*
X136190588Y-77203069D01*
X136190588Y-77203070D01*
X136190586Y-77203072D01*
X136153787Y-77253722D01*
X136088768Y-77343211D01*
X136010128Y-77497552D01*
X135956597Y-77662302D01*
X135929500Y-77833389D01*
X122600500Y-77833389D01*
X122600500Y-75254071D01*
X144320000Y-75254071D01*
X144320000Y-75505928D01*
X144359397Y-75754669D01*
X144437219Y-75994184D01*
X144551397Y-76218270D01*
X145194189Y-75575479D01*
X145198822Y-75598767D01*
X145255359Y-75735258D01*
X145337437Y-75858097D01*
X145441903Y-75962563D01*
X145564742Y-76044641D01*
X145701233Y-76101178D01*
X145724519Y-76105809D01*
X145081727Y-76748600D01*
X145305815Y-76862780D01*
X145545330Y-76940602D01*
X145794072Y-76980000D01*
X146045928Y-76980000D01*
X146296038Y-76940386D01*
X146365331Y-76949340D01*
X146418783Y-76994337D01*
X146439423Y-77061088D01*
X146420698Y-77128402D01*
X146403118Y-77150539D01*
X146350589Y-77203068D01*
X146350588Y-77203070D01*
X146350586Y-77203072D01*
X146313787Y-77253722D01*
X146248768Y-77343211D01*
X146170128Y-77497552D01*
X146116597Y-77662302D01*
X146089500Y-77833389D01*
X146089500Y-78006610D01*
X146115600Y-78171405D01*
X146116598Y-78177701D01*
X146170127Y-78342445D01*
X146248768Y-78496788D01*
X146350586Y-78636928D01*
X146473072Y-78759414D01*
X146613212Y-78861232D01*
X146767555Y-78939873D01*
X146932299Y-78993402D01*
X147103389Y-79020500D01*
X147103390Y-79020500D01*
X147276610Y-79020500D01*
X147276611Y-79020500D01*
X147447701Y-78993402D01*
X147612445Y-78939873D01*
X147766788Y-78861232D01*
X147906928Y-78759414D01*
X148029414Y-78636928D01*
X148131232Y-78496788D01*
X148209873Y-78342445D01*
X148263402Y-78177701D01*
X148290500Y-78006611D01*
X148290500Y-77833389D01*
X155009500Y-77833389D01*
X155009500Y-78006610D01*
X155035600Y-78171405D01*
X155036598Y-78177701D01*
X155090127Y-78342445D01*
X155168768Y-78496788D01*
X155270586Y-78636928D01*
X155393072Y-78759414D01*
X155533212Y-78861232D01*
X155687555Y-78939873D01*
X155852299Y-78993402D01*
X156023389Y-79020500D01*
X156023390Y-79020500D01*
X156196610Y-79020500D01*
X156196611Y-79020500D01*
X156367701Y-78993402D01*
X156532445Y-78939873D01*
X156686788Y-78861232D01*
X156826928Y-78759414D01*
X156949414Y-78636928D01*
X157051232Y-78496788D01*
X157129873Y-78342445D01*
X157183402Y-78177701D01*
X157210500Y-78006611D01*
X157210500Y-77833389D01*
X157200854Y-77772486D01*
X158939500Y-77772486D01*
X158939500Y-78067513D01*
X158957009Y-78200500D01*
X158978007Y-78359993D01*
X159052212Y-78636930D01*
X159054361Y-78644951D01*
X159054364Y-78644961D01*
X159167254Y-78917500D01*
X159167258Y-78917510D01*
X159314761Y-79172993D01*
X159494352Y-79407040D01*
X159494358Y-79407047D01*
X159702952Y-79615641D01*
X159702959Y-79615647D01*
X159937006Y-79795238D01*
X160192489Y-79942741D01*
X160192490Y-79942741D01*
X160192493Y-79942743D01*
X160465048Y-80055639D01*
X160750007Y-80131993D01*
X161042494Y-80170500D01*
X161042501Y-80170500D01*
X161337499Y-80170500D01*
X161337506Y-80170500D01*
X161629993Y-80131993D01*
X161914952Y-80055639D01*
X162187507Y-79942743D01*
X162442994Y-79795238D01*
X162677042Y-79615646D01*
X162885646Y-79407042D01*
X163065238Y-79172994D01*
X163212743Y-78917507D01*
X163325639Y-78644952D01*
X163401993Y-78359993D01*
X163440500Y-78067506D01*
X163440500Y-77772494D01*
X163401993Y-77480007D01*
X163325639Y-77195048D01*
X163212743Y-76922493D01*
X163171461Y-76850991D01*
X163123313Y-76767595D01*
X163065238Y-76667006D01*
X162885647Y-76432959D01*
X162885641Y-76432952D01*
X162677047Y-76224358D01*
X162677040Y-76224352D01*
X162442993Y-76044761D01*
X162187510Y-75897258D01*
X162187500Y-75897254D01*
X161914961Y-75784364D01*
X161914954Y-75784362D01*
X161914952Y-75784361D01*
X161629993Y-75708007D01*
X161581113Y-75701571D01*
X161337513Y-75669500D01*
X161337506Y-75669500D01*
X161042494Y-75669500D01*
X161042486Y-75669500D01*
X160764085Y-75706153D01*
X160750007Y-75708007D01*
X160575865Y-75754668D01*
X160465048Y-75784361D01*
X160465038Y-75784364D01*
X160192499Y-75897254D01*
X160192489Y-75897258D01*
X159937006Y-76044761D01*
X159702959Y-76224352D01*
X159702952Y-76224358D01*
X159494358Y-76432952D01*
X159494352Y-76432959D01*
X159314761Y-76667006D01*
X159167258Y-76922489D01*
X159167254Y-76922499D01*
X159054364Y-77195038D01*
X159054361Y-77195048D01*
X158978008Y-77480004D01*
X158978006Y-77480015D01*
X158939500Y-77772486D01*
X157200854Y-77772486D01*
X157183402Y-77662299D01*
X157129873Y-77497555D01*
X157051232Y-77343212D01*
X156949414Y-77203072D01*
X156826928Y-77080586D01*
X156686788Y-76978768D01*
X156532445Y-76900127D01*
X156367701Y-76846598D01*
X156367699Y-76846597D01*
X156367698Y-76846597D01*
X156236271Y-76825781D01*
X156196611Y-76819500D01*
X156023389Y-76819500D01*
X155983728Y-76825781D01*
X155852302Y-76846597D01*
X155687552Y-76900128D01*
X155533211Y-76978768D01*
X155453256Y-77036859D01*
X155393072Y-77080586D01*
X155393070Y-77080588D01*
X155393069Y-77080588D01*
X155270588Y-77203069D01*
X155270588Y-77203070D01*
X155270586Y-77203072D01*
X155233787Y-77253722D01*
X155168768Y-77343211D01*
X155090128Y-77497552D01*
X155036597Y-77662302D01*
X155009500Y-77833389D01*
X148290500Y-77833389D01*
X148263402Y-77662299D01*
X148209873Y-77497555D01*
X148131232Y-77343212D01*
X148029414Y-77203072D01*
X147906928Y-77080586D01*
X147766788Y-76978768D01*
X147612445Y-76900127D01*
X147447701Y-76846598D01*
X147447699Y-76846597D01*
X147447698Y-76846597D01*
X147316271Y-76825781D01*
X147276611Y-76819500D01*
X147103389Y-76819500D01*
X147071192Y-76824599D01*
X146932301Y-76846597D01*
X146932291Y-76846600D01*
X146924903Y-76849000D01*
X146855062Y-76850991D01*
X146795232Y-76814907D01*
X146766857Y-76757186D01*
X146115480Y-76105810D01*
X146138767Y-76101178D01*
X146275258Y-76044641D01*
X146398097Y-75962563D01*
X146502563Y-75858097D01*
X146584641Y-75735258D01*
X146641178Y-75598767D01*
X146645809Y-75575480D01*
X147288600Y-76218271D01*
X147402779Y-75994184D01*
X147480602Y-75754668D01*
X147520000Y-75505928D01*
X147520000Y-75254071D01*
X163400000Y-75254071D01*
X163400000Y-75505928D01*
X163439397Y-75754669D01*
X163517219Y-75994184D01*
X163631397Y-76218270D01*
X164274189Y-75575479D01*
X164278822Y-75598767D01*
X164335359Y-75735258D01*
X164417437Y-75858097D01*
X164521903Y-75962563D01*
X164644742Y-76044641D01*
X164781233Y-76101178D01*
X164804519Y-76105809D01*
X164161727Y-76748600D01*
X164385815Y-76862780D01*
X164625330Y-76940602D01*
X164874072Y-76980000D01*
X165125928Y-76980000D01*
X165376038Y-76940386D01*
X165445331Y-76949340D01*
X165498783Y-76994337D01*
X165519423Y-77061088D01*
X165500698Y-77128402D01*
X165483118Y-77150539D01*
X165430589Y-77203068D01*
X165430588Y-77203070D01*
X165430586Y-77203072D01*
X165393787Y-77253722D01*
X165328768Y-77343211D01*
X165250128Y-77497552D01*
X165196597Y-77662302D01*
X165169500Y-77833389D01*
X165169500Y-78006610D01*
X165195600Y-78171405D01*
X165196598Y-78177701D01*
X165250127Y-78342445D01*
X165328768Y-78496788D01*
X165430586Y-78636928D01*
X165553072Y-78759414D01*
X165693212Y-78861232D01*
X165847555Y-78939873D01*
X166012299Y-78993402D01*
X166183389Y-79020500D01*
X166183390Y-79020500D01*
X166356610Y-79020500D01*
X166356611Y-79020500D01*
X166527701Y-78993402D01*
X166692445Y-78939873D01*
X166846788Y-78861232D01*
X166986928Y-78759414D01*
X167109414Y-78636928D01*
X167211232Y-78496788D01*
X167289873Y-78342445D01*
X167343402Y-78177701D01*
X167370500Y-78006611D01*
X167370500Y-77833389D01*
X167343402Y-77662299D01*
X167289873Y-77497555D01*
X167211232Y-77343212D01*
X167109414Y-77203072D01*
X166986928Y-77080586D01*
X166846788Y-76978768D01*
X166692445Y-76900127D01*
X166527701Y-76846598D01*
X166527699Y-76846597D01*
X166527698Y-76846597D01*
X166396271Y-76825781D01*
X166356611Y-76819500D01*
X166183389Y-76819500D01*
X166151192Y-76824599D01*
X166012301Y-76846597D01*
X166012291Y-76846600D01*
X166004903Y-76849000D01*
X165935062Y-76850991D01*
X165875232Y-76814907D01*
X165846857Y-76757186D01*
X165561836Y-76472165D01*
X165478220Y-76388549D01*
X198369500Y-76388549D01*
X198369500Y-76611450D01*
X198369501Y-76611466D01*
X198398594Y-76832452D01*
X198398595Y-76832457D01*
X198398596Y-76832463D01*
X198441970Y-76994337D01*
X198456290Y-77047780D01*
X198456293Y-77047790D01*
X198520613Y-77203072D01*
X198541595Y-77253726D01*
X198653052Y-77446774D01*
X198653057Y-77446780D01*
X198653058Y-77446782D01*
X198788751Y-77623622D01*
X198788757Y-77623629D01*
X198946370Y-77781242D01*
X198946376Y-77781247D01*
X199123226Y-77916948D01*
X199316274Y-78028405D01*
X199522219Y-78113710D01*
X199737537Y-78171404D01*
X199958543Y-78200500D01*
X199958550Y-78200500D01*
X200181450Y-78200500D01*
X200181457Y-78200500D01*
X200402463Y-78171404D01*
X200617781Y-78113710D01*
X200823726Y-78028405D01*
X201016774Y-77916948D01*
X201193624Y-77781247D01*
X201351247Y-77623624D01*
X201486948Y-77446774D01*
X201598405Y-77253726D01*
X201683710Y-77047781D01*
X201741404Y-76832463D01*
X201770500Y-76611457D01*
X201770500Y-76388543D01*
X201741404Y-76167537D01*
X201683710Y-75952219D01*
X201660944Y-75897258D01*
X201598406Y-75746277D01*
X201598405Y-75746274D01*
X201486948Y-75553226D01*
X201351247Y-75376376D01*
X201351242Y-75376370D01*
X201193629Y-75218757D01*
X201193622Y-75218751D01*
X201016782Y-75083058D01*
X201016780Y-75083057D01*
X201016774Y-75083052D01*
X200823726Y-74971595D01*
X200823722Y-74971593D01*
X200617790Y-74886293D01*
X200617783Y-74886291D01*
X200617781Y-74886290D01*
X200402463Y-74828596D01*
X200402457Y-74828595D01*
X200402452Y-74828594D01*
X200181466Y-74799501D01*
X200181463Y-74799500D01*
X200181457Y-74799500D01*
X199958543Y-74799500D01*
X199958537Y-74799500D01*
X199958533Y-74799501D01*
X199737547Y-74828594D01*
X199737540Y-74828595D01*
X199737537Y-74828596D01*
X199522219Y-74886290D01*
X199522209Y-74886293D01*
X199316277Y-74971593D01*
X199316273Y-74971595D01*
X199123226Y-75083052D01*
X199123217Y-75083058D01*
X198946377Y-75218751D01*
X198946370Y-75218757D01*
X198788757Y-75376370D01*
X198788751Y-75376377D01*
X198653058Y-75553217D01*
X198653052Y-75553226D01*
X198541595Y-75746273D01*
X198541593Y-75746277D01*
X198456293Y-75952209D01*
X198456290Y-75952219D01*
X198398597Y-76167534D01*
X198398594Y-76167547D01*
X198369501Y-76388533D01*
X198369500Y-76388549D01*
X165478220Y-76388549D01*
X165195480Y-76105810D01*
X165218767Y-76101178D01*
X165355258Y-76044641D01*
X165478097Y-75962563D01*
X165582563Y-75858097D01*
X165664641Y-75735258D01*
X165721178Y-75598767D01*
X165725809Y-75575480D01*
X166368600Y-76218271D01*
X166482779Y-75994184D01*
X166560602Y-75754668D01*
X166600000Y-75505928D01*
X166600000Y-75254071D01*
X166560602Y-75005330D01*
X166482780Y-74765815D01*
X166368600Y-74541727D01*
X165725809Y-75184518D01*
X165721178Y-75161233D01*
X165664641Y-75024742D01*
X165582563Y-74901903D01*
X165478097Y-74797437D01*
X165355258Y-74715359D01*
X165218767Y-74658822D01*
X165195480Y-74654190D01*
X165838271Y-74011398D01*
X165614184Y-73897219D01*
X165374669Y-73819397D01*
X165125928Y-73780000D01*
X164874072Y-73780000D01*
X164625330Y-73819397D01*
X164385815Y-73897219D01*
X164385812Y-73897220D01*
X164161728Y-74011398D01*
X164804519Y-74654189D01*
X164781233Y-74658822D01*
X164644742Y-74715359D01*
X164521903Y-74797437D01*
X164417437Y-74901903D01*
X164335359Y-75024742D01*
X164278822Y-75161233D01*
X164274189Y-75184519D01*
X163631398Y-74541728D01*
X163517220Y-74765812D01*
X163517219Y-74765815D01*
X163439397Y-75005330D01*
X163400000Y-75254071D01*
X147520000Y-75254071D01*
X147480602Y-75005330D01*
X147402780Y-74765815D01*
X147288600Y-74541727D01*
X146645809Y-75184518D01*
X146641178Y-75161233D01*
X146584641Y-75024742D01*
X146502563Y-74901903D01*
X146398097Y-74797437D01*
X146275258Y-74715359D01*
X146138767Y-74658822D01*
X146115480Y-74654190D01*
X146758271Y-74011398D01*
X146534184Y-73897219D01*
X146294669Y-73819397D01*
X146045928Y-73780000D01*
X145794072Y-73780000D01*
X145545330Y-73819397D01*
X145305815Y-73897219D01*
X145305812Y-73897220D01*
X145081728Y-74011398D01*
X145724519Y-74654189D01*
X145701233Y-74658822D01*
X145564742Y-74715359D01*
X145441903Y-74797437D01*
X145337437Y-74901903D01*
X145255359Y-75024742D01*
X145198822Y-75161233D01*
X145194189Y-75184519D01*
X144551398Y-74541728D01*
X144437220Y-74765812D01*
X144437219Y-74765815D01*
X144359397Y-75005330D01*
X144320000Y-75254071D01*
X122600500Y-75254071D01*
X122600500Y-51266730D01*
X122602201Y-51260934D01*
X122601056Y-51255006D01*
X122611931Y-51227799D01*
X122620185Y-51199691D01*
X122625322Y-51194300D01*
X122626990Y-51190128D01*
X122642201Y-51176588D01*
X122652522Y-51165759D01*
X122658908Y-51161206D01*
X122661694Y-51159787D01*
X122703101Y-51129703D01*
X122703522Y-51129403D01*
X122736022Y-51118135D01*
X122768419Y-51106576D01*
X122768986Y-51106707D01*
X122769537Y-51106517D01*
X122803006Y-51114618D01*
X122836474Y-51122401D01*
X122836879Y-51122818D01*
X122837445Y-51122955D01*
X122861195Y-51147838D01*
X122885169Y-51172506D01*
X122885319Y-51173112D01*
X122885687Y-51173498D01*
X122886654Y-51178504D01*
X122899500Y-51230374D01*
X122899500Y-60913330D01*
X122899499Y-60913348D01*
X122899499Y-61079054D01*
X122899498Y-61079054D01*
X122940424Y-61231789D01*
X122940425Y-61231790D01*
X122961455Y-61268214D01*
X122961456Y-61268216D01*
X123019475Y-61368709D01*
X123019479Y-61368714D01*
X123019480Y-61368716D01*
X123131284Y-61480520D01*
X123131285Y-61480521D01*
X123631284Y-61980520D01*
X123631286Y-61980521D01*
X123631290Y-61980524D01*
X123768209Y-62059573D01*
X123768216Y-62059577D01*
X123920943Y-62100501D01*
X123920945Y-62100501D01*
X124086654Y-62100501D01*
X124086670Y-62100500D01*
X126913331Y-62100500D01*
X126913347Y-62100501D01*
X126920943Y-62100501D01*
X127079054Y-62100501D01*
X127079057Y-62100501D01*
X127231785Y-62059577D01*
X127281904Y-62030639D01*
X127368716Y-61980520D01*
X127480520Y-61868716D01*
X127480520Y-61868714D01*
X127490728Y-61858507D01*
X127490729Y-61858504D01*
X129928081Y-59421153D01*
X130699500Y-59421153D01*
X130699500Y-59578846D01*
X130730261Y-59733489D01*
X130730264Y-59733501D01*
X130790602Y-59879172D01*
X130790609Y-59879185D01*
X130878210Y-60010288D01*
X130878213Y-60010292D01*
X130989707Y-60121786D01*
X130989711Y-60121789D01*
X131120814Y-60209390D01*
X131120827Y-60209397D01*
X131263461Y-60268477D01*
X131266503Y-60269737D01*
X131331147Y-60282595D01*
X131421849Y-60300638D01*
X131483760Y-60333023D01*
X131485339Y-60334574D01*
X138933181Y-67782416D01*
X138966666Y-67843739D01*
X138969500Y-67870097D01*
X138969500Y-71273699D01*
X138949815Y-71340738D01*
X138901795Y-71384184D01*
X138731151Y-71471132D01*
X138527350Y-71619201D01*
X138527345Y-71619205D01*
X138349205Y-71797345D01*
X138349201Y-71797350D01*
X138201132Y-72001151D01*
X138086760Y-72225616D01*
X138008910Y-72465214D01*
X137969500Y-72714038D01*
X137969500Y-72965961D01*
X138008910Y-73214785D01*
X138086760Y-73454383D01*
X138201132Y-73678848D01*
X138349201Y-73882649D01*
X138349205Y-73882654D01*
X138527345Y-74060794D01*
X138527350Y-74060798D01*
X138705117Y-74189952D01*
X138731155Y-74208870D01*
X138874184Y-74281747D01*
X138955616Y-74323239D01*
X138955618Y-74323239D01*
X138955621Y-74323241D01*
X139195215Y-74401090D01*
X139444038Y-74440500D01*
X139444039Y-74440500D01*
X139695961Y-74440500D01*
X139695962Y-74440500D01*
X139944785Y-74401090D01*
X140184379Y-74323241D01*
X140408845Y-74208870D01*
X140612656Y-74060793D01*
X140790793Y-73882656D01*
X140938870Y-73678845D01*
X141053241Y-73454379D01*
X141131090Y-73214785D01*
X141170500Y-72965962D01*
X141170500Y-72714038D01*
X157049500Y-72714038D01*
X157049500Y-72965961D01*
X157088910Y-73214785D01*
X157166760Y-73454383D01*
X157281132Y-73678848D01*
X157429201Y-73882649D01*
X157429205Y-73882654D01*
X157607345Y-74060794D01*
X157607350Y-74060798D01*
X157785117Y-74189952D01*
X157811155Y-74208870D01*
X157954184Y-74281747D01*
X158035616Y-74323239D01*
X158035618Y-74323239D01*
X158035621Y-74323241D01*
X158275215Y-74401090D01*
X158524038Y-74440500D01*
X158524039Y-74440500D01*
X158775961Y-74440500D01*
X158775962Y-74440500D01*
X159024785Y-74401090D01*
X159264379Y-74323241D01*
X159488845Y-74208870D01*
X159692656Y-74060793D01*
X159870793Y-73882656D01*
X160018870Y-73678845D01*
X160133241Y-73454379D01*
X160211090Y-73214785D01*
X160250500Y-72965962D01*
X160250500Y-72714038D01*
X160211090Y-72465215D01*
X160133241Y-72225621D01*
X160133239Y-72225618D01*
X160133239Y-72225616D01*
X160091747Y-72144184D01*
X160018870Y-72001155D01*
X159999952Y-71975117D01*
X159870798Y-71797350D01*
X159870794Y-71797345D01*
X159692654Y-71619205D01*
X159692649Y-71619201D01*
X159488848Y-71471132D01*
X159488847Y-71471131D01*
X159488845Y-71471130D01*
X159418747Y-71435413D01*
X159264383Y-71356760D01*
X159024785Y-71278910D01*
X158991884Y-71273699D01*
X158775962Y-71239500D01*
X158524038Y-71239500D01*
X158399626Y-71259205D01*
X158275214Y-71278910D01*
X158035616Y-71356760D01*
X157811151Y-71471132D01*
X157607350Y-71619201D01*
X157607345Y-71619205D01*
X157429205Y-71797345D01*
X157429201Y-71797350D01*
X157281132Y-72001151D01*
X157166760Y-72225616D01*
X157088910Y-72465214D01*
X157049500Y-72714038D01*
X141170500Y-72714038D01*
X141131090Y-72465215D01*
X141053241Y-72225621D01*
X141053239Y-72225618D01*
X141053239Y-72225616D01*
X141011747Y-72144184D01*
X140938870Y-72001155D01*
X140919952Y-71975117D01*
X140790798Y-71797350D01*
X140790794Y-71797345D01*
X140612654Y-71619205D01*
X140612649Y-71619201D01*
X140408848Y-71471132D01*
X140408847Y-71471131D01*
X140408845Y-71471130D01*
X140339186Y-71435637D01*
X140238205Y-71384184D01*
X140187409Y-71336209D01*
X140170500Y-71273699D01*
X140170500Y-67490945D01*
X140170500Y-67490943D01*
X140129577Y-67338216D01*
X140129573Y-67338209D01*
X140050524Y-67201290D01*
X140050521Y-67201286D01*
X140050520Y-67201284D01*
X139938716Y-67089480D01*
X139938715Y-67089479D01*
X139934385Y-67085149D01*
X139934374Y-67085139D01*
X134770388Y-61921153D01*
X194199500Y-61921153D01*
X194199500Y-62078846D01*
X194230261Y-62233489D01*
X194230264Y-62233501D01*
X194290602Y-62379172D01*
X194290609Y-62379185D01*
X194378210Y-62510288D01*
X194378213Y-62510292D01*
X194489707Y-62621786D01*
X194489711Y-62621789D01*
X194620814Y-62709390D01*
X194620827Y-62709397D01*
X194766498Y-62769735D01*
X194766503Y-62769737D01*
X194921153Y-62800499D01*
X194921156Y-62800500D01*
X194921158Y-62800500D01*
X195078844Y-62800500D01*
X195078845Y-62800499D01*
X195233497Y-62769737D01*
X195379179Y-62709394D01*
X195379185Y-62709390D01*
X195510875Y-62621398D01*
X195577553Y-62600520D01*
X195579766Y-62600500D01*
X204920234Y-62600500D01*
X204987273Y-62620185D01*
X204989125Y-62621398D01*
X205120814Y-62709390D01*
X205120827Y-62709397D01*
X205266498Y-62769735D01*
X205266503Y-62769737D01*
X205421153Y-62800499D01*
X205421156Y-62800500D01*
X205421158Y-62800500D01*
X205578844Y-62800500D01*
X205578845Y-62800499D01*
X205733497Y-62769737D01*
X205879179Y-62709394D01*
X206010289Y-62621789D01*
X206121789Y-62510289D01*
X206209394Y-62379179D01*
X206269737Y-62233497D01*
X206300500Y-62078842D01*
X206300500Y-61921158D01*
X206300500Y-61921155D01*
X206300499Y-61921153D01*
X206269737Y-61766503D01*
X206269735Y-61766498D01*
X206209397Y-61620827D01*
X206209390Y-61620814D01*
X206121789Y-61489711D01*
X206121786Y-61489707D01*
X206010292Y-61378213D01*
X206010288Y-61378210D01*
X205879185Y-61290609D01*
X205879172Y-61290602D01*
X205733501Y-61230264D01*
X205733489Y-61230261D01*
X205578845Y-61199500D01*
X205578842Y-61199500D01*
X205421158Y-61199500D01*
X205421155Y-61199500D01*
X205266510Y-61230261D01*
X205266498Y-61230264D01*
X205120827Y-61290602D01*
X205120814Y-61290609D01*
X204989125Y-61378602D01*
X204922447Y-61399480D01*
X204920234Y-61399500D01*
X195579766Y-61399500D01*
X195512727Y-61379815D01*
X195510875Y-61378602D01*
X195379185Y-61290609D01*
X195379172Y-61290602D01*
X195233501Y-61230264D01*
X195233489Y-61230261D01*
X195078845Y-61199500D01*
X195078842Y-61199500D01*
X194921158Y-61199500D01*
X194921155Y-61199500D01*
X194766510Y-61230261D01*
X194766498Y-61230264D01*
X194620827Y-61290602D01*
X194620814Y-61290609D01*
X194489711Y-61378210D01*
X194489707Y-61378213D01*
X194378213Y-61489707D01*
X194378210Y-61489711D01*
X194290609Y-61620814D01*
X194290602Y-61620827D01*
X194230264Y-61766498D01*
X194230261Y-61766510D01*
X194199500Y-61921153D01*
X134770388Y-61921153D01*
X132334574Y-59485339D01*
X132301089Y-59424016D01*
X132300638Y-59421849D01*
X132269738Y-59266510D01*
X132269737Y-59266503D01*
X132231295Y-59173694D01*
X132209397Y-59120827D01*
X132209390Y-59120814D01*
X132121789Y-58989711D01*
X132121786Y-58989707D01*
X132029727Y-58897648D01*
X139769500Y-58897648D01*
X139769500Y-59102351D01*
X139801522Y-59304534D01*
X139864781Y-59499223D01*
X139957715Y-59681613D01*
X140078028Y-59847213D01*
X140222786Y-59991971D01*
X140377749Y-60104556D01*
X140388390Y-60112287D01*
X140504607Y-60171503D01*
X140570776Y-60205218D01*
X140570778Y-60205218D01*
X140570781Y-60205220D01*
X140675137Y-60239127D01*
X140765465Y-60268477D01*
X140866557Y-60284488D01*
X140967648Y-60300500D01*
X140967649Y-60300500D01*
X141172351Y-60300500D01*
X141172352Y-60300500D01*
X141374534Y-60268477D01*
X141569219Y-60205220D01*
X141751610Y-60112287D01*
X141881821Y-60017684D01*
X141917213Y-59991971D01*
X141917215Y-59991968D01*
X141917219Y-59991966D01*
X142061966Y-59847219D01*
X142061968Y-59847215D01*
X142061971Y-59847213D01*
X142114732Y-59774590D01*
X142182287Y-59681610D01*
X142275220Y-59499219D01*
X142338477Y-59304534D01*
X142370500Y-59102352D01*
X142370500Y-58897648D01*
X142369253Y-58889778D01*
X149129500Y-58889778D01*
X149129500Y-59110221D01*
X149163985Y-59327952D01*
X149232103Y-59537603D01*
X149232104Y-59537606D01*
X149300122Y-59671096D01*
X149331917Y-59733497D01*
X149332187Y-59734025D01*
X149461752Y-59912358D01*
X149461756Y-59912363D01*
X149617636Y-60068243D01*
X149617641Y-60068247D01*
X149773192Y-60181260D01*
X149795978Y-60197815D01*
X149912501Y-60257187D01*
X149992393Y-60297895D01*
X149992396Y-60297896D01*
X150097221Y-60331955D01*
X150202049Y-60366015D01*
X150419778Y-60400500D01*
X150419779Y-60400500D01*
X150640221Y-60400500D01*
X150640222Y-60400500D01*
X150857951Y-60366015D01*
X151067606Y-60297895D01*
X151264022Y-60197815D01*
X151442365Y-60068242D01*
X151492924Y-60017682D01*
X151554245Y-59984198D01*
X151623936Y-59989182D01*
X151679870Y-60031053D01*
X151696786Y-60062030D01*
X151726646Y-60142087D01*
X151726649Y-60142093D01*
X151812809Y-60257187D01*
X151812812Y-60257190D01*
X151927906Y-60343350D01*
X151927913Y-60343354D01*
X152062620Y-60393596D01*
X152062627Y-60393598D01*
X152122155Y-60399999D01*
X152122172Y-60400000D01*
X152695000Y-60400000D01*
X153445000Y-60400000D01*
X154017828Y-60400000D01*
X154017844Y-60399999D01*
X154077372Y-60393598D01*
X154077379Y-60393596D01*
X154212086Y-60343354D01*
X154212093Y-60343350D01*
X154327187Y-60257190D01*
X154327190Y-60257187D01*
X154413350Y-60142093D01*
X154413354Y-60142086D01*
X154463596Y-60007379D01*
X154463598Y-60007372D01*
X154469999Y-59947844D01*
X154470000Y-59947827D01*
X154470000Y-59375000D01*
X153445000Y-59375000D01*
X153445000Y-60400000D01*
X152695000Y-60400000D01*
X152695000Y-59250481D01*
X152709910Y-59276306D01*
X152793694Y-59360090D01*
X152896306Y-59419333D01*
X153010756Y-59450000D01*
X153129244Y-59450000D01*
X153243694Y-59419333D01*
X153346306Y-59360090D01*
X153430090Y-59276306D01*
X153489333Y-59173694D01*
X153520000Y-59059244D01*
X153520000Y-58940756D01*
X153489333Y-58826306D01*
X153430090Y-58723694D01*
X153346306Y-58639910D01*
X153320481Y-58625000D01*
X153445000Y-58625000D01*
X154470000Y-58625000D01*
X154470000Y-58052172D01*
X154469999Y-58052155D01*
X154463598Y-57992627D01*
X154463596Y-57992620D01*
X154413354Y-57857913D01*
X154413350Y-57857906D01*
X154327190Y-57742812D01*
X154327187Y-57742809D01*
X154212093Y-57656649D01*
X154212086Y-57656645D01*
X154077379Y-57606403D01*
X154077372Y-57606401D01*
X154017844Y-57600000D01*
X153445000Y-57600000D01*
X153445000Y-58625000D01*
X153320481Y-58625000D01*
X153243694Y-58580667D01*
X153129244Y-58550000D01*
X153010756Y-58550000D01*
X152896306Y-58580667D01*
X152793694Y-58639910D01*
X152709910Y-58723694D01*
X152695000Y-58749518D01*
X152695000Y-57600000D01*
X152122155Y-57600000D01*
X152062627Y-57606401D01*
X152062620Y-57606403D01*
X151927913Y-57656645D01*
X151927906Y-57656649D01*
X151812812Y-57742809D01*
X151812809Y-57742812D01*
X151726649Y-57857906D01*
X151726643Y-57857918D01*
X151696785Y-57937969D01*
X151654914Y-57993903D01*
X151589449Y-58018319D01*
X151521176Y-58003467D01*
X151492923Y-57982316D01*
X151442363Y-57931756D01*
X151442358Y-57931752D01*
X151264025Y-57802187D01*
X151264024Y-57802186D01*
X151264022Y-57802185D01*
X151156918Y-57747612D01*
X151067606Y-57702104D01*
X151067603Y-57702103D01*
X150857952Y-57633985D01*
X150749086Y-57616742D01*
X150640222Y-57599500D01*
X150419778Y-57599500D01*
X150347201Y-57610995D01*
X150202047Y-57633985D01*
X149992396Y-57702103D01*
X149992393Y-57702104D01*
X149795974Y-57802187D01*
X149617641Y-57931752D01*
X149617636Y-57931756D01*
X149461756Y-58087636D01*
X149461752Y-58087641D01*
X149332187Y-58265974D01*
X149232104Y-58462393D01*
X149232103Y-58462396D01*
X149163985Y-58672047D01*
X149129500Y-58889778D01*
X142369253Y-58889778D01*
X142338477Y-58695466D01*
X142330868Y-58672049D01*
X142309127Y-58605137D01*
X142275220Y-58500781D01*
X142275218Y-58500778D01*
X142275218Y-58500776D01*
X142241503Y-58434607D01*
X142182287Y-58318390D01*
X142144205Y-58265974D01*
X142061971Y-58152786D01*
X141917213Y-58008028D01*
X141751613Y-57887715D01*
X141751612Y-57887714D01*
X141751610Y-57887713D01*
X141693111Y-57857906D01*
X141569223Y-57794781D01*
X141374534Y-57731522D01*
X141188799Y-57702105D01*
X141172352Y-57699500D01*
X140967648Y-57699500D01*
X140951201Y-57702105D01*
X140765465Y-57731522D01*
X140570776Y-57794781D01*
X140388386Y-57887715D01*
X140222786Y-58008028D01*
X140078028Y-58152786D01*
X139957715Y-58318386D01*
X139864781Y-58500776D01*
X139801522Y-58695465D01*
X139769500Y-58897648D01*
X132029727Y-58897648D01*
X132010292Y-58878213D01*
X132010288Y-58878210D01*
X131879185Y-58790609D01*
X131879172Y-58790602D01*
X131733501Y-58730264D01*
X131733489Y-58730261D01*
X131578845Y-58699500D01*
X131578842Y-58699500D01*
X131421158Y-58699500D01*
X131421155Y-58699500D01*
X131266510Y-58730261D01*
X131266498Y-58730264D01*
X131120827Y-58790602D01*
X131120814Y-58790609D01*
X130989711Y-58878210D01*
X130989707Y-58878213D01*
X130878213Y-58989707D01*
X130878210Y-58989711D01*
X130790609Y-59120814D01*
X130790602Y-59120827D01*
X130730264Y-59266498D01*
X130730261Y-59266510D01*
X130699500Y-59421153D01*
X129928081Y-59421153D01*
X135712416Y-53636819D01*
X135773739Y-53603334D01*
X135800097Y-53600500D01*
X137920234Y-53600500D01*
X137987273Y-53620185D01*
X137989125Y-53621398D01*
X138120814Y-53709390D01*
X138120827Y-53709397D01*
X138258683Y-53766498D01*
X138266503Y-53769737D01*
X138421153Y-53800499D01*
X138421156Y-53800500D01*
X138421158Y-53800500D01*
X138578844Y-53800500D01*
X138578845Y-53800499D01*
X138733497Y-53769737D01*
X138879179Y-53709394D01*
X139010289Y-53621789D01*
X139121789Y-53510289D01*
X139209394Y-53379179D01*
X139213728Y-53368717D01*
X139233429Y-53321153D01*
X139269737Y-53233497D01*
X139300500Y-53078842D01*
X139300500Y-52921158D01*
X139300500Y-52921155D01*
X139300499Y-52921153D01*
X139272066Y-52778211D01*
X139269737Y-52766503D01*
X139262377Y-52748735D01*
X139209397Y-52620827D01*
X139209390Y-52620814D01*
X139121789Y-52489711D01*
X139121786Y-52489707D01*
X139010292Y-52378213D01*
X139010288Y-52378210D01*
X138879185Y-52290609D01*
X138879172Y-52290602D01*
X138733501Y-52230264D01*
X138733489Y-52230261D01*
X138578845Y-52199500D01*
X138578842Y-52199500D01*
X138421158Y-52199500D01*
X138421155Y-52199500D01*
X138266510Y-52230261D01*
X138266498Y-52230264D01*
X138120827Y-52290602D01*
X138120814Y-52290609D01*
X137989125Y-52378602D01*
X137922447Y-52399480D01*
X137920234Y-52399500D01*
X135420942Y-52399500D01*
X135268213Y-52440423D01*
X135230559Y-52462164D01*
X135230558Y-52462164D01*
X135131287Y-52519477D01*
X135131282Y-52519481D01*
X135071707Y-52579057D01*
X135019480Y-52631284D01*
X135019478Y-52631286D01*
X130893976Y-56756789D01*
X126787584Y-60863181D01*
X126726261Y-60896666D01*
X126699903Y-60899500D01*
X124300098Y-60899500D01*
X124270657Y-60890855D01*
X124240671Y-60884332D01*
X124235655Y-60880577D01*
X124233059Y-60879815D01*
X124212417Y-60863181D01*
X124136819Y-60787583D01*
X124103334Y-60726260D01*
X124100500Y-60699902D01*
X124100500Y-58897648D01*
X124529500Y-58897648D01*
X124529500Y-59102351D01*
X124561522Y-59304534D01*
X124624781Y-59499223D01*
X124717715Y-59681613D01*
X124838028Y-59847213D01*
X124982786Y-59991971D01*
X125137749Y-60104556D01*
X125148390Y-60112287D01*
X125264607Y-60171503D01*
X125330776Y-60205218D01*
X125330778Y-60205218D01*
X125330781Y-60205220D01*
X125435137Y-60239127D01*
X125525465Y-60268477D01*
X125626557Y-60284488D01*
X125727648Y-60300500D01*
X125727649Y-60300500D01*
X125932351Y-60300500D01*
X125932352Y-60300500D01*
X126134534Y-60268477D01*
X126329219Y-60205220D01*
X126511610Y-60112287D01*
X126641821Y-60017684D01*
X126677213Y-59991971D01*
X126677215Y-59991968D01*
X126677219Y-59991966D01*
X126821966Y-59847219D01*
X126821968Y-59847215D01*
X126821971Y-59847213D01*
X126874732Y-59774590D01*
X126942287Y-59681610D01*
X127035220Y-59499219D01*
X127098477Y-59304534D01*
X127130500Y-59102352D01*
X127130500Y-58897648D01*
X127115920Y-58805597D01*
X127124874Y-58736307D01*
X127150709Y-58698524D01*
X135458506Y-50390728D01*
X135458511Y-50390724D01*
X135468714Y-50380520D01*
X135468716Y-50380520D01*
X135580520Y-50268716D01*
X135659577Y-50131784D01*
X135700108Y-49980520D01*
X135700500Y-49979058D01*
X135700500Y-49820943D01*
X135700500Y-43700097D01*
X135720185Y-43633058D01*
X135736819Y-43612416D01*
X135870178Y-43479057D01*
X136085885Y-43263349D01*
X136147206Y-43229866D01*
X136216897Y-43234850D01*
X136272831Y-43276721D01*
X136273879Y-43278143D01*
X136276627Y-43281924D01*
X136277019Y-43282464D01*
X136417536Y-43422981D01*
X136578306Y-43539787D01*
X136696832Y-43600179D01*
X136734780Y-43619515D01*
X136785576Y-43667490D01*
X136802371Y-43735311D01*
X136779833Y-43801446D01*
X136734780Y-43840485D01*
X136578305Y-43920213D01*
X136417533Y-44037021D01*
X136277021Y-44177533D01*
X136160213Y-44338305D01*
X136069994Y-44515367D01*
X136069993Y-44515370D01*
X136008587Y-44704362D01*
X135977500Y-44900639D01*
X135977500Y-45099360D01*
X136008587Y-45295637D01*
X136069993Y-45484629D01*
X136069994Y-45484632D01*
X136129033Y-45600500D01*
X136160213Y-45661694D01*
X136277019Y-45822464D01*
X136417536Y-45962981D01*
X136578306Y-46079787D01*
X136696832Y-46140179D01*
X136734780Y-46159515D01*
X136785576Y-46207490D01*
X136802371Y-46275311D01*
X136779833Y-46341446D01*
X136734780Y-46380485D01*
X136578305Y-46460213D01*
X136417533Y-46577021D01*
X136277021Y-46717533D01*
X136160213Y-46878305D01*
X136069994Y-47055367D01*
X136069993Y-47055370D01*
X136008587Y-47244362D01*
X135977500Y-47440639D01*
X135977500Y-47639360D01*
X136008587Y-47835637D01*
X136069993Y-48024629D01*
X136069994Y-48024632D01*
X136115739Y-48114410D01*
X136160213Y-48201694D01*
X136277019Y-48362464D01*
X136417536Y-48502981D01*
X136578306Y-48619787D01*
X136679374Y-48671284D01*
X136734780Y-48699515D01*
X136785576Y-48747490D01*
X136802371Y-48815311D01*
X136779833Y-48881446D01*
X136734780Y-48920485D01*
X136578305Y-49000213D01*
X136417533Y-49117021D01*
X136277021Y-49257533D01*
X136160213Y-49418305D01*
X136069994Y-49595367D01*
X136069993Y-49595370D01*
X136008587Y-49784362D01*
X135977500Y-49980639D01*
X135977500Y-50179360D01*
X136008587Y-50375637D01*
X136069993Y-50564629D01*
X136069994Y-50564632D01*
X136158204Y-50737752D01*
X136160213Y-50741694D01*
X136277019Y-50902464D01*
X136417536Y-51042981D01*
X136578306Y-51159787D01*
X136639500Y-51190967D01*
X136755367Y-51250005D01*
X136755370Y-51250006D01*
X136849866Y-51280709D01*
X136944364Y-51311413D01*
X137140639Y-51342500D01*
X137140640Y-51342500D01*
X137339360Y-51342500D01*
X137339361Y-51342500D01*
X137535636Y-51311413D01*
X137724632Y-51250005D01*
X137901694Y-51159787D01*
X138062464Y-51042981D01*
X138202981Y-50902464D01*
X138319787Y-50741694D01*
X138319789Y-50741689D01*
X138321000Y-50739715D01*
X138321656Y-50739121D01*
X138322651Y-50737752D01*
X138322938Y-50737960D01*
X138372810Y-50692837D01*
X138426730Y-50680500D01*
X172279903Y-50680500D01*
X172346942Y-50700185D01*
X172367584Y-50716819D01*
X174363181Y-52712416D01*
X174396666Y-52773739D01*
X174399500Y-52800097D01*
X174399500Y-56413330D01*
X174399499Y-56413348D01*
X174399499Y-56579054D01*
X174399498Y-56579054D01*
X174399499Y-56579057D01*
X174440423Y-56731785D01*
X174454859Y-56756789D01*
X174469358Y-56781900D01*
X174469359Y-56781904D01*
X174469360Y-56781904D01*
X174519479Y-56868714D01*
X174519481Y-56868717D01*
X174638349Y-56987585D01*
X174638355Y-56987590D01*
X178015139Y-60364374D01*
X178015149Y-60364385D01*
X178019479Y-60368715D01*
X178019480Y-60368716D01*
X178131284Y-60480520D01*
X178131286Y-60480521D01*
X178131290Y-60480524D01*
X178198765Y-60519480D01*
X178268216Y-60559577D01*
X178380019Y-60589534D01*
X178420942Y-60600500D01*
X178420943Y-60600500D01*
X206413331Y-60600500D01*
X206413347Y-60600501D01*
X206420943Y-60600501D01*
X206579054Y-60600501D01*
X206579057Y-60600501D01*
X206731785Y-60559577D01*
X206801233Y-60519481D01*
X206868716Y-60480520D01*
X206980520Y-60368716D01*
X206980520Y-60368714D01*
X206990724Y-60358511D01*
X206990727Y-60358506D01*
X210379662Y-56969572D01*
X210440983Y-56936089D01*
X210443150Y-56935638D01*
X210501085Y-56924113D01*
X210598497Y-56904737D01*
X210744179Y-56844394D01*
X210875289Y-56756789D01*
X210986789Y-56645289D01*
X211074394Y-56514179D01*
X211134737Y-56368497D01*
X211165500Y-56213842D01*
X211165500Y-56056158D01*
X211165500Y-56056155D01*
X211165499Y-56056153D01*
X211148310Y-55969738D01*
X211134737Y-55901503D01*
X211101719Y-55821789D01*
X211074397Y-55755827D01*
X211074390Y-55755814D01*
X210986789Y-55624711D01*
X210986786Y-55624707D01*
X210875292Y-55513213D01*
X210875288Y-55513210D01*
X210744185Y-55425609D01*
X210744172Y-55425602D01*
X210598501Y-55365264D01*
X210598489Y-55365261D01*
X210443845Y-55334500D01*
X210443842Y-55334500D01*
X210286158Y-55334500D01*
X210286155Y-55334500D01*
X210131510Y-55365261D01*
X210131498Y-55365264D01*
X209985827Y-55425602D01*
X209985814Y-55425609D01*
X209854711Y-55513210D01*
X209854707Y-55513213D01*
X209743213Y-55624707D01*
X209743210Y-55624711D01*
X209655609Y-55755814D01*
X209655602Y-55755827D01*
X209595264Y-55901498D01*
X209595261Y-55901508D01*
X209564361Y-56056850D01*
X209531976Y-56118761D01*
X209530425Y-56120339D01*
X206287584Y-59363181D01*
X206226261Y-59396666D01*
X206199903Y-59399500D01*
X178800097Y-59399500D01*
X178733058Y-59379815D01*
X178712416Y-59363181D01*
X175636819Y-56287584D01*
X175603334Y-56226261D01*
X175600500Y-56199903D01*
X175600500Y-52589059D01*
X175600501Y-52589046D01*
X175600501Y-52420945D01*
X175600501Y-52420943D01*
X175559577Y-52268215D01*
X175519904Y-52199500D01*
X175480520Y-52131284D01*
X175368716Y-52019480D01*
X175364385Y-52015149D01*
X175364374Y-52015139D01*
X173067590Y-49718355D01*
X173067588Y-49718352D01*
X172948717Y-49599481D01*
X172948716Y-49599480D01*
X172857024Y-49546542D01*
X172857023Y-49546541D01*
X172811789Y-49520424D01*
X172799263Y-49517067D01*
X172659057Y-49479499D01*
X172500943Y-49479499D01*
X172493347Y-49479499D01*
X172493331Y-49479500D01*
X138426730Y-49479500D01*
X138359691Y-49459815D01*
X138322808Y-49422133D01*
X138322651Y-49422248D01*
X138321872Y-49421176D01*
X138321000Y-49420285D01*
X138319789Y-49418309D01*
X138319786Y-49418305D01*
X138202981Y-49257536D01*
X138062464Y-49117019D01*
X137901694Y-49000213D01*
X137745218Y-48920484D01*
X137694423Y-48872510D01*
X137677628Y-48804689D01*
X137700165Y-48738554D01*
X137745218Y-48699515D01*
X137901694Y-48619787D01*
X138062464Y-48502981D01*
X138202981Y-48362464D01*
X138319787Y-48201694D01*
X138410005Y-48024632D01*
X138471413Y-47835636D01*
X138502500Y-47639361D01*
X138502500Y-47440639D01*
X138471413Y-47244364D01*
X138410005Y-47055368D01*
X138410005Y-47055367D01*
X138339721Y-46917429D01*
X138319787Y-46878306D01*
X138202981Y-46717536D01*
X138062464Y-46577019D01*
X137901694Y-46460213D01*
X137745218Y-46380484D01*
X137694423Y-46332510D01*
X137677628Y-46264689D01*
X137700165Y-46198554D01*
X137745218Y-46159515D01*
X137901694Y-46079787D01*
X138062464Y-45962981D01*
X138202981Y-45822464D01*
X138319787Y-45661694D01*
X138319789Y-45661689D01*
X138321000Y-45659715D01*
X138321656Y-45659121D01*
X138322651Y-45657752D01*
X138322938Y-45657960D01*
X138372810Y-45612837D01*
X138426730Y-45600500D01*
X173699903Y-45600500D01*
X173766942Y-45620185D01*
X173787584Y-45636819D01*
X178015139Y-49864374D01*
X178015149Y-49864385D01*
X178019479Y-49868715D01*
X178019480Y-49868716D01*
X178131284Y-49980520D01*
X178218095Y-50030639D01*
X178218097Y-50030641D01*
X178256151Y-50052611D01*
X178268215Y-50059577D01*
X178420943Y-50100501D01*
X178420946Y-50100501D01*
X178586653Y-50100501D01*
X178586669Y-50100500D01*
X192699903Y-50100500D01*
X192766942Y-50120185D01*
X192787584Y-50136819D01*
X194515139Y-51864374D01*
X194515149Y-51864385D01*
X194519479Y-51868715D01*
X194519480Y-51868716D01*
X194631284Y-51980520D01*
X194691265Y-52015149D01*
X194718095Y-52030639D01*
X194718097Y-52030641D01*
X194756151Y-52052611D01*
X194768215Y-52059577D01*
X194920943Y-52100500D01*
X205199903Y-52100500D01*
X205266942Y-52120185D01*
X205287584Y-52136819D01*
X207165425Y-54014660D01*
X207198910Y-54075983D01*
X207199361Y-54078149D01*
X207230261Y-54233491D01*
X207230264Y-54233501D01*
X207290602Y-54379172D01*
X207290609Y-54379185D01*
X207378210Y-54510288D01*
X207378213Y-54510292D01*
X207489707Y-54621786D01*
X207489711Y-54621789D01*
X207620814Y-54709390D01*
X207620827Y-54709397D01*
X207766498Y-54769735D01*
X207766503Y-54769737D01*
X207921153Y-54800499D01*
X207921156Y-54800500D01*
X207921158Y-54800500D01*
X208078844Y-54800500D01*
X208078845Y-54800499D01*
X208233497Y-54769737D01*
X208379179Y-54709394D01*
X208510289Y-54621789D01*
X208621789Y-54510289D01*
X208709394Y-54379179D01*
X208769737Y-54233497D01*
X208800500Y-54078842D01*
X208800500Y-53921158D01*
X208800500Y-53921155D01*
X208800499Y-53921153D01*
X208776499Y-53800499D01*
X208769737Y-53766503D01*
X208716021Y-53636819D01*
X208709397Y-53620827D01*
X208709390Y-53620814D01*
X208621789Y-53489711D01*
X208621786Y-53489707D01*
X208510292Y-53378213D01*
X208510288Y-53378210D01*
X208379185Y-53290609D01*
X208379172Y-53290602D01*
X208233501Y-53230264D01*
X208233491Y-53230261D01*
X208078149Y-53199361D01*
X208016238Y-53166976D01*
X208014660Y-53165425D01*
X205987590Y-51138355D01*
X205987588Y-51138352D01*
X205868717Y-51019481D01*
X205868716Y-51019480D01*
X205781904Y-50969360D01*
X205781904Y-50969359D01*
X205781900Y-50969358D01*
X205731785Y-50940423D01*
X205579057Y-50899499D01*
X205420943Y-50899499D01*
X205413347Y-50899499D01*
X205413331Y-50899500D01*
X195300097Y-50899500D01*
X195233058Y-50879815D01*
X195212416Y-50863181D01*
X193487590Y-49138355D01*
X193487588Y-49138352D01*
X193368717Y-49019481D01*
X193368716Y-49019480D01*
X193267326Y-48960943D01*
X193267325Y-48960942D01*
X193231783Y-48940422D01*
X193175881Y-48925443D01*
X193079057Y-48899499D01*
X192920943Y-48899499D01*
X192913347Y-48899499D01*
X192913331Y-48899500D01*
X178800097Y-48899500D01*
X178733058Y-48879815D01*
X178712416Y-48863181D01*
X177246883Y-47397648D01*
X197269500Y-47397648D01*
X197269500Y-47602351D01*
X197301522Y-47804534D01*
X197364781Y-47999223D01*
X197457715Y-48181613D01*
X197578028Y-48347213D01*
X197722786Y-48491971D01*
X197877749Y-48604556D01*
X197888390Y-48612287D01*
X198004178Y-48671284D01*
X198070776Y-48705218D01*
X198070778Y-48705218D01*
X198070781Y-48705220D01*
X198175137Y-48739127D01*
X198265465Y-48768477D01*
X198366557Y-48784488D01*
X198467648Y-48800500D01*
X198467649Y-48800500D01*
X198672351Y-48800500D01*
X198672352Y-48800500D01*
X198874534Y-48768477D01*
X199069219Y-48705220D01*
X199186326Y-48645551D01*
X200454776Y-48645551D01*
X200570968Y-48704755D01*
X200765582Y-48767990D01*
X200967683Y-48800000D01*
X201172317Y-48800000D01*
X201374417Y-48767990D01*
X201569025Y-48704756D01*
X201685222Y-48645551D01*
X201070001Y-48030330D01*
X201070000Y-48030330D01*
X200454776Y-48645551D01*
X199186326Y-48645551D01*
X199251610Y-48612287D01*
X199403096Y-48502227D01*
X199403098Y-48502226D01*
X199417212Y-48491971D01*
X199417210Y-48491971D01*
X199417219Y-48491966D01*
X199561966Y-48347219D01*
X199561968Y-48347215D01*
X199561971Y-48347213D01*
X199682286Y-48181611D01*
X199709795Y-48127622D01*
X199757769Y-48076826D01*
X199825589Y-48060030D01*
X199891725Y-48082567D01*
X199919317Y-48114410D01*
X199924446Y-48115222D01*
X200539670Y-47500000D01*
X200487009Y-47447339D01*
X200670000Y-47447339D01*
X200670000Y-47552661D01*
X200697259Y-47654394D01*
X200749920Y-47745606D01*
X200824394Y-47820080D01*
X200915606Y-47872741D01*
X201017339Y-47900000D01*
X201122661Y-47900000D01*
X201224394Y-47872741D01*
X201315606Y-47820080D01*
X201390080Y-47745606D01*
X201442741Y-47654394D01*
X201470000Y-47552661D01*
X201470000Y-47499999D01*
X201600330Y-47499999D01*
X201600330Y-47500001D01*
X202215551Y-48115222D01*
X202274756Y-47999025D01*
X202337990Y-47804417D01*
X202370000Y-47602317D01*
X202370000Y-47397682D01*
X202337990Y-47195582D01*
X202274755Y-47000968D01*
X202215551Y-46884776D01*
X201600330Y-47499999D01*
X201470000Y-47499999D01*
X201470000Y-47447339D01*
X201442741Y-47345606D01*
X201390080Y-47254394D01*
X201315606Y-47179920D01*
X201224394Y-47127259D01*
X201122661Y-47100000D01*
X201017339Y-47100000D01*
X200915606Y-47127259D01*
X200824394Y-47179920D01*
X200749920Y-47254394D01*
X200697259Y-47345606D01*
X200670000Y-47447339D01*
X200487009Y-47447339D01*
X199924446Y-46884776D01*
X199918104Y-46885781D01*
X199882788Y-46923174D01*
X199814966Y-46939968D01*
X199748832Y-46917429D01*
X199709794Y-46872376D01*
X199682286Y-46818388D01*
X199561971Y-46652786D01*
X199417219Y-46508034D01*
X199403093Y-46497771D01*
X199403091Y-46497768D01*
X199251613Y-46387715D01*
X199251612Y-46387714D01*
X199251610Y-46387713D01*
X199186320Y-46354446D01*
X200454776Y-46354446D01*
X201070000Y-46969670D01*
X201070001Y-46969670D01*
X201685221Y-46354447D01*
X201569031Y-46295244D01*
X201374417Y-46232009D01*
X201172317Y-46200000D01*
X200967683Y-46200000D01*
X200765582Y-46232009D01*
X200570972Y-46295243D01*
X200570965Y-46295246D01*
X200454776Y-46354446D01*
X199186320Y-46354446D01*
X199069223Y-46294781D01*
X198874534Y-46231522D01*
X198699995Y-46203878D01*
X198672352Y-46199500D01*
X198467648Y-46199500D01*
X198443329Y-46203351D01*
X198265465Y-46231522D01*
X198070776Y-46294781D01*
X197888386Y-46387715D01*
X197722786Y-46508028D01*
X197578028Y-46652786D01*
X197457715Y-46818386D01*
X197364781Y-47000776D01*
X197301522Y-47195465D01*
X197269500Y-47397648D01*
X177246883Y-47397648D01*
X174557946Y-44708711D01*
X178519500Y-44708711D01*
X178519500Y-44951288D01*
X178551161Y-45191785D01*
X178613947Y-45426104D01*
X178706773Y-45650205D01*
X178706777Y-45650214D01*
X178713403Y-45661690D01*
X178828064Y-45860289D01*
X178828066Y-45860292D01*
X178828067Y-45860293D01*
X178975733Y-46052736D01*
X178975739Y-46052743D01*
X179147256Y-46224260D01*
X179147263Y-46224266D01*
X179239764Y-46295244D01*
X179339711Y-46371936D01*
X179549788Y-46493224D01*
X179745269Y-46574195D01*
X179752087Y-46577019D01*
X179773900Y-46586054D01*
X180008211Y-46648838D01*
X180188586Y-46672584D01*
X180248711Y-46680500D01*
X180248712Y-46680500D01*
X180491289Y-46680500D01*
X180539388Y-46674167D01*
X180731789Y-46648838D01*
X180966100Y-46586054D01*
X181190212Y-46493224D01*
X181400289Y-46371936D01*
X181592738Y-46224265D01*
X181764265Y-46052738D01*
X181911936Y-45860289D01*
X182033224Y-45650212D01*
X182126054Y-45426100D01*
X182188838Y-45191789D01*
X182220500Y-44951288D01*
X182220500Y-44708712D01*
X182188838Y-44468211D01*
X182126054Y-44233900D01*
X182033224Y-44009788D01*
X181911936Y-43799711D01*
X181828836Y-43691413D01*
X181764266Y-43607263D01*
X181764260Y-43607256D01*
X181665716Y-43508712D01*
X186919500Y-43508712D01*
X186919500Y-43751288D01*
X186951162Y-43991789D01*
X186963281Y-44037019D01*
X187013947Y-44226104D01*
X187085770Y-44399499D01*
X187106776Y-44450212D01*
X187228064Y-44660289D01*
X187228066Y-44660292D01*
X187228067Y-44660293D01*
X187375733Y-44852736D01*
X187375739Y-44852743D01*
X187547256Y-45024260D01*
X187547262Y-45024265D01*
X187739711Y-45171936D01*
X187949788Y-45293224D01*
X188173900Y-45386054D01*
X188408211Y-45448838D01*
X188588586Y-45472584D01*
X188648711Y-45480500D01*
X188648712Y-45480500D01*
X188891289Y-45480500D01*
X188939388Y-45474167D01*
X189131789Y-45448838D01*
X189366100Y-45386054D01*
X189590212Y-45293224D01*
X189800289Y-45171936D01*
X189992738Y-45024265D01*
X190164265Y-44852738D01*
X190311936Y-44660289D01*
X190433224Y-44450212D01*
X190526054Y-44226100D01*
X190588838Y-43991789D01*
X190620500Y-43751288D01*
X190620500Y-43508712D01*
X190588838Y-43268211D01*
X190526054Y-43033900D01*
X190433224Y-42809788D01*
X190311936Y-42599711D01*
X190164265Y-42407262D01*
X190164260Y-42407256D01*
X189992743Y-42235739D01*
X189992736Y-42235733D01*
X189800293Y-42088067D01*
X189800292Y-42088066D01*
X189800289Y-42088064D01*
X189590212Y-41966776D01*
X189590205Y-41966773D01*
X189366104Y-41873947D01*
X189131785Y-41811161D01*
X188891289Y-41779500D01*
X188891288Y-41779500D01*
X188648712Y-41779500D01*
X188648711Y-41779500D01*
X188408214Y-41811161D01*
X188173895Y-41873947D01*
X187949794Y-41966773D01*
X187949785Y-41966777D01*
X187739706Y-42088067D01*
X187547263Y-42235733D01*
X187547256Y-42235739D01*
X187375739Y-42407256D01*
X187375733Y-42407263D01*
X187228067Y-42599706D01*
X187106777Y-42809785D01*
X187106773Y-42809794D01*
X187013947Y-43033895D01*
X186951161Y-43268214D01*
X186929107Y-43435735D01*
X186919500Y-43508712D01*
X181665716Y-43508712D01*
X181592743Y-43435739D01*
X181592736Y-43435733D01*
X181400293Y-43288067D01*
X181400292Y-43288066D01*
X181400289Y-43288064D01*
X181228661Y-43188974D01*
X181190214Y-43166777D01*
X181190205Y-43166773D01*
X180966104Y-43073947D01*
X180731785Y-43011161D01*
X180491289Y-42979500D01*
X180491288Y-42979500D01*
X180248712Y-42979500D01*
X180248711Y-42979500D01*
X180008214Y-43011161D01*
X179773895Y-43073947D01*
X179549794Y-43166773D01*
X179549785Y-43166777D01*
X179431880Y-43234850D01*
X179349411Y-43282464D01*
X179339706Y-43288067D01*
X179147263Y-43435733D01*
X179147256Y-43435739D01*
X178975739Y-43607256D01*
X178975733Y-43607263D01*
X178828067Y-43799706D01*
X178706777Y-44009785D01*
X178706773Y-44009794D01*
X178613947Y-44233895D01*
X178551161Y-44468214D01*
X178519500Y-44708711D01*
X174557946Y-44708711D01*
X174487590Y-44638355D01*
X174487588Y-44638352D01*
X174368717Y-44519481D01*
X174368709Y-44519475D01*
X174279916Y-44468211D01*
X174279915Y-44468211D01*
X174231785Y-44440423D01*
X174079057Y-44399499D01*
X173920943Y-44399499D01*
X173913347Y-44399499D01*
X173913331Y-44399500D01*
X138426730Y-44399500D01*
X138359691Y-44379815D01*
X138322808Y-44342133D01*
X138322651Y-44342248D01*
X138321872Y-44341176D01*
X138321000Y-44340285D01*
X138319789Y-44338309D01*
X138319786Y-44338305D01*
X138202981Y-44177536D01*
X138062464Y-44037019D01*
X137901694Y-43920213D01*
X137745218Y-43840484D01*
X137694423Y-43792510D01*
X137677628Y-43724689D01*
X137700165Y-43658554D01*
X137745218Y-43619515D01*
X137901694Y-43539787D01*
X138062464Y-43422981D01*
X138202981Y-43282464D01*
X138319787Y-43121694D01*
X138410005Y-42944632D01*
X138471413Y-42755636D01*
X138502500Y-42559361D01*
X138502500Y-42360639D01*
X138471413Y-42164364D01*
X138440709Y-42069866D01*
X138410006Y-41975370D01*
X138410005Y-41975367D01*
X138350967Y-41859500D01*
X138319787Y-41798306D01*
X138202981Y-41637536D01*
X138062464Y-41497019D01*
X137901694Y-41380213D01*
X137745218Y-41300484D01*
X137694423Y-41252510D01*
X137677628Y-41184689D01*
X137700165Y-41118554D01*
X137745218Y-41079515D01*
X137901694Y-40999787D01*
X138062464Y-40882981D01*
X138202981Y-40742464D01*
X138319787Y-40581694D01*
X138410005Y-40404632D01*
X138471413Y-40215636D01*
X138502500Y-40019361D01*
X138502500Y-39820639D01*
X138471413Y-39624364D01*
X138410005Y-39435368D01*
X138410005Y-39435367D01*
X138327673Y-39273784D01*
X138319787Y-39258306D01*
X138202981Y-39097536D01*
X138062464Y-38957019D01*
X137901694Y-38840213D01*
X137745220Y-38760485D01*
X137744667Y-38760203D01*
X137740992Y-38756733D01*
X137736116Y-38755411D01*
X137715847Y-38732983D01*
X137693871Y-38712228D01*
X137692656Y-38707323D01*
X137689268Y-38703574D01*
X137684341Y-38673745D01*
X137677076Y-38644407D01*
X137678705Y-38639624D01*
X137677882Y-38634638D01*
X137689864Y-38606880D01*
X137699614Y-38578272D01*
X137704115Y-38573867D01*
X137705574Y-38570490D01*
X137716488Y-38561763D01*
X137721219Y-38557135D01*
X181444500Y-38557135D01*
X181444500Y-40402870D01*
X181444501Y-40402876D01*
X181450908Y-40462483D01*
X181501202Y-40597328D01*
X181501206Y-40597335D01*
X181587452Y-40712544D01*
X181587455Y-40712547D01*
X181702664Y-40798793D01*
X181702671Y-40798797D01*
X181837517Y-40849091D01*
X181837516Y-40849091D01*
X181844444Y-40849835D01*
X181897127Y-40855500D01*
X183742872Y-40855499D01*
X183802483Y-40849091D01*
X183937331Y-40798796D01*
X184052546Y-40712546D01*
X184138796Y-40597331D01*
X184189091Y-40462483D01*
X184195500Y-40402873D01*
X184195499Y-39371746D01*
X184944500Y-39371746D01*
X184944500Y-39588253D01*
X184978370Y-39802098D01*
X185045272Y-40008006D01*
X185045273Y-40008009D01*
X185121013Y-40156654D01*
X185143567Y-40200919D01*
X185270828Y-40376078D01*
X185423922Y-40529172D01*
X185599081Y-40656433D01*
X185693697Y-40704642D01*
X185791990Y-40754726D01*
X185791993Y-40754727D01*
X185894947Y-40788178D01*
X185997903Y-40821630D01*
X186211746Y-40855500D01*
X186211747Y-40855500D01*
X186428253Y-40855500D01*
X186428254Y-40855500D01*
X186642097Y-40821630D01*
X186848009Y-40754726D01*
X187040919Y-40656433D01*
X187216078Y-40529172D01*
X187369172Y-40376078D01*
X187496433Y-40200919D01*
X187594726Y-40008009D01*
X187661630Y-39802097D01*
X187695500Y-39588254D01*
X187695500Y-39371746D01*
X187661630Y-39157903D01*
X187597795Y-38961437D01*
X187594727Y-38951993D01*
X187594726Y-38951990D01*
X187497005Y-38760204D01*
X187496433Y-38759081D01*
X187369172Y-38583922D01*
X187216078Y-38430828D01*
X187098673Y-38345528D01*
X203749500Y-38345528D01*
X203749500Y-38654471D01*
X203784086Y-38961437D01*
X203784089Y-38961455D01*
X203852831Y-39262635D01*
X203852835Y-39262647D01*
X203954862Y-39554222D01*
X203954868Y-39554236D01*
X204088903Y-39832562D01*
X204088905Y-39832565D01*
X204253265Y-40094143D01*
X204445880Y-40335674D01*
X204664326Y-40554120D01*
X204905857Y-40746735D01*
X205167435Y-40911095D01*
X205445771Y-41045135D01*
X205445777Y-41045137D01*
X205737352Y-41147164D01*
X205737364Y-41147168D01*
X206038548Y-41215911D01*
X206038554Y-41215911D01*
X206038562Y-41215913D01*
X206243206Y-41238970D01*
X206345529Y-41250499D01*
X206345532Y-41250500D01*
X206345535Y-41250500D01*
X206654468Y-41250500D01*
X206654469Y-41250499D01*
X206811356Y-41232822D01*
X206961437Y-41215913D01*
X206961442Y-41215912D01*
X206961452Y-41215911D01*
X207262636Y-41147168D01*
X207554229Y-41045135D01*
X207832565Y-40911095D01*
X208094143Y-40746735D01*
X208335674Y-40554120D01*
X208554120Y-40335674D01*
X208746735Y-40094143D01*
X208911095Y-39832565D01*
X209045135Y-39554229D01*
X209147168Y-39262636D01*
X209215911Y-38961452D01*
X209216411Y-38957021D01*
X209243960Y-38712510D01*
X209250500Y-38654465D01*
X209250500Y-38345535D01*
X209238970Y-38243206D01*
X209215913Y-38038562D01*
X209215910Y-38038544D01*
X209147168Y-37737364D01*
X209147164Y-37737352D01*
X209045137Y-37445777D01*
X209045135Y-37445771D01*
X208911095Y-37167435D01*
X208746735Y-36905857D01*
X208554120Y-36664326D01*
X208335674Y-36445880D01*
X208094143Y-36253265D01*
X207832565Y-36088905D01*
X207832562Y-36088903D01*
X207554236Y-35954868D01*
X207554222Y-35954862D01*
X207262647Y-35852835D01*
X207262635Y-35852831D01*
X206961455Y-35784089D01*
X206961437Y-35784086D01*
X206654471Y-35749500D01*
X206654465Y-35749500D01*
X206345535Y-35749500D01*
X206345528Y-35749500D01*
X206038562Y-35784086D01*
X206038544Y-35784089D01*
X205737364Y-35852831D01*
X205737352Y-35852835D01*
X205445777Y-35954862D01*
X205445763Y-35954868D01*
X205167437Y-36088903D01*
X204905858Y-36253264D01*
X204664326Y-36445879D01*
X204445879Y-36664326D01*
X204253264Y-36905858D01*
X204088903Y-37167437D01*
X203954868Y-37445763D01*
X203954862Y-37445777D01*
X203852835Y-37737352D01*
X203852831Y-37737364D01*
X203784089Y-38038544D01*
X203784086Y-38038562D01*
X203749500Y-38345528D01*
X187098673Y-38345528D01*
X187040919Y-38303567D01*
X186848009Y-38205273D01*
X186848006Y-38205272D01*
X186642098Y-38138370D01*
X186535175Y-38121435D01*
X186428254Y-38104500D01*
X186211746Y-38104500D01*
X186171282Y-38110909D01*
X185997901Y-38138370D01*
X185791993Y-38205272D01*
X185791990Y-38205273D01*
X185599080Y-38303567D01*
X185499145Y-38376174D01*
X185423922Y-38430828D01*
X185423920Y-38430830D01*
X185423919Y-38430830D01*
X185270830Y-38583919D01*
X185270830Y-38583920D01*
X185270828Y-38583922D01*
X185226883Y-38644407D01*
X185143567Y-38759080D01*
X185045273Y-38951990D01*
X185045272Y-38951993D01*
X184978370Y-39157901D01*
X184944500Y-39371746D01*
X184195499Y-39371746D01*
X184195499Y-38557128D01*
X184190299Y-38508757D01*
X184189091Y-38497516D01*
X184138797Y-38362671D01*
X184138793Y-38362664D01*
X184052547Y-38247455D01*
X184052544Y-38247452D01*
X183937335Y-38161206D01*
X183937328Y-38161202D01*
X183802482Y-38110908D01*
X183802483Y-38110908D01*
X183742883Y-38104501D01*
X183742881Y-38104500D01*
X183742873Y-38104500D01*
X183742864Y-38104500D01*
X181897129Y-38104500D01*
X181897123Y-38104501D01*
X181837516Y-38110908D01*
X181702671Y-38161202D01*
X181702664Y-38161206D01*
X181587455Y-38247452D01*
X181587452Y-38247455D01*
X181501206Y-38362664D01*
X181501202Y-38362671D01*
X181450908Y-38497517D01*
X181444501Y-38557116D01*
X181444501Y-38557123D01*
X181444500Y-38557135D01*
X137721219Y-38557135D01*
X137731758Y-38546825D01*
X137818293Y-38488622D01*
X137240001Y-37910330D01*
X137240000Y-37910330D01*
X136653029Y-38497298D01*
X136735331Y-38539234D01*
X136786127Y-38587209D01*
X136802922Y-38655030D01*
X136780384Y-38721165D01*
X136735331Y-38760204D01*
X136578305Y-38840213D01*
X136417533Y-38957021D01*
X136277021Y-39097533D01*
X136160213Y-39258305D01*
X136069994Y-39435367D01*
X136069993Y-39435370D01*
X136008587Y-39624362D01*
X135977500Y-39820639D01*
X135977500Y-40019360D01*
X136008587Y-40215637D01*
X136069993Y-40404629D01*
X136069994Y-40404632D01*
X136146163Y-40554120D01*
X136160213Y-40581694D01*
X136277019Y-40742464D01*
X136417536Y-40882981D01*
X136578306Y-40999787D01*
X136667298Y-41045131D01*
X136734780Y-41079515D01*
X136785576Y-41127490D01*
X136802371Y-41195311D01*
X136779833Y-41261446D01*
X136734780Y-41300485D01*
X136578305Y-41380213D01*
X136417533Y-41497021D01*
X136277021Y-41637533D01*
X136160213Y-41798305D01*
X136158996Y-41800292D01*
X136158336Y-41800888D01*
X136157349Y-41802248D01*
X136157063Y-41802040D01*
X136107182Y-41847166D01*
X136053270Y-41859499D01*
X135960943Y-41859499D01*
X135907024Y-41873947D01*
X135808214Y-41900423D01*
X135808209Y-41900426D01*
X135671290Y-41979475D01*
X135671282Y-41979481D01*
X134619481Y-43031282D01*
X134619477Y-43031287D01*
X134573117Y-43111587D01*
X134573117Y-43111588D01*
X134540423Y-43168214D01*
X134540423Y-43168215D01*
X134499499Y-43320943D01*
X134499499Y-43320945D01*
X134499499Y-43489046D01*
X134499500Y-43489059D01*
X134499500Y-49599902D01*
X134479815Y-49666941D01*
X134463181Y-49687583D01*
X126403151Y-57747612D01*
X126341828Y-57781097D01*
X126277152Y-57777862D01*
X126134536Y-57731523D01*
X125999746Y-57710174D01*
X125932352Y-57699500D01*
X125727648Y-57699500D01*
X125711201Y-57702105D01*
X125525465Y-57731522D01*
X125330776Y-57794781D01*
X125148386Y-57887715D01*
X124982786Y-58008028D01*
X124838028Y-58152786D01*
X124717715Y-58318386D01*
X124624781Y-58500776D01*
X124561522Y-58695465D01*
X124529500Y-58897648D01*
X124100500Y-58897648D01*
X124100500Y-48960944D01*
X124100500Y-48960943D01*
X124059577Y-48808216D01*
X124030863Y-48758481D01*
X123980524Y-48671290D01*
X123980521Y-48671286D01*
X123980520Y-48671284D01*
X123868716Y-48559480D01*
X123868715Y-48559479D01*
X123864385Y-48555149D01*
X123864374Y-48555139D01*
X123263762Y-47954527D01*
X123230277Y-47893204D01*
X123230843Y-47840478D01*
X123230651Y-47840448D01*
X123230857Y-47839143D01*
X123230871Y-47837891D01*
X123231409Y-47835646D01*
X123231413Y-47835636D01*
X123262500Y-47639361D01*
X123262500Y-47440639D01*
X123260303Y-47426770D01*
X123269256Y-47357482D01*
X123314251Y-47304028D01*
X123381002Y-47283387D01*
X123448316Y-47302110D01*
X123470457Y-47319693D01*
X124363181Y-48212416D01*
X124396666Y-48273739D01*
X124399500Y-48300097D01*
X124399500Y-52913330D01*
X124399499Y-52913348D01*
X124399499Y-53079054D01*
X124399498Y-53079054D01*
X124440423Y-53231785D01*
X124469358Y-53281900D01*
X124469359Y-53281904D01*
X124469360Y-53281904D01*
X124519479Y-53368714D01*
X124519481Y-53368717D01*
X124638349Y-53487585D01*
X124638355Y-53487590D01*
X126365425Y-55214660D01*
X126398910Y-55275983D01*
X126399361Y-55278149D01*
X126430261Y-55433491D01*
X126430264Y-55433501D01*
X126490602Y-55579172D01*
X126490609Y-55579185D01*
X126578210Y-55710288D01*
X126578213Y-55710292D01*
X126689707Y-55821786D01*
X126689711Y-55821789D01*
X126820814Y-55909390D01*
X126820827Y-55909397D01*
X126933010Y-55955864D01*
X126966503Y-55969737D01*
X127121153Y-56000499D01*
X127121156Y-56000500D01*
X127121158Y-56000500D01*
X127278844Y-56000500D01*
X127278845Y-56000499D01*
X127433497Y-55969737D01*
X127579179Y-55909394D01*
X127710289Y-55821789D01*
X127821789Y-55710289D01*
X127909394Y-55579179D01*
X127969737Y-55433497D01*
X128000500Y-55278842D01*
X128000500Y-55121158D01*
X128000500Y-55121155D01*
X128000499Y-55121153D01*
X127969738Y-54966510D01*
X127969737Y-54966503D01*
X127969735Y-54966498D01*
X127909397Y-54820827D01*
X127909390Y-54820814D01*
X127821789Y-54689711D01*
X127821786Y-54689707D01*
X127710292Y-54578213D01*
X127710288Y-54578210D01*
X127579185Y-54490609D01*
X127579172Y-54490602D01*
X127433501Y-54430264D01*
X127433491Y-54430261D01*
X127278149Y-54399361D01*
X127216238Y-54366976D01*
X127214660Y-54365425D01*
X126170388Y-53321153D01*
X128399500Y-53321153D01*
X128399500Y-53478846D01*
X128430261Y-53633489D01*
X128430264Y-53633501D01*
X128490602Y-53779172D01*
X128490609Y-53779185D01*
X128578210Y-53910288D01*
X128578213Y-53910292D01*
X128689707Y-54021786D01*
X128689711Y-54021789D01*
X128820814Y-54109390D01*
X128820827Y-54109397D01*
X128910075Y-54146364D01*
X128966503Y-54169737D01*
X129121153Y-54200499D01*
X129121156Y-54200500D01*
X129121158Y-54200500D01*
X129278844Y-54200500D01*
X129278845Y-54200499D01*
X129433497Y-54169737D01*
X129579179Y-54109394D01*
X129710289Y-54021789D01*
X129821789Y-53910289D01*
X129909394Y-53779179D01*
X129969193Y-53634809D01*
X129996070Y-53594584D01*
X134044113Y-49546543D01*
X134050011Y-49537715D01*
X134061566Y-49520424D01*
X134061566Y-49520423D01*
X134088910Y-49479500D01*
X134120775Y-49431811D01*
X134173580Y-49304328D01*
X134174541Y-49299500D01*
X134180763Y-49268215D01*
X134200500Y-49168993D01*
X134200500Y-37341519D01*
X134209144Y-37312078D01*
X134215668Y-37282092D01*
X134216726Y-37280678D01*
X135978000Y-37280678D01*
X135978000Y-37479321D01*
X136009075Y-37675520D01*
X136009075Y-37675523D01*
X136070457Y-37864437D01*
X136122700Y-37966968D01*
X136709670Y-37380000D01*
X136709670Y-37379999D01*
X136651151Y-37321480D01*
X136795500Y-37321480D01*
X136795500Y-37438520D01*
X136825792Y-37551571D01*
X136884311Y-37652930D01*
X136967070Y-37735689D01*
X137068429Y-37794208D01*
X137181480Y-37824500D01*
X137298520Y-37824500D01*
X137411571Y-37794208D01*
X137512930Y-37735689D01*
X137595689Y-37652930D01*
X137654208Y-37551571D01*
X137684500Y-37438520D01*
X137684500Y-37379999D01*
X137770330Y-37379999D01*
X137770330Y-37380001D01*
X138357298Y-37966969D01*
X138409540Y-37864438D01*
X138470925Y-37675519D01*
X138502000Y-37479321D01*
X138502000Y-37280678D01*
X138470925Y-37084480D01*
X138409539Y-36895555D01*
X138357298Y-36793029D01*
X137770330Y-37379999D01*
X137684500Y-37379999D01*
X137684500Y-37321480D01*
X137654208Y-37208429D01*
X137595689Y-37107070D01*
X137512930Y-37024311D01*
X137411571Y-36965792D01*
X137298520Y-36935500D01*
X137181480Y-36935500D01*
X137068429Y-36965792D01*
X136967070Y-37024311D01*
X136884311Y-37107070D01*
X136825792Y-37208429D01*
X136795500Y-37321480D01*
X136651151Y-37321480D01*
X136122699Y-36793029D01*
X136070458Y-36895560D01*
X136070458Y-36895561D01*
X136009075Y-37084476D01*
X136009075Y-37084479D01*
X135978000Y-37280678D01*
X134216726Y-37280678D01*
X134219422Y-37277076D01*
X134220185Y-37274480D01*
X134236819Y-37253838D01*
X135913838Y-35576819D01*
X135940765Y-35562115D01*
X135966584Y-35545523D01*
X135972784Y-35544631D01*
X135975161Y-35543334D01*
X136001519Y-35540500D01*
X136125226Y-35540500D01*
X136192265Y-35560185D01*
X136225542Y-35591612D01*
X136277019Y-35662464D01*
X136417536Y-35802981D01*
X136578306Y-35919787D01*
X136647144Y-35954862D01*
X136735331Y-35999796D01*
X136786127Y-36047771D01*
X136802922Y-36115592D01*
X136780384Y-36181727D01*
X136735330Y-36220766D01*
X136653029Y-36262699D01*
X137240000Y-36849670D01*
X137240001Y-36849670D01*
X137826969Y-36262700D01*
X137744668Y-36220765D01*
X137693872Y-36172790D01*
X137677077Y-36104969D01*
X137699615Y-36038834D01*
X137744667Y-35999796D01*
X137901694Y-35919787D01*
X138062464Y-35802981D01*
X138202981Y-35662464D01*
X138319787Y-35501694D01*
X138410005Y-35324632D01*
X138471413Y-35135636D01*
X138502500Y-34939361D01*
X138502500Y-34740639D01*
X138471413Y-34544364D01*
X138410005Y-34355368D01*
X138410005Y-34355367D01*
X138360247Y-34257713D01*
X138319787Y-34178306D01*
X138202981Y-34017536D01*
X138062464Y-33877019D01*
X137901694Y-33760213D01*
X137835908Y-33726693D01*
X137724632Y-33669994D01*
X137724629Y-33669993D01*
X137535637Y-33608587D01*
X137437498Y-33593043D01*
X137339361Y-33577500D01*
X137140639Y-33577500D01*
X137075214Y-33587862D01*
X136944362Y-33608587D01*
X136755370Y-33669993D01*
X136755367Y-33669994D01*
X136578305Y-33760213D01*
X136417533Y-33877021D01*
X136277021Y-34017533D01*
X136277019Y-34017536D01*
X136225542Y-34088386D01*
X136170214Y-34131051D01*
X136125226Y-34139500D01*
X135591003Y-34139500D01*
X135482590Y-34161065D01*
X135482589Y-34161065D01*
X135469131Y-34163742D01*
X135455673Y-34166419D01*
X135455671Y-34166420D01*
X135426978Y-34178305D01*
X135418330Y-34181887D01*
X135328192Y-34219223D01*
X135270588Y-34257713D01*
X135213454Y-34295887D01*
X132955889Y-36553452D01*
X132955886Y-36553457D01*
X132953163Y-36557533D01*
X132953161Y-36557536D01*
X132879228Y-36668182D01*
X132879221Y-36668195D01*
X132826421Y-36795667D01*
X132826418Y-36795677D01*
X132799500Y-36931004D01*
X132799500Y-48758481D01*
X132779815Y-48825520D01*
X132763181Y-48846162D01*
X129005414Y-52603928D01*
X128965186Y-52630808D01*
X128820823Y-52690604D01*
X128820814Y-52690609D01*
X128689711Y-52778210D01*
X128689707Y-52778213D01*
X128578213Y-52889707D01*
X128578210Y-52889711D01*
X128490609Y-53020814D01*
X128490602Y-53020827D01*
X128430264Y-53166498D01*
X128430261Y-53166510D01*
X128399500Y-53321153D01*
X126170388Y-53321153D01*
X125636819Y-52787584D01*
X125603334Y-52726261D01*
X125600500Y-52699903D01*
X125600500Y-48089060D01*
X125600501Y-48089047D01*
X125600501Y-47920944D01*
X125578582Y-47839143D01*
X125559577Y-47768216D01*
X125546523Y-47745606D01*
X125480524Y-47631290D01*
X125480518Y-47631282D01*
X124426255Y-46577019D01*
X123263761Y-45414526D01*
X123230277Y-45353204D01*
X123230843Y-45300478D01*
X123230651Y-45300448D01*
X123230857Y-45299143D01*
X123230871Y-45297891D01*
X123231409Y-45295646D01*
X123231413Y-45295636D01*
X123262500Y-45099361D01*
X123262500Y-44900639D01*
X123231413Y-44704364D01*
X123200709Y-44609866D01*
X123170006Y-44515370D01*
X123170005Y-44515367D01*
X123110967Y-44399500D01*
X123079787Y-44338306D01*
X122962981Y-44177536D01*
X122822464Y-44037019D01*
X122661694Y-43920213D01*
X122505218Y-43840484D01*
X122454423Y-43792510D01*
X122437628Y-43724689D01*
X122460165Y-43658554D01*
X122505218Y-43619515D01*
X122661694Y-43539787D01*
X122822464Y-43422981D01*
X122962981Y-43282464D01*
X123079787Y-43121694D01*
X123170005Y-42944632D01*
X123231413Y-42755636D01*
X123262500Y-42559361D01*
X123262500Y-42360639D01*
X123231413Y-42164364D01*
X123200709Y-42069866D01*
X123170006Y-41975370D01*
X123170005Y-41975367D01*
X123110967Y-41859500D01*
X123079787Y-41798306D01*
X122962981Y-41637536D01*
X122822464Y-41497019D01*
X122661694Y-41380213D01*
X122505218Y-41300484D01*
X122454423Y-41252510D01*
X122437628Y-41184689D01*
X122460165Y-41118554D01*
X122505218Y-41079515D01*
X122661694Y-40999787D01*
X122822464Y-40882981D01*
X122962981Y-40742464D01*
X123079787Y-40581694D01*
X123170005Y-40404632D01*
X123231413Y-40215636D01*
X123262500Y-40019361D01*
X123262500Y-39820639D01*
X123231413Y-39624364D01*
X123170005Y-39435368D01*
X123170005Y-39435367D01*
X123087673Y-39273784D01*
X123079787Y-39258306D01*
X122962981Y-39097536D01*
X122822464Y-38957019D01*
X122661694Y-38840213D01*
X122505218Y-38760484D01*
X122454423Y-38712510D01*
X122437628Y-38644689D01*
X122460165Y-38578554D01*
X122505218Y-38539515D01*
X122661694Y-38459787D01*
X122822464Y-38342981D01*
X122962981Y-38202464D01*
X123079787Y-38041694D01*
X123170005Y-37864632D01*
X123231413Y-37675636D01*
X123262500Y-37479361D01*
X123262500Y-37280639D01*
X123231413Y-37084364D01*
X123181557Y-36930921D01*
X123170006Y-36895370D01*
X123170005Y-36895367D01*
X123079786Y-36718305D01*
X123043379Y-36668195D01*
X122962981Y-36557536D01*
X122822464Y-36417019D01*
X122661694Y-36300213D01*
X122505218Y-36220484D01*
X122454423Y-36172510D01*
X122437628Y-36104689D01*
X122460165Y-36038554D01*
X122505218Y-35999515D01*
X122661694Y-35919787D01*
X122822464Y-35802981D01*
X122962981Y-35662464D01*
X123079787Y-35501694D01*
X123170005Y-35324632D01*
X123231413Y-35135636D01*
X123262500Y-34939361D01*
X123262500Y-34740639D01*
X123231413Y-34544364D01*
X123170005Y-34355368D01*
X123170005Y-34355367D01*
X123120247Y-34257713D01*
X123079787Y-34178306D01*
X122962981Y-34017536D01*
X122822464Y-33877019D01*
X122661694Y-33760213D01*
X122595908Y-33726693D01*
X122484632Y-33669994D01*
X122484629Y-33669993D01*
X122295637Y-33608587D01*
X122197498Y-33593043D01*
X122099361Y-33577500D01*
X121900639Y-33577500D01*
X121835214Y-33587862D01*
X121704362Y-33608587D01*
X121515370Y-33669993D01*
X121515367Y-33669994D01*
X121338305Y-33760213D01*
X121177533Y-33877021D01*
X121037021Y-34017533D01*
X120920213Y-34178305D01*
X120829994Y-34355367D01*
X120829993Y-34355370D01*
X120768587Y-34544362D01*
X120737500Y-34740639D01*
X108329939Y-34740639D01*
X108434944Y-34607440D01*
X108441235Y-34600074D01*
X108754424Y-34261270D01*
X108761270Y-34254424D01*
X109100074Y-33941235D01*
X109107453Y-33934934D01*
X109469758Y-33649317D01*
X109477617Y-33643606D01*
X109861243Y-33387275D01*
X109869485Y-33382224D01*
X110272057Y-33156772D01*
X110280685Y-33152376D01*
X110699673Y-32959221D01*
X110708651Y-32955502D01*
X111141489Y-32795819D01*
X111150742Y-32792814D01*
X111594765Y-32667587D01*
X111604218Y-32665317D01*
X112056703Y-32575312D01*
X112066299Y-32573792D01*
X112524466Y-32519564D01*
X112534132Y-32518803D01*
X112997557Y-32500596D01*
X113002425Y-32500500D01*
X113065892Y-32500500D01*
X206434108Y-32500500D01*
X206497575Y-32500500D01*
X206502443Y-32500596D01*
G37*
%TD.AperFunction*%
%TD*%
M02*
