%TF.GenerationSoftware,KiCad,Pcbnew,9.0.2-9.0.2-0~ubuntu24.04.1*%
%TF.CreationDate,2025-07-25T21:32:28+01:00*%
%TF.ProjectId,PCB,5043422e-6b69-4636-9164-5f7063625858,rev?*%
%TF.SameCoordinates,Original*%
%TF.FileFunction,Legend,Top*%
%TF.FilePolarity,Positive*%
%FSLAX46Y46*%
G04 Gerber Fmt 4.6, Leading zero omitted, Abs format (unit mm)*
G04 Created by KiCad (PCBNEW 9.0.2-9.0.2-0~ubuntu24.04.1) date 2025-07-25 21:32:28*
%MOMM*%
%LPD*%
G01*
G04 APERTURE LIST*
%ADD10C,0.100000*%
%ADD11C,0.500000*%
%ADD12C,0.080000*%
%ADD13C,0.150000*%
%ADD14C,0.101600*%
%ADD15C,0.120000*%
%ADD16C,0.152400*%
%ADD17C,0.127000*%
%ADD18C,0.504000*%
G04 APERTURE END LIST*
D10*
X52400000Y-74800000D02*
X53000000Y-72600000D01*
X53400000Y-75800000D02*
X53000000Y-76400000D01*
X53000000Y-72600000D02*
X53600000Y-72600000D01*
X53000000Y-75800000D02*
X53400000Y-74400000D01*
D11*
X53000000Y-70600000D02*
X56800000Y-77200000D01*
D10*
X53000000Y-76400000D02*
X52800000Y-75800000D01*
X53800000Y-73800000D02*
X53200000Y-75800000D01*
X53400000Y-74400000D02*
X52400000Y-74800000D01*
X52400000Y-74800000D02*
X53000000Y-72600000D01*
X52800000Y-74200000D02*
X53800000Y-73800000D01*
X53800000Y-73800000D02*
X53200000Y-75800000D01*
X52800000Y-74200000D02*
X53800000Y-73800000D01*
X53600000Y-72600000D02*
X52800000Y-74200000D01*
X53000000Y-76400000D02*
X52800000Y-75800000D01*
X53000000Y-72600000D02*
X53600000Y-72600000D01*
X52800000Y-75800000D02*
X53000000Y-75800000D01*
X52800000Y-75800000D02*
X53000000Y-75800000D01*
X53600000Y-72600000D02*
X52800000Y-74200000D01*
X53200000Y-75800000D02*
X53400000Y-75800000D01*
X52800000Y-74200000D02*
X53800000Y-73800000D01*
X53200000Y-75800000D01*
X53400000Y-75800000D01*
X53000000Y-76400000D01*
X52800000Y-75800000D01*
X53000000Y-75800000D01*
X53400000Y-74400000D01*
X52400000Y-74800000D01*
X53000000Y-72600000D01*
X53600000Y-72600000D01*
X52800000Y-74200000D01*
G36*
X52800000Y-74200000D02*
G01*
X53800000Y-73800000D01*
X53200000Y-75800000D01*
X53400000Y-75800000D01*
X53000000Y-76400000D01*
X52800000Y-75800000D01*
X53000000Y-75800000D01*
X53400000Y-74400000D01*
X52400000Y-74800000D01*
X53000000Y-72600000D01*
X53600000Y-72600000D01*
X52800000Y-74200000D01*
G37*
X53400000Y-74400000D02*
X52400000Y-74800000D01*
X53400000Y-75800000D02*
X53000000Y-76400000D01*
D11*
X56800000Y-77200000D02*
X49200000Y-77200000D01*
D10*
X53000000Y-75800000D02*
X53400000Y-74400000D01*
X53200000Y-75800000D02*
X53400000Y-75800000D01*
D11*
X49200000Y-77200000D02*
X53000000Y-70600000D01*
D12*
X41671678Y-93101316D02*
X41671678Y-93434649D01*
X41671678Y-93148935D02*
X41695488Y-93125125D01*
X41695488Y-93125125D02*
X41743107Y-93101316D01*
X41743107Y-93101316D02*
X41814535Y-93101316D01*
X41814535Y-93101316D02*
X41862154Y-93125125D01*
X41862154Y-93125125D02*
X41885964Y-93172744D01*
X41885964Y-93172744D02*
X41885964Y-93434649D01*
X42195488Y-93434649D02*
X42147869Y-93410840D01*
X42147869Y-93410840D02*
X42124059Y-93387030D01*
X42124059Y-93387030D02*
X42100250Y-93339411D01*
X42100250Y-93339411D02*
X42100250Y-93196554D01*
X42100250Y-93196554D02*
X42124059Y-93148935D01*
X42124059Y-93148935D02*
X42147869Y-93125125D01*
X42147869Y-93125125D02*
X42195488Y-93101316D01*
X42195488Y-93101316D02*
X42266916Y-93101316D01*
X42266916Y-93101316D02*
X42314535Y-93125125D01*
X42314535Y-93125125D02*
X42338345Y-93148935D01*
X42338345Y-93148935D02*
X42362154Y-93196554D01*
X42362154Y-93196554D02*
X42362154Y-93339411D01*
X42362154Y-93339411D02*
X42338345Y-93387030D01*
X42338345Y-93387030D02*
X42314535Y-93410840D01*
X42314535Y-93410840D02*
X42266916Y-93434649D01*
X42266916Y-93434649D02*
X42195488Y-93434649D01*
X42933583Y-93410840D02*
X42981202Y-93434649D01*
X42981202Y-93434649D02*
X43076440Y-93434649D01*
X43076440Y-93434649D02*
X43124059Y-93410840D01*
X43124059Y-93410840D02*
X43147868Y-93363220D01*
X43147868Y-93363220D02*
X43147868Y-93339411D01*
X43147868Y-93339411D02*
X43124059Y-93291792D01*
X43124059Y-93291792D02*
X43076440Y-93267982D01*
X43076440Y-93267982D02*
X43005011Y-93267982D01*
X43005011Y-93267982D02*
X42957392Y-93244173D01*
X42957392Y-93244173D02*
X42933583Y-93196554D01*
X42933583Y-93196554D02*
X42933583Y-93172744D01*
X42933583Y-93172744D02*
X42957392Y-93125125D01*
X42957392Y-93125125D02*
X43005011Y-93101316D01*
X43005011Y-93101316D02*
X43076440Y-93101316D01*
X43076440Y-93101316D02*
X43124059Y-93125125D01*
X43576440Y-93410840D02*
X43528821Y-93434649D01*
X43528821Y-93434649D02*
X43433583Y-93434649D01*
X43433583Y-93434649D02*
X43385964Y-93410840D01*
X43385964Y-93410840D02*
X43362154Y-93387030D01*
X43362154Y-93387030D02*
X43338345Y-93339411D01*
X43338345Y-93339411D02*
X43338345Y-93196554D01*
X43338345Y-93196554D02*
X43362154Y-93148935D01*
X43362154Y-93148935D02*
X43385964Y-93125125D01*
X43385964Y-93125125D02*
X43433583Y-93101316D01*
X43433583Y-93101316D02*
X43528821Y-93101316D01*
X43528821Y-93101316D02*
X43576440Y-93125125D01*
X43790725Y-93434649D02*
X43790725Y-93101316D01*
X43790725Y-93196554D02*
X43814535Y-93148935D01*
X43814535Y-93148935D02*
X43838344Y-93125125D01*
X43838344Y-93125125D02*
X43885963Y-93101316D01*
X43885963Y-93101316D02*
X43933582Y-93101316D01*
X44290725Y-93410840D02*
X44243106Y-93434649D01*
X44243106Y-93434649D02*
X44147868Y-93434649D01*
X44147868Y-93434649D02*
X44100249Y-93410840D01*
X44100249Y-93410840D02*
X44076440Y-93363220D01*
X44076440Y-93363220D02*
X44076440Y-93172744D01*
X44076440Y-93172744D02*
X44100249Y-93125125D01*
X44100249Y-93125125D02*
X44147868Y-93101316D01*
X44147868Y-93101316D02*
X44243106Y-93101316D01*
X44243106Y-93101316D02*
X44290725Y-93125125D01*
X44290725Y-93125125D02*
X44314535Y-93172744D01*
X44314535Y-93172744D02*
X44314535Y-93220363D01*
X44314535Y-93220363D02*
X44076440Y-93267982D01*
X44481201Y-93101316D02*
X44576439Y-93434649D01*
X44576439Y-93434649D02*
X44671677Y-93196554D01*
X44671677Y-93196554D02*
X44766915Y-93434649D01*
X44766915Y-93434649D02*
X44862153Y-93101316D01*
X45028821Y-93410840D02*
X45076440Y-93434649D01*
X45076440Y-93434649D02*
X45171678Y-93434649D01*
X45171678Y-93434649D02*
X45219297Y-93410840D01*
X45219297Y-93410840D02*
X45243106Y-93363220D01*
X45243106Y-93363220D02*
X45243106Y-93339411D01*
X45243106Y-93339411D02*
X45219297Y-93291792D01*
X45219297Y-93291792D02*
X45171678Y-93267982D01*
X45171678Y-93267982D02*
X45100249Y-93267982D01*
X45100249Y-93267982D02*
X45052630Y-93244173D01*
X45052630Y-93244173D02*
X45028821Y-93196554D01*
X45028821Y-93196554D02*
X45028821Y-93172744D01*
X45028821Y-93172744D02*
X45052630Y-93125125D01*
X45052630Y-93125125D02*
X45100249Y-93101316D01*
X45100249Y-93101316D02*
X45171678Y-93101316D01*
X45171678Y-93101316D02*
X45219297Y-93125125D01*
X45838344Y-93434649D02*
X45838344Y-92934649D01*
X46052630Y-93434649D02*
X46052630Y-93172744D01*
X46052630Y-93172744D02*
X46028820Y-93125125D01*
X46028820Y-93125125D02*
X45981201Y-93101316D01*
X45981201Y-93101316D02*
X45909773Y-93101316D01*
X45909773Y-93101316D02*
X45862154Y-93125125D01*
X45862154Y-93125125D02*
X45838344Y-93148935D01*
X46481201Y-93410840D02*
X46433582Y-93434649D01*
X46433582Y-93434649D02*
X46338344Y-93434649D01*
X46338344Y-93434649D02*
X46290725Y-93410840D01*
X46290725Y-93410840D02*
X46266916Y-93363220D01*
X46266916Y-93363220D02*
X46266916Y-93172744D01*
X46266916Y-93172744D02*
X46290725Y-93125125D01*
X46290725Y-93125125D02*
X46338344Y-93101316D01*
X46338344Y-93101316D02*
X46433582Y-93101316D01*
X46433582Y-93101316D02*
X46481201Y-93125125D01*
X46481201Y-93125125D02*
X46505011Y-93172744D01*
X46505011Y-93172744D02*
X46505011Y-93220363D01*
X46505011Y-93220363D02*
X46266916Y-93267982D01*
X46719296Y-93434649D02*
X46719296Y-93101316D01*
X46719296Y-93196554D02*
X46743106Y-93148935D01*
X46743106Y-93148935D02*
X46766915Y-93125125D01*
X46766915Y-93125125D02*
X46814534Y-93101316D01*
X46814534Y-93101316D02*
X46862153Y-93101316D01*
X47219296Y-93410840D02*
X47171677Y-93434649D01*
X47171677Y-93434649D02*
X47076439Y-93434649D01*
X47076439Y-93434649D02*
X47028820Y-93410840D01*
X47028820Y-93410840D02*
X47005011Y-93363220D01*
X47005011Y-93363220D02*
X47005011Y-93172744D01*
X47005011Y-93172744D02*
X47028820Y-93125125D01*
X47028820Y-93125125D02*
X47076439Y-93101316D01*
X47076439Y-93101316D02*
X47171677Y-93101316D01*
X47171677Y-93101316D02*
X47219296Y-93125125D01*
X47219296Y-93125125D02*
X47243106Y-93172744D01*
X47243106Y-93172744D02*
X47243106Y-93220363D01*
X47243106Y-93220363D02*
X47005011Y-93267982D01*
X47838343Y-93434649D02*
X47838343Y-92934649D01*
X47838343Y-93125125D02*
X47885962Y-93101316D01*
X47885962Y-93101316D02*
X47981200Y-93101316D01*
X47981200Y-93101316D02*
X48028819Y-93125125D01*
X48028819Y-93125125D02*
X48052629Y-93148935D01*
X48052629Y-93148935D02*
X48076438Y-93196554D01*
X48076438Y-93196554D02*
X48076438Y-93339411D01*
X48076438Y-93339411D02*
X48052629Y-93387030D01*
X48052629Y-93387030D02*
X48028819Y-93410840D01*
X48028819Y-93410840D02*
X47981200Y-93434649D01*
X47981200Y-93434649D02*
X47885962Y-93434649D01*
X47885962Y-93434649D02*
X47838343Y-93410840D01*
X48481200Y-93410840D02*
X48433581Y-93434649D01*
X48433581Y-93434649D02*
X48338343Y-93434649D01*
X48338343Y-93434649D02*
X48290724Y-93410840D01*
X48290724Y-93410840D02*
X48266915Y-93363220D01*
X48266915Y-93363220D02*
X48266915Y-93172744D01*
X48266915Y-93172744D02*
X48290724Y-93125125D01*
X48290724Y-93125125D02*
X48338343Y-93101316D01*
X48338343Y-93101316D02*
X48433581Y-93101316D01*
X48433581Y-93101316D02*
X48481200Y-93125125D01*
X48481200Y-93125125D02*
X48505010Y-93172744D01*
X48505010Y-93172744D02*
X48505010Y-93220363D01*
X48505010Y-93220363D02*
X48266915Y-93267982D01*
X48933581Y-93410840D02*
X48885962Y-93434649D01*
X48885962Y-93434649D02*
X48790724Y-93434649D01*
X48790724Y-93434649D02*
X48743105Y-93410840D01*
X48743105Y-93410840D02*
X48719295Y-93387030D01*
X48719295Y-93387030D02*
X48695486Y-93339411D01*
X48695486Y-93339411D02*
X48695486Y-93196554D01*
X48695486Y-93196554D02*
X48719295Y-93148935D01*
X48719295Y-93148935D02*
X48743105Y-93125125D01*
X48743105Y-93125125D02*
X48790724Y-93101316D01*
X48790724Y-93101316D02*
X48885962Y-93101316D01*
X48885962Y-93101316D02*
X48933581Y-93125125D01*
X49362152Y-93434649D02*
X49362152Y-93172744D01*
X49362152Y-93172744D02*
X49338342Y-93125125D01*
X49338342Y-93125125D02*
X49290723Y-93101316D01*
X49290723Y-93101316D02*
X49195485Y-93101316D01*
X49195485Y-93101316D02*
X49147866Y-93125125D01*
X49362152Y-93410840D02*
X49314533Y-93434649D01*
X49314533Y-93434649D02*
X49195485Y-93434649D01*
X49195485Y-93434649D02*
X49147866Y-93410840D01*
X49147866Y-93410840D02*
X49124057Y-93363220D01*
X49124057Y-93363220D02*
X49124057Y-93315601D01*
X49124057Y-93315601D02*
X49147866Y-93267982D01*
X49147866Y-93267982D02*
X49195485Y-93244173D01*
X49195485Y-93244173D02*
X49314533Y-93244173D01*
X49314533Y-93244173D02*
X49362152Y-93220363D01*
X49814533Y-93101316D02*
X49814533Y-93434649D01*
X49600247Y-93101316D02*
X49600247Y-93363220D01*
X49600247Y-93363220D02*
X49624057Y-93410840D01*
X49624057Y-93410840D02*
X49671676Y-93434649D01*
X49671676Y-93434649D02*
X49743104Y-93434649D01*
X49743104Y-93434649D02*
X49790723Y-93410840D01*
X49790723Y-93410840D02*
X49814533Y-93387030D01*
X50028819Y-93410840D02*
X50076438Y-93434649D01*
X50076438Y-93434649D02*
X50171676Y-93434649D01*
X50171676Y-93434649D02*
X50219295Y-93410840D01*
X50219295Y-93410840D02*
X50243104Y-93363220D01*
X50243104Y-93363220D02*
X50243104Y-93339411D01*
X50243104Y-93339411D02*
X50219295Y-93291792D01*
X50219295Y-93291792D02*
X50171676Y-93267982D01*
X50171676Y-93267982D02*
X50100247Y-93267982D01*
X50100247Y-93267982D02*
X50052628Y-93244173D01*
X50052628Y-93244173D02*
X50028819Y-93196554D01*
X50028819Y-93196554D02*
X50028819Y-93172744D01*
X50028819Y-93172744D02*
X50052628Y-93125125D01*
X50052628Y-93125125D02*
X50100247Y-93101316D01*
X50100247Y-93101316D02*
X50171676Y-93101316D01*
X50171676Y-93101316D02*
X50219295Y-93125125D01*
X50647866Y-93410840D02*
X50600247Y-93434649D01*
X50600247Y-93434649D02*
X50505009Y-93434649D01*
X50505009Y-93434649D02*
X50457390Y-93410840D01*
X50457390Y-93410840D02*
X50433581Y-93363220D01*
X50433581Y-93363220D02*
X50433581Y-93172744D01*
X50433581Y-93172744D02*
X50457390Y-93125125D01*
X50457390Y-93125125D02*
X50505009Y-93101316D01*
X50505009Y-93101316D02*
X50600247Y-93101316D01*
X50600247Y-93101316D02*
X50647866Y-93125125D01*
X50647866Y-93125125D02*
X50671676Y-93172744D01*
X50671676Y-93172744D02*
X50671676Y-93220363D01*
X50671676Y-93220363D02*
X50433581Y-93267982D01*
X51266913Y-93434649D02*
X51266913Y-93101316D01*
X51266913Y-92934649D02*
X51243104Y-92958459D01*
X51243104Y-92958459D02*
X51266913Y-92982268D01*
X51266913Y-92982268D02*
X51290723Y-92958459D01*
X51290723Y-92958459D02*
X51266913Y-92934649D01*
X51266913Y-92934649D02*
X51266913Y-92982268D01*
X51433580Y-93101316D02*
X51624056Y-93101316D01*
X51505008Y-92934649D02*
X51505008Y-93363220D01*
X51505008Y-93363220D02*
X51528818Y-93410840D01*
X51528818Y-93410840D02*
X51576437Y-93434649D01*
X51576437Y-93434649D02*
X51624056Y-93434649D01*
X51814532Y-92934649D02*
X51766913Y-93029887D01*
X52005008Y-93410840D02*
X52052627Y-93434649D01*
X52052627Y-93434649D02*
X52147865Y-93434649D01*
X52147865Y-93434649D02*
X52195484Y-93410840D01*
X52195484Y-93410840D02*
X52219293Y-93363220D01*
X52219293Y-93363220D02*
X52219293Y-93339411D01*
X52219293Y-93339411D02*
X52195484Y-93291792D01*
X52195484Y-93291792D02*
X52147865Y-93267982D01*
X52147865Y-93267982D02*
X52076436Y-93267982D01*
X52076436Y-93267982D02*
X52028817Y-93244173D01*
X52028817Y-93244173D02*
X52005008Y-93196554D01*
X52005008Y-93196554D02*
X52005008Y-93172744D01*
X52005008Y-93172744D02*
X52028817Y-93125125D01*
X52028817Y-93125125D02*
X52076436Y-93101316D01*
X52076436Y-93101316D02*
X52147865Y-93101316D01*
X52147865Y-93101316D02*
X52195484Y-93125125D01*
X53028817Y-93410840D02*
X52981198Y-93434649D01*
X52981198Y-93434649D02*
X52885960Y-93434649D01*
X52885960Y-93434649D02*
X52838341Y-93410840D01*
X52838341Y-93410840D02*
X52814531Y-93387030D01*
X52814531Y-93387030D02*
X52790722Y-93339411D01*
X52790722Y-93339411D02*
X52790722Y-93196554D01*
X52790722Y-93196554D02*
X52814531Y-93148935D01*
X52814531Y-93148935D02*
X52838341Y-93125125D01*
X52838341Y-93125125D02*
X52885960Y-93101316D01*
X52885960Y-93101316D02*
X52981198Y-93101316D01*
X52981198Y-93101316D02*
X53028817Y-93125125D01*
X53314531Y-93434649D02*
X53266912Y-93410840D01*
X53266912Y-93410840D02*
X53243102Y-93363220D01*
X53243102Y-93363220D02*
X53243102Y-92934649D01*
X53576436Y-93434649D02*
X53528817Y-93410840D01*
X53528817Y-93410840D02*
X53505007Y-93387030D01*
X53505007Y-93387030D02*
X53481198Y-93339411D01*
X53481198Y-93339411D02*
X53481198Y-93196554D01*
X53481198Y-93196554D02*
X53505007Y-93148935D01*
X53505007Y-93148935D02*
X53528817Y-93125125D01*
X53528817Y-93125125D02*
X53576436Y-93101316D01*
X53576436Y-93101316D02*
X53647864Y-93101316D01*
X53647864Y-93101316D02*
X53695483Y-93125125D01*
X53695483Y-93125125D02*
X53719293Y-93148935D01*
X53719293Y-93148935D02*
X53743102Y-93196554D01*
X53743102Y-93196554D02*
X53743102Y-93339411D01*
X53743102Y-93339411D02*
X53719293Y-93387030D01*
X53719293Y-93387030D02*
X53695483Y-93410840D01*
X53695483Y-93410840D02*
X53647864Y-93434649D01*
X53647864Y-93434649D02*
X53576436Y-93434649D01*
X53933579Y-93410840D02*
X53981198Y-93434649D01*
X53981198Y-93434649D02*
X54076436Y-93434649D01*
X54076436Y-93434649D02*
X54124055Y-93410840D01*
X54124055Y-93410840D02*
X54147864Y-93363220D01*
X54147864Y-93363220D02*
X54147864Y-93339411D01*
X54147864Y-93339411D02*
X54124055Y-93291792D01*
X54124055Y-93291792D02*
X54076436Y-93267982D01*
X54076436Y-93267982D02*
X54005007Y-93267982D01*
X54005007Y-93267982D02*
X53957388Y-93244173D01*
X53957388Y-93244173D02*
X53933579Y-93196554D01*
X53933579Y-93196554D02*
X53933579Y-93172744D01*
X53933579Y-93172744D02*
X53957388Y-93125125D01*
X53957388Y-93125125D02*
X54005007Y-93101316D01*
X54005007Y-93101316D02*
X54076436Y-93101316D01*
X54076436Y-93101316D02*
X54124055Y-93125125D01*
X54552626Y-93410840D02*
X54505007Y-93434649D01*
X54505007Y-93434649D02*
X54409769Y-93434649D01*
X54409769Y-93434649D02*
X54362150Y-93410840D01*
X54362150Y-93410840D02*
X54338341Y-93363220D01*
X54338341Y-93363220D02*
X54338341Y-93172744D01*
X54338341Y-93172744D02*
X54362150Y-93125125D01*
X54362150Y-93125125D02*
X54409769Y-93101316D01*
X54409769Y-93101316D02*
X54505007Y-93101316D01*
X54505007Y-93101316D02*
X54552626Y-93125125D01*
X54552626Y-93125125D02*
X54576436Y-93172744D01*
X54576436Y-93172744D02*
X54576436Y-93220363D01*
X54576436Y-93220363D02*
X54338341Y-93267982D01*
X55100245Y-93101316D02*
X55290721Y-93101316D01*
X55171673Y-92934649D02*
X55171673Y-93363220D01*
X55171673Y-93363220D02*
X55195483Y-93410840D01*
X55195483Y-93410840D02*
X55243102Y-93434649D01*
X55243102Y-93434649D02*
X55290721Y-93434649D01*
X55528816Y-93434649D02*
X55481197Y-93410840D01*
X55481197Y-93410840D02*
X55457387Y-93387030D01*
X55457387Y-93387030D02*
X55433578Y-93339411D01*
X55433578Y-93339411D02*
X55433578Y-93196554D01*
X55433578Y-93196554D02*
X55457387Y-93148935D01*
X55457387Y-93148935D02*
X55481197Y-93125125D01*
X55481197Y-93125125D02*
X55528816Y-93101316D01*
X55528816Y-93101316D02*
X55600244Y-93101316D01*
X55600244Y-93101316D02*
X55647863Y-93125125D01*
X55647863Y-93125125D02*
X55671673Y-93148935D01*
X55671673Y-93148935D02*
X55695482Y-93196554D01*
X55695482Y-93196554D02*
X55695482Y-93339411D01*
X55695482Y-93339411D02*
X55671673Y-93387030D01*
X55671673Y-93387030D02*
X55647863Y-93410840D01*
X55647863Y-93410840D02*
X55600244Y-93434649D01*
X55600244Y-93434649D02*
X55528816Y-93434649D01*
X56362149Y-93434649D02*
X56314530Y-93410840D01*
X56314530Y-93410840D02*
X56290720Y-93363220D01*
X56290720Y-93363220D02*
X56290720Y-92934649D01*
X56552625Y-93434649D02*
X56552625Y-93101316D01*
X56552625Y-92934649D02*
X56528816Y-92958459D01*
X56528816Y-92958459D02*
X56552625Y-92982268D01*
X56552625Y-92982268D02*
X56576435Y-92958459D01*
X56576435Y-92958459D02*
X56552625Y-92934649D01*
X56552625Y-92934649D02*
X56552625Y-92982268D01*
X56743101Y-93101316D02*
X56862149Y-93434649D01*
X56862149Y-93434649D02*
X56981196Y-93101316D01*
X57362148Y-93410840D02*
X57314529Y-93434649D01*
X57314529Y-93434649D02*
X57219291Y-93434649D01*
X57219291Y-93434649D02*
X57171672Y-93410840D01*
X57171672Y-93410840D02*
X57147863Y-93363220D01*
X57147863Y-93363220D02*
X57147863Y-93172744D01*
X57147863Y-93172744D02*
X57171672Y-93125125D01*
X57171672Y-93125125D02*
X57219291Y-93101316D01*
X57219291Y-93101316D02*
X57314529Y-93101316D01*
X57314529Y-93101316D02*
X57362148Y-93125125D01*
X57362148Y-93125125D02*
X57385958Y-93172744D01*
X57385958Y-93172744D02*
X57385958Y-93220363D01*
X57385958Y-93220363D02*
X57147863Y-93267982D01*
D10*
G36*
X150732919Y-37270693D02*
G01*
X150609470Y-37262079D01*
X150504059Y-37237718D01*
X150413762Y-37199088D01*
X150336232Y-37146612D01*
X150269835Y-37079634D01*
X150217149Y-37002669D01*
X150174261Y-36911129D01*
X150141753Y-36802645D01*
X150120857Y-36674384D01*
X150113397Y-36523127D01*
X150121060Y-36368323D01*
X150142665Y-36235152D01*
X150176529Y-36120723D01*
X150221531Y-36022491D01*
X150277162Y-35938318D01*
X150347248Y-35864443D01*
X150428444Y-35806985D01*
X150522315Y-35764962D01*
X150631210Y-35738598D01*
X150758107Y-35729307D01*
X150862192Y-35735374D01*
X150951273Y-35752479D01*
X151035357Y-35780315D01*
X151115037Y-35817509D01*
X151047901Y-35975046D01*
X150992077Y-35945210D01*
X150923978Y-35920457D01*
X150849819Y-35904919D01*
X150762320Y-35899391D01*
X150671146Y-35906493D01*
X150593359Y-35926626D01*
X150526636Y-35958764D01*
X150469200Y-36002899D01*
X150419953Y-36060042D01*
X150373471Y-36141700D01*
X150337989Y-36242101D01*
X150314910Y-36364976D01*
X150306563Y-36514700D01*
X150311411Y-36626208D01*
X150325320Y-36726235D01*
X150347504Y-36816035D01*
X150381854Y-36900546D01*
X150427308Y-36969820D01*
X150483975Y-37026053D01*
X150551676Y-37067151D01*
X150635990Y-37093286D01*
X150741254Y-37102715D01*
X150806346Y-37099916D01*
X150858857Y-37092273D01*
X150949166Y-37071208D01*
X150949166Y-36625983D01*
X150676133Y-36625983D01*
X150676133Y-36458005D01*
X151131890Y-36458005D01*
X151131890Y-37193024D01*
X151050772Y-37221625D01*
X150952280Y-37247612D01*
X150848133Y-37264751D01*
X150732919Y-37270693D01*
G37*
G36*
X151922413Y-35920457D02*
G01*
X151871386Y-35911926D01*
X151828898Y-35886843D01*
X151807928Y-35861951D01*
X151794810Y-35829792D01*
X151790064Y-35788108D01*
X151794941Y-35743588D01*
X151808169Y-35710590D01*
X151828898Y-35686259D01*
X151871304Y-35662025D01*
X151922413Y-35653744D01*
X151973506Y-35662028D01*
X152015836Y-35686259D01*
X152036564Y-35710590D01*
X152049792Y-35743588D01*
X152054670Y-35788108D01*
X152049923Y-35829792D01*
X152036805Y-35861951D01*
X152015836Y-35886843D01*
X151973425Y-35911923D01*
X151922413Y-35920457D01*
G37*
G36*
X151445681Y-37249719D02*
G01*
X151445681Y-37123689D01*
X151846758Y-37092182D01*
X151846758Y-36281601D01*
X151479295Y-36254307D01*
X151479295Y-36124156D01*
X152035802Y-36124156D01*
X152035802Y-37092182D01*
X152411692Y-37123689D01*
X152411692Y-37249719D01*
X151445681Y-37249719D01*
G37*
G36*
X152704509Y-37249719D02*
G01*
X152704509Y-36124156D01*
X152855726Y-36124156D01*
X152883020Y-36290027D01*
X152893553Y-36290027D01*
X152931314Y-36230917D01*
X152978896Y-36184082D01*
X153037351Y-36148244D01*
X153102561Y-36123769D01*
X153176610Y-36108453D01*
X153261016Y-36103090D01*
X153345339Y-36109611D01*
X153417849Y-36128157D01*
X153480570Y-36157850D01*
X153535057Y-36198711D01*
X153578112Y-36249488D01*
X153610417Y-36314024D01*
X153631377Y-36395473D01*
X153639012Y-36497939D01*
X153639012Y-37249719D01*
X153450060Y-37249719D01*
X153450060Y-36531553D01*
X153442411Y-36437803D01*
X153422246Y-36370331D01*
X153392266Y-36322634D01*
X153349202Y-36287643D01*
X153289176Y-36264907D01*
X153206428Y-36256413D01*
X153121333Y-36264285D01*
X153055058Y-36285879D01*
X153003489Y-36319559D01*
X152963895Y-36365682D01*
X152927045Y-36441840D01*
X152902612Y-36541928D01*
X152893553Y-36672237D01*
X152893553Y-37249719D01*
X152704509Y-37249719D01*
G37*
G36*
X154478586Y-36112963D02*
G01*
X154561792Y-36139910D01*
X154610228Y-36168758D01*
X154656348Y-36209120D01*
X154700461Y-36262733D01*
X154710994Y-36262733D01*
X154736182Y-36124156D01*
X154887399Y-36124156D01*
X154887399Y-37279119D01*
X154878444Y-37400312D01*
X154853656Y-37498561D01*
X154815129Y-37578142D01*
X154763476Y-37642369D01*
X154698524Y-37692264D01*
X154615169Y-37730219D01*
X154509107Y-37755082D01*
X154374947Y-37764186D01*
X154261475Y-37758525D01*
X154157601Y-37742112D01*
X154058370Y-37716289D01*
X153969656Y-37684410D01*
X153969656Y-37516432D01*
X154058357Y-37557981D01*
X154163921Y-37588880D01*
X154272597Y-37607291D01*
X154368627Y-37613060D01*
X154465946Y-37606163D01*
X154539646Y-37587658D01*
X154594802Y-37559887D01*
X154635340Y-37523759D01*
X154675860Y-37460209D01*
X154701657Y-37380154D01*
X154710994Y-37279119D01*
X154710994Y-37239186D01*
X154712002Y-37190917D01*
X154717222Y-37119476D01*
X154708888Y-37119476D01*
X154665835Y-37172663D01*
X154620119Y-37211574D01*
X154571318Y-37238178D01*
X154487679Y-37261996D01*
X154381266Y-37270693D01*
X154272463Y-37260455D01*
X154180486Y-37231360D01*
X154102004Y-37184373D01*
X154034777Y-37118469D01*
X153983220Y-37039951D01*
X153944564Y-36945153D01*
X153919755Y-36830874D01*
X153910855Y-36693211D01*
X153911255Y-36686891D01*
X154104020Y-36686891D01*
X154113999Y-36825451D01*
X154140695Y-36929698D01*
X154180682Y-37007185D01*
X154223248Y-37054619D01*
X154275342Y-37088590D01*
X154338912Y-37109866D01*
X154416987Y-37117461D01*
X154486068Y-37111280D01*
X154544593Y-37093731D01*
X154594581Y-37065495D01*
X154637447Y-37026145D01*
X154669535Y-36979005D01*
X154694476Y-36917019D01*
X154711080Y-36836535D01*
X154717222Y-36733145D01*
X154717222Y-36688998D01*
X154710767Y-36569547D01*
X154693463Y-36477933D01*
X154667805Y-36408702D01*
X154635340Y-36357255D01*
X154590883Y-36313364D01*
X154539634Y-36282259D01*
X154480243Y-36263116D01*
X154410667Y-36256413D01*
X154332727Y-36264170D01*
X154269819Y-36285845D01*
X154218738Y-36320425D01*
X154177476Y-36368796D01*
X154139050Y-36447243D01*
X154113512Y-36551014D01*
X154104020Y-36686891D01*
X153911255Y-36686891D01*
X153919632Y-36554553D01*
X153944172Y-36438584D01*
X153982498Y-36341624D01*
X154033678Y-36260627D01*
X154100804Y-36191732D01*
X154177853Y-36143201D01*
X154266800Y-36113472D01*
X154370733Y-36103090D01*
X154478586Y-36112963D01*
G37*
G36*
X155821842Y-36112735D02*
G01*
X155913974Y-36140163D01*
X155993018Y-36184350D01*
X156061138Y-36245972D01*
X156114712Y-36320406D01*
X156154236Y-36408444D01*
X156179274Y-36512709D01*
X156188175Y-36636516D01*
X156188175Y-36722612D01*
X155371274Y-36722612D01*
X155380272Y-36819680D01*
X155399405Y-36896075D01*
X155426870Y-36955711D01*
X155465815Y-37008106D01*
X155512412Y-37048701D01*
X155567554Y-37078626D01*
X155661361Y-37105710D01*
X155774458Y-37115354D01*
X155866189Y-37109079D01*
X155957182Y-37090167D01*
X156046829Y-37060966D01*
X156137800Y-37022939D01*
X156137800Y-37190917D01*
X156040372Y-37227416D01*
X155944543Y-37251825D01*
X155849067Y-37266135D01*
X155761910Y-37270693D01*
X155627230Y-37260283D01*
X155513601Y-37230919D01*
X155417320Y-37184300D01*
X155335554Y-37120575D01*
X155281642Y-37058182D01*
X155238944Y-36985778D01*
X155207297Y-36901855D01*
X155187286Y-36804425D01*
X155180215Y-36691105D01*
X155188154Y-36571395D01*
X155375488Y-36571395D01*
X155999223Y-36571395D01*
X155986639Y-36475963D01*
X155959899Y-36400303D01*
X155920454Y-36340402D01*
X155866921Y-36294747D01*
X155799382Y-36266523D01*
X155713550Y-36256413D01*
X155623223Y-36266450D01*
X155548407Y-36294958D01*
X155485672Y-36341501D01*
X155435942Y-36402879D01*
X155399049Y-36478504D01*
X155375488Y-36571395D01*
X155188154Y-36571395D01*
X155188289Y-36569355D01*
X155211139Y-36464900D01*
X155247352Y-36375024D01*
X155298729Y-36293341D01*
X155360794Y-36226669D01*
X155434289Y-36173432D01*
X155516707Y-36134997D01*
X155609105Y-36111313D01*
X155713550Y-36103090D01*
X155821842Y-36112735D01*
G37*
G36*
X156443256Y-37249719D02*
G01*
X156443256Y-37123689D01*
X156785532Y-37092182D01*
X156785532Y-36281601D01*
X156476779Y-36254307D01*
X156476779Y-36124156D01*
X156936749Y-36124156D01*
X156961936Y-36329961D01*
X156970271Y-36329961D01*
X157034704Y-36228440D01*
X157099415Y-36160884D01*
X157149322Y-36129714D01*
X157210339Y-36110105D01*
X157285344Y-36103090D01*
X157354618Y-36106438D01*
X157412290Y-36115729D01*
X157514231Y-36149343D01*
X157463855Y-36315215D01*
X157383988Y-36282700D01*
X157336766Y-36272537D01*
X157285344Y-36269053D01*
X157227152Y-36275424D01*
X157174403Y-36294177D01*
X157125701Y-36325748D01*
X157064716Y-36390616D01*
X157016525Y-36476965D01*
X156986823Y-36574851D01*
X156976591Y-36684785D01*
X156976591Y-37092182D01*
X157304212Y-37123689D01*
X157304212Y-37249719D01*
X156443256Y-37249719D01*
G37*
G36*
X158285885Y-37270693D02*
G01*
X158162436Y-37262079D01*
X158057025Y-37237718D01*
X157966728Y-37199088D01*
X157889198Y-37146612D01*
X157822801Y-37079634D01*
X157770115Y-37002669D01*
X157727226Y-36911129D01*
X157694718Y-36802645D01*
X157673823Y-36674384D01*
X157666363Y-36523127D01*
X157674026Y-36368323D01*
X157695631Y-36235152D01*
X157729495Y-36120723D01*
X157774497Y-36022491D01*
X157830128Y-35938318D01*
X157900214Y-35864443D01*
X157981410Y-35806985D01*
X158075281Y-35764962D01*
X158184175Y-35738598D01*
X158311073Y-35729307D01*
X158415158Y-35735374D01*
X158504238Y-35752479D01*
X158588322Y-35780315D01*
X158668003Y-35817509D01*
X158600867Y-35975046D01*
X158545043Y-35945210D01*
X158476944Y-35920457D01*
X158402784Y-35904919D01*
X158315286Y-35899391D01*
X158224112Y-35906493D01*
X158146325Y-35926626D01*
X158079601Y-35958764D01*
X158022166Y-36002899D01*
X157972919Y-36060042D01*
X157926437Y-36141700D01*
X157890954Y-36242101D01*
X157867876Y-36364976D01*
X157859529Y-36514700D01*
X157864377Y-36626208D01*
X157878286Y-36726235D01*
X157900470Y-36816035D01*
X157934820Y-36900546D01*
X157980273Y-36969820D01*
X158036941Y-37026053D01*
X158104641Y-37067151D01*
X158188956Y-37093286D01*
X158294220Y-37102715D01*
X158359312Y-37099916D01*
X158411823Y-37092273D01*
X158502132Y-37071208D01*
X158502132Y-36625983D01*
X158229099Y-36625983D01*
X158229099Y-36458005D01*
X158684856Y-36458005D01*
X158684856Y-37193024D01*
X158603738Y-37221625D01*
X158505246Y-37247612D01*
X158401099Y-37264751D01*
X158285885Y-37270693D01*
G37*
G36*
X159475378Y-35920457D02*
G01*
X159424351Y-35911926D01*
X159381864Y-35886843D01*
X159360894Y-35861951D01*
X159347776Y-35829792D01*
X159343029Y-35788108D01*
X159347907Y-35743588D01*
X159361135Y-35710590D01*
X159381864Y-35686259D01*
X159424270Y-35662025D01*
X159475378Y-35653744D01*
X159526472Y-35662028D01*
X159568801Y-35686259D01*
X159589530Y-35710590D01*
X159602758Y-35743588D01*
X159607636Y-35788108D01*
X159602889Y-35829792D01*
X159589771Y-35861951D01*
X159568801Y-35886843D01*
X159526390Y-35911923D01*
X159475378Y-35920457D01*
G37*
G36*
X158998647Y-37249719D02*
G01*
X158998647Y-37123689D01*
X159399724Y-37092182D01*
X159399724Y-36281601D01*
X159032261Y-36254307D01*
X159032261Y-36124156D01*
X159588768Y-36124156D01*
X159588768Y-37092182D01*
X159964658Y-37123689D01*
X159964658Y-37249719D01*
X158998647Y-37249719D01*
G37*
G36*
X160772724Y-36112963D02*
G01*
X160855931Y-36139910D01*
X160904367Y-36168758D01*
X160950486Y-36209120D01*
X160994600Y-36262733D01*
X161005132Y-36262733D01*
X161030320Y-36124156D01*
X161181537Y-36124156D01*
X161181537Y-37279119D01*
X161172582Y-37400312D01*
X161147794Y-37498561D01*
X161109267Y-37578142D01*
X161057614Y-37642369D01*
X160992662Y-37692264D01*
X160909307Y-37730219D01*
X160803245Y-37755082D01*
X160669085Y-37764186D01*
X160555613Y-37758525D01*
X160451739Y-37742112D01*
X160352508Y-37716289D01*
X160263794Y-37684410D01*
X160263794Y-37516432D01*
X160352495Y-37557981D01*
X160458059Y-37588880D01*
X160566736Y-37607291D01*
X160662765Y-37613060D01*
X160760084Y-37606163D01*
X160833785Y-37587658D01*
X160888940Y-37559887D01*
X160929478Y-37523759D01*
X160969998Y-37460209D01*
X160995796Y-37380154D01*
X161005132Y-37279119D01*
X161005132Y-37239186D01*
X161006140Y-37190917D01*
X161011361Y-37119476D01*
X161003026Y-37119476D01*
X160959974Y-37172663D01*
X160914258Y-37211574D01*
X160865456Y-37238178D01*
X160781817Y-37261996D01*
X160675405Y-37270693D01*
X160566601Y-37260455D01*
X160474624Y-37231360D01*
X160396142Y-37184373D01*
X160328916Y-37118469D01*
X160277358Y-37039951D01*
X160238703Y-36945153D01*
X160213893Y-36830874D01*
X160204993Y-36693211D01*
X160205393Y-36686891D01*
X160398158Y-36686891D01*
X160408137Y-36825451D01*
X160434833Y-36929698D01*
X160474820Y-37007185D01*
X160517386Y-37054619D01*
X160569480Y-37088590D01*
X160633050Y-37109866D01*
X160711125Y-37117461D01*
X160780206Y-37111280D01*
X160838731Y-37093731D01*
X160888719Y-37065495D01*
X160931585Y-37026145D01*
X160963673Y-36979005D01*
X160988614Y-36917019D01*
X161005219Y-36836535D01*
X161011361Y-36733145D01*
X161011361Y-36688998D01*
X161004905Y-36569547D01*
X160987602Y-36477933D01*
X160961943Y-36408702D01*
X160929478Y-36357255D01*
X160885021Y-36313364D01*
X160833772Y-36282259D01*
X160774381Y-36263116D01*
X160704805Y-36256413D01*
X160626865Y-36264170D01*
X160563957Y-36285845D01*
X160512876Y-36320425D01*
X160471615Y-36368796D01*
X160433188Y-36447243D01*
X160407650Y-36551014D01*
X160398158Y-36686891D01*
X160205393Y-36686891D01*
X160213770Y-36554553D01*
X160238310Y-36438584D01*
X160276637Y-36341624D01*
X160327817Y-36260627D01*
X160394942Y-36191732D01*
X160471991Y-36143201D01*
X160560938Y-36113472D01*
X160664872Y-36103090D01*
X160772724Y-36112963D01*
G37*
G36*
X161993034Y-35920457D02*
G01*
X161942007Y-35911926D01*
X161899519Y-35886843D01*
X161878549Y-35861951D01*
X161865431Y-35829792D01*
X161860685Y-35788108D01*
X161865562Y-35743588D01*
X161878790Y-35710590D01*
X161899519Y-35686259D01*
X161941925Y-35662025D01*
X161993034Y-35653744D01*
X162044127Y-35662028D01*
X162086457Y-35686259D01*
X162107185Y-35710590D01*
X162120413Y-35743588D01*
X162125291Y-35788108D01*
X162120545Y-35829792D01*
X162107426Y-35861951D01*
X162086457Y-35886843D01*
X162044046Y-35911923D01*
X161993034Y-35920457D01*
G37*
G36*
X161516302Y-37249719D02*
G01*
X161516302Y-37123689D01*
X161917380Y-37092182D01*
X161917380Y-36281601D01*
X161549916Y-36254307D01*
X161549916Y-36124156D01*
X162106423Y-36124156D01*
X162106423Y-37092182D01*
X162482313Y-37123689D01*
X162482313Y-37249719D01*
X161516302Y-37249719D01*
G37*
G36*
X163373677Y-37270693D02*
G01*
X163262938Y-37263818D01*
X163167649Y-37244358D01*
X163085498Y-37213579D01*
X163014549Y-37172049D01*
X162931143Y-37098835D01*
X162863453Y-37009001D01*
X162810850Y-36900115D01*
X162775636Y-36782847D01*
X162753488Y-36650233D01*
X162745729Y-36500046D01*
X162754700Y-36343126D01*
X162780115Y-36207284D01*
X162820284Y-36089534D01*
X162878788Y-35980862D01*
X162950683Y-35892820D01*
X163036531Y-35822821D01*
X163109018Y-35782929D01*
X163189833Y-35753772D01*
X163280304Y-35735625D01*
X163382012Y-35729307D01*
X163489186Y-35735253D01*
X163586810Y-35752479D01*
X163679329Y-35780622D01*
X163762115Y-35817509D01*
X163690766Y-35970832D01*
X163622436Y-35939790D01*
X163542663Y-35916244D01*
X163460173Y-35901921D01*
X163382012Y-35897285D01*
X163277894Y-35907685D01*
X163190510Y-35937228D01*
X163116403Y-35985094D01*
X163053384Y-36052715D01*
X163006577Y-36131931D01*
X162970790Y-36230166D01*
X162947452Y-36351332D01*
X162938986Y-36500046D01*
X162946513Y-36642300D01*
X162967402Y-36760258D01*
X162999612Y-36857689D01*
X163041843Y-36937851D01*
X163086977Y-36993690D01*
X163141444Y-37037089D01*
X163206556Y-37068988D01*
X163284443Y-37089193D01*
X163377891Y-37096395D01*
X163450447Y-37092626D01*
X163532130Y-37080641D01*
X163614384Y-37060565D01*
X163697086Y-37031274D01*
X163697086Y-37209785D01*
X163613487Y-37237492D01*
X163536435Y-37255947D01*
X163458407Y-37266916D01*
X163373677Y-37270693D01*
G37*
G36*
X164603083Y-36110021D02*
G01*
X164691137Y-36129258D01*
X164763372Y-36159087D01*
X164822465Y-36198711D01*
X164870499Y-36250223D01*
X164905976Y-36314806D01*
X164928724Y-36395358D01*
X164936954Y-36495832D01*
X164936954Y-37249719D01*
X164785737Y-37249719D01*
X164764763Y-37094288D01*
X164756336Y-37094288D01*
X164706825Y-37149164D01*
X164653755Y-37192942D01*
X164596785Y-37226638D01*
X164535095Y-37250455D01*
X164464228Y-37265426D01*
X164382553Y-37270693D01*
X164274744Y-37260753D01*
X164186857Y-37232960D01*
X164114832Y-37188810D01*
X164071594Y-37144383D01*
X164040093Y-37089854D01*
X164020139Y-37023089D01*
X164012983Y-36941057D01*
X164013616Y-36934737D01*
X164191494Y-36934737D01*
X164199028Y-36996036D01*
X164219587Y-37041232D01*
X164252402Y-37074413D01*
X164295065Y-37097397D01*
X164348102Y-37112133D01*
X164414060Y-37117461D01*
X164505784Y-37108628D01*
X164588358Y-37082840D01*
X164638321Y-37055550D01*
X164680739Y-37020705D01*
X164716403Y-36977785D01*
X164742506Y-36928732D01*
X164758928Y-36870285D01*
X164764763Y-36800281D01*
X164764763Y-36699531D01*
X164563171Y-36705851D01*
X164428655Y-36717867D01*
X164336777Y-36740782D01*
X164276491Y-36770880D01*
X164229043Y-36815519D01*
X164201164Y-36869131D01*
X164191494Y-36934737D01*
X164013616Y-36934737D01*
X164021901Y-36852076D01*
X164047022Y-36778917D01*
X164087417Y-36718259D01*
X164144233Y-36668024D01*
X164210650Y-36630979D01*
X164293648Y-36601604D01*
X164396558Y-36581117D01*
X164523237Y-36571395D01*
X164764763Y-36565075D01*
X164764763Y-36518913D01*
X164758920Y-36442252D01*
X164743295Y-36384944D01*
X164719837Y-36342640D01*
X164689108Y-36312101D01*
X164635971Y-36282409D01*
X164569253Y-36263333D01*
X164485501Y-36256413D01*
X164396665Y-36262266D01*
X164313219Y-36279494D01*
X164233395Y-36307335D01*
X164157880Y-36344616D01*
X164092759Y-36201825D01*
X164175478Y-36165121D01*
X164270171Y-36132491D01*
X164372176Y-36110877D01*
X164495943Y-36103090D01*
X164603083Y-36110021D01*
G37*
G36*
X165969002Y-37270693D02*
G01*
X165853105Y-37262446D01*
X165754770Y-37239186D01*
X165695711Y-37212577D01*
X165646078Y-37175719D01*
X165604653Y-37127902D01*
X165575236Y-37071965D01*
X165556021Y-36999879D01*
X165548965Y-36907443D01*
X165548965Y-36281601D01*
X165242410Y-36281601D01*
X165242410Y-36151450D01*
X165548965Y-36117836D01*
X165586792Y-35823829D01*
X165738009Y-35823829D01*
X165738009Y-36124156D01*
X166176914Y-36124156D01*
X166176914Y-36281601D01*
X165738009Y-36281601D01*
X165738009Y-36871722D01*
X165745436Y-36955392D01*
X165765111Y-37015764D01*
X165794704Y-37058660D01*
X165836555Y-37089277D01*
X165896730Y-37109703D01*
X165981642Y-37117461D01*
X166099153Y-37106928D01*
X166208421Y-37085954D01*
X166208421Y-37237079D01*
X166097138Y-37260160D01*
X165969002Y-37270693D01*
G37*
D12*
X46671678Y-58101316D02*
X46671678Y-58434649D01*
X46671678Y-58148935D02*
X46695488Y-58125125D01*
X46695488Y-58125125D02*
X46743107Y-58101316D01*
X46743107Y-58101316D02*
X46814535Y-58101316D01*
X46814535Y-58101316D02*
X46862154Y-58125125D01*
X46862154Y-58125125D02*
X46885964Y-58172744D01*
X46885964Y-58172744D02*
X46885964Y-58434649D01*
X47195488Y-58434649D02*
X47147869Y-58410840D01*
X47147869Y-58410840D02*
X47124059Y-58387030D01*
X47124059Y-58387030D02*
X47100250Y-58339411D01*
X47100250Y-58339411D02*
X47100250Y-58196554D01*
X47100250Y-58196554D02*
X47124059Y-58148935D01*
X47124059Y-58148935D02*
X47147869Y-58125125D01*
X47147869Y-58125125D02*
X47195488Y-58101316D01*
X47195488Y-58101316D02*
X47266916Y-58101316D01*
X47266916Y-58101316D02*
X47314535Y-58125125D01*
X47314535Y-58125125D02*
X47338345Y-58148935D01*
X47338345Y-58148935D02*
X47362154Y-58196554D01*
X47362154Y-58196554D02*
X47362154Y-58339411D01*
X47362154Y-58339411D02*
X47338345Y-58387030D01*
X47338345Y-58387030D02*
X47314535Y-58410840D01*
X47314535Y-58410840D02*
X47266916Y-58434649D01*
X47266916Y-58434649D02*
X47195488Y-58434649D01*
X47933583Y-58410840D02*
X47981202Y-58434649D01*
X47981202Y-58434649D02*
X48076440Y-58434649D01*
X48076440Y-58434649D02*
X48124059Y-58410840D01*
X48124059Y-58410840D02*
X48147868Y-58363220D01*
X48147868Y-58363220D02*
X48147868Y-58339411D01*
X48147868Y-58339411D02*
X48124059Y-58291792D01*
X48124059Y-58291792D02*
X48076440Y-58267982D01*
X48076440Y-58267982D02*
X48005011Y-58267982D01*
X48005011Y-58267982D02*
X47957392Y-58244173D01*
X47957392Y-58244173D02*
X47933583Y-58196554D01*
X47933583Y-58196554D02*
X47933583Y-58172744D01*
X47933583Y-58172744D02*
X47957392Y-58125125D01*
X47957392Y-58125125D02*
X48005011Y-58101316D01*
X48005011Y-58101316D02*
X48076440Y-58101316D01*
X48076440Y-58101316D02*
X48124059Y-58125125D01*
X48576440Y-58410840D02*
X48528821Y-58434649D01*
X48528821Y-58434649D02*
X48433583Y-58434649D01*
X48433583Y-58434649D02*
X48385964Y-58410840D01*
X48385964Y-58410840D02*
X48362154Y-58387030D01*
X48362154Y-58387030D02*
X48338345Y-58339411D01*
X48338345Y-58339411D02*
X48338345Y-58196554D01*
X48338345Y-58196554D02*
X48362154Y-58148935D01*
X48362154Y-58148935D02*
X48385964Y-58125125D01*
X48385964Y-58125125D02*
X48433583Y-58101316D01*
X48433583Y-58101316D02*
X48528821Y-58101316D01*
X48528821Y-58101316D02*
X48576440Y-58125125D01*
X48790725Y-58434649D02*
X48790725Y-58101316D01*
X48790725Y-58196554D02*
X48814535Y-58148935D01*
X48814535Y-58148935D02*
X48838344Y-58125125D01*
X48838344Y-58125125D02*
X48885963Y-58101316D01*
X48885963Y-58101316D02*
X48933582Y-58101316D01*
X49290725Y-58410840D02*
X49243106Y-58434649D01*
X49243106Y-58434649D02*
X49147868Y-58434649D01*
X49147868Y-58434649D02*
X49100249Y-58410840D01*
X49100249Y-58410840D02*
X49076440Y-58363220D01*
X49076440Y-58363220D02*
X49076440Y-58172744D01*
X49076440Y-58172744D02*
X49100249Y-58125125D01*
X49100249Y-58125125D02*
X49147868Y-58101316D01*
X49147868Y-58101316D02*
X49243106Y-58101316D01*
X49243106Y-58101316D02*
X49290725Y-58125125D01*
X49290725Y-58125125D02*
X49314535Y-58172744D01*
X49314535Y-58172744D02*
X49314535Y-58220363D01*
X49314535Y-58220363D02*
X49076440Y-58267982D01*
X49481201Y-58101316D02*
X49576439Y-58434649D01*
X49576439Y-58434649D02*
X49671677Y-58196554D01*
X49671677Y-58196554D02*
X49766915Y-58434649D01*
X49766915Y-58434649D02*
X49862153Y-58101316D01*
X50028821Y-58410840D02*
X50076440Y-58434649D01*
X50076440Y-58434649D02*
X50171678Y-58434649D01*
X50171678Y-58434649D02*
X50219297Y-58410840D01*
X50219297Y-58410840D02*
X50243106Y-58363220D01*
X50243106Y-58363220D02*
X50243106Y-58339411D01*
X50243106Y-58339411D02*
X50219297Y-58291792D01*
X50219297Y-58291792D02*
X50171678Y-58267982D01*
X50171678Y-58267982D02*
X50100249Y-58267982D01*
X50100249Y-58267982D02*
X50052630Y-58244173D01*
X50052630Y-58244173D02*
X50028821Y-58196554D01*
X50028821Y-58196554D02*
X50028821Y-58172744D01*
X50028821Y-58172744D02*
X50052630Y-58125125D01*
X50052630Y-58125125D02*
X50100249Y-58101316D01*
X50100249Y-58101316D02*
X50171678Y-58101316D01*
X50171678Y-58101316D02*
X50219297Y-58125125D01*
X50838344Y-58434649D02*
X50838344Y-57934649D01*
X51052630Y-58434649D02*
X51052630Y-58172744D01*
X51052630Y-58172744D02*
X51028820Y-58125125D01*
X51028820Y-58125125D02*
X50981201Y-58101316D01*
X50981201Y-58101316D02*
X50909773Y-58101316D01*
X50909773Y-58101316D02*
X50862154Y-58125125D01*
X50862154Y-58125125D02*
X50838344Y-58148935D01*
X51481201Y-58410840D02*
X51433582Y-58434649D01*
X51433582Y-58434649D02*
X51338344Y-58434649D01*
X51338344Y-58434649D02*
X51290725Y-58410840D01*
X51290725Y-58410840D02*
X51266916Y-58363220D01*
X51266916Y-58363220D02*
X51266916Y-58172744D01*
X51266916Y-58172744D02*
X51290725Y-58125125D01*
X51290725Y-58125125D02*
X51338344Y-58101316D01*
X51338344Y-58101316D02*
X51433582Y-58101316D01*
X51433582Y-58101316D02*
X51481201Y-58125125D01*
X51481201Y-58125125D02*
X51505011Y-58172744D01*
X51505011Y-58172744D02*
X51505011Y-58220363D01*
X51505011Y-58220363D02*
X51266916Y-58267982D01*
X51719296Y-58434649D02*
X51719296Y-58101316D01*
X51719296Y-58196554D02*
X51743106Y-58148935D01*
X51743106Y-58148935D02*
X51766915Y-58125125D01*
X51766915Y-58125125D02*
X51814534Y-58101316D01*
X51814534Y-58101316D02*
X51862153Y-58101316D01*
X52219296Y-58410840D02*
X52171677Y-58434649D01*
X52171677Y-58434649D02*
X52076439Y-58434649D01*
X52076439Y-58434649D02*
X52028820Y-58410840D01*
X52028820Y-58410840D02*
X52005011Y-58363220D01*
X52005011Y-58363220D02*
X52005011Y-58172744D01*
X52005011Y-58172744D02*
X52028820Y-58125125D01*
X52028820Y-58125125D02*
X52076439Y-58101316D01*
X52076439Y-58101316D02*
X52171677Y-58101316D01*
X52171677Y-58101316D02*
X52219296Y-58125125D01*
X52219296Y-58125125D02*
X52243106Y-58172744D01*
X52243106Y-58172744D02*
X52243106Y-58220363D01*
X52243106Y-58220363D02*
X52005011Y-58267982D01*
X52838343Y-58434649D02*
X52838343Y-57934649D01*
X52838343Y-58125125D02*
X52885962Y-58101316D01*
X52885962Y-58101316D02*
X52981200Y-58101316D01*
X52981200Y-58101316D02*
X53028819Y-58125125D01*
X53028819Y-58125125D02*
X53052629Y-58148935D01*
X53052629Y-58148935D02*
X53076438Y-58196554D01*
X53076438Y-58196554D02*
X53076438Y-58339411D01*
X53076438Y-58339411D02*
X53052629Y-58387030D01*
X53052629Y-58387030D02*
X53028819Y-58410840D01*
X53028819Y-58410840D02*
X52981200Y-58434649D01*
X52981200Y-58434649D02*
X52885962Y-58434649D01*
X52885962Y-58434649D02*
X52838343Y-58410840D01*
X53481200Y-58410840D02*
X53433581Y-58434649D01*
X53433581Y-58434649D02*
X53338343Y-58434649D01*
X53338343Y-58434649D02*
X53290724Y-58410840D01*
X53290724Y-58410840D02*
X53266915Y-58363220D01*
X53266915Y-58363220D02*
X53266915Y-58172744D01*
X53266915Y-58172744D02*
X53290724Y-58125125D01*
X53290724Y-58125125D02*
X53338343Y-58101316D01*
X53338343Y-58101316D02*
X53433581Y-58101316D01*
X53433581Y-58101316D02*
X53481200Y-58125125D01*
X53481200Y-58125125D02*
X53505010Y-58172744D01*
X53505010Y-58172744D02*
X53505010Y-58220363D01*
X53505010Y-58220363D02*
X53266915Y-58267982D01*
X53933581Y-58410840D02*
X53885962Y-58434649D01*
X53885962Y-58434649D02*
X53790724Y-58434649D01*
X53790724Y-58434649D02*
X53743105Y-58410840D01*
X53743105Y-58410840D02*
X53719295Y-58387030D01*
X53719295Y-58387030D02*
X53695486Y-58339411D01*
X53695486Y-58339411D02*
X53695486Y-58196554D01*
X53695486Y-58196554D02*
X53719295Y-58148935D01*
X53719295Y-58148935D02*
X53743105Y-58125125D01*
X53743105Y-58125125D02*
X53790724Y-58101316D01*
X53790724Y-58101316D02*
X53885962Y-58101316D01*
X53885962Y-58101316D02*
X53933581Y-58125125D01*
X54362152Y-58434649D02*
X54362152Y-58172744D01*
X54362152Y-58172744D02*
X54338342Y-58125125D01*
X54338342Y-58125125D02*
X54290723Y-58101316D01*
X54290723Y-58101316D02*
X54195485Y-58101316D01*
X54195485Y-58101316D02*
X54147866Y-58125125D01*
X54362152Y-58410840D02*
X54314533Y-58434649D01*
X54314533Y-58434649D02*
X54195485Y-58434649D01*
X54195485Y-58434649D02*
X54147866Y-58410840D01*
X54147866Y-58410840D02*
X54124057Y-58363220D01*
X54124057Y-58363220D02*
X54124057Y-58315601D01*
X54124057Y-58315601D02*
X54147866Y-58267982D01*
X54147866Y-58267982D02*
X54195485Y-58244173D01*
X54195485Y-58244173D02*
X54314533Y-58244173D01*
X54314533Y-58244173D02*
X54362152Y-58220363D01*
X54814533Y-58101316D02*
X54814533Y-58434649D01*
X54600247Y-58101316D02*
X54600247Y-58363220D01*
X54600247Y-58363220D02*
X54624057Y-58410840D01*
X54624057Y-58410840D02*
X54671676Y-58434649D01*
X54671676Y-58434649D02*
X54743104Y-58434649D01*
X54743104Y-58434649D02*
X54790723Y-58410840D01*
X54790723Y-58410840D02*
X54814533Y-58387030D01*
X55028819Y-58410840D02*
X55076438Y-58434649D01*
X55076438Y-58434649D02*
X55171676Y-58434649D01*
X55171676Y-58434649D02*
X55219295Y-58410840D01*
X55219295Y-58410840D02*
X55243104Y-58363220D01*
X55243104Y-58363220D02*
X55243104Y-58339411D01*
X55243104Y-58339411D02*
X55219295Y-58291792D01*
X55219295Y-58291792D02*
X55171676Y-58267982D01*
X55171676Y-58267982D02*
X55100247Y-58267982D01*
X55100247Y-58267982D02*
X55052628Y-58244173D01*
X55052628Y-58244173D02*
X55028819Y-58196554D01*
X55028819Y-58196554D02*
X55028819Y-58172744D01*
X55028819Y-58172744D02*
X55052628Y-58125125D01*
X55052628Y-58125125D02*
X55100247Y-58101316D01*
X55100247Y-58101316D02*
X55171676Y-58101316D01*
X55171676Y-58101316D02*
X55219295Y-58125125D01*
X55647866Y-58410840D02*
X55600247Y-58434649D01*
X55600247Y-58434649D02*
X55505009Y-58434649D01*
X55505009Y-58434649D02*
X55457390Y-58410840D01*
X55457390Y-58410840D02*
X55433581Y-58363220D01*
X55433581Y-58363220D02*
X55433581Y-58172744D01*
X55433581Y-58172744D02*
X55457390Y-58125125D01*
X55457390Y-58125125D02*
X55505009Y-58101316D01*
X55505009Y-58101316D02*
X55600247Y-58101316D01*
X55600247Y-58101316D02*
X55647866Y-58125125D01*
X55647866Y-58125125D02*
X55671676Y-58172744D01*
X55671676Y-58172744D02*
X55671676Y-58220363D01*
X55671676Y-58220363D02*
X55433581Y-58267982D01*
X56266913Y-58434649D02*
X56266913Y-58101316D01*
X56266913Y-57934649D02*
X56243104Y-57958459D01*
X56243104Y-57958459D02*
X56266913Y-57982268D01*
X56266913Y-57982268D02*
X56290723Y-57958459D01*
X56290723Y-57958459D02*
X56266913Y-57934649D01*
X56266913Y-57934649D02*
X56266913Y-57982268D01*
X56433580Y-58101316D02*
X56624056Y-58101316D01*
X56505008Y-57934649D02*
X56505008Y-58363220D01*
X56505008Y-58363220D02*
X56528818Y-58410840D01*
X56528818Y-58410840D02*
X56576437Y-58434649D01*
X56576437Y-58434649D02*
X56624056Y-58434649D01*
X56814532Y-57934649D02*
X56766913Y-58029887D01*
X57005008Y-58410840D02*
X57052627Y-58434649D01*
X57052627Y-58434649D02*
X57147865Y-58434649D01*
X57147865Y-58434649D02*
X57195484Y-58410840D01*
X57195484Y-58410840D02*
X57219293Y-58363220D01*
X57219293Y-58363220D02*
X57219293Y-58339411D01*
X57219293Y-58339411D02*
X57195484Y-58291792D01*
X57195484Y-58291792D02*
X57147865Y-58267982D01*
X57147865Y-58267982D02*
X57076436Y-58267982D01*
X57076436Y-58267982D02*
X57028817Y-58244173D01*
X57028817Y-58244173D02*
X57005008Y-58196554D01*
X57005008Y-58196554D02*
X57005008Y-58172744D01*
X57005008Y-58172744D02*
X57028817Y-58125125D01*
X57028817Y-58125125D02*
X57076436Y-58101316D01*
X57076436Y-58101316D02*
X57147865Y-58101316D01*
X57147865Y-58101316D02*
X57195484Y-58125125D01*
X58028817Y-58410840D02*
X57981198Y-58434649D01*
X57981198Y-58434649D02*
X57885960Y-58434649D01*
X57885960Y-58434649D02*
X57838341Y-58410840D01*
X57838341Y-58410840D02*
X57814531Y-58387030D01*
X57814531Y-58387030D02*
X57790722Y-58339411D01*
X57790722Y-58339411D02*
X57790722Y-58196554D01*
X57790722Y-58196554D02*
X57814531Y-58148935D01*
X57814531Y-58148935D02*
X57838341Y-58125125D01*
X57838341Y-58125125D02*
X57885960Y-58101316D01*
X57885960Y-58101316D02*
X57981198Y-58101316D01*
X57981198Y-58101316D02*
X58028817Y-58125125D01*
X58314531Y-58434649D02*
X58266912Y-58410840D01*
X58266912Y-58410840D02*
X58243102Y-58363220D01*
X58243102Y-58363220D02*
X58243102Y-57934649D01*
X58576436Y-58434649D02*
X58528817Y-58410840D01*
X58528817Y-58410840D02*
X58505007Y-58387030D01*
X58505007Y-58387030D02*
X58481198Y-58339411D01*
X58481198Y-58339411D02*
X58481198Y-58196554D01*
X58481198Y-58196554D02*
X58505007Y-58148935D01*
X58505007Y-58148935D02*
X58528817Y-58125125D01*
X58528817Y-58125125D02*
X58576436Y-58101316D01*
X58576436Y-58101316D02*
X58647864Y-58101316D01*
X58647864Y-58101316D02*
X58695483Y-58125125D01*
X58695483Y-58125125D02*
X58719293Y-58148935D01*
X58719293Y-58148935D02*
X58743102Y-58196554D01*
X58743102Y-58196554D02*
X58743102Y-58339411D01*
X58743102Y-58339411D02*
X58719293Y-58387030D01*
X58719293Y-58387030D02*
X58695483Y-58410840D01*
X58695483Y-58410840D02*
X58647864Y-58434649D01*
X58647864Y-58434649D02*
X58576436Y-58434649D01*
X58933579Y-58410840D02*
X58981198Y-58434649D01*
X58981198Y-58434649D02*
X59076436Y-58434649D01*
X59076436Y-58434649D02*
X59124055Y-58410840D01*
X59124055Y-58410840D02*
X59147864Y-58363220D01*
X59147864Y-58363220D02*
X59147864Y-58339411D01*
X59147864Y-58339411D02*
X59124055Y-58291792D01*
X59124055Y-58291792D02*
X59076436Y-58267982D01*
X59076436Y-58267982D02*
X59005007Y-58267982D01*
X59005007Y-58267982D02*
X58957388Y-58244173D01*
X58957388Y-58244173D02*
X58933579Y-58196554D01*
X58933579Y-58196554D02*
X58933579Y-58172744D01*
X58933579Y-58172744D02*
X58957388Y-58125125D01*
X58957388Y-58125125D02*
X59005007Y-58101316D01*
X59005007Y-58101316D02*
X59076436Y-58101316D01*
X59076436Y-58101316D02*
X59124055Y-58125125D01*
X59552626Y-58410840D02*
X59505007Y-58434649D01*
X59505007Y-58434649D02*
X59409769Y-58434649D01*
X59409769Y-58434649D02*
X59362150Y-58410840D01*
X59362150Y-58410840D02*
X59338341Y-58363220D01*
X59338341Y-58363220D02*
X59338341Y-58172744D01*
X59338341Y-58172744D02*
X59362150Y-58125125D01*
X59362150Y-58125125D02*
X59409769Y-58101316D01*
X59409769Y-58101316D02*
X59505007Y-58101316D01*
X59505007Y-58101316D02*
X59552626Y-58125125D01*
X59552626Y-58125125D02*
X59576436Y-58172744D01*
X59576436Y-58172744D02*
X59576436Y-58220363D01*
X59576436Y-58220363D02*
X59338341Y-58267982D01*
X60100245Y-58101316D02*
X60290721Y-58101316D01*
X60171673Y-57934649D02*
X60171673Y-58363220D01*
X60171673Y-58363220D02*
X60195483Y-58410840D01*
X60195483Y-58410840D02*
X60243102Y-58434649D01*
X60243102Y-58434649D02*
X60290721Y-58434649D01*
X60528816Y-58434649D02*
X60481197Y-58410840D01*
X60481197Y-58410840D02*
X60457387Y-58387030D01*
X60457387Y-58387030D02*
X60433578Y-58339411D01*
X60433578Y-58339411D02*
X60433578Y-58196554D01*
X60433578Y-58196554D02*
X60457387Y-58148935D01*
X60457387Y-58148935D02*
X60481197Y-58125125D01*
X60481197Y-58125125D02*
X60528816Y-58101316D01*
X60528816Y-58101316D02*
X60600244Y-58101316D01*
X60600244Y-58101316D02*
X60647863Y-58125125D01*
X60647863Y-58125125D02*
X60671673Y-58148935D01*
X60671673Y-58148935D02*
X60695482Y-58196554D01*
X60695482Y-58196554D02*
X60695482Y-58339411D01*
X60695482Y-58339411D02*
X60671673Y-58387030D01*
X60671673Y-58387030D02*
X60647863Y-58410840D01*
X60647863Y-58410840D02*
X60600244Y-58434649D01*
X60600244Y-58434649D02*
X60528816Y-58434649D01*
X61362149Y-58434649D02*
X61314530Y-58410840D01*
X61314530Y-58410840D02*
X61290720Y-58363220D01*
X61290720Y-58363220D02*
X61290720Y-57934649D01*
X61552625Y-58434649D02*
X61552625Y-58101316D01*
X61552625Y-57934649D02*
X61528816Y-57958459D01*
X61528816Y-57958459D02*
X61552625Y-57982268D01*
X61552625Y-57982268D02*
X61576435Y-57958459D01*
X61576435Y-57958459D02*
X61552625Y-57934649D01*
X61552625Y-57934649D02*
X61552625Y-57982268D01*
X61743101Y-58101316D02*
X61862149Y-58434649D01*
X61862149Y-58434649D02*
X61981196Y-58101316D01*
X62362148Y-58410840D02*
X62314529Y-58434649D01*
X62314529Y-58434649D02*
X62219291Y-58434649D01*
X62219291Y-58434649D02*
X62171672Y-58410840D01*
X62171672Y-58410840D02*
X62147863Y-58363220D01*
X62147863Y-58363220D02*
X62147863Y-58172744D01*
X62147863Y-58172744D02*
X62171672Y-58125125D01*
X62171672Y-58125125D02*
X62219291Y-58101316D01*
X62219291Y-58101316D02*
X62314529Y-58101316D01*
X62314529Y-58101316D02*
X62362148Y-58125125D01*
X62362148Y-58125125D02*
X62385958Y-58172744D01*
X62385958Y-58172744D02*
X62385958Y-58220363D01*
X62385958Y-58220363D02*
X62147863Y-58267982D01*
D13*
X193954819Y-106976189D02*
X194954819Y-106309523D01*
X193954819Y-106309523D02*
X194954819Y-106976189D01*
X194954819Y-105452380D02*
X194954819Y-105928570D01*
X194954819Y-105928570D02*
X193954819Y-105928570D01*
X194002438Y-104595237D02*
X193954819Y-104690475D01*
X193954819Y-104690475D02*
X193954819Y-104833332D01*
X193954819Y-104833332D02*
X194002438Y-104976189D01*
X194002438Y-104976189D02*
X194097676Y-105071427D01*
X194097676Y-105071427D02*
X194192914Y-105119046D01*
X194192914Y-105119046D02*
X194383390Y-105166665D01*
X194383390Y-105166665D02*
X194526247Y-105166665D01*
X194526247Y-105166665D02*
X194716723Y-105119046D01*
X194716723Y-105119046D02*
X194811961Y-105071427D01*
X194811961Y-105071427D02*
X194907200Y-104976189D01*
X194907200Y-104976189D02*
X194954819Y-104833332D01*
X194954819Y-104833332D02*
X194954819Y-104738094D01*
X194954819Y-104738094D02*
X194907200Y-104595237D01*
X194907200Y-104595237D02*
X194859580Y-104547618D01*
X194859580Y-104547618D02*
X194526247Y-104547618D01*
X194526247Y-104547618D02*
X194526247Y-104738094D01*
X194573866Y-104119046D02*
X194573866Y-103357142D01*
X194954819Y-102357142D02*
X194954819Y-102928570D01*
X194954819Y-102642856D02*
X193954819Y-102642856D01*
X193954819Y-102642856D02*
X194097676Y-102738094D01*
X194097676Y-102738094D02*
X194192914Y-102833332D01*
X194192914Y-102833332D02*
X194240533Y-102928570D01*
X193954819Y-101452380D02*
X193954819Y-101928570D01*
X193954819Y-101928570D02*
X194431009Y-101976189D01*
X194431009Y-101976189D02*
X194383390Y-101928570D01*
X194383390Y-101928570D02*
X194335771Y-101833332D01*
X194335771Y-101833332D02*
X194335771Y-101595237D01*
X194335771Y-101595237D02*
X194383390Y-101499999D01*
X194383390Y-101499999D02*
X194431009Y-101452380D01*
X194431009Y-101452380D02*
X194526247Y-101404761D01*
X194526247Y-101404761D02*
X194764342Y-101404761D01*
X194764342Y-101404761D02*
X194859580Y-101452380D01*
X194859580Y-101452380D02*
X194907200Y-101499999D01*
X194907200Y-101499999D02*
X194954819Y-101595237D01*
X194954819Y-101595237D02*
X194954819Y-101833332D01*
X194954819Y-101833332D02*
X194907200Y-101928570D01*
X194907200Y-101928570D02*
X194859580Y-101976189D01*
X193954819Y-100785713D02*
X193954819Y-100690475D01*
X193954819Y-100690475D02*
X194002438Y-100595237D01*
X194002438Y-100595237D02*
X194050057Y-100547618D01*
X194050057Y-100547618D02*
X194145295Y-100499999D01*
X194145295Y-100499999D02*
X194335771Y-100452380D01*
X194335771Y-100452380D02*
X194573866Y-100452380D01*
X194573866Y-100452380D02*
X194764342Y-100499999D01*
X194764342Y-100499999D02*
X194859580Y-100547618D01*
X194859580Y-100547618D02*
X194907200Y-100595237D01*
X194907200Y-100595237D02*
X194954819Y-100690475D01*
X194954819Y-100690475D02*
X194954819Y-100785713D01*
X194954819Y-100785713D02*
X194907200Y-100880951D01*
X194907200Y-100880951D02*
X194859580Y-100928570D01*
X194859580Y-100928570D02*
X194764342Y-100976189D01*
X194764342Y-100976189D02*
X194573866Y-101023808D01*
X194573866Y-101023808D02*
X194335771Y-101023808D01*
X194335771Y-101023808D02*
X194145295Y-100976189D01*
X194145295Y-100976189D02*
X194050057Y-100928570D01*
X194050057Y-100928570D02*
X194002438Y-100880951D01*
X194002438Y-100880951D02*
X193954819Y-100785713D01*
X194573866Y-100023808D02*
X194573866Y-99261904D01*
X194954819Y-98785713D02*
X193954819Y-98785713D01*
X194431009Y-98785713D02*
X194431009Y-98214285D01*
X194954819Y-98214285D02*
X193954819Y-98214285D01*
X194573866Y-97738094D02*
X194573866Y-96976190D01*
X194669104Y-96547618D02*
X194669104Y-96071428D01*
X194954819Y-96642856D02*
X193954819Y-96309523D01*
X193954819Y-96309523D02*
X194954819Y-95976190D01*
X194431009Y-95309523D02*
X194478628Y-95166666D01*
X194478628Y-95166666D02*
X194526247Y-95119047D01*
X194526247Y-95119047D02*
X194621485Y-95071428D01*
X194621485Y-95071428D02*
X194764342Y-95071428D01*
X194764342Y-95071428D02*
X194859580Y-95119047D01*
X194859580Y-95119047D02*
X194907200Y-95166666D01*
X194907200Y-95166666D02*
X194954819Y-95261904D01*
X194954819Y-95261904D02*
X194954819Y-95642856D01*
X194954819Y-95642856D02*
X193954819Y-95642856D01*
X193954819Y-95642856D02*
X193954819Y-95309523D01*
X193954819Y-95309523D02*
X194002438Y-95214285D01*
X194002438Y-95214285D02*
X194050057Y-95166666D01*
X194050057Y-95166666D02*
X194145295Y-95119047D01*
X194145295Y-95119047D02*
X194240533Y-95119047D01*
X194240533Y-95119047D02*
X194335771Y-95166666D01*
X194335771Y-95166666D02*
X194383390Y-95214285D01*
X194383390Y-95214285D02*
X194431009Y-95309523D01*
X194431009Y-95309523D02*
X194431009Y-95642856D01*
X199308095Y-51554819D02*
X199308095Y-52364342D01*
X199308095Y-52364342D02*
X199355714Y-52459580D01*
X199355714Y-52459580D02*
X199403333Y-52507200D01*
X199403333Y-52507200D02*
X199498571Y-52554819D01*
X199498571Y-52554819D02*
X199689047Y-52554819D01*
X199689047Y-52554819D02*
X199784285Y-52507200D01*
X199784285Y-52507200D02*
X199831904Y-52459580D01*
X199831904Y-52459580D02*
X199879523Y-52364342D01*
X199879523Y-52364342D02*
X199879523Y-51554819D01*
X200784285Y-51888152D02*
X200784285Y-52554819D01*
X200546190Y-51507200D02*
X200308095Y-52221485D01*
X200308095Y-52221485D02*
X200927142Y-52221485D01*
X194617619Y-59354819D02*
X194617619Y-58354819D01*
X194617619Y-58354819D02*
X194950952Y-59069104D01*
X194950952Y-59069104D02*
X195284285Y-58354819D01*
X195284285Y-58354819D02*
X195284285Y-59354819D01*
X195712857Y-59069104D02*
X196189047Y-59069104D01*
X195617619Y-59354819D02*
X195950952Y-58354819D01*
X195950952Y-58354819D02*
X196284285Y-59354819D01*
X196522381Y-58354819D02*
X197189047Y-59354819D01*
X197189047Y-58354819D02*
X196522381Y-59354819D01*
X197474762Y-58354819D02*
X198093809Y-58354819D01*
X198093809Y-58354819D02*
X197760476Y-58735771D01*
X197760476Y-58735771D02*
X197903333Y-58735771D01*
X197903333Y-58735771D02*
X197998571Y-58783390D01*
X197998571Y-58783390D02*
X198046190Y-58831009D01*
X198046190Y-58831009D02*
X198093809Y-58926247D01*
X198093809Y-58926247D02*
X198093809Y-59164342D01*
X198093809Y-59164342D02*
X198046190Y-59259580D01*
X198046190Y-59259580D02*
X197998571Y-59307200D01*
X197998571Y-59307200D02*
X197903333Y-59354819D01*
X197903333Y-59354819D02*
X197617619Y-59354819D01*
X197617619Y-59354819D02*
X197522381Y-59307200D01*
X197522381Y-59307200D02*
X197474762Y-59259580D01*
X199046190Y-59354819D02*
X198474762Y-59354819D01*
X198760476Y-59354819D02*
X198760476Y-58354819D01*
X198760476Y-58354819D02*
X198665238Y-58497676D01*
X198665238Y-58497676D02*
X198570000Y-58592914D01*
X198570000Y-58592914D02*
X198474762Y-58640533D01*
X199617619Y-58783390D02*
X199522381Y-58735771D01*
X199522381Y-58735771D02*
X199474762Y-58688152D01*
X199474762Y-58688152D02*
X199427143Y-58592914D01*
X199427143Y-58592914D02*
X199427143Y-58545295D01*
X199427143Y-58545295D02*
X199474762Y-58450057D01*
X199474762Y-58450057D02*
X199522381Y-58402438D01*
X199522381Y-58402438D02*
X199617619Y-58354819D01*
X199617619Y-58354819D02*
X199808095Y-58354819D01*
X199808095Y-58354819D02*
X199903333Y-58402438D01*
X199903333Y-58402438D02*
X199950952Y-58450057D01*
X199950952Y-58450057D02*
X199998571Y-58545295D01*
X199998571Y-58545295D02*
X199998571Y-58592914D01*
X199998571Y-58592914D02*
X199950952Y-58688152D01*
X199950952Y-58688152D02*
X199903333Y-58735771D01*
X199903333Y-58735771D02*
X199808095Y-58783390D01*
X199808095Y-58783390D02*
X199617619Y-58783390D01*
X199617619Y-58783390D02*
X199522381Y-58831009D01*
X199522381Y-58831009D02*
X199474762Y-58878628D01*
X199474762Y-58878628D02*
X199427143Y-58973866D01*
X199427143Y-58973866D02*
X199427143Y-59164342D01*
X199427143Y-59164342D02*
X199474762Y-59259580D01*
X199474762Y-59259580D02*
X199522381Y-59307200D01*
X199522381Y-59307200D02*
X199617619Y-59354819D01*
X199617619Y-59354819D02*
X199808095Y-59354819D01*
X199808095Y-59354819D02*
X199903333Y-59307200D01*
X199903333Y-59307200D02*
X199950952Y-59259580D01*
X199950952Y-59259580D02*
X199998571Y-59164342D01*
X199998571Y-59164342D02*
X199998571Y-58973866D01*
X199998571Y-58973866D02*
X199950952Y-58878628D01*
X199950952Y-58878628D02*
X199903333Y-58831009D01*
X199903333Y-58831009D02*
X199808095Y-58783390D01*
X200903333Y-58354819D02*
X200427143Y-58354819D01*
X200427143Y-58354819D02*
X200379524Y-58831009D01*
X200379524Y-58831009D02*
X200427143Y-58783390D01*
X200427143Y-58783390D02*
X200522381Y-58735771D01*
X200522381Y-58735771D02*
X200760476Y-58735771D01*
X200760476Y-58735771D02*
X200855714Y-58783390D01*
X200855714Y-58783390D02*
X200903333Y-58831009D01*
X200903333Y-58831009D02*
X200950952Y-58926247D01*
X200950952Y-58926247D02*
X200950952Y-59164342D01*
X200950952Y-59164342D02*
X200903333Y-59259580D01*
X200903333Y-59259580D02*
X200855714Y-59307200D01*
X200855714Y-59307200D02*
X200760476Y-59354819D01*
X200760476Y-59354819D02*
X200522381Y-59354819D01*
X200522381Y-59354819D02*
X200427143Y-59307200D01*
X200427143Y-59307200D02*
X200379524Y-59259580D01*
X201855714Y-58354819D02*
X201379524Y-58354819D01*
X201379524Y-58354819D02*
X201331905Y-58831009D01*
X201331905Y-58831009D02*
X201379524Y-58783390D01*
X201379524Y-58783390D02*
X201474762Y-58735771D01*
X201474762Y-58735771D02*
X201712857Y-58735771D01*
X201712857Y-58735771D02*
X201808095Y-58783390D01*
X201808095Y-58783390D02*
X201855714Y-58831009D01*
X201855714Y-58831009D02*
X201903333Y-58926247D01*
X201903333Y-58926247D02*
X201903333Y-59164342D01*
X201903333Y-59164342D02*
X201855714Y-59259580D01*
X201855714Y-59259580D02*
X201808095Y-59307200D01*
X201808095Y-59307200D02*
X201712857Y-59354819D01*
X201712857Y-59354819D02*
X201474762Y-59354819D01*
X201474762Y-59354819D02*
X201379524Y-59307200D01*
X201379524Y-59307200D02*
X201331905Y-59259580D01*
X202331905Y-59354819D02*
X202331905Y-58354819D01*
X202903333Y-59354819D02*
X202474762Y-58783390D01*
X202903333Y-58354819D02*
X202331905Y-58926247D01*
X203284286Y-59069104D02*
X203760476Y-59069104D01*
X203189048Y-59354819D02*
X203522381Y-58354819D01*
X203522381Y-58354819D02*
X203855714Y-59354819D01*
X204141429Y-59307200D02*
X204284286Y-59354819D01*
X204284286Y-59354819D02*
X204522381Y-59354819D01*
X204522381Y-59354819D02*
X204617619Y-59307200D01*
X204617619Y-59307200D02*
X204665238Y-59259580D01*
X204665238Y-59259580D02*
X204712857Y-59164342D01*
X204712857Y-59164342D02*
X204712857Y-59069104D01*
X204712857Y-59069104D02*
X204665238Y-58973866D01*
X204665238Y-58973866D02*
X204617619Y-58926247D01*
X204617619Y-58926247D02*
X204522381Y-58878628D01*
X204522381Y-58878628D02*
X204331905Y-58831009D01*
X204331905Y-58831009D02*
X204236667Y-58783390D01*
X204236667Y-58783390D02*
X204189048Y-58735771D01*
X204189048Y-58735771D02*
X204141429Y-58640533D01*
X204141429Y-58640533D02*
X204141429Y-58545295D01*
X204141429Y-58545295D02*
X204189048Y-58450057D01*
X204189048Y-58450057D02*
X204236667Y-58402438D01*
X204236667Y-58402438D02*
X204331905Y-58354819D01*
X204331905Y-58354819D02*
X204570000Y-58354819D01*
X204570000Y-58354819D02*
X204712857Y-58402438D01*
X205093810Y-59069104D02*
X205570000Y-59069104D01*
X204998572Y-59354819D02*
X205331905Y-58354819D01*
X205331905Y-58354819D02*
X205665238Y-59354819D01*
D10*
X53041666Y-80957419D02*
X53041666Y-81671704D01*
X53041666Y-81671704D02*
X52994047Y-81814561D01*
X52994047Y-81814561D02*
X52898809Y-81909800D01*
X52898809Y-81909800D02*
X52755952Y-81957419D01*
X52755952Y-81957419D02*
X52660714Y-81957419D01*
X54041666Y-81957419D02*
X53470238Y-81957419D01*
X53755952Y-81957419D02*
X53755952Y-80957419D01*
X53755952Y-80957419D02*
X53660714Y-81100276D01*
X53660714Y-81100276D02*
X53565476Y-81195514D01*
X53565476Y-81195514D02*
X53470238Y-81243133D01*
X59964598Y-84253371D02*
X59916979Y-84205752D01*
X59916979Y-84205752D02*
X59821741Y-84062895D01*
X59821741Y-84062895D02*
X59774122Y-83967657D01*
X59774122Y-83967657D02*
X59726503Y-83824800D01*
X59726503Y-83824800D02*
X59678884Y-83586704D01*
X59678884Y-83586704D02*
X59678884Y-83396228D01*
X59678884Y-83396228D02*
X59726503Y-83158133D01*
X59726503Y-83158133D02*
X59774122Y-83015276D01*
X59774122Y-83015276D02*
X59821741Y-82920038D01*
X59821741Y-82920038D02*
X59916979Y-82777180D01*
X59916979Y-82777180D02*
X59964598Y-82729561D01*
X60678884Y-83348609D02*
X60821741Y-83396228D01*
X60821741Y-83396228D02*
X60869360Y-83443847D01*
X60869360Y-83443847D02*
X60916979Y-83539085D01*
X60916979Y-83539085D02*
X60916979Y-83681942D01*
X60916979Y-83681942D02*
X60869360Y-83777180D01*
X60869360Y-83777180D02*
X60821741Y-83824800D01*
X60821741Y-83824800D02*
X60726503Y-83872419D01*
X60726503Y-83872419D02*
X60345551Y-83872419D01*
X60345551Y-83872419D02*
X60345551Y-82872419D01*
X60345551Y-82872419D02*
X60678884Y-82872419D01*
X60678884Y-82872419D02*
X60774122Y-82920038D01*
X60774122Y-82920038D02*
X60821741Y-82967657D01*
X60821741Y-82967657D02*
X60869360Y-83062895D01*
X60869360Y-83062895D02*
X60869360Y-83158133D01*
X60869360Y-83158133D02*
X60821741Y-83253371D01*
X60821741Y-83253371D02*
X60774122Y-83300990D01*
X60774122Y-83300990D02*
X60678884Y-83348609D01*
X60678884Y-83348609D02*
X60345551Y-83348609D01*
X61488408Y-83872419D02*
X61393170Y-83824800D01*
X61393170Y-83824800D02*
X61345551Y-83729561D01*
X61345551Y-83729561D02*
X61345551Y-82872419D01*
X62297932Y-83205752D02*
X62297932Y-83872419D01*
X61869361Y-83205752D02*
X61869361Y-83729561D01*
X61869361Y-83729561D02*
X61916980Y-83824800D01*
X61916980Y-83824800D02*
X62012218Y-83872419D01*
X62012218Y-83872419D02*
X62155075Y-83872419D01*
X62155075Y-83872419D02*
X62250313Y-83824800D01*
X62250313Y-83824800D02*
X62297932Y-83777180D01*
X63155075Y-83824800D02*
X63059837Y-83872419D01*
X63059837Y-83872419D02*
X62869361Y-83872419D01*
X62869361Y-83872419D02*
X62774123Y-83824800D01*
X62774123Y-83824800D02*
X62726504Y-83729561D01*
X62726504Y-83729561D02*
X62726504Y-83348609D01*
X62726504Y-83348609D02*
X62774123Y-83253371D01*
X62774123Y-83253371D02*
X62869361Y-83205752D01*
X62869361Y-83205752D02*
X63059837Y-83205752D01*
X63059837Y-83205752D02*
X63155075Y-83253371D01*
X63155075Y-83253371D02*
X63202694Y-83348609D01*
X63202694Y-83348609D02*
X63202694Y-83443847D01*
X63202694Y-83443847D02*
X62726504Y-83539085D01*
X63536028Y-84253371D02*
X63583647Y-84205752D01*
X63583647Y-84205752D02*
X63678885Y-84062895D01*
X63678885Y-84062895D02*
X63726504Y-83967657D01*
X63726504Y-83967657D02*
X63774123Y-83824800D01*
X63774123Y-83824800D02*
X63821742Y-83586704D01*
X63821742Y-83586704D02*
X63821742Y-83396228D01*
X63821742Y-83396228D02*
X63774123Y-83158133D01*
X63774123Y-83158133D02*
X63726504Y-83015276D01*
X63726504Y-83015276D02*
X63678885Y-82920038D01*
X63678885Y-82920038D02*
X63583647Y-82777180D01*
X63583647Y-82777180D02*
X63536028Y-82729561D01*
X48452693Y-79872419D02*
X47881265Y-79872419D01*
X48166979Y-79872419D02*
X48166979Y-78872419D01*
X48166979Y-78872419D02*
X48071741Y-79015276D01*
X48071741Y-79015276D02*
X47976503Y-79110514D01*
X47976503Y-79110514D02*
X47881265Y-79158133D01*
X49071741Y-78872419D02*
X49166979Y-78872419D01*
X49166979Y-78872419D02*
X49262217Y-78920038D01*
X49262217Y-78920038D02*
X49309836Y-78967657D01*
X49309836Y-78967657D02*
X49357455Y-79062895D01*
X49357455Y-79062895D02*
X49405074Y-79253371D01*
X49405074Y-79253371D02*
X49405074Y-79491466D01*
X49405074Y-79491466D02*
X49357455Y-79681942D01*
X49357455Y-79681942D02*
X49309836Y-79777180D01*
X49309836Y-79777180D02*
X49262217Y-79824800D01*
X49262217Y-79824800D02*
X49166979Y-79872419D01*
X49166979Y-79872419D02*
X49071741Y-79872419D01*
X49071741Y-79872419D02*
X48976503Y-79824800D01*
X48976503Y-79824800D02*
X48928884Y-79777180D01*
X48928884Y-79777180D02*
X48881265Y-79681942D01*
X48881265Y-79681942D02*
X48833646Y-79491466D01*
X48833646Y-79491466D02*
X48833646Y-79253371D01*
X48833646Y-79253371D02*
X48881265Y-79062895D01*
X48881265Y-79062895D02*
X48928884Y-78967657D01*
X48928884Y-78967657D02*
X48976503Y-78920038D01*
X48976503Y-78920038D02*
X49071741Y-78872419D01*
X50024122Y-78872419D02*
X50119360Y-78872419D01*
X50119360Y-78872419D02*
X50214598Y-78920038D01*
X50214598Y-78920038D02*
X50262217Y-78967657D01*
X50262217Y-78967657D02*
X50309836Y-79062895D01*
X50309836Y-79062895D02*
X50357455Y-79253371D01*
X50357455Y-79253371D02*
X50357455Y-79491466D01*
X50357455Y-79491466D02*
X50309836Y-79681942D01*
X50309836Y-79681942D02*
X50262217Y-79777180D01*
X50262217Y-79777180D02*
X50214598Y-79824800D01*
X50214598Y-79824800D02*
X50119360Y-79872419D01*
X50119360Y-79872419D02*
X50024122Y-79872419D01*
X50024122Y-79872419D02*
X49928884Y-79824800D01*
X49928884Y-79824800D02*
X49881265Y-79777180D01*
X49881265Y-79777180D02*
X49833646Y-79681942D01*
X49833646Y-79681942D02*
X49786027Y-79491466D01*
X49786027Y-79491466D02*
X49786027Y-79253371D01*
X49786027Y-79253371D02*
X49833646Y-79062895D01*
X49833646Y-79062895D02*
X49881265Y-78967657D01*
X49881265Y-78967657D02*
X49928884Y-78920038D01*
X49928884Y-78920038D02*
X50024122Y-78872419D01*
X50643170Y-79491466D02*
X50690789Y-79443847D01*
X50690789Y-79443847D02*
X50786027Y-79396228D01*
X50786027Y-79396228D02*
X50976503Y-79491466D01*
X50976503Y-79491466D02*
X51071741Y-79443847D01*
X51071741Y-79443847D02*
X51119360Y-79396228D01*
X51405075Y-78872419D02*
X52024122Y-78872419D01*
X52024122Y-78872419D02*
X51690789Y-79253371D01*
X51690789Y-79253371D02*
X51833646Y-79253371D01*
X51833646Y-79253371D02*
X51928884Y-79300990D01*
X51928884Y-79300990D02*
X51976503Y-79348609D01*
X51976503Y-79348609D02*
X52024122Y-79443847D01*
X52024122Y-79443847D02*
X52024122Y-79681942D01*
X52024122Y-79681942D02*
X51976503Y-79777180D01*
X51976503Y-79777180D02*
X51928884Y-79824800D01*
X51928884Y-79824800D02*
X51833646Y-79872419D01*
X51833646Y-79872419D02*
X51547932Y-79872419D01*
X51547932Y-79872419D02*
X51452694Y-79824800D01*
X51452694Y-79824800D02*
X51405075Y-79777180D01*
X52643170Y-78872419D02*
X52738408Y-78872419D01*
X52738408Y-78872419D02*
X52833646Y-78920038D01*
X52833646Y-78920038D02*
X52881265Y-78967657D01*
X52881265Y-78967657D02*
X52928884Y-79062895D01*
X52928884Y-79062895D02*
X52976503Y-79253371D01*
X52976503Y-79253371D02*
X52976503Y-79491466D01*
X52976503Y-79491466D02*
X52928884Y-79681942D01*
X52928884Y-79681942D02*
X52881265Y-79777180D01*
X52881265Y-79777180D02*
X52833646Y-79824800D01*
X52833646Y-79824800D02*
X52738408Y-79872419D01*
X52738408Y-79872419D02*
X52643170Y-79872419D01*
X52643170Y-79872419D02*
X52547932Y-79824800D01*
X52547932Y-79824800D02*
X52500313Y-79777180D01*
X52500313Y-79777180D02*
X52452694Y-79681942D01*
X52452694Y-79681942D02*
X52405075Y-79491466D01*
X52405075Y-79491466D02*
X52405075Y-79253371D01*
X52405075Y-79253371D02*
X52452694Y-79062895D01*
X52452694Y-79062895D02*
X52500313Y-78967657D01*
X52500313Y-78967657D02*
X52547932Y-78920038D01*
X52547932Y-78920038D02*
X52643170Y-78872419D01*
X53595551Y-78872419D02*
X53690789Y-78872419D01*
X53690789Y-78872419D02*
X53786027Y-78920038D01*
X53786027Y-78920038D02*
X53833646Y-78967657D01*
X53833646Y-78967657D02*
X53881265Y-79062895D01*
X53881265Y-79062895D02*
X53928884Y-79253371D01*
X53928884Y-79253371D02*
X53928884Y-79491466D01*
X53928884Y-79491466D02*
X53881265Y-79681942D01*
X53881265Y-79681942D02*
X53833646Y-79777180D01*
X53833646Y-79777180D02*
X53786027Y-79824800D01*
X53786027Y-79824800D02*
X53690789Y-79872419D01*
X53690789Y-79872419D02*
X53595551Y-79872419D01*
X53595551Y-79872419D02*
X53500313Y-79824800D01*
X53500313Y-79824800D02*
X53452694Y-79777180D01*
X53452694Y-79777180D02*
X53405075Y-79681942D01*
X53405075Y-79681942D02*
X53357456Y-79491466D01*
X53357456Y-79491466D02*
X53357456Y-79253371D01*
X53357456Y-79253371D02*
X53405075Y-79062895D01*
X53405075Y-79062895D02*
X53452694Y-78967657D01*
X53452694Y-78967657D02*
X53500313Y-78920038D01*
X53500313Y-78920038D02*
X53595551Y-78872419D01*
X54214599Y-78872419D02*
X54547932Y-79872419D01*
X54547932Y-79872419D02*
X54881265Y-78872419D01*
X55166980Y-79586704D02*
X55643170Y-79586704D01*
X55071742Y-79872419D02*
X55405075Y-78872419D01*
X55405075Y-78872419D02*
X55738408Y-79872419D01*
X56643170Y-79777180D02*
X56595551Y-79824800D01*
X56595551Y-79824800D02*
X56452694Y-79872419D01*
X56452694Y-79872419D02*
X56357456Y-79872419D01*
X56357456Y-79872419D02*
X56214599Y-79824800D01*
X56214599Y-79824800D02*
X56119361Y-79729561D01*
X56119361Y-79729561D02*
X56071742Y-79634323D01*
X56071742Y-79634323D02*
X56024123Y-79443847D01*
X56024123Y-79443847D02*
X56024123Y-79300990D01*
X56024123Y-79300990D02*
X56071742Y-79110514D01*
X56071742Y-79110514D02*
X56119361Y-79015276D01*
X56119361Y-79015276D02*
X56214599Y-78920038D01*
X56214599Y-78920038D02*
X56357456Y-78872419D01*
X56357456Y-78872419D02*
X56452694Y-78872419D01*
X56452694Y-78872419D02*
X56595551Y-78920038D01*
X56595551Y-78920038D02*
X56643170Y-78967657D01*
X57833647Y-79872419D02*
X57833647Y-79205752D01*
X57833647Y-78872419D02*
X57786028Y-78920038D01*
X57786028Y-78920038D02*
X57833647Y-78967657D01*
X57833647Y-78967657D02*
X57881266Y-78920038D01*
X57881266Y-78920038D02*
X57833647Y-78872419D01*
X57833647Y-78872419D02*
X57833647Y-78967657D01*
X58309837Y-79205752D02*
X58309837Y-79872419D01*
X58309837Y-79300990D02*
X58357456Y-79253371D01*
X58357456Y-79253371D02*
X58452694Y-79205752D01*
X58452694Y-79205752D02*
X58595551Y-79205752D01*
X58595551Y-79205752D02*
X58690789Y-79253371D01*
X58690789Y-79253371D02*
X58738408Y-79348609D01*
X58738408Y-79348609D02*
X58738408Y-79872419D01*
X44155074Y-77372419D02*
X43678884Y-77372419D01*
X43678884Y-77372419D02*
X43678884Y-76372419D01*
X44488408Y-77372419D02*
X44488408Y-76705752D01*
X44488408Y-76372419D02*
X44440789Y-76420038D01*
X44440789Y-76420038D02*
X44488408Y-76467657D01*
X44488408Y-76467657D02*
X44536027Y-76420038D01*
X44536027Y-76420038D02*
X44488408Y-76372419D01*
X44488408Y-76372419D02*
X44488408Y-76467657D01*
X44869360Y-76705752D02*
X45107455Y-77372419D01*
X45107455Y-77372419D02*
X45345550Y-76705752D01*
X46107455Y-77324800D02*
X46012217Y-77372419D01*
X46012217Y-77372419D02*
X45821741Y-77372419D01*
X45821741Y-77372419D02*
X45726503Y-77324800D01*
X45726503Y-77324800D02*
X45678884Y-77229561D01*
X45678884Y-77229561D02*
X45678884Y-76848609D01*
X45678884Y-76848609D02*
X45726503Y-76753371D01*
X45726503Y-76753371D02*
X45821741Y-76705752D01*
X45821741Y-76705752D02*
X46012217Y-76705752D01*
X46012217Y-76705752D02*
X46107455Y-76753371D01*
X46107455Y-76753371D02*
X46155074Y-76848609D01*
X46155074Y-76848609D02*
X46155074Y-76943847D01*
X46155074Y-76943847D02*
X45678884Y-77039085D01*
X59678884Y-77872419D02*
X59678884Y-76872419D01*
X59678884Y-76872419D02*
X60250312Y-77872419D01*
X60250312Y-77872419D02*
X60250312Y-76872419D01*
X61107455Y-77824800D02*
X61012217Y-77872419D01*
X61012217Y-77872419D02*
X60821741Y-77872419D01*
X60821741Y-77872419D02*
X60726503Y-77824800D01*
X60726503Y-77824800D02*
X60678884Y-77729561D01*
X60678884Y-77729561D02*
X60678884Y-77348609D01*
X60678884Y-77348609D02*
X60726503Y-77253371D01*
X60726503Y-77253371D02*
X60821741Y-77205752D01*
X60821741Y-77205752D02*
X61012217Y-77205752D01*
X61012217Y-77205752D02*
X61107455Y-77253371D01*
X61107455Y-77253371D02*
X61155074Y-77348609D01*
X61155074Y-77348609D02*
X61155074Y-77443847D01*
X61155074Y-77443847D02*
X60678884Y-77539085D01*
X62012217Y-77205752D02*
X62012217Y-77872419D01*
X61583646Y-77205752D02*
X61583646Y-77729561D01*
X61583646Y-77729561D02*
X61631265Y-77824800D01*
X61631265Y-77824800D02*
X61726503Y-77872419D01*
X61726503Y-77872419D02*
X61869360Y-77872419D01*
X61869360Y-77872419D02*
X61964598Y-77824800D01*
X61964598Y-77824800D02*
X62012217Y-77777180D01*
X62345551Y-77205752D02*
X62726503Y-77205752D01*
X62488408Y-76872419D02*
X62488408Y-77729561D01*
X62488408Y-77729561D02*
X62536027Y-77824800D01*
X62536027Y-77824800D02*
X62631265Y-77872419D01*
X62631265Y-77872419D02*
X62726503Y-77872419D01*
X63059837Y-77872419D02*
X63059837Y-77205752D01*
X63059837Y-77396228D02*
X63107456Y-77300990D01*
X63107456Y-77300990D02*
X63155075Y-77253371D01*
X63155075Y-77253371D02*
X63250313Y-77205752D01*
X63250313Y-77205752D02*
X63345551Y-77205752D01*
X64107456Y-77872419D02*
X64107456Y-77348609D01*
X64107456Y-77348609D02*
X64059837Y-77253371D01*
X64059837Y-77253371D02*
X63964599Y-77205752D01*
X63964599Y-77205752D02*
X63774123Y-77205752D01*
X63774123Y-77205752D02*
X63678885Y-77253371D01*
X64107456Y-77824800D02*
X64012218Y-77872419D01*
X64012218Y-77872419D02*
X63774123Y-77872419D01*
X63774123Y-77872419D02*
X63678885Y-77824800D01*
X63678885Y-77824800D02*
X63631266Y-77729561D01*
X63631266Y-77729561D02*
X63631266Y-77634323D01*
X63631266Y-77634323D02*
X63678885Y-77539085D01*
X63678885Y-77539085D02*
X63774123Y-77491466D01*
X63774123Y-77491466D02*
X64012218Y-77491466D01*
X64012218Y-77491466D02*
X64107456Y-77443847D01*
X64726504Y-77872419D02*
X64631266Y-77824800D01*
X64631266Y-77824800D02*
X64583647Y-77729561D01*
X64583647Y-77729561D02*
X64583647Y-76872419D01*
X42464598Y-84253371D02*
X42416979Y-84205752D01*
X42416979Y-84205752D02*
X42321741Y-84062895D01*
X42321741Y-84062895D02*
X42274122Y-83967657D01*
X42274122Y-83967657D02*
X42226503Y-83824800D01*
X42226503Y-83824800D02*
X42178884Y-83586704D01*
X42178884Y-83586704D02*
X42178884Y-83396228D01*
X42178884Y-83396228D02*
X42226503Y-83158133D01*
X42226503Y-83158133D02*
X42274122Y-83015276D01*
X42274122Y-83015276D02*
X42321741Y-82920038D01*
X42321741Y-82920038D02*
X42416979Y-82777180D01*
X42416979Y-82777180D02*
X42464598Y-82729561D01*
X43178884Y-83348609D02*
X43321741Y-83396228D01*
X43321741Y-83396228D02*
X43369360Y-83443847D01*
X43369360Y-83443847D02*
X43416979Y-83539085D01*
X43416979Y-83539085D02*
X43416979Y-83681942D01*
X43416979Y-83681942D02*
X43369360Y-83777180D01*
X43369360Y-83777180D02*
X43321741Y-83824800D01*
X43321741Y-83824800D02*
X43226503Y-83872419D01*
X43226503Y-83872419D02*
X42845551Y-83872419D01*
X42845551Y-83872419D02*
X42845551Y-82872419D01*
X42845551Y-82872419D02*
X43178884Y-82872419D01*
X43178884Y-82872419D02*
X43274122Y-82920038D01*
X43274122Y-82920038D02*
X43321741Y-82967657D01*
X43321741Y-82967657D02*
X43369360Y-83062895D01*
X43369360Y-83062895D02*
X43369360Y-83158133D01*
X43369360Y-83158133D02*
X43321741Y-83253371D01*
X43321741Y-83253371D02*
X43274122Y-83300990D01*
X43274122Y-83300990D02*
X43178884Y-83348609D01*
X43178884Y-83348609D02*
X42845551Y-83348609D01*
X43845551Y-83872419D02*
X43845551Y-83205752D01*
X43845551Y-83396228D02*
X43893170Y-83300990D01*
X43893170Y-83300990D02*
X43940789Y-83253371D01*
X43940789Y-83253371D02*
X44036027Y-83205752D01*
X44036027Y-83205752D02*
X44131265Y-83205752D01*
X44607456Y-83872419D02*
X44512218Y-83824800D01*
X44512218Y-83824800D02*
X44464599Y-83777180D01*
X44464599Y-83777180D02*
X44416980Y-83681942D01*
X44416980Y-83681942D02*
X44416980Y-83396228D01*
X44416980Y-83396228D02*
X44464599Y-83300990D01*
X44464599Y-83300990D02*
X44512218Y-83253371D01*
X44512218Y-83253371D02*
X44607456Y-83205752D01*
X44607456Y-83205752D02*
X44750313Y-83205752D01*
X44750313Y-83205752D02*
X44845551Y-83253371D01*
X44845551Y-83253371D02*
X44893170Y-83300990D01*
X44893170Y-83300990D02*
X44940789Y-83396228D01*
X44940789Y-83396228D02*
X44940789Y-83681942D01*
X44940789Y-83681942D02*
X44893170Y-83777180D01*
X44893170Y-83777180D02*
X44845551Y-83824800D01*
X44845551Y-83824800D02*
X44750313Y-83872419D01*
X44750313Y-83872419D02*
X44607456Y-83872419D01*
X45274123Y-83205752D02*
X45464599Y-83872419D01*
X45464599Y-83872419D02*
X45655075Y-83396228D01*
X45655075Y-83396228D02*
X45845551Y-83872419D01*
X45845551Y-83872419D02*
X46036027Y-83205752D01*
X46416980Y-83205752D02*
X46416980Y-83872419D01*
X46416980Y-83300990D02*
X46464599Y-83253371D01*
X46464599Y-83253371D02*
X46559837Y-83205752D01*
X46559837Y-83205752D02*
X46702694Y-83205752D01*
X46702694Y-83205752D02*
X46797932Y-83253371D01*
X46797932Y-83253371D02*
X46845551Y-83348609D01*
X46845551Y-83348609D02*
X46845551Y-83872419D01*
X47226504Y-84253371D02*
X47274123Y-84205752D01*
X47274123Y-84205752D02*
X47369361Y-84062895D01*
X47369361Y-84062895D02*
X47416980Y-83967657D01*
X47416980Y-83967657D02*
X47464599Y-83824800D01*
X47464599Y-83824800D02*
X47512218Y-83586704D01*
X47512218Y-83586704D02*
X47512218Y-83396228D01*
X47512218Y-83396228D02*
X47464599Y-83158133D01*
X47464599Y-83158133D02*
X47416980Y-83015276D01*
X47416980Y-83015276D02*
X47369361Y-82920038D01*
X47369361Y-82920038D02*
X47274123Y-82777180D01*
X47274123Y-82777180D02*
X47226504Y-82729561D01*
D13*
X199349819Y-101756904D02*
X200159342Y-101756904D01*
X200159342Y-101756904D02*
X200254580Y-101709285D01*
X200254580Y-101709285D02*
X200302200Y-101661666D01*
X200302200Y-101661666D02*
X200349819Y-101566428D01*
X200349819Y-101566428D02*
X200349819Y-101375952D01*
X200349819Y-101375952D02*
X200302200Y-101280714D01*
X200302200Y-101280714D02*
X200254580Y-101233095D01*
X200254580Y-101233095D02*
X200159342Y-101185476D01*
X200159342Y-101185476D02*
X199349819Y-101185476D01*
X199349819Y-100804523D02*
X199349819Y-100185476D01*
X199349819Y-100185476D02*
X199730771Y-100518809D01*
X199730771Y-100518809D02*
X199730771Y-100375952D01*
X199730771Y-100375952D02*
X199778390Y-100280714D01*
X199778390Y-100280714D02*
X199826009Y-100233095D01*
X199826009Y-100233095D02*
X199921247Y-100185476D01*
X199921247Y-100185476D02*
X200159342Y-100185476D01*
X200159342Y-100185476D02*
X200254580Y-100233095D01*
X200254580Y-100233095D02*
X200302200Y-100280714D01*
X200302200Y-100280714D02*
X200349819Y-100375952D01*
X200349819Y-100375952D02*
X200349819Y-100661666D01*
X200349819Y-100661666D02*
X200302200Y-100756904D01*
X200302200Y-100756904D02*
X200254580Y-100804523D01*
X207549819Y-103185475D02*
X206549819Y-103185475D01*
X206549819Y-103185475D02*
X206549819Y-102804523D01*
X206549819Y-102804523D02*
X206597438Y-102709285D01*
X206597438Y-102709285D02*
X206645057Y-102661666D01*
X206645057Y-102661666D02*
X206740295Y-102614047D01*
X206740295Y-102614047D02*
X206883152Y-102614047D01*
X206883152Y-102614047D02*
X206978390Y-102661666D01*
X206978390Y-102661666D02*
X207026009Y-102709285D01*
X207026009Y-102709285D02*
X207073628Y-102804523D01*
X207073628Y-102804523D02*
X207073628Y-103185475D01*
X207454580Y-101614047D02*
X207502200Y-101661666D01*
X207502200Y-101661666D02*
X207549819Y-101804523D01*
X207549819Y-101804523D02*
X207549819Y-101899761D01*
X207549819Y-101899761D02*
X207502200Y-102042618D01*
X207502200Y-102042618D02*
X207406961Y-102137856D01*
X207406961Y-102137856D02*
X207311723Y-102185475D01*
X207311723Y-102185475D02*
X207121247Y-102233094D01*
X207121247Y-102233094D02*
X206978390Y-102233094D01*
X206978390Y-102233094D02*
X206787914Y-102185475D01*
X206787914Y-102185475D02*
X206692676Y-102137856D01*
X206692676Y-102137856D02*
X206597438Y-102042618D01*
X206597438Y-102042618D02*
X206549819Y-101899761D01*
X206549819Y-101899761D02*
X206549819Y-101804523D01*
X206549819Y-101804523D02*
X206597438Y-101661666D01*
X206597438Y-101661666D02*
X206645057Y-101614047D01*
X206978390Y-101042618D02*
X206930771Y-101137856D01*
X206930771Y-101137856D02*
X206883152Y-101185475D01*
X206883152Y-101185475D02*
X206787914Y-101233094D01*
X206787914Y-101233094D02*
X206740295Y-101233094D01*
X206740295Y-101233094D02*
X206645057Y-101185475D01*
X206645057Y-101185475D02*
X206597438Y-101137856D01*
X206597438Y-101137856D02*
X206549819Y-101042618D01*
X206549819Y-101042618D02*
X206549819Y-100852142D01*
X206549819Y-100852142D02*
X206597438Y-100756904D01*
X206597438Y-100756904D02*
X206645057Y-100709285D01*
X206645057Y-100709285D02*
X206740295Y-100661666D01*
X206740295Y-100661666D02*
X206787914Y-100661666D01*
X206787914Y-100661666D02*
X206883152Y-100709285D01*
X206883152Y-100709285D02*
X206930771Y-100756904D01*
X206930771Y-100756904D02*
X206978390Y-100852142D01*
X206978390Y-100852142D02*
X206978390Y-101042618D01*
X206978390Y-101042618D02*
X207026009Y-101137856D01*
X207026009Y-101137856D02*
X207073628Y-101185475D01*
X207073628Y-101185475D02*
X207168866Y-101233094D01*
X207168866Y-101233094D02*
X207359342Y-101233094D01*
X207359342Y-101233094D02*
X207454580Y-101185475D01*
X207454580Y-101185475D02*
X207502200Y-101137856D01*
X207502200Y-101137856D02*
X207549819Y-101042618D01*
X207549819Y-101042618D02*
X207549819Y-100852142D01*
X207549819Y-100852142D02*
X207502200Y-100756904D01*
X207502200Y-100756904D02*
X207454580Y-100709285D01*
X207454580Y-100709285D02*
X207359342Y-100661666D01*
X207359342Y-100661666D02*
X207168866Y-100661666D01*
X207168866Y-100661666D02*
X207073628Y-100709285D01*
X207073628Y-100709285D02*
X207026009Y-100756904D01*
X207026009Y-100756904D02*
X206978390Y-100852142D01*
X207549819Y-99709285D02*
X207549819Y-100280713D01*
X207549819Y-99994999D02*
X206549819Y-99994999D01*
X206549819Y-99994999D02*
X206692676Y-100090237D01*
X206692676Y-100090237D02*
X206787914Y-100185475D01*
X206787914Y-100185475D02*
X206835533Y-100280713D01*
X206549819Y-99375951D02*
X206549819Y-98709285D01*
X206549819Y-98709285D02*
X207549819Y-99137856D01*
X173824819Y-99666666D02*
X173348628Y-99999999D01*
X173824819Y-100238094D02*
X172824819Y-100238094D01*
X172824819Y-100238094D02*
X172824819Y-99857142D01*
X172824819Y-99857142D02*
X172872438Y-99761904D01*
X172872438Y-99761904D02*
X172920057Y-99714285D01*
X172920057Y-99714285D02*
X173015295Y-99666666D01*
X173015295Y-99666666D02*
X173158152Y-99666666D01*
X173158152Y-99666666D02*
X173253390Y-99714285D01*
X173253390Y-99714285D02*
X173301009Y-99761904D01*
X173301009Y-99761904D02*
X173348628Y-99857142D01*
X173348628Y-99857142D02*
X173348628Y-100238094D01*
X172920057Y-99285713D02*
X172872438Y-99238094D01*
X172872438Y-99238094D02*
X172824819Y-99142856D01*
X172824819Y-99142856D02*
X172824819Y-98904761D01*
X172824819Y-98904761D02*
X172872438Y-98809523D01*
X172872438Y-98809523D02*
X172920057Y-98761904D01*
X172920057Y-98761904D02*
X173015295Y-98714285D01*
X173015295Y-98714285D02*
X173110533Y-98714285D01*
X173110533Y-98714285D02*
X173253390Y-98761904D01*
X173253390Y-98761904D02*
X173824819Y-99333332D01*
X173824819Y-99333332D02*
X173824819Y-98714285D01*
X168513390Y-103071428D02*
X168465771Y-103166666D01*
X168465771Y-103166666D02*
X168418152Y-103214285D01*
X168418152Y-103214285D02*
X168322914Y-103261904D01*
X168322914Y-103261904D02*
X168275295Y-103261904D01*
X168275295Y-103261904D02*
X168180057Y-103214285D01*
X168180057Y-103214285D02*
X168132438Y-103166666D01*
X168132438Y-103166666D02*
X168084819Y-103071428D01*
X168084819Y-103071428D02*
X168084819Y-102880952D01*
X168084819Y-102880952D02*
X168132438Y-102785714D01*
X168132438Y-102785714D02*
X168180057Y-102738095D01*
X168180057Y-102738095D02*
X168275295Y-102690476D01*
X168275295Y-102690476D02*
X168322914Y-102690476D01*
X168322914Y-102690476D02*
X168418152Y-102738095D01*
X168418152Y-102738095D02*
X168465771Y-102785714D01*
X168465771Y-102785714D02*
X168513390Y-102880952D01*
X168513390Y-102880952D02*
X168513390Y-103071428D01*
X168513390Y-103071428D02*
X168561009Y-103166666D01*
X168561009Y-103166666D02*
X168608628Y-103214285D01*
X168608628Y-103214285D02*
X168703866Y-103261904D01*
X168703866Y-103261904D02*
X168894342Y-103261904D01*
X168894342Y-103261904D02*
X168989580Y-103214285D01*
X168989580Y-103214285D02*
X169037200Y-103166666D01*
X169037200Y-103166666D02*
X169084819Y-103071428D01*
X169084819Y-103071428D02*
X169084819Y-102880952D01*
X169084819Y-102880952D02*
X169037200Y-102785714D01*
X169037200Y-102785714D02*
X168989580Y-102738095D01*
X168989580Y-102738095D02*
X168894342Y-102690476D01*
X168894342Y-102690476D02*
X168703866Y-102690476D01*
X168703866Y-102690476D02*
X168608628Y-102738095D01*
X168608628Y-102738095D02*
X168561009Y-102785714D01*
X168561009Y-102785714D02*
X168513390Y-102880952D01*
X168084819Y-102071428D02*
X168084819Y-101976190D01*
X168084819Y-101976190D02*
X168132438Y-101880952D01*
X168132438Y-101880952D02*
X168180057Y-101833333D01*
X168180057Y-101833333D02*
X168275295Y-101785714D01*
X168275295Y-101785714D02*
X168465771Y-101738095D01*
X168465771Y-101738095D02*
X168703866Y-101738095D01*
X168703866Y-101738095D02*
X168894342Y-101785714D01*
X168894342Y-101785714D02*
X168989580Y-101833333D01*
X168989580Y-101833333D02*
X169037200Y-101880952D01*
X169037200Y-101880952D02*
X169084819Y-101976190D01*
X169084819Y-101976190D02*
X169084819Y-102071428D01*
X169084819Y-102071428D02*
X169037200Y-102166666D01*
X169037200Y-102166666D02*
X168989580Y-102214285D01*
X168989580Y-102214285D02*
X168894342Y-102261904D01*
X168894342Y-102261904D02*
X168703866Y-102309523D01*
X168703866Y-102309523D02*
X168465771Y-102309523D01*
X168465771Y-102309523D02*
X168275295Y-102261904D01*
X168275295Y-102261904D02*
X168180057Y-102214285D01*
X168180057Y-102214285D02*
X168132438Y-102166666D01*
X168132438Y-102166666D02*
X168084819Y-102071428D01*
X168703866Y-101309523D02*
X168703866Y-100547619D01*
X169084819Y-99547619D02*
X169084819Y-100119047D01*
X169084819Y-99833333D02*
X168084819Y-99833333D01*
X168084819Y-99833333D02*
X168227676Y-99928571D01*
X168227676Y-99928571D02*
X168322914Y-100023809D01*
X168322914Y-100023809D02*
X168370533Y-100119047D01*
X168084819Y-98928571D02*
X168084819Y-98833333D01*
X168084819Y-98833333D02*
X168132438Y-98738095D01*
X168132438Y-98738095D02*
X168180057Y-98690476D01*
X168180057Y-98690476D02*
X168275295Y-98642857D01*
X168275295Y-98642857D02*
X168465771Y-98595238D01*
X168465771Y-98595238D02*
X168703866Y-98595238D01*
X168703866Y-98595238D02*
X168894342Y-98642857D01*
X168894342Y-98642857D02*
X168989580Y-98690476D01*
X168989580Y-98690476D02*
X169037200Y-98738095D01*
X169037200Y-98738095D02*
X169084819Y-98833333D01*
X169084819Y-98833333D02*
X169084819Y-98928571D01*
X169084819Y-98928571D02*
X169037200Y-99023809D01*
X169037200Y-99023809D02*
X168989580Y-99071428D01*
X168989580Y-99071428D02*
X168894342Y-99119047D01*
X168894342Y-99119047D02*
X168703866Y-99166666D01*
X168703866Y-99166666D02*
X168465771Y-99166666D01*
X168465771Y-99166666D02*
X168275295Y-99119047D01*
X168275295Y-99119047D02*
X168180057Y-99071428D01*
X168180057Y-99071428D02*
X168132438Y-99023809D01*
X168132438Y-99023809D02*
X168084819Y-98928571D01*
X168084819Y-97976190D02*
X168084819Y-97880952D01*
X168084819Y-97880952D02*
X168132438Y-97785714D01*
X168132438Y-97785714D02*
X168180057Y-97738095D01*
X168180057Y-97738095D02*
X168275295Y-97690476D01*
X168275295Y-97690476D02*
X168465771Y-97642857D01*
X168465771Y-97642857D02*
X168703866Y-97642857D01*
X168703866Y-97642857D02*
X168894342Y-97690476D01*
X168894342Y-97690476D02*
X168989580Y-97738095D01*
X168989580Y-97738095D02*
X169037200Y-97785714D01*
X169037200Y-97785714D02*
X169084819Y-97880952D01*
X169084819Y-97880952D02*
X169084819Y-97976190D01*
X169084819Y-97976190D02*
X169037200Y-98071428D01*
X169037200Y-98071428D02*
X168989580Y-98119047D01*
X168989580Y-98119047D02*
X168894342Y-98166666D01*
X168894342Y-98166666D02*
X168703866Y-98214285D01*
X168703866Y-98214285D02*
X168465771Y-98214285D01*
X168465771Y-98214285D02*
X168275295Y-98166666D01*
X168275295Y-98166666D02*
X168180057Y-98119047D01*
X168180057Y-98119047D02*
X168132438Y-98071428D01*
X168132438Y-98071428D02*
X168084819Y-97976190D01*
X169084819Y-97261904D02*
X169084819Y-97023809D01*
X169084819Y-97023809D02*
X168894342Y-97023809D01*
X168894342Y-97023809D02*
X168846723Y-97119047D01*
X168846723Y-97119047D02*
X168751485Y-97214285D01*
X168751485Y-97214285D02*
X168608628Y-97261904D01*
X168608628Y-97261904D02*
X168370533Y-97261904D01*
X168370533Y-97261904D02*
X168227676Y-97214285D01*
X168227676Y-97214285D02*
X168132438Y-97119047D01*
X168132438Y-97119047D02*
X168084819Y-96976190D01*
X168084819Y-96976190D02*
X168084819Y-96785714D01*
X168084819Y-96785714D02*
X168132438Y-96642857D01*
X168132438Y-96642857D02*
X168227676Y-96547619D01*
X168227676Y-96547619D02*
X168370533Y-96500000D01*
X168370533Y-96500000D02*
X168608628Y-96500000D01*
X168608628Y-96500000D02*
X168751485Y-96547619D01*
X168751485Y-96547619D02*
X168846723Y-96642857D01*
X168846723Y-96642857D02*
X168894342Y-96738095D01*
X168894342Y-96738095D02*
X169084819Y-96738095D01*
X169084819Y-96738095D02*
X169084819Y-96500000D01*
X199903333Y-63209580D02*
X199855714Y-63257200D01*
X199855714Y-63257200D02*
X199712857Y-63304819D01*
X199712857Y-63304819D02*
X199617619Y-63304819D01*
X199617619Y-63304819D02*
X199474762Y-63257200D01*
X199474762Y-63257200D02*
X199379524Y-63161961D01*
X199379524Y-63161961D02*
X199331905Y-63066723D01*
X199331905Y-63066723D02*
X199284286Y-62876247D01*
X199284286Y-62876247D02*
X199284286Y-62733390D01*
X199284286Y-62733390D02*
X199331905Y-62542914D01*
X199331905Y-62542914D02*
X199379524Y-62447676D01*
X199379524Y-62447676D02*
X199474762Y-62352438D01*
X199474762Y-62352438D02*
X199617619Y-62304819D01*
X199617619Y-62304819D02*
X199712857Y-62304819D01*
X199712857Y-62304819D02*
X199855714Y-62352438D01*
X199855714Y-62352438D02*
X199903333Y-62400057D01*
X200284286Y-62400057D02*
X200331905Y-62352438D01*
X200331905Y-62352438D02*
X200427143Y-62304819D01*
X200427143Y-62304819D02*
X200665238Y-62304819D01*
X200665238Y-62304819D02*
X200760476Y-62352438D01*
X200760476Y-62352438D02*
X200808095Y-62400057D01*
X200808095Y-62400057D02*
X200855714Y-62495295D01*
X200855714Y-62495295D02*
X200855714Y-62590533D01*
X200855714Y-62590533D02*
X200808095Y-62733390D01*
X200808095Y-62733390D02*
X200236667Y-63304819D01*
X200236667Y-63304819D02*
X200855714Y-63304819D01*
X198998571Y-68604819D02*
X198427143Y-68604819D01*
X198712857Y-68604819D02*
X198712857Y-67604819D01*
X198712857Y-67604819D02*
X198617619Y-67747676D01*
X198617619Y-67747676D02*
X198522381Y-67842914D01*
X198522381Y-67842914D02*
X198427143Y-67890533D01*
X199617619Y-67604819D02*
X199712857Y-67604819D01*
X199712857Y-67604819D02*
X199808095Y-67652438D01*
X199808095Y-67652438D02*
X199855714Y-67700057D01*
X199855714Y-67700057D02*
X199903333Y-67795295D01*
X199903333Y-67795295D02*
X199950952Y-67985771D01*
X199950952Y-67985771D02*
X199950952Y-68223866D01*
X199950952Y-68223866D02*
X199903333Y-68414342D01*
X199903333Y-68414342D02*
X199855714Y-68509580D01*
X199855714Y-68509580D02*
X199808095Y-68557200D01*
X199808095Y-68557200D02*
X199712857Y-68604819D01*
X199712857Y-68604819D02*
X199617619Y-68604819D01*
X199617619Y-68604819D02*
X199522381Y-68557200D01*
X199522381Y-68557200D02*
X199474762Y-68509580D01*
X199474762Y-68509580D02*
X199427143Y-68414342D01*
X199427143Y-68414342D02*
X199379524Y-68223866D01*
X199379524Y-68223866D02*
X199379524Y-67985771D01*
X199379524Y-67985771D02*
X199427143Y-67795295D01*
X199427143Y-67795295D02*
X199474762Y-67700057D01*
X199474762Y-67700057D02*
X199522381Y-67652438D01*
X199522381Y-67652438D02*
X199617619Y-67604819D01*
X200379524Y-67938152D02*
X200379524Y-68604819D01*
X200379524Y-68033390D02*
X200427143Y-67985771D01*
X200427143Y-67985771D02*
X200522381Y-67938152D01*
X200522381Y-67938152D02*
X200665238Y-67938152D01*
X200665238Y-67938152D02*
X200760476Y-67985771D01*
X200760476Y-67985771D02*
X200808095Y-68081009D01*
X200808095Y-68081009D02*
X200808095Y-68604819D01*
X201617619Y-68081009D02*
X201284286Y-68081009D01*
X201284286Y-68604819D02*
X201284286Y-67604819D01*
X201284286Y-67604819D02*
X201760476Y-67604819D01*
X115190476Y-96994819D02*
X115190476Y-95994819D01*
X115190476Y-95994819D02*
X115523809Y-96709104D01*
X115523809Y-96709104D02*
X115857142Y-95994819D01*
X115857142Y-95994819D02*
X115857142Y-96994819D01*
X116285714Y-96090057D02*
X116333333Y-96042438D01*
X116333333Y-96042438D02*
X116428571Y-95994819D01*
X116428571Y-95994819D02*
X116666666Y-95994819D01*
X116666666Y-95994819D02*
X116761904Y-96042438D01*
X116761904Y-96042438D02*
X116809523Y-96090057D01*
X116809523Y-96090057D02*
X116857142Y-96185295D01*
X116857142Y-96185295D02*
X116857142Y-96280533D01*
X116857142Y-96280533D02*
X116809523Y-96423390D01*
X116809523Y-96423390D02*
X116238095Y-96994819D01*
X116238095Y-96994819D02*
X116857142Y-96994819D01*
X111738094Y-109374819D02*
X111738094Y-108374819D01*
X111738094Y-108374819D02*
X112071427Y-109089104D01*
X112071427Y-109089104D02*
X112404760Y-108374819D01*
X112404760Y-108374819D02*
X112404760Y-109374819D01*
X113023808Y-109374819D02*
X112928570Y-109327200D01*
X112928570Y-109327200D02*
X112880951Y-109279580D01*
X112880951Y-109279580D02*
X112833332Y-109184342D01*
X112833332Y-109184342D02*
X112833332Y-108898628D01*
X112833332Y-108898628D02*
X112880951Y-108803390D01*
X112880951Y-108803390D02*
X112928570Y-108755771D01*
X112928570Y-108755771D02*
X113023808Y-108708152D01*
X113023808Y-108708152D02*
X113166665Y-108708152D01*
X113166665Y-108708152D02*
X113261903Y-108755771D01*
X113261903Y-108755771D02*
X113309522Y-108803390D01*
X113309522Y-108803390D02*
X113357141Y-108898628D01*
X113357141Y-108898628D02*
X113357141Y-109184342D01*
X113357141Y-109184342D02*
X113309522Y-109279580D01*
X113309522Y-109279580D02*
X113261903Y-109327200D01*
X113261903Y-109327200D02*
X113166665Y-109374819D01*
X113166665Y-109374819D02*
X113023808Y-109374819D01*
X113642856Y-108708152D02*
X114023808Y-108708152D01*
X113785713Y-108374819D02*
X113785713Y-109231961D01*
X113785713Y-109231961D02*
X113833332Y-109327200D01*
X113833332Y-109327200D02*
X113928570Y-109374819D01*
X113928570Y-109374819D02*
X114023808Y-109374819D01*
X114499999Y-109374819D02*
X114404761Y-109327200D01*
X114404761Y-109327200D02*
X114357142Y-109279580D01*
X114357142Y-109279580D02*
X114309523Y-109184342D01*
X114309523Y-109184342D02*
X114309523Y-108898628D01*
X114309523Y-108898628D02*
X114357142Y-108803390D01*
X114357142Y-108803390D02*
X114404761Y-108755771D01*
X114404761Y-108755771D02*
X114499999Y-108708152D01*
X114499999Y-108708152D02*
X114642856Y-108708152D01*
X114642856Y-108708152D02*
X114738094Y-108755771D01*
X114738094Y-108755771D02*
X114785713Y-108803390D01*
X114785713Y-108803390D02*
X114833332Y-108898628D01*
X114833332Y-108898628D02*
X114833332Y-109184342D01*
X114833332Y-109184342D02*
X114785713Y-109279580D01*
X114785713Y-109279580D02*
X114738094Y-109327200D01*
X114738094Y-109327200D02*
X114642856Y-109374819D01*
X114642856Y-109374819D02*
X114499999Y-109374819D01*
X115261904Y-109374819D02*
X115261904Y-108708152D01*
X115261904Y-108898628D02*
X115309523Y-108803390D01*
X115309523Y-108803390D02*
X115357142Y-108755771D01*
X115357142Y-108755771D02*
X115452380Y-108708152D01*
X115452380Y-108708152D02*
X115547618Y-108708152D01*
X115642857Y-109470057D02*
X116404761Y-109470057D01*
X116595238Y-109327200D02*
X116738095Y-109374819D01*
X116738095Y-109374819D02*
X116976190Y-109374819D01*
X116976190Y-109374819D02*
X117071428Y-109327200D01*
X117071428Y-109327200D02*
X117119047Y-109279580D01*
X117119047Y-109279580D02*
X117166666Y-109184342D01*
X117166666Y-109184342D02*
X117166666Y-109089104D01*
X117166666Y-109089104D02*
X117119047Y-108993866D01*
X117119047Y-108993866D02*
X117071428Y-108946247D01*
X117071428Y-108946247D02*
X116976190Y-108898628D01*
X116976190Y-108898628D02*
X116785714Y-108851009D01*
X116785714Y-108851009D02*
X116690476Y-108803390D01*
X116690476Y-108803390D02*
X116642857Y-108755771D01*
X116642857Y-108755771D02*
X116595238Y-108660533D01*
X116595238Y-108660533D02*
X116595238Y-108565295D01*
X116595238Y-108565295D02*
X116642857Y-108470057D01*
X116642857Y-108470057D02*
X116690476Y-108422438D01*
X116690476Y-108422438D02*
X116785714Y-108374819D01*
X116785714Y-108374819D02*
X117023809Y-108374819D01*
X117023809Y-108374819D02*
X117166666Y-108422438D01*
X117976190Y-109327200D02*
X117880952Y-109374819D01*
X117880952Y-109374819D02*
X117690476Y-109374819D01*
X117690476Y-109374819D02*
X117595238Y-109327200D01*
X117595238Y-109327200D02*
X117547619Y-109231961D01*
X117547619Y-109231961D02*
X117547619Y-108851009D01*
X117547619Y-108851009D02*
X117595238Y-108755771D01*
X117595238Y-108755771D02*
X117690476Y-108708152D01*
X117690476Y-108708152D02*
X117880952Y-108708152D01*
X117880952Y-108708152D02*
X117976190Y-108755771D01*
X117976190Y-108755771D02*
X118023809Y-108851009D01*
X118023809Y-108851009D02*
X118023809Y-108946247D01*
X118023809Y-108946247D02*
X117547619Y-109041485D01*
X118452381Y-109374819D02*
X118452381Y-108708152D01*
X118452381Y-108898628D02*
X118500000Y-108803390D01*
X118500000Y-108803390D02*
X118547619Y-108755771D01*
X118547619Y-108755771D02*
X118642857Y-108708152D01*
X118642857Y-108708152D02*
X118738095Y-108708152D01*
X118976191Y-108708152D02*
X119214286Y-109374819D01*
X119214286Y-109374819D02*
X119452381Y-108708152D01*
X119976191Y-109374819D02*
X119880953Y-109327200D01*
X119880953Y-109327200D02*
X119833334Y-109279580D01*
X119833334Y-109279580D02*
X119785715Y-109184342D01*
X119785715Y-109184342D02*
X119785715Y-108898628D01*
X119785715Y-108898628D02*
X119833334Y-108803390D01*
X119833334Y-108803390D02*
X119880953Y-108755771D01*
X119880953Y-108755771D02*
X119976191Y-108708152D01*
X119976191Y-108708152D02*
X120119048Y-108708152D01*
X120119048Y-108708152D02*
X120214286Y-108755771D01*
X120214286Y-108755771D02*
X120261905Y-108803390D01*
X120261905Y-108803390D02*
X120309524Y-108898628D01*
X120309524Y-108898628D02*
X120309524Y-109184342D01*
X120309524Y-109184342D02*
X120261905Y-109279580D01*
X120261905Y-109279580D02*
X120214286Y-109327200D01*
X120214286Y-109327200D02*
X120119048Y-109374819D01*
X120119048Y-109374819D02*
X119976191Y-109374819D01*
D10*
X118494360Y-98816228D02*
X118494360Y-99292419D01*
X118161027Y-98292419D02*
X118494360Y-98816228D01*
X118494360Y-98816228D02*
X118827693Y-98292419D01*
X118875312Y-102292419D02*
X118541979Y-101816228D01*
X118303884Y-102292419D02*
X118303884Y-101292419D01*
X118303884Y-101292419D02*
X118684836Y-101292419D01*
X118684836Y-101292419D02*
X118780074Y-101340038D01*
X118780074Y-101340038D02*
X118827693Y-101387657D01*
X118827693Y-101387657D02*
X118875312Y-101482895D01*
X118875312Y-101482895D02*
X118875312Y-101625752D01*
X118875312Y-101625752D02*
X118827693Y-101720990D01*
X118827693Y-101720990D02*
X118780074Y-101768609D01*
X118780074Y-101768609D02*
X118684836Y-101816228D01*
X118684836Y-101816228D02*
X118303884Y-101816228D01*
X118637217Y-104268609D02*
X118780074Y-104316228D01*
X118780074Y-104316228D02*
X118827693Y-104363847D01*
X118827693Y-104363847D02*
X118875312Y-104459085D01*
X118875312Y-104459085D02*
X118875312Y-104601942D01*
X118875312Y-104601942D02*
X118827693Y-104697180D01*
X118827693Y-104697180D02*
X118780074Y-104744800D01*
X118780074Y-104744800D02*
X118684836Y-104792419D01*
X118684836Y-104792419D02*
X118303884Y-104792419D01*
X118303884Y-104792419D02*
X118303884Y-103792419D01*
X118303884Y-103792419D02*
X118637217Y-103792419D01*
X118637217Y-103792419D02*
X118732455Y-103840038D01*
X118732455Y-103840038D02*
X118780074Y-103887657D01*
X118780074Y-103887657D02*
X118827693Y-103982895D01*
X118827693Y-103982895D02*
X118827693Y-104078133D01*
X118827693Y-104078133D02*
X118780074Y-104173371D01*
X118780074Y-104173371D02*
X118732455Y-104220990D01*
X118732455Y-104220990D02*
X118637217Y-104268609D01*
X118637217Y-104268609D02*
X118303884Y-104268609D01*
X118256265Y-107244800D02*
X118399122Y-107292419D01*
X118399122Y-107292419D02*
X118637217Y-107292419D01*
X118637217Y-107292419D02*
X118732455Y-107244800D01*
X118732455Y-107244800D02*
X118780074Y-107197180D01*
X118780074Y-107197180D02*
X118827693Y-107101942D01*
X118827693Y-107101942D02*
X118827693Y-107006704D01*
X118827693Y-107006704D02*
X118780074Y-106911466D01*
X118780074Y-106911466D02*
X118732455Y-106863847D01*
X118732455Y-106863847D02*
X118637217Y-106816228D01*
X118637217Y-106816228D02*
X118446741Y-106768609D01*
X118446741Y-106768609D02*
X118351503Y-106720990D01*
X118351503Y-106720990D02*
X118303884Y-106673371D01*
X118303884Y-106673371D02*
X118256265Y-106578133D01*
X118256265Y-106578133D02*
X118256265Y-106482895D01*
X118256265Y-106482895D02*
X118303884Y-106387657D01*
X118303884Y-106387657D02*
X118351503Y-106340038D01*
X118351503Y-106340038D02*
X118446741Y-106292419D01*
X118446741Y-106292419D02*
X118684836Y-106292419D01*
X118684836Y-106292419D02*
X118827693Y-106340038D01*
X119637217Y-107244800D02*
X119541979Y-107292419D01*
X119541979Y-107292419D02*
X119351503Y-107292419D01*
X119351503Y-107292419D02*
X119256265Y-107244800D01*
X119256265Y-107244800D02*
X119208646Y-107149561D01*
X119208646Y-107149561D02*
X119208646Y-106768609D01*
X119208646Y-106768609D02*
X119256265Y-106673371D01*
X119256265Y-106673371D02*
X119351503Y-106625752D01*
X119351503Y-106625752D02*
X119541979Y-106625752D01*
X119541979Y-106625752D02*
X119637217Y-106673371D01*
X119637217Y-106673371D02*
X119684836Y-106768609D01*
X119684836Y-106768609D02*
X119684836Y-106863847D01*
X119684836Y-106863847D02*
X119208646Y-106959085D01*
X120113408Y-106625752D02*
X120113408Y-107292419D01*
X120113408Y-106720990D02*
X120161027Y-106673371D01*
X120161027Y-106673371D02*
X120256265Y-106625752D01*
X120256265Y-106625752D02*
X120399122Y-106625752D01*
X120399122Y-106625752D02*
X120494360Y-106673371D01*
X120494360Y-106673371D02*
X120541979Y-106768609D01*
X120541979Y-106768609D02*
X120541979Y-107292419D01*
X120970551Y-107244800D02*
X121065789Y-107292419D01*
X121065789Y-107292419D02*
X121256265Y-107292419D01*
X121256265Y-107292419D02*
X121351503Y-107244800D01*
X121351503Y-107244800D02*
X121399122Y-107149561D01*
X121399122Y-107149561D02*
X121399122Y-107101942D01*
X121399122Y-107101942D02*
X121351503Y-107006704D01*
X121351503Y-107006704D02*
X121256265Y-106959085D01*
X121256265Y-106959085D02*
X121113408Y-106959085D01*
X121113408Y-106959085D02*
X121018170Y-106911466D01*
X121018170Y-106911466D02*
X120970551Y-106816228D01*
X120970551Y-106816228D02*
X120970551Y-106768609D01*
X120970551Y-106768609D02*
X121018170Y-106673371D01*
X121018170Y-106673371D02*
X121113408Y-106625752D01*
X121113408Y-106625752D02*
X121256265Y-106625752D01*
X121256265Y-106625752D02*
X121351503Y-106673371D01*
X52613095Y-68332419D02*
X52613095Y-69141942D01*
X52613095Y-69141942D02*
X52660714Y-69237180D01*
X52660714Y-69237180D02*
X52708333Y-69284800D01*
X52708333Y-69284800D02*
X52803571Y-69332419D01*
X52803571Y-69332419D02*
X52994047Y-69332419D01*
X52994047Y-69332419D02*
X53089285Y-69284800D01*
X53089285Y-69284800D02*
X53136904Y-69237180D01*
X53136904Y-69237180D02*
X53184523Y-69141942D01*
X53184523Y-69141942D02*
X53184523Y-68332419D01*
X53613095Y-68427657D02*
X53660714Y-68380038D01*
X53660714Y-68380038D02*
X53755952Y-68332419D01*
X53755952Y-68332419D02*
X53994047Y-68332419D01*
X53994047Y-68332419D02*
X54089285Y-68380038D01*
X54089285Y-68380038D02*
X54136904Y-68427657D01*
X54136904Y-68427657D02*
X54184523Y-68522895D01*
X54184523Y-68522895D02*
X54184523Y-68618133D01*
X54184523Y-68618133D02*
X54136904Y-68760990D01*
X54136904Y-68760990D02*
X53565476Y-69332419D01*
X53565476Y-69332419D02*
X54184523Y-69332419D01*
D13*
X47006667Y-64343936D02*
X47673333Y-65343936D01*
X47673333Y-64343936D02*
X47006667Y-65343936D01*
X48530476Y-65343936D02*
X48054286Y-65343936D01*
X48054286Y-65343936D02*
X48054286Y-64343936D01*
X49387619Y-64391555D02*
X49292381Y-64343936D01*
X49292381Y-64343936D02*
X49149524Y-64343936D01*
X49149524Y-64343936D02*
X49006667Y-64391555D01*
X49006667Y-64391555D02*
X48911429Y-64486793D01*
X48911429Y-64486793D02*
X48863810Y-64582031D01*
X48863810Y-64582031D02*
X48816191Y-64772507D01*
X48816191Y-64772507D02*
X48816191Y-64915364D01*
X48816191Y-64915364D02*
X48863810Y-65105840D01*
X48863810Y-65105840D02*
X48911429Y-65201078D01*
X48911429Y-65201078D02*
X49006667Y-65296317D01*
X49006667Y-65296317D02*
X49149524Y-65343936D01*
X49149524Y-65343936D02*
X49244762Y-65343936D01*
X49244762Y-65343936D02*
X49387619Y-65296317D01*
X49387619Y-65296317D02*
X49435238Y-65248697D01*
X49435238Y-65248697D02*
X49435238Y-64915364D01*
X49435238Y-64915364D02*
X49244762Y-64915364D01*
X49863810Y-64962983D02*
X50625715Y-64962983D01*
X51625714Y-65343936D02*
X51054286Y-65343936D01*
X51340000Y-65343936D02*
X51340000Y-64343936D01*
X51340000Y-64343936D02*
X51244762Y-64486793D01*
X51244762Y-64486793D02*
X51149524Y-64582031D01*
X51149524Y-64582031D02*
X51054286Y-64629650D01*
X52530476Y-64343936D02*
X52054286Y-64343936D01*
X52054286Y-64343936D02*
X52006667Y-64820126D01*
X52006667Y-64820126D02*
X52054286Y-64772507D01*
X52054286Y-64772507D02*
X52149524Y-64724888D01*
X52149524Y-64724888D02*
X52387619Y-64724888D01*
X52387619Y-64724888D02*
X52482857Y-64772507D01*
X52482857Y-64772507D02*
X52530476Y-64820126D01*
X52530476Y-64820126D02*
X52578095Y-64915364D01*
X52578095Y-64915364D02*
X52578095Y-65153459D01*
X52578095Y-65153459D02*
X52530476Y-65248697D01*
X52530476Y-65248697D02*
X52482857Y-65296317D01*
X52482857Y-65296317D02*
X52387619Y-65343936D01*
X52387619Y-65343936D02*
X52149524Y-65343936D01*
X52149524Y-65343936D02*
X52054286Y-65296317D01*
X52054286Y-65296317D02*
X52006667Y-65248697D01*
X53197143Y-64343936D02*
X53292381Y-64343936D01*
X53292381Y-64343936D02*
X53387619Y-64391555D01*
X53387619Y-64391555D02*
X53435238Y-64439174D01*
X53435238Y-64439174D02*
X53482857Y-64534412D01*
X53482857Y-64534412D02*
X53530476Y-64724888D01*
X53530476Y-64724888D02*
X53530476Y-64962983D01*
X53530476Y-64962983D02*
X53482857Y-65153459D01*
X53482857Y-65153459D02*
X53435238Y-65248697D01*
X53435238Y-65248697D02*
X53387619Y-65296317D01*
X53387619Y-65296317D02*
X53292381Y-65343936D01*
X53292381Y-65343936D02*
X53197143Y-65343936D01*
X53197143Y-65343936D02*
X53101905Y-65296317D01*
X53101905Y-65296317D02*
X53054286Y-65248697D01*
X53054286Y-65248697D02*
X53006667Y-65153459D01*
X53006667Y-65153459D02*
X52959048Y-64962983D01*
X52959048Y-64962983D02*
X52959048Y-64724888D01*
X52959048Y-64724888D02*
X53006667Y-64534412D01*
X53006667Y-64534412D02*
X53054286Y-64439174D01*
X53054286Y-64439174D02*
X53101905Y-64391555D01*
X53101905Y-64391555D02*
X53197143Y-64343936D01*
X53959048Y-64962983D02*
X54720953Y-64962983D01*
X55197143Y-65343936D02*
X55197143Y-64343936D01*
X55197143Y-64820126D02*
X55768571Y-64820126D01*
X55768571Y-65343936D02*
X55768571Y-64343936D01*
X56244762Y-64962983D02*
X57006667Y-64962983D01*
X57435238Y-65058221D02*
X57911428Y-65058221D01*
X57340000Y-65343936D02*
X57673333Y-64343936D01*
X57673333Y-64343936D02*
X58006666Y-65343936D01*
X58673333Y-64820126D02*
X58816190Y-64867745D01*
X58816190Y-64867745D02*
X58863809Y-64915364D01*
X58863809Y-64915364D02*
X58911428Y-65010602D01*
X58911428Y-65010602D02*
X58911428Y-65153459D01*
X58911428Y-65153459D02*
X58863809Y-65248697D01*
X58863809Y-65248697D02*
X58816190Y-65296317D01*
X58816190Y-65296317D02*
X58720952Y-65343936D01*
X58720952Y-65343936D02*
X58340000Y-65343936D01*
X58340000Y-65343936D02*
X58340000Y-64343936D01*
X58340000Y-64343936D02*
X58673333Y-64343936D01*
X58673333Y-64343936D02*
X58768571Y-64391555D01*
X58768571Y-64391555D02*
X58816190Y-64439174D01*
X58816190Y-64439174D02*
X58863809Y-64534412D01*
X58863809Y-64534412D02*
X58863809Y-64629650D01*
X58863809Y-64629650D02*
X58816190Y-64724888D01*
X58816190Y-64724888D02*
X58768571Y-64772507D01*
X58768571Y-64772507D02*
X58673333Y-64820126D01*
X58673333Y-64820126D02*
X58340000Y-64820126D01*
D10*
X44155074Y-64747419D02*
X43678884Y-64747419D01*
X43678884Y-64747419D02*
X43678884Y-63747419D01*
X44488408Y-64747419D02*
X44488408Y-64080752D01*
X44488408Y-63747419D02*
X44440789Y-63795038D01*
X44440789Y-63795038D02*
X44488408Y-63842657D01*
X44488408Y-63842657D02*
X44536027Y-63795038D01*
X44536027Y-63795038D02*
X44488408Y-63747419D01*
X44488408Y-63747419D02*
X44488408Y-63842657D01*
X44869360Y-64080752D02*
X45107455Y-64747419D01*
X45107455Y-64747419D02*
X45345550Y-64080752D01*
X46107455Y-64699800D02*
X46012217Y-64747419D01*
X46012217Y-64747419D02*
X45821741Y-64747419D01*
X45821741Y-64747419D02*
X45726503Y-64699800D01*
X45726503Y-64699800D02*
X45678884Y-64604561D01*
X45678884Y-64604561D02*
X45678884Y-64223609D01*
X45678884Y-64223609D02*
X45726503Y-64128371D01*
X45726503Y-64128371D02*
X45821741Y-64080752D01*
X45821741Y-64080752D02*
X46012217Y-64080752D01*
X46012217Y-64080752D02*
X46107455Y-64128371D01*
X46107455Y-64128371D02*
X46155074Y-64223609D01*
X46155074Y-64223609D02*
X46155074Y-64318847D01*
X46155074Y-64318847D02*
X45678884Y-64414085D01*
X48202693Y-67247419D02*
X47631265Y-67247419D01*
X47916979Y-67247419D02*
X47916979Y-66247419D01*
X47916979Y-66247419D02*
X47821741Y-66390276D01*
X47821741Y-66390276D02*
X47726503Y-66485514D01*
X47726503Y-66485514D02*
X47631265Y-66533133D01*
X48821741Y-66247419D02*
X48916979Y-66247419D01*
X48916979Y-66247419D02*
X49012217Y-66295038D01*
X49012217Y-66295038D02*
X49059836Y-66342657D01*
X49059836Y-66342657D02*
X49107455Y-66437895D01*
X49107455Y-66437895D02*
X49155074Y-66628371D01*
X49155074Y-66628371D02*
X49155074Y-66866466D01*
X49155074Y-66866466D02*
X49107455Y-67056942D01*
X49107455Y-67056942D02*
X49059836Y-67152180D01*
X49059836Y-67152180D02*
X49012217Y-67199800D01*
X49012217Y-67199800D02*
X48916979Y-67247419D01*
X48916979Y-67247419D02*
X48821741Y-67247419D01*
X48821741Y-67247419D02*
X48726503Y-67199800D01*
X48726503Y-67199800D02*
X48678884Y-67152180D01*
X48678884Y-67152180D02*
X48631265Y-67056942D01*
X48631265Y-67056942D02*
X48583646Y-66866466D01*
X48583646Y-66866466D02*
X48583646Y-66628371D01*
X48583646Y-66628371D02*
X48631265Y-66437895D01*
X48631265Y-66437895D02*
X48678884Y-66342657D01*
X48678884Y-66342657D02*
X48726503Y-66295038D01*
X48726503Y-66295038D02*
X48821741Y-66247419D01*
X49774122Y-66247419D02*
X49869360Y-66247419D01*
X49869360Y-66247419D02*
X49964598Y-66295038D01*
X49964598Y-66295038D02*
X50012217Y-66342657D01*
X50012217Y-66342657D02*
X50059836Y-66437895D01*
X50059836Y-66437895D02*
X50107455Y-66628371D01*
X50107455Y-66628371D02*
X50107455Y-66866466D01*
X50107455Y-66866466D02*
X50059836Y-67056942D01*
X50059836Y-67056942D02*
X50012217Y-67152180D01*
X50012217Y-67152180D02*
X49964598Y-67199800D01*
X49964598Y-67199800D02*
X49869360Y-67247419D01*
X49869360Y-67247419D02*
X49774122Y-67247419D01*
X49774122Y-67247419D02*
X49678884Y-67199800D01*
X49678884Y-67199800D02*
X49631265Y-67152180D01*
X49631265Y-67152180D02*
X49583646Y-67056942D01*
X49583646Y-67056942D02*
X49536027Y-66866466D01*
X49536027Y-66866466D02*
X49536027Y-66628371D01*
X49536027Y-66628371D02*
X49583646Y-66437895D01*
X49583646Y-66437895D02*
X49631265Y-66342657D01*
X49631265Y-66342657D02*
X49678884Y-66295038D01*
X49678884Y-66295038D02*
X49774122Y-66247419D01*
X50393170Y-66866466D02*
X50440789Y-66818847D01*
X50440789Y-66818847D02*
X50536027Y-66771228D01*
X50536027Y-66771228D02*
X50726503Y-66866466D01*
X50726503Y-66866466D02*
X50821741Y-66818847D01*
X50821741Y-66818847D02*
X50869360Y-66771228D01*
X51155075Y-66247419D02*
X51774122Y-66247419D01*
X51774122Y-66247419D02*
X51440789Y-66628371D01*
X51440789Y-66628371D02*
X51583646Y-66628371D01*
X51583646Y-66628371D02*
X51678884Y-66675990D01*
X51678884Y-66675990D02*
X51726503Y-66723609D01*
X51726503Y-66723609D02*
X51774122Y-66818847D01*
X51774122Y-66818847D02*
X51774122Y-67056942D01*
X51774122Y-67056942D02*
X51726503Y-67152180D01*
X51726503Y-67152180D02*
X51678884Y-67199800D01*
X51678884Y-67199800D02*
X51583646Y-67247419D01*
X51583646Y-67247419D02*
X51297932Y-67247419D01*
X51297932Y-67247419D02*
X51202694Y-67199800D01*
X51202694Y-67199800D02*
X51155075Y-67152180D01*
X52393170Y-66247419D02*
X52488408Y-66247419D01*
X52488408Y-66247419D02*
X52583646Y-66295038D01*
X52583646Y-66295038D02*
X52631265Y-66342657D01*
X52631265Y-66342657D02*
X52678884Y-66437895D01*
X52678884Y-66437895D02*
X52726503Y-66628371D01*
X52726503Y-66628371D02*
X52726503Y-66866466D01*
X52726503Y-66866466D02*
X52678884Y-67056942D01*
X52678884Y-67056942D02*
X52631265Y-67152180D01*
X52631265Y-67152180D02*
X52583646Y-67199800D01*
X52583646Y-67199800D02*
X52488408Y-67247419D01*
X52488408Y-67247419D02*
X52393170Y-67247419D01*
X52393170Y-67247419D02*
X52297932Y-67199800D01*
X52297932Y-67199800D02*
X52250313Y-67152180D01*
X52250313Y-67152180D02*
X52202694Y-67056942D01*
X52202694Y-67056942D02*
X52155075Y-66866466D01*
X52155075Y-66866466D02*
X52155075Y-66628371D01*
X52155075Y-66628371D02*
X52202694Y-66437895D01*
X52202694Y-66437895D02*
X52250313Y-66342657D01*
X52250313Y-66342657D02*
X52297932Y-66295038D01*
X52297932Y-66295038D02*
X52393170Y-66247419D01*
X53345551Y-66247419D02*
X53440789Y-66247419D01*
X53440789Y-66247419D02*
X53536027Y-66295038D01*
X53536027Y-66295038D02*
X53583646Y-66342657D01*
X53583646Y-66342657D02*
X53631265Y-66437895D01*
X53631265Y-66437895D02*
X53678884Y-66628371D01*
X53678884Y-66628371D02*
X53678884Y-66866466D01*
X53678884Y-66866466D02*
X53631265Y-67056942D01*
X53631265Y-67056942D02*
X53583646Y-67152180D01*
X53583646Y-67152180D02*
X53536027Y-67199800D01*
X53536027Y-67199800D02*
X53440789Y-67247419D01*
X53440789Y-67247419D02*
X53345551Y-67247419D01*
X53345551Y-67247419D02*
X53250313Y-67199800D01*
X53250313Y-67199800D02*
X53202694Y-67152180D01*
X53202694Y-67152180D02*
X53155075Y-67056942D01*
X53155075Y-67056942D02*
X53107456Y-66866466D01*
X53107456Y-66866466D02*
X53107456Y-66628371D01*
X53107456Y-66628371D02*
X53155075Y-66437895D01*
X53155075Y-66437895D02*
X53202694Y-66342657D01*
X53202694Y-66342657D02*
X53250313Y-66295038D01*
X53250313Y-66295038D02*
X53345551Y-66247419D01*
X53964599Y-66247419D02*
X54297932Y-67247419D01*
X54297932Y-67247419D02*
X54631265Y-66247419D01*
X54916980Y-66961704D02*
X55393170Y-66961704D01*
X54821742Y-67247419D02*
X55155075Y-66247419D01*
X55155075Y-66247419D02*
X55488408Y-67247419D01*
X56393170Y-67152180D02*
X56345551Y-67199800D01*
X56345551Y-67199800D02*
X56202694Y-67247419D01*
X56202694Y-67247419D02*
X56107456Y-67247419D01*
X56107456Y-67247419D02*
X55964599Y-67199800D01*
X55964599Y-67199800D02*
X55869361Y-67104561D01*
X55869361Y-67104561D02*
X55821742Y-67009323D01*
X55821742Y-67009323D02*
X55774123Y-66818847D01*
X55774123Y-66818847D02*
X55774123Y-66675990D01*
X55774123Y-66675990D02*
X55821742Y-66485514D01*
X55821742Y-66485514D02*
X55869361Y-66390276D01*
X55869361Y-66390276D02*
X55964599Y-66295038D01*
X55964599Y-66295038D02*
X56107456Y-66247419D01*
X56107456Y-66247419D02*
X56202694Y-66247419D01*
X56202694Y-66247419D02*
X56345551Y-66295038D01*
X56345551Y-66295038D02*
X56393170Y-66342657D01*
X57726504Y-67247419D02*
X57631266Y-67199800D01*
X57631266Y-67199800D02*
X57583647Y-67152180D01*
X57583647Y-67152180D02*
X57536028Y-67056942D01*
X57536028Y-67056942D02*
X57536028Y-66771228D01*
X57536028Y-66771228D02*
X57583647Y-66675990D01*
X57583647Y-66675990D02*
X57631266Y-66628371D01*
X57631266Y-66628371D02*
X57726504Y-66580752D01*
X57726504Y-66580752D02*
X57869361Y-66580752D01*
X57869361Y-66580752D02*
X57964599Y-66628371D01*
X57964599Y-66628371D02*
X58012218Y-66675990D01*
X58012218Y-66675990D02*
X58059837Y-66771228D01*
X58059837Y-66771228D02*
X58059837Y-67056942D01*
X58059837Y-67056942D02*
X58012218Y-67152180D01*
X58012218Y-67152180D02*
X57964599Y-67199800D01*
X57964599Y-67199800D02*
X57869361Y-67247419D01*
X57869361Y-67247419D02*
X57726504Y-67247419D01*
X58916980Y-66580752D02*
X58916980Y-67247419D01*
X58488409Y-66580752D02*
X58488409Y-67104561D01*
X58488409Y-67104561D02*
X58536028Y-67199800D01*
X58536028Y-67199800D02*
X58631266Y-67247419D01*
X58631266Y-67247419D02*
X58774123Y-67247419D01*
X58774123Y-67247419D02*
X58869361Y-67199800D01*
X58869361Y-67199800D02*
X58916980Y-67152180D01*
X59250314Y-66580752D02*
X59631266Y-66580752D01*
X59393171Y-66247419D02*
X59393171Y-67104561D01*
X59393171Y-67104561D02*
X59440790Y-67199800D01*
X59440790Y-67199800D02*
X59536028Y-67247419D01*
X59536028Y-67247419D02*
X59631266Y-67247419D01*
X59678884Y-65247419D02*
X59678884Y-64247419D01*
X59678884Y-64247419D02*
X60250312Y-65247419D01*
X60250312Y-65247419D02*
X60250312Y-64247419D01*
X61107455Y-65199800D02*
X61012217Y-65247419D01*
X61012217Y-65247419D02*
X60821741Y-65247419D01*
X60821741Y-65247419D02*
X60726503Y-65199800D01*
X60726503Y-65199800D02*
X60678884Y-65104561D01*
X60678884Y-65104561D02*
X60678884Y-64723609D01*
X60678884Y-64723609D02*
X60726503Y-64628371D01*
X60726503Y-64628371D02*
X60821741Y-64580752D01*
X60821741Y-64580752D02*
X61012217Y-64580752D01*
X61012217Y-64580752D02*
X61107455Y-64628371D01*
X61107455Y-64628371D02*
X61155074Y-64723609D01*
X61155074Y-64723609D02*
X61155074Y-64818847D01*
X61155074Y-64818847D02*
X60678884Y-64914085D01*
X62012217Y-64580752D02*
X62012217Y-65247419D01*
X61583646Y-64580752D02*
X61583646Y-65104561D01*
X61583646Y-65104561D02*
X61631265Y-65199800D01*
X61631265Y-65199800D02*
X61726503Y-65247419D01*
X61726503Y-65247419D02*
X61869360Y-65247419D01*
X61869360Y-65247419D02*
X61964598Y-65199800D01*
X61964598Y-65199800D02*
X62012217Y-65152180D01*
X62345551Y-64580752D02*
X62726503Y-64580752D01*
X62488408Y-64247419D02*
X62488408Y-65104561D01*
X62488408Y-65104561D02*
X62536027Y-65199800D01*
X62536027Y-65199800D02*
X62631265Y-65247419D01*
X62631265Y-65247419D02*
X62726503Y-65247419D01*
X63059837Y-65247419D02*
X63059837Y-64580752D01*
X63059837Y-64771228D02*
X63107456Y-64675990D01*
X63107456Y-64675990D02*
X63155075Y-64628371D01*
X63155075Y-64628371D02*
X63250313Y-64580752D01*
X63250313Y-64580752D02*
X63345551Y-64580752D01*
X64107456Y-65247419D02*
X64107456Y-64723609D01*
X64107456Y-64723609D02*
X64059837Y-64628371D01*
X64059837Y-64628371D02*
X63964599Y-64580752D01*
X63964599Y-64580752D02*
X63774123Y-64580752D01*
X63774123Y-64580752D02*
X63678885Y-64628371D01*
X64107456Y-65199800D02*
X64012218Y-65247419D01*
X64012218Y-65247419D02*
X63774123Y-65247419D01*
X63774123Y-65247419D02*
X63678885Y-65199800D01*
X63678885Y-65199800D02*
X63631266Y-65104561D01*
X63631266Y-65104561D02*
X63631266Y-65009323D01*
X63631266Y-65009323D02*
X63678885Y-64914085D01*
X63678885Y-64914085D02*
X63774123Y-64866466D01*
X63774123Y-64866466D02*
X64012218Y-64866466D01*
X64012218Y-64866466D02*
X64107456Y-64818847D01*
X64726504Y-65247419D02*
X64631266Y-65199800D01*
X64631266Y-65199800D02*
X64583647Y-65104561D01*
X64583647Y-65104561D02*
X64583647Y-64247419D01*
X42464598Y-71628371D02*
X42416979Y-71580752D01*
X42416979Y-71580752D02*
X42321741Y-71437895D01*
X42321741Y-71437895D02*
X42274122Y-71342657D01*
X42274122Y-71342657D02*
X42226503Y-71199800D01*
X42226503Y-71199800D02*
X42178884Y-70961704D01*
X42178884Y-70961704D02*
X42178884Y-70771228D01*
X42178884Y-70771228D02*
X42226503Y-70533133D01*
X42226503Y-70533133D02*
X42274122Y-70390276D01*
X42274122Y-70390276D02*
X42321741Y-70295038D01*
X42321741Y-70295038D02*
X42416979Y-70152180D01*
X42416979Y-70152180D02*
X42464598Y-70104561D01*
X43178884Y-70723609D02*
X43321741Y-70771228D01*
X43321741Y-70771228D02*
X43369360Y-70818847D01*
X43369360Y-70818847D02*
X43416979Y-70914085D01*
X43416979Y-70914085D02*
X43416979Y-71056942D01*
X43416979Y-71056942D02*
X43369360Y-71152180D01*
X43369360Y-71152180D02*
X43321741Y-71199800D01*
X43321741Y-71199800D02*
X43226503Y-71247419D01*
X43226503Y-71247419D02*
X42845551Y-71247419D01*
X42845551Y-71247419D02*
X42845551Y-70247419D01*
X42845551Y-70247419D02*
X43178884Y-70247419D01*
X43178884Y-70247419D02*
X43274122Y-70295038D01*
X43274122Y-70295038D02*
X43321741Y-70342657D01*
X43321741Y-70342657D02*
X43369360Y-70437895D01*
X43369360Y-70437895D02*
X43369360Y-70533133D01*
X43369360Y-70533133D02*
X43321741Y-70628371D01*
X43321741Y-70628371D02*
X43274122Y-70675990D01*
X43274122Y-70675990D02*
X43178884Y-70723609D01*
X43178884Y-70723609D02*
X42845551Y-70723609D01*
X43845551Y-71247419D02*
X43845551Y-70580752D01*
X43845551Y-70771228D02*
X43893170Y-70675990D01*
X43893170Y-70675990D02*
X43940789Y-70628371D01*
X43940789Y-70628371D02*
X44036027Y-70580752D01*
X44036027Y-70580752D02*
X44131265Y-70580752D01*
X44607456Y-71247419D02*
X44512218Y-71199800D01*
X44512218Y-71199800D02*
X44464599Y-71152180D01*
X44464599Y-71152180D02*
X44416980Y-71056942D01*
X44416980Y-71056942D02*
X44416980Y-70771228D01*
X44416980Y-70771228D02*
X44464599Y-70675990D01*
X44464599Y-70675990D02*
X44512218Y-70628371D01*
X44512218Y-70628371D02*
X44607456Y-70580752D01*
X44607456Y-70580752D02*
X44750313Y-70580752D01*
X44750313Y-70580752D02*
X44845551Y-70628371D01*
X44845551Y-70628371D02*
X44893170Y-70675990D01*
X44893170Y-70675990D02*
X44940789Y-70771228D01*
X44940789Y-70771228D02*
X44940789Y-71056942D01*
X44940789Y-71056942D02*
X44893170Y-71152180D01*
X44893170Y-71152180D02*
X44845551Y-71199800D01*
X44845551Y-71199800D02*
X44750313Y-71247419D01*
X44750313Y-71247419D02*
X44607456Y-71247419D01*
X45274123Y-70580752D02*
X45464599Y-71247419D01*
X45464599Y-71247419D02*
X45655075Y-70771228D01*
X45655075Y-70771228D02*
X45845551Y-71247419D01*
X45845551Y-71247419D02*
X46036027Y-70580752D01*
X46416980Y-70580752D02*
X46416980Y-71247419D01*
X46416980Y-70675990D02*
X46464599Y-70628371D01*
X46464599Y-70628371D02*
X46559837Y-70580752D01*
X46559837Y-70580752D02*
X46702694Y-70580752D01*
X46702694Y-70580752D02*
X46797932Y-70628371D01*
X46797932Y-70628371D02*
X46845551Y-70723609D01*
X46845551Y-70723609D02*
X46845551Y-71247419D01*
X47226504Y-71628371D02*
X47274123Y-71580752D01*
X47274123Y-71580752D02*
X47369361Y-71437895D01*
X47369361Y-71437895D02*
X47416980Y-71342657D01*
X47416980Y-71342657D02*
X47464599Y-71199800D01*
X47464599Y-71199800D02*
X47512218Y-70961704D01*
X47512218Y-70961704D02*
X47512218Y-70771228D01*
X47512218Y-70771228D02*
X47464599Y-70533133D01*
X47464599Y-70533133D02*
X47416980Y-70390276D01*
X47416980Y-70390276D02*
X47369361Y-70295038D01*
X47369361Y-70295038D02*
X47274123Y-70152180D01*
X47274123Y-70152180D02*
X47226504Y-70104561D01*
X59964598Y-71628371D02*
X59916979Y-71580752D01*
X59916979Y-71580752D02*
X59821741Y-71437895D01*
X59821741Y-71437895D02*
X59774122Y-71342657D01*
X59774122Y-71342657D02*
X59726503Y-71199800D01*
X59726503Y-71199800D02*
X59678884Y-70961704D01*
X59678884Y-70961704D02*
X59678884Y-70771228D01*
X59678884Y-70771228D02*
X59726503Y-70533133D01*
X59726503Y-70533133D02*
X59774122Y-70390276D01*
X59774122Y-70390276D02*
X59821741Y-70295038D01*
X59821741Y-70295038D02*
X59916979Y-70152180D01*
X59916979Y-70152180D02*
X59964598Y-70104561D01*
X60678884Y-70723609D02*
X60821741Y-70771228D01*
X60821741Y-70771228D02*
X60869360Y-70818847D01*
X60869360Y-70818847D02*
X60916979Y-70914085D01*
X60916979Y-70914085D02*
X60916979Y-71056942D01*
X60916979Y-71056942D02*
X60869360Y-71152180D01*
X60869360Y-71152180D02*
X60821741Y-71199800D01*
X60821741Y-71199800D02*
X60726503Y-71247419D01*
X60726503Y-71247419D02*
X60345551Y-71247419D01*
X60345551Y-71247419D02*
X60345551Y-70247419D01*
X60345551Y-70247419D02*
X60678884Y-70247419D01*
X60678884Y-70247419D02*
X60774122Y-70295038D01*
X60774122Y-70295038D02*
X60821741Y-70342657D01*
X60821741Y-70342657D02*
X60869360Y-70437895D01*
X60869360Y-70437895D02*
X60869360Y-70533133D01*
X60869360Y-70533133D02*
X60821741Y-70628371D01*
X60821741Y-70628371D02*
X60774122Y-70675990D01*
X60774122Y-70675990D02*
X60678884Y-70723609D01*
X60678884Y-70723609D02*
X60345551Y-70723609D01*
X61488408Y-71247419D02*
X61393170Y-71199800D01*
X61393170Y-71199800D02*
X61345551Y-71104561D01*
X61345551Y-71104561D02*
X61345551Y-70247419D01*
X62297932Y-70580752D02*
X62297932Y-71247419D01*
X61869361Y-70580752D02*
X61869361Y-71104561D01*
X61869361Y-71104561D02*
X61916980Y-71199800D01*
X61916980Y-71199800D02*
X62012218Y-71247419D01*
X62012218Y-71247419D02*
X62155075Y-71247419D01*
X62155075Y-71247419D02*
X62250313Y-71199800D01*
X62250313Y-71199800D02*
X62297932Y-71152180D01*
X63155075Y-71199800D02*
X63059837Y-71247419D01*
X63059837Y-71247419D02*
X62869361Y-71247419D01*
X62869361Y-71247419D02*
X62774123Y-71199800D01*
X62774123Y-71199800D02*
X62726504Y-71104561D01*
X62726504Y-71104561D02*
X62726504Y-70723609D01*
X62726504Y-70723609D02*
X62774123Y-70628371D01*
X62774123Y-70628371D02*
X62869361Y-70580752D01*
X62869361Y-70580752D02*
X63059837Y-70580752D01*
X63059837Y-70580752D02*
X63155075Y-70628371D01*
X63155075Y-70628371D02*
X63202694Y-70723609D01*
X63202694Y-70723609D02*
X63202694Y-70818847D01*
X63202694Y-70818847D02*
X62726504Y-70914085D01*
X63536028Y-71628371D02*
X63583647Y-71580752D01*
X63583647Y-71580752D02*
X63678885Y-71437895D01*
X63678885Y-71437895D02*
X63726504Y-71342657D01*
X63726504Y-71342657D02*
X63774123Y-71199800D01*
X63774123Y-71199800D02*
X63821742Y-70961704D01*
X63821742Y-70961704D02*
X63821742Y-70771228D01*
X63821742Y-70771228D02*
X63774123Y-70533133D01*
X63774123Y-70533133D02*
X63726504Y-70390276D01*
X63726504Y-70390276D02*
X63678885Y-70295038D01*
X63678885Y-70295038D02*
X63583647Y-70152180D01*
X63583647Y-70152180D02*
X63536028Y-70104561D01*
D13*
X133770476Y-108904819D02*
X133770476Y-107904819D01*
X133770476Y-107904819D02*
X134103809Y-108619104D01*
X134103809Y-108619104D02*
X134437142Y-107904819D01*
X134437142Y-107904819D02*
X134437142Y-108904819D01*
X135437142Y-108904819D02*
X134865714Y-108904819D01*
X135151428Y-108904819D02*
X135151428Y-107904819D01*
X135151428Y-107904819D02*
X135056190Y-108047676D01*
X135056190Y-108047676D02*
X134960952Y-108142914D01*
X134960952Y-108142914D02*
X134865714Y-108190533D01*
X131868095Y-116281009D02*
X131534762Y-116281009D01*
X131534762Y-116804819D02*
X131534762Y-115804819D01*
X131534762Y-115804819D02*
X132010952Y-115804819D01*
X132820476Y-116804819D02*
X132820476Y-116281009D01*
X132820476Y-116281009D02*
X132772857Y-116185771D01*
X132772857Y-116185771D02*
X132677619Y-116138152D01*
X132677619Y-116138152D02*
X132487143Y-116138152D01*
X132487143Y-116138152D02*
X132391905Y-116185771D01*
X132820476Y-116757200D02*
X132725238Y-116804819D01*
X132725238Y-116804819D02*
X132487143Y-116804819D01*
X132487143Y-116804819D02*
X132391905Y-116757200D01*
X132391905Y-116757200D02*
X132344286Y-116661961D01*
X132344286Y-116661961D02*
X132344286Y-116566723D01*
X132344286Y-116566723D02*
X132391905Y-116471485D01*
X132391905Y-116471485D02*
X132487143Y-116423866D01*
X132487143Y-116423866D02*
X132725238Y-116423866D01*
X132725238Y-116423866D02*
X132820476Y-116376247D01*
X133296667Y-116138152D02*
X133296667Y-116804819D01*
X133296667Y-116233390D02*
X133344286Y-116185771D01*
X133344286Y-116185771D02*
X133439524Y-116138152D01*
X133439524Y-116138152D02*
X133582381Y-116138152D01*
X133582381Y-116138152D02*
X133677619Y-116185771D01*
X133677619Y-116185771D02*
X133725238Y-116281009D01*
X133725238Y-116281009D02*
X133725238Y-116804819D01*
X133963334Y-116900057D02*
X134725238Y-116900057D01*
X135391905Y-116138152D02*
X135391905Y-116804819D01*
X135153810Y-115757200D02*
X134915715Y-116471485D01*
X134915715Y-116471485D02*
X135534762Y-116471485D01*
X135915715Y-116138152D02*
X135915715Y-117138152D01*
X135915715Y-116185771D02*
X136010953Y-116138152D01*
X136010953Y-116138152D02*
X136201429Y-116138152D01*
X136201429Y-116138152D02*
X136296667Y-116185771D01*
X136296667Y-116185771D02*
X136344286Y-116233390D01*
X136344286Y-116233390D02*
X136391905Y-116328628D01*
X136391905Y-116328628D02*
X136391905Y-116614342D01*
X136391905Y-116614342D02*
X136344286Y-116709580D01*
X136344286Y-116709580D02*
X136296667Y-116757200D01*
X136296667Y-116757200D02*
X136201429Y-116804819D01*
X136201429Y-116804819D02*
X136010953Y-116804819D01*
X136010953Y-116804819D02*
X135915715Y-116757200D01*
X136820477Y-116804819D02*
X136820477Y-116138152D01*
X136820477Y-115804819D02*
X136772858Y-115852438D01*
X136772858Y-115852438D02*
X136820477Y-115900057D01*
X136820477Y-115900057D02*
X136868096Y-115852438D01*
X136868096Y-115852438D02*
X136820477Y-115804819D01*
X136820477Y-115804819D02*
X136820477Y-115900057D01*
X137296667Y-116138152D02*
X137296667Y-116804819D01*
X137296667Y-116233390D02*
X137344286Y-116185771D01*
X137344286Y-116185771D02*
X137439524Y-116138152D01*
X137439524Y-116138152D02*
X137582381Y-116138152D01*
X137582381Y-116138152D02*
X137677619Y-116185771D01*
X137677619Y-116185771D02*
X137725238Y-116281009D01*
X137725238Y-116281009D02*
X137725238Y-116804819D01*
X193604819Y-80261904D02*
X193604819Y-79690476D01*
X194604819Y-79976190D02*
X193604819Y-79976190D01*
X194509580Y-78785714D02*
X194557200Y-78833333D01*
X194557200Y-78833333D02*
X194604819Y-78976190D01*
X194604819Y-78976190D02*
X194604819Y-79071428D01*
X194604819Y-79071428D02*
X194557200Y-79214285D01*
X194557200Y-79214285D02*
X194461961Y-79309523D01*
X194461961Y-79309523D02*
X194366723Y-79357142D01*
X194366723Y-79357142D02*
X194176247Y-79404761D01*
X194176247Y-79404761D02*
X194033390Y-79404761D01*
X194033390Y-79404761D02*
X193842914Y-79357142D01*
X193842914Y-79357142D02*
X193747676Y-79309523D01*
X193747676Y-79309523D02*
X193652438Y-79214285D01*
X193652438Y-79214285D02*
X193604819Y-79071428D01*
X193604819Y-79071428D02*
X193604819Y-78976190D01*
X193604819Y-78976190D02*
X193652438Y-78833333D01*
X193652438Y-78833333D02*
X193700057Y-78785714D01*
X194604819Y-77833333D02*
X194604819Y-78404761D01*
X194604819Y-78119047D02*
X193604819Y-78119047D01*
X193604819Y-78119047D02*
X193747676Y-78214285D01*
X193747676Y-78214285D02*
X193842914Y-78309523D01*
X193842914Y-78309523D02*
X193890533Y-78404761D01*
X133283333Y-57084819D02*
X132950000Y-56608628D01*
X132711905Y-57084819D02*
X132711905Y-56084819D01*
X132711905Y-56084819D02*
X133092857Y-56084819D01*
X133092857Y-56084819D02*
X133188095Y-56132438D01*
X133188095Y-56132438D02*
X133235714Y-56180057D01*
X133235714Y-56180057D02*
X133283333Y-56275295D01*
X133283333Y-56275295D02*
X133283333Y-56418152D01*
X133283333Y-56418152D02*
X133235714Y-56513390D01*
X133235714Y-56513390D02*
X133188095Y-56561009D01*
X133188095Y-56561009D02*
X133092857Y-56608628D01*
X133092857Y-56608628D02*
X132711905Y-56608628D01*
X134140476Y-56418152D02*
X134140476Y-57084819D01*
X133902381Y-56037200D02*
X133664286Y-56751485D01*
X133664286Y-56751485D02*
X134283333Y-56751485D01*
X131021428Y-61158152D02*
X131021428Y-61824819D01*
X130783333Y-60777200D02*
X130545238Y-61491485D01*
X130545238Y-61491485D02*
X131164285Y-61491485D01*
X131735714Y-60824819D02*
X131830952Y-60824819D01*
X131830952Y-60824819D02*
X131926190Y-60872438D01*
X131926190Y-60872438D02*
X131973809Y-60920057D01*
X131973809Y-60920057D02*
X132021428Y-61015295D01*
X132021428Y-61015295D02*
X132069047Y-61205771D01*
X132069047Y-61205771D02*
X132069047Y-61443866D01*
X132069047Y-61443866D02*
X132021428Y-61634342D01*
X132021428Y-61634342D02*
X131973809Y-61729580D01*
X131973809Y-61729580D02*
X131926190Y-61777200D01*
X131926190Y-61777200D02*
X131830952Y-61824819D01*
X131830952Y-61824819D02*
X131735714Y-61824819D01*
X131735714Y-61824819D02*
X131640476Y-61777200D01*
X131640476Y-61777200D02*
X131592857Y-61729580D01*
X131592857Y-61729580D02*
X131545238Y-61634342D01*
X131545238Y-61634342D02*
X131497619Y-61443866D01*
X131497619Y-61443866D02*
X131497619Y-61205771D01*
X131497619Y-61205771D02*
X131545238Y-61015295D01*
X131545238Y-61015295D02*
X131592857Y-60920057D01*
X131592857Y-60920057D02*
X131640476Y-60872438D01*
X131640476Y-60872438D02*
X131735714Y-60824819D01*
X132497619Y-61443866D02*
X133259524Y-61443866D01*
X134164285Y-60824819D02*
X133973809Y-60824819D01*
X133973809Y-60824819D02*
X133878571Y-60872438D01*
X133878571Y-60872438D02*
X133830952Y-60920057D01*
X133830952Y-60920057D02*
X133735714Y-61062914D01*
X133735714Y-61062914D02*
X133688095Y-61253390D01*
X133688095Y-61253390D02*
X133688095Y-61634342D01*
X133688095Y-61634342D02*
X133735714Y-61729580D01*
X133735714Y-61729580D02*
X133783333Y-61777200D01*
X133783333Y-61777200D02*
X133878571Y-61824819D01*
X133878571Y-61824819D02*
X134069047Y-61824819D01*
X134069047Y-61824819D02*
X134164285Y-61777200D01*
X134164285Y-61777200D02*
X134211904Y-61729580D01*
X134211904Y-61729580D02*
X134259523Y-61634342D01*
X134259523Y-61634342D02*
X134259523Y-61396247D01*
X134259523Y-61396247D02*
X134211904Y-61301009D01*
X134211904Y-61301009D02*
X134164285Y-61253390D01*
X134164285Y-61253390D02*
X134069047Y-61205771D01*
X134069047Y-61205771D02*
X133878571Y-61205771D01*
X133878571Y-61205771D02*
X133783333Y-61253390D01*
X133783333Y-61253390D02*
X133735714Y-61301009D01*
X133735714Y-61301009D02*
X133688095Y-61396247D01*
X134878571Y-60824819D02*
X134973809Y-60824819D01*
X134973809Y-60824819D02*
X135069047Y-60872438D01*
X135069047Y-60872438D02*
X135116666Y-60920057D01*
X135116666Y-60920057D02*
X135164285Y-61015295D01*
X135164285Y-61015295D02*
X135211904Y-61205771D01*
X135211904Y-61205771D02*
X135211904Y-61443866D01*
X135211904Y-61443866D02*
X135164285Y-61634342D01*
X135164285Y-61634342D02*
X135116666Y-61729580D01*
X135116666Y-61729580D02*
X135069047Y-61777200D01*
X135069047Y-61777200D02*
X134973809Y-61824819D01*
X134973809Y-61824819D02*
X134878571Y-61824819D01*
X134878571Y-61824819D02*
X134783333Y-61777200D01*
X134783333Y-61777200D02*
X134735714Y-61729580D01*
X134735714Y-61729580D02*
X134688095Y-61634342D01*
X134688095Y-61634342D02*
X134640476Y-61443866D01*
X134640476Y-61443866D02*
X134640476Y-61205771D01*
X134640476Y-61205771D02*
X134688095Y-61015295D01*
X134688095Y-61015295D02*
X134735714Y-60920057D01*
X134735714Y-60920057D02*
X134783333Y-60872438D01*
X134783333Y-60872438D02*
X134878571Y-60824819D01*
X135592857Y-61824819D02*
X135830952Y-61824819D01*
X135830952Y-61824819D02*
X135830952Y-61634342D01*
X135830952Y-61634342D02*
X135735714Y-61586723D01*
X135735714Y-61586723D02*
X135640476Y-61491485D01*
X135640476Y-61491485D02*
X135592857Y-61348628D01*
X135592857Y-61348628D02*
X135592857Y-61110533D01*
X135592857Y-61110533D02*
X135640476Y-60967676D01*
X135640476Y-60967676D02*
X135735714Y-60872438D01*
X135735714Y-60872438D02*
X135878571Y-60824819D01*
X135878571Y-60824819D02*
X136069047Y-60824819D01*
X136069047Y-60824819D02*
X136211904Y-60872438D01*
X136211904Y-60872438D02*
X136307142Y-60967676D01*
X136307142Y-60967676D02*
X136354761Y-61110533D01*
X136354761Y-61110533D02*
X136354761Y-61348628D01*
X136354761Y-61348628D02*
X136307142Y-61491485D01*
X136307142Y-61491485D02*
X136211904Y-61586723D01*
X136211904Y-61586723D02*
X136116666Y-61634342D01*
X136116666Y-61634342D02*
X136116666Y-61824819D01*
X136116666Y-61824819D02*
X136354761Y-61824819D01*
X132055180Y-95718095D02*
X131245657Y-95718095D01*
X131245657Y-95718095D02*
X131150419Y-95765714D01*
X131150419Y-95765714D02*
X131102800Y-95813333D01*
X131102800Y-95813333D02*
X131055180Y-95908571D01*
X131055180Y-95908571D02*
X131055180Y-96099047D01*
X131055180Y-96099047D02*
X131102800Y-96194285D01*
X131102800Y-96194285D02*
X131150419Y-96241904D01*
X131150419Y-96241904D02*
X131245657Y-96289523D01*
X131245657Y-96289523D02*
X132055180Y-96289523D01*
X131626609Y-96908571D02*
X131674228Y-96813333D01*
X131674228Y-96813333D02*
X131721847Y-96765714D01*
X131721847Y-96765714D02*
X131817085Y-96718095D01*
X131817085Y-96718095D02*
X131864704Y-96718095D01*
X131864704Y-96718095D02*
X131959942Y-96765714D01*
X131959942Y-96765714D02*
X132007561Y-96813333D01*
X132007561Y-96813333D02*
X132055180Y-96908571D01*
X132055180Y-96908571D02*
X132055180Y-97099047D01*
X132055180Y-97099047D02*
X132007561Y-97194285D01*
X132007561Y-97194285D02*
X131959942Y-97241904D01*
X131959942Y-97241904D02*
X131864704Y-97289523D01*
X131864704Y-97289523D02*
X131817085Y-97289523D01*
X131817085Y-97289523D02*
X131721847Y-97241904D01*
X131721847Y-97241904D02*
X131674228Y-97194285D01*
X131674228Y-97194285D02*
X131626609Y-97099047D01*
X131626609Y-97099047D02*
X131626609Y-96908571D01*
X131626609Y-96908571D02*
X131578990Y-96813333D01*
X131578990Y-96813333D02*
X131531371Y-96765714D01*
X131531371Y-96765714D02*
X131436133Y-96718095D01*
X131436133Y-96718095D02*
X131245657Y-96718095D01*
X131245657Y-96718095D02*
X131150419Y-96765714D01*
X131150419Y-96765714D02*
X131102800Y-96813333D01*
X131102800Y-96813333D02*
X131055180Y-96908571D01*
X131055180Y-96908571D02*
X131055180Y-97099047D01*
X131055180Y-97099047D02*
X131102800Y-97194285D01*
X131102800Y-97194285D02*
X131150419Y-97241904D01*
X131150419Y-97241904D02*
X131245657Y-97289523D01*
X131245657Y-97289523D02*
X131436133Y-97289523D01*
X131436133Y-97289523D02*
X131531371Y-97241904D01*
X131531371Y-97241904D02*
X131578990Y-97194285D01*
X131578990Y-97194285D02*
X131626609Y-97099047D01*
X121092800Y-92261905D02*
X121045180Y-92404762D01*
X121045180Y-92404762D02*
X121045180Y-92642857D01*
X121045180Y-92642857D02*
X121092800Y-92738095D01*
X121092800Y-92738095D02*
X121140419Y-92785714D01*
X121140419Y-92785714D02*
X121235657Y-92833333D01*
X121235657Y-92833333D02*
X121330895Y-92833333D01*
X121330895Y-92833333D02*
X121426133Y-92785714D01*
X121426133Y-92785714D02*
X121473752Y-92738095D01*
X121473752Y-92738095D02*
X121521371Y-92642857D01*
X121521371Y-92642857D02*
X121568990Y-92452381D01*
X121568990Y-92452381D02*
X121616609Y-92357143D01*
X121616609Y-92357143D02*
X121664228Y-92309524D01*
X121664228Y-92309524D02*
X121759466Y-92261905D01*
X121759466Y-92261905D02*
X121854704Y-92261905D01*
X121854704Y-92261905D02*
X121949942Y-92309524D01*
X121949942Y-92309524D02*
X121997561Y-92357143D01*
X121997561Y-92357143D02*
X122045180Y-92452381D01*
X122045180Y-92452381D02*
X122045180Y-92690476D01*
X122045180Y-92690476D02*
X121997561Y-92833333D01*
X121045180Y-93261905D02*
X122045180Y-93261905D01*
X122045180Y-93261905D02*
X122045180Y-93642857D01*
X122045180Y-93642857D02*
X121997561Y-93738095D01*
X121997561Y-93738095D02*
X121949942Y-93785714D01*
X121949942Y-93785714D02*
X121854704Y-93833333D01*
X121854704Y-93833333D02*
X121711847Y-93833333D01*
X121711847Y-93833333D02*
X121616609Y-93785714D01*
X121616609Y-93785714D02*
X121568990Y-93738095D01*
X121568990Y-93738095D02*
X121521371Y-93642857D01*
X121521371Y-93642857D02*
X121521371Y-93261905D01*
X122045180Y-94261905D02*
X121235657Y-94261905D01*
X121235657Y-94261905D02*
X121140419Y-94309524D01*
X121140419Y-94309524D02*
X121092800Y-94357143D01*
X121092800Y-94357143D02*
X121045180Y-94452381D01*
X121045180Y-94452381D02*
X121045180Y-94642857D01*
X121045180Y-94642857D02*
X121092800Y-94738095D01*
X121092800Y-94738095D02*
X121140419Y-94785714D01*
X121140419Y-94785714D02*
X121235657Y-94833333D01*
X121235657Y-94833333D02*
X122045180Y-94833333D01*
X122045180Y-95500000D02*
X122045180Y-95595238D01*
X122045180Y-95595238D02*
X121997561Y-95690476D01*
X121997561Y-95690476D02*
X121949942Y-95738095D01*
X121949942Y-95738095D02*
X121854704Y-95785714D01*
X121854704Y-95785714D02*
X121664228Y-95833333D01*
X121664228Y-95833333D02*
X121426133Y-95833333D01*
X121426133Y-95833333D02*
X121235657Y-95785714D01*
X121235657Y-95785714D02*
X121140419Y-95738095D01*
X121140419Y-95738095D02*
X121092800Y-95690476D01*
X121092800Y-95690476D02*
X121045180Y-95595238D01*
X121045180Y-95595238D02*
X121045180Y-95500000D01*
X121045180Y-95500000D02*
X121092800Y-95404762D01*
X121092800Y-95404762D02*
X121140419Y-95357143D01*
X121140419Y-95357143D02*
X121235657Y-95309524D01*
X121235657Y-95309524D02*
X121426133Y-95261905D01*
X121426133Y-95261905D02*
X121664228Y-95261905D01*
X121664228Y-95261905D02*
X121854704Y-95309524D01*
X121854704Y-95309524D02*
X121949942Y-95357143D01*
X121949942Y-95357143D02*
X121997561Y-95404762D01*
X121997561Y-95404762D02*
X122045180Y-95500000D01*
X122045180Y-96166667D02*
X122045180Y-96785714D01*
X122045180Y-96785714D02*
X121664228Y-96452381D01*
X121664228Y-96452381D02*
X121664228Y-96595238D01*
X121664228Y-96595238D02*
X121616609Y-96690476D01*
X121616609Y-96690476D02*
X121568990Y-96738095D01*
X121568990Y-96738095D02*
X121473752Y-96785714D01*
X121473752Y-96785714D02*
X121235657Y-96785714D01*
X121235657Y-96785714D02*
X121140419Y-96738095D01*
X121140419Y-96738095D02*
X121092800Y-96690476D01*
X121092800Y-96690476D02*
X121045180Y-96595238D01*
X121045180Y-96595238D02*
X121045180Y-96309524D01*
X121045180Y-96309524D02*
X121092800Y-96214286D01*
X121092800Y-96214286D02*
X121140419Y-96166667D01*
X121045180Y-97690476D02*
X121045180Y-97214286D01*
X121045180Y-97214286D02*
X122045180Y-97214286D01*
X121426133Y-98023810D02*
X121426133Y-98785715D01*
X121045180Y-99785714D02*
X121045180Y-99214286D01*
X121045180Y-99500000D02*
X122045180Y-99500000D01*
X122045180Y-99500000D02*
X121902323Y-99404762D01*
X121902323Y-99404762D02*
X121807085Y-99309524D01*
X121807085Y-99309524D02*
X121759466Y-99214286D01*
X121949942Y-100166667D02*
X121997561Y-100214286D01*
X121997561Y-100214286D02*
X122045180Y-100309524D01*
X122045180Y-100309524D02*
X122045180Y-100547619D01*
X122045180Y-100547619D02*
X121997561Y-100642857D01*
X121997561Y-100642857D02*
X121949942Y-100690476D01*
X121949942Y-100690476D02*
X121854704Y-100738095D01*
X121854704Y-100738095D02*
X121759466Y-100738095D01*
X121759466Y-100738095D02*
X121616609Y-100690476D01*
X121616609Y-100690476D02*
X121045180Y-100119048D01*
X121045180Y-100119048D02*
X121045180Y-100738095D01*
X124495180Y-85679600D02*
X124257085Y-85679600D01*
X124352323Y-85441505D02*
X124257085Y-85679600D01*
X124257085Y-85679600D02*
X124352323Y-85917695D01*
X124066609Y-85536743D02*
X124257085Y-85679600D01*
X124257085Y-85679600D02*
X124066609Y-85822457D01*
X123404819Y-85679599D02*
X123642914Y-85679599D01*
X123547676Y-85917694D02*
X123642914Y-85679599D01*
X123642914Y-85679599D02*
X123547676Y-85441504D01*
X123833390Y-85822456D02*
X123642914Y-85679599D01*
X123642914Y-85679599D02*
X123833390Y-85536742D01*
X97048214Y-62454819D02*
X97048214Y-61454819D01*
X97048214Y-61454819D02*
X97429166Y-61454819D01*
X97429166Y-61454819D02*
X97524404Y-61502438D01*
X97524404Y-61502438D02*
X97572023Y-61550057D01*
X97572023Y-61550057D02*
X97619642Y-61645295D01*
X97619642Y-61645295D02*
X97619642Y-61788152D01*
X97619642Y-61788152D02*
X97572023Y-61883390D01*
X97572023Y-61883390D02*
X97524404Y-61931009D01*
X97524404Y-61931009D02*
X97429166Y-61978628D01*
X97429166Y-61978628D02*
X97048214Y-61978628D01*
X98000595Y-62407200D02*
X98143452Y-62454819D01*
X98143452Y-62454819D02*
X98381547Y-62454819D01*
X98381547Y-62454819D02*
X98476785Y-62407200D01*
X98476785Y-62407200D02*
X98524404Y-62359580D01*
X98524404Y-62359580D02*
X98572023Y-62264342D01*
X98572023Y-62264342D02*
X98572023Y-62169104D01*
X98572023Y-62169104D02*
X98524404Y-62073866D01*
X98524404Y-62073866D02*
X98476785Y-62026247D01*
X98476785Y-62026247D02*
X98381547Y-61978628D01*
X98381547Y-61978628D02*
X98191071Y-61931009D01*
X98191071Y-61931009D02*
X98095833Y-61883390D01*
X98095833Y-61883390D02*
X98048214Y-61835771D01*
X98048214Y-61835771D02*
X98000595Y-61740533D01*
X98000595Y-61740533D02*
X98000595Y-61645295D01*
X98000595Y-61645295D02*
X98048214Y-61550057D01*
X98048214Y-61550057D02*
X98095833Y-61502438D01*
X98095833Y-61502438D02*
X98191071Y-61454819D01*
X98191071Y-61454819D02*
X98429166Y-61454819D01*
X98429166Y-61454819D02*
X98572023Y-61502438D01*
X99524404Y-62454819D02*
X98952976Y-62454819D01*
X99238690Y-62454819D02*
X99238690Y-61454819D01*
X99238690Y-61454819D02*
X99143452Y-61597676D01*
X99143452Y-61597676D02*
X99048214Y-61692914D01*
X99048214Y-61692914D02*
X98952976Y-61740533D01*
X93104405Y-90404819D02*
X93104405Y-89404819D01*
X94152023Y-90404819D02*
X93818690Y-89928628D01*
X93580595Y-90404819D02*
X93580595Y-89404819D01*
X93580595Y-89404819D02*
X93961547Y-89404819D01*
X93961547Y-89404819D02*
X94056785Y-89452438D01*
X94056785Y-89452438D02*
X94104404Y-89500057D01*
X94104404Y-89500057D02*
X94152023Y-89595295D01*
X94152023Y-89595295D02*
X94152023Y-89738152D01*
X94152023Y-89738152D02*
X94104404Y-89833390D01*
X94104404Y-89833390D02*
X94056785Y-89881009D01*
X94056785Y-89881009D02*
X93961547Y-89928628D01*
X93961547Y-89928628D02*
X93580595Y-89928628D01*
X94580595Y-90404819D02*
X94580595Y-89404819D01*
X94580595Y-89404819D02*
X94913928Y-90119104D01*
X94913928Y-90119104D02*
X95247261Y-89404819D01*
X95247261Y-89404819D02*
X95247261Y-90404819D01*
X95723452Y-90023866D02*
X96485357Y-90023866D01*
X97485356Y-90404819D02*
X96913928Y-90404819D01*
X97199642Y-90404819D02*
X97199642Y-89404819D01*
X97199642Y-89404819D02*
X97104404Y-89547676D01*
X97104404Y-89547676D02*
X97009166Y-89642914D01*
X97009166Y-89642914D02*
X96913928Y-89690533D01*
X98104404Y-89404819D02*
X98199642Y-89404819D01*
X98199642Y-89404819D02*
X98294880Y-89452438D01*
X98294880Y-89452438D02*
X98342499Y-89500057D01*
X98342499Y-89500057D02*
X98390118Y-89595295D01*
X98390118Y-89595295D02*
X98437737Y-89785771D01*
X98437737Y-89785771D02*
X98437737Y-90023866D01*
X98437737Y-90023866D02*
X98390118Y-90214342D01*
X98390118Y-90214342D02*
X98342499Y-90309580D01*
X98342499Y-90309580D02*
X98294880Y-90357200D01*
X98294880Y-90357200D02*
X98199642Y-90404819D01*
X98199642Y-90404819D02*
X98104404Y-90404819D01*
X98104404Y-90404819D02*
X98009166Y-90357200D01*
X98009166Y-90357200D02*
X97961547Y-90309580D01*
X97961547Y-90309580D02*
X97913928Y-90214342D01*
X97913928Y-90214342D02*
X97866309Y-90023866D01*
X97866309Y-90023866D02*
X97866309Y-89785771D01*
X97866309Y-89785771D02*
X97913928Y-89595295D01*
X97913928Y-89595295D02*
X97961547Y-89500057D01*
X97961547Y-89500057D02*
X98009166Y-89452438D01*
X98009166Y-89452438D02*
X98104404Y-89404819D01*
X98866309Y-90023866D02*
X99628214Y-90023866D01*
X100580594Y-89404819D02*
X100104404Y-89404819D01*
X100104404Y-89404819D02*
X100056785Y-89881009D01*
X100056785Y-89881009D02*
X100104404Y-89833390D01*
X100104404Y-89833390D02*
X100199642Y-89785771D01*
X100199642Y-89785771D02*
X100437737Y-89785771D01*
X100437737Y-89785771D02*
X100532975Y-89833390D01*
X100532975Y-89833390D02*
X100580594Y-89881009D01*
X100580594Y-89881009D02*
X100628213Y-89976247D01*
X100628213Y-89976247D02*
X100628213Y-90214342D01*
X100628213Y-90214342D02*
X100580594Y-90309580D01*
X100580594Y-90309580D02*
X100532975Y-90357200D01*
X100532975Y-90357200D02*
X100437737Y-90404819D01*
X100437737Y-90404819D02*
X100199642Y-90404819D01*
X100199642Y-90404819D02*
X100104404Y-90357200D01*
X100104404Y-90357200D02*
X100056785Y-90309580D01*
D10*
X196957419Y-101761904D02*
X197766942Y-101761904D01*
X197766942Y-101761904D02*
X197862180Y-101714285D01*
X197862180Y-101714285D02*
X197909800Y-101666666D01*
X197909800Y-101666666D02*
X197957419Y-101571428D01*
X197957419Y-101571428D02*
X197957419Y-101380952D01*
X197957419Y-101380952D02*
X197909800Y-101285714D01*
X197909800Y-101285714D02*
X197862180Y-101238095D01*
X197862180Y-101238095D02*
X197766942Y-101190476D01*
X197766942Y-101190476D02*
X196957419Y-101190476D01*
X196957419Y-100285714D02*
X196957419Y-100476190D01*
X196957419Y-100476190D02*
X197005038Y-100571428D01*
X197005038Y-100571428D02*
X197052657Y-100619047D01*
X197052657Y-100619047D02*
X197195514Y-100714285D01*
X197195514Y-100714285D02*
X197385990Y-100761904D01*
X197385990Y-100761904D02*
X197766942Y-100761904D01*
X197766942Y-100761904D02*
X197862180Y-100714285D01*
X197862180Y-100714285D02*
X197909800Y-100666666D01*
X197909800Y-100666666D02*
X197957419Y-100571428D01*
X197957419Y-100571428D02*
X197957419Y-100380952D01*
X197957419Y-100380952D02*
X197909800Y-100285714D01*
X197909800Y-100285714D02*
X197862180Y-100238095D01*
X197862180Y-100238095D02*
X197766942Y-100190476D01*
X197766942Y-100190476D02*
X197528847Y-100190476D01*
X197528847Y-100190476D02*
X197433609Y-100238095D01*
X197433609Y-100238095D02*
X197385990Y-100285714D01*
X197385990Y-100285714D02*
X197338371Y-100380952D01*
X197338371Y-100380952D02*
X197338371Y-100571428D01*
X197338371Y-100571428D02*
X197385990Y-100666666D01*
X197385990Y-100666666D02*
X197433609Y-100714285D01*
X197433609Y-100714285D02*
X197528847Y-100761904D01*
X199253371Y-111910401D02*
X199205752Y-111958020D01*
X199205752Y-111958020D02*
X199062895Y-112053258D01*
X199062895Y-112053258D02*
X198967657Y-112100877D01*
X198967657Y-112100877D02*
X198824800Y-112148496D01*
X198824800Y-112148496D02*
X198586704Y-112196115D01*
X198586704Y-112196115D02*
X198396228Y-112196115D01*
X198396228Y-112196115D02*
X198158133Y-112148496D01*
X198158133Y-112148496D02*
X198015276Y-112100877D01*
X198015276Y-112100877D02*
X197920038Y-112053258D01*
X197920038Y-112053258D02*
X197777180Y-111958020D01*
X197777180Y-111958020D02*
X197729561Y-111910401D01*
X198872419Y-111529448D02*
X197872419Y-111529448D01*
X197872419Y-111529448D02*
X197872419Y-111148496D01*
X197872419Y-111148496D02*
X197920038Y-111053258D01*
X197920038Y-111053258D02*
X197967657Y-111005639D01*
X197967657Y-111005639D02*
X198062895Y-110958020D01*
X198062895Y-110958020D02*
X198205752Y-110958020D01*
X198205752Y-110958020D02*
X198300990Y-111005639D01*
X198300990Y-111005639D02*
X198348609Y-111053258D01*
X198348609Y-111053258D02*
X198396228Y-111148496D01*
X198396228Y-111148496D02*
X198396228Y-111529448D01*
X198205752Y-110100877D02*
X198872419Y-110100877D01*
X198205752Y-110529448D02*
X198729561Y-110529448D01*
X198729561Y-110529448D02*
X198824800Y-110481829D01*
X198824800Y-110481829D02*
X198872419Y-110386591D01*
X198872419Y-110386591D02*
X198872419Y-110243734D01*
X198872419Y-110243734D02*
X198824800Y-110148496D01*
X198824800Y-110148496D02*
X198777180Y-110100877D01*
X198872419Y-109624686D02*
X198205752Y-109624686D01*
X198396228Y-109624686D02*
X198300990Y-109577067D01*
X198300990Y-109577067D02*
X198253371Y-109529448D01*
X198253371Y-109529448D02*
X198205752Y-109434210D01*
X198205752Y-109434210D02*
X198205752Y-109338972D01*
X198205752Y-109005638D02*
X199205752Y-109005638D01*
X198253371Y-109005638D02*
X198205752Y-108910400D01*
X198205752Y-108910400D02*
X198205752Y-108719924D01*
X198205752Y-108719924D02*
X198253371Y-108624686D01*
X198253371Y-108624686D02*
X198300990Y-108577067D01*
X198300990Y-108577067D02*
X198396228Y-108529448D01*
X198396228Y-108529448D02*
X198681942Y-108529448D01*
X198681942Y-108529448D02*
X198777180Y-108577067D01*
X198777180Y-108577067D02*
X198824800Y-108624686D01*
X198824800Y-108624686D02*
X198872419Y-108719924D01*
X198872419Y-108719924D02*
X198872419Y-108910400D01*
X198872419Y-108910400D02*
X198824800Y-109005638D01*
X198872419Y-107958019D02*
X198824800Y-108053257D01*
X198824800Y-108053257D02*
X198729561Y-108100876D01*
X198729561Y-108100876D02*
X197872419Y-108100876D01*
X198824800Y-107196114D02*
X198872419Y-107291352D01*
X198872419Y-107291352D02*
X198872419Y-107481828D01*
X198872419Y-107481828D02*
X198824800Y-107577066D01*
X198824800Y-107577066D02*
X198729561Y-107624685D01*
X198729561Y-107624685D02*
X198348609Y-107624685D01*
X198348609Y-107624685D02*
X198253371Y-107577066D01*
X198253371Y-107577066D02*
X198205752Y-107481828D01*
X198205752Y-107481828D02*
X198205752Y-107291352D01*
X198205752Y-107291352D02*
X198253371Y-107196114D01*
X198253371Y-107196114D02*
X198348609Y-107148495D01*
X198348609Y-107148495D02*
X198443847Y-107148495D01*
X198443847Y-107148495D02*
X198539085Y-107624685D01*
X199253371Y-106815161D02*
X199205752Y-106767542D01*
X199205752Y-106767542D02*
X199062895Y-106672304D01*
X199062895Y-106672304D02*
X198967657Y-106624685D01*
X198967657Y-106624685D02*
X198824800Y-106577066D01*
X198824800Y-106577066D02*
X198586704Y-106529447D01*
X198586704Y-106529447D02*
X198396228Y-106529447D01*
X198396228Y-106529447D02*
X198158133Y-106577066D01*
X198158133Y-106577066D02*
X198015276Y-106624685D01*
X198015276Y-106624685D02*
X197920038Y-106672304D01*
X197920038Y-106672304D02*
X197777180Y-106767542D01*
X197777180Y-106767542D02*
X197729561Y-106815161D01*
X196372419Y-107196115D02*
X195372419Y-107196115D01*
X195372419Y-107196115D02*
X195372419Y-106958020D01*
X195372419Y-106958020D02*
X195420038Y-106815163D01*
X195420038Y-106815163D02*
X195515276Y-106719925D01*
X195515276Y-106719925D02*
X195610514Y-106672306D01*
X195610514Y-106672306D02*
X195800990Y-106624687D01*
X195800990Y-106624687D02*
X195943847Y-106624687D01*
X195943847Y-106624687D02*
X196134323Y-106672306D01*
X196134323Y-106672306D02*
X196229561Y-106719925D01*
X196229561Y-106719925D02*
X196324800Y-106815163D01*
X196324800Y-106815163D02*
X196372419Y-106958020D01*
X196372419Y-106958020D02*
X196372419Y-107196115D01*
X196372419Y-106196115D02*
X195705752Y-106196115D01*
X195372419Y-106196115D02*
X195420038Y-106243734D01*
X195420038Y-106243734D02*
X195467657Y-106196115D01*
X195467657Y-106196115D02*
X195420038Y-106148496D01*
X195420038Y-106148496D02*
X195372419Y-106196115D01*
X195372419Y-106196115D02*
X195467657Y-106196115D01*
X196372419Y-105719925D02*
X195705752Y-105719925D01*
X195800990Y-105719925D02*
X195753371Y-105672306D01*
X195753371Y-105672306D02*
X195705752Y-105577068D01*
X195705752Y-105577068D02*
X195705752Y-105434211D01*
X195705752Y-105434211D02*
X195753371Y-105338973D01*
X195753371Y-105338973D02*
X195848609Y-105291354D01*
X195848609Y-105291354D02*
X196372419Y-105291354D01*
X195848609Y-105291354D02*
X195753371Y-105243735D01*
X195753371Y-105243735D02*
X195705752Y-105148497D01*
X195705752Y-105148497D02*
X195705752Y-105005640D01*
X195705752Y-105005640D02*
X195753371Y-104910401D01*
X195753371Y-104910401D02*
X195848609Y-104862782D01*
X195848609Y-104862782D02*
X196372419Y-104862782D01*
X196372419Y-104386592D02*
X195705752Y-104386592D01*
X195800990Y-104386592D02*
X195753371Y-104338973D01*
X195753371Y-104338973D02*
X195705752Y-104243735D01*
X195705752Y-104243735D02*
X195705752Y-104100878D01*
X195705752Y-104100878D02*
X195753371Y-104005640D01*
X195753371Y-104005640D02*
X195848609Y-103958021D01*
X195848609Y-103958021D02*
X196372419Y-103958021D01*
X195848609Y-103958021D02*
X195753371Y-103910402D01*
X195753371Y-103910402D02*
X195705752Y-103815164D01*
X195705752Y-103815164D02*
X195705752Y-103672307D01*
X195705752Y-103672307D02*
X195753371Y-103577068D01*
X195753371Y-103577068D02*
X195848609Y-103529449D01*
X195848609Y-103529449D02*
X196372419Y-103529449D01*
X196372419Y-103053259D02*
X195705752Y-103053259D01*
X195372419Y-103053259D02*
X195420038Y-103100878D01*
X195420038Y-103100878D02*
X195467657Y-103053259D01*
X195467657Y-103053259D02*
X195420038Y-103005640D01*
X195420038Y-103005640D02*
X195372419Y-103053259D01*
X195372419Y-103053259D02*
X195467657Y-103053259D01*
X195705752Y-102577069D02*
X196372419Y-102577069D01*
X195800990Y-102577069D02*
X195753371Y-102529450D01*
X195753371Y-102529450D02*
X195705752Y-102434212D01*
X195705752Y-102434212D02*
X195705752Y-102291355D01*
X195705752Y-102291355D02*
X195753371Y-102196117D01*
X195753371Y-102196117D02*
X195848609Y-102148498D01*
X195848609Y-102148498D02*
X196372419Y-102148498D01*
X195705752Y-101243736D02*
X196515276Y-101243736D01*
X196515276Y-101243736D02*
X196610514Y-101291355D01*
X196610514Y-101291355D02*
X196658133Y-101338974D01*
X196658133Y-101338974D02*
X196705752Y-101434212D01*
X196705752Y-101434212D02*
X196705752Y-101577069D01*
X196705752Y-101577069D02*
X196658133Y-101672307D01*
X196324800Y-101243736D02*
X196372419Y-101338974D01*
X196372419Y-101338974D02*
X196372419Y-101529450D01*
X196372419Y-101529450D02*
X196324800Y-101624688D01*
X196324800Y-101624688D02*
X196277180Y-101672307D01*
X196277180Y-101672307D02*
X196181942Y-101719926D01*
X196181942Y-101719926D02*
X195896228Y-101719926D01*
X195896228Y-101719926D02*
X195800990Y-101672307D01*
X195800990Y-101672307D02*
X195753371Y-101624688D01*
X195753371Y-101624688D02*
X195705752Y-101529450D01*
X195705752Y-101529450D02*
X195705752Y-101338974D01*
X195705752Y-101338974D02*
X195753371Y-101243736D01*
X196324800Y-99577069D02*
X196372419Y-99672307D01*
X196372419Y-99672307D02*
X196372419Y-99862783D01*
X196372419Y-99862783D02*
X196324800Y-99958021D01*
X196324800Y-99958021D02*
X196277180Y-100005640D01*
X196277180Y-100005640D02*
X196181942Y-100053259D01*
X196181942Y-100053259D02*
X195896228Y-100053259D01*
X195896228Y-100053259D02*
X195800990Y-100005640D01*
X195800990Y-100005640D02*
X195753371Y-99958021D01*
X195753371Y-99958021D02*
X195705752Y-99862783D01*
X195705752Y-99862783D02*
X195705752Y-99672307D01*
X195705752Y-99672307D02*
X195753371Y-99577069D01*
X196372419Y-99005640D02*
X196324800Y-99100878D01*
X196324800Y-99100878D02*
X196277180Y-99148497D01*
X196277180Y-99148497D02*
X196181942Y-99196116D01*
X196181942Y-99196116D02*
X195896228Y-99196116D01*
X195896228Y-99196116D02*
X195800990Y-99148497D01*
X195800990Y-99148497D02*
X195753371Y-99100878D01*
X195753371Y-99100878D02*
X195705752Y-99005640D01*
X195705752Y-99005640D02*
X195705752Y-98862783D01*
X195705752Y-98862783D02*
X195753371Y-98767545D01*
X195753371Y-98767545D02*
X195800990Y-98719926D01*
X195800990Y-98719926D02*
X195896228Y-98672307D01*
X195896228Y-98672307D02*
X196181942Y-98672307D01*
X196181942Y-98672307D02*
X196277180Y-98719926D01*
X196277180Y-98719926D02*
X196324800Y-98767545D01*
X196324800Y-98767545D02*
X196372419Y-98862783D01*
X196372419Y-98862783D02*
X196372419Y-99005640D01*
X195705752Y-98243735D02*
X196372419Y-98243735D01*
X195800990Y-98243735D02*
X195753371Y-98196116D01*
X195753371Y-98196116D02*
X195705752Y-98100878D01*
X195705752Y-98100878D02*
X195705752Y-97958021D01*
X195705752Y-97958021D02*
X195753371Y-97862783D01*
X195753371Y-97862783D02*
X195848609Y-97815164D01*
X195848609Y-97815164D02*
X196372419Y-97815164D01*
X195705752Y-97481830D02*
X195705752Y-97100878D01*
X195372419Y-97338973D02*
X196229561Y-97338973D01*
X196229561Y-97338973D02*
X196324800Y-97291354D01*
X196324800Y-97291354D02*
X196372419Y-97196116D01*
X196372419Y-97196116D02*
X196372419Y-97100878D01*
X196372419Y-96767544D02*
X195705752Y-96767544D01*
X195896228Y-96767544D02*
X195800990Y-96719925D01*
X195800990Y-96719925D02*
X195753371Y-96672306D01*
X195753371Y-96672306D02*
X195705752Y-96577068D01*
X195705752Y-96577068D02*
X195705752Y-96481830D01*
X196372419Y-96005639D02*
X196324800Y-96100877D01*
X196324800Y-96100877D02*
X196277180Y-96148496D01*
X196277180Y-96148496D02*
X196181942Y-96196115D01*
X196181942Y-96196115D02*
X195896228Y-96196115D01*
X195896228Y-96196115D02*
X195800990Y-96148496D01*
X195800990Y-96148496D02*
X195753371Y-96100877D01*
X195753371Y-96100877D02*
X195705752Y-96005639D01*
X195705752Y-96005639D02*
X195705752Y-95862782D01*
X195705752Y-95862782D02*
X195753371Y-95767544D01*
X195753371Y-95767544D02*
X195800990Y-95719925D01*
X195800990Y-95719925D02*
X195896228Y-95672306D01*
X195896228Y-95672306D02*
X196181942Y-95672306D01*
X196181942Y-95672306D02*
X196277180Y-95719925D01*
X196277180Y-95719925D02*
X196324800Y-95767544D01*
X196324800Y-95767544D02*
X196372419Y-95862782D01*
X196372419Y-95862782D02*
X196372419Y-96005639D01*
X196372419Y-95100877D02*
X196324800Y-95196115D01*
X196324800Y-95196115D02*
X196229561Y-95243734D01*
X196229561Y-95243734D02*
X195372419Y-95243734D01*
X193872419Y-93696115D02*
X192872419Y-93696115D01*
X192872419Y-93696115D02*
X192872419Y-93458020D01*
X192872419Y-93458020D02*
X192920038Y-93315163D01*
X192920038Y-93315163D02*
X193015276Y-93219925D01*
X193015276Y-93219925D02*
X193110514Y-93172306D01*
X193110514Y-93172306D02*
X193300990Y-93124687D01*
X193300990Y-93124687D02*
X193443847Y-93124687D01*
X193443847Y-93124687D02*
X193634323Y-93172306D01*
X193634323Y-93172306D02*
X193729561Y-93219925D01*
X193729561Y-93219925D02*
X193824800Y-93315163D01*
X193824800Y-93315163D02*
X193872419Y-93458020D01*
X193872419Y-93458020D02*
X193872419Y-93696115D01*
X193872419Y-92696115D02*
X193205752Y-92696115D01*
X192872419Y-92696115D02*
X192920038Y-92743734D01*
X192920038Y-92743734D02*
X192967657Y-92696115D01*
X192967657Y-92696115D02*
X192920038Y-92648496D01*
X192920038Y-92648496D02*
X192872419Y-92696115D01*
X192872419Y-92696115D02*
X192967657Y-92696115D01*
X193872419Y-92219925D02*
X193205752Y-92219925D01*
X193300990Y-92219925D02*
X193253371Y-92172306D01*
X193253371Y-92172306D02*
X193205752Y-92077068D01*
X193205752Y-92077068D02*
X193205752Y-91934211D01*
X193205752Y-91934211D02*
X193253371Y-91838973D01*
X193253371Y-91838973D02*
X193348609Y-91791354D01*
X193348609Y-91791354D02*
X193872419Y-91791354D01*
X193348609Y-91791354D02*
X193253371Y-91743735D01*
X193253371Y-91743735D02*
X193205752Y-91648497D01*
X193205752Y-91648497D02*
X193205752Y-91505640D01*
X193205752Y-91505640D02*
X193253371Y-91410401D01*
X193253371Y-91410401D02*
X193348609Y-91362782D01*
X193348609Y-91362782D02*
X193872419Y-91362782D01*
X193491466Y-90886592D02*
X193491466Y-90124688D01*
X193872419Y-110696115D02*
X192872419Y-110696115D01*
X192872419Y-110696115D02*
X192872419Y-110458020D01*
X192872419Y-110458020D02*
X192920038Y-110315163D01*
X192920038Y-110315163D02*
X193015276Y-110219925D01*
X193015276Y-110219925D02*
X193110514Y-110172306D01*
X193110514Y-110172306D02*
X193300990Y-110124687D01*
X193300990Y-110124687D02*
X193443847Y-110124687D01*
X193443847Y-110124687D02*
X193634323Y-110172306D01*
X193634323Y-110172306D02*
X193729561Y-110219925D01*
X193729561Y-110219925D02*
X193824800Y-110315163D01*
X193824800Y-110315163D02*
X193872419Y-110458020D01*
X193872419Y-110458020D02*
X193872419Y-110696115D01*
X193872419Y-109696115D02*
X193205752Y-109696115D01*
X192872419Y-109696115D02*
X192920038Y-109743734D01*
X192920038Y-109743734D02*
X192967657Y-109696115D01*
X192967657Y-109696115D02*
X192920038Y-109648496D01*
X192920038Y-109648496D02*
X192872419Y-109696115D01*
X192872419Y-109696115D02*
X192967657Y-109696115D01*
X193872419Y-109219925D02*
X193205752Y-109219925D01*
X193300990Y-109219925D02*
X193253371Y-109172306D01*
X193253371Y-109172306D02*
X193205752Y-109077068D01*
X193205752Y-109077068D02*
X193205752Y-108934211D01*
X193205752Y-108934211D02*
X193253371Y-108838973D01*
X193253371Y-108838973D02*
X193348609Y-108791354D01*
X193348609Y-108791354D02*
X193872419Y-108791354D01*
X193348609Y-108791354D02*
X193253371Y-108743735D01*
X193253371Y-108743735D02*
X193205752Y-108648497D01*
X193205752Y-108648497D02*
X193205752Y-108505640D01*
X193205752Y-108505640D02*
X193253371Y-108410401D01*
X193253371Y-108410401D02*
X193348609Y-108362782D01*
X193348609Y-108362782D02*
X193872419Y-108362782D01*
X193491466Y-107886592D02*
X193491466Y-107124688D01*
X193872419Y-107505640D02*
X193110514Y-107505640D01*
X199253371Y-94410401D02*
X199205752Y-94458020D01*
X199205752Y-94458020D02*
X199062895Y-94553258D01*
X199062895Y-94553258D02*
X198967657Y-94600877D01*
X198967657Y-94600877D02*
X198824800Y-94648496D01*
X198824800Y-94648496D02*
X198586704Y-94696115D01*
X198586704Y-94696115D02*
X198396228Y-94696115D01*
X198396228Y-94696115D02*
X198158133Y-94648496D01*
X198158133Y-94648496D02*
X198015276Y-94600877D01*
X198015276Y-94600877D02*
X197920038Y-94553258D01*
X197920038Y-94553258D02*
X197777180Y-94458020D01*
X197777180Y-94458020D02*
X197729561Y-94410401D01*
X198872419Y-94029448D02*
X197872419Y-94029448D01*
X197872419Y-94029448D02*
X197872419Y-93648496D01*
X197872419Y-93648496D02*
X197920038Y-93553258D01*
X197920038Y-93553258D02*
X197967657Y-93505639D01*
X197967657Y-93505639D02*
X198062895Y-93458020D01*
X198062895Y-93458020D02*
X198205752Y-93458020D01*
X198205752Y-93458020D02*
X198300990Y-93505639D01*
X198300990Y-93505639D02*
X198348609Y-93553258D01*
X198348609Y-93553258D02*
X198396228Y-93648496D01*
X198396228Y-93648496D02*
X198396228Y-94029448D01*
X198872419Y-93029448D02*
X198205752Y-93029448D01*
X197872419Y-93029448D02*
X197920038Y-93077067D01*
X197920038Y-93077067D02*
X197967657Y-93029448D01*
X197967657Y-93029448D02*
X197920038Y-92981829D01*
X197920038Y-92981829D02*
X197872419Y-93029448D01*
X197872419Y-93029448D02*
X197967657Y-93029448D01*
X198205752Y-92553258D02*
X198872419Y-92553258D01*
X198300990Y-92553258D02*
X198253371Y-92505639D01*
X198253371Y-92505639D02*
X198205752Y-92410401D01*
X198205752Y-92410401D02*
X198205752Y-92267544D01*
X198205752Y-92267544D02*
X198253371Y-92172306D01*
X198253371Y-92172306D02*
X198348609Y-92124687D01*
X198348609Y-92124687D02*
X198872419Y-92124687D01*
X198872419Y-91648496D02*
X197872419Y-91648496D01*
X198491466Y-91553258D02*
X198872419Y-91267544D01*
X198205752Y-91267544D02*
X198586704Y-91648496D01*
X199253371Y-90934210D02*
X199205752Y-90886591D01*
X199205752Y-90886591D02*
X199062895Y-90791353D01*
X199062895Y-90791353D02*
X198967657Y-90743734D01*
X198967657Y-90743734D02*
X198824800Y-90696115D01*
X198824800Y-90696115D02*
X198586704Y-90648496D01*
X198586704Y-90648496D02*
X198396228Y-90648496D01*
X198396228Y-90648496D02*
X198158133Y-90696115D01*
X198158133Y-90696115D02*
X198015276Y-90743734D01*
X198015276Y-90743734D02*
X197920038Y-90791353D01*
X197920038Y-90791353D02*
X197777180Y-90886591D01*
X197777180Y-90886591D02*
X197729561Y-90934210D01*
D13*
X199653333Y-45559580D02*
X199605714Y-45607200D01*
X199605714Y-45607200D02*
X199462857Y-45654819D01*
X199462857Y-45654819D02*
X199367619Y-45654819D01*
X199367619Y-45654819D02*
X199224762Y-45607200D01*
X199224762Y-45607200D02*
X199129524Y-45511961D01*
X199129524Y-45511961D02*
X199081905Y-45416723D01*
X199081905Y-45416723D02*
X199034286Y-45226247D01*
X199034286Y-45226247D02*
X199034286Y-45083390D01*
X199034286Y-45083390D02*
X199081905Y-44892914D01*
X199081905Y-44892914D02*
X199129524Y-44797676D01*
X199129524Y-44797676D02*
X199224762Y-44702438D01*
X199224762Y-44702438D02*
X199367619Y-44654819D01*
X199367619Y-44654819D02*
X199462857Y-44654819D01*
X199462857Y-44654819D02*
X199605714Y-44702438D01*
X199605714Y-44702438D02*
X199653333Y-44750057D01*
X200605714Y-45654819D02*
X200034286Y-45654819D01*
X200320000Y-45654819D02*
X200320000Y-44654819D01*
X200320000Y-44654819D02*
X200224762Y-44797676D01*
X200224762Y-44797676D02*
X200129524Y-44892914D01*
X200129524Y-44892914D02*
X200034286Y-44940533D01*
X198105714Y-49254819D02*
X198200952Y-49254819D01*
X198200952Y-49254819D02*
X198296190Y-49302438D01*
X198296190Y-49302438D02*
X198343809Y-49350057D01*
X198343809Y-49350057D02*
X198391428Y-49445295D01*
X198391428Y-49445295D02*
X198439047Y-49635771D01*
X198439047Y-49635771D02*
X198439047Y-49873866D01*
X198439047Y-49873866D02*
X198391428Y-50064342D01*
X198391428Y-50064342D02*
X198343809Y-50159580D01*
X198343809Y-50159580D02*
X198296190Y-50207200D01*
X198296190Y-50207200D02*
X198200952Y-50254819D01*
X198200952Y-50254819D02*
X198105714Y-50254819D01*
X198105714Y-50254819D02*
X198010476Y-50207200D01*
X198010476Y-50207200D02*
X197962857Y-50159580D01*
X197962857Y-50159580D02*
X197915238Y-50064342D01*
X197915238Y-50064342D02*
X197867619Y-49873866D01*
X197867619Y-49873866D02*
X197867619Y-49635771D01*
X197867619Y-49635771D02*
X197915238Y-49445295D01*
X197915238Y-49445295D02*
X197962857Y-49350057D01*
X197962857Y-49350057D02*
X198010476Y-49302438D01*
X198010476Y-49302438D02*
X198105714Y-49254819D01*
X198867619Y-50159580D02*
X198915238Y-50207200D01*
X198915238Y-50207200D02*
X198867619Y-50254819D01*
X198867619Y-50254819D02*
X198820000Y-50207200D01*
X198820000Y-50207200D02*
X198867619Y-50159580D01*
X198867619Y-50159580D02*
X198867619Y-50254819D01*
X199867618Y-50254819D02*
X199296190Y-50254819D01*
X199581904Y-50254819D02*
X199581904Y-49254819D01*
X199581904Y-49254819D02*
X199486666Y-49397676D01*
X199486666Y-49397676D02*
X199391428Y-49492914D01*
X199391428Y-49492914D02*
X199296190Y-49540533D01*
X200296190Y-49588152D02*
X200296190Y-50588152D01*
X200772380Y-50111961D02*
X200819999Y-50207200D01*
X200819999Y-50207200D02*
X200915237Y-50254819D01*
X200296190Y-50111961D02*
X200343809Y-50207200D01*
X200343809Y-50207200D02*
X200439047Y-50254819D01*
X200439047Y-50254819D02*
X200629523Y-50254819D01*
X200629523Y-50254819D02*
X200724761Y-50207200D01*
X200724761Y-50207200D02*
X200772380Y-50111961D01*
X200772380Y-50111961D02*
X200772380Y-49588152D01*
X201677142Y-49731009D02*
X201343809Y-49731009D01*
X201343809Y-50254819D02*
X201343809Y-49254819D01*
X201343809Y-49254819D02*
X201819999Y-49254819D01*
D14*
X120636190Y-30113479D02*
X120636190Y-30627526D01*
X120636190Y-30627526D02*
X120666428Y-30688002D01*
X120666428Y-30688002D02*
X120696666Y-30718241D01*
X120696666Y-30718241D02*
X120757142Y-30748479D01*
X120757142Y-30748479D02*
X120878095Y-30748479D01*
X120878095Y-30748479D02*
X120938571Y-30718241D01*
X120938571Y-30718241D02*
X120968809Y-30688002D01*
X120968809Y-30688002D02*
X120999047Y-30627526D01*
X120999047Y-30627526D02*
X120999047Y-30113479D01*
X121634047Y-30748479D02*
X121271190Y-30748479D01*
X121452618Y-30748479D02*
X121452618Y-30113479D01*
X121452618Y-30113479D02*
X121392142Y-30204193D01*
X121392142Y-30204193D02*
X121331666Y-30264669D01*
X121331666Y-30264669D02*
X121271190Y-30294907D01*
X125235476Y-42113479D02*
X125658809Y-42748479D01*
X125658809Y-42113479D02*
X125235476Y-42748479D01*
X125900714Y-42748479D02*
X125900714Y-42113479D01*
X126172857Y-42567050D02*
X126475238Y-42567050D01*
X126112381Y-42748479D02*
X126324047Y-42113479D01*
X126324047Y-42113479D02*
X126535714Y-42748479D01*
X126868333Y-42113479D02*
X126989286Y-42113479D01*
X126989286Y-42113479D02*
X127049762Y-42143717D01*
X127049762Y-42143717D02*
X127110238Y-42204193D01*
X127110238Y-42204193D02*
X127140476Y-42325145D01*
X127140476Y-42325145D02*
X127140476Y-42536812D01*
X127140476Y-42536812D02*
X127110238Y-42657764D01*
X127110238Y-42657764D02*
X127049762Y-42718241D01*
X127049762Y-42718241D02*
X126989286Y-42748479D01*
X126989286Y-42748479D02*
X126868333Y-42748479D01*
X126868333Y-42748479D02*
X126807857Y-42718241D01*
X126807857Y-42718241D02*
X126747381Y-42657764D01*
X126747381Y-42657764D02*
X126717143Y-42536812D01*
X126717143Y-42536812D02*
X126717143Y-42325145D01*
X126717143Y-42325145D02*
X126747381Y-42204193D01*
X126747381Y-42204193D02*
X126807857Y-42143717D01*
X126807857Y-42143717D02*
X126868333Y-42113479D01*
X127412619Y-42506574D02*
X127896429Y-42506574D01*
X128561666Y-42748479D02*
X128349999Y-42446098D01*
X128198809Y-42748479D02*
X128198809Y-42113479D01*
X128198809Y-42113479D02*
X128440714Y-42113479D01*
X128440714Y-42113479D02*
X128501190Y-42143717D01*
X128501190Y-42143717D02*
X128531428Y-42173955D01*
X128531428Y-42173955D02*
X128561666Y-42234431D01*
X128561666Y-42234431D02*
X128561666Y-42325145D01*
X128561666Y-42325145D02*
X128531428Y-42385621D01*
X128531428Y-42385621D02*
X128501190Y-42415860D01*
X128501190Y-42415860D02*
X128440714Y-42446098D01*
X128440714Y-42446098D02*
X128198809Y-42446098D01*
X128833809Y-42748479D02*
X128833809Y-42113479D01*
X128833809Y-42113479D02*
X129075714Y-42113479D01*
X129075714Y-42113479D02*
X129136190Y-42143717D01*
X129136190Y-42143717D02*
X129166428Y-42173955D01*
X129166428Y-42173955D02*
X129196666Y-42234431D01*
X129196666Y-42234431D02*
X129196666Y-42325145D01*
X129196666Y-42325145D02*
X129166428Y-42385621D01*
X129166428Y-42385621D02*
X129136190Y-42415860D01*
X129136190Y-42415860D02*
X129075714Y-42446098D01*
X129075714Y-42446098D02*
X128833809Y-42446098D01*
X129438571Y-42173955D02*
X129468809Y-42143717D01*
X129468809Y-42143717D02*
X129529285Y-42113479D01*
X129529285Y-42113479D02*
X129680476Y-42113479D01*
X129680476Y-42113479D02*
X129740952Y-42143717D01*
X129740952Y-42143717D02*
X129771190Y-42173955D01*
X129771190Y-42173955D02*
X129801428Y-42234431D01*
X129801428Y-42234431D02*
X129801428Y-42294907D01*
X129801428Y-42294907D02*
X129771190Y-42385621D01*
X129771190Y-42385621D02*
X129408333Y-42748479D01*
X129408333Y-42748479D02*
X129801428Y-42748479D01*
X130194523Y-42113479D02*
X130255000Y-42113479D01*
X130255000Y-42113479D02*
X130315476Y-42143717D01*
X130315476Y-42143717D02*
X130345714Y-42173955D01*
X130345714Y-42173955D02*
X130375952Y-42234431D01*
X130375952Y-42234431D02*
X130406190Y-42355383D01*
X130406190Y-42355383D02*
X130406190Y-42506574D01*
X130406190Y-42506574D02*
X130375952Y-42627526D01*
X130375952Y-42627526D02*
X130345714Y-42688002D01*
X130345714Y-42688002D02*
X130315476Y-42718241D01*
X130315476Y-42718241D02*
X130255000Y-42748479D01*
X130255000Y-42748479D02*
X130194523Y-42748479D01*
X130194523Y-42748479D02*
X130134047Y-42718241D01*
X130134047Y-42718241D02*
X130103809Y-42688002D01*
X130103809Y-42688002D02*
X130073571Y-42627526D01*
X130073571Y-42627526D02*
X130043333Y-42506574D01*
X130043333Y-42506574D02*
X130043333Y-42355383D01*
X130043333Y-42355383D02*
X130073571Y-42234431D01*
X130073571Y-42234431D02*
X130103809Y-42173955D01*
X130103809Y-42173955D02*
X130134047Y-42143717D01*
X130134047Y-42143717D02*
X130194523Y-42113479D01*
X130950476Y-42325145D02*
X130950476Y-42748479D01*
X130799285Y-42083241D02*
X130648095Y-42536812D01*
X130648095Y-42536812D02*
X131041190Y-42536812D01*
X131404047Y-42113479D02*
X131464524Y-42113479D01*
X131464524Y-42113479D02*
X131525000Y-42143717D01*
X131525000Y-42143717D02*
X131555238Y-42173955D01*
X131555238Y-42173955D02*
X131585476Y-42234431D01*
X131585476Y-42234431D02*
X131615714Y-42355383D01*
X131615714Y-42355383D02*
X131615714Y-42506574D01*
X131615714Y-42506574D02*
X131585476Y-42627526D01*
X131585476Y-42627526D02*
X131555238Y-42688002D01*
X131555238Y-42688002D02*
X131525000Y-42718241D01*
X131525000Y-42718241D02*
X131464524Y-42748479D01*
X131464524Y-42748479D02*
X131404047Y-42748479D01*
X131404047Y-42748479D02*
X131343571Y-42718241D01*
X131343571Y-42718241D02*
X131313333Y-42688002D01*
X131313333Y-42688002D02*
X131283095Y-42627526D01*
X131283095Y-42627526D02*
X131252857Y-42506574D01*
X131252857Y-42506574D02*
X131252857Y-42355383D01*
X131252857Y-42355383D02*
X131283095Y-42234431D01*
X131283095Y-42234431D02*
X131313333Y-42173955D01*
X131313333Y-42173955D02*
X131343571Y-42143717D01*
X131343571Y-42143717D02*
X131404047Y-42113479D01*
X131887857Y-42506574D02*
X132371667Y-42506574D01*
X132674047Y-42748479D02*
X132674047Y-42113479D01*
X132674047Y-42113479D02*
X132825237Y-42113479D01*
X132825237Y-42113479D02*
X132915952Y-42143717D01*
X132915952Y-42143717D02*
X132976428Y-42204193D01*
X132976428Y-42204193D02*
X133006666Y-42264669D01*
X133006666Y-42264669D02*
X133036904Y-42385621D01*
X133036904Y-42385621D02*
X133036904Y-42476336D01*
X133036904Y-42476336D02*
X133006666Y-42597288D01*
X133006666Y-42597288D02*
X132976428Y-42657764D01*
X132976428Y-42657764D02*
X132915952Y-42718241D01*
X132915952Y-42718241D02*
X132825237Y-42748479D01*
X132825237Y-42748479D02*
X132674047Y-42748479D01*
X133309047Y-42748479D02*
X133309047Y-42113479D01*
X133611428Y-42748479D02*
X133611428Y-42113479D01*
X133611428Y-42113479D02*
X133853333Y-42113479D01*
X133853333Y-42113479D02*
X133913809Y-42143717D01*
X133913809Y-42143717D02*
X133944047Y-42173955D01*
X133944047Y-42173955D02*
X133974285Y-42234431D01*
X133974285Y-42234431D02*
X133974285Y-42325145D01*
X133974285Y-42325145D02*
X133944047Y-42385621D01*
X133944047Y-42385621D02*
X133913809Y-42415860D01*
X133913809Y-42415860D02*
X133853333Y-42446098D01*
X133853333Y-42446098D02*
X133611428Y-42446098D01*
D15*
%TO.C,U4*%
X200070000Y-52940000D02*
X198120000Y-52940000D01*
X200070000Y-52940000D02*
X202020000Y-52940000D01*
X200070000Y-58060000D02*
X198120000Y-58060000D01*
X200070000Y-58060000D02*
X202020000Y-58060000D01*
X197370000Y-53035000D02*
X197130000Y-52705000D01*
X197610000Y-52705000D01*
X197370000Y-53035000D01*
G36*
X197370000Y-53035000D02*
G01*
X197130000Y-52705000D01*
X197610000Y-52705000D01*
X197370000Y-53035000D01*
G37*
%TO.C,U3*%
X200895000Y-98345000D02*
X200895000Y-99995000D01*
X200895000Y-101995000D02*
X200895000Y-103645000D01*
X200895000Y-103645000D02*
X206095000Y-103645000D01*
X206095000Y-98345000D02*
X200895000Y-98345000D01*
X206095000Y-103645000D02*
X206095000Y-98345000D01*
X200895000Y-99995000D02*
G75*
G02*
X200895000Y-101995000I0J-1000000D01*
G01*
%TO.C,R2*%
X171000000Y-92920000D02*
X171000000Y-96230000D01*
X171000000Y-106080000D02*
X171000000Y-102770000D01*
X172370000Y-96230000D02*
X169630000Y-96230000D01*
X169630000Y-102770000D01*
X172370000Y-102770000D01*
X172370000Y-96230000D01*
%TO.C,C2*%
X198908748Y-63790000D02*
X201231252Y-63790000D01*
X198908748Y-67210000D02*
X201231252Y-67210000D01*
%TO.C,M2*%
X114620000Y-97540000D02*
X116000000Y-97540000D01*
X114620000Y-98920000D02*
X114620000Y-97540000D01*
X114620000Y-100190000D02*
X114620000Y-107920000D01*
X114620000Y-100190000D02*
X117380000Y-100190000D01*
X114620000Y-107920000D02*
X117380000Y-107920000D01*
X117380000Y-100190000D02*
X117380000Y-107920000D01*
%TO.C,M1*%
X129230000Y-109400000D02*
X134980000Y-109400000D01*
X129230000Y-115400000D02*
X129230000Y-109400000D01*
X130580000Y-114290000D02*
X135660000Y-114290000D01*
X130580000Y-115300000D02*
X130580000Y-114290000D01*
X135660000Y-114290000D02*
X135660000Y-115300000D01*
X136330000Y-109450000D02*
X139530000Y-109450000D01*
X139530000Y-109450000D02*
X139530000Y-115400000D01*
X139530000Y-115400000D02*
X129230000Y-115400000D01*
%TO.C,TC1*%
X195150000Y-73880000D02*
X205590000Y-73880000D01*
X195150000Y-84120000D02*
X195150000Y-73880000D01*
X195150000Y-84120000D02*
X205590000Y-84120000D01*
X203870000Y-84120000D02*
X203870000Y-73880000D01*
X204970000Y-84120000D02*
X204970000Y-73880000D01*
X205590000Y-81200000D02*
X205590000Y-73880000D01*
X205590000Y-84120000D02*
X205590000Y-81800000D01*
X206200000Y-81940000D02*
X205590000Y-81500000D01*
X206200000Y-81060000D01*
X206200000Y-81940000D01*
G36*
X206200000Y-81940000D02*
G01*
X205590000Y-81500000D01*
X206200000Y-81060000D01*
X206200000Y-81940000D01*
G37*
%TO.C,R4*%
X126870000Y-59000000D02*
X130180000Y-59000000D01*
X140030000Y-59000000D02*
X136720000Y-59000000D01*
X130180000Y-57630000D02*
X136720000Y-57630000D01*
X136720000Y-60370000D01*
X130180000Y-60370000D01*
X130180000Y-57630000D01*
D16*
%TO.C,U8*%
X122626500Y-86568600D02*
X122626500Y-106431400D01*
X122626500Y-106431400D02*
X130373500Y-106431400D01*
X130373500Y-86568600D02*
X122626500Y-86568600D01*
X130373500Y-106431400D02*
X130373500Y-86568600D01*
D15*
%TO.C,PS1*%
X71842500Y-73250000D02*
X71842500Y-75250000D01*
X72142500Y-62950000D02*
X72142500Y-88550000D01*
X72142500Y-62950000D02*
X118042500Y-62950000D01*
X72142500Y-88550000D02*
X118042500Y-88550000D01*
X118042500Y-62950000D02*
X118042500Y-88550000D01*
%TO.C,C1*%
X198000000Y-46330000D02*
X198000000Y-46630000D01*
X198000000Y-46330000D02*
X201640000Y-46330000D01*
X198000000Y-48370000D02*
X198000000Y-48670000D01*
X198000000Y-48670000D02*
X201640000Y-48670000D01*
X201640000Y-46330000D02*
X201640000Y-46630000D01*
X201640000Y-48370000D02*
X201640000Y-48670000D01*
D17*
%TO.C,U1*%
X120730000Y-50969000D02*
X120730000Y-33824000D01*
X122635000Y-52874000D02*
X136605000Y-52874000D01*
X125125000Y-31919000D02*
X125128728Y-31008728D01*
X125628728Y-30509000D02*
X133624000Y-30509000D01*
X134124000Y-31009000D02*
X134124000Y-31919000D01*
D10*
X136605000Y-31919000D02*
X122635000Y-31919000D01*
D17*
X136605000Y-31919000D02*
X122635000Y-31919000D01*
X138510000Y-50969000D02*
X138510000Y-33824000D01*
X120730000Y-33824000D02*
G75*
G02*
X122635000Y-31919000I1905001J-1D01*
G01*
X122635000Y-52874000D02*
G75*
G02*
X120730000Y-50969000I1J1905001D01*
G01*
X125128728Y-31008728D02*
G75*
G02*
X125628728Y-30509001I500018J-291D01*
G01*
X133624000Y-30509000D02*
G75*
G02*
X134124000Y-31009000I0J-500000D01*
G01*
X136605000Y-31919000D02*
G75*
G02*
X138510000Y-33824000I0J-1905000D01*
G01*
X138510000Y-50969000D02*
G75*
G02*
X136605000Y-52874000I-1905000J0D01*
G01*
D18*
X120922000Y-32160000D02*
G75*
G02*
X120418000Y-32160000I-252000J0D01*
G01*
X120418000Y-32160000D02*
G75*
G02*
X120922000Y-32160000I252000J0D01*
G01*
X122065000Y-33040000D02*
G75*
G02*
X121561000Y-33040000I-252000J0D01*
G01*
X121561000Y-33040000D02*
G75*
G02*
X122065000Y-33040000I252000J0D01*
G01*
%TD*%
M02*
