%TF.GenerationSoftware,KiCad,Pcbnew,9.0.2-9.0.2-0~ubuntu24.04.1*%
%TF.CreationDate,2025-07-25T21:32:28+01:00*%
%TF.ProjectId,PCB,5043422e-6b69-4636-9164-5f7063625858,rev?*%
%TF.SameCoordinates,Original*%
%TF.FileFunction,Legend,Bot*%
%TF.FilePolarity,Positive*%
%FSLAX46Y46*%
G04 Gerber Fmt 4.6, Leading zero omitted, Abs format (unit mm)*
G04 Created by KiCad (PCBNEW 9.0.2-9.0.2-0~ubuntu24.04.1) date 2025-07-25 21:32:28*
%MOMM*%
%LPD*%
G01*
G04 APERTURE LIST*
%ADD10C,0.500000*%
%ADD11C,0.100000*%
%ADD12C,0.150000*%
%ADD13C,0.120000*%
G04 APERTURE END LIST*
D10*
X53000000Y-70600000D02*
X49200000Y-77200000D01*
D11*
X53600000Y-74800000D02*
X52600000Y-74400000D01*
X53000000Y-75800000D01*
X53200000Y-75800000D01*
X53000000Y-76400000D01*
X52600000Y-75800000D01*
X52800000Y-75800000D01*
X52200000Y-73800000D01*
X53200000Y-74200000D01*
X52400000Y-72600000D01*
X53000000Y-72600000D01*
X53600000Y-74800000D01*
G36*
X53600000Y-74800000D02*
G01*
X52600000Y-74400000D01*
X53000000Y-75800000D01*
X53200000Y-75800000D01*
X53000000Y-76400000D01*
X52600000Y-75800000D01*
X52800000Y-75800000D01*
X52200000Y-73800000D01*
X53200000Y-74200000D01*
X52400000Y-72600000D01*
X53000000Y-72600000D01*
X53600000Y-74800000D01*
G37*
D10*
X49200000Y-77200000D02*
X56800000Y-77200000D01*
X56800000Y-77200000D02*
X53000000Y-70600000D01*
D12*
X152983332Y-97533200D02*
X152840475Y-97580819D01*
X152840475Y-97580819D02*
X152602380Y-97580819D01*
X152602380Y-97580819D02*
X152507142Y-97533200D01*
X152507142Y-97533200D02*
X152459523Y-97485580D01*
X152459523Y-97485580D02*
X152411904Y-97390342D01*
X152411904Y-97390342D02*
X152411904Y-97295104D01*
X152411904Y-97295104D02*
X152459523Y-97199866D01*
X152459523Y-97199866D02*
X152507142Y-97152247D01*
X152507142Y-97152247D02*
X152602380Y-97104628D01*
X152602380Y-97104628D02*
X152792856Y-97057009D01*
X152792856Y-97057009D02*
X152888094Y-97009390D01*
X152888094Y-97009390D02*
X152935713Y-96961771D01*
X152935713Y-96961771D02*
X152983332Y-96866533D01*
X152983332Y-96866533D02*
X152983332Y-96771295D01*
X152983332Y-96771295D02*
X152935713Y-96676057D01*
X152935713Y-96676057D02*
X152888094Y-96628438D01*
X152888094Y-96628438D02*
X152792856Y-96580819D01*
X152792856Y-96580819D02*
X152554761Y-96580819D01*
X152554761Y-96580819D02*
X152411904Y-96628438D01*
X152078570Y-96580819D02*
X151840475Y-97580819D01*
X151840475Y-97580819D02*
X151649999Y-96866533D01*
X151649999Y-96866533D02*
X151459523Y-97580819D01*
X151459523Y-97580819D02*
X151221428Y-96580819D01*
X150888094Y-96676057D02*
X150840475Y-96628438D01*
X150840475Y-96628438D02*
X150745237Y-96580819D01*
X150745237Y-96580819D02*
X150507142Y-96580819D01*
X150507142Y-96580819D02*
X150411904Y-96628438D01*
X150411904Y-96628438D02*
X150364285Y-96676057D01*
X150364285Y-96676057D02*
X150316666Y-96771295D01*
X150316666Y-96771295D02*
X150316666Y-96866533D01*
X150316666Y-96866533D02*
X150364285Y-97009390D01*
X150364285Y-97009390D02*
X150935713Y-97580819D01*
X150935713Y-97580819D02*
X150316666Y-97580819D01*
X143443332Y-70453200D02*
X143300475Y-70500819D01*
X143300475Y-70500819D02*
X143062380Y-70500819D01*
X143062380Y-70500819D02*
X142967142Y-70453200D01*
X142967142Y-70453200D02*
X142919523Y-70405580D01*
X142919523Y-70405580D02*
X142871904Y-70310342D01*
X142871904Y-70310342D02*
X142871904Y-70215104D01*
X142871904Y-70215104D02*
X142919523Y-70119866D01*
X142919523Y-70119866D02*
X142967142Y-70072247D01*
X142967142Y-70072247D02*
X143062380Y-70024628D01*
X143062380Y-70024628D02*
X143252856Y-69977009D01*
X143252856Y-69977009D02*
X143348094Y-69929390D01*
X143348094Y-69929390D02*
X143395713Y-69881771D01*
X143395713Y-69881771D02*
X143443332Y-69786533D01*
X143443332Y-69786533D02*
X143443332Y-69691295D01*
X143443332Y-69691295D02*
X143395713Y-69596057D01*
X143395713Y-69596057D02*
X143348094Y-69548438D01*
X143348094Y-69548438D02*
X143252856Y-69500819D01*
X143252856Y-69500819D02*
X143014761Y-69500819D01*
X143014761Y-69500819D02*
X142871904Y-69548438D01*
X142538570Y-69500819D02*
X142300475Y-70500819D01*
X142300475Y-70500819D02*
X142109999Y-69786533D01*
X142109999Y-69786533D02*
X141919523Y-70500819D01*
X141919523Y-70500819D02*
X141681428Y-69500819D01*
X140871904Y-69834152D02*
X140871904Y-70500819D01*
X141109999Y-69453200D02*
X141348094Y-70167485D01*
X141348094Y-70167485D02*
X140729047Y-70167485D01*
X179274819Y-75634761D02*
X178798628Y-75301428D01*
X179274819Y-75063333D02*
X178274819Y-75063333D01*
X178274819Y-75063333D02*
X178274819Y-75444285D01*
X178274819Y-75444285D02*
X178322438Y-75539523D01*
X178322438Y-75539523D02*
X178370057Y-75587142D01*
X178370057Y-75587142D02*
X178465295Y-75634761D01*
X178465295Y-75634761D02*
X178608152Y-75634761D01*
X178608152Y-75634761D02*
X178703390Y-75587142D01*
X178703390Y-75587142D02*
X178751009Y-75539523D01*
X178751009Y-75539523D02*
X178798628Y-75444285D01*
X178798628Y-75444285D02*
X178798628Y-75063333D01*
X178274819Y-75920476D02*
X179274819Y-76253809D01*
X179274819Y-76253809D02*
X178274819Y-76587142D01*
X179274819Y-77444285D02*
X179274819Y-76872857D01*
X179274819Y-77158571D02*
X178274819Y-77158571D01*
X178274819Y-77158571D02*
X178417676Y-77063333D01*
X178417676Y-77063333D02*
X178512914Y-76968095D01*
X178512914Y-76968095D02*
X178560533Y-76872857D01*
X162523332Y-70453200D02*
X162380475Y-70500819D01*
X162380475Y-70500819D02*
X162142380Y-70500819D01*
X162142380Y-70500819D02*
X162047142Y-70453200D01*
X162047142Y-70453200D02*
X161999523Y-70405580D01*
X161999523Y-70405580D02*
X161951904Y-70310342D01*
X161951904Y-70310342D02*
X161951904Y-70215104D01*
X161951904Y-70215104D02*
X161999523Y-70119866D01*
X161999523Y-70119866D02*
X162047142Y-70072247D01*
X162047142Y-70072247D02*
X162142380Y-70024628D01*
X162142380Y-70024628D02*
X162332856Y-69977009D01*
X162332856Y-69977009D02*
X162428094Y-69929390D01*
X162428094Y-69929390D02*
X162475713Y-69881771D01*
X162475713Y-69881771D02*
X162523332Y-69786533D01*
X162523332Y-69786533D02*
X162523332Y-69691295D01*
X162523332Y-69691295D02*
X162475713Y-69596057D01*
X162475713Y-69596057D02*
X162428094Y-69548438D01*
X162428094Y-69548438D02*
X162332856Y-69500819D01*
X162332856Y-69500819D02*
X162094761Y-69500819D01*
X162094761Y-69500819D02*
X161951904Y-69548438D01*
X161618570Y-69500819D02*
X161380475Y-70500819D01*
X161380475Y-70500819D02*
X161189999Y-69786533D01*
X161189999Y-69786533D02*
X160999523Y-70500819D01*
X160999523Y-70500819D02*
X160761428Y-69500819D01*
X160475713Y-69500819D02*
X159856666Y-69500819D01*
X159856666Y-69500819D02*
X160189999Y-69881771D01*
X160189999Y-69881771D02*
X160047142Y-69881771D01*
X160047142Y-69881771D02*
X159951904Y-69929390D01*
X159951904Y-69929390D02*
X159904285Y-69977009D01*
X159904285Y-69977009D02*
X159856666Y-70072247D01*
X159856666Y-70072247D02*
X159856666Y-70310342D01*
X159856666Y-70310342D02*
X159904285Y-70405580D01*
X159904285Y-70405580D02*
X159951904Y-70453200D01*
X159951904Y-70453200D02*
X160047142Y-70500819D01*
X160047142Y-70500819D02*
X160332856Y-70500819D01*
X160332856Y-70500819D02*
X160428094Y-70453200D01*
X160428094Y-70453200D02*
X160475713Y-70405580D01*
X152538094Y-55494819D02*
X152538094Y-54494819D01*
X152538094Y-54494819D02*
X152299999Y-54494819D01*
X152299999Y-54494819D02*
X152157142Y-54542438D01*
X152157142Y-54542438D02*
X152061904Y-54637676D01*
X152061904Y-54637676D02*
X152014285Y-54732914D01*
X152014285Y-54732914D02*
X151966666Y-54923390D01*
X151966666Y-54923390D02*
X151966666Y-55066247D01*
X151966666Y-55066247D02*
X152014285Y-55256723D01*
X152014285Y-55256723D02*
X152061904Y-55351961D01*
X152061904Y-55351961D02*
X152157142Y-55447200D01*
X152157142Y-55447200D02*
X152299999Y-55494819D01*
X152299999Y-55494819D02*
X152538094Y-55494819D01*
X151585713Y-54590057D02*
X151538094Y-54542438D01*
X151538094Y-54542438D02*
X151442856Y-54494819D01*
X151442856Y-54494819D02*
X151204761Y-54494819D01*
X151204761Y-54494819D02*
X151109523Y-54542438D01*
X151109523Y-54542438D02*
X151061904Y-54590057D01*
X151061904Y-54590057D02*
X151014285Y-54685295D01*
X151014285Y-54685295D02*
X151014285Y-54780533D01*
X151014285Y-54780533D02*
X151061904Y-54923390D01*
X151061904Y-54923390D02*
X151633332Y-55494819D01*
X151633332Y-55494819D02*
X151014285Y-55494819D01*
X154014286Y-63414819D02*
X154490476Y-63414819D01*
X154490476Y-63414819D02*
X154490476Y-62414819D01*
X153680952Y-62891009D02*
X153347619Y-62891009D01*
X153204762Y-63414819D02*
X153680952Y-63414819D01*
X153680952Y-63414819D02*
X153680952Y-62414819D01*
X153680952Y-62414819D02*
X153204762Y-62414819D01*
X152776190Y-63414819D02*
X152776190Y-62414819D01*
X152776190Y-62414819D02*
X152538095Y-62414819D01*
X152538095Y-62414819D02*
X152395238Y-62462438D01*
X152395238Y-62462438D02*
X152300000Y-62557676D01*
X152300000Y-62557676D02*
X152252381Y-62652914D01*
X152252381Y-62652914D02*
X152204762Y-62843390D01*
X152204762Y-62843390D02*
X152204762Y-62986247D01*
X152204762Y-62986247D02*
X152252381Y-63176723D01*
X152252381Y-63176723D02*
X152300000Y-63271961D01*
X152300000Y-63271961D02*
X152395238Y-63367200D01*
X152395238Y-63367200D02*
X152538095Y-63414819D01*
X152538095Y-63414819D02*
X152776190Y-63414819D01*
X151014285Y-63414819D02*
X151014285Y-62748152D01*
X151014285Y-62938628D02*
X150966666Y-62843390D01*
X150966666Y-62843390D02*
X150919047Y-62795771D01*
X150919047Y-62795771D02*
X150823809Y-62748152D01*
X150823809Y-62748152D02*
X150728571Y-62748152D01*
X150014285Y-63367200D02*
X150109523Y-63414819D01*
X150109523Y-63414819D02*
X150299999Y-63414819D01*
X150299999Y-63414819D02*
X150395237Y-63367200D01*
X150395237Y-63367200D02*
X150442856Y-63271961D01*
X150442856Y-63271961D02*
X150442856Y-62891009D01*
X150442856Y-62891009D02*
X150395237Y-62795771D01*
X150395237Y-62795771D02*
X150299999Y-62748152D01*
X150299999Y-62748152D02*
X150109523Y-62748152D01*
X150109523Y-62748152D02*
X150014285Y-62795771D01*
X150014285Y-62795771D02*
X149966666Y-62891009D01*
X149966666Y-62891009D02*
X149966666Y-62986247D01*
X149966666Y-62986247D02*
X150442856Y-63081485D01*
X149109523Y-63414819D02*
X149109523Y-62414819D01*
X149109523Y-63367200D02*
X149204761Y-63414819D01*
X149204761Y-63414819D02*
X149395237Y-63414819D01*
X149395237Y-63414819D02*
X149490475Y-63367200D01*
X149490475Y-63367200D02*
X149538094Y-63319580D01*
X149538094Y-63319580D02*
X149585713Y-63224342D01*
X149585713Y-63224342D02*
X149585713Y-62938628D01*
X149585713Y-62938628D02*
X149538094Y-62843390D01*
X149538094Y-62843390D02*
X149490475Y-62795771D01*
X149490475Y-62795771D02*
X149395237Y-62748152D01*
X149395237Y-62748152D02*
X149204761Y-62748152D01*
X149204761Y-62748152D02*
X149109523Y-62795771D01*
D13*
%TO.C,SW2*%
X144665000Y-98015000D02*
X144665000Y-111985000D01*
X144665000Y-111985000D02*
X158635000Y-111985000D01*
X158635000Y-98015000D02*
X144665000Y-98015000D01*
X158635000Y-111985000D02*
X158635000Y-98015000D01*
%TO.C,SW4*%
X135125000Y-70935000D02*
X135125000Y-84905000D01*
X135125000Y-84905000D02*
X149095000Y-84905000D01*
X149095000Y-70935000D02*
X135125000Y-70935000D01*
X149095000Y-84905000D02*
X149095000Y-70935000D01*
%TO.C,RV1*%
X179950000Y-38610000D02*
X179950000Y-43234000D01*
X179950000Y-38610000D02*
X181645000Y-38610000D01*
X179950000Y-46426000D02*
X179950000Y-106034000D01*
X179950000Y-109226000D02*
X179950000Y-113850000D01*
X179950000Y-113850000D02*
X182030000Y-113850000D01*
X182320000Y-37805000D02*
X183320000Y-37805000D01*
X182820000Y-38305000D02*
X182320000Y-37805000D01*
X183070000Y-46230000D02*
X186070000Y-46230000D01*
X183070000Y-106230000D02*
X186070000Y-106230000D01*
X183320000Y-37805000D02*
X182820000Y-38305000D01*
X183610000Y-113850000D02*
X189190000Y-113850000D01*
X183820000Y-46980000D02*
X184570000Y-46230000D01*
X183820000Y-105480000D02*
X184570000Y-106230000D01*
X183995000Y-38610000D02*
X185530000Y-38610000D01*
X184570000Y-46230000D02*
X184570000Y-106230000D01*
X184570000Y-46230000D02*
X185320000Y-46980000D01*
X184570000Y-106230000D02*
X185320000Y-105480000D01*
X187110000Y-38610000D02*
X189190000Y-38610000D01*
X189190000Y-38610000D02*
X189190000Y-42034000D01*
X189190000Y-45226000D02*
X189190000Y-107234000D01*
X189190000Y-110426000D02*
X189190000Y-113850000D01*
%TO.C,SW3*%
X154205000Y-70935000D02*
X154205000Y-84905000D01*
X154205000Y-84905000D02*
X168175000Y-84905000D01*
X168175000Y-70935000D02*
X154205000Y-70935000D01*
X168175000Y-84905000D02*
X168175000Y-70935000D01*
%TO.C,D2*%
X154360000Y-57455000D02*
X154360000Y-60545000D01*
X148810000Y-59000000D02*
G75*
G02*
X154360000Y-57455170I2990000J0D01*
G01*
X154360000Y-60544830D02*
G75*
G02*
X148810000Y-59000000I-2560000J1544830D01*
G01*
X154300000Y-59000000D02*
G75*
G02*
X149300000Y-59000000I-2500000J0D01*
G01*
X149300000Y-59000000D02*
G75*
G02*
X154300000Y-59000000I2500000J0D01*
G01*
%TD*%
M02*
