ISO-10303-21;
HEADER;
/* Generated by software containing ST-Developer
 * from STEP Tools, Inc. (www.steptools.com) 
 */
/* OPTION: using custom renumber hook */

FILE_DESCRIPTION(
/* description */ ('STEP AP242',
'CAx-IF Rec.Pracs.---Representation and Presentation of Product Manufa
cturing Information (PMI)---4.0---2014-10-13',
'CAx-IF Rec.Pracs.---3D Tessellated Geometry---0.4---2014-09-14','2;1'),

/* implementation_level */ '2;1');

FILE_NAME(
/* name */ '6883f5d64addd603f7249bd7',
/* time_stamp */ '2025-07-25T21:23:35Z',
/* author */ (''),
/* organization */ (''),
/* preprocessor_version */ 'ST-DEVELOPER v20',
/* originating_system */ 'ONSHAPE BY PTC INC, 1.201',
/* authorisation */ '  ');

FILE_SCHEMA (('AP242_MANAGED_MODEL_BASED_3D_ENGINEERING_MIM_LF { 1 0 10303 442 1 1 4 }'));
ENDSEC;

DATA;
#10=SHAPE_REPRESENTATION_RELATIONSHIP('','',#786,#11);
#11=ADVANCED_BREP_SHAPE_REPRESENTATION('',(#784),#1264);
#12=CYLINDRICAL_SURFACE('',#813,0.00224999999999997);
#13=CYLINDRICAL_SURFACE('',#816,0.00225);
#14=CYLINDRICAL_SURFACE('',#819,0.00224999999999997);
#15=CYLINDRICAL_SURFACE('',#824,0.00224999999999997);
#16=CYLINDRICAL_SURFACE('',#825,0.00225);
#17=CYLINDRICAL_SURFACE('',#826,0.00224999999999997);
#18=CYLINDRICAL_SURFACE('',#832,0.0055);
#19=CYLINDRICAL_SURFACE('',#834,0.0055);
#20=CYLINDRICAL_SURFACE('',#837,0.00225);
#21=CYLINDRICAL_SURFACE('',#838,0.00225);
#22=CYLINDRICAL_SURFACE('',#841,0.00699999999999683);
#23=LINE('',#1052,#104);
#24=LINE('',#1055,#105);
#25=LINE('',#1057,#106);
#26=LINE('',#1059,#107);
#27=LINE('',#1061,#108);
#28=LINE('',#1063,#109);
#29=LINE('',#1065,#110);
#30=LINE('',#1067,#111);
#31=LINE('',#1069,#112);
#32=LINE('',#1071,#113);
#33=LINE('',#1073,#114);
#34=LINE('',#1075,#115);
#35=LINE('',#1079,#116);
#36=LINE('',#1082,#117);
#37=LINE('',#1083,#118);
#38=LINE('',#1085,#119);
#39=LINE('',#1087,#120);
#40=LINE('',#1088,#121);
#41=LINE('',#1092,#122);
#42=LINE('',#1095,#123);
#43=LINE('',#1097,#124);
#44=LINE('',#1099,#125);
#45=LINE('',#1101,#126);
#46=LINE('',#1103,#127);
#47=LINE('',#1105,#128);
#48=LINE('',#1107,#129);
#49=LINE('',#1111,#130);
#50=LINE('',#1114,#131);
#51=LINE('',#1115,#132);
#52=LINE('',#1117,#133);
#53=LINE('',#1119,#134);
#54=LINE('',#1120,#135);
#55=LINE('',#1124,#136);
#56=LINE('',#1125,#137);
#57=LINE('',#1127,#138);
#58=LINE('',#1129,#139);
#59=LINE('',#1131,#140);
#60=LINE('',#1133,#141);
#61=LINE('',#1134,#142);
#62=LINE('',#1136,#143);
#63=LINE('',#1138,#144);
#64=LINE('',#1140,#145);
#65=LINE('',#1142,#146);
#66=LINE('',#1144,#147);
#67=LINE('',#1147,#148);
#68=LINE('',#1149,#149);
#69=LINE('',#1151,#150);
#70=LINE('',#1162,#151);
#71=LINE('',#1163,#152);
#72=LINE('',#1164,#153);
#73=LINE('',#1166,#154);
#74=LINE('',#1170,#155);
#75=LINE('',#1178,#156);
#76=LINE('',#1182,#157);
#77=LINE('',#1186,#158);
#78=LINE('',#1188,#159);
#79=LINE('',#1189,#160);
#80=LINE('',#1191,#161);
#81=LINE('',#1193,#162);
#82=LINE('',#1196,#163);
#83=LINE('',#1197,#164);
#84=LINE('',#1199,#165);
#85=LINE('',#1201,#166);
#86=LINE('',#1202,#167);
#87=LINE('',#1204,#168);
#88=LINE('',#1205,#169);
#89=LINE('',#1207,#170);
#90=LINE('',#1224,#171);
#91=LINE('',#1230,#172);
#92=LINE('',#1233,#173);
#93=LINE('',#1235,#174);
#94=LINE('',#1238,#175);
#95=LINE('',#1239,#176);
#96=LINE('',#1241,#177);
#97=LINE('',#1243,#178);
#98=LINE('',#1249,#179);
#99=LINE('',#1253,#180);
#100=LINE('',#1256,#181);
#101=LINE('',#1257,#182);
#102=LINE('',#1259,#183);
#103=LINE('',#1261,#184);
#104=VECTOR('',#853,1.);
#105=VECTOR('',#854,1.);
#106=VECTOR('',#855,1.);
#107=VECTOR('',#856,1.);
#108=VECTOR('',#857,1.);
#109=VECTOR('',#858,1.);
#110=VECTOR('',#859,1.);
#111=VECTOR('',#860,1.);
#112=VECTOR('',#861,1.);
#113=VECTOR('',#862,1.);
#114=VECTOR('',#863,1.);
#115=VECTOR('',#864,1.);
#116=VECTOR('',#869,1.);
#117=VECTOR('',#870,1.);
#118=VECTOR('',#871,1.);
#119=VECTOR('',#872,1.);
#120=VECTOR('',#873,1.);
#121=VECTOR('',#874,1.);
#122=VECTOR('',#879,1.);
#123=VECTOR('',#880,1.);
#124=VECTOR('',#881,1.);
#125=VECTOR('',#882,1.);
#126=VECTOR('',#883,1.);
#127=VECTOR('',#884,1.);
#128=VECTOR('',#885,1.);
#129=VECTOR('',#886,1.);
#130=VECTOR('',#891,1.);
#131=VECTOR('',#892,1.);
#132=VECTOR('',#893,1.);
#133=VECTOR('',#894,1.);
#134=VECTOR('',#895,1.);
#135=VECTOR('',#896,1.);
#136=VECTOR('',#901,1.);
#137=VECTOR('',#902,1.);
#138=VECTOR('',#903,1.);
#139=VECTOR('',#904,1.);
#140=VECTOR('',#905,1.);
#141=VECTOR('',#906,1.);
#142=VECTOR('',#907,1.);
#143=VECTOR('',#908,1.);
#144=VECTOR('',#909,1.);
#145=VECTOR('',#910,1.);
#146=VECTOR('',#911,1.);
#147=VECTOR('',#914,1.);
#148=VECTOR('',#915,1.);
#149=VECTOR('',#916,1.);
#150=VECTOR('',#917,1.);
#151=VECTOR('',#928,1.);
#152=VECTOR('',#929,1.);
#153=VECTOR('',#930,1.);
#154=VECTOR('',#931,1.);
#155=VECTOR('',#934,1.);
#156=VECTOR('',#943,1.);
#157=VECTOR('',#946,1.);
#158=VECTOR('',#949,1.);
#159=VECTOR('',#950,1.);
#160=VECTOR('',#951,1.);
#161=VECTOR('',#952,1.);
#162=VECTOR('',#955,1.);
#163=VECTOR('',#956,1.);
#164=VECTOR('',#957,1.);
#165=VECTOR('',#960,1.);
#166=VECTOR('',#961,1.);
#167=VECTOR('',#962,1.);
#168=VECTOR('',#963,1.);
#169=VECTOR('',#964,1.);
#170=VECTOR('',#965,1.);
#171=VECTOR('',#986,1.);
#172=VECTOR('',#997,1.);
#173=VECTOR('',#1002,1.);
#174=VECTOR('',#1005,1.);
#175=VECTOR('',#1010,1.);
#176=VECTOR('',#1011,1.);
#177=VECTOR('',#1014,1.);
#178=VECTOR('',#1017,1.);
#179=VECTOR('',#1028,1.);
#180=VECTOR('',#1033,1.);
#181=VECTOR('',#1038,1.);
#182=VECTOR('',#1039,1.);
#183=VECTOR('',#1042,1.);
#184=VECTOR('',#1045,1.);
#185=ORIENTED_EDGE('',*,*,#391,.T.);
#186=ORIENTED_EDGE('',*,*,#392,.F.);
#187=ORIENTED_EDGE('',*,*,#393,.T.);
#188=ORIENTED_EDGE('',*,*,#394,.T.);
#189=ORIENTED_EDGE('',*,*,#395,.T.);
#190=ORIENTED_EDGE('',*,*,#396,.T.);
#191=ORIENTED_EDGE('',*,*,#397,.F.);
#192=ORIENTED_EDGE('',*,*,#398,.F.);
#193=ORIENTED_EDGE('',*,*,#399,.F.);
#194=ORIENTED_EDGE('',*,*,#400,.T.);
#195=ORIENTED_EDGE('',*,*,#401,.F.);
#196=ORIENTED_EDGE('',*,*,#402,.F.);
#197=ORIENTED_EDGE('',*,*,#403,.T.);
#198=ORIENTED_EDGE('',*,*,#404,.F.);
#199=ORIENTED_EDGE('',*,*,#405,.T.);
#200=ORIENTED_EDGE('',*,*,#406,.T.);
#201=ORIENTED_EDGE('',*,*,#403,.F.);
#202=ORIENTED_EDGE('',*,*,#407,.T.);
#203=ORIENTED_EDGE('',*,*,#408,.T.);
#204=ORIENTED_EDGE('',*,*,#409,.F.);
#205=ORIENTED_EDGE('',*,*,#395,.F.);
#206=ORIENTED_EDGE('',*,*,#410,.F.);
#207=ORIENTED_EDGE('',*,*,#411,.F.);
#208=ORIENTED_EDGE('',*,*,#412,.T.);
#209=ORIENTED_EDGE('',*,*,#413,.T.);
#210=ORIENTED_EDGE('',*,*,#414,.T.);
#211=ORIENTED_EDGE('',*,*,#415,.F.);
#212=ORIENTED_EDGE('',*,*,#416,.T.);
#213=ORIENTED_EDGE('',*,*,#417,.F.);
#214=ORIENTED_EDGE('',*,*,#418,.F.);
#215=ORIENTED_EDGE('',*,*,#419,.T.);
#216=ORIENTED_EDGE('',*,*,#420,.F.);
#217=ORIENTED_EDGE('',*,*,#421,.F.);
#218=ORIENTED_EDGE('',*,*,#422,.T.);
#219=ORIENTED_EDGE('',*,*,#412,.F.);
#220=ORIENTED_EDGE('',*,*,#423,.T.);
#221=ORIENTED_EDGE('',*,*,#424,.T.);
#222=ORIENTED_EDGE('',*,*,#425,.F.);
#223=ORIENTED_EDGE('',*,*,#416,.F.);
#224=ORIENTED_EDGE('',*,*,#426,.F.);
#225=ORIENTED_EDGE('',*,*,#400,.F.);
#226=ORIENTED_EDGE('',*,*,#427,.T.);
#227=ORIENTED_EDGE('',*,*,#428,.F.);
#228=ORIENTED_EDGE('',*,*,#396,.F.);
#229=ORIENTED_EDGE('',*,*,#409,.T.);
#230=ORIENTED_EDGE('',*,*,#429,.F.);
#231=ORIENTED_EDGE('',*,*,#430,.F.);
#232=ORIENTED_EDGE('',*,*,#431,.F.);
#233=ORIENTED_EDGE('',*,*,#432,.T.);
#234=ORIENTED_EDGE('',*,*,#433,.T.);
#235=ORIENTED_EDGE('',*,*,#417,.T.);
#236=ORIENTED_EDGE('',*,*,#425,.T.);
#237=ORIENTED_EDGE('',*,*,#434,.T.);
#238=ORIENTED_EDGE('',*,*,#435,.T.);
#239=ORIENTED_EDGE('',*,*,#436,.T.);
#240=ORIENTED_EDGE('',*,*,#437,.T.);
#241=ORIENTED_EDGE('',*,*,#438,.T.);
#242=ORIENTED_EDGE('',*,*,#439,.T.);
#243=ORIENTED_EDGE('',*,*,#440,.T.);
#244=ORIENTED_EDGE('',*,*,#441,.F.);
#245=ORIENTED_EDGE('',*,*,#442,.T.);
#246=ORIENTED_EDGE('',*,*,#443,.F.);
#247=ORIENTED_EDGE('',*,*,#444,.F.);
#248=ORIENTED_EDGE('',*,*,#445,.F.);
#249=ORIENTED_EDGE('',*,*,#446,.F.);
#250=ORIENTED_EDGE('',*,*,#447,.T.);
#251=ORIENTED_EDGE('',*,*,#439,.F.);
#252=ORIENTED_EDGE('',*,*,#448,.T.);
#253=ORIENTED_EDGE('',*,*,#418,.T.);
#254=ORIENTED_EDGE('',*,*,#433,.F.);
#255=ORIENTED_EDGE('',*,*,#449,.F.);
#256=ORIENTED_EDGE('',*,*,#450,.F.);
#257=ORIENTED_EDGE('',*,*,#451,.F.);
#258=ORIENTED_EDGE('',*,*,#452,.T.);
#259=ORIENTED_EDGE('',*,*,#453,.F.);
#260=ORIENTED_EDGE('',*,*,#454,.F.);
#261=ORIENTED_EDGE('',*,*,#455,.F.);
#262=ORIENTED_EDGE('',*,*,#456,.F.);
#263=ORIENTED_EDGE('',*,*,#457,.T.);
#264=ORIENTED_EDGE('',*,*,#458,.F.);
#265=ORIENTED_EDGE('',*,*,#459,.T.);
#266=ORIENTED_EDGE('',*,*,#460,.T.);
#267=ORIENTED_EDGE('',*,*,#461,.T.);
#268=ORIENTED_EDGE('',*,*,#431,.T.);
#269=ORIENTED_EDGE('',*,*,#462,.F.);
#270=ORIENTED_EDGE('',*,*,#463,.F.);
#271=ORIENTED_EDGE('',*,*,#441,.T.);
#272=ORIENTED_EDGE('',*,*,#464,.T.);
#273=ORIENTED_EDGE('',*,*,#465,.T.);
#274=ORIENTED_EDGE('',*,*,#435,.F.);
#275=ORIENTED_EDGE('',*,*,#466,.F.);
#276=ORIENTED_EDGE('',*,*,#467,.F.);
#277=ORIENTED_EDGE('',*,*,#464,.F.);
#278=ORIENTED_EDGE('',*,*,#468,.F.);
#279=ORIENTED_EDGE('',*,*,#423,.F.);
#280=ORIENTED_EDGE('',*,*,#419,.F.);
#281=ORIENTED_EDGE('',*,*,#448,.F.);
#282=ORIENTED_EDGE('',*,*,#442,.F.);
#283=ORIENTED_EDGE('',*,*,#463,.T.);
#284=ORIENTED_EDGE('',*,*,#469,.T.);
#285=ORIENTED_EDGE('',*,*,#470,.T.);
#286=ORIENTED_EDGE('',*,*,#407,.F.);
#287=ORIENTED_EDGE('',*,*,#402,.T.);
#288=ORIENTED_EDGE('',*,*,#471,.F.);
#289=ORIENTED_EDGE('',*,*,#472,.F.);
#290=ORIENTED_EDGE('',*,*,#473,.T.);
#291=ORIENTED_EDGE('',*,*,#474,.F.);
#292=ORIENTED_EDGE('',*,*,#475,.T.);
#293=ORIENTED_EDGE('',*,*,#476,.F.);
#294=ORIENTED_EDGE('',*,*,#477,.T.);
#295=ORIENTED_EDGE('',*,*,#478,.F.);
#296=ORIENTED_EDGE('',*,*,#479,.F.);
#297=ORIENTED_EDGE('',*,*,#449,.T.);
#298=ORIENTED_EDGE('',*,*,#432,.F.);
#299=ORIENTED_EDGE('',*,*,#461,.F.);
#300=ORIENTED_EDGE('',*,*,#477,.F.);
#301=ORIENTED_EDGE('',*,*,#475,.F.);
#302=ORIENTED_EDGE('',*,*,#473,.F.);
#303=ORIENTED_EDGE('',*,*,#434,.F.);
#304=ORIENTED_EDGE('',*,*,#424,.F.);
#305=ORIENTED_EDGE('',*,*,#468,.T.);
#306=ORIENTED_EDGE('',*,*,#466,.T.);
#307=ORIENTED_EDGE('',*,*,#453,.T.);
#308=ORIENTED_EDGE('',*,*,#445,.T.);
#309=ORIENTED_EDGE('',*,*,#455,.T.);
#310=ORIENTED_EDGE('',*,*,#444,.T.);
#311=ORIENTED_EDGE('',*,*,#454,.T.);
#312=ORIENTED_EDGE('',*,*,#443,.T.);
#313=ORIENTED_EDGE('',*,*,#480,.T.);
#314=ORIENTED_EDGE('',*,*,#429,.T.);
#315=ORIENTED_EDGE('',*,*,#408,.F.);
#316=ORIENTED_EDGE('',*,*,#470,.F.);
#317=ORIENTED_EDGE('',*,*,#462,.T.);
#318=ORIENTED_EDGE('',*,*,#430,.T.);
#319=ORIENTED_EDGE('',*,*,#480,.F.);
#320=ORIENTED_EDGE('',*,*,#469,.F.);
#321=ORIENTED_EDGE('',*,*,#471,.T.);
#322=ORIENTED_EDGE('',*,*,#401,.T.);
#323=ORIENTED_EDGE('',*,*,#438,.F.);
#324=ORIENTED_EDGE('',*,*,#481,.F.);
#325=ORIENTED_EDGE('',*,*,#472,.T.);
#326=ORIENTED_EDGE('',*,*,#481,.T.);
#327=ORIENTED_EDGE('',*,*,#437,.F.);
#328=ORIENTED_EDGE('',*,*,#482,.F.);
#329=ORIENTED_EDGE('',*,*,#474,.T.);
#330=ORIENTED_EDGE('',*,*,#476,.T.);
#331=ORIENTED_EDGE('',*,*,#478,.T.);
#332=ORIENTED_EDGE('',*,*,#467,.T.);
#333=ORIENTED_EDGE('',*,*,#482,.T.);
#334=ORIENTED_EDGE('',*,*,#436,.F.);
#335=ORIENTED_EDGE('',*,*,#465,.F.);
#336=ORIENTED_EDGE('',*,*,#483,.T.);
#337=ORIENTED_EDGE('',*,*,#446,.T.);
#338=ORIENTED_EDGE('',*,*,#484,.F.);
#339=ORIENTED_EDGE('',*,*,#457,.F.);
#340=ORIENTED_EDGE('',*,*,#458,.T.);
#341=ORIENTED_EDGE('',*,*,#484,.T.);
#342=ORIENTED_EDGE('',*,*,#452,.F.);
#343=ORIENTED_EDGE('',*,*,#485,.F.);
#344=ORIENTED_EDGE('',*,*,#485,.T.);
#345=ORIENTED_EDGE('',*,*,#451,.T.);
#346=ORIENTED_EDGE('',*,*,#486,.F.);
#347=ORIENTED_EDGE('',*,*,#459,.F.);
#348=ORIENTED_EDGE('',*,*,#447,.F.);
#349=ORIENTED_EDGE('',*,*,#483,.F.);
#350=ORIENTED_EDGE('',*,*,#456,.T.);
#351=ORIENTED_EDGE('',*,*,#440,.F.);
#352=ORIENTED_EDGE('',*,*,#479,.T.);
#353=ORIENTED_EDGE('',*,*,#460,.F.);
#354=ORIENTED_EDGE('',*,*,#486,.T.);
#355=ORIENTED_EDGE('',*,*,#450,.T.);
#356=ORIENTED_EDGE('',*,*,#420,.T.);
#357=ORIENTED_EDGE('',*,*,#391,.F.);
#358=ORIENTED_EDGE('',*,*,#404,.T.);
#359=ORIENTED_EDGE('',*,*,#411,.T.);
#360=ORIENTED_EDGE('',*,*,#398,.T.);
#361=ORIENTED_EDGE('',*,*,#487,.T.);
#362=ORIENTED_EDGE('',*,*,#488,.F.);
#363=ORIENTED_EDGE('',*,*,#399,.T.);
#364=ORIENTED_EDGE('',*,*,#488,.T.);
#365=ORIENTED_EDGE('',*,*,#489,.T.);
#366=ORIENTED_EDGE('',*,*,#427,.F.);
#367=ORIENTED_EDGE('',*,*,#428,.T.);
#368=ORIENTED_EDGE('',*,*,#489,.F.);
#369=ORIENTED_EDGE('',*,*,#487,.F.);
#370=ORIENTED_EDGE('',*,*,#397,.T.);
#371=ORIENTED_EDGE('',*,*,#392,.T.);
#372=ORIENTED_EDGE('',*,*,#406,.F.);
#373=ORIENTED_EDGE('',*,*,#490,.T.);
#374=ORIENTED_EDGE('',*,*,#413,.F.);
#375=ORIENTED_EDGE('',*,*,#422,.F.);
#376=ORIENTED_EDGE('',*,*,#491,.F.);
#377=ORIENTED_EDGE('',*,*,#491,.T.);
#378=ORIENTED_EDGE('',*,*,#421,.T.);
#379=ORIENTED_EDGE('',*,*,#492,.F.);
#380=ORIENTED_EDGE('',*,*,#393,.F.);
#381=ORIENTED_EDGE('',*,*,#492,.T.);
#382=ORIENTED_EDGE('',*,*,#426,.T.);
#383=ORIENTED_EDGE('',*,*,#415,.T.);
#384=ORIENTED_EDGE('',*,*,#493,.F.);
#385=ORIENTED_EDGE('',*,*,#410,.T.);
#386=ORIENTED_EDGE('',*,*,#394,.F.);
#387=ORIENTED_EDGE('',*,*,#493,.T.);
#388=ORIENTED_EDGE('',*,*,#414,.F.);
#389=ORIENTED_EDGE('',*,*,#490,.F.);
#390=ORIENTED_EDGE('',*,*,#405,.F.);
#391=EDGE_CURVE('',#494,#494,#568,.T.);
#392=EDGE_CURVE('',#495,#496,#23,.T.);
#393=EDGE_CURVE('',#495,#497,#24,.T.);
#394=EDGE_CURVE('',#497,#498,#25,.T.);
#395=EDGE_CURVE('',#498,#499,#26,.T.);
#396=EDGE_CURVE('',#499,#500,#27,.T.);
#397=EDGE_CURVE('',#501,#500,#28,.T.);
#398=EDGE_CURVE('',#502,#501,#29,.T.);
#399=EDGE_CURVE('',#503,#502,#30,.F.);
#400=EDGE_CURVE('',#503,#504,#31,.T.);
#401=EDGE_CURVE('',#505,#504,#32,.T.);
#402=EDGE_CURVE('',#506,#505,#33,.T.);
#403=EDGE_CURVE('',#506,#496,#34,.T.);
#404=EDGE_CURVE('',#507,#507,#569,.T.);
#405=EDGE_CURVE('',#508,#509,#35,.T.);
#406=EDGE_CURVE('',#509,#496,#36,.T.);
#407=EDGE_CURVE('',#506,#510,#37,.T.);
#408=EDGE_CURVE('',#510,#511,#38,.T.);
#409=EDGE_CURVE('',#499,#511,#39,.T.);
#410=EDGE_CURVE('',#508,#498,#40,.T.);
#411=EDGE_CURVE('',#512,#512,#570,.T.);
#412=EDGE_CURVE('',#513,#514,#41,.T.);
#413=EDGE_CURVE('',#514,#515,#42,.T.);
#414=EDGE_CURVE('',#515,#516,#43,.T.);
#415=EDGE_CURVE('',#517,#516,#44,.T.);
#416=EDGE_CURVE('',#517,#518,#45,.T.);
#417=EDGE_CURVE('',#519,#518,#46,.T.);
#418=EDGE_CURVE('',#520,#519,#47,.T.);
#419=EDGE_CURVE('',#520,#513,#48,.T.);
#420=EDGE_CURVE('',#521,#521,#571,.T.);
#421=EDGE_CURVE('',#522,#523,#49,.T.);
#422=EDGE_CURVE('',#522,#514,#50,.T.);
#423=EDGE_CURVE('',#513,#524,#51,.T.);
#424=EDGE_CURVE('',#524,#525,#52,.T.);
#425=EDGE_CURVE('',#518,#525,#53,.T.);
#426=EDGE_CURVE('',#523,#517,#54,.T.);
#427=EDGE_CURVE('',#503,#526,#572,.T.);
#428=EDGE_CURVE('',#500,#526,#55,.T.);
#429=EDGE_CURVE('',#527,#511,#56,.T.);
#430=EDGE_CURVE('',#528,#527,#57,.T.);
#431=EDGE_CURVE('',#529,#528,#58,.T.);
#432=EDGE_CURVE('',#529,#530,#59,.T.);
#433=EDGE_CURVE('',#530,#519,#60,.T.);
#434=EDGE_CURVE('',#525,#531,#61,.T.);
#435=EDGE_CURVE('',#531,#532,#62,.T.);
#436=EDGE_CURVE('',#532,#533,#63,.T.);
#437=EDGE_CURVE('',#533,#534,#64,.T.);
#438=EDGE_CURVE('',#534,#504,#65,.T.);
#439=EDGE_CURVE('',#535,#536,#66,.T.);
#440=EDGE_CURVE('',#536,#537,#67,.T.);
#441=EDGE_CURVE('',#538,#537,#68,.T.);
#442=EDGE_CURVE('',#538,#535,#69,.T.);
#443=EDGE_CURVE('',#539,#539,#573,.T.);
#444=EDGE_CURVE('',#540,#540,#574,.T.);
#445=EDGE_CURVE('',#541,#541,#575,.T.);
#446=EDGE_CURVE('',#542,#543,#576,.T.);
#447=EDGE_CURVE('',#542,#536,#70,.T.);
#448=EDGE_CURVE('',#535,#520,#71,.T.);
#449=EDGE_CURVE('',#544,#530,#72,.T.);
#450=EDGE_CURVE('',#545,#544,#73,.T.);
#451=EDGE_CURVE('',#546,#545,#577,.T.);
#452=EDGE_CURVE('',#546,#543,#74,.T.);
#453=EDGE_CURVE('',#547,#547,#578,.F.);
#454=EDGE_CURVE('',#548,#548,#579,.F.);
#455=EDGE_CURVE('',#549,#549,#580,.F.);
#456=EDGE_CURVE('',#550,#537,#75,.T.);
#457=EDGE_CURVE('',#550,#551,#581,.T.);
#458=EDGE_CURVE('',#552,#551,#76,.T.);
#459=EDGE_CURVE('',#552,#553,#582,.T.);
#460=EDGE_CURVE('',#553,#554,#77,.T.);
#461=EDGE_CURVE('',#554,#529,#78,.T.);
#462=EDGE_CURVE('',#555,#528,#79,.T.);
#463=EDGE_CURVE('',#538,#555,#80,.T.);
#464=EDGE_CURVE('',#556,#557,#81,.T.);
#465=EDGE_CURVE('',#557,#532,#82,.T.);
#466=EDGE_CURVE('',#556,#531,#83,.T.);
#467=EDGE_CURVE('',#557,#558,#84,.T.);
#468=EDGE_CURVE('',#524,#556,#85,.T.);
#469=EDGE_CURVE('',#555,#559,#86,.T.);
#470=EDGE_CURVE('',#559,#510,#87,.T.);
#471=EDGE_CURVE('',#560,#505,#88,.T.);
#472=EDGE_CURVE('',#558,#560,#89,.T.);
#473=EDGE_CURVE('',#561,#561,#583,.T.);
#474=EDGE_CURVE('',#562,#562,#584,.F.);
#475=EDGE_CURVE('',#563,#563,#585,.T.);
#476=EDGE_CURVE('',#564,#564,#586,.F.);
#477=EDGE_CURVE('',#565,#565,#587,.T.);
#478=EDGE_CURVE('',#566,#566,#588,.F.);
#479=EDGE_CURVE('',#544,#554,#90,.T.);
#480=EDGE_CURVE('',#559,#527,#91,.T.);
#481=EDGE_CURVE('',#560,#534,#92,.T.);
#482=EDGE_CURVE('',#558,#533,#93,.T.);
#483=EDGE_CURVE('',#550,#542,#94,.T.);
#484=EDGE_CURVE('',#551,#543,#95,.T.);
#485=EDGE_CURVE('',#552,#546,#96,.T.);
#486=EDGE_CURVE('',#553,#545,#97,.T.);
#487=EDGE_CURVE('',#501,#567,#98,.T.);
#488=EDGE_CURVE('',#502,#567,#589,.T.);
#489=EDGE_CURVE('',#567,#526,#99,.T.);
#490=EDGE_CURVE('',#509,#515,#100,.T.);
#491=EDGE_CURVE('',#495,#522,#101,.T.);
#492=EDGE_CURVE('',#497,#523,#102,.T.);
#493=EDGE_CURVE('',#508,#516,#103,.T.);
#494=VERTEX_POINT('',#1051);
#495=VERTEX_POINT('',#1053);
#496=VERTEX_POINT('',#1054);
#497=VERTEX_POINT('',#1056);
#498=VERTEX_POINT('',#1058);
#499=VERTEX_POINT('',#1060);
#500=VERTEX_POINT('',#1062);
#501=VERTEX_POINT('',#1064);
#502=VERTEX_POINT('',#1066);
#503=VERTEX_POINT('',#1068);
#504=VERTEX_POINT('',#1070);
#505=VERTEX_POINT('',#1072);
#506=VERTEX_POINT('',#1074);
#507=VERTEX_POINT('',#1078);
#508=VERTEX_POINT('',#1080);
#509=VERTEX_POINT('',#1081);
#510=VERTEX_POINT('',#1084);
#511=VERTEX_POINT('',#1086);
#512=VERTEX_POINT('',#1091);
#513=VERTEX_POINT('',#1093);
#514=VERTEX_POINT('',#1094);
#515=VERTEX_POINT('',#1096);
#516=VERTEX_POINT('',#1098);
#517=VERTEX_POINT('',#1100);
#518=VERTEX_POINT('',#1102);
#519=VERTEX_POINT('',#1104);
#520=VERTEX_POINT('',#1106);
#521=VERTEX_POINT('',#1110);
#522=VERTEX_POINT('',#1112);
#523=VERTEX_POINT('',#1113);
#524=VERTEX_POINT('',#1116);
#525=VERTEX_POINT('',#1118);
#526=VERTEX_POINT('',#1123);
#527=VERTEX_POINT('',#1126);
#528=VERTEX_POINT('',#1128);
#529=VERTEX_POINT('',#1130);
#530=VERTEX_POINT('',#1132);
#531=VERTEX_POINT('',#1135);
#532=VERTEX_POINT('',#1137);
#533=VERTEX_POINT('',#1139);
#534=VERTEX_POINT('',#1141);
#535=VERTEX_POINT('',#1145);
#536=VERTEX_POINT('',#1146);
#537=VERTEX_POINT('',#1148);
#538=VERTEX_POINT('',#1150);
#539=VERTEX_POINT('',#1154);
#540=VERTEX_POINT('',#1156);
#541=VERTEX_POINT('',#1158);
#542=VERTEX_POINT('',#1160);
#543=VERTEX_POINT('',#1161);
#544=VERTEX_POINT('',#1165);
#545=VERTEX_POINT('',#1167);
#546=VERTEX_POINT('',#1169);
#547=VERTEX_POINT('',#1173);
#548=VERTEX_POINT('',#1175);
#549=VERTEX_POINT('',#1177);
#550=VERTEX_POINT('',#1179);
#551=VERTEX_POINT('',#1181);
#552=VERTEX_POINT('',#1183);
#553=VERTEX_POINT('',#1185);
#554=VERTEX_POINT('',#1187);
#555=VERTEX_POINT('',#1190);
#556=VERTEX_POINT('',#1194);
#557=VERTEX_POINT('',#1195);
#558=VERTEX_POINT('',#1200);
#559=VERTEX_POINT('',#1203);
#560=VERTEX_POINT('',#1206);
#561=VERTEX_POINT('',#1210);
#562=VERTEX_POINT('',#1212);
#563=VERTEX_POINT('',#1215);
#564=VERTEX_POINT('',#1217);
#565=VERTEX_POINT('',#1220);
#566=VERTEX_POINT('',#1222);
#567=VERTEX_POINT('',#1250);
#568=CIRCLE('',#789,0.00225);
#569=CIRCLE('',#791,0.00225);
#570=CIRCLE('',#793,0.00225);
#571=CIRCLE('',#795,0.00225);
#572=CIRCLE('',#797,0.00699999999999683);
#573=CIRCLE('',#800,0.00224999999999997);
#574=CIRCLE('',#801,0.00225);
#575=CIRCLE('',#802,0.00224999999999997);
#576=CIRCLE('',#803,0.0055);
#577=CIRCLE('',#804,0.0055);
#578=CIRCLE('',#806,0.00224999999999997);
#579=CIRCLE('',#807,0.00224999999999997);
#580=CIRCLE('',#808,0.00225);
#581=CIRCLE('',#809,0.0055);
#582=CIRCLE('',#810,0.0055);
#583=CIRCLE('',#814,0.00224999999999997);
#584=CIRCLE('',#815,0.00224999999999997);
#585=CIRCLE('',#817,0.00225);
#586=CIRCLE('',#818,0.00225);
#587=CIRCLE('',#820,0.00224999999999997);
#588=CIRCLE('',#821,0.00224999999999997);
#589=CIRCLE('',#840,0.00699999999999683);
#590=EDGE_LOOP('',(#185));
#591=EDGE_LOOP('',(#186,#187,#188,#189,#190,#191,#192,#193,#194,#195,#196,
#197));
#592=EDGE_LOOP('',(#198));
#593=EDGE_LOOP('',(#199,#200,#201,#202,#203,#204,#205,#206));
#594=EDGE_LOOP('',(#207));
#595=EDGE_LOOP('',(#208,#209,#210,#211,#212,#213,#214,#215));
#596=EDGE_LOOP('',(#216));
#597=EDGE_LOOP('',(#217,#218,#219,#220,#221,#222,#223,#224));
#598=EDGE_LOOP('',(#225,#226,#227,#228,#229,#230,#231,#232,#233,#234,#235,
#236,#237,#238,#239,#240,#241));
#599=EDGE_LOOP('',(#242,#243,#244,#245));
#600=EDGE_LOOP('',(#246));
#601=EDGE_LOOP('',(#247));
#602=EDGE_LOOP('',(#248));
#603=EDGE_LOOP('',(#249,#250,#251,#252,#253,#254,#255,#256,#257,#258));
#604=EDGE_LOOP('',(#259));
#605=EDGE_LOOP('',(#260));
#606=EDGE_LOOP('',(#261));
#607=EDGE_LOOP('',(#262,#263,#264,#265,#266,#267,#268,#269,#270,#271));
#608=EDGE_LOOP('',(#272,#273,#274,#275));
#609=EDGE_LOOP('',(#276,#277,#278,#279,#280,#281,#282,#283,#284,#285,#286,
#287,#288,#289));
#610=EDGE_LOOP('',(#290));
#611=EDGE_LOOP('',(#291));
#612=EDGE_LOOP('',(#292));
#613=EDGE_LOOP('',(#293));
#614=EDGE_LOOP('',(#294));
#615=EDGE_LOOP('',(#295));
#616=EDGE_LOOP('',(#296,#297,#298,#299));
#617=EDGE_LOOP('',(#300));
#618=EDGE_LOOP('',(#301));
#619=EDGE_LOOP('',(#302));
#620=EDGE_LOOP('',(#303,#304,#305,#306));
#621=EDGE_LOOP('',(#307));
#622=EDGE_LOOP('',(#308));
#623=EDGE_LOOP('',(#309));
#624=EDGE_LOOP('',(#310));
#625=EDGE_LOOP('',(#311));
#626=EDGE_LOOP('',(#312));
#627=EDGE_LOOP('',(#313,#314,#315,#316));
#628=EDGE_LOOP('',(#317,#318,#319,#320));
#629=EDGE_LOOP('',(#321,#322,#323,#324));
#630=EDGE_LOOP('',(#325,#326,#327,#328));
#631=EDGE_LOOP('',(#329));
#632=EDGE_LOOP('',(#330));
#633=EDGE_LOOP('',(#331));
#634=EDGE_LOOP('',(#332,#333,#334,#335));
#635=EDGE_LOOP('',(#336,#337,#338,#339));
#636=EDGE_LOOP('',(#340,#341,#342,#343));
#637=EDGE_LOOP('',(#344,#345,#346,#347));
#638=EDGE_LOOP('',(#348,#349,#350,#351));
#639=EDGE_LOOP('',(#352,#353,#354,#355));
#640=EDGE_LOOP('',(#356));
#641=EDGE_LOOP('',(#357));
#642=EDGE_LOOP('',(#358));
#643=EDGE_LOOP('',(#359));
#644=EDGE_LOOP('',(#360,#361,#362));
#645=EDGE_LOOP('',(#363,#364,#365,#366));
#646=EDGE_LOOP('',(#367,#368,#369,#370));
#647=EDGE_LOOP('',(#371,#372,#373,#374,#375,#376));
#648=EDGE_LOOP('',(#377,#378,#379,#380));
#649=EDGE_LOOP('',(#381,#382,#383,#384,#385,#386));
#650=EDGE_LOOP('',(#387,#388,#389,#390));
#651=FACE_BOUND('',#590,.T.);
#652=FACE_BOUND('',#591,.T.);
#653=FACE_BOUND('',#592,.T.);
#654=FACE_BOUND('',#593,.T.);
#655=FACE_BOUND('',#594,.T.);
#656=FACE_BOUND('',#595,.T.);
#657=FACE_BOUND('',#596,.T.);
#658=FACE_BOUND('',#597,.T.);
#659=FACE_BOUND('',#598,.T.);
#660=FACE_BOUND('',#599,.T.);
#661=FACE_BOUND('',#600,.T.);
#662=FACE_BOUND('',#601,.T.);
#663=FACE_BOUND('',#602,.T.);
#664=FACE_BOUND('',#603,.T.);
#665=FACE_BOUND('',#604,.T.);
#666=FACE_BOUND('',#605,.T.);
#667=FACE_BOUND('',#606,.T.);
#668=FACE_BOUND('',#607,.T.);
#669=FACE_BOUND('',#608,.T.);
#670=FACE_BOUND('',#609,.T.);
#671=FACE_BOUND('',#610,.T.);
#672=FACE_BOUND('',#611,.T.);
#673=FACE_BOUND('',#612,.T.);
#674=FACE_BOUND('',#613,.T.);
#675=FACE_BOUND('',#614,.T.);
#676=FACE_BOUND('',#615,.T.);
#677=FACE_BOUND('',#616,.T.);
#678=FACE_BOUND('',#617,.T.);
#679=FACE_BOUND('',#618,.T.);
#680=FACE_BOUND('',#619,.T.);
#681=FACE_BOUND('',#620,.T.);
#682=FACE_BOUND('',#621,.T.);
#683=FACE_BOUND('',#622,.T.);
#684=FACE_BOUND('',#623,.T.);
#685=FACE_BOUND('',#624,.T.);
#686=FACE_BOUND('',#625,.T.);
#687=FACE_BOUND('',#626,.T.);
#688=FACE_BOUND('',#627,.T.);
#689=FACE_BOUND('',#628,.T.);
#690=FACE_BOUND('',#629,.T.);
#691=FACE_BOUND('',#630,.T.);
#692=FACE_BOUND('',#631,.T.);
#693=FACE_BOUND('',#632,.T.);
#694=FACE_BOUND('',#633,.T.);
#695=FACE_BOUND('',#634,.T.);
#696=FACE_BOUND('',#635,.T.);
#697=FACE_BOUND('',#636,.T.);
#698=FACE_BOUND('',#637,.T.);
#699=FACE_BOUND('',#638,.T.);
#700=FACE_BOUND('',#639,.T.);
#701=FACE_BOUND('',#640,.T.);
#702=FACE_BOUND('',#641,.T.);
#703=FACE_BOUND('',#642,.T.);
#704=FACE_BOUND('',#643,.T.);
#705=FACE_BOUND('',#644,.T.);
#706=FACE_BOUND('',#645,.T.);
#707=FACE_BOUND('',#646,.T.);
#708=FACE_BOUND('',#647,.T.);
#709=FACE_BOUND('',#648,.T.);
#710=FACE_BOUND('',#649,.T.);
#711=FACE_BOUND('',#650,.T.);
#712=PLANE('',#788);
#713=PLANE('',#790);
#714=PLANE('',#792);
#715=PLANE('',#794);
#716=PLANE('',#796);
#717=PLANE('',#798);
#718=PLANE('',#799);
#719=PLANE('',#805);
#720=PLANE('',#811);
#721=PLANE('',#812);
#722=PLANE('',#822);
#723=PLANE('',#823);
#724=PLANE('',#827);
#725=PLANE('',#828);
#726=PLANE('',#829);
#727=PLANE('',#830);
#728=PLANE('',#831);
#729=PLANE('',#833);
#730=PLANE('',#835);
#731=PLANE('',#836);
#732=PLANE('',#839);
#733=PLANE('',#842);
#734=PLANE('',#843);
#735=PLANE('',#844);
#736=PLANE('',#845);
#737=PLANE('',#846);
#738=ADVANCED_FACE('',(#651,#652),#712,.F.);
#739=ADVANCED_FACE('',(#653,#654),#713,.T.);
#740=ADVANCED_FACE('',(#655,#656),#714,.T.);
#741=ADVANCED_FACE('',(#657,#658),#715,.T.);
#742=ADVANCED_FACE('',(#659),#716,.T.);
#743=ADVANCED_FACE('',(#660),#717,.T.);
#744=ADVANCED_FACE('',(#661,#662,#663,#664),#718,.T.);
#745=ADVANCED_FACE('',(#665,#666,#667,#668),#719,.F.);
#746=ADVANCED_FACE('',(#669),#720,.T.);
#747=ADVANCED_FACE('',(#670),#721,.F.);
#748=ADVANCED_FACE('',(#671,#672),#12,.F.);
#749=ADVANCED_FACE('',(#673,#674),#13,.F.);
#750=ADVANCED_FACE('',(#675,#676),#14,.F.);
#751=ADVANCED_FACE('',(#677),#722,.T.);
#752=ADVANCED_FACE('',(#678,#679,#680,#681),#723,.T.);
#753=ADVANCED_FACE('',(#682,#683),#15,.F.);
#754=ADVANCED_FACE('',(#684,#685),#16,.F.);
#755=ADVANCED_FACE('',(#686,#687),#17,.F.);
#756=ADVANCED_FACE('',(#688),#724,.F.);
#757=ADVANCED_FACE('',(#689),#725,.F.);
#758=ADVANCED_FACE('',(#690),#726,.T.);
#759=ADVANCED_FACE('',(#691),#727,.T.);
#760=ADVANCED_FACE('',(#692,#693,#694,#695),#728,.T.);
#761=ADVANCED_FACE('',(#696),#18,.F.);
#762=ADVANCED_FACE('',(#697),#729,.T.);
#763=ADVANCED_FACE('',(#698),#19,.F.);
#764=ADVANCED_FACE('',(#699),#730,.T.);
#765=ADVANCED_FACE('',(#700),#731,.F.);
#766=ADVANCED_FACE('',(#701,#702),#20,.F.);
#767=ADVANCED_FACE('',(#703,#704),#21,.F.);
#768=ADVANCED_FACE('',(#705),#732,.T.);
#769=ADVANCED_FACE('',(#706),#22,.F.);
#770=ADVANCED_FACE('',(#707),#733,.F.);
#771=ADVANCED_FACE('',(#708),#734,.T.);
#772=ADVANCED_FACE('',(#709),#735,.F.);
#773=ADVANCED_FACE('',(#710),#736,.F.);
#774=ADVANCED_FACE('',(#711),#737,.T.);
#775=CLOSED_SHELL('',(#738,#739,#740,#741,#742,#743,#744,#745,#746,#747,
#748,#749,#750,#751,#752,#753,#754,#755,#756,#757,#758,#759,#760,#761,#762,
#763,#764,#765,#766,#767,#768,#769,#770,#771,#772,#773,#774));
#776=STYLED_ITEM('',(#777),#784);
#777=PRESENTATION_STYLE_ASSIGNMENT((#778));
#778=SURFACE_STYLE_USAGE(.BOTH.,#779);
#779=SURFACE_SIDE_STYLE('',(#780));
#780=SURFACE_STYLE_FILL_AREA(#781);
#781=FILL_AREA_STYLE('',(#782));
#782=FILL_AREA_STYLE_COLOUR('',#783);
#783=COLOUR_RGB('',0.647058823529412,0.647058823529412,0.647058823529412);
#784=MANIFOLD_SOLID_BREP('Part 4',#775);
#785=SHAPE_DEFINITION_REPRESENTATION(#1269,#786);
#786=SHAPE_REPRESENTATION('Part 4',(#787),#1264);
#787=AXIS2_PLACEMENT_3D('',#1048,#847,#848);
#788=AXIS2_PLACEMENT_3D('',#1049,#849,#850);
#789=AXIS2_PLACEMENT_3D('',#1050,#851,#852);
#790=AXIS2_PLACEMENT_3D('',#1076,#865,#866);
#791=AXIS2_PLACEMENT_3D('',#1077,#867,#868);
#792=AXIS2_PLACEMENT_3D('',#1089,#875,#876);
#793=AXIS2_PLACEMENT_3D('',#1090,#877,#878);
#794=AXIS2_PLACEMENT_3D('',#1108,#887,#888);
#795=AXIS2_PLACEMENT_3D('',#1109,#889,#890);
#796=AXIS2_PLACEMENT_3D('',#1121,#897,#898);
#797=AXIS2_PLACEMENT_3D('',#1122,#899,#900);
#798=AXIS2_PLACEMENT_3D('',#1143,#912,#913);
#799=AXIS2_PLACEMENT_3D('',#1152,#918,#919);
#800=AXIS2_PLACEMENT_3D('',#1153,#920,#921);
#801=AXIS2_PLACEMENT_3D('',#1155,#922,#923);
#802=AXIS2_PLACEMENT_3D('',#1157,#924,#925);
#803=AXIS2_PLACEMENT_3D('',#1159,#926,#927);
#804=AXIS2_PLACEMENT_3D('',#1168,#932,#933);
#805=AXIS2_PLACEMENT_3D('',#1171,#935,#936);
#806=AXIS2_PLACEMENT_3D('',#1172,#937,#938);
#807=AXIS2_PLACEMENT_3D('',#1174,#939,#940);
#808=AXIS2_PLACEMENT_3D('',#1176,#941,#942);
#809=AXIS2_PLACEMENT_3D('',#1180,#944,#945);
#810=AXIS2_PLACEMENT_3D('',#1184,#947,#948);
#811=AXIS2_PLACEMENT_3D('',#1192,#953,#954);
#812=AXIS2_PLACEMENT_3D('',#1198,#958,#959);
#813=AXIS2_PLACEMENT_3D('',#1208,#966,#967);
#814=AXIS2_PLACEMENT_3D('',#1209,#968,#969);
#815=AXIS2_PLACEMENT_3D('',#1211,#970,#971);
#816=AXIS2_PLACEMENT_3D('',#1213,#972,#973);
#817=AXIS2_PLACEMENT_3D('',#1214,#974,#975);
#818=AXIS2_PLACEMENT_3D('',#1216,#976,#977);
#819=AXIS2_PLACEMENT_3D('',#1218,#978,#979);
#820=AXIS2_PLACEMENT_3D('',#1219,#980,#981);
#821=AXIS2_PLACEMENT_3D('',#1221,#982,#983);
#822=AXIS2_PLACEMENT_3D('',#1223,#984,#985);
#823=AXIS2_PLACEMENT_3D('',#1225,#987,#988);
#824=AXIS2_PLACEMENT_3D('',#1226,#989,#990);
#825=AXIS2_PLACEMENT_3D('',#1227,#991,#992);
#826=AXIS2_PLACEMENT_3D('',#1228,#993,#994);
#827=AXIS2_PLACEMENT_3D('',#1229,#995,#996);
#828=AXIS2_PLACEMENT_3D('',#1231,#998,#999);
#829=AXIS2_PLACEMENT_3D('',#1232,#1000,#1001);
#830=AXIS2_PLACEMENT_3D('',#1234,#1003,#1004);
#831=AXIS2_PLACEMENT_3D('',#1236,#1006,#1007);
#832=AXIS2_PLACEMENT_3D('',#1237,#1008,#1009);
#833=AXIS2_PLACEMENT_3D('',#1240,#1012,#1013);
#834=AXIS2_PLACEMENT_3D('',#1242,#1015,#1016);
#835=AXIS2_PLACEMENT_3D('',#1244,#1018,#1019);
#836=AXIS2_PLACEMENT_3D('',#1245,#1020,#1021);
#837=AXIS2_PLACEMENT_3D('',#1246,#1022,#1023);
#838=AXIS2_PLACEMENT_3D('',#1247,#1024,#1025);
#839=AXIS2_PLACEMENT_3D('',#1248,#1026,#1027);
#840=AXIS2_PLACEMENT_3D('',#1251,#1029,#1030);
#841=AXIS2_PLACEMENT_3D('',#1252,#1031,#1032);
#842=AXIS2_PLACEMENT_3D('',#1254,#1034,#1035);
#843=AXIS2_PLACEMENT_3D('',#1255,#1036,#1037);
#844=AXIS2_PLACEMENT_3D('',#1258,#1040,#1041);
#845=AXIS2_PLACEMENT_3D('',#1260,#1043,#1044);
#846=AXIS2_PLACEMENT_3D('',#1262,#1046,#1047);
#847=DIRECTION('',(0.,0.,1.));
#848=DIRECTION('',(1.,0.,0.));
#849=DIRECTION('',(-0.205730406114399,0.978608706276418,0.));
#850=DIRECTION('',(0.978608706276418,0.205730406114399,0.));
#851=DIRECTION('',(-0.205730406114399,0.978608706276418,0.));
#852=DIRECTION('',(0.978608706276418,0.205730406114399,0.));
#853=DIRECTION('',(0.978608706276418,0.205730406114399,0.));
#854=DIRECTION('',(0.,0.,1.));
#855=DIRECTION('',(0.978608706276418,0.205730406114399,0.));
#856=DIRECTION('',(0.,0.,1.));
#857=DIRECTION('',(-0.978608706276418,-0.205730406114399,0.));
#858=DIRECTION('',(0.,0.,1.));
#859=DIRECTION('',(0.978608706276418,0.205730406114399,0.));
#860=DIRECTION('',(0.,0.,1.));
#861=DIRECTION('',(-0.978608706276418,-0.205730406114399,0.));
#862=DIRECTION('',(0.,0.,1.));
#863=DIRECTION('',(-0.978608706276418,-0.205730406114399,0.));
#864=DIRECTION('',(0.,0.,1.));
#865=DIRECTION('',(-0.205730406114402,-0.978608706276417,0.));
#866=DIRECTION('',(-0.978608706276417,0.205730406114402,0.));
#867=DIRECTION('',(-0.205730406114402,-0.978608706276417,0.));
#868=DIRECTION('',(-0.978608706276417,0.205730406114402,0.));
#869=DIRECTION('',(0.,0.,-1.));
#870=DIRECTION('',(-0.978608706276417,0.205730406114402,0.));
#871=DIRECTION('',(0.978608706276417,-0.205730406114402,0.));
#872=DIRECTION('',(0.,0.,1.));
#873=DIRECTION('',(0.978608706276417,-0.205730406114402,0.));
#874=DIRECTION('',(-0.978608706276417,0.205730406114402,0.));
#875=DIRECTION('',(0.20573040611441,0.978608706276416,0.));
#876=DIRECTION('',(0.978608706276416,-0.20573040611441,0.));
#877=DIRECTION('',(0.20573040611441,0.978608706276416,0.));
#878=DIRECTION('',(0.978608706276416,-0.20573040611441,0.));
#879=DIRECTION('',(0.,0.,1.));
#880=DIRECTION('',(0.978608706276416,-0.20573040611441,0.));
#881=DIRECTION('',(0.,0.,1.));
#882=DIRECTION('',(0.978608706276416,-0.20573040611441,0.));
#883=DIRECTION('',(0.,0.,1.));
#884=DIRECTION('',(-0.978608706276416,0.20573040611441,0.));
#885=DIRECTION('',(0.,0.,1.));
#886=DIRECTION('',(-0.978608706276416,0.20573040611441,0.));
#887=DIRECTION('',(-0.205730406114409,0.978608706276416,0.));
#888=DIRECTION('',(0.978608706276416,0.205730406114409,0.));
#889=DIRECTION('',(-0.205730406114409,0.978608706276416,0.));
#890=DIRECTION('',(0.978608706276416,0.205730406114409,0.));
#891=DIRECTION('',(0.,0.,1.));
#892=DIRECTION('',(0.978608706276416,0.205730406114409,0.));
#893=DIRECTION('',(-0.978608706276416,-0.205730406114409,0.));
#894=DIRECTION('',(0.,0.,1.));
#895=DIRECTION('',(-0.978608706276416,-0.205730406114409,0.));
#896=DIRECTION('',(0.978608706276416,0.205730406114409,0.));
#897=DIRECTION('',(0.,0.,1.));
#898=DIRECTION('',(1.,0.,0.));
#899=DIRECTION('',(0.,0.,-1.));
#900=DIRECTION('',(0.,-1.,0.));
#901=DIRECTION('',(-1.,-2.83209124252733E-15,0.));
#902=DIRECTION('',(0.,-1.,0.));
#903=DIRECTION('',(-0.978608706276417,0.205730406114402,0.));
#904=DIRECTION('',(0.,1.,0.));
#905=DIRECTION('',(1.,0.,0.));
#906=DIRECTION('',(0.,1.,0.));
#907=DIRECTION('',(0.,-1.,0.));
#908=DIRECTION('',(1.,0.,0.));
#909=DIRECTION('',(0.,1.,0.));
#910=DIRECTION('',(0.978608706276418,0.205730406114398,0.));
#911=DIRECTION('',(0.,-1.,0.));
#912=DIRECTION('',(0.,-1.,0.));
#913=DIRECTION('',(-1.,0.,0.));
#914=DIRECTION('',(0.,0.,1.));
#915=DIRECTION('',(-1.,0.,0.));
#916=DIRECTION('',(0.,0.,1.));
#917=DIRECTION('',(1.,0.,0.));
#918=DIRECTION('',(1.,0.,0.));
#919=DIRECTION('',(0.,-1.,0.));
#920=DIRECTION('',(1.,0.,0.));
#921=DIRECTION('',(0.,-1.,0.));
#922=DIRECTION('',(1.,0.,0.));
#923=DIRECTION('',(0.,-1.,0.));
#924=DIRECTION('',(1.,0.,0.));
#925=DIRECTION('',(0.,-1.,0.));
#926=DIRECTION('',(1.,0.,0.));
#927=DIRECTION('',(0.,-1.,0.));
#928=DIRECTION('',(0.,-0.936969373458516,-0.349411495518903));
#929=DIRECTION('',(0.,1.,0.));
#930=DIRECTION('',(0.,0.,1.));
#931=DIRECTION('',(0.,-0.936969373458516,0.349411495518902));
#932=DIRECTION('',(1.,0.,0.));
#933=DIRECTION('',(0.,-1.,0.));
#934=DIRECTION('',(0.,0.,-1.));
#935=DIRECTION('',(1.,0.,0.));
#936=DIRECTION('',(0.,-1.,0.));
#937=DIRECTION('',(1.,0.,0.));
#938=DIRECTION('',(0.,-1.,0.));
#939=DIRECTION('',(1.,0.,0.));
#940=DIRECTION('',(0.,-1.,0.));
#941=DIRECTION('',(1.,0.,0.));
#942=DIRECTION('',(0.,-1.,0.));
#943=DIRECTION('',(0.,-0.936969373458516,-0.349411495518903));
#944=DIRECTION('',(1.,0.,0.));
#945=DIRECTION('',(0.,-1.,0.));
#946=DIRECTION('',(0.,0.,-1.));
#947=DIRECTION('',(1.,0.,0.));
#948=DIRECTION('',(0.,-1.,0.));
#949=DIRECTION('',(0.,-0.936969373458516,0.349411495518902));
#950=DIRECTION('',(0.,0.,1.));
#951=DIRECTION('',(0.,0.,1.));
#952=DIRECTION('',(0.,1.,0.));
#953=DIRECTION('',(0.,-1.,0.));
#954=DIRECTION('',(-1.,0.,0.));
#955=DIRECTION('',(1.,0.,0.));
#956=DIRECTION('',(0.,0.,1.));
#957=DIRECTION('',(0.,0.,1.));
#958=DIRECTION('',(0.,0.,1.));
#959=DIRECTION('',(1.,0.,0.));
#960=DIRECTION('',(0.,1.,0.));
#961=DIRECTION('',(0.,-1.,0.));
#962=DIRECTION('',(-0.978608706276417,0.205730406114402,0.));
#963=DIRECTION('',(0.,-1.,0.));
#964=DIRECTION('',(0.,-1.,0.));
#965=DIRECTION('',(0.978608706276418,0.205730406114398,0.));
#966=DIRECTION('',(-1.,0.,0.));
#967=DIRECTION('',(0.,1.,0.));
#968=DIRECTION('',(-1.,0.,0.));
#969=DIRECTION('',(0.,1.,0.));
#970=DIRECTION('',(1.,0.,0.));
#971=DIRECTION('',(0.,-1.,0.));
#972=DIRECTION('',(-1.,0.,0.));
#973=DIRECTION('',(0.,1.,0.));
#974=DIRECTION('',(-1.,0.,0.));
#975=DIRECTION('',(0.,1.,0.));
#976=DIRECTION('',(1.,0.,0.));
#977=DIRECTION('',(0.,-1.,0.));
#978=DIRECTION('',(-1.,0.,0.));
#979=DIRECTION('',(0.,1.,0.));
#980=DIRECTION('',(-1.,0.,0.));
#981=DIRECTION('',(0.,1.,0.));
#982=DIRECTION('',(1.,0.,0.));
#983=DIRECTION('',(0.,-1.,0.));
#984=DIRECTION('',(0.,-1.,0.));
#985=DIRECTION('',(-1.,0.,0.));
#986=DIRECTION('',(-1.,0.,0.));
#987=DIRECTION('',(-1.,0.,0.));
#988=DIRECTION('',(0.,1.,0.));
#989=DIRECTION('',(-1.,0.,0.));
#990=DIRECTION('',(0.,1.,0.));
#991=DIRECTION('',(-1.,0.,0.));
#992=DIRECTION('',(0.,1.,0.));
#993=DIRECTION('',(-1.,0.,0.));
#994=DIRECTION('',(0.,1.,0.));
#995=DIRECTION('',(-1.,0.,0.));
#996=DIRECTION('',(0.,1.,0.));
#997=DIRECTION('',(0.,0.,1.));
#998=DIRECTION('',(0.205730406114402,0.978608706276417,0.));
#999=DIRECTION('',(0.978608706276417,-0.205730406114402,0.));
#1000=DIRECTION('',(-1.,0.,0.));
#1001=DIRECTION('',(0.,1.,0.));
#1002=DIRECTION('',(0.,0.,1.));
#1003=DIRECTION('',(0.205730406114398,-0.978608706276418,0.));
#1004=DIRECTION('',(-0.978608706276418,-0.205730406114398,0.));
#1005=DIRECTION('',(0.,0.,1.));
#1006=DIRECTION('',(1.,0.,0.));
#1007=DIRECTION('',(0.,-1.,0.));
#1008=DIRECTION('',(1.,0.,0.));
#1009=DIRECTION('',(0.,-1.,0.));
#1010=DIRECTION('',(1.,0.,0.));
#1011=DIRECTION('',(1.,0.,0.));
#1012=DIRECTION('',(0.,-1.,0.));
#1013=DIRECTION('',(-1.,0.,0.));
#1014=DIRECTION('',(1.,0.,0.));
#1015=DIRECTION('',(1.,0.,0.));
#1016=DIRECTION('',(0.,-1.,0.));
#1017=DIRECTION('',(1.,0.,0.));
#1018=DIRECTION('',(0.,-0.349411495518903,0.936969373458516));
#1019=DIRECTION('',(0.,-0.936969373458516,-0.349411495518903));
#1020=DIRECTION('',(0.,0.349411495518902,0.936969373458516));
#1021=DIRECTION('',(0.,-0.936969373458516,0.349411495518902));
#1022=DIRECTION('',(-0.205730406114409,0.978608706276416,0.));
#1023=DIRECTION('',(0.978608706276416,0.205730406114409,0.));
#1024=DIRECTION('',(0.20573040611441,0.978608706276416,0.));
#1025=DIRECTION('',(0.978608706276416,-0.20573040611441,0.));
#1026=DIRECTION('',(0.,0.,1.));
#1027=DIRECTION('',(1.,0.,0.));
#1028=DIRECTION('',(-1.,-2.83209124252733E-15,0.));
#1029=DIRECTION('',(0.,0.,-1.));
#1030=DIRECTION('',(0.,-1.,0.));
#1031=DIRECTION('',(0.,0.,1.));
#1032=DIRECTION('',(0.,-1.,0.));
#1033=DIRECTION('',(0.,0.,1.));
#1034=DIRECTION('',(-2.83209124252733E-15,1.,0.));
#1035=DIRECTION('',(1.,2.83209124252733E-15,0.));
#1036=DIRECTION('',(0.,0.,1.));
#1037=DIRECTION('',(0.,-1.,0.));
#1038=DIRECTION('',(0.,1.,0.));
#1039=DIRECTION('',(0.,1.,0.));
#1040=DIRECTION('',(-1.,0.,0.));
#1041=DIRECTION('',(0.,1.,0.));
#1042=DIRECTION('',(0.,1.,0.));
#1043=DIRECTION('',(0.,0.,1.));
#1044=DIRECTION('',(0.,-1.,0.));
#1045=DIRECTION('',(0.,1.,0.));
#1046=DIRECTION('',(-1.,0.,0.));
#1047=DIRECTION('',(0.,1.,0.));
#1048=CARTESIAN_POINT('',(0.,0.,0.));
#1049=CARTESIAN_POINT('',(-0.05375,0.0467817120139311,0.155));
#1050=CARTESIAN_POINT('',(-0.0591291299832518,0.0456508712714577,0.1625));
#1051=CARTESIAN_POINT('',(-0.0569272603941299,0.0461137646852151,0.1625));
#1052=CARTESIAN_POINT('',(-0.05375,0.0467817120139311,0.342574532881139));
#1053=CARTESIAN_POINT('',(-0.0189511056158516,0.0540973946029645,0.342574532881139));
#1054=CARTESIAN_POINT('',(-4.44089209850063E-16,0.0580814370804744,0.342574532881139));
#1055=CARTESIAN_POINT('',(-0.0189511056158516,0.0540973946029645,0.155));
#1056=CARTESIAN_POINT('',(-0.0189511056158516,0.0540973946029645,0.358574532881139));
#1057=CARTESIAN_POINT('',(-0.05375,0.0467817120139311,0.358574532881139));
#1058=CARTESIAN_POINT('',(-4.44089209850063E-16,0.0580814370804744,0.358574532881139));
#1059=CARTESIAN_POINT('',(-4.37150315946155E-16,0.0580814370804744,0.155));
#1060=CARTESIAN_POINT('',(-4.37150315946155E-16,0.0580814370804744,0.36));
#1061=CARTESIAN_POINT('',(-0.05375,0.0467817120139311,0.36));
#1062=CARTESIAN_POINT('',(-0.0646135402433933,0.0444978977255673,0.36));
#1063=CARTESIAN_POINT('',(-0.0646135402433933,0.0444978977255673,0.35));
#1064=CARTESIAN_POINT('',(-0.0646135402433933,0.0444978977255673,0.35));
#1065=CARTESIAN_POINT('',(-0.05375,0.0467817120139311,0.35));
#1066=CARTESIAN_POINT('',(-0.0831372955719115,0.040603696006269,0.35));
#1067=CARTESIAN_POINT('',(-0.0831372955719115,0.040603696006269,0.35));
#1068=CARTESIAN_POINT('',(-0.0831372955719115,0.040603696006269,0.36));
#1069=CARTESIAN_POINT('',(-0.05375,0.0467817120139311,0.36));
#1070=CARTESIAN_POINT('',(-0.0996711303497887,0.0371278301963032,0.36));
#1071=CARTESIAN_POINT('',(-0.0996711303497887,0.0371278301963032,-0.106));
#1072=CARTESIAN_POINT('',(-0.0996711303497887,0.0371278301963032,0.155));
#1073=CARTESIAN_POINT('',(-0.05375,0.0467817120139311,0.155));
#1074=CARTESIAN_POINT('',(-4.37150315946155E-16,0.0580814370804744,0.155));
#1075=CARTESIAN_POINT('',(-4.37150315946155E-16,0.0580814370804744,0.155));
#1076=CARTESIAN_POINT('',(0.05375,0.0467817120139311,0.155));
#1077=CARTESIAN_POINT('',(0.0591291299832517,0.0456508712714577,0.1625));
#1078=CARTESIAN_POINT('',(0.0569272603941298,0.0461137646852151,0.1625));
#1079=CARTESIAN_POINT('',(0.018988894384138,0.0540894503668299,0.155));
#1080=CARTESIAN_POINT('',(0.018988894384138,0.0540894503668299,0.358574532881139));
#1081=CARTESIAN_POINT('',(0.018988894384138,0.0540894503668299,0.342574532881139));
#1082=CARTESIAN_POINT('',(0.05375,0.0467817120139311,0.342574532881139));
#1083=CARTESIAN_POINT('',(0.05375,0.0467817120139311,0.155));
#1084=CARTESIAN_POINT('',(0.0998711303497887,0.0370857847076833,0.155));
#1085=CARTESIAN_POINT('',(0.0998711303497887,0.0370857847076833,-0.106));
#1086=CARTESIAN_POINT('',(0.0998711303497887,0.0370857847076833,0.36));
#1087=CARTESIAN_POINT('',(0.05375,0.0467817120139311,0.36));
#1088=CARTESIAN_POINT('',(0.05375,0.0467817120139311,0.358574532881139));
#1089=CARTESIAN_POINT('',(0.05675,0.0530792329149127,0.155));
#1090=CARTESIAN_POINT('',(0.0605239821367078,0.0522858383000133,0.1625));
#1091=CARTESIAN_POINT('',(0.0627258517258297,0.0518229448862559,0.1625));
#1092=CARTESIAN_POINT('',(-2.77555756156289E-17,0.0650096403107519,0.155));
#1093=CARTESIAN_POINT('',(-2.77555756156289E-17,0.0650096403107519,0.155));
#1094=CARTESIAN_POINT('',(-2.77555756156289E-17,0.0650096403107519,0.342574532881139));
#1095=CARTESIAN_POINT('',(0.05675,0.0530792329149127,0.342574532881139));
#1096=CARTESIAN_POINT('',(0.018988894384138,0.0610176535971073,0.342574532881139));
#1097=CARTESIAN_POINT('',(0.018988894384138,0.0610176535971073,0.155));
#1098=CARTESIAN_POINT('',(0.018988894384138,0.0610176535971073,0.358574532881139));
#1099=CARTESIAN_POINT('',(0.05675,0.0530792329149127,0.358574532881139));
#1100=CARTESIAN_POINT('',(-2.77555756156289E-17,0.0650096403107519,0.358574532881139));
#1101=CARTESIAN_POINT('',(-2.77555756156289E-17,0.0650096403107519,0.155));
#1102=CARTESIAN_POINT('',(-2.77555756156289E-17,0.0650096403107519,0.36));
#1103=CARTESIAN_POINT('',(0.05675,0.0530792329149127,0.36));
#1104=CARTESIAN_POINT('',(0.1135,0.0411488255190735,0.36));
#1105=CARTESIAN_POINT('',(0.1135,0.0411488255190735,0.155));
#1106=CARTESIAN_POINT('',(0.1135,0.0411488255190735,0.155));
#1107=CARTESIAN_POINT('',(0.05675,0.0530792329149127,0.155));
#1108=CARTESIAN_POINT('',(-0.05675,0.0530792329149128,0.155));
#1109=CARTESIAN_POINT('',(-0.0605239821367079,0.0522858383000133,0.1625));
#1110=CARTESIAN_POINT('',(-0.058322112547586,0.0527487317137707,0.1625));
#1111=CARTESIAN_POINT('',(-0.0189511056158516,0.061025597833242,0.155));
#1112=CARTESIAN_POINT('',(-0.0189511056158516,0.061025597833242,0.342574532881139));
#1113=CARTESIAN_POINT('',(-0.0189511056158516,0.061025597833242,0.358574532881139));
#1114=CARTESIAN_POINT('',(-0.05675,0.0530792329149128,0.342574532881139));
#1115=CARTESIAN_POINT('',(-0.05675,0.0530792329149128,0.155));
#1116=CARTESIAN_POINT('',(-0.1135,0.0411488255190737,0.155));
#1117=CARTESIAN_POINT('',(-0.1135,0.0411488255190737,0.155));
#1118=CARTESIAN_POINT('',(-0.1135,0.0411488255190737,0.36));
#1119=CARTESIAN_POINT('',(-0.05675,0.0530792329149128,0.36));
#1120=CARTESIAN_POINT('',(-0.05675,0.0530792329149128,0.358574532881139));
#1121=CARTESIAN_POINT('',(1.38777878078145E-17,0.,0.36));
#1122=CARTESIAN_POINT('',(-0.0768640175580206,0.0374978977255706,0.36));
#1123=CARTESIAN_POINT('',(-0.0768640175580207,0.0444978977255673,0.36));
#1124=CARTESIAN_POINT('',(-0.0707387789007069,0.0444978977255673,0.36));
#1125=CARTESIAN_POINT('',(0.0998711303497887,0.0371879705960357,0.36));
#1126=CARTESIAN_POINT('',(0.0998711303497887,0.0372901564843878,0.36));
#1127=CARTESIAN_POINT('',(0.103785565174894,0.03646723485993,0.36));
#1128=CARTESIAN_POINT('',(0.1077,0.0356443132354725,0.36));
#1129=CARTESIAN_POINT('',(0.1077,0.0280631500914302,0.36));
#1130=CARTESIAN_POINT('',(0.1077,0.020481986947388,0.36));
#1131=CARTESIAN_POINT('',(0.1105,0.020481986947388,0.36));
#1132=CARTESIAN_POINT('',(0.1135,0.020481986947388,0.36));
#1133=CARTESIAN_POINT('',(0.1135,0.0308154062332308,0.36));
#1134=CARTESIAN_POINT('',(-0.1135,0.0308154062332307,0.36));
#1135=CARTESIAN_POINT('',(-0.1135,0.0204819869473877,0.36));
#1136=CARTESIAN_POINT('',(-0.1105,0.0204819869473877,0.36));
#1137=CARTESIAN_POINT('',(-0.1077,0.0204819869473877,0.36));
#1138=CARTESIAN_POINT('',(-0.1077,0.0280631500914302,0.36));
#1139=CARTESIAN_POINT('',(-0.1077,0.0356443132354726,0.36));
#1140=CARTESIAN_POINT('',(-0.103685565174894,0.03648825760424,0.36));
#1141=CARTESIAN_POINT('',(-0.0996711303497887,0.0373322019730074,0.36));
#1142=CARTESIAN_POINT('',(-0.0996711303497887,0.0372300160846553,0.36));
#1143=CARTESIAN_POINT('',(0.1105,0.020481986947388,0.155));
#1144=CARTESIAN_POINT('',(0.1135,0.020481986947388,0.155));
#1145=CARTESIAN_POINT('',(0.1135,0.020481986947388,0.155));
#1146=CARTESIAN_POINT('',(0.1135,0.020481986947388,0.297668085208987));
#1147=CARTESIAN_POINT('',(0.1105,0.020481986947388,0.297668085208987));
#1148=CARTESIAN_POINT('',(0.1077,0.020481986947388,0.297668085208987));
#1149=CARTESIAN_POINT('',(0.1077,0.020481986947388,-0.106));
#1150=CARTESIAN_POINT('',(0.1077,0.020481986947388,0.155));
#1151=CARTESIAN_POINT('',(0.1105,0.020481986947388,0.155));
#1152=CARTESIAN_POINT('',(0.1135,0.0308154062332308,0.155));
#1153=CARTESIAN_POINT('',(0.1135,0.0279819869473877,0.345));
#1154=CARTESIAN_POINT('',(0.1135,0.0257319869473878,0.345));
#1155=CARTESIAN_POINT('',(0.1135,0.0279819869473877,0.175));
#1156=CARTESIAN_POINT('',(0.1135,0.0257319869473877,0.175));
#1157=CARTESIAN_POINT('',(0.1135,0.0279819869473877,0.2575));
#1158=CARTESIAN_POINT('',(0.1135,0.0257319869473878,0.2575));
#1159=CARTESIAN_POINT('',(0.1135,0.024,0.30485));
#1160=CARTESIAN_POINT('',(0.1135,0.025921763225354,0.299696668445978));
#1161=CARTESIAN_POINT('',(0.1135,0.0295,0.30485));
#1162=CARTESIAN_POINT('',(0.1135,0.013921763225354,0.295221668445978));
#1163=CARTESIAN_POINT('',(0.1135,0.0308154062332308,0.155));
#1164=CARTESIAN_POINT('',(0.1135,0.020481986947388,0.155));
#1165=CARTESIAN_POINT('',(0.1135,0.020481986947388,0.334131914791013));
#1166=CARTESIAN_POINT('',(0.1135,0.013921763225354,0.336578331554022));
#1167=CARTESIAN_POINT('',(0.1135,0.025921763225354,0.332103331554022));
#1168=CARTESIAN_POINT('',(0.1135,0.024,0.32695));
#1169=CARTESIAN_POINT('',(0.1135,0.0295,0.32695));
#1170=CARTESIAN_POINT('',(0.1135,0.0295,0.3159));
#1171=CARTESIAN_POINT('',(0.1077,0.0280631500914302,-0.106));
#1172=CARTESIAN_POINT('',(0.1077,0.0279819869473877,0.2575));
#1173=CARTESIAN_POINT('',(0.1077,0.0257319869473878,0.2575));
#1174=CARTESIAN_POINT('',(0.1077,0.0279819869473877,0.345));
#1175=CARTESIAN_POINT('',(0.1077,0.0257319869473878,0.345));
#1176=CARTESIAN_POINT('',(0.1077,0.0279819869473877,0.175));
#1177=CARTESIAN_POINT('',(0.1077,0.0257319869473877,0.175));
#1178=CARTESIAN_POINT('',(0.1077,-0.105018456553317,0.250866878153515));
#1179=CARTESIAN_POINT('',(0.1077,0.025921763225354,0.299696668445978));
#1180=CARTESIAN_POINT('',(0.1077,0.024,0.30485));
#1181=CARTESIAN_POINT('',(0.1077,0.0295,0.30485));
#1182=CARTESIAN_POINT('',(0.1077,0.0295,-0.106));
#1183=CARTESIAN_POINT('',(0.1077,0.0295,0.32695));
#1184=CARTESIAN_POINT('',(0.1077,0.024,0.32695));
#1185=CARTESIAN_POINT('',(0.1077,0.025921763225354,0.332103331554022));
#1186=CARTESIAN_POINT('',(0.1077,0.171231428182679,0.277914935663686));
#1187=CARTESIAN_POINT('',(0.1077,0.020481986947388,0.334131914791013));
#1188=CARTESIAN_POINT('',(0.1077,0.020481986947388,-0.106));
#1189=CARTESIAN_POINT('',(0.1077,0.0356443132354725,-0.106));
#1190=CARTESIAN_POINT('',(0.1077,0.0356443132354725,0.155));
#1191=CARTESIAN_POINT('',(0.1077,0.,0.155));
#1192=CARTESIAN_POINT('',(-0.1105,0.0204819869473877,0.155));
#1193=CARTESIAN_POINT('',(-0.1105,0.0204819869473877,0.155));
#1194=CARTESIAN_POINT('',(-0.1135,0.0204819869473877,0.155));
#1195=CARTESIAN_POINT('',(-0.1077,0.0204819869473877,0.155));
#1196=CARTESIAN_POINT('',(-0.1077,0.0204819869473877,-0.106));
#1197=CARTESIAN_POINT('',(-0.1135,0.0204819869473877,0.155));
#1198=CARTESIAN_POINT('',(1.38777878078145E-17,0.,0.155));
#1199=CARTESIAN_POINT('',(-0.1077,0.,0.155));
#1200=CARTESIAN_POINT('',(-0.1077,0.0356443132354726,0.155));
#1201=CARTESIAN_POINT('',(-0.1135,0.0308154062332307,0.155));
#1202=CARTESIAN_POINT('',(0.011734656634359,0.0558188619972988,0.155));
#1203=CARTESIAN_POINT('',(0.0998711303497887,0.0372901564843878,0.155));
#1204=CARTESIAN_POINT('',(0.0998711303497887,0.,0.155));
#1205=CARTESIAN_POINT('',(-0.0996711303497887,0.,0.155));
#1206=CARTESIAN_POINT('',(-0.0996711303497887,0.0373322019730074,0.155));
#1207=CARTESIAN_POINT('',(-0.0117346566343587,0.0558188619972986,0.155));
#1208=CARTESIAN_POINT('',(0.3293,0.0279819869473877,0.2575));
#1209=CARTESIAN_POINT('',(-0.1135,0.0279819869473877,0.2575));
#1210=CARTESIAN_POINT('',(-0.1135,0.0302319869473877,0.2575));
#1211=CARTESIAN_POINT('',(-0.1077,0.0279819869473877,0.2575));
#1212=CARTESIAN_POINT('',(-0.1077,0.0257319869473878,0.2575));
#1213=CARTESIAN_POINT('',(0.3293,0.0279819869473877,0.175));
#1214=CARTESIAN_POINT('',(-0.1135,0.0279819869473877,0.175));
#1215=CARTESIAN_POINT('',(-0.1135,0.0302319869473877,0.175));
#1216=CARTESIAN_POINT('',(-0.1077,0.0279819869473877,0.175));
#1217=CARTESIAN_POINT('',(-0.1077,0.0257319869473877,0.175));
#1218=CARTESIAN_POINT('',(0.3293,0.0279819869473877,0.345));
#1219=CARTESIAN_POINT('',(-0.1135,0.0279819869473877,0.345));
#1220=CARTESIAN_POINT('',(-0.1135,0.0302319869473877,0.345));
#1221=CARTESIAN_POINT('',(-0.1077,0.0279819869473877,0.345));
#1222=CARTESIAN_POINT('',(-0.1077,0.0257319869473878,0.345));
#1223=CARTESIAN_POINT('',(0.1105,0.020481986947388,0.155));
#1224=CARTESIAN_POINT('',(0.1105,0.020481986947388,0.334131914791013));
#1225=CARTESIAN_POINT('',(-0.1135,0.0308154062332307,0.155));
#1226=CARTESIAN_POINT('',(0.3293,0.0279819869473877,0.2575));
#1227=CARTESIAN_POINT('',(0.3293,0.0279819869473877,0.175));
#1228=CARTESIAN_POINT('',(0.3293,0.0279819869473877,0.345));
#1229=CARTESIAN_POINT('',(0.0998711303497887,0.0371879705960357,-0.106));
#1230=CARTESIAN_POINT('',(0.0998711303497887,0.0372901564843878,-0.106));
#1231=CARTESIAN_POINT('',(0.103785565174894,0.03646723485993,-0.106));
#1232=CARTESIAN_POINT('',(-0.0996711303497887,0.0372300160846553,-0.106));
#1233=CARTESIAN_POINT('',(-0.0996711303497887,0.0373322019730074,-0.106));
#1234=CARTESIAN_POINT('',(-0.103685565174894,0.03648825760424,-0.106));
#1235=CARTESIAN_POINT('',(-0.1077,0.0356443132354726,-0.106));
#1236=CARTESIAN_POINT('',(-0.1077,0.0280631500914302,-0.106));
#1237=CARTESIAN_POINT('',(0.0885,0.024,0.30485));
#1238=CARTESIAN_POINT('',(0.0885,0.025921763225354,0.299696668445978));
#1239=CARTESIAN_POINT('',(0.0885,0.0295,0.30485));
#1240=CARTESIAN_POINT('',(0.0885,0.0295,0.3159));
#1241=CARTESIAN_POINT('',(0.0885,0.0295,0.32695));
#1242=CARTESIAN_POINT('',(0.0885,0.024,0.32695));
#1243=CARTESIAN_POINT('',(0.0885,0.025921763225354,0.332103331554022));
#1244=CARTESIAN_POINT('',(0.0885,0.013921763225354,0.295221668445978));
#1245=CARTESIAN_POINT('',(0.0885,0.013921763225354,0.336578331554022));
#1246=CARTESIAN_POINT('',(-0.0553807219838476,0.0278206206431029,0.1625));
#1247=CARTESIAN_POINT('',(0.0553807219838475,0.0278206206431028,0.1625));
#1248=CARTESIAN_POINT('',(0.,0.0102537690181594,0.35));
#1249=CARTESIAN_POINT('',(-0.0707387789007069,0.0444978977255673,0.35));
#1250=CARTESIAN_POINT('',(-0.0768640175580207,0.0444978977255673,0.35));
#1251=CARTESIAN_POINT('',(-0.0768640175580206,0.0374978977255706,0.35));
#1252=CARTESIAN_POINT('',(-0.0768640175580206,0.0374978977255706,0.35));
#1253=CARTESIAN_POINT('',(-0.0768640175580207,0.0444978977255673,0.35));
#1254=CARTESIAN_POINT('',(-0.0707387789007069,0.0444978977255673,0.35));
#1255=CARTESIAN_POINT('',(1.88943841431914E-5,0.0400096403107519,0.342574532881139));
#1256=CARTESIAN_POINT('',(0.018988894384138,0.0400096403107519,0.342574532881139));
#1257=CARTESIAN_POINT('',(-0.0189511056158516,0.0400096403107519,0.342574532881139));
#1258=CARTESIAN_POINT('',(-0.0189511056158516,0.0400096403107519,0.350574532881139));
#1259=CARTESIAN_POINT('',(-0.0189511056158516,0.0400096403107519,0.358574532881139));
#1260=CARTESIAN_POINT('',(1.88943841431949E-5,0.0400096403107519,0.358574532881139));
#1261=CARTESIAN_POINT('',(0.018988894384138,0.0400096403107519,0.358574532881139));
#1262=CARTESIAN_POINT('',(0.018988894384138,0.0400096403107519,0.350574532881139));
#1263=MECHANICAL_DESIGN_GEOMETRIC_PRESENTATION_REPRESENTATION('',(#776),
#1264);
#1264=(
GEOMETRIC_REPRESENTATION_CONTEXT(3)
GLOBAL_UNCERTAINTY_ASSIGNED_CONTEXT((#1265))
GLOBAL_UNIT_ASSIGNED_CONTEXT((#1268,#1267,#1266))
REPRESENTATION_CONTEXT('Part 4','TOP_LEVEL_ASSEMBLY_PART')
);
#1265=UNCERTAINTY_MEASURE_WITH_UNIT(LENGTH_MEASURE(1.E-8),#1268,
'DISTANCE_ACCURACY_VALUE','Maximum Tolerance applied to model');
#1266=(
NAMED_UNIT(*)
SI_UNIT($,.STERADIAN.)
SOLID_ANGLE_UNIT()
);
#1267=(
NAMED_UNIT(*)
PLANE_ANGLE_UNIT()
SI_UNIT($,.RADIAN.)
);
#1268=(
LENGTH_UNIT()
NAMED_UNIT(*)
SI_UNIT($,.METRE.)
);
#1269=PRODUCT_DEFINITION_SHAPE('','',#1270);
#1270=PRODUCT_DEFINITION('','',#1272,#1271);
#1271=PRODUCT_DEFINITION_CONTEXT('',#1278,'design');
#1272=PRODUCT_DEFINITION_FORMATION_WITH_SPECIFIED_SOURCE('','',#1274,
 .NOT_KNOWN.);
#1273=PRODUCT_RELATED_PRODUCT_CATEGORY('','',(#1274));
#1274=PRODUCT('Part 4','Part 4','Part 4',(#1276));
#1275=PRODUCT_CATEGORY('','');
#1276=PRODUCT_CONTEXT('',#1278,'mechanical');
#1277=APPLICATION_PROTOCOL_DEFINITION('international standard',
'ap242_managed_model_based_3d_engineering',2011,#1278);
#1278=APPLICATION_CONTEXT('managed model based 3d engineering');
ENDSEC;
END-ISO-10303-21;
