ISO-10303-21;
HEADER;
/* Generated by software containing ST-Developer
 * from STEP Tools, Inc. (www.steptools.com) 
 */
/* OPTION: using custom renumber hook */

FILE_DESCRIPTION(
/* description */ ('STEP AP242',
'CAx-IF Rec.Pracs.---Representation and Presentation of Product Manufa
cturing Information (PMI)---4.0---2014-10-13',
'CAx-IF Rec.Pracs.---3D Tessellated Geometry---0.4---2014-09-14','2;1'),

/* implementation_level */ '2;1');

FILE_NAME(
/* name */ '6883f66d4addd603f724a386',
/* time_stamp */ '2025-07-25T21:26:06Z',
/* author */ (''),
/* organization */ (''),
/* preprocessor_version */ 'ST-DEVELOPER v20',
/* originating_system */ 'ONSHAPE BY PTC INC, 1.201',
/* authorisation */ '  ');

FILE_SCHEMA (('AP242_MANAGED_MODEL_BASED_3D_ENGINEERING_MIM_LF { 1 0 10303 442 1 1 4 }'));
ENDSEC;

DATA;
#10=SHAPE_REPRESENTATION_RELATIONSHIP('','',#515,#11);
#11=ADVANCED_BREP_SHAPE_REPRESENTATION('',(#513),#833);
#12=CYLINDRICAL_SURFACE('',#534,0.0178);
#13=CYLINDRICAL_SURFACE('',#539,0.012);
#14=CONICAL_SURFACE('',#530,0.013698780669118,0.78539816339745);
#15=CONICAL_SURFACE('',#532,0.0178,0.785398163397457);
#16=CONICAL_SURFACE('',#536,0.0178,0.785398163397445);
#17=CONICAL_SURFACE('',#537,0.013698780669118,0.78539816339745);
#18=CIRCLE('',#519,0.013698780669118);
#19=CIRCLE('',#520,0.016101219330882);
#20=CIRCLE('',#525,0.0161012193308821);
#21=CIRCLE('',#526,0.013698780669118);
#22=CIRCLE('',#531,0.012);
#23=CIRCLE('',#533,0.0178);
#24=CIRCLE('',#535,0.0178);
#25=CIRCLE('',#538,0.012);
#26=ORIENTED_EDGE('',*,*,#162,.T.);
#27=ORIENTED_EDGE('',*,*,#163,.F.);
#28=ORIENTED_EDGE('',*,*,#164,.F.);
#29=ORIENTED_EDGE('',*,*,#165,.T.);
#30=ORIENTED_EDGE('',*,*,#166,.F.);
#31=ORIENTED_EDGE('',*,*,#167,.T.);
#32=ORIENTED_EDGE('',*,*,#168,.T.);
#33=ORIENTED_EDGE('',*,*,#169,.T.);
#34=ORIENTED_EDGE('',*,*,#165,.F.);
#35=ORIENTED_EDGE('',*,*,#170,.F.);
#36=ORIENTED_EDGE('',*,*,#171,.T.);
#37=ORIENTED_EDGE('',*,*,#172,.F.);
#38=ORIENTED_EDGE('',*,*,#173,.T.);
#39=ORIENTED_EDGE('',*,*,#171,.F.);
#40=ORIENTED_EDGE('',*,*,#174,.F.);
#41=ORIENTED_EDGE('',*,*,#175,.T.);
#42=ORIENTED_EDGE('',*,*,#176,.T.);
#43=ORIENTED_EDGE('',*,*,#175,.F.);
#44=ORIENTED_EDGE('',*,*,#177,.F.);
#45=ORIENTED_EDGE('',*,*,#178,.T.);
#46=ORIENTED_EDGE('',*,*,#179,.F.);
#47=ORIENTED_EDGE('',*,*,#178,.F.);
#48=ORIENTED_EDGE('',*,*,#180,.T.);
#49=ORIENTED_EDGE('',*,*,#181,.T.);
#50=ORIENTED_EDGE('',*,*,#182,.F.);
#51=ORIENTED_EDGE('',*,*,#183,.T.);
#52=ORIENTED_EDGE('',*,*,#184,.T.);
#53=ORIENTED_EDGE('',*,*,#185,.T.);
#54=ORIENTED_EDGE('',*,*,#181,.F.);
#55=ORIENTED_EDGE('',*,*,#186,.T.);
#56=ORIENTED_EDGE('',*,*,#187,.T.);
#57=ORIENTED_EDGE('',*,*,#188,.F.);
#58=ORIENTED_EDGE('',*,*,#189,.F.);
#59=ORIENTED_EDGE('',*,*,#187,.F.);
#60=ORIENTED_EDGE('',*,*,#190,.T.);
#61=ORIENTED_EDGE('',*,*,#191,.T.);
#62=ORIENTED_EDGE('',*,*,#192,.F.);
#63=ORIENTED_EDGE('',*,*,#191,.F.);
#64=ORIENTED_EDGE('',*,*,#193,.T.);
#65=ORIENTED_EDGE('',*,*,#163,.T.);
#66=ORIENTED_EDGE('',*,*,#164,.T.);
#67=ORIENTED_EDGE('',*,*,#193,.F.);
#68=ORIENTED_EDGE('',*,*,#190,.F.);
#69=ORIENTED_EDGE('',*,*,#186,.F.);
#70=ORIENTED_EDGE('',*,*,#180,.F.);
#71=ORIENTED_EDGE('',*,*,#177,.T.);
#72=ORIENTED_EDGE('',*,*,#174,.T.);
#73=ORIENTED_EDGE('',*,*,#170,.T.);
#74=ORIENTED_EDGE('',*,*,#169,.F.);
#75=ORIENTED_EDGE('',*,*,#194,.T.);
#76=ORIENTED_EDGE('',*,*,#195,.T.);
#77=ORIENTED_EDGE('',*,*,#162,.F.);
#78=ORIENTED_EDGE('',*,*,#196,.F.);
#79=ORIENTED_EDGE('',*,*,#197,.T.);
#80=ORIENTED_EDGE('',*,*,#172,.T.);
#81=ORIENTED_EDGE('',*,*,#173,.F.);
#82=ORIENTED_EDGE('',*,*,#198,.F.);
#83=ORIENTED_EDGE('',*,*,#199,.T.);
#84=ORIENTED_EDGE('',*,*,#196,.T.);
#85=ORIENTED_EDGE('',*,*,#176,.F.);
#86=ORIENTED_EDGE('',*,*,#185,.F.);
#87=ORIENTED_EDGE('',*,*,#200,.F.);
#88=ORIENTED_EDGE('',*,*,#198,.T.);
#89=ORIENTED_EDGE('',*,*,#179,.T.);
#90=ORIENTED_EDGE('',*,*,#201,.F.);
#91=ORIENTED_EDGE('',*,*,#202,.F.);
#92=ORIENTED_EDGE('',*,*,#188,.T.);
#93=ORIENTED_EDGE('',*,*,#189,.T.);
#94=ORIENTED_EDGE('',*,*,#203,.F.);
#95=ORIENTED_EDGE('',*,*,#201,.T.);
#96=ORIENTED_EDGE('',*,*,#192,.T.);
#97=ORIENTED_EDGE('',*,*,#195,.F.);
#98=ORIENTED_EDGE('',*,*,#168,.F.);
#99=ORIENTED_EDGE('',*,*,#204,.T.);
#100=ORIENTED_EDGE('',*,*,#205,.T.);
#101=ORIENTED_EDGE('',*,*,#194,.F.);
#102=ORIENTED_EDGE('',*,*,#206,.F.);
#103=ORIENTED_EDGE('',*,*,#207,.T.);
#104=ORIENTED_EDGE('',*,*,#166,.T.);
#105=ORIENTED_EDGE('',*,*,#197,.F.);
#106=ORIENTED_EDGE('',*,*,#208,.F.);
#107=ORIENTED_EDGE('',*,*,#209,.T.);
#108=ORIENTED_EDGE('',*,*,#206,.T.);
#109=ORIENTED_EDGE('',*,*,#199,.F.);
#110=ORIENTED_EDGE('',*,*,#184,.F.);
#111=ORIENTED_EDGE('',*,*,#210,.T.);
#112=ORIENTED_EDGE('',*,*,#208,.T.);
#113=ORIENTED_EDGE('',*,*,#200,.T.);
#114=ORIENTED_EDGE('',*,*,#211,.F.);
#115=ORIENTED_EDGE('',*,*,#212,.T.);
#116=ORIENTED_EDGE('',*,*,#182,.T.);
#117=ORIENTED_EDGE('',*,*,#202,.T.);
#118=ORIENTED_EDGE('',*,*,#205,.F.);
#119=ORIENTED_EDGE('',*,*,#213,.T.);
#120=ORIENTED_EDGE('',*,*,#211,.T.);
#121=ORIENTED_EDGE('',*,*,#203,.T.);
#122=ORIENTED_EDGE('',*,*,#214,.T.);
#123=ORIENTED_EDGE('',*,*,#215,.T.);
#124=ORIENTED_EDGE('',*,*,#216,.T.);
#125=ORIENTED_EDGE('',*,*,#217,.T.);
#126=ORIENTED_EDGE('',*,*,#218,.T.);
#127=ORIENTED_EDGE('',*,*,#219,.T.);
#128=ORIENTED_EDGE('',*,*,#220,.T.);
#129=ORIENTED_EDGE('',*,*,#221,.T.);
#130=ORIENTED_EDGE('',*,*,#222,.F.);
#131=ORIENTED_EDGE('',*,*,#209,.F.);
#132=ORIENTED_EDGE('',*,*,#223,.F.);
#133=ORIENTED_EDGE('',*,*,#219,.F.);
#134=ORIENTED_EDGE('',*,*,#223,.T.);
#135=ORIENTED_EDGE('',*,*,#210,.F.);
#136=ORIENTED_EDGE('',*,*,#224,.F.);
#137=ORIENTED_EDGE('',*,*,#220,.F.);
#138=ORIENTED_EDGE('',*,*,#222,.T.);
#139=ORIENTED_EDGE('',*,*,#218,.F.);
#140=ORIENTED_EDGE('',*,*,#225,.F.);
#141=ORIENTED_EDGE('',*,*,#207,.F.);
#142=ORIENTED_EDGE('',*,*,#224,.T.);
#143=ORIENTED_EDGE('',*,*,#183,.F.);
#144=ORIENTED_EDGE('',*,*,#226,.F.);
#145=ORIENTED_EDGE('',*,*,#221,.F.);
#146=ORIENTED_EDGE('',*,*,#225,.T.);
#147=ORIENTED_EDGE('',*,*,#217,.F.);
#148=ORIENTED_EDGE('',*,*,#227,.F.);
#149=ORIENTED_EDGE('',*,*,#167,.F.);
#150=ORIENTED_EDGE('',*,*,#226,.T.);
#151=ORIENTED_EDGE('',*,*,#212,.F.);
#152=ORIENTED_EDGE('',*,*,#228,.F.);
#153=ORIENTED_EDGE('',*,*,#214,.F.);
#154=ORIENTED_EDGE('',*,*,#227,.T.);
#155=ORIENTED_EDGE('',*,*,#216,.F.);
#156=ORIENTED_EDGE('',*,*,#229,.F.);
#157=ORIENTED_EDGE('',*,*,#204,.F.);
#158=ORIENTED_EDGE('',*,*,#228,.T.);
#159=ORIENTED_EDGE('',*,*,#213,.F.);
#160=ORIENTED_EDGE('',*,*,#229,.T.);
#161=ORIENTED_EDGE('',*,*,#215,.F.);
#162=EDGE_CURVE('',#230,#231,#270,.T.);
#163=EDGE_CURVE('',#232,#231,#271,.T.);
#164=EDGE_CURVE('',#233,#232,#272,.T.);
#165=EDGE_CURVE('',#233,#230,#273,.T.);
#166=EDGE_CURVE('',#234,#235,#274,.T.);
#167=EDGE_CURVE('',#234,#236,#275,.T.);
#168=EDGE_CURVE('',#236,#237,#276,.T.);
#169=EDGE_CURVE('',#237,#230,#18,.T.);
#170=EDGE_CURVE('',#238,#233,#277,.T.);
#171=EDGE_CURVE('',#238,#239,#278,.T.);
#172=EDGE_CURVE('',#235,#239,#19,.T.);
#173=EDGE_CURVE('',#240,#239,#279,.T.);
#174=EDGE_CURVE('',#241,#238,#280,.T.);
#175=EDGE_CURVE('',#241,#240,#281,.T.);
#176=EDGE_CURVE('',#242,#240,#282,.T.);
#177=EDGE_CURVE('',#243,#241,#283,.T.);
#178=EDGE_CURVE('',#243,#242,#284,.T.);
#179=EDGE_CURVE('',#242,#244,#285,.T.);
#180=EDGE_CURVE('',#243,#245,#286,.T.);
#181=EDGE_CURVE('',#245,#244,#287,.T.);
#182=EDGE_CURVE('',#246,#247,#288,.T.);
#183=EDGE_CURVE('',#246,#248,#289,.T.);
#184=EDGE_CURVE('',#248,#249,#290,.T.);
#185=EDGE_CURVE('',#249,#244,#20,.T.);
#186=EDGE_CURVE('',#245,#250,#291,.T.);
#187=EDGE_CURVE('',#250,#251,#292,.T.);
#188=EDGE_CURVE('',#247,#251,#21,.T.);
#189=EDGE_CURVE('',#251,#252,#293,.T.);
#190=EDGE_CURVE('',#250,#253,#294,.T.);
#191=EDGE_CURVE('',#253,#252,#295,.T.);
#192=EDGE_CURVE('',#252,#231,#296,.T.);
#193=EDGE_CURVE('',#253,#232,#297,.T.);
#194=EDGE_CURVE('',#237,#254,#298,.T.);
#195=EDGE_CURVE('',#254,#231,#22,.T.);
#196=EDGE_CURVE('',#255,#240,#23,.T.);
#197=EDGE_CURVE('',#255,#235,#299,.T.);
#198=EDGE_CURVE('',#256,#242,#24,.T.);
#199=EDGE_CURVE('',#256,#255,#300,.T.);
#200=EDGE_CURVE('',#256,#249,#301,.T.);
#201=EDGE_CURVE('',#257,#252,#25,.T.);
#202=EDGE_CURVE('',#247,#257,#302,.T.);
#203=EDGE_CURVE('',#257,#254,#303,.T.);
#204=EDGE_CURVE('',#236,#258,#304,.T.);
#205=EDGE_CURVE('',#258,#254,#305,.T.);
#206=EDGE_CURVE('',#259,#255,#306,.T.);
#207=EDGE_CURVE('',#259,#234,#307,.T.);
#208=EDGE_CURVE('',#260,#256,#308,.T.);
#209=EDGE_CURVE('',#260,#259,#309,.T.);
#210=EDGE_CURVE('',#248,#260,#310,.T.);
#211=EDGE_CURVE('',#261,#257,#311,.T.);
#212=EDGE_CURVE('',#261,#246,#312,.T.);
#213=EDGE_CURVE('',#258,#261,#313,.T.);
#214=EDGE_CURVE('',#262,#263,#314,.T.);
#215=EDGE_CURVE('',#263,#264,#315,.T.);
#216=EDGE_CURVE('',#264,#265,#316,.T.);
#217=EDGE_CURVE('',#265,#266,#317,.T.);
#218=EDGE_CURVE('',#266,#267,#318,.T.);
#219=EDGE_CURVE('',#267,#268,#319,.T.);
#220=EDGE_CURVE('',#268,#269,#320,.T.);
#221=EDGE_CURVE('',#269,#262,#321,.T.);
#222=EDGE_CURVE('',#259,#267,#322,.F.);
#223=EDGE_CURVE('',#268,#260,#323,.F.);
#224=EDGE_CURVE('',#269,#248,#324,.F.);
#225=EDGE_CURVE('',#234,#266,#325,.T.);
#226=EDGE_CURVE('',#262,#246,#326,.F.);
#227=EDGE_CURVE('',#236,#265,#327,.T.);
#228=EDGE_CURVE('',#263,#261,#328,.F.);
#229=EDGE_CURVE('',#258,#264,#329,.T.);
#230=VERTEX_POINT('',#696);
#231=VERTEX_POINT('',#697);
#232=VERTEX_POINT('',#699);
#233=VERTEX_POINT('',#701);
#234=VERTEX_POINT('',#705);
#235=VERTEX_POINT('',#706);
#236=VERTEX_POINT('',#708);
#237=VERTEX_POINT('',#710);
#238=VERTEX_POINT('',#713);
#239=VERTEX_POINT('',#715);
#240=VERTEX_POINT('',#719);
#241=VERTEX_POINT('',#721);
#242=VERTEX_POINT('',#725);
#243=VERTEX_POINT('',#727);
#244=VERTEX_POINT('',#731);
#245=VERTEX_POINT('',#733);
#246=VERTEX_POINT('',#737);
#247=VERTEX_POINT('',#738);
#248=VERTEX_POINT('',#740);
#249=VERTEX_POINT('',#742);
#250=VERTEX_POINT('',#745);
#251=VERTEX_POINT('',#747);
#252=VERTEX_POINT('',#751);
#253=VERTEX_POINT('',#753);
#254=VERTEX_POINT('',#761);
#255=VERTEX_POINT('',#765);
#256=VERTEX_POINT('',#769);
#257=VERTEX_POINT('',#775);
#258=VERTEX_POINT('',#781);
#259=VERTEX_POINT('',#785);
#260=VERTEX_POINT('',#789);
#261=VERTEX_POINT('',#795);
#262=VERTEX_POINT('',#801);
#263=VERTEX_POINT('',#802);
#264=VERTEX_POINT('',#804);
#265=VERTEX_POINT('',#806);
#266=VERTEX_POINT('',#808);
#267=VERTEX_POINT('',#810);
#268=VERTEX_POINT('',#812);
#269=VERTEX_POINT('',#814);
#270=LINE('',#695,#330);
#271=LINE('',#698,#331);
#272=LINE('',#700,#332);
#273=LINE('',#702,#333);
#274=LINE('',#704,#334);
#275=LINE('',#707,#335);
#276=LINE('',#709,#336);
#277=LINE('',#712,#337);
#278=LINE('',#714,#338);
#279=LINE('',#718,#339);
#280=LINE('',#720,#340);
#281=LINE('',#722,#341);
#282=LINE('',#724,#342);
#283=LINE('',#726,#343);
#284=LINE('',#728,#344);
#285=LINE('',#730,#345);
#286=LINE('',#732,#346);
#287=LINE('',#734,#347);
#288=LINE('',#736,#348);
#289=LINE('',#739,#349);
#290=LINE('',#741,#350);
#291=LINE('',#744,#351);
#292=LINE('',#746,#352);
#293=LINE('',#750,#353);
#294=LINE('',#752,#354);
#295=LINE('',#754,#355);
#296=LINE('',#756,#356);
#297=LINE('',#757,#357);
#298=LINE('',#760,#358);
#299=LINE('',#766,#359);
#300=LINE('',#770,#360);
#301=LINE('',#772,#361);
#302=LINE('',#776,#362);
#303=LINE('',#778,#363);
#304=LINE('',#780,#364);
#305=LINE('',#782,#365);
#306=LINE('',#784,#366);
#307=LINE('',#786,#367);
#308=LINE('',#788,#368);
#309=LINE('',#790,#369);
#310=LINE('',#792,#370);
#311=LINE('',#794,#371);
#312=LINE('',#796,#372);
#313=LINE('',#798,#373);
#314=LINE('',#800,#374);
#315=LINE('',#803,#375);
#316=LINE('',#805,#376);
#317=LINE('',#807,#377);
#318=LINE('',#809,#378);
#319=LINE('',#811,#379);
#320=LINE('',#813,#380);
#321=LINE('',#815,#381);
#322=LINE('',#817,#382);
#323=LINE('',#818,#383);
#324=LINE('',#820,#384);
#325=LINE('',#822,#385);
#326=LINE('',#824,#386);
#327=LINE('',#826,#387);
#328=LINE('',#828,#388);
#329=LINE('',#830,#389);
#330=VECTOR('',#559,1.);
#331=VECTOR('',#560,1.);
#332=VECTOR('',#561,1.);
#333=VECTOR('',#562,1.);
#334=VECTOR('',#565,1.);
#335=VECTOR('',#566,1.);
#336=VECTOR('',#567,1.);
#337=VECTOR('',#570,1.);
#338=VECTOR('',#571,1.);
#339=VECTOR('',#576,1.);
#340=VECTOR('',#577,1.);
#341=VECTOR('',#578,1.);
#342=VECTOR('',#581,1.);
#343=VECTOR('',#582,1.);
#344=VECTOR('',#583,1.);
#345=VECTOR('',#586,1.);
#346=VECTOR('',#587,1.);
#347=VECTOR('',#588,1.);
#348=VECTOR('',#591,1.);
#349=VECTOR('',#592,1.);
#350=VECTOR('',#593,1.);
#351=VECTOR('',#596,1.);
#352=VECTOR('',#597,1.);
#353=VECTOR('',#602,1.);
#354=VECTOR('',#603,1.);
#355=VECTOR('',#604,1.);
#356=VECTOR('',#607,1.);
#357=VECTOR('',#608,1.);
#358=VECTOR('',#613,1.);
#359=VECTOR('',#620,1.);
#360=VECTOR('',#625,1.);
#361=VECTOR('',#628,1.);
#362=VECTOR('',#633,1.);
#363=VECTOR('',#636,1.);
#364=VECTOR('',#639,1.);
#365=VECTOR('',#640,1.);
#366=VECTOR('',#643,1.);
#367=VECTOR('',#644,1.);
#368=VECTOR('',#647,1.);
#369=VECTOR('',#648,1.);
#370=VECTOR('',#651,1.);
#371=VECTOR('',#654,1.);
#372=VECTOR('',#655,1.);
#373=VECTOR('',#658,1.);
#374=VECTOR('',#661,1.);
#375=VECTOR('',#662,1.);
#376=VECTOR('',#663,1.);
#377=VECTOR('',#664,1.);
#378=VECTOR('',#665,1.);
#379=VECTOR('',#666,1.);
#380=VECTOR('',#667,1.);
#381=VECTOR('',#668,1.);
#382=VECTOR('',#671,1.);
#383=VECTOR('',#672,1.);
#384=VECTOR('',#675,1.);
#385=VECTOR('',#678,1.);
#386=VECTOR('',#681,1.);
#387=VECTOR('',#684,1.);
#388=VECTOR('',#687,1.);
#389=VECTOR('',#690,1.);
#390=EDGE_LOOP('',(#26,#27,#28,#29));
#391=EDGE_LOOP('',(#30,#31,#32,#33,#34,#35,#36,#37));
#392=EDGE_LOOP('',(#38,#39,#40,#41));
#393=EDGE_LOOP('',(#42,#43,#44,#45));
#394=EDGE_LOOP('',(#46,#47,#48,#49));
#395=EDGE_LOOP('',(#50,#51,#52,#53,#54,#55,#56,#57));
#396=EDGE_LOOP('',(#58,#59,#60,#61));
#397=EDGE_LOOP('',(#62,#63,#64,#65));
#398=EDGE_LOOP('',(#66,#67,#68,#69,#70,#71,#72,#73));
#399=EDGE_LOOP('',(#74,#75,#76,#77));
#400=EDGE_LOOP('',(#78,#79,#80,#81));
#401=EDGE_LOOP('',(#82,#83,#84,#85));
#402=EDGE_LOOP('',(#86,#87,#88,#89));
#403=EDGE_LOOP('',(#90,#91,#92,#93));
#404=EDGE_LOOP('',(#94,#95,#96,#97));
#405=EDGE_LOOP('',(#98,#99,#100,#101));
#406=EDGE_LOOP('',(#102,#103,#104,#105));
#407=EDGE_LOOP('',(#106,#107,#108,#109));
#408=EDGE_LOOP('',(#110,#111,#112,#113));
#409=EDGE_LOOP('',(#114,#115,#116,#117));
#410=EDGE_LOOP('',(#118,#119,#120,#121));
#411=EDGE_LOOP('',(#122,#123,#124,#125,#126,#127,#128,#129));
#412=EDGE_LOOP('',(#130,#131,#132,#133));
#413=EDGE_LOOP('',(#134,#135,#136,#137));
#414=EDGE_LOOP('',(#138,#139,#140,#141));
#415=EDGE_LOOP('',(#142,#143,#144,#145));
#416=EDGE_LOOP('',(#146,#147,#148,#149));
#417=EDGE_LOOP('',(#150,#151,#152,#153));
#418=EDGE_LOOP('',(#154,#155,#156,#157));
#419=EDGE_LOOP('',(#158,#159,#160,#161));
#420=FACE_BOUND('',#390,.T.);
#421=FACE_BOUND('',#391,.T.);
#422=FACE_BOUND('',#392,.T.);
#423=FACE_BOUND('',#393,.T.);
#424=FACE_BOUND('',#394,.T.);
#425=FACE_BOUND('',#395,.T.);
#426=FACE_BOUND('',#396,.T.);
#427=FACE_BOUND('',#397,.T.);
#428=FACE_BOUND('',#398,.T.);
#429=FACE_BOUND('',#399,.T.);
#430=FACE_BOUND('',#400,.T.);
#431=FACE_BOUND('',#401,.T.);
#432=FACE_BOUND('',#402,.T.);
#433=FACE_BOUND('',#403,.T.);
#434=FACE_BOUND('',#404,.T.);
#435=FACE_BOUND('',#405,.T.);
#436=FACE_BOUND('',#406,.T.);
#437=FACE_BOUND('',#407,.T.);
#438=FACE_BOUND('',#408,.T.);
#439=FACE_BOUND('',#409,.T.);
#440=FACE_BOUND('',#410,.T.);
#441=FACE_BOUND('',#411,.T.);
#442=FACE_BOUND('',#412,.T.);
#443=FACE_BOUND('',#413,.T.);
#444=FACE_BOUND('',#414,.T.);
#445=FACE_BOUND('',#415,.T.);
#446=FACE_BOUND('',#416,.T.);
#447=FACE_BOUND('',#417,.T.);
#448=FACE_BOUND('',#418,.T.);
#449=FACE_BOUND('',#419,.T.);
#450=PLANE('',#517);
#451=PLANE('',#518);
#452=PLANE('',#521);
#453=PLANE('',#522);
#454=PLANE('',#523);
#455=PLANE('',#524);
#456=PLANE('',#527);
#457=PLANE('',#528);
#458=PLANE('',#529);
#459=PLANE('',#540);
#460=PLANE('',#541);
#461=PLANE('',#542);
#462=PLANE('',#543);
#463=PLANE('',#544);
#464=PLANE('',#545);
#465=PLANE('',#546);
#466=PLANE('',#547);
#467=PLANE('',#548);
#468=PLANE('',#549);
#469=PLANE('',#550);
#470=PLANE('',#551);
#471=PLANE('',#552);
#472=PLANE('',#553);
#473=PLANE('',#554);
#474=ADVANCED_FACE('',(#420),#450,.F.);
#475=ADVANCED_FACE('',(#421),#451,.F.);
#476=ADVANCED_FACE('',(#422),#452,.F.);
#477=ADVANCED_FACE('',(#423),#453,.F.);
#478=ADVANCED_FACE('',(#424),#454,.T.);
#479=ADVANCED_FACE('',(#425),#455,.T.);
#480=ADVANCED_FACE('',(#426),#456,.T.);
#481=ADVANCED_FACE('',(#427),#457,.T.);
#482=ADVANCED_FACE('',(#428),#458,.F.);
#483=ADVANCED_FACE('',(#429),#14,.F.);
#484=ADVANCED_FACE('',(#430),#15,.T.);
#485=ADVANCED_FACE('',(#431),#12,.T.);
#486=ADVANCED_FACE('',(#432),#16,.T.);
#487=ADVANCED_FACE('',(#433),#17,.F.);
#488=ADVANCED_FACE('',(#434),#13,.F.);
#489=ADVANCED_FACE('',(#435),#459,.T.);
#490=ADVANCED_FACE('',(#436),#460,.T.);
#491=ADVANCED_FACE('',(#437),#461,.T.);
#492=ADVANCED_FACE('',(#438),#462,.F.);
#493=ADVANCED_FACE('',(#439),#463,.F.);
#494=ADVANCED_FACE('',(#440),#464,.F.);
#495=ADVANCED_FACE('',(#441),#465,.T.);
#496=ADVANCED_FACE('',(#442),#466,.F.);
#497=ADVANCED_FACE('',(#443),#467,.T.);
#498=ADVANCED_FACE('',(#444),#468,.F.);
#499=ADVANCED_FACE('',(#445),#469,.F.);
#500=ADVANCED_FACE('',(#446),#470,.T.);
#501=ADVANCED_FACE('',(#447),#471,.T.);
#502=ADVANCED_FACE('',(#448),#472,.F.);
#503=ADVANCED_FACE('',(#449),#473,.T.);
#504=CLOSED_SHELL('',(#474,#475,#476,#477,#478,#479,#480,#481,#482,#483,
#484,#485,#486,#487,#488,#489,#490,#491,#492,#493,#494,#495,#496,#497,#498,
#499,#500,#501,#502,#503));
#505=STYLED_ITEM('',(#506),#513);
#506=PRESENTATION_STYLE_ASSIGNMENT((#507));
#507=SURFACE_STYLE_USAGE(.BOTH.,#508);
#508=SURFACE_SIDE_STYLE('',(#509));
#509=SURFACE_STYLE_FILL_AREA(#510);
#510=FILL_AREA_STYLE('',(#511));
#511=FILL_AREA_STYLE_COLOUR('',#512);
#512=COLOUR_RGB('',0.231372549019608,0.380392156862745,0.705882352941177);
#513=MANIFOLD_SOLID_BREP('Part 3',#504);
#514=SHAPE_DEFINITION_REPRESENTATION(#838,#515);
#515=SHAPE_REPRESENTATION('Part 3',(#516),#833);
#516=AXIS2_PLACEMENT_3D('',#693,#555,#556);
#517=AXIS2_PLACEMENT_3D('',#694,#557,#558);
#518=AXIS2_PLACEMENT_3D('',#703,#563,#564);
#519=AXIS2_PLACEMENT_3D('',#711,#568,#569);
#520=AXIS2_PLACEMENT_3D('',#716,#572,#573);
#521=AXIS2_PLACEMENT_3D('',#717,#574,#575);
#522=AXIS2_PLACEMENT_3D('',#723,#579,#580);
#523=AXIS2_PLACEMENT_3D('',#729,#584,#585);
#524=AXIS2_PLACEMENT_3D('',#735,#589,#590);
#525=AXIS2_PLACEMENT_3D('',#743,#594,#595);
#526=AXIS2_PLACEMENT_3D('',#748,#598,#599);
#527=AXIS2_PLACEMENT_3D('',#749,#600,#601);
#528=AXIS2_PLACEMENT_3D('',#755,#605,#606);
#529=AXIS2_PLACEMENT_3D('',#758,#609,#610);
#530=AXIS2_PLACEMENT_3D('',#759,#611,#612);
#531=AXIS2_PLACEMENT_3D('',#762,#614,#615);
#532=AXIS2_PLACEMENT_3D('',#763,#616,#617);
#533=AXIS2_PLACEMENT_3D('',#764,#618,#619);
#534=AXIS2_PLACEMENT_3D('',#767,#621,#622);
#535=AXIS2_PLACEMENT_3D('',#768,#623,#624);
#536=AXIS2_PLACEMENT_3D('',#771,#626,#627);
#537=AXIS2_PLACEMENT_3D('',#773,#629,#630);
#538=AXIS2_PLACEMENT_3D('',#774,#631,#632);
#539=AXIS2_PLACEMENT_3D('',#777,#634,#635);
#540=AXIS2_PLACEMENT_3D('',#779,#637,#638);
#541=AXIS2_PLACEMENT_3D('',#783,#641,#642);
#542=AXIS2_PLACEMENT_3D('',#787,#645,#646);
#543=AXIS2_PLACEMENT_3D('',#791,#649,#650);
#544=AXIS2_PLACEMENT_3D('',#793,#652,#653);
#545=AXIS2_PLACEMENT_3D('',#797,#656,#657);
#546=AXIS2_PLACEMENT_3D('',#799,#659,#660);
#547=AXIS2_PLACEMENT_3D('',#816,#669,#670);
#548=AXIS2_PLACEMENT_3D('',#819,#673,#674);
#549=AXIS2_PLACEMENT_3D('',#821,#676,#677);
#550=AXIS2_PLACEMENT_3D('',#823,#679,#680);
#551=AXIS2_PLACEMENT_3D('',#825,#682,#683);
#552=AXIS2_PLACEMENT_3D('',#827,#685,#686);
#553=AXIS2_PLACEMENT_3D('',#829,#688,#689);
#554=AXIS2_PLACEMENT_3D('',#831,#691,#692);
#555=DIRECTION('',(0.,0.,1.));
#556=DIRECTION('',(1.,0.,0.));
#557=DIRECTION('',(0.707106781186546,-0.707106781186549,0.));
#558=DIRECTION('',(-0.707106781186549,-0.707106781186546,0.));
#559=DIRECTION('',(-0.707106781186549,-0.707106781186546,0.));
#560=DIRECTION('',(0.,0.,-1.));
#561=DIRECTION('',(-0.707106781186549,-0.707106781186546,0.));
#562=DIRECTION('',(0.,0.,-1.));
#563=DIRECTION('',(0.,-1.,0.));
#564=DIRECTION('',(-1.,0.,0.));
#565=DIRECTION('',(1.22464679914735E-16,0.,-1.));
#566=DIRECTION('',(1.,0.,1.22464679914735E-16));
#567=DIRECTION('',(1.22464679914735E-16,0.,-1.));
#568=DIRECTION('',(0.,-1.,0.));
#569=DIRECTION('',(-1.,0.,0.));
#570=DIRECTION('',(-1.,0.,0.));
#571=DIRECTION('',(0.,0.,-1.));
#572=DIRECTION('',(0.,-1.,0.));
#573=DIRECTION('',(-1.,0.,0.));
#574=DIRECTION('',(-0.707106781186541,-0.707106781186554,0.));
#575=DIRECTION('',(-0.707106781186554,0.707106781186541,0.));
#576=DIRECTION('',(-0.707106781186554,0.707106781186541,0.));
#577=DIRECTION('',(-0.707106781186554,0.707106781186541,0.));
#578=DIRECTION('',(0.,0.,-1.));
#579=DIRECTION('',(-1.,0.,0.));
#580=DIRECTION('',(0.,1.,0.));
#581=DIRECTION('',(0.,1.,0.));
#582=DIRECTION('',(0.,1.,0.));
#583=DIRECTION('',(0.,0.,-1.));
#584=DIRECTION('',(0.707106781186548,-0.707106781186547,0.));
#585=DIRECTION('',(-0.707106781186547,-0.707106781186548,0.));
#586=DIRECTION('',(-0.707106781186547,-0.707106781186548,0.));
#587=DIRECTION('',(-0.707106781186547,-0.707106781186548,0.));
#588=DIRECTION('',(0.,0.,-1.));
#589=DIRECTION('',(0.,-1.,0.));
#590=DIRECTION('',(-1.,0.,0.));
#591=DIRECTION('',(1.22464679914735E-16,0.,-1.));
#592=DIRECTION('',(-1.,0.,-1.22464679914735E-16));
#593=DIRECTION('',(1.22464679914735E-16,0.,-1.));
#594=DIRECTION('',(0.,-1.,0.));
#595=DIRECTION('',(-1.,0.,0.));
#596=DIRECTION('',(-1.,0.,0.));
#597=DIRECTION('',(0.,0.,-1.));
#598=DIRECTION('',(0.,-1.,0.));
#599=DIRECTION('',(-1.,0.,0.));
#600=DIRECTION('',(-0.707106781186548,-0.707106781186548,0.));
#601=DIRECTION('',(-0.707106781186548,0.707106781186548,0.));
#602=DIRECTION('',(-0.707106781186548,0.707106781186548,0.));
#603=DIRECTION('',(-0.707106781186548,0.707106781186548,0.));
#604=DIRECTION('',(0.,0.,-1.));
#605=DIRECTION('',(-1.,0.,0.));
#606=DIRECTION('',(0.,1.,0.));
#607=DIRECTION('',(0.,1.,0.));
#608=DIRECTION('',(0.,1.,0.));
#609=DIRECTION('',(0.,0.,-1.));
#610=DIRECTION('',(-1.,0.,0.));
#611=DIRECTION('',(0.,1.,0.));
#612=DIRECTION('',(1.,0.,0.));
#613=DIRECTION('',(0.707106781186549,-0.707106781186546,8.65956056235495E-17));
#614=DIRECTION('',(0.,-1.,0.));
#615=DIRECTION('',(-1.,0.,0.));
#616=DIRECTION('',(0.,-1.,0.));
#617=DIRECTION('',(-1.,0.,0.));
#618=DIRECTION('',(0.,-1.,0.));
#619=DIRECTION('',(-1.,0.,0.));
#620=DIRECTION('',(0.707106781186554,0.707106781186541,8.65956056235501E-17));
#621=DIRECTION('',(0.,-1.,0.));
#622=DIRECTION('',(-1.,0.,0.));
#623=DIRECTION('',(0.,-1.,0.));
#624=DIRECTION('',(-1.,0.,0.));
#625=DIRECTION('',(0.,1.,0.));
#626=DIRECTION('',(0.,1.,0.));
#627=DIRECTION('',(1.,0.,0.));
#628=DIRECTION('',(0.707106781186547,-0.707106781186548,8.65956056235493E-17));
#629=DIRECTION('',(0.,-1.,0.));
#630=DIRECTION('',(-1.,0.,0.));
#631=DIRECTION('',(0.,-1.,0.));
#632=DIRECTION('',(-1.,0.,0.));
#633=DIRECTION('',(0.707106781186548,0.707106781186548,8.65956056235494E-17));
#634=DIRECTION('',(0.,-1.,0.));
#635=DIRECTION('',(-1.,0.,0.));
#636=DIRECTION('',(0.,1.,0.));
#637=DIRECTION('',(0.707106781186546,0.707106781186549,8.65956056235492E-17));
#638=DIRECTION('',(0.707106781186549,-0.707106781186546,0.));
#639=DIRECTION('',(0.707106781186549,-0.707106781186546,8.65956056235495E-17));
#640=DIRECTION('',(1.22464679914735E-16,0.,-1.));
#641=DIRECTION('',(-0.707106781186541,0.707106781186554,-8.65956056235485E-17));
#642=DIRECTION('',(0.707106781186554,0.707106781186541,0.));
#643=DIRECTION('',(1.22464679914735E-16,0.,-1.));
#644=DIRECTION('',(0.707106781186554,0.707106781186541,8.65956056235502E-17));
#645=DIRECTION('',(-1.,0.,-1.22464679914735E-16));
#646=DIRECTION('',(-1.22464679914735E-16,0.,1.));
#647=DIRECTION('',(1.22464679914735E-16,0.,-1.));
#648=DIRECTION('',(0.,1.,0.));
#649=DIRECTION('',(0.707106781186548,0.707106781186547,8.65956056235494E-17));
#650=DIRECTION('',(0.707106781186547,-0.707106781186548,0.));
#651=DIRECTION('',(-0.707106781186547,0.707106781186548,-8.65956056235493E-17));
#652=DIRECTION('',(-0.707106781186548,0.707106781186548,-8.65956056235494E-17));
#653=DIRECTION('',(0.707106781186548,0.707106781186548,0.));
#654=DIRECTION('',(1.22464679914735E-16,0.,-1.));
#655=DIRECTION('',(-0.707106781186548,-0.707106781186548,-8.65956056235494E-17));
#656=DIRECTION('',(-1.,0.,-1.22464679914735E-16));
#657=DIRECTION('',(-1.22464679914735E-16,0.,1.));
#658=DIRECTION('',(0.,-1.,0.));
#659=DIRECTION('',(-1.22464679914735E-16,0.,1.));
#660=DIRECTION('',(1.,0.,1.22464679914735E-16));
#661=DIRECTION('',(0.707106781186548,0.707106781186548,8.65956056235494E-17));
#662=DIRECTION('',(0.,1.,0.));
#663=DIRECTION('',(-0.707106781186549,0.707106781186546,-8.65956056235495E-17));
#664=DIRECTION('',(-1.,0.,-1.22464679914735E-16));
#665=DIRECTION('',(-0.707106781186554,-0.707106781186541,-8.65956056235501E-17));
#666=DIRECTION('',(0.,-1.,0.));
#667=DIRECTION('',(0.707106781186547,-0.707106781186548,8.65956056235493E-17));
#668=DIRECTION('',(1.,0.,1.22464679914735E-16));
#669=DIRECTION('',(0.707106781186548,0.,-0.707106781186548));
#670=DIRECTION('',(0.,1.,0.));
#671=DIRECTION('',(-0.678598344545846,0.281084637714827,-0.678598344545846));
#672=DIRECTION('',(0.678598344545849,0.281084637714813,0.678598344545849));
#673=DIRECTION('',(-0.5,-0.5,0.707106781186544));
#674=DIRECTION('',(-0.707106781186547,0.707106781186548,-8.65956056235493E-17));
#675=DIRECTION('',(0.281084637714815,0.678598344545847,0.678598344545849));
#676=DIRECTION('',(0.5,-0.5,-0.707106781186549));
#677=DIRECTION('',(0.707106781186554,0.707106781186541,8.65956056235502E-17));
#678=DIRECTION('',(0.281084637714822,-0.678598344545846,0.678598344545847));
#679=DIRECTION('',(8.65956056235493E-17,0.707106781186548,-0.707106781186547));
#680=DIRECTION('',(1.,0.,1.22464679914735E-16));
#681=DIRECTION('',(-0.281084637714817,0.678598344545847,0.678598344545848));
#682=DIRECTION('',(-8.65956056235493E-17,0.707106781186548,0.707106781186547));
#683=DIRECTION('',(-1.,0.,-1.22464679914735E-16));
#684=DIRECTION('',(-0.281084637714817,-0.678598344545847,0.678598344545849));
#685=DIRECTION('',(0.5,-0.5,0.707106781186546));
#686=DIRECTION('',(-0.707106781186548,-0.707106781186548,-8.65956056235494E-17));
#687=DIRECTION('',(-0.678598344545848,0.281084637714816,0.678598344545848));
#688=DIRECTION('',(-0.5,-0.5,-0.707106781186546));
#689=DIRECTION('',(0.707106781186549,-0.707106781186546,8.65956056235495E-17));
#690=DIRECTION('',(-0.678598344545848,-0.281084637714817,0.678598344545848));
#691=DIRECTION('',(0.707106781186548,0.,0.707106781186548));
#692=DIRECTION('',(0.,-1.,0.));
#693=CARTESIAN_POINT('',(0.,0.,0.));
#694=CARTESIAN_POINT('',(-0.042550609665441,0.00905060966544101,0.0045));
#695=CARTESIAN_POINT('',(-0.042550609665441,0.00905060966544101,-0.0065));
#696=CARTESIAN_POINT('',(-0.041701219330882,0.0099,-0.0065));
#697=CARTESIAN_POINT('',(-0.0434,0.00820121933088202,-0.0065));
#698=CARTESIAN_POINT('',(-0.0434,0.00820121933088202,0.0045));
#699=CARTESIAN_POINT('',(-0.0434,0.00820121933088202,0.0045));
#700=CARTESIAN_POINT('',(-0.042550609665441,0.00905060966544101,0.0045));
#701=CARTESIAN_POINT('',(-0.041701219330882,0.0099,0.0045));
#702=CARTESIAN_POINT('',(-0.041701219330882,0.0099,0.0045));
#703=CARTESIAN_POINT('',(-0.0405,0.0099,0.0045));
#704=CARTESIAN_POINT('',(-0.0715012193308819,0.0099,0.0285));
#705=CARTESIAN_POINT('',(-0.0715012193308819,0.0099,0.0275));
#706=CARTESIAN_POINT('',(-0.0715012193308819,0.0099,-0.0065));
#707=CARTESIAN_POINT('',(-0.069098780669118,0.0099,0.0275));
#708=CARTESIAN_POINT('',(-0.069098780669118,0.0099,0.0275));
#709=CARTESIAN_POINT('',(-0.069098780669118,0.0099,0.0285));
#710=CARTESIAN_POINT('',(-0.069098780669118,0.0099,-0.0065));
#711=CARTESIAN_POINT('',(-0.0554,0.0099,-0.0065));
#712=CARTESIAN_POINT('',(-0.0405,0.0099,0.0045));
#713=CARTESIAN_POINT('',(-0.0392987806691181,0.0099,0.0045));
#714=CARTESIAN_POINT('',(-0.0392987806691181,0.0099,0.0045));
#715=CARTESIAN_POINT('',(-0.0392987806691181,0.0099,-0.0065));
#716=CARTESIAN_POINT('',(-0.0554,0.0099,-0.0065));
#717=CARTESIAN_POINT('',(-0.038449390334559,0.009050609665441,0.0045));
#718=CARTESIAN_POINT('',(-0.038449390334559,0.009050609665441,-0.0065));
#719=CARTESIAN_POINT('',(-0.0376,0.00820121933088199,-0.0065));
#720=CARTESIAN_POINT('',(-0.038449390334559,0.009050609665441,0.0045));
#721=CARTESIAN_POINT('',(-0.0376,0.00820121933088199,0.0045));
#722=CARTESIAN_POINT('',(-0.0376,0.00820121933088199,0.0045));
#723=CARTESIAN_POINT('',(-0.0376,-1.56125112837912E-17,0.0045));
#724=CARTESIAN_POINT('',(-0.0376,-1.56125112837912E-17,-0.0065));
#725=CARTESIAN_POINT('',(-0.0376,-0.00820121933088202,-0.0065));
#726=CARTESIAN_POINT('',(-0.0376,-1.56125112837912E-17,0.0045));
#727=CARTESIAN_POINT('',(-0.0376,-0.00820121933088202,0.0045));
#728=CARTESIAN_POINT('',(-0.0376,-0.00820121933088202,0.0045));
#729=CARTESIAN_POINT('',(-0.038449390334559,-0.00905060966544101,0.0045));
#730=CARTESIAN_POINT('',(-0.038449390334559,-0.00905060966544101,-0.0065));
#731=CARTESIAN_POINT('',(-0.0392987806691179,-0.0099,-0.0065));
#732=CARTESIAN_POINT('',(-0.038449390334559,-0.00905060966544101,0.0045));
#733=CARTESIAN_POINT('',(-0.0392987806691179,-0.0099,0.0045));
#734=CARTESIAN_POINT('',(-0.0392987806691179,-0.0099,0.0045));
#735=CARTESIAN_POINT('',(-0.0405,-0.0099,0.0045));
#736=CARTESIAN_POINT('',(-0.069098780669118,-0.0099,0.0285));
#737=CARTESIAN_POINT('',(-0.069098780669118,-0.0099,0.0275));
#738=CARTESIAN_POINT('',(-0.069098780669118,-0.0099,-0.0065));
#739=CARTESIAN_POINT('',(-0.0405,-0.0099,0.0275));
#740=CARTESIAN_POINT('',(-0.071501219330882,-0.0099,0.0275));
#741=CARTESIAN_POINT('',(-0.071501219330882,-0.0099,0.0285));
#742=CARTESIAN_POINT('',(-0.071501219330882,-0.0099,-0.0065));
#743=CARTESIAN_POINT('',(-0.0554,-0.0099,-0.0065));
#744=CARTESIAN_POINT('',(-0.0405,-0.0099,0.0045));
#745=CARTESIAN_POINT('',(-0.041701219330882,-0.0099,0.0045));
#746=CARTESIAN_POINT('',(-0.041701219330882,-0.0099,0.0045));
#747=CARTESIAN_POINT('',(-0.041701219330882,-0.0099,-0.0065));
#748=CARTESIAN_POINT('',(-0.0554,-0.0099,-0.0065));
#749=CARTESIAN_POINT('',(-0.042550609665441,-0.009050609665441,0.0045));
#750=CARTESIAN_POINT('',(-0.042550609665441,-0.009050609665441,-0.0065));
#751=CARTESIAN_POINT('',(-0.0434,-0.00820121933088201,-0.0065));
#752=CARTESIAN_POINT('',(-0.042550609665441,-0.009050609665441,0.0045));
#753=CARTESIAN_POINT('',(-0.0434,-0.00820121933088201,0.0045));
#754=CARTESIAN_POINT('',(-0.0434,-0.00820121933088201,0.0045));
#755=CARTESIAN_POINT('',(-0.0434,6.07153216591882E-18,0.0045));
#756=CARTESIAN_POINT('',(-0.0434,6.07153216591882E-18,-0.0065));
#757=CARTESIAN_POINT('',(-0.0434,6.07153216591882E-18,0.0045));
#758=CARTESIAN_POINT('',(-0.0027,6.93889390390723E-18,0.0045));
#759=CARTESIAN_POINT('',(-0.0554,0.0099,-0.0065));
#760=CARTESIAN_POINT('',(-0.068249390334559,0.00905060966544101,-0.0065));
#761=CARTESIAN_POINT('',(-0.0674,0.00820121933088202,-0.0065));
#762=CARTESIAN_POINT('',(-0.0554,0.00820121933088202,-0.0065));
#763=CARTESIAN_POINT('',(-0.0554,0.00820121933088199,-0.0065));
#764=CARTESIAN_POINT('',(-0.0554,0.00820121933088199,-0.0065));
#765=CARTESIAN_POINT('',(-0.0732,0.00820121933088199,-0.0065));
#766=CARTESIAN_POINT('',(-0.072350609665441,0.009050609665441,-0.0065));
#767=CARTESIAN_POINT('',(-0.0554,2.07106781186638E-5,-0.0065));
#768=CARTESIAN_POINT('',(-0.0554,-0.00820121933088202,-0.0065));
#769=CARTESIAN_POINT('',(-0.0732,-0.00820121933088202,-0.0065));
#770=CARTESIAN_POINT('',(-0.0732,-1.56125112837912E-17,-0.0065));
#771=CARTESIAN_POINT('',(-0.0554,-0.00820121933088202,-0.0065));
#772=CARTESIAN_POINT('',(-0.072350609665441,-0.00905060966544101,-0.0065));
#773=CARTESIAN_POINT('',(-0.0554,-0.0099,-0.0065));
#774=CARTESIAN_POINT('',(-0.0554,-0.00820121933088201,-0.0065));
#775=CARTESIAN_POINT('',(-0.0674,-0.00820121933088201,-0.0065));
#776=CARTESIAN_POINT('',(-0.068249390334559,-0.009050609665441,-0.0065));
#777=CARTESIAN_POINT('',(-0.0554,2.07106781186638E-5,-0.0065));
#778=CARTESIAN_POINT('',(-0.0674,6.07153216591882E-18,-0.0065));
#779=CARTESIAN_POINT('',(-0.068249390334559,0.00905060966544101,0.0285));
#780=CARTESIAN_POINT('',(-0.068249390334559,0.00905060966544101,0.0275));
#781=CARTESIAN_POINT('',(-0.0674,0.00820121933088202,0.0275));
#782=CARTESIAN_POINT('',(-0.0674,0.00820121933088202,0.0285));
#783=CARTESIAN_POINT('',(-0.072350609665441,0.009050609665441,0.0285));
#784=CARTESIAN_POINT('',(-0.0732,0.00820121933088199,0.0285));
#785=CARTESIAN_POINT('',(-0.0732,0.00820121933088199,0.0275));
#786=CARTESIAN_POINT('',(-0.072350609665441,0.009050609665441,0.0275));
#787=CARTESIAN_POINT('',(-0.0732,-1.56125112837912E-17,0.0285));
#788=CARTESIAN_POINT('',(-0.0732,-0.00820121933088202,0.0285));
#789=CARTESIAN_POINT('',(-0.0732,-0.00820121933088202,0.0275));
#790=CARTESIAN_POINT('',(-0.0732,-1.56125112837912E-17,0.0275));
#791=CARTESIAN_POINT('',(-0.072350609665441,-0.00905060966544101,0.0285));
#792=CARTESIAN_POINT('',(-0.0732,-0.00820121933088202,0.0275));
#793=CARTESIAN_POINT('',(-0.068249390334559,-0.009050609665441,0.0285));
#794=CARTESIAN_POINT('',(-0.0674,-0.00820121933088201,0.0285));
#795=CARTESIAN_POINT('',(-0.0674,-0.00820121933088201,0.0275));
#796=CARTESIAN_POINT('',(-0.069098780669118,-0.0099,0.0275));
#797=CARTESIAN_POINT('',(-0.0674,6.07153216591882E-18,0.0285));
#798=CARTESIAN_POINT('',(-0.0674,-0.00820121933088201,0.0275));
#799=CARTESIAN_POINT('',(-0.0703,5.20417042793042E-18,0.0285));
#800=CARTESIAN_POINT('',(-0.0681071067811865,-0.00749411254969546,0.0285));
#801=CARTESIAN_POINT('',(-0.0695129942314911,-0.0089,0.0285));
#802=CARTESIAN_POINT('',(-0.0684,-0.00778700576850892,0.0285));
#803=CARTESIAN_POINT('',(-0.0684,0.00820121933088202,0.0285));
#804=CARTESIAN_POINT('',(-0.0684,0.00778700576850893,0.0285));
#805=CARTESIAN_POINT('',(-0.0654564971157455,0.00484350288425448,0.0285));
#806=CARTESIAN_POINT('',(-0.0695129942314911,0.0089,0.0285));
#807=CARTESIAN_POINT('',(-0.0715012193308819,0.0089,0.0285));
#808=CARTESIAN_POINT('',(-0.0710870057685088,0.0089,0.0285));
#809=CARTESIAN_POINT('',(-0.0751435028842544,0.00484350288425452,0.0285));
#810=CARTESIAN_POINT('',(-0.0722,0.00778700576850888,0.0285));
#811=CARTESIAN_POINT('',(-0.0722,5.20417042793042E-18,0.0285));
#812=CARTESIAN_POINT('',(-0.0722,-0.00778700576850893,0.0285));
#813=CARTESIAN_POINT('',(-0.0707941125496955,-0.00919289321881345,0.0285));
#814=CARTESIAN_POINT('',(-0.0710870057685089,-0.0089,0.0285));
#815=CARTESIAN_POINT('',(-0.0703,-0.0089,0.0285));
#816=CARTESIAN_POINT('',(-0.0732,-1.56125112837912E-17,0.0275));
#817=CARTESIAN_POINT('',(-0.0716356701478642,0.00755325269010224,0.0290643298521358));
#818=CARTESIAN_POINT('',(-0.0729940162121018,-0.00811589805230559,0.0277059837878983));
#819=CARTESIAN_POINT('',(-0.0751435028842545,-0.00484350288425446,0.0285));
#820=CARTESIAN_POINT('',(-0.0710248255653561,-0.00874988371023737,0.0286501162897626));
#821=CARTESIAN_POINT('',(-0.072350609665441,0.009050609665441,0.0275));
#822=CARTESIAN_POINT('',(-0.0714063127050171,0.00967087513667812,0.0277291248633219));
#823=CARTESIAN_POINT('',(-0.0703,-0.0089,0.0285));
#824=CARTESIAN_POINT('',(-0.0699662469215933,-0.00780575120837301,0.029594248791627));
#825=CARTESIAN_POINT('',(-0.0405,0.0099,0.0275));
#826=CARTESIAN_POINT('',(-0.0668392318029166,0.0153550335176283,0.0220449664823717));
#827=CARTESIAN_POINT('',(-0.0654564971157455,-0.00484350288425445,0.0285));
#828=CARTESIAN_POINT('',(-0.0676059837878982,-0.00811589805230557,0.0277059837878983));
#829=CARTESIAN_POINT('',(-0.068249390334559,0.00905060966544101,0.0275));
#830=CARTESIAN_POINT('',(-0.0676291248633219,0.00810631270501721,0.0277291248633219));
#831=CARTESIAN_POINT('',(-0.0684,5.20417042793042E-18,0.0285));
#832=MECHANICAL_DESIGN_GEOMETRIC_PRESENTATION_REPRESENTATION('',(#505),
#833);
#833=(
GEOMETRIC_REPRESENTATION_CONTEXT(3)
GLOBAL_UNCERTAINTY_ASSIGNED_CONTEXT((#834))
GLOBAL_UNIT_ASSIGNED_CONTEXT((#837,#836,#835))
REPRESENTATION_CONTEXT('Part 3','TOP_LEVEL_ASSEMBLY_PART')
);
#834=UNCERTAINTY_MEASURE_WITH_UNIT(LENGTH_MEASURE(1.E-8),#837,
'DISTANCE_ACCURACY_VALUE','Maximum Tolerance applied to model');
#835=(
NAMED_UNIT(*)
SI_UNIT($,.STERADIAN.)
SOLID_ANGLE_UNIT()
);
#836=(
NAMED_UNIT(*)
PLANE_ANGLE_UNIT()
SI_UNIT($,.RADIAN.)
);
#837=(
LENGTH_UNIT()
NAMED_UNIT(*)
SI_UNIT($,.METRE.)
);
#838=PRODUCT_DEFINITION_SHAPE('','',#839);
#839=PRODUCT_DEFINITION('','',#841,#840);
#840=PRODUCT_DEFINITION_CONTEXT('',#847,'design');
#841=PRODUCT_DEFINITION_FORMATION_WITH_SPECIFIED_SOURCE('','',#843,
 .NOT_KNOWN.);
#842=PRODUCT_RELATED_PRODUCT_CATEGORY('','',(#843));
#843=PRODUCT('Part 3','Part 3','Part 3',(#845));
#844=PRODUCT_CATEGORY('','');
#845=PRODUCT_CONTEXT('',#847,'mechanical');
#846=APPLICATION_PROTOCOL_DEFINITION('international standard',
'ap242_managed_model_based_3d_engineering',2011,#847);
#847=APPLICATION_CONTEXT('managed model based 3d engineering');
ENDSEC;
END-ISO-10303-21;
