ISO-10303-21;
HEADER;
/* Generated by software containing ST-Developer
 * from STEP Tools, Inc. (www.steptools.com) 
 */
/* OPTION: using custom renumber hook */

FILE_DESCRIPTION(
/* description */ ('STEP AP242',
'CAx-IF Rec.Pracs.---Representation and Presentation of Product Manufa
cturing Information (PMI)---4.0---2014-10-13',
'CAx-IF Rec.Pracs.---3D Tessellated Geometry---0.4---2014-09-14','2;1'),

/* implementation_level */ '2;1');

FILE_NAME(
/* name */ '6883f5424addd603f7249b15',
/* time_stamp */ '2025-07-25T21:21:07Z',
/* author */ (''),
/* organization */ (''),
/* preprocessor_version */ 'ST-DEVELOPER v20',
/* originating_system */ 'ONSHAPE BY PTC INC, 1.201',
/* authorisation */ '  ');

FILE_SCHEMA (('AP242_MANAGED_MODEL_BASED_3D_ENGINEERING_MIM_LF { 1 0 10303 442 1 1 4 }'));
ENDSEC;

DATA;
#10=SHAPE_REPRESENTATION_RELATIONSHIP('','',#491,#11);
#11=ADVANCED_BREP_SHAPE_REPRESENTATION('',(#489),#773);
#12=CYLINDRICAL_SURFACE('',#514,0.00225);
#13=CYLINDRICAL_SURFACE('',#520,0.00225);
#14=CIRCLE('',#510,0.00225);
#15=CIRCLE('',#512,0.00225);
#16=CIRCLE('',#516,0.00225);
#17=CIRCLE('',#518,0.00225);
#18=ORIENTED_EDGE('',*,*,#146,.F.);
#19=ORIENTED_EDGE('',*,*,#147,.F.);
#20=ORIENTED_EDGE('',*,*,#148,.T.);
#21=ORIENTED_EDGE('',*,*,#149,.T.);
#22=ORIENTED_EDGE('',*,*,#150,.T.);
#23=ORIENTED_EDGE('',*,*,#151,.T.);
#24=ORIENTED_EDGE('',*,*,#152,.F.);
#25=ORIENTED_EDGE('',*,*,#153,.F.);
#26=ORIENTED_EDGE('',*,*,#154,.F.);
#27=ORIENTED_EDGE('',*,*,#155,.T.);
#28=ORIENTED_EDGE('',*,*,#156,.T.);
#29=ORIENTED_EDGE('',*,*,#157,.F.);
#30=ORIENTED_EDGE('',*,*,#158,.T.);
#31=ORIENTED_EDGE('',*,*,#159,.F.);
#32=ORIENTED_EDGE('',*,*,#160,.F.);
#33=ORIENTED_EDGE('',*,*,#161,.T.);
#34=ORIENTED_EDGE('',*,*,#155,.F.);
#35=ORIENTED_EDGE('',*,*,#162,.F.);
#36=ORIENTED_EDGE('',*,*,#163,.T.);
#37=ORIENTED_EDGE('',*,*,#164,.F.);
#38=ORIENTED_EDGE('',*,*,#165,.T.);
#39=ORIENTED_EDGE('',*,*,#166,.F.);
#40=ORIENTED_EDGE('',*,*,#167,.T.);
#41=ORIENTED_EDGE('',*,*,#150,.F.);
#42=ORIENTED_EDGE('',*,*,#168,.T.);
#43=ORIENTED_EDGE('',*,*,#169,.F.);
#44=ORIENTED_EDGE('',*,*,#170,.T.);
#45=ORIENTED_EDGE('',*,*,#160,.T.);
#46=ORIENTED_EDGE('',*,*,#171,.F.);
#47=ORIENTED_EDGE('',*,*,#147,.T.);
#48=ORIENTED_EDGE('',*,*,#172,.F.);
#49=ORIENTED_EDGE('',*,*,#173,.T.);
#50=ORIENTED_EDGE('',*,*,#174,.F.);
#51=ORIENTED_EDGE('',*,*,#175,.T.);
#52=ORIENTED_EDGE('',*,*,#176,.F.);
#53=ORIENTED_EDGE('',*,*,#177,.T.);
#54=ORIENTED_EDGE('',*,*,#169,.T.);
#55=ORIENTED_EDGE('',*,*,#178,.T.);
#56=ORIENTED_EDGE('',*,*,#179,.F.);
#57=ORIENTED_EDGE('',*,*,#180,.F.);
#58=ORIENTED_EDGE('',*,*,#179,.T.);
#59=ORIENTED_EDGE('',*,*,#181,.F.);
#60=ORIENTED_EDGE('',*,*,#152,.T.);
#61=ORIENTED_EDGE('',*,*,#182,.F.);
#62=ORIENTED_EDGE('',*,*,#183,.F.);
#63=ORIENTED_EDGE('',*,*,#184,.F.);
#64=ORIENTED_EDGE('',*,*,#185,.T.);
#65=ORIENTED_EDGE('',*,*,#186,.F.);
#66=ORIENTED_EDGE('',*,*,#187,.T.);
#67=ORIENTED_EDGE('',*,*,#157,.T.);
#68=ORIENTED_EDGE('',*,*,#188,.F.);
#69=ORIENTED_EDGE('',*,*,#189,.T.);
#70=ORIENTED_EDGE('',*,*,#190,.F.);
#71=ORIENTED_EDGE('',*,*,#191,.T.);
#72=ORIENTED_EDGE('',*,*,#192,.T.);
#73=ORIENTED_EDGE('',*,*,#193,.T.);
#74=ORIENTED_EDGE('',*,*,#149,.F.);
#75=ORIENTED_EDGE('',*,*,#194,.T.);
#76=ORIENTED_EDGE('',*,*,#158,.F.);
#77=ORIENTED_EDGE('',*,*,#195,.F.);
#78=ORIENTED_EDGE('',*,*,#161,.F.);
#79=ORIENTED_EDGE('',*,*,#170,.F.);
#80=ORIENTED_EDGE('',*,*,#180,.T.);
#81=ORIENTED_EDGE('',*,*,#195,.T.);
#82=ORIENTED_EDGE('',*,*,#156,.F.);
#83=ORIENTED_EDGE('',*,*,#177,.F.);
#84=ORIENTED_EDGE('',*,*,#196,.T.);
#85=ORIENTED_EDGE('',*,*,#188,.T.);
#86=ORIENTED_EDGE('',*,*,#154,.T.);
#87=ORIENTED_EDGE('',*,*,#187,.F.);
#88=ORIENTED_EDGE('',*,*,#197,.F.);
#89=ORIENTED_EDGE('',*,*,#162,.T.);
#90=ORIENTED_EDGE('',*,*,#186,.T.);
#91=ORIENTED_EDGE('',*,*,#198,.F.);
#92=ORIENTED_EDGE('',*,*,#163,.F.);
#93=ORIENTED_EDGE('',*,*,#197,.T.);
#94=ORIENTED_EDGE('',*,*,#181,.T.);
#95=ORIENTED_EDGE('',*,*,#178,.F.);
#96=ORIENTED_EDGE('',*,*,#168,.F.);
#97=ORIENTED_EDGE('',*,*,#153,.T.);
#98=ORIENTED_EDGE('',*,*,#185,.F.);
#99=ORIENTED_EDGE('',*,*,#199,.F.);
#100=ORIENTED_EDGE('',*,*,#164,.T.);
#101=ORIENTED_EDGE('',*,*,#198,.T.);
#102=ORIENTED_EDGE('',*,*,#190,.T.);
#103=ORIENTED_EDGE('',*,*,#200,.F.);
#104=ORIENTED_EDGE('',*,*,#175,.F.);
#105=ORIENTED_EDGE('',*,*,#201,.T.);
#106=ORIENTED_EDGE('',*,*,#194,.F.);
#107=ORIENTED_EDGE('',*,*,#148,.F.);
#108=ORIENTED_EDGE('',*,*,#171,.T.);
#109=ORIENTED_EDGE('',*,*,#159,.T.);
#110=ORIENTED_EDGE('',*,*,#189,.F.);
#111=ORIENTED_EDGE('',*,*,#196,.F.);
#112=ORIENTED_EDGE('',*,*,#176,.T.);
#113=ORIENTED_EDGE('',*,*,#200,.T.);
#114=ORIENTED_EDGE('',*,*,#202,.F.);
#115=ORIENTED_EDGE('',*,*,#184,.T.);
#116=ORIENTED_EDGE('',*,*,#203,.F.);
#117=ORIENTED_EDGE('',*,*,#165,.F.);
#118=ORIENTED_EDGE('',*,*,#199,.T.);
#119=ORIENTED_EDGE('',*,*,#204,.F.);
#120=ORIENTED_EDGE('',*,*,#151,.F.);
#121=ORIENTED_EDGE('',*,*,#167,.F.);
#122=ORIENTED_EDGE('',*,*,#205,.T.);
#123=ORIENTED_EDGE('',*,*,#182,.T.);
#124=ORIENTED_EDGE('',*,*,#205,.F.);
#125=ORIENTED_EDGE('',*,*,#166,.T.);
#126=ORIENTED_EDGE('',*,*,#203,.T.);
#127=ORIENTED_EDGE('',*,*,#183,.T.);
#128=ORIENTED_EDGE('',*,*,#202,.T.);
#129=ORIENTED_EDGE('',*,*,#204,.T.);
#130=ORIENTED_EDGE('',*,*,#206,.F.);
#131=ORIENTED_EDGE('',*,*,#174,.T.);
#132=ORIENTED_EDGE('',*,*,#207,.T.);
#133=ORIENTED_EDGE('',*,*,#191,.F.);
#134=ORIENTED_EDGE('',*,*,#201,.F.);
#135=ORIENTED_EDGE('',*,*,#208,.T.);
#136=ORIENTED_EDGE('',*,*,#146,.T.);
#137=ORIENTED_EDGE('',*,*,#193,.F.);
#138=ORIENTED_EDGE('',*,*,#209,.F.);
#139=ORIENTED_EDGE('',*,*,#172,.T.);
#140=ORIENTED_EDGE('',*,*,#209,.T.);
#141=ORIENTED_EDGE('',*,*,#192,.F.);
#142=ORIENTED_EDGE('',*,*,#207,.F.);
#143=ORIENTED_EDGE('',*,*,#173,.F.);
#144=ORIENTED_EDGE('',*,*,#208,.F.);
#145=ORIENTED_EDGE('',*,*,#206,.T.);
#146=EDGE_CURVE('',#210,#211,#254,.T.);
#147=EDGE_CURVE('',#212,#210,#255,.T.);
#148=EDGE_CURVE('',#212,#213,#256,.T.);
#149=EDGE_CURVE('',#213,#211,#257,.T.);
#150=EDGE_CURVE('',#214,#215,#258,.T.);
#151=EDGE_CURVE('',#215,#216,#259,.T.);
#152=EDGE_CURVE('',#217,#216,#260,.T.);
#153=EDGE_CURVE('',#214,#217,#261,.T.);
#154=EDGE_CURVE('',#218,#219,#262,.T.);
#155=EDGE_CURVE('',#218,#220,#263,.T.);
#156=EDGE_CURVE('',#220,#221,#264,.T.);
#157=EDGE_CURVE('',#219,#221,#265,.T.);
#158=EDGE_CURVE('',#222,#223,#266,.T.);
#159=EDGE_CURVE('',#224,#223,#267,.T.);
#160=EDGE_CURVE('',#225,#224,#268,.T.);
#161=EDGE_CURVE('',#225,#222,#269,.T.);
#162=EDGE_CURVE('',#226,#218,#270,.T.);
#163=EDGE_CURVE('',#226,#227,#271,.T.);
#164=EDGE_CURVE('',#228,#227,#272,.T.);
#165=EDGE_CURVE('',#228,#229,#273,.T.);
#166=EDGE_CURVE('',#230,#229,#274,.T.);
#167=EDGE_CURVE('',#230,#215,#275,.T.);
#168=EDGE_CURVE('',#214,#231,#276,.T.);
#169=EDGE_CURVE('',#232,#231,#277,.T.);
#170=EDGE_CURVE('',#232,#225,#278,.T.);
#171=EDGE_CURVE('',#212,#224,#279,.T.);
#172=EDGE_CURVE('',#233,#210,#280,.T.);
#173=EDGE_CURVE('',#233,#234,#281,.T.);
#174=EDGE_CURVE('',#235,#234,#282,.T.);
#175=EDGE_CURVE('',#235,#236,#283,.T.);
#176=EDGE_CURVE('',#237,#236,#284,.T.);
#177=EDGE_CURVE('',#237,#220,#285,.T.);
#178=EDGE_CURVE('',#231,#238,#286,.T.);
#179=EDGE_CURVE('',#239,#238,#287,.T.);
#180=EDGE_CURVE('',#232,#239,#288,.T.);
#181=EDGE_CURVE('',#217,#238,#289,.T.);
#182=EDGE_CURVE('',#240,#216,#290,.T.);
#183=EDGE_CURVE('',#241,#240,#291,.T.);
#184=EDGE_CURVE('',#242,#241,#292,.T.);
#185=EDGE_CURVE('',#242,#243,#293,.T.);
#186=EDGE_CURVE('',#244,#243,#294,.T.);
#187=EDGE_CURVE('',#244,#219,#295,.T.);
#188=EDGE_CURVE('',#245,#221,#296,.T.);
#189=EDGE_CURVE('',#245,#246,#297,.T.);
#190=EDGE_CURVE('',#247,#246,#298,.T.);
#191=EDGE_CURVE('',#247,#248,#299,.T.);
#192=EDGE_CURVE('',#248,#249,#300,.T.);
#193=EDGE_CURVE('',#249,#211,#301,.T.);
#194=EDGE_CURVE('',#213,#223,#302,.T.);
#195=EDGE_CURVE('',#239,#222,#303,.T.);
#196=EDGE_CURVE('',#237,#245,#304,.T.);
#197=EDGE_CURVE('',#226,#244,#305,.T.);
#198=EDGE_CURVE('',#227,#243,#306,.T.);
#199=EDGE_CURVE('',#228,#242,#307,.T.);
#200=EDGE_CURVE('',#236,#246,#308,.T.);
#201=EDGE_CURVE('',#235,#247,#309,.T.);
#202=EDGE_CURVE('',#250,#250,#14,.T.);
#203=EDGE_CURVE('',#229,#241,#310,.T.);
#204=EDGE_CURVE('',#251,#251,#15,.T.);
#205=EDGE_CURVE('',#230,#240,#311,.T.);
#206=EDGE_CURVE('',#252,#252,#16,.F.);
#207=EDGE_CURVE('',#234,#248,#312,.T.);
#208=EDGE_CURVE('',#253,#253,#17,.T.);
#209=EDGE_CURVE('',#233,#249,#313,.T.);
#210=VERTEX_POINT('',#642);
#211=VERTEX_POINT('',#643);
#212=VERTEX_POINT('',#645);
#213=VERTEX_POINT('',#647);
#214=VERTEX_POINT('',#651);
#215=VERTEX_POINT('',#652);
#216=VERTEX_POINT('',#654);
#217=VERTEX_POINT('',#656);
#218=VERTEX_POINT('',#660);
#219=VERTEX_POINT('',#661);
#220=VERTEX_POINT('',#663);
#221=VERTEX_POINT('',#665);
#222=VERTEX_POINT('',#669);
#223=VERTEX_POINT('',#670);
#224=VERTEX_POINT('',#672);
#225=VERTEX_POINT('',#674);
#226=VERTEX_POINT('',#678);
#227=VERTEX_POINT('',#680);
#228=VERTEX_POINT('',#682);
#229=VERTEX_POINT('',#684);
#230=VERTEX_POINT('',#686);
#231=VERTEX_POINT('',#689);
#232=VERTEX_POINT('',#691);
#233=VERTEX_POINT('',#695);
#234=VERTEX_POINT('',#697);
#235=VERTEX_POINT('',#699);
#236=VERTEX_POINT('',#701);
#237=VERTEX_POINT('',#703);
#238=VERTEX_POINT('',#707);
#239=VERTEX_POINT('',#709);
#240=VERTEX_POINT('',#714);
#241=VERTEX_POINT('',#716);
#242=VERTEX_POINT('',#718);
#243=VERTEX_POINT('',#720);
#244=VERTEX_POINT('',#722);
#245=VERTEX_POINT('',#725);
#246=VERTEX_POINT('',#727);
#247=VERTEX_POINT('',#729);
#248=VERTEX_POINT('',#731);
#249=VERTEX_POINT('',#733);
#250=VERTEX_POINT('',#754);
#251=VERTEX_POINT('',#758);
#252=VERTEX_POINT('',#764);
#253=VERTEX_POINT('',#768);
#254=LINE('',#641,#314);
#255=LINE('',#644,#315);
#256=LINE('',#646,#316);
#257=LINE('',#648,#317);
#258=LINE('',#650,#318);
#259=LINE('',#653,#319);
#260=LINE('',#655,#320);
#261=LINE('',#657,#321);
#262=LINE('',#659,#322);
#263=LINE('',#662,#323);
#264=LINE('',#664,#324);
#265=LINE('',#666,#325);
#266=LINE('',#668,#326);
#267=LINE('',#671,#327);
#268=LINE('',#673,#328);
#269=LINE('',#675,#329);
#270=LINE('',#677,#330);
#271=LINE('',#679,#331);
#272=LINE('',#681,#332);
#273=LINE('',#683,#333);
#274=LINE('',#685,#334);
#275=LINE('',#687,#335);
#276=LINE('',#688,#336);
#277=LINE('',#690,#337);
#278=LINE('',#692,#338);
#279=LINE('',#693,#339);
#280=LINE('',#694,#340);
#281=LINE('',#696,#341);
#282=LINE('',#698,#342);
#283=LINE('',#700,#343);
#284=LINE('',#702,#344);
#285=LINE('',#704,#345);
#286=LINE('',#706,#346);
#287=LINE('',#708,#347);
#288=LINE('',#710,#348);
#289=LINE('',#712,#349);
#290=LINE('',#713,#350);
#291=LINE('',#715,#351);
#292=LINE('',#717,#352);
#293=LINE('',#719,#353);
#294=LINE('',#721,#354);
#295=LINE('',#723,#355);
#296=LINE('',#724,#356);
#297=LINE('',#726,#357);
#298=LINE('',#728,#358);
#299=LINE('',#730,#359);
#300=LINE('',#732,#360);
#301=LINE('',#734,#361);
#302=LINE('',#735,#362);
#303=LINE('',#736,#363);
#304=LINE('',#739,#364);
#305=LINE('',#741,#365);
#306=LINE('',#743,#366);
#307=LINE('',#746,#367);
#308=LINE('',#748,#368);
#309=LINE('',#749,#369);
#310=LINE('',#755,#370);
#311=LINE('',#759,#371);
#312=LINE('',#765,#372);
#313=LINE('',#769,#373);
#314=VECTOR('',#525,1.);
#315=VECTOR('',#526,1.);
#316=VECTOR('',#527,1.);
#317=VECTOR('',#528,1.);
#318=VECTOR('',#531,1.);
#319=VECTOR('',#532,1.);
#320=VECTOR('',#533,1.);
#321=VECTOR('',#534,1.);
#322=VECTOR('',#537,1.);
#323=VECTOR('',#538,1.);
#324=VECTOR('',#539,1.);
#325=VECTOR('',#540,1.);
#326=VECTOR('',#543,1.);
#327=VECTOR('',#544,1.);
#328=VECTOR('',#545,1.);
#329=VECTOR('',#546,1.);
#330=VECTOR('',#549,1.);
#331=VECTOR('',#550,1.);
#332=VECTOR('',#551,1.);
#333=VECTOR('',#552,1.);
#334=VECTOR('',#553,1.);
#335=VECTOR('',#554,1.);
#336=VECTOR('',#555,1.);
#337=VECTOR('',#556,1.);
#338=VECTOR('',#557,1.);
#339=VECTOR('',#558,1.);
#340=VECTOR('',#559,1.);
#341=VECTOR('',#560,1.);
#342=VECTOR('',#561,1.);
#343=VECTOR('',#562,1.);
#344=VECTOR('',#563,1.);
#345=VECTOR('',#564,1.);
#346=VECTOR('',#567,1.);
#347=VECTOR('',#568,1.);
#348=VECTOR('',#569,1.);
#349=VECTOR('',#572,1.);
#350=VECTOR('',#573,1.);
#351=VECTOR('',#574,1.);
#352=VECTOR('',#575,1.);
#353=VECTOR('',#576,1.);
#354=VECTOR('',#577,1.);
#355=VECTOR('',#578,1.);
#356=VECTOR('',#579,1.);
#357=VECTOR('',#580,1.);
#358=VECTOR('',#581,1.);
#359=VECTOR('',#582,1.);
#360=VECTOR('',#583,1.);
#361=VECTOR('',#584,1.);
#362=VECTOR('',#585,1.);
#363=VECTOR('',#586,1.);
#364=VECTOR('',#591,1.);
#365=VECTOR('',#594,1.);
#366=VECTOR('',#597,1.);
#367=VECTOR('',#602,1.);
#368=VECTOR('',#605,1.);
#369=VECTOR('',#606,1.);
#370=VECTOR('',#615,1.);
#371=VECTOR('',#620,1.);
#372=VECTOR('',#629,1.);
#373=VECTOR('',#634,1.);
#374=EDGE_LOOP('',(#18,#19,#20,#21));
#375=EDGE_LOOP('',(#22,#23,#24,#25));
#376=EDGE_LOOP('',(#26,#27,#28,#29));
#377=EDGE_LOOP('',(#30,#31,#32,#33));
#378=EDGE_LOOP('',(#34,#35,#36,#37,#38,#39,#40,#41,#42,#43,#44,#45,#46,
#47,#48,#49,#50,#51,#52,#53));
#379=EDGE_LOOP('',(#54,#55,#56,#57));
#380=EDGE_LOOP('',(#58,#59,#60,#61,#62,#63,#64,#65,#66,#67,#68,#69,#70,
#71,#72,#73,#74,#75,#76,#77));
#381=EDGE_LOOP('',(#78,#79,#80,#81));
#382=EDGE_LOOP('',(#82,#83,#84,#85));
#383=EDGE_LOOP('',(#86,#87,#88,#89));
#384=EDGE_LOOP('',(#90,#91,#92,#93));
#385=EDGE_LOOP('',(#94,#95,#96,#97));
#386=EDGE_LOOP('',(#98,#99,#100,#101));
#387=EDGE_LOOP('',(#102,#103,#104,#105));
#388=EDGE_LOOP('',(#106,#107,#108,#109));
#389=EDGE_LOOP('',(#110,#111,#112,#113));
#390=EDGE_LOOP('',(#114));
#391=EDGE_LOOP('',(#115,#116,#117,#118));
#392=EDGE_LOOP('',(#119));
#393=EDGE_LOOP('',(#120,#121,#122,#123));
#394=EDGE_LOOP('',(#124,#125,#126,#127));
#395=EDGE_LOOP('',(#128));
#396=EDGE_LOOP('',(#129));
#397=EDGE_LOOP('',(#130));
#398=EDGE_LOOP('',(#131,#132,#133,#134));
#399=EDGE_LOOP('',(#135));
#400=EDGE_LOOP('',(#136,#137,#138,#139));
#401=EDGE_LOOP('',(#140,#141,#142,#143));
#402=EDGE_LOOP('',(#144));
#403=EDGE_LOOP('',(#145));
#404=FACE_BOUND('',#374,.T.);
#405=FACE_BOUND('',#375,.T.);
#406=FACE_BOUND('',#376,.T.);
#407=FACE_BOUND('',#377,.T.);
#408=FACE_BOUND('',#378,.T.);
#409=FACE_BOUND('',#379,.T.);
#410=FACE_BOUND('',#380,.T.);
#411=FACE_BOUND('',#381,.T.);
#412=FACE_BOUND('',#382,.T.);
#413=FACE_BOUND('',#383,.T.);
#414=FACE_BOUND('',#384,.T.);
#415=FACE_BOUND('',#385,.T.);
#416=FACE_BOUND('',#386,.T.);
#417=FACE_BOUND('',#387,.T.);
#418=FACE_BOUND('',#388,.T.);
#419=FACE_BOUND('',#389,.T.);
#420=FACE_BOUND('',#390,.T.);
#421=FACE_BOUND('',#391,.T.);
#422=FACE_BOUND('',#392,.T.);
#423=FACE_BOUND('',#393,.T.);
#424=FACE_BOUND('',#394,.T.);
#425=FACE_BOUND('',#395,.T.);
#426=FACE_BOUND('',#396,.T.);
#427=FACE_BOUND('',#397,.T.);
#428=FACE_BOUND('',#398,.T.);
#429=FACE_BOUND('',#399,.T.);
#430=FACE_BOUND('',#400,.T.);
#431=FACE_BOUND('',#401,.T.);
#432=FACE_BOUND('',#402,.T.);
#433=FACE_BOUND('',#403,.T.);
#434=PLANE('',#493);
#435=PLANE('',#494);
#436=PLANE('',#495);
#437=PLANE('',#496);
#438=PLANE('',#497);
#439=PLANE('',#498);
#440=PLANE('',#499);
#441=PLANE('',#500);
#442=PLANE('',#501);
#443=PLANE('',#502);
#444=PLANE('',#503);
#445=PLANE('',#504);
#446=PLANE('',#505);
#447=PLANE('',#506);
#448=PLANE('',#507);
#449=PLANE('',#508);
#450=PLANE('',#509);
#451=PLANE('',#511);
#452=PLANE('',#513);
#453=PLANE('',#515);
#454=PLANE('',#517);
#455=PLANE('',#519);
#456=ADVANCED_FACE('',(#404),#434,.F.);
#457=ADVANCED_FACE('',(#405),#435,.T.);
#458=ADVANCED_FACE('',(#406),#436,.F.);
#459=ADVANCED_FACE('',(#407),#437,.T.);
#460=ADVANCED_FACE('',(#408),#438,.T.);
#461=ADVANCED_FACE('',(#409),#439,.F.);
#462=ADVANCED_FACE('',(#410),#440,.F.);
#463=ADVANCED_FACE('',(#411),#441,.T.);
#464=ADVANCED_FACE('',(#412),#442,.T.);
#465=ADVANCED_FACE('',(#413),#443,.F.);
#466=ADVANCED_FACE('',(#414),#444,.F.);
#467=ADVANCED_FACE('',(#415),#445,.F.);
#468=ADVANCED_FACE('',(#416),#446,.T.);
#469=ADVANCED_FACE('',(#417),#447,.F.);
#470=ADVANCED_FACE('',(#418),#448,.T.);
#471=ADVANCED_FACE('',(#419),#449,.T.);
#472=ADVANCED_FACE('',(#420,#421),#450,.T.);
#473=ADVANCED_FACE('',(#422,#423),#451,.T.);
#474=ADVANCED_FACE('',(#424),#452,.T.);
#475=ADVANCED_FACE('',(#425,#426),#12,.F.);
#476=ADVANCED_FACE('',(#427,#428),#453,.F.);
#477=ADVANCED_FACE('',(#429,#430),#454,.F.);
#478=ADVANCED_FACE('',(#431),#455,.T.);
#479=ADVANCED_FACE('',(#432,#433),#13,.F.);
#480=CLOSED_SHELL('',(#456,#457,#458,#459,#460,#461,#462,#463,#464,#465,
#466,#467,#468,#469,#470,#471,#472,#473,#474,#475,#476,#477,#478,#479));
#481=STYLED_ITEM('',(#482),#489);
#482=PRESENTATION_STYLE_ASSIGNMENT((#483));
#483=SURFACE_STYLE_USAGE(.BOTH.,#484);
#484=SURFACE_SIDE_STYLE('',(#485));
#485=SURFACE_STYLE_FILL_AREA(#486);
#486=FILL_AREA_STYLE('',(#487));
#487=FILL_AREA_STYLE_COLOUR('',#488);
#488=COLOUR_RGB('',0.615686274509804,0.811764705882353,0.929411764705882);
#489=MANIFOLD_SOLID_BREP('Part 1',#480);
#490=SHAPE_DEFINITION_REPRESENTATION(#778,#491);
#491=SHAPE_REPRESENTATION('Part 1',(#492),#773);
#492=AXIS2_PLACEMENT_3D('',#639,#521,#522);
#493=AXIS2_PLACEMENT_3D('',#640,#523,#524);
#494=AXIS2_PLACEMENT_3D('',#649,#529,#530);
#495=AXIS2_PLACEMENT_3D('',#658,#535,#536);
#496=AXIS2_PLACEMENT_3D('',#667,#541,#542);
#497=AXIS2_PLACEMENT_3D('',#676,#547,#548);
#498=AXIS2_PLACEMENT_3D('',#705,#565,#566);
#499=AXIS2_PLACEMENT_3D('',#711,#570,#571);
#500=AXIS2_PLACEMENT_3D('',#737,#587,#588);
#501=AXIS2_PLACEMENT_3D('',#738,#589,#590);
#502=AXIS2_PLACEMENT_3D('',#740,#592,#593);
#503=AXIS2_PLACEMENT_3D('',#742,#595,#596);
#504=AXIS2_PLACEMENT_3D('',#744,#598,#599);
#505=AXIS2_PLACEMENT_3D('',#745,#600,#601);
#506=AXIS2_PLACEMENT_3D('',#747,#603,#604);
#507=AXIS2_PLACEMENT_3D('',#750,#607,#608);
#508=AXIS2_PLACEMENT_3D('',#751,#609,#610);
#509=AXIS2_PLACEMENT_3D('',#752,#611,#612);
#510=AXIS2_PLACEMENT_3D('',#753,#613,#614);
#511=AXIS2_PLACEMENT_3D('',#756,#616,#617);
#512=AXIS2_PLACEMENT_3D('',#757,#618,#619);
#513=AXIS2_PLACEMENT_3D('',#760,#621,#622);
#514=AXIS2_PLACEMENT_3D('',#761,#623,#624);
#515=AXIS2_PLACEMENT_3D('',#762,#625,#626);
#516=AXIS2_PLACEMENT_3D('',#763,#627,#628);
#517=AXIS2_PLACEMENT_3D('',#766,#630,#631);
#518=AXIS2_PLACEMENT_3D('',#767,#632,#633);
#519=AXIS2_PLACEMENT_3D('',#770,#635,#636);
#520=AXIS2_PLACEMENT_3D('',#771,#637,#638);
#521=DIRECTION('',(0.,0.,1.));
#522=DIRECTION('',(1.,0.,0.));
#523=DIRECTION('',(0.,0.,1.));
#524=DIRECTION('',(0.,-1.,0.));
#525=DIRECTION('',(0.978608706276416,-0.205730406114407,0.));
#526=DIRECTION('',(5.55111512312581E-16,-1.,0.));
#527=DIRECTION('',(1.,5.55111512312581E-16,0.));
#528=DIRECTION('',(5.55111512312581E-16,-1.,0.));
#529=DIRECTION('',(0.,0.,1.));
#530=DIRECTION('',(0.,-1.,0.));
#531=DIRECTION('',(5.55111512312581E-16,-1.,0.));
#532=DIRECTION('',(0.978608706276416,-0.205730406114407,0.));
#533=DIRECTION('',(5.55111512312581E-16,-1.,0.));
#534=DIRECTION('',(1.,5.55111512312581E-16,0.));
#535=DIRECTION('',(-5.55111512312581E-16,1.,1.63442118800479E-29));
#536=DIRECTION('',(1.,5.55111512312581E-16,9.07286017429064E-45));
#537=DIRECTION('',(1.,5.55111512312581E-16,-2.26821504357272E-45));
#538=DIRECTION('',(-3.46944695195361E-16,1.61516188856092E-29,-1.));
#539=DIRECTION('',(1.,5.55111512312581E-16,-2.26821504357272E-45));
#540=DIRECTION('',(-9.07286017429064E-45,1.63442118800479E-29,-1.));
#541=DIRECTION('',(-1.13410752178633E-44,1.63442118800479E-29,-1.));
#542=DIRECTION('',(0.,1.,1.63442118800479E-29));
#543=DIRECTION('',(5.55111512312581E-16,-1.,-1.63442118800479E-29));
#544=DIRECTION('',(1.,5.55111512312581E-16,-2.26821504357262E-45));
#545=DIRECTION('',(5.55111512312581E-16,-1.,-1.63442118800479E-29));
#546=DIRECTION('',(1.,5.55111512312581E-16,-2.26821504357262E-45));
#547=DIRECTION('',(-1.,-5.55111512312581E-16,3.46944695195361E-16));
#548=DIRECTION('',(-5.55111512312581E-16,1.,0.));
#549=DIRECTION('',(-5.55111512312581E-16,1.,1.63442118800479E-29));
#550=DIRECTION('',(3.46775412582116E-16,-0.624695047554424,0.780868809443031));
#551=DIRECTION('',(-5.55111512312581E-16,1.,0.));
#552=DIRECTION('',(0.,0.,1.));
#553=DIRECTION('',(1.13174366438199E-15,-1.,0.));
#554=DIRECTION('',(0.,0.,-1.));
#555=DIRECTION('',(-3.46775412582116E-16,0.624695047554424,-0.780868809443031));
#556=DIRECTION('',(5.55111512312581E-16,-1.,-1.63442118800479E-29));
#557=DIRECTION('',(-3.46944695195361E-16,1.61516188856092E-29,-1.));
#558=DIRECTION('',(-3.46775412582116E-16,0.624695047554424,0.780868809443031));
#559=DIRECTION('',(0.,0.,1.));
#560=DIRECTION('',(1.13174366438199E-15,-1.,0.));
#561=DIRECTION('',(0.,0.,-1.));
#562=DIRECTION('',(-5.55111512312581E-16,1.,0.));
#563=DIRECTION('',(3.46775412582116E-16,-0.624695047554424,-0.780868809443031));
#564=DIRECTION('',(-5.55111512312581E-16,1.,1.63442118800479E-29));
#565=DIRECTION('',(-1.13410752178632E-44,1.63442118800479E-29,-1.));
#566=DIRECTION('',(0.,1.,1.63442118800479E-29));
#567=DIRECTION('',(1.,5.55111512312581E-16,-2.26821504357258E-45));
#568=DIRECTION('',(5.55111512312581E-16,-1.,-1.63442118800479E-29));
#569=DIRECTION('',(1.,5.55111512312581E-16,-2.26821504357258E-45));
#570=DIRECTION('',(-1.,-5.55111512312581E-16,0.));
#571=DIRECTION('',(-5.55111512312581E-16,1.,0.));
#572=DIRECTION('',(-3.46775412582116E-16,0.624695047554424,-0.780868809443031));
#573=DIRECTION('',(0.,0.,-1.));
#574=DIRECTION('',(0.,1.,0.));
#575=DIRECTION('',(0.,0.,1.));
#576=DIRECTION('',(-5.55111512312581E-16,1.,0.));
#577=DIRECTION('',(3.46775412582116E-16,-0.624695047554424,0.780868809443031));
#578=DIRECTION('',(-5.55111512312581E-16,1.,1.63442118800479E-29));
#579=DIRECTION('',(-5.55111512312581E-16,1.,1.63442118800479E-29));
#580=DIRECTION('',(3.46775412582116E-16,-0.624695047554424,-0.780868809443031));
#581=DIRECTION('',(-5.55111512312581E-16,1.,0.));
#582=DIRECTION('',(0.,0.,-1.));
#583=DIRECTION('',(0.,1.,0.));
#584=DIRECTION('',(0.,0.,1.));
#585=DIRECTION('',(-3.46775412582116E-16,0.624695047554424,0.780868809443031));
#586=DIRECTION('',(-9.07286017429064E-45,1.63442118800479E-29,-1.));
#587=DIRECTION('',(-5.55111512312581E-16,1.,1.63442118800479E-29));
#588=DIRECTION('',(1.,5.55111512312581E-16,9.07286017429064E-45));
#589=DIRECTION('',(1.13410752178634E-44,-1.63442118800479E-29,1.));
#590=DIRECTION('',(0.,-1.,-1.63442118800479E-29));
#591=DIRECTION('',(1.,5.55111512312581E-16,-2.26821504357272E-45));
#592=DIRECTION('',(1.13410752178634E-44,-1.63442118800479E-29,1.));
#593=DIRECTION('',(0.,-1.,-1.63442118800479E-29));
#594=DIRECTION('',(1.,5.55111512312581E-16,-2.26821504357272E-45));
#595=DIRECTION('',(-4.33469265727645E-16,0.780868809443031,0.624695047554424));
#596=DIRECTION('',(0.,-0.624695047554424,0.780868809443031));
#597=DIRECTION('',(1.,5.55111512312581E-16,0.));
#598=DIRECTION('',(4.33469265727645E-16,-0.780868809443031,-0.624695047554424));
#599=DIRECTION('',(0.,0.624695047554424,-0.780868809443031));
#600=DIRECTION('',(0.,0.,-1.));
#601=DIRECTION('',(0.,1.,0.));
#602=DIRECTION('',(0.978608706276416,-0.205730406114408,0.));
#603=DIRECTION('',(0.,0.,-1.));
#604=DIRECTION('',(0.,1.,0.));
#605=DIRECTION('',(1.,5.55111512312581E-16,0.));
#606=DIRECTION('',(0.978608706276416,-0.205730406114408,0.));
#607=DIRECTION('',(-4.33469265727646E-16,0.780868809443031,-0.624695047554424));
#608=DIRECTION('',(0.,0.624695047554424,0.780868809443031));
#609=DIRECTION('',(4.33469265727646E-16,-0.780868809443031,0.624695047554423));
#610=DIRECTION('',(0.,-0.624695047554424,-0.780868809443031));
#611=DIRECTION('',(-0.205730406114408,-0.978608706276416,0.));
#612=DIRECTION('',(-0.978608706276416,0.205730406114408,0.));
#613=DIRECTION('',(-0.205730406114408,-0.978608706276416,0.));
#614=DIRECTION('',(-0.978608706276416,0.205730406114408,0.));
#615=DIRECTION('',(0.978608706276416,-0.205730406114408,0.));
#616=DIRECTION('',(0.205730406114407,0.978608706276416,0.));
#617=DIRECTION('',(0.978608706276416,-0.205730406114407,0.));
#618=DIRECTION('',(0.205730406114407,0.978608706276416,0.));
#619=DIRECTION('',(0.978608706276416,-0.205730406114407,0.));
#620=DIRECTION('',(0.978608706276416,-0.205730406114407,0.));
#621=DIRECTION('',(0.,0.,1.));
#622=DIRECTION('',(1.,0.,0.));
#623=DIRECTION('',(0.205730406114407,0.978608706276416,0.));
#624=DIRECTION('',(0.978608706276416,-0.205730406114407,0.));
#625=DIRECTION('',(0.205730406114408,0.978608706276416,0.));
#626=DIRECTION('',(0.978608706276416,-0.205730406114408,0.));
#627=DIRECTION('',(0.205730406114408,0.978608706276416,0.));
#628=DIRECTION('',(0.978608706276416,-0.205730406114408,0.));
#629=DIRECTION('',(0.978608706276416,-0.205730406114408,0.));
#630=DIRECTION('',(-0.205730406114407,-0.978608706276416,0.));
#631=DIRECTION('',(-0.978608706276416,0.205730406114407,0.));
#632=DIRECTION('',(-0.205730406114407,-0.978608706276416,0.));
#633=DIRECTION('',(0.978608706276416,-0.205730406114407,0.));
#634=DIRECTION('',(0.978608706276416,-0.205730406114407,0.));
#635=DIRECTION('',(0.,0.,-1.));
#636=DIRECTION('',(1.,0.,0.));
#637=DIRECTION('',(0.205730406114407,0.978608706276416,0.));
#638=DIRECTION('',(0.978608706276416,-0.205730406114407,0.));
#639=CARTESIAN_POINT('',(0.,0.,0.));
#640=CARTESIAN_POINT('',(-0.0346571990475059,-0.0166623103060514,0.100960272636354));
#641=CARTESIAN_POINT('',(-0.0296571990475058,-0.0204612707031511,0.100960272636354));
#642=CARTESIAN_POINT('',(-0.0346571990475059,-0.0194101334876587,0.100960272636354));
#643=CARTESIAN_POINT('',(-0.0246571990475059,-0.0215124079186435,0.100960272636354));
#644=CARTESIAN_POINT('',(-0.0346571990475059,-0.0166623103060514,0.100960272636354));
#645=CARTESIAN_POINT('',(-0.0346571990475059,-0.0156623103060513,0.100960272636354));
#646=CARTESIAN_POINT('',(-0.0346571990475059,-0.0156623103060513,0.100960272636354));
#647=CARTESIAN_POINT('',(-0.0246571990475059,-0.0156623103060513,0.100960272636354));
#648=CARTESIAN_POINT('',(-0.0246571990475059,-0.0166623103060514,0.100960272636354));
#649=CARTESIAN_POINT('',(-0.0346571990475059,-0.0166623103060514,0.240960272636354));
#650=CARTESIAN_POINT('',(-0.0346571990475059,-0.0166623103060514,0.240960272636354));
#651=CARTESIAN_POINT('',(-0.0346571990475059,-0.0156623103060514,0.240960272636354));
#652=CARTESIAN_POINT('',(-0.0346571990475059,-0.0194101334876587,0.240960272636354));
#653=CARTESIAN_POINT('',(-0.0296571990475058,-0.0204612707031511,0.240960272636354));
#654=CARTESIAN_POINT('',(-0.0246571990475059,-0.0215124079186435,0.240960272636354));
#655=CARTESIAN_POINT('',(-0.0246571990475059,-0.0166623103060514,0.240960272636354));
#656=CARTESIAN_POINT('',(-0.0246571990475059,-0.0156623103060514,0.240960272636354));
#657=CARTESIAN_POINT('',(-0.0346571990475059,-0.0156623103060514,0.240960272636354));
#658=CARTESIAN_POINT('',(-0.00924932025372983,0.0243376896939487,0.178283579647541));
#659=CARTESIAN_POINT('',(-0.0296571990475058,0.0243376896939487,0.227060272636354));
#660=CARTESIAN_POINT('',(-0.0346571990475059,0.0243376896939486,0.227060272636354));
#661=CARTESIAN_POINT('',(-0.0246571990475059,0.0243376896939487,0.227060272636354));
#662=CARTESIAN_POINT('',(-0.0346571990475059,0.0243376896939486,0.170960272636354));
#663=CARTESIAN_POINT('',(-0.0346571990475059,0.0243376896939486,0.114860272636354));
#664=CARTESIAN_POINT('',(-0.0296571990475058,0.0243376896939487,0.114860272636354));
#665=CARTESIAN_POINT('',(-0.0246571990475059,0.0243376896939487,0.114860272636354));
#666=CARTESIAN_POINT('',(-0.0246571990475059,0.0243376896939487,0.170960272636354));
#667=CARTESIAN_POINT('',(-0.0296571990475058,0.0263376896939486,0.110960272636354));
#668=CARTESIAN_POINT('',(-0.0246571990475059,0.0263376896939486,0.110960272636354));
#669=CARTESIAN_POINT('',(-0.0246571990475059,0.0263376896939486,0.110960272636354));
#670=CARTESIAN_POINT('',(-0.0246571990475059,-0.00766231030605138,0.110960272636354));
#671=CARTESIAN_POINT('',(-0.0296571990475057,-0.00766231030605138,0.110960272636354));
#672=CARTESIAN_POINT('',(-0.0346571990475057,-0.00766231030605138,0.110960272636354));
#673=CARTESIAN_POINT('',(-0.0346571990475058,0.0263376896939486,0.110960272636354));
#674=CARTESIAN_POINT('',(-0.0346571990475058,0.0263376896939486,0.110960272636354));
#675=CARTESIAN_POINT('',(-0.0296571990475058,0.0263376896939486,0.110960272636354));
#676=CARTESIAN_POINT('',(-0.0346571990475059,0.0263376896939486,0.170960272636354));
#677=CARTESIAN_POINT('',(-0.0346571990475059,-0.00766231030605138,0.227060272636354));
#678=CARTESIAN_POINT('',(-0.0346571990475059,-0.00766231030605138,0.227060272636354));
#679=CARTESIAN_POINT('',(-0.0346571990475059,-0.0116623103060514,0.232060272636354));
#680=CARTESIAN_POINT('',(-0.0346571990475059,-0.0156623103060514,0.237060272636354));
#681=CARTESIAN_POINT('',(-0.0346571990475059,-0.0166623103060514,0.237060272636354));
#682=CARTESIAN_POINT('',(-0.0346571990475059,-0.0255412867887874,0.237060272636354));
#683=CARTESIAN_POINT('',(-0.0346571990475059,-0.0255412867887874,0.237060272636354));
#684=CARTESIAN_POINT('',(-0.0346571990475059,-0.0255412867887874,0.252960272636354));
#685=CARTESIAN_POINT('',(-0.0346571990475059,-0.0224757101382231,0.252960272636354));
#686=CARTESIAN_POINT('',(-0.0346571990475059,-0.0194101334876587,0.252960272636354));
#687=CARTESIAN_POINT('',(-0.0346571990475059,-0.0194101334876587,0.252960272636354));
#688=CARTESIAN_POINT('',(-0.0346571990475059,-0.0116623103060514,0.235960272636354));
#689=CARTESIAN_POINT('',(-0.0346571990475059,-0.00766231030605138,0.230960272636354));
#690=CARTESIAN_POINT('',(-0.0346571990475057,0.0263376896939486,0.230960272636354));
#691=CARTESIAN_POINT('',(-0.0346571990475057,0.0263376896939486,0.230960272636354));
#692=CARTESIAN_POINT('',(-0.0346571990475059,0.0263376896939486,0.170960272636354));
#693=CARTESIAN_POINT('',(-0.0346571990475059,-0.0116623103060513,0.105960272636354));
#694=CARTESIAN_POINT('',(-0.0346571990475059,-0.0194101334876587,0.0889602726363537));
#695=CARTESIAN_POINT('',(-0.0346571990475059,-0.0194101334876587,0.0889602726363537));
#696=CARTESIAN_POINT('',(-0.0346571990475059,-0.0224757101382231,0.0889602726363537));
#697=CARTESIAN_POINT('',(-0.0346571990475059,-0.0255412867887874,0.0889602726363537));
#698=CARTESIAN_POINT('',(-0.0346571990475059,-0.0255412867887874,0.104860272636354));
#699=CARTESIAN_POINT('',(-0.0346571990475059,-0.0255412867887874,0.104860272636354));
#700=CARTESIAN_POINT('',(-0.0346571990475059,-0.0166623103060514,0.104860272636354));
#701=CARTESIAN_POINT('',(-0.0346571990475059,-0.0156623103060513,0.104860272636354));
#702=CARTESIAN_POINT('',(-0.0346571990475059,-0.0116623103060513,0.109860272636354));
#703=CARTESIAN_POINT('',(-0.0346571990475059,-0.00766231030605138,0.114860272636354));
#704=CARTESIAN_POINT('',(-0.0346571990475059,-0.00766231030605138,0.114860272636354));
#705=CARTESIAN_POINT('',(-0.0296571990475057,0.0263376896939486,0.230960272636354));
#706=CARTESIAN_POINT('',(-0.0296571990475057,-0.00766231030605138,0.230960272636354));
#707=CARTESIAN_POINT('',(-0.0246571990475059,-0.00766231030605138,0.230960272636354));
#708=CARTESIAN_POINT('',(-0.0246571990475059,0.0263376896939486,0.230960272636354));
#709=CARTESIAN_POINT('',(-0.0246571990475059,0.0263376896939486,0.230960272636354));
#710=CARTESIAN_POINT('',(-0.0296571990475057,0.0263376896939486,0.230960272636354));
#711=CARTESIAN_POINT('',(-0.0246571990475059,0.0263376896939486,0.170960272636354));
#712=CARTESIAN_POINT('',(-0.0246571990475059,-0.0116623103060514,0.235960272636354));
#713=CARTESIAN_POINT('',(-0.0246571990475059,-0.0215124079186435,0.252960272636354));
#714=CARTESIAN_POINT('',(-0.0246571990475059,-0.0215124079186435,0.252960272636354));
#715=CARTESIAN_POINT('',(-0.0246571990475059,-0.0245779845692079,0.252960272636354));
#716=CARTESIAN_POINT('',(-0.0246571990475059,-0.0276435612197723,0.252960272636354));
#717=CARTESIAN_POINT('',(-0.0246571990475059,-0.0276435612197723,0.237060272636354));
#718=CARTESIAN_POINT('',(-0.0246571990475059,-0.0276435612197723,0.237060272636354));
#719=CARTESIAN_POINT('',(-0.0246571990475059,-0.0166623103060514,0.237060272636354));
#720=CARTESIAN_POINT('',(-0.0246571990475059,-0.0156623103060514,0.237060272636354));
#721=CARTESIAN_POINT('',(-0.0246571990475059,-0.0116623103060514,0.232060272636354));
#722=CARTESIAN_POINT('',(-0.0246571990475059,-0.00766231030605138,0.227060272636354));
#723=CARTESIAN_POINT('',(-0.0246571990475059,-0.00766231030605138,0.227060272636354));
#724=CARTESIAN_POINT('',(-0.0246571990475059,-0.00766231030605138,0.114860272636354));
#725=CARTESIAN_POINT('',(-0.0246571990475059,-0.00766231030605138,0.114860272636354));
#726=CARTESIAN_POINT('',(-0.0246571990475059,-0.0116623103060513,0.109860272636354));
#727=CARTESIAN_POINT('',(-0.0246571990475059,-0.0156623103060513,0.104860272636354));
#728=CARTESIAN_POINT('',(-0.0246571990475059,-0.0166623103060514,0.104860272636354));
#729=CARTESIAN_POINT('',(-0.0246571990475059,-0.0276435612197723,0.104860272636354));
#730=CARTESIAN_POINT('',(-0.0246571990475059,-0.0276435612197723,0.104860272636354));
#731=CARTESIAN_POINT('',(-0.0246571990475059,-0.0276435612197723,0.0889602726363537));
#732=CARTESIAN_POINT('',(-0.0246571990475059,-0.0245779845692079,0.0889602726363537));
#733=CARTESIAN_POINT('',(-0.0246571990475059,-0.0215124079186435,0.0889602726363537));
#734=CARTESIAN_POINT('',(-0.0246571990475059,-0.0215124079186435,0.0889602726363537));
#735=CARTESIAN_POINT('',(-0.0246571990475059,-0.0116623103060513,0.105960272636354));
#736=CARTESIAN_POINT('',(-0.0246571990475059,0.0263376896939486,0.170960272636354));
#737=CARTESIAN_POINT('',(-0.00924932025372983,0.0263376896939486,0.178283579647541));
#738=CARTESIAN_POINT('',(-0.0296571990475058,-0.00766231030605138,0.114860272636354));
#739=CARTESIAN_POINT('',(-0.0296571990475058,-0.00766231030605138,0.114860272636354));
#740=CARTESIAN_POINT('',(-0.0296571990475058,-0.00766231030605138,0.227060272636354));
#741=CARTESIAN_POINT('',(-0.0296571990475058,-0.00766231030605138,0.227060272636354));
#742=CARTESIAN_POINT('',(-0.0346571990475059,-0.0116623103060514,0.232060272636354));
#743=CARTESIAN_POINT('',(-0.0346571990475059,-0.0156623103060514,0.237060272636354));
#744=CARTESIAN_POINT('',(-0.0346571990475059,-0.0116623103060514,0.235960272636354));
#745=CARTESIAN_POINT('',(-0.0346571990475059,-0.0166623103060514,0.237060272636354));
#746=CARTESIAN_POINT('',(-0.0296571990475058,-0.0265924240042799,0.237060272636354));
#747=CARTESIAN_POINT('',(-0.0346571990475059,-0.0166623103060514,0.104860272636354));
#748=CARTESIAN_POINT('',(-0.0346571990475059,-0.0156623103060513,0.104860272636354));
#749=CARTESIAN_POINT('',(-0.0296571990475058,-0.0265924240042799,0.104860272636354));
#750=CARTESIAN_POINT('',(-0.0346571990475059,-0.0116623103060513,0.105960272636354));
#751=CARTESIAN_POINT('',(-0.0346571990475059,-0.0116623103060513,0.109860272636354));
#752=CARTESIAN_POINT('',(-0.0296571990475058,-0.0265924240042799,0.237060272636354));
#753=CARTESIAN_POINT('',(-0.0308915814841923,-0.0263329229408097,0.246960272636354));
#754=CARTESIAN_POINT('',(-0.0330934510733142,-0.0258700295270522,0.246960272636354));
#755=CARTESIAN_POINT('',(-0.0296571990475058,-0.0265924240042799,0.252960272636354));
#756=CARTESIAN_POINT('',(-0.0296571990475058,-0.0204612707031511,0.252960272636354));
#757=CARTESIAN_POINT('',(-0.0296571990475058,-0.0204612707031511,0.246960272636354));
#758=CARTESIAN_POINT('',(-0.0274553294583839,-0.0209241641169086,0.246960272636354));
#759=CARTESIAN_POINT('',(-0.0296571990475058,-0.0204612707031511,0.252960272636354));
#760=CARTESIAN_POINT('',(-0.00924932025373004,-0.0216529357629118,0.252960272636354));
#761=CARTESIAN_POINT('',(-0.034800459200366,-0.0449264883600616,0.246960272636354));
#762=CARTESIAN_POINT('',(-0.0296571990475058,-0.0265924240042799,0.104860272636354));
#763=CARTESIAN_POINT('',(-0.0308915814841923,-0.0263329229408097,0.0949602726363536));
#764=CARTESIAN_POINT('',(-0.0286897118950704,-0.0267958163545671,0.0949602726363536));
#765=CARTESIAN_POINT('',(-0.0296571990475058,-0.0265924240042799,0.0889602726363537));
#766=CARTESIAN_POINT('',(-0.0296571990475058,-0.0204612707031511,0.0889602726363537));
#767=CARTESIAN_POINT('',(-0.0296571990475058,-0.0204612707031511,0.0949602726363536));
#768=CARTESIAN_POINT('',(-0.0274553294583839,-0.0209241641169086,0.0949602726363536));
#769=CARTESIAN_POINT('',(-0.0296571990475058,-0.0204612707031511,0.0889602726363537));
#770=CARTESIAN_POINT('',(-0.00924932025373004,-0.0216529357629118,0.0889602726363537));
#771=CARTESIAN_POINT('',(-0.034800459200366,-0.0449264883600616,0.0949602726363536));
#772=MECHANICAL_DESIGN_GEOMETRIC_PRESENTATION_REPRESENTATION('',(#481),
#773);
#773=(
GEOMETRIC_REPRESENTATION_CONTEXT(3)
GLOBAL_UNCERTAINTY_ASSIGNED_CONTEXT((#774))
GLOBAL_UNIT_ASSIGNED_CONTEXT((#777,#776,#775))
REPRESENTATION_CONTEXT('Part 1','TOP_LEVEL_ASSEMBLY_PART')
);
#774=UNCERTAINTY_MEASURE_WITH_UNIT(LENGTH_MEASURE(1.E-8),#777,
'DISTANCE_ACCURACY_VALUE','Maximum Tolerance applied to model');
#775=(
NAMED_UNIT(*)
SI_UNIT($,.STERADIAN.)
SOLID_ANGLE_UNIT()
);
#776=(
NAMED_UNIT(*)
PLANE_ANGLE_UNIT()
SI_UNIT($,.RADIAN.)
);
#777=(
LENGTH_UNIT()
NAMED_UNIT(*)
SI_UNIT($,.METRE.)
);
#778=PRODUCT_DEFINITION_SHAPE('','',#779);
#779=PRODUCT_DEFINITION('','',#781,#780);
#780=PRODUCT_DEFINITION_CONTEXT('',#787,'design');
#781=PRODUCT_DEFINITION_FORMATION_WITH_SPECIFIED_SOURCE('','',#783,
 .NOT_KNOWN.);
#782=PRODUCT_RELATED_PRODUCT_CATEGORY('','',(#783));
#783=PRODUCT('Part 1','Part 1','Part 1',(#785));
#784=PRODUCT_CATEGORY('','');
#785=PRODUCT_CONTEXT('',#787,'mechanical');
#786=APPLICATION_PROTOCOL_DEFINITION('international standard',
'ap242_managed_model_based_3d_engineering',2011,#787);
#787=APPLICATION_CONTEXT('managed model based 3d engineering');
ENDSEC;
END-ISO-10303-21;
