ISO-10303-21;
HEADER;
/* Generated by software containing ST-Developer
 * from STEP Tools, Inc. (www.steptools.com) 
 */
/* OPTION: using custom renumber hook */

FILE_DESCRIPTION(
/* description */ ('STEP AP242',
'CAx-IF Rec.Pracs.---Representation and Presentation of Product Manufa
cturing Information (PMI)---4.0---2014-10-13',
'CAx-IF Rec.Pracs.---3D Tessellated Geometry---0.4---2014-09-14','2;1'),

/* implementation_level */ '2;1');

FILE_NAME(
/* name */ '6883f4c74addd603f7249a3b',
/* time_stamp */ '2025-07-25T21:19:04Z',
/* author */ (''),
/* organization */ (''),
/* preprocessor_version */ 'ST-DEVELOPER v20',
/* originating_system */ 'ONSHAPE BY PTC INC, 1.201',
/* authorisation */ '  ');

FILE_SCHEMA (('AP242_MANAGED_MODEL_BASED_3D_ENGINEERING_MIM_LF { 1 0 10303 442 1 1 4 }'));
ENDSEC;

DATA;
#10=SHAPE_REPRESENTATION_RELATIONSHIP('','',#688,#11);
#11=ADVANCED_BREP_SHAPE_REPRESENTATION('',(#686),#1371);
#12=(
BOUNDED_SURFACE()
B_SPLINE_SURFACE(3,2,((#1158,#1159,#1160),(#1161,#1162,#1163),(#1164,#1165,
#1166),(#1167,#1168,#1169),(#1170,#1171,#1172),(#1173,#1174,#1175),(#1176,
#1177,#1178),(#1179,#1180,#1181)),.UNSPECIFIED.,.F.,.F.,.F.)
B_SPLINE_SURFACE_WITH_KNOTS((4,1,1,1,1,4),(3,3),(0.0629239760133736,0.0684548795051806,
0.0712203312510841,0.0739857829969875,0.0795166864887945,0.0850475899806015),
(0.,1.),.UNSPECIFIED.)
GEOMETRIC_REPRESENTATION_ITEM()
RATIONAL_B_SPLINE_SURFACE(((1.,0.846466981604191,1.),(1.,0.851590958635951,
1.),(1.,0.858913545006893,1.),(1.,0.864867810472437,1.),(1.,0.867144598333397,
1.),(1.,0.861728794625542,1.),(1.,0.851694651698799,1.),(1.,0.846466981604191,
1.)))
REPRESENTATION_ITEM('')
SURFACE()
);
#13=(
BOUNDED_SURFACE()
B_SPLINE_SURFACE(3,2,((#1194,#1195,#1196),(#1197,#1198,#1199),(#1200,#1201,
#1202),(#1203,#1204,#1205),(#1206,#1207,#1208),(#1209,#1210,#1211),(#1212,
#1213,#1214)),.UNSPECIFIED.,.F.,.F.,.F.)
B_SPLINE_SURFACE_WITH_KNOTS((4,1,1,1,4),(3,3),(0.0346688897169373,0.0402272922932681,
0.0457856948695989,0.0513440974459298,0.0569025000222606),(0.,1.),
 .UNSPECIFIED.)
GEOMETRIC_REPRESENTATION_ITEM()
RATIONAL_B_SPLINE_SURFACE(((1.,0.846466981604191,1.),(1.,0.851637690263103,
1.),(1.,0.861505372605605,1.),(1.,0.868277882961235,1.),(1.,0.861535407979228,
1.),(1.,0.851638227645511,1.),(1.,0.846466981604191,1.)))
REPRESENTATION_ITEM('')
SURFACE()
);
#14=(
BOUNDED_SURFACE()
B_SPLINE_SURFACE(3,2,((#1227,#1228,#1229),(#1230,#1231,#1232),(#1233,#1234,
#1235),(#1236,#1237,#1238),(#1239,#1240,#1241),(#1242,#1243,#1244),(#1245,
#1246,#1247),(#1248,#1249,#1250)),.UNSPECIFIED.,.F.,.F.,.F.)
B_SPLINE_SURFACE_WITH_KNOTS((4,1,1,1,1,4),(3,3),(0.0629239760133736,0.0684548795051806,
0.071220331251084,0.0739857829969875,0.0795166864887945,0.0850475899806015),
(0.,1.),.UNSPECIFIED.)
GEOMETRIC_REPRESENTATION_ITEM()
RATIONAL_B_SPLINE_SURFACE(((1.,0.846466981604191,1.),(1.,0.851590958636662,
1.),(1.,0.858913545006741,1.),(1.,0.864867810472453,1.),(1.,0.867144598333454,
1.),(1.,0.861728794624956,1.),(1.,0.851694651700042,1.),(1.,0.846466981604191,
1.)))
REPRESENTATION_ITEM('')
SURFACE()
);
#15=(
BOUNDED_SURFACE()
B_SPLINE_SURFACE(3,2,((#1260,#1261,#1262),(#1263,#1264,#1265),(#1266,#1267,
#1268),(#1269,#1270,#1271),(#1272,#1273,#1274),(#1275,#1276,#1277),(#1278,
#1279,#1280),(#1281,#1282,#1283)),.UNSPECIFIED.,.F.,.F.,.F.)
B_SPLINE_SURFACE_WITH_KNOTS((4,1,1,1,1,4),(3,3),(0.0629239760133736,0.0684548795051806,
0.0712203312510841,0.0739857829969876,0.0795166864887945,0.0850475899806015),
(0.,1.),.UNSPECIFIED.)
GEOMETRIC_REPRESENTATION_ITEM()
RATIONAL_B_SPLINE_SURFACE(((1.,0.846466981604191,1.),(1.,0.851590958636256,
1.),(1.,0.858913545006828,1.),(1.,0.864867810472444,1.),(1.,0.867144598333421,
1.),(1.,0.861728794625298,1.),(1.,0.851694651699317,1.),(1.,0.846466981604191,
1.)))
REPRESENTATION_ITEM('')
SURFACE()
);
#16=(
BOUNDED_SURFACE()
B_SPLINE_SURFACE(3,2,((#1289,#1290,#1291),(#1292,#1293,#1294),(#1295,#1296,
#1297),(#1298,#1299,#1300),(#1301,#1302,#1303),(#1304,#1305,#1306),(#1307,
#1308,#1309)),.UNSPECIFIED.,.F.,.F.,.F.)
B_SPLINE_SURFACE_WITH_KNOTS((4,1,1,1,4),(3,3),(0.0346688897169374,0.0402272922932682,
0.0457856948695991,0.0513440974459299,0.0569025000222607),(0.,1.),
 .UNSPECIFIED.)
GEOMETRIC_REPRESENTATION_ITEM()
RATIONAL_B_SPLINE_SURFACE(((1.,0.846466981604191,1.),(1.,0.851637690262591,
1.),(1.,0.861505372605847,1.),(1.,0.868277882961158,1.),(1.,0.861535407979293,
1.),(1.,0.851638227645408,1.),(1.,0.846466981604191,1.)))
REPRESENTATION_ITEM('')
SURFACE()
);
#17=(
BOUNDED_SURFACE()
B_SPLINE_SURFACE(3,2,((#1315,#1316,#1317),(#1318,#1319,#1320),(#1321,#1322,
#1323),(#1324,#1325,#1326),(#1327,#1328,#1329),(#1330,#1331,#1332),(#1333,
#1334,#1335),(#1336,#1337,#1338)),.UNSPECIFIED.,.F.,.F.,.F.)
B_SPLINE_SURFACE_WITH_KNOTS((4,1,1,1,1,4),(3,3),(0.0629239760133736,0.0684548795051806,
0.071220331251084,0.0739857829969875,0.0795166864887945,0.0850475899806015),
(0.,1.),.UNSPECIFIED.)
GEOMETRIC_REPRESENTATION_ITEM()
RATIONAL_B_SPLINE_SURFACE(((1.,0.846466981604191,1.),(1.,0.851590958636459,
1.),(1.,0.858913545006782,1.),(1.,0.864867810472452,1.),(1.,0.867144598333416,
1.),(1.,0.8617287946253,1.),(1.,0.851694651699317,1.),(1.,0.846466981604191,
1.)))
REPRESENTATION_ITEM('')
SURFACE()
);
#18=SPHERICAL_SURFACE('',#703,0.005);
#19=SPHERICAL_SURFACE('',#706,0.005);
#20=SPHERICAL_SURFACE('',#719,0.005);
#21=SPHERICAL_SURFACE('',#721,0.005);
#22=SPHERICAL_SURFACE('',#724,0.005);
#23=SPHERICAL_SURFACE('',#727,0.005);
#24=SPHERICAL_SURFACE('',#742,0.005);
#25=SPHERICAL_SURFACE('',#744,0.005);
#26=SPHERICAL_SURFACE('',#746,0.005);
#27=SPHERICAL_SURFACE('',#748,0.005);
#28=SPHERICAL_SURFACE('',#756,0.005);
#29=SPHERICAL_SURFACE('',#758,0.005);
#30=CYLINDRICAL_SURFACE('',#700,0.005);
#31=CYLINDRICAL_SURFACE('',#709,0.005);
#32=CYLINDRICAL_SURFACE('',#711,0.005);
#33=CYLINDRICAL_SURFACE('',#713,0.005);
#34=CYLINDRICAL_SURFACE('',#715,0.005);
#35=CYLINDRICAL_SURFACE('',#730,0.005);
#36=CYLINDRICAL_SURFACE('',#732,0.005);
#37=CYLINDRICAL_SURFACE('',#734,0.005);
#38=CYLINDRICAL_SURFACE('',#737,0.005);
#39=CYLINDRICAL_SURFACE('',#739,0.005);
#40=CYLINDRICAL_SURFACE('',#751,0.005);
#41=CYLINDRICAL_SURFACE('',#753,0.005);
#42=CYLINDRICAL_SURFACE('',#768,0.00659999999999971);
#43=LINE('',#1026,#85);
#44=LINE('',#1029,#86);
#45=LINE('',#1031,#87);
#46=LINE('',#1033,#88);
#47=LINE('',#1035,#89);
#48=LINE('',#1037,#90);
#49=LINE('',#1039,#91);
#50=LINE('',#1042,#92);
#51=LINE('',#1052,#93);
#52=LINE('',#1054,#94);
#53=LINE('',#1057,#95);
#54=LINE('',#1067,#96);
#55=LINE('',#1069,#97);
#56=LINE('',#1072,#98);
#57=LINE('',#1082,#99);
#58=LINE('',#1084,#100);
#59=LINE('',#1087,#101);
#60=LINE('',#1097,#102);
#61=LINE('',#1099,#103);
#62=LINE('',#1110,#104);
#63=LINE('',#1112,#105);
#64=LINE('',#1114,#106);
#65=LINE('',#1125,#107);
#66=LINE('',#1127,#108);
#67=LINE('',#1129,#109);
#68=LINE('',#1132,#110);
#69=LINE('',#1134,#111);
#70=LINE('',#1136,#112);
#71=LINE('',#1138,#113);
#72=LINE('',#1140,#114);
#73=LINE('',#1340,#115);
#74=LINE('',#1342,#116);
#75=LINE('',#1344,#117);
#76=LINE('',#1346,#118);
#77=LINE('',#1348,#119);
#78=LINE('',#1350,#120);
#79=LINE('',#1352,#121);
#80=LINE('',#1354,#122);
#81=LINE('',#1356,#123);
#82=LINE('',#1358,#124);
#83=LINE('',#1360,#125);
#84=LINE('',#1362,#126);
#85=VECTOR('',#779,1.);
#86=VECTOR('',#780,1.);
#87=VECTOR('',#781,1.);
#88=VECTOR('',#782,1.);
#89=VECTOR('',#783,1.);
#90=VECTOR('',#784,1.);
#91=VECTOR('',#787,1.);
#92=VECTOR('',#788,1.);
#93=VECTOR('',#789,1.);
#94=VECTOR('',#792,1.);
#95=VECTOR('',#793,1.);
#96=VECTOR('',#794,1.);
#97=VECTOR('',#797,1.);
#98=VECTOR('',#798,1.);
#99=VECTOR('',#799,1.);
#100=VECTOR('',#802,1.);
#101=VECTOR('',#803,1.);
#102=VECTOR('',#804,1.);
#103=VECTOR('',#807,1.);
#104=VECTOR('',#808,1.);
#105=VECTOR('',#809,1.);
#106=VECTOR('',#812,1.);
#107=VECTOR('',#813,1.);
#108=VECTOR('',#814,1.);
#109=VECTOR('',#817,1.);
#110=VECTOR('',#818,1.);
#111=VECTOR('',#819,1.);
#112=VECTOR('',#820,1.);
#113=VECTOR('',#821,1.);
#114=VECTOR('',#822,1.);
#115=VECTOR('',#945,1.);
#116=VECTOR('',#946,1.);
#117=VECTOR('',#947,1.);
#118=VECTOR('',#950,1.);
#119=VECTOR('',#951,1.);
#120=VECTOR('',#954,1.);
#121=VECTOR('',#955,1.);
#122=VECTOR('',#958,1.);
#123=VECTOR('',#959,1.);
#124=VECTOR('',#962,1.);
#125=VECTOR('',#963,1.);
#126=VECTOR('',#966,1.);
#127=PLANE('',#692);
#128=PLANE('',#693);
#129=PLANE('',#694);
#130=PLANE('',#695);
#131=PLANE('',#696);
#132=PLANE('',#697);
#133=PLANE('',#698);
#134=PLANE('',#699);
#135=PLANE('',#760);
#136=PLANE('',#761);
#137=PLANE('',#762);
#138=PLANE('',#763);
#139=PLANE('',#764);
#140=PLANE('',#765);
#141=PLANE('',#766);
#142=PLANE('',#770);
#143=CIRCLE('',#691,0.0125);
#144=CIRCLE('',#701,0.005);
#145=CIRCLE('',#702,0.005);
#146=CIRCLE('',#704,0.005);
#147=CIRCLE('',#705,0.005);
#148=CIRCLE('',#707,0.005);
#149=CIRCLE('',#708,0.005);
#150=CIRCLE('',#710,0.005);
#151=CIRCLE('',#712,0.005);
#152=CIRCLE('',#714,0.005);
#153=CIRCLE('',#716,0.005);
#154=CIRCLE('',#717,0.005);
#155=CIRCLE('',#718,0.005);
#156=CIRCLE('',#720,0.005);
#157=CIRCLE('',#722,0.005);
#158=CIRCLE('',#723,0.005);
#159=CIRCLE('',#725,0.005);
#160=CIRCLE('',#726,0.005);
#161=CIRCLE('',#728,0.005);
#162=CIRCLE('',#729,0.005);
#163=CIRCLE('',#731,0.005);
#164=CIRCLE('',#733,0.005);
#165=CIRCLE('',#735,0.005);
#166=CIRCLE('',#736,0.005);
#167=CIRCLE('',#738,0.005);
#168=CIRCLE('',#740,0.005);
#169=CIRCLE('',#741,0.005);
#170=CIRCLE('',#743,0.005);
#171=CIRCLE('',#745,0.005);
#172=CIRCLE('',#747,0.005);
#173=CIRCLE('',#749,0.005);
#174=CIRCLE('',#750,0.005);
#175=CIRCLE('',#752,0.005);
#176=CIRCLE('',#754,0.005);
#177=CIRCLE('',#755,0.005);
#178=CIRCLE('',#757,0.005);
#179=CIRCLE('',#759,0.005);
#180=CIRCLE('',#767,0.00659999999999971);
#181=CIRCLE('',#769,0.00659999999999971);
#182=ORIENTED_EDGE('',*,*,#368,.T.);
#183=ORIENTED_EDGE('',*,*,#369,.T.);
#184=ORIENTED_EDGE('',*,*,#370,.T.);
#185=ORIENTED_EDGE('',*,*,#371,.T.);
#186=ORIENTED_EDGE('',*,*,#372,.T.);
#187=ORIENTED_EDGE('',*,*,#373,.T.);
#188=ORIENTED_EDGE('',*,*,#374,.T.);
#189=ORIENTED_EDGE('',*,*,#375,.F.);
#190=ORIENTED_EDGE('',*,*,#376,.F.);
#191=ORIENTED_EDGE('',*,*,#377,.F.);
#192=ORIENTED_EDGE('',*,*,#378,.F.);
#193=ORIENTED_EDGE('',*,*,#379,.F.);
#194=ORIENTED_EDGE('',*,*,#380,.F.);
#195=ORIENTED_EDGE('',*,*,#374,.F.);
#196=ORIENTED_EDGE('',*,*,#381,.T.);
#197=ORIENTED_EDGE('',*,*,#382,.T.);
#198=ORIENTED_EDGE('',*,*,#383,.T.);
#199=ORIENTED_EDGE('',*,*,#384,.T.);
#200=ORIENTED_EDGE('',*,*,#385,.T.);
#201=ORIENTED_EDGE('',*,*,#386,.T.);
#202=ORIENTED_EDGE('',*,*,#387,.T.);
#203=ORIENTED_EDGE('',*,*,#388,.T.);
#204=ORIENTED_EDGE('',*,*,#389,.T.);
#205=ORIENTED_EDGE('',*,*,#390,.T.);
#206=ORIENTED_EDGE('',*,*,#391,.T.);
#207=ORIENTED_EDGE('',*,*,#392,.T.);
#208=ORIENTED_EDGE('',*,*,#393,.T.);
#209=ORIENTED_EDGE('',*,*,#394,.T.);
#210=ORIENTED_EDGE('',*,*,#395,.T.);
#211=ORIENTED_EDGE('',*,*,#396,.T.);
#212=ORIENTED_EDGE('',*,*,#397,.T.);
#213=ORIENTED_EDGE('',*,*,#398,.T.);
#214=ORIENTED_EDGE('',*,*,#399,.T.);
#215=ORIENTED_EDGE('',*,*,#400,.T.);
#216=ORIENTED_EDGE('',*,*,#401,.T.);
#217=ORIENTED_EDGE('',*,*,#402,.T.);
#218=ORIENTED_EDGE('',*,*,#403,.T.);
#219=ORIENTED_EDGE('',*,*,#404,.T.);
#220=ORIENTED_EDGE('',*,*,#405,.T.);
#221=ORIENTED_EDGE('',*,*,#406,.T.);
#222=ORIENTED_EDGE('',*,*,#407,.T.);
#223=ORIENTED_EDGE('',*,*,#408,.T.);
#224=ORIENTED_EDGE('',*,*,#409,.T.);
#225=ORIENTED_EDGE('',*,*,#410,.T.);
#226=ORIENTED_EDGE('',*,*,#411,.F.);
#227=ORIENTED_EDGE('',*,*,#406,.F.);
#228=ORIENTED_EDGE('',*,*,#412,.F.);
#229=ORIENTED_EDGE('',*,*,#385,.F.);
#230=ORIENTED_EDGE('',*,*,#413,.F.);
#231=ORIENTED_EDGE('',*,*,#411,.T.);
#232=ORIENTED_EDGE('',*,*,#414,.F.);
#233=ORIENTED_EDGE('',*,*,#415,.F.);
#234=ORIENTED_EDGE('',*,*,#412,.T.);
#235=ORIENTED_EDGE('',*,*,#416,.F.);
#236=ORIENTED_EDGE('',*,*,#414,.T.);
#237=ORIENTED_EDGE('',*,*,#388,.F.);
#238=ORIENTED_EDGE('',*,*,#417,.F.);
#239=ORIENTED_EDGE('',*,*,#382,.F.);
#240=ORIENTED_EDGE('',*,*,#413,.T.);
#241=ORIENTED_EDGE('',*,*,#381,.F.);
#242=ORIENTED_EDGE('',*,*,#418,.F.);
#243=ORIENTED_EDGE('',*,*,#407,.F.);
#244=ORIENTED_EDGE('',*,*,#416,.T.);
#245=ORIENTED_EDGE('',*,*,#405,.F.);
#246=ORIENTED_EDGE('',*,*,#419,.F.);
#247=ORIENTED_EDGE('',*,*,#389,.F.);
#248=ORIENTED_EDGE('',*,*,#415,.T.);
#249=ORIENTED_EDGE('',*,*,#392,.F.);
#250=ORIENTED_EDGE('',*,*,#420,.F.);
#251=ORIENTED_EDGE('',*,*,#386,.F.);
#252=ORIENTED_EDGE('',*,*,#421,.F.);
#253=ORIENTED_EDGE('',*,*,#387,.F.);
#254=ORIENTED_EDGE('',*,*,#422,.F.);
#255=ORIENTED_EDGE('',*,*,#372,.F.);
#256=ORIENTED_EDGE('',*,*,#417,.T.);
#257=ORIENTED_EDGE('',*,*,#421,.T.);
#258=ORIENTED_EDGE('',*,*,#423,.F.);
#259=ORIENTED_EDGE('',*,*,#424,.F.);
#260=ORIENTED_EDGE('',*,*,#418,.T.);
#261=ORIENTED_EDGE('',*,*,#425,.F.);
#262=ORIENTED_EDGE('',*,*,#426,.F.);
#263=ORIENTED_EDGE('',*,*,#419,.T.);
#264=ORIENTED_EDGE('',*,*,#427,.F.);
#265=ORIENTED_EDGE('',*,*,#422,.T.);
#266=ORIENTED_EDGE('',*,*,#420,.T.);
#267=ORIENTED_EDGE('',*,*,#428,.F.);
#268=ORIENTED_EDGE('',*,*,#423,.T.);
#269=ORIENTED_EDGE('',*,*,#371,.F.);
#270=ORIENTED_EDGE('',*,*,#429,.F.);
#271=ORIENTED_EDGE('',*,*,#383,.F.);
#272=ORIENTED_EDGE('',*,*,#425,.T.);
#273=ORIENTED_EDGE('',*,*,#384,.F.);
#274=ORIENTED_EDGE('',*,*,#430,.F.);
#275=ORIENTED_EDGE('',*,*,#401,.F.);
#276=ORIENTED_EDGE('',*,*,#424,.T.);
#277=ORIENTED_EDGE('',*,*,#404,.F.);
#278=ORIENTED_EDGE('',*,*,#431,.F.);
#279=ORIENTED_EDGE('',*,*,#408,.F.);
#280=ORIENTED_EDGE('',*,*,#432,.F.);
#281=ORIENTED_EDGE('',*,*,#409,.F.);
#282=ORIENTED_EDGE('',*,*,#433,.F.);
#283=ORIENTED_EDGE('',*,*,#400,.F.);
#284=ORIENTED_EDGE('',*,*,#427,.T.);
#285=ORIENTED_EDGE('',*,*,#410,.F.);
#286=ORIENTED_EDGE('',*,*,#434,.F.);
#287=ORIENTED_EDGE('',*,*,#393,.F.);
#288=ORIENTED_EDGE('',*,*,#426,.T.);
#289=ORIENTED_EDGE('',*,*,#396,.F.);
#290=ORIENTED_EDGE('',*,*,#435,.F.);
#291=ORIENTED_EDGE('',*,*,#390,.F.);
#292=ORIENTED_EDGE('',*,*,#428,.T.);
#293=ORIENTED_EDGE('',*,*,#391,.F.);
#294=ORIENTED_EDGE('',*,*,#436,.F.);
#295=ORIENTED_EDGE('',*,*,#373,.F.);
#296=ORIENTED_EDGE('',*,*,#430,.T.);
#297=ORIENTED_EDGE('',*,*,#429,.T.);
#298=ORIENTED_EDGE('',*,*,#437,.F.);
#299=ORIENTED_EDGE('',*,*,#433,.T.);
#300=ORIENTED_EDGE('',*,*,#431,.T.);
#301=ORIENTED_EDGE('',*,*,#438,.F.);
#302=ORIENTED_EDGE('',*,*,#434,.T.);
#303=ORIENTED_EDGE('',*,*,#432,.T.);
#304=ORIENTED_EDGE('',*,*,#439,.F.);
#305=ORIENTED_EDGE('',*,*,#436,.T.);
#306=ORIENTED_EDGE('',*,*,#435,.T.);
#307=ORIENTED_EDGE('',*,*,#440,.F.);
#308=ORIENTED_EDGE('',*,*,#437,.T.);
#309=ORIENTED_EDGE('',*,*,#370,.F.);
#310=ORIENTED_EDGE('',*,*,#441,.F.);
#311=ORIENTED_EDGE('',*,*,#402,.F.);
#312=ORIENTED_EDGE('',*,*,#438,.T.);
#313=ORIENTED_EDGE('',*,*,#403,.F.);
#314=ORIENTED_EDGE('',*,*,#442,.F.);
#315=ORIENTED_EDGE('',*,*,#397,.F.);
#316=ORIENTED_EDGE('',*,*,#439,.T.);
#317=ORIENTED_EDGE('',*,*,#399,.F.);
#318=ORIENTED_EDGE('',*,*,#443,.F.);
#319=ORIENTED_EDGE('',*,*,#394,.F.);
#320=ORIENTED_EDGE('',*,*,#440,.T.);
#321=ORIENTED_EDGE('',*,*,#395,.F.);
#322=ORIENTED_EDGE('',*,*,#444,.F.);
#323=ORIENTED_EDGE('',*,*,#368,.F.);
#324=ORIENTED_EDGE('',*,*,#442,.T.);
#325=ORIENTED_EDGE('',*,*,#441,.T.);
#326=ORIENTED_EDGE('',*,*,#445,.F.);
#327=ORIENTED_EDGE('',*,*,#444,.T.);
#328=ORIENTED_EDGE('',*,*,#443,.T.);
#329=ORIENTED_EDGE('',*,*,#446,.F.);
#330=ORIENTED_EDGE('',*,*,#445,.T.);
#331=ORIENTED_EDGE('',*,*,#369,.F.);
#332=ORIENTED_EDGE('',*,*,#446,.T.);
#333=ORIENTED_EDGE('',*,*,#398,.F.);
#334=ORIENTED_EDGE('',*,*,#376,.T.);
#335=ORIENTED_EDGE('',*,*,#447,.F.);
#336=ORIENTED_EDGE('',*,*,#448,.F.);
#337=ORIENTED_EDGE('',*,*,#449,.T.);
#338=ORIENTED_EDGE('',*,*,#375,.T.);
#339=ORIENTED_EDGE('',*,*,#450,.F.);
#340=ORIENTED_EDGE('',*,*,#451,.F.);
#341=ORIENTED_EDGE('',*,*,#447,.T.);
#342=ORIENTED_EDGE('',*,*,#380,.T.);
#343=ORIENTED_EDGE('',*,*,#452,.F.);
#344=ORIENTED_EDGE('',*,*,#453,.F.);
#345=ORIENTED_EDGE('',*,*,#450,.T.);
#346=ORIENTED_EDGE('',*,*,#379,.T.);
#347=ORIENTED_EDGE('',*,*,#454,.F.);
#348=ORIENTED_EDGE('',*,*,#455,.F.);
#349=ORIENTED_EDGE('',*,*,#452,.T.);
#350=ORIENTED_EDGE('',*,*,#378,.T.);
#351=ORIENTED_EDGE('',*,*,#456,.F.);
#352=ORIENTED_EDGE('',*,*,#457,.F.);
#353=ORIENTED_EDGE('',*,*,#454,.T.);
#354=ORIENTED_EDGE('',*,*,#377,.T.);
#355=ORIENTED_EDGE('',*,*,#449,.F.);
#356=ORIENTED_EDGE('',*,*,#458,.F.);
#357=ORIENTED_EDGE('',*,*,#456,.T.);
#358=ORIENTED_EDGE('',*,*,#459,.F.);
#359=ORIENTED_EDGE('',*,*,#448,.T.);
#360=ORIENTED_EDGE('',*,*,#451,.T.);
#361=ORIENTED_EDGE('',*,*,#453,.T.);
#362=ORIENTED_EDGE('',*,*,#455,.T.);
#363=ORIENTED_EDGE('',*,*,#457,.T.);
#364=ORIENTED_EDGE('',*,*,#458,.T.);
#365=ORIENTED_EDGE('',*,*,#459,.T.);
#366=ORIENTED_EDGE('',*,*,#460,.F.);
#367=ORIENTED_EDGE('',*,*,#460,.T.);
#368=EDGE_CURVE('',#461,#462,#512,.T.);
#369=EDGE_CURVE('',#462,#463,#513,.T.);
#370=EDGE_CURVE('',#463,#464,#514,.T.);
#371=EDGE_CURVE('',#464,#465,#515,.T.);
#372=EDGE_CURVE('',#465,#466,#516,.T.);
#373=EDGE_CURVE('',#466,#461,#517,.T.);
#374=EDGE_CURVE('',#467,#467,#143,.T.);
#375=EDGE_CURVE('',#468,#469,#43,.T.);
#376=EDGE_CURVE('',#470,#468,#44,.T.);
#377=EDGE_CURVE('',#471,#470,#45,.T.);
#378=EDGE_CURVE('',#472,#471,#46,.T.);
#379=EDGE_CURVE('',#473,#472,#47,.T.);
#380=EDGE_CURVE('',#469,#473,#48,.T.);
#381=EDGE_CURVE('',#474,#475,#49,.F.);
#382=EDGE_CURVE('',#475,#476,#50,.F.);
#383=EDGE_CURVE('',#476,#477,#518,.T.);
#384=EDGE_CURVE('',#477,#474,#51,.T.);
#385=EDGE_CURVE('',#478,#479,#52,.F.);
#386=EDGE_CURVE('',#479,#480,#53,.F.);
#387=EDGE_CURVE('',#480,#481,#519,.T.);
#388=EDGE_CURVE('',#481,#478,#54,.T.);
#389=EDGE_CURVE('',#482,#483,#55,.F.);
#390=EDGE_CURVE('',#483,#484,#56,.F.);
#391=EDGE_CURVE('',#484,#485,#520,.T.);
#392=EDGE_CURVE('',#485,#482,#57,.T.);
#393=EDGE_CURVE('',#486,#487,#58,.F.);
#394=EDGE_CURVE('',#487,#488,#59,.F.);
#395=EDGE_CURVE('',#488,#489,#521,.T.);
#396=EDGE_CURVE('',#489,#486,#60,.T.);
#397=EDGE_CURVE('',#490,#491,#61,.F.);
#398=EDGE_CURVE('',#491,#492,#522,.T.);
#399=EDGE_CURVE('',#492,#493,#62,.T.);
#400=EDGE_CURVE('',#493,#490,#63,.F.);
#401=EDGE_CURVE('',#494,#495,#64,.F.);
#402=EDGE_CURVE('',#495,#496,#523,.T.);
#403=EDGE_CURVE('',#496,#497,#65,.T.);
#404=EDGE_CURVE('',#497,#494,#66,.F.);
#405=EDGE_CURVE('',#498,#499,#67,.T.);
#406=EDGE_CURVE('',#499,#500,#68,.T.);
#407=EDGE_CURVE('',#500,#501,#69,.T.);
#408=EDGE_CURVE('',#501,#502,#70,.T.);
#409=EDGE_CURVE('',#502,#503,#71,.T.);
#410=EDGE_CURVE('',#503,#498,#72,.T.);
#411=EDGE_CURVE('',#500,#478,#144,.T.);
#412=EDGE_CURVE('',#479,#499,#145,.T.);
#413=EDGE_CURVE('',#500,#475,#146,.F.);
#414=EDGE_CURVE('',#475,#478,#147,.F.);
#415=EDGE_CURVE('',#479,#482,#148,.F.);
#416=EDGE_CURVE('',#482,#499,#149,.F.);
#417=EDGE_CURVE('',#476,#481,#150,.T.);
#418=EDGE_CURVE('',#501,#474,#151,.T.);
#419=EDGE_CURVE('',#483,#498,#152,.T.);
#420=EDGE_CURVE('',#480,#485,#153,.T.);
#421=EDGE_CURVE('',#481,#465,#154,.T.);
#422=EDGE_CURVE('',#466,#480,#155,.T.);
#423=EDGE_CURVE('',#476,#465,#156,.F.);
#424=EDGE_CURVE('',#501,#494,#157,.F.);
#425=EDGE_CURVE('',#494,#474,#158,.F.);
#426=EDGE_CURVE('',#483,#486,#159,.F.);
#427=EDGE_CURVE('',#486,#498,#160,.F.);
#428=EDGE_CURVE('',#466,#485,#161,.F.);
#429=EDGE_CURVE('',#477,#464,#162,.T.);
#430=EDGE_CURVE('',#495,#477,#163,.T.);
#431=EDGE_CURVE('',#502,#497,#164,.T.);
#432=EDGE_CURVE('',#503,#493,#165,.T.);
#433=EDGE_CURVE('',#490,#502,#166,.T.);
#434=EDGE_CURVE('',#487,#503,#167,.T.);
#435=EDGE_CURVE('',#484,#489,#168,.T.);
#436=EDGE_CURVE('',#461,#484,#169,.T.);
#437=EDGE_CURVE('',#495,#464,#170,.F.);
#438=EDGE_CURVE('',#490,#497,#171,.F.);
#439=EDGE_CURVE('',#487,#493,#172,.F.);
#440=EDGE_CURVE('',#461,#489,#173,.F.);
#441=EDGE_CURVE('',#496,#463,#174,.T.);
#442=EDGE_CURVE('',#491,#496,#175,.T.);
#443=EDGE_CURVE('',#488,#492,#176,.T.);
#444=EDGE_CURVE('',#462,#488,#177,.T.);
#445=EDGE_CURVE('',#491,#463,#178,.F.);
#446=EDGE_CURVE('',#462,#492,#179,.F.);
#447=EDGE_CURVE('',#504,#468,#73,.T.);
#448=EDGE_CURVE('',#505,#504,#74,.T.);
#449=EDGE_CURVE('',#505,#470,#75,.T.);
#450=EDGE_CURVE('',#506,#469,#76,.T.);
#451=EDGE_CURVE('',#504,#506,#77,.T.);
#452=EDGE_CURVE('',#507,#473,#78,.T.);
#453=EDGE_CURVE('',#506,#507,#79,.T.);
#454=EDGE_CURVE('',#508,#472,#80,.T.);
#455=EDGE_CURVE('',#507,#508,#81,.T.);
#456=EDGE_CURVE('',#509,#471,#82,.T.);
#457=EDGE_CURVE('',#508,#509,#83,.T.);
#458=EDGE_CURVE('',#509,#505,#84,.T.);
#459=EDGE_CURVE('',#510,#510,#180,.T.);
#460=EDGE_CURVE('',#511,#511,#181,.T.);
#461=VERTEX_POINT('',#986);
#462=VERTEX_POINT('',#987);
#463=VERTEX_POINT('',#994);
#464=VERTEX_POINT('',#1001);
#465=VERTEX_POINT('',#1009);
#466=VERTEX_POINT('',#1016);
#467=VERTEX_POINT('',#1024);
#468=VERTEX_POINT('',#1027);
#469=VERTEX_POINT('',#1028);
#470=VERTEX_POINT('',#1030);
#471=VERTEX_POINT('',#1032);
#472=VERTEX_POINT('',#1034);
#473=VERTEX_POINT('',#1036);
#474=VERTEX_POINT('',#1040);
#475=VERTEX_POINT('',#1041);
#476=VERTEX_POINT('',#1043);
#477=VERTEX_POINT('',#1051);
#478=VERTEX_POINT('',#1055);
#479=VERTEX_POINT('',#1056);
#480=VERTEX_POINT('',#1058);
#481=VERTEX_POINT('',#1066);
#482=VERTEX_POINT('',#1070);
#483=VERTEX_POINT('',#1071);
#484=VERTEX_POINT('',#1073);
#485=VERTEX_POINT('',#1081);
#486=VERTEX_POINT('',#1085);
#487=VERTEX_POINT('',#1086);
#488=VERTEX_POINT('',#1088);
#489=VERTEX_POINT('',#1096);
#490=VERTEX_POINT('',#1100);
#491=VERTEX_POINT('',#1101);
#492=VERTEX_POINT('',#1109);
#493=VERTEX_POINT('',#1111);
#494=VERTEX_POINT('',#1115);
#495=VERTEX_POINT('',#1116);
#496=VERTEX_POINT('',#1124);
#497=VERTEX_POINT('',#1126);
#498=VERTEX_POINT('',#1130);
#499=VERTEX_POINT('',#1131);
#500=VERTEX_POINT('',#1133);
#501=VERTEX_POINT('',#1135);
#502=VERTEX_POINT('',#1137);
#503=VERTEX_POINT('',#1139);
#504=VERTEX_POINT('',#1341);
#505=VERTEX_POINT('',#1343);
#506=VERTEX_POINT('',#1347);
#507=VERTEX_POINT('',#1351);
#508=VERTEX_POINT('',#1355);
#509=VERTEX_POINT('',#1359);
#510=VERTEX_POINT('',#1365);
#511=VERTEX_POINT('',#1368);
#512=B_SPLINE_CURVE_WITH_KNOTS('',3,(#979,#980,#981,#982,#983,#984,#985),
 .UNSPECIFIED.,.F.,.F.,(4,1,1,1,4),(0.,0.00617140126316735,0.0123428025263347,
0.018514203789502,0.0246856050526694),.UNSPECIFIED.);
#513=B_SPLINE_CURVE_WITH_KNOTS('',3,(#988,#989,#990,#991,#992,#993),
 .UNSPECIFIED.,.F.,.F.,(4,1,1,4),(0.,0.00617404793904357,0.0123480958780871,
0.0246961917561743),.UNSPECIFIED.);
#514=B_SPLINE_CURVE_WITH_KNOTS('',3,(#995,#996,#997,#998,#999,#1000),
 .UNSPECIFIED.,.F.,.F.,(4,1,1,4),(0.,0.00617404793904357,0.0123480958780871,
0.0246961917561743),.UNSPECIFIED.);
#515=B_SPLINE_CURVE_WITH_KNOTS('',3,(#1002,#1003,#1004,#1005,#1006,#1007,
#1008),.UNSPECIFIED.,.F.,.F.,(4,1,1,1,4),(0.,0.00617140126316734,0.0123428025263347,
0.018514203789502,0.0246856050526694),.UNSPECIFIED.);
#516=B_SPLINE_CURVE_WITH_KNOTS('',3,(#1010,#1011,#1012,#1013,#1014,#1015),
 .UNSPECIFIED.,.F.,.F.,(4,1,1,4),(0.,0.00617404793904358,0.0123480958780872,
0.0246961917561743),.UNSPECIFIED.);
#517=B_SPLINE_CURVE_WITH_KNOTS('',3,(#1017,#1018,#1019,#1020,#1021,#1022),
 .UNSPECIFIED.,.F.,.F.,(4,1,1,4),(0.,0.00617404793904357,0.0123480958780871,
0.0246961917561743),.UNSPECIFIED.);
#518=B_SPLINE_CURVE_WITH_KNOTS('',3,(#1044,#1045,#1046,#1047,#1048,#1049,
#1050),.UNSPECIFIED.,.F.,.F.,(4,1,1,1,4),(0.,0.00556170886513947,0.0111234177302789,
0.0166851265954184,0.0222468354605579),.UNSPECIFIED.);
#519=B_SPLINE_CURVE_WITH_KNOTS('',3,(#1059,#1060,#1061,#1062,#1063,#1064,
#1065),.UNSPECIFIED.,.F.,.F.,(4,1,1,1,4),(0.,0.00559192652502073,0.0111838530500415,
0.0167757795750622,0.0223677061000829),.UNSPECIFIED.);
#520=B_SPLINE_CURVE_WITH_KNOTS('',3,(#1074,#1075,#1076,#1077,#1078,#1079,
#1080),.UNSPECIFIED.,.F.,.F.,(4,1,1,1,4),(0.,0.00559192652502073,0.0111838530500415,
0.0167757795750622,0.0223677061000829),.UNSPECIFIED.);
#521=B_SPLINE_CURVE_WITH_KNOTS('',3,(#1089,#1090,#1091,#1092,#1093,#1094,
#1095),.UNSPECIFIED.,.F.,.F.,(4,1,1,1,4),(0.,0.00556170886513948,0.011123417730279,
0.0166851265954184,0.0222468354605579),.UNSPECIFIED.);
#522=B_SPLINE_CURVE_WITH_KNOTS('',3,(#1102,#1103,#1104,#1105,#1106,#1107,
#1108),.UNSPECIFIED.,.F.,.F.,(4,1,1,1,4),(0.,0.00559192652502073,0.0111838530500415,
0.0167757795750622,0.0223677061000829),.UNSPECIFIED.);
#523=B_SPLINE_CURVE_WITH_KNOTS('',3,(#1117,#1118,#1119,#1120,#1121,#1122,
#1123),.UNSPECIFIED.,.F.,.F.,(4,1,1,1,4),(0.,0.00559192652502072,0.0111838530500414,
0.0167757795750622,0.0223677061000829),.UNSPECIFIED.);
#524=EDGE_LOOP('',(#182,#183,#184,#185,#186,#187));
#525=EDGE_LOOP('',(#188));
#526=EDGE_LOOP('',(#189,#190,#191,#192,#193,#194));
#527=EDGE_LOOP('',(#195));
#528=EDGE_LOOP('',(#196,#197,#198,#199));
#529=EDGE_LOOP('',(#200,#201,#202,#203));
#530=EDGE_LOOP('',(#204,#205,#206,#207));
#531=EDGE_LOOP('',(#208,#209,#210,#211));
#532=EDGE_LOOP('',(#212,#213,#214,#215));
#533=EDGE_LOOP('',(#216,#217,#218,#219));
#534=EDGE_LOOP('',(#220,#221,#222,#223,#224,#225));
#535=EDGE_LOOP('',(#226,#227,#228,#229));
#536=EDGE_LOOP('',(#230,#231,#232));
#537=EDGE_LOOP('',(#233,#234,#235));
#538=EDGE_LOOP('',(#236,#237,#238,#239));
#539=EDGE_LOOP('',(#240,#241,#242,#243));
#540=EDGE_LOOP('',(#244,#245,#246,#247));
#541=EDGE_LOOP('',(#248,#249,#250,#251));
#542=EDGE_LOOP('',(#252,#253,#254,#255));
#543=EDGE_LOOP('',(#256,#257,#258));
#544=EDGE_LOOP('',(#259,#260,#261));
#545=EDGE_LOOP('',(#262,#263,#264));
#546=EDGE_LOOP('',(#265,#266,#267));
#547=EDGE_LOOP('',(#268,#269,#270,#271));
#548=EDGE_LOOP('',(#272,#273,#274,#275));
#549=EDGE_LOOP('',(#276,#277,#278,#279));
#550=EDGE_LOOP('',(#280,#281,#282,#283));
#551=EDGE_LOOP('',(#284,#285,#286,#287));
#552=EDGE_LOOP('',(#288,#289,#290,#291));
#553=EDGE_LOOP('',(#292,#293,#294,#295));
#554=EDGE_LOOP('',(#296,#297,#298));
#555=EDGE_LOOP('',(#299,#300,#301));
#556=EDGE_LOOP('',(#302,#303,#304));
#557=EDGE_LOOP('',(#305,#306,#307));
#558=EDGE_LOOP('',(#308,#309,#310,#311));
#559=EDGE_LOOP('',(#312,#313,#314,#315));
#560=EDGE_LOOP('',(#316,#317,#318,#319));
#561=EDGE_LOOP('',(#320,#321,#322,#323));
#562=EDGE_LOOP('',(#324,#325,#326));
#563=EDGE_LOOP('',(#327,#328,#329));
#564=EDGE_LOOP('',(#330,#331,#332,#333));
#565=EDGE_LOOP('',(#334,#335,#336,#337));
#566=EDGE_LOOP('',(#338,#339,#340,#341));
#567=EDGE_LOOP('',(#342,#343,#344,#345));
#568=EDGE_LOOP('',(#346,#347,#348,#349));
#569=EDGE_LOOP('',(#350,#351,#352,#353));
#570=EDGE_LOOP('',(#354,#355,#356,#357));
#571=EDGE_LOOP('',(#358));
#572=EDGE_LOOP('',(#359,#360,#361,#362,#363,#364));
#573=EDGE_LOOP('',(#365));
#574=EDGE_LOOP('',(#366));
#575=EDGE_LOOP('',(#367));
#576=FACE_BOUND('',#524,.T.);
#577=FACE_BOUND('',#525,.T.);
#578=FACE_BOUND('',#526,.T.);
#579=FACE_BOUND('',#527,.T.);
#580=FACE_BOUND('',#528,.T.);
#581=FACE_BOUND('',#529,.T.);
#582=FACE_BOUND('',#530,.T.);
#583=FACE_BOUND('',#531,.T.);
#584=FACE_BOUND('',#532,.T.);
#585=FACE_BOUND('',#533,.T.);
#586=FACE_BOUND('',#534,.T.);
#587=FACE_BOUND('',#535,.T.);
#588=FACE_BOUND('',#536,.T.);
#589=FACE_BOUND('',#537,.T.);
#590=FACE_BOUND('',#538,.T.);
#591=FACE_BOUND('',#539,.T.);
#592=FACE_BOUND('',#540,.T.);
#593=FACE_BOUND('',#541,.T.);
#594=FACE_BOUND('',#542,.T.);
#595=FACE_BOUND('',#543,.T.);
#596=FACE_BOUND('',#544,.T.);
#597=FACE_BOUND('',#545,.T.);
#598=FACE_BOUND('',#546,.T.);
#599=FACE_BOUND('',#547,.T.);
#600=FACE_BOUND('',#548,.T.);
#601=FACE_BOUND('',#549,.T.);
#602=FACE_BOUND('',#550,.T.);
#603=FACE_BOUND('',#551,.T.);
#604=FACE_BOUND('',#552,.T.);
#605=FACE_BOUND('',#553,.T.);
#606=FACE_BOUND('',#554,.T.);
#607=FACE_BOUND('',#555,.T.);
#608=FACE_BOUND('',#556,.T.);
#609=FACE_BOUND('',#557,.T.);
#610=FACE_BOUND('',#558,.T.);
#611=FACE_BOUND('',#559,.T.);
#612=FACE_BOUND('',#560,.T.);
#613=FACE_BOUND('',#561,.T.);
#614=FACE_BOUND('',#562,.T.);
#615=FACE_BOUND('',#563,.T.);
#616=FACE_BOUND('',#564,.T.);
#617=FACE_BOUND('',#565,.T.);
#618=FACE_BOUND('',#566,.T.);
#619=FACE_BOUND('',#567,.T.);
#620=FACE_BOUND('',#568,.T.);
#621=FACE_BOUND('',#569,.T.);
#622=FACE_BOUND('',#570,.T.);
#623=FACE_BOUND('',#571,.T.);
#624=FACE_BOUND('',#572,.T.);
#625=FACE_BOUND('',#573,.T.);
#626=FACE_BOUND('',#574,.T.);
#627=FACE_BOUND('',#575,.T.);
#628=CONICAL_SURFACE('',#690,0.0125,1.0471975511966);
#629=ADVANCED_FACE('',(#576,#577),#628,.T.);
#630=ADVANCED_FACE('',(#578,#579),#127,.F.);
#631=ADVANCED_FACE('',(#580),#128,.T.);
#632=ADVANCED_FACE('',(#581),#129,.T.);
#633=ADVANCED_FACE('',(#582),#130,.T.);
#634=ADVANCED_FACE('',(#583),#131,.T.);
#635=ADVANCED_FACE('',(#584),#132,.T.);
#636=ADVANCED_FACE('',(#585),#133,.T.);
#637=ADVANCED_FACE('',(#586),#134,.T.);
#638=ADVANCED_FACE('',(#587),#30,.T.);
#639=ADVANCED_FACE('',(#588),#18,.T.);
#640=ADVANCED_FACE('',(#589),#19,.T.);
#641=ADVANCED_FACE('',(#590),#31,.T.);
#642=ADVANCED_FACE('',(#591),#32,.T.);
#643=ADVANCED_FACE('',(#592),#33,.T.);
#644=ADVANCED_FACE('',(#593),#34,.T.);
#645=ADVANCED_FACE('',(#594),#12,.T.);
#646=ADVANCED_FACE('',(#595),#20,.T.);
#647=ADVANCED_FACE('',(#596),#21,.T.);
#648=ADVANCED_FACE('',(#597),#22,.T.);
#649=ADVANCED_FACE('',(#598),#23,.T.);
#650=ADVANCED_FACE('',(#599),#13,.T.);
#651=ADVANCED_FACE('',(#600),#35,.T.);
#652=ADVANCED_FACE('',(#601),#36,.T.);
#653=ADVANCED_FACE('',(#602),#37,.T.);
#654=ADVANCED_FACE('',(#603),#38,.T.);
#655=ADVANCED_FACE('',(#604),#39,.T.);
#656=ADVANCED_FACE('',(#605),#14,.T.);
#657=ADVANCED_FACE('',(#606),#24,.T.);
#658=ADVANCED_FACE('',(#607),#25,.T.);
#659=ADVANCED_FACE('',(#608),#26,.T.);
#660=ADVANCED_FACE('',(#609),#27,.T.);
#661=ADVANCED_FACE('',(#610),#15,.T.);
#662=ADVANCED_FACE('',(#611),#40,.T.);
#663=ADVANCED_FACE('',(#612),#41,.T.);
#664=ADVANCED_FACE('',(#613),#16,.T.);
#665=ADVANCED_FACE('',(#614),#28,.T.);
#666=ADVANCED_FACE('',(#615),#29,.T.);
#667=ADVANCED_FACE('',(#616),#17,.T.);
#668=ADVANCED_FACE('',(#617),#135,.F.);
#669=ADVANCED_FACE('',(#618),#136,.F.);
#670=ADVANCED_FACE('',(#619),#137,.F.);
#671=ADVANCED_FACE('',(#620),#138,.F.);
#672=ADVANCED_FACE('',(#621),#139,.F.);
#673=ADVANCED_FACE('',(#622),#140,.F.);
#674=ADVANCED_FACE('',(#623,#624),#141,.T.);
#675=ADVANCED_FACE('',(#625,#626),#42,.F.);
#676=ADVANCED_FACE('',(#627),#142,.T.);
#677=CLOSED_SHELL('',(#629,#630,#631,#632,#633,#634,#635,#636,#637,#638,
#639,#640,#641,#642,#643,#644,#645,#646,#647,#648,#649,#650,#651,#652,#653,
#654,#655,#656,#657,#658,#659,#660,#661,#662,#663,#664,#665,#666,#667,#668,
#669,#670,#671,#672,#673,#674,#675,#676));
#678=STYLED_ITEM('',(#679),#686);
#679=PRESENTATION_STYLE_ASSIGNMENT((#680));
#680=SURFACE_STYLE_USAGE(.BOTH.,#681);
#681=SURFACE_SIDE_STYLE('',(#682));
#682=SURFACE_STYLE_FILL_AREA(#683);
#683=FILL_AREA_STYLE('',(#684));
#684=FILL_AREA_STYLE_COLOUR('',#685);
#685=COLOUR_RGB('',0.615686274509804,0.811764705882353,0.929411764705882);
#686=MANIFOLD_SOLID_BREP('Part 1',#677);
#687=SHAPE_DEFINITION_REPRESENTATION(#1376,#688);
#688=SHAPE_REPRESENTATION('Part 1',(#689),#1371);
#689=AXIS2_PLACEMENT_3D('',#977,#771,#772);
#690=AXIS2_PLACEMENT_3D('',#978,#773,#774);
#691=AXIS2_PLACEMENT_3D('',#1023,#775,#776);
#692=AXIS2_PLACEMENT_3D('',#1025,#777,#778);
#693=AXIS2_PLACEMENT_3D('',#1038,#785,#786);
#694=AXIS2_PLACEMENT_3D('',#1053,#790,#791);
#695=AXIS2_PLACEMENT_3D('',#1068,#795,#796);
#696=AXIS2_PLACEMENT_3D('',#1083,#800,#801);
#697=AXIS2_PLACEMENT_3D('',#1098,#805,#806);
#698=AXIS2_PLACEMENT_3D('',#1113,#810,#811);
#699=AXIS2_PLACEMENT_3D('',#1128,#815,#816);
#700=AXIS2_PLACEMENT_3D('',#1141,#823,#824);
#701=AXIS2_PLACEMENT_3D('',#1142,#825,#826);
#702=AXIS2_PLACEMENT_3D('',#1143,#827,#828);
#703=AXIS2_PLACEMENT_3D('',#1144,#829,#830);
#704=AXIS2_PLACEMENT_3D('',#1145,#831,#832);
#705=AXIS2_PLACEMENT_3D('',#1146,#833,#834);
#706=AXIS2_PLACEMENT_3D('',#1147,#835,#836);
#707=AXIS2_PLACEMENT_3D('',#1148,#837,#838);
#708=AXIS2_PLACEMENT_3D('',#1149,#839,#840);
#709=AXIS2_PLACEMENT_3D('',#1150,#841,#842);
#710=AXIS2_PLACEMENT_3D('',#1151,#843,#844);
#711=AXIS2_PLACEMENT_3D('',#1152,#845,#846);
#712=AXIS2_PLACEMENT_3D('',#1153,#847,#848);
#713=AXIS2_PLACEMENT_3D('',#1154,#849,#850);
#714=AXIS2_PLACEMENT_3D('',#1155,#851,#852);
#715=AXIS2_PLACEMENT_3D('',#1156,#853,#854);
#716=AXIS2_PLACEMENT_3D('',#1157,#855,#856);
#717=AXIS2_PLACEMENT_3D('',#1182,#857,#858);
#718=AXIS2_PLACEMENT_3D('',#1183,#859,#860);
#719=AXIS2_PLACEMENT_3D('',#1184,#861,#862);
#720=AXIS2_PLACEMENT_3D('',#1185,#863,#864);
#721=AXIS2_PLACEMENT_3D('',#1186,#865,#866);
#722=AXIS2_PLACEMENT_3D('',#1187,#867,#868);
#723=AXIS2_PLACEMENT_3D('',#1188,#869,#870);
#724=AXIS2_PLACEMENT_3D('',#1189,#871,#872);
#725=AXIS2_PLACEMENT_3D('',#1190,#873,#874);
#726=AXIS2_PLACEMENT_3D('',#1191,#875,#876);
#727=AXIS2_PLACEMENT_3D('',#1192,#877,#878);
#728=AXIS2_PLACEMENT_3D('',#1193,#879,#880);
#729=AXIS2_PLACEMENT_3D('',#1215,#881,#882);
#730=AXIS2_PLACEMENT_3D('',#1216,#883,#884);
#731=AXIS2_PLACEMENT_3D('',#1217,#885,#886);
#732=AXIS2_PLACEMENT_3D('',#1218,#887,#888);
#733=AXIS2_PLACEMENT_3D('',#1219,#889,#890);
#734=AXIS2_PLACEMENT_3D('',#1220,#891,#892);
#735=AXIS2_PLACEMENT_3D('',#1221,#893,#894);
#736=AXIS2_PLACEMENT_3D('',#1222,#895,#896);
#737=AXIS2_PLACEMENT_3D('',#1223,#897,#898);
#738=AXIS2_PLACEMENT_3D('',#1224,#899,#900);
#739=AXIS2_PLACEMENT_3D('',#1225,#901,#902);
#740=AXIS2_PLACEMENT_3D('',#1226,#903,#904);
#741=AXIS2_PLACEMENT_3D('',#1251,#905,#906);
#742=AXIS2_PLACEMENT_3D('',#1252,#907,#908);
#743=AXIS2_PLACEMENT_3D('',#1253,#909,#910);
#744=AXIS2_PLACEMENT_3D('',#1254,#911,#912);
#745=AXIS2_PLACEMENT_3D('',#1255,#913,#914);
#746=AXIS2_PLACEMENT_3D('',#1256,#915,#916);
#747=AXIS2_PLACEMENT_3D('',#1257,#917,#918);
#748=AXIS2_PLACEMENT_3D('',#1258,#919,#920);
#749=AXIS2_PLACEMENT_3D('',#1259,#921,#922);
#750=AXIS2_PLACEMENT_3D('',#1284,#923,#924);
#751=AXIS2_PLACEMENT_3D('',#1285,#925,#926);
#752=AXIS2_PLACEMENT_3D('',#1286,#927,#928);
#753=AXIS2_PLACEMENT_3D('',#1287,#929,#930);
#754=AXIS2_PLACEMENT_3D('',#1288,#931,#932);
#755=AXIS2_PLACEMENT_3D('',#1310,#933,#934);
#756=AXIS2_PLACEMENT_3D('',#1311,#935,#936);
#757=AXIS2_PLACEMENT_3D('',#1312,#937,#938);
#758=AXIS2_PLACEMENT_3D('',#1313,#939,#940);
#759=AXIS2_PLACEMENT_3D('',#1314,#941,#942);
#760=AXIS2_PLACEMENT_3D('',#1339,#943,#944);
#761=AXIS2_PLACEMENT_3D('',#1345,#948,#949);
#762=AXIS2_PLACEMENT_3D('',#1349,#952,#953);
#763=AXIS2_PLACEMENT_3D('',#1353,#956,#957);
#764=AXIS2_PLACEMENT_3D('',#1357,#960,#961);
#765=AXIS2_PLACEMENT_3D('',#1361,#964,#965);
#766=AXIS2_PLACEMENT_3D('',#1363,#967,#968);
#767=AXIS2_PLACEMENT_3D('',#1364,#969,#970);
#768=AXIS2_PLACEMENT_3D('',#1366,#971,#972);
#769=AXIS2_PLACEMENT_3D('',#1367,#973,#974);
#770=AXIS2_PLACEMENT_3D('',#1369,#975,#976);
#771=DIRECTION('',(0.,0.,1.));
#772=DIRECTION('',(1.,0.,0.));
#773=DIRECTION('',(2.22044604925021E-16,-1.,2.22044604925262E-16));
#774=DIRECTION('',(0.,-2.22044604925262E-16,-1.));
#775=DIRECTION('',(2.22044604925021E-16,-1.,2.22044604925262E-16));
#776=DIRECTION('',(0.,-2.22044604925262E-16,-1.));
#777=DIRECTION('',(2.22044604925021E-16,-1.,2.22044604925262E-16));
#778=DIRECTION('',(1.,2.22044604925021E-16,-4.9303806576362E-32));
#779=DIRECTION('',(-1.,-2.2204460492502E-16,3.49375488078409E-16));
#780=DIRECTION('',(-0.5,-3.03318571101066E-16,-0.866025403784439));
#781=DIRECTION('',(0.5,-8.1273966176045E-17,-0.866025403784439));
#782=DIRECTION('',(1.,2.2204460492502E-16,-3.49375488078409E-16));
#783=DIRECTION('',(0.5,3.03318571101066E-16,0.866025403784439));
#784=DIRECTION('',(-0.5,8.12739661760452E-17,0.866025403784439));
#785=DIRECTION('',(5.00771532912416E-16,-2.22044604925261E-16,-1.));
#786=DIRECTION('',(-1.,0.,-5.00771532912416E-16));
#787=DIRECTION('',(1.,2.22044604925021E-16,5.00771532912416E-16));
#788=DIRECTION('',(2.22044604925021E-16,-1.,2.22044604925262E-16));
#789=DIRECTION('',(2.22044604925021E-16,-1.,2.22044604925262E-16));
#790=DIRECTION('',(-0.866025403784438,-3.03318571100978E-16,-0.5));
#791=DIRECTION('',(-0.5,0.,0.866025403784438));
#792=DIRECTION('',(0.5,-8.12739661760449E-17,-0.866025403784438));
#793=DIRECTION('',(2.22044604925021E-16,-1.,2.22044604925262E-16));
#794=DIRECTION('',(2.2204460492502E-16,-1.,2.22044604925262E-16));
#795=DIRECTION('',(-0.866025403784439,-8.12739661757166E-17,0.5));
#796=DIRECTION('',(0.5,0.,0.866025403784439));
#797=DIRECTION('',(-0.5,-3.03318571101066E-16,-0.866025403784439));
#798=DIRECTION('',(2.22044604925021E-16,-1.,2.22044604925262E-16));
#799=DIRECTION('',(2.22044604925021E-16,-1.,2.22044604925262E-16));
#800=DIRECTION('',(-2.50385766456208E-16,2.22044604925261E-16,1.));
#801=DIRECTION('',(1.,0.,2.50385766456208E-16));
#802=DIRECTION('',(-1.,-2.22044604925021E-16,-2.50385766456208E-16));
#803=DIRECTION('',(2.22044604925021E-16,-1.,2.22044604925262E-16));
#804=DIRECTION('',(2.22044604925021E-16,-1.,2.22044604925262E-16));
#805=DIRECTION('',(0.866025403784439,3.03318571100978E-16,0.5));
#806=DIRECTION('',(0.5,0.,-0.866025403784439));
#807=DIRECTION('',(2.22044604925021E-16,-1.,2.22044604925262E-16));
#808=DIRECTION('',(2.22044604925021E-16,-1.,2.22044604925262E-16));
#809=DIRECTION('',(-0.5,8.12739661760451E-17,0.866025403784439));
#810=DIRECTION('',(0.866025403784439,8.12739661757168E-17,-0.5));
#811=DIRECTION('',(-0.5,0.,-0.866025403784439));
#812=DIRECTION('',(2.22044604925021E-16,-1.,2.22044604925262E-16));
#813=DIRECTION('',(2.22044604925021E-16,-1.,2.22044604925262E-16));
#814=DIRECTION('',(0.5,3.03318571101066E-16,0.866025403784439));
#815=DIRECTION('',(2.22044604925021E-16,-1.,2.22044604925262E-16));
#816=DIRECTION('',(1.,2.22044604925021E-16,-4.9303806576362E-32));
#817=DIRECTION('',(-0.5,-3.03318571101066E-16,-0.866025403784439));
#818=DIRECTION('',(0.5,-8.12739661760449E-17,-0.866025403784438));
#819=DIRECTION('',(1.,2.22044604925021E-16,5.00771532912416E-16));
#820=DIRECTION('',(0.5,3.03318571101066E-16,0.866025403784439));
#821=DIRECTION('',(-0.5,8.12739661760451E-17,0.866025403784439));
#822=DIRECTION('',(-1.,-2.22044604925021E-16,-2.50385766456208E-16));
#823=DIRECTION('',(0.5,-8.12739661760449E-17,-0.866025403784438));
#824=DIRECTION('',(-0.866025403784438,0.,-0.5));
#825=DIRECTION('',(0.5,1.7347234759768E-16,-0.866025403784439));
#826=DIRECTION('',(-0.866025403784439,0.,-0.5));
#827=DIRECTION('',(-0.5,-4.10953474295225E-16,0.866025403784439));
#828=DIRECTION('',(0.866025403784439,0.,0.5));
#829=DIRECTION('',(1.38777878078145E-15,-1.,-6.93889390390723E-16));
#830=DIRECTION('',(-1.,-1.38777878078145E-15,0.));
#831=DIRECTION('',(-1.,-1.38777878078144E-15,-3.46944695195362E-16));
#832=DIRECTION('',(-1.38777878078144E-15,1.,0.));
#833=DIRECTION('',(0.,-1.,0.));
#834=DIRECTION('',(-1.,0.,0.));
#835=DIRECTION('',(1.38777878078145E-15,-1.,-5.42582953883399E-17));
#836=DIRECTION('',(-1.,-1.38777878078145E-15,0.));
#837=DIRECTION('',(0.,-1.,0.));
#838=DIRECTION('',(-1.,0.,0.));
#839=DIRECTION('',(-0.5,-1.92296268638555E-16,-0.866025403784439));
#840=DIRECTION('',(-0.866025403784439,0.,0.5));
#841=DIRECTION('',(2.22044604925021E-16,-1.,2.22044604925262E-16));
#842=DIRECTION('',(0.,-2.22044604925262E-16,-1.));
#843=DIRECTION('',(-2.00308613164954E-16,1.,-3.46944695195362E-16));
#844=DIRECTION('',(0.,3.46944695195362E-16,1.));
#845=DIRECTION('',(1.,2.22044604925021E-16,5.00771532912416E-16));
#846=DIRECTION('',(5.00771532912416E-16,0.,-1.));
#847=DIRECTION('',(1.,3.46944695195362E-16,-2.77555756156289E-15));
#848=DIRECTION('',(-2.77555756156289E-15,0.,-1.));
#849=DIRECTION('',(-0.5,-3.03318571101066E-16,-0.866025403784439));
#850=DIRECTION('',(-0.866025403784439,0.,0.5));
#851=DIRECTION('',(0.5,-2.53981144299502E-16,0.866025403784439));
#852=DIRECTION('',(0.866025403784439,0.,-0.5));
#853=DIRECTION('',(2.22044604925021E-16,-1.,2.22044604925262E-16));
#854=DIRECTION('',(0.,-2.22044604925262E-16,-1.));
#855=DIRECTION('',(-2.00308613164954E-16,1.,-3.46944695195361E-16));
#856=DIRECTION('',(0.,3.46944695195361E-16,1.));
#857=DIRECTION('',(0.480384461415262,-0.277350098112614,-0.832050294337844));
#858=DIRECTION('',(-0.866025403784439,0.,-0.5));
#859=DIRECTION('',(-0.480384461415262,-0.277350098112615,0.832050294337843));
#860=DIRECTION('',(0.866025403784438,0.,0.5));
#861=DIRECTION('',(-0.25,0.866025403784438,-0.43301270189222));
#862=DIRECTION('',(0.,0.447213595499959,0.894427190999915));
#863=DIRECTION('',(-0.960768922830523,-0.277350098112615,-4.74217071665053E-16));
#864=DIRECTION('',(-0.277350098112615,0.960768922830523,0.));
#865=DIRECTION('',(3.12250225675826E-15,-1.,0.));
#866=DIRECTION('',(-1.,-3.12250225675826E-15,0.));
#867=DIRECTION('',(-0.5,-1.38777878078145E-15,-0.866025403784439));
#868=DIRECTION('',(-0.866025403784439,0.,0.5));
#869=DIRECTION('',(-8.01234452659817E-16,-1.,-2.77984042958083E-31));
#870=DIRECTION('',(-1.,8.01234452659817E-16,0.));
#871=DIRECTION('',(1.04083408558608E-15,-1.,0.));
#872=DIRECTION('',(-1.,-1.04083408558608E-15,0.));
#873=DIRECTION('',(0.,-1.,0.));
#874=DIRECTION('',(-1.,0.,0.));
#875=DIRECTION('',(-1.,-3.46944695195362E-16,-1.38777878078145E-15));
#876=DIRECTION('',(-1.38777878078145E-15,0.,1.));
#877=DIRECTION('',(-0.5,0.866025403784438,-6.21587079895066E-16));
#878=DIRECTION('',(0.866025403784438,0.5,0.));
#879=DIRECTION('',(-0.480384461415261,-0.277350098112616,-0.832050294337843));
#880=DIRECTION('',(-0.866025403784439,0.,0.5));
#881=DIRECTION('',(0.960768922830523,-0.277350098112615,4.29558826336696E-16));
#882=DIRECTION('',(-0.277350098112615,-0.960768922830523,0.));
#883=DIRECTION('',(2.22044604925021E-16,-1.,2.22044604925262E-16));
#884=DIRECTION('',(0.,-2.22044604925262E-16,-1.));
#885=DIRECTION('',(-2.00308613164954E-16,1.,-3.46944695195361E-16));
#886=DIRECTION('',(0.,3.46944695195361E-16,1.));
#887=DIRECTION('',(0.5,3.03318571101066E-16,0.866025403784439));
#888=DIRECTION('',(0.866025403784439,0.,-0.5));
#889=DIRECTION('',(0.5,1.92296268638555E-16,0.86602540378444));
#890=DIRECTION('',(0.86602540378444,0.,-0.5));
#891=DIRECTION('',(-0.5,8.12739661760451E-17,0.866025403784439));
#892=DIRECTION('',(0.866025403784439,0.,0.5));
#893=DIRECTION('',(-0.5,-1.73472347597681E-16,0.866025403784438));
#894=DIRECTION('',(0.866025403784438,0.,0.5));
#895=DIRECTION('',(0.5,3.05694027709136E-15,-0.866025403784439));
#896=DIRECTION('',(-0.866025403784439,0.,-0.5));
#897=DIRECTION('',(-1.,-2.22044604925021E-16,-2.50385766456208E-16));
#898=DIRECTION('',(-2.50385766456208E-16,0.,1.));
#899=DIRECTION('',(1.,3.46944695195361E-16,3.46944695195362E-16));
#900=DIRECTION('',(3.46944695195362E-16,0.,-1.));
#901=DIRECTION('',(2.22044604925021E-16,-1.,2.22044604925262E-16));
#902=DIRECTION('',(0.,-2.22044604925262E-16,-1.));
#903=DIRECTION('',(-2.00308613164955E-16,1.,-3.46944695195362E-16));
#904=DIRECTION('',(0.,3.46944695195362E-16,1.));
#905=DIRECTION('',(0.480384461415262,-0.277350098112614,0.832050294337843));
#906=DIRECTION('',(0.866025403784438,0.,-0.5));
#907=DIRECTION('',(0.25,0.866025403784439,-0.43301270189222));
#908=DIRECTION('',(0.,0.447213595499958,0.894427190999916));
#909=DIRECTION('',(-0.48038446141526,-0.277350098112615,-0.832050294337844));
#910=DIRECTION('',(-0.866025403784439,0.,0.5));
#911=DIRECTION('',(2.08166817117217E-15,-1.,-2.61914332814649E-15));
#912=DIRECTION('',(0.,2.61914332814649E-15,-1.));
#913=DIRECTION('',(0.,-1.,0.));
#914=DIRECTION('',(-1.,0.,0.));
#915=DIRECTION('',(3.46944695195362E-16,-1.,0.));
#916=DIRECTION('',(-1.,-3.46944695195362E-16,0.));
#917=DIRECTION('',(-4.0061722632991E-16,-1.,6.93889390390723E-16));
#918=DIRECTION('',(0.,-6.93889390390723E-16,-1.));
#919=DIRECTION('',(-0.25,0.866025403784439,0.433012701892219));
#920=DIRECTION('',(0.,-0.447213595499958,0.894427190999916));
#921=DIRECTION('',(-0.960768922830523,-0.277350098112615,-2.37108535832526E-16));
#922=DIRECTION('',(-0.277350098112615,0.960768922830523,0.));
#923=DIRECTION('',(0.480384461415261,-0.277350098112614,0.832050294337844));
#924=DIRECTION('',(0.866025403784439,0.,-0.5));
#925=DIRECTION('',(2.22044604925021E-16,-1.,2.22044604925262E-16));
#926=DIRECTION('',(0.,-2.22044604925262E-16,-1.));
#927=DIRECTION('',(-2.00308613164954E-16,1.,-3.46944695195362E-16));
#928=DIRECTION('',(0.,3.46944695195362E-16,1.));
#929=DIRECTION('',(2.22044604925021E-16,-1.,2.22044604925262E-16));
#930=DIRECTION('',(0.,-2.22044604925262E-16,-1.));
#931=DIRECTION('',(2.00308613164954E-16,1.,-3.46944695195362E-16));
#932=DIRECTION('',(0.,3.46944695195362E-16,1.));
#933=DIRECTION('',(0.960768922830523,-0.277350098112614,1.92450290504169E-16));
#934=DIRECTION('',(-0.277350098112614,-0.960768922830523,0.));
#935=DIRECTION('',(0.5,0.866025403784439,-3.07461236494064E-16));
#936=DIRECTION('',(0.866025403784439,-0.5,0.));
#937=DIRECTION('',(0.480384461415262,-0.277350098112615,-0.832050294337843));
#938=DIRECTION('',(-0.866025403784438,0.,-0.5));
#939=DIRECTION('',(0.25,0.866025403784439,0.43301270189222));
#940=DIRECTION('',(0.,-0.447213595499958,0.894427190999916));
#941=DIRECTION('',(-0.480384461415262,-0.277350098112614,0.832050294337844));
#942=DIRECTION('',(0.866025403784439,0.,0.5));
#943=DIRECTION('',(0.866025403784439,8.12739661757166E-17,-0.5));
#944=DIRECTION('',(-0.5,0.,-0.866025403784439));
#945=DIRECTION('',(-2.22044604925021E-16,1.,-2.22044604925262E-16));
#946=DIRECTION('',(-0.5,-3.03318571101066E-16,-0.866025403784439));
#947=DIRECTION('',(-2.22044604925021E-16,1.,-2.22044604925262E-16));
#948=DIRECTION('',(-3.49375488078409E-16,-2.22044604925262E-16,-1.));
#949=DIRECTION('',(-1.,0.,3.49375488078409E-16));
#950=DIRECTION('',(-2.22044604925021E-16,1.,-2.22044604925262E-16));
#951=DIRECTION('',(-1.,-2.2204460492502E-16,3.49375488078409E-16));
#952=DIRECTION('',(-0.866025403784439,-3.03318571100978E-16,-0.5));
#953=DIRECTION('',(-0.5,0.,0.866025403784439));
#954=DIRECTION('',(-2.22044604925021E-16,1.,-2.22044604925262E-16));
#955=DIRECTION('',(-0.5,8.12739661760452E-17,0.866025403784439));
#956=DIRECTION('',(-0.866025403784439,-8.12739661757167E-17,0.5));
#957=DIRECTION('',(0.5,0.,0.866025403784439));
#958=DIRECTION('',(-2.22044604925021E-16,1.,-2.22044604925262E-16));
#959=DIRECTION('',(0.5,3.03318571101066E-16,0.866025403784439));
#960=DIRECTION('',(3.49375488078409E-16,2.22044604925262E-16,1.));
#961=DIRECTION('',(1.,0.,-3.49375488078409E-16));
#962=DIRECTION('',(-2.22044604925021E-16,1.,-2.22044604925262E-16));
#963=DIRECTION('',(1.,2.2204460492502E-16,-3.49375488078409E-16));
#964=DIRECTION('',(0.866025403784439,3.03318571100978E-16,0.5));
#965=DIRECTION('',(0.5,0.,-0.866025403784439));
#966=DIRECTION('',(0.5,-8.1273966176045E-17,-0.866025403784439));
#967=DIRECTION('',(-2.22044604925021E-16,1.,-2.22044604925262E-16));
#968=DIRECTION('',(1.,2.22044604925021E-16,-4.9303806576362E-32));
#969=DIRECTION('',(-2.22044604925021E-16,1.,-2.22044604925262E-16));
#970=DIRECTION('',(0.,2.22044604925262E-16,1.));
#971=DIRECTION('',(-2.22044604925021E-16,1.,-2.22044604925262E-16));
#972=DIRECTION('',(0.,2.22044604925262E-16,1.));
#973=DIRECTION('',(-2.22044604925021E-16,1.,-2.22044604925262E-16));
#974=DIRECTION('',(0.,2.22044604925262E-16,1.));
#975=DIRECTION('',(-2.22044604925021E-16,1.,-2.22044604925262E-16));
#976=DIRECTION('',(1.,2.22044604925021E-16,-4.9303806576362E-32));
#977=CARTESIAN_POINT('',(0.,0.,0.));
#978=CARTESIAN_POINT('',(0.,-2.42861286636753E-17,7.65404249467101E-19));
#979=CARTESIAN_POINT('',(-0.0122196551146021,-0.00689316397476948,0.0211650635094596));
#980=CARTESIAN_POINT('',(-0.0102241022376663,-0.00636245359801346,0.0212557757466286));
#981=CARTESIAN_POINT('',(-0.00620253715912536,-0.00550790681812629,0.0214261554021108));
#982=CARTESIAN_POINT('',(-7.36375587784319E-6,-0.00504069249129187,0.0215368336059201));
#983=CARTESIAN_POINT('',(0.00619482370363993,-0.00550624048496445,0.0214265095515684));
#984=CARTESIAN_POINT('',(0.0102233141893635,-0.00636224401929642,0.0212558115690944));
#985=CARTESIAN_POINT('',(0.0122196551146021,-0.00689316397476946,0.0211650635094597));
#986=CARTESIAN_POINT('',(-0.0122196551146021,-0.00689316397476948,0.0211650635094596));
#987=CARTESIAN_POINT('',(0.0122196551146021,-0.00689316397476948,0.0211650635094597));
#988=CARTESIAN_POINT('',(0.0122196551146021,-0.00689316397476948,0.0211650635094597));
#989=CARTESIAN_POINT('',(0.0132980372804439,-0.00636144446528779,0.0194790202567582));
#990=CARTESIAN_POINT('',(0.0154565255691967,-0.00550717939079413,0.0160808585502778));
#991=CARTESIAN_POINT('',(0.0197255580651276,-0.00488287495328481,0.00898417212030803));
#992=CARTESIAN_POINT('',(0.0225969220193782,-0.00582946064587468,0.00355473923862379));
#993=CARTESIAN_POINT('',(0.0244393102292042,-0.00689316397476948,1.4416471332733E-17));
#994=CARTESIAN_POINT('',(0.0244393102292042,-0.00689316397476948,1.27791595544058E-17));
#995=CARTESIAN_POINT('',(0.0244393102292042,-0.00689316397476948,1.27791595544058E-17));
#996=CARTESIAN_POINT('',(0.0235183450234063,-0.00636144446528779,-0.00177692797695782));
#997=CARTESIAN_POINT('',(0.0216546948038031,-0.00550717939079413,-0.0053453145220292));
#998=CARTESIAN_POINT('',(0.0176433003207225,-0.00488287495328481,-0.0125907483280715));
#999=CARTESIAN_POINT('',(0.0143769554941666,-0.00582946064587469,-0.0177921388968056));
#1000=CARTESIAN_POINT('',(0.0122196551146021,-0.00689316397476949,-0.0211650635094597));
#1001=CARTESIAN_POINT('',(0.0122196551146021,-0.00689316397476949,-0.0211650635094596));
#1002=CARTESIAN_POINT('',(0.0122196551146021,-0.00689316397476949,-0.0211650635094596));
#1003=CARTESIAN_POINT('',(0.0102241022376663,-0.00636245359801347,-0.0212557757466286));
#1004=CARTESIAN_POINT('',(0.00620253715912537,-0.00550790681812628,-0.0214261554021108));
#1005=CARTESIAN_POINT('',(7.36375587785965E-6,-0.00504069249129189,-0.0215368336059201));
#1006=CARTESIAN_POINT('',(-0.00619482370363993,-0.00550624048496446,-0.0214265095515684));
#1007=CARTESIAN_POINT('',(-0.0102233141893634,-0.00636224401929645,-0.0212558115690944));
#1008=CARTESIAN_POINT('',(-0.012219655114602,-0.00689316397476948,-0.0211650635094597));
#1009=CARTESIAN_POINT('',(-0.012219655114602,-0.00689316397476949,-0.0211650635094597));
#1010=CARTESIAN_POINT('',(-0.012219655114602,-0.00689316397476949,-0.0211650635094597));
#1011=CARTESIAN_POINT('',(-0.0132980372804439,-0.0063614444652878,-0.0194790202567582));
#1012=CARTESIAN_POINT('',(-0.0154565255691967,-0.00550717939079414,-0.0160808585502778));
#1013=CARTESIAN_POINT('',(-0.0197255580651276,-0.00488287495328482,-0.00898417212030802));
#1014=CARTESIAN_POINT('',(-0.0225969220193782,-0.00582946064587468,-0.00355473923862379));
#1015=CARTESIAN_POINT('',(-0.0244393102292042,-0.00689316397476949,-4.79078672293659E-18));
#1016=CARTESIAN_POINT('',(-0.0244393102292042,-0.00689316397476949,-3.61040721991909E-18));
#1017=CARTESIAN_POINT('',(-0.0244393102292042,-0.00689316397476949,-3.61040721991909E-18));
#1018=CARTESIAN_POINT('',(-0.0235183450234063,-0.0063614444652878,0.00177692797695783));
#1019=CARTESIAN_POINT('',(-0.0216546948038031,-0.00550717939079414,0.00534531452202921));
#1020=CARTESIAN_POINT('',(-0.0176433003207225,-0.00488287495328481,0.0125907483280715));
#1021=CARTESIAN_POINT('',(-0.0143769554941666,-0.00582946064587469,0.0177921388968056));
#1022=CARTESIAN_POINT('',(-0.0122196551146021,-0.00689316397476949,0.0211650635094596));
#1023=CARTESIAN_POINT('',(-2.52682008699873E-34,-2.31481500634512E-17,7.65404249467101E-19));
#1024=CARTESIAN_POINT('',(-2.52682008699873E-34,-2.5923707625017E-17,-0.0125));
#1025=CARTESIAN_POINT('',(5.13992183558413E-33,-6.93889390390703E-18,0.073));
#1026=CARTESIAN_POINT('',(-8.67361737988404E-19,-2.50577336658085E-17,-0.0086));
#1027=CARTESIAN_POINT('',(0.00496521231503077,-2.39552350589486E-17,-0.0086));
#1028=CARTESIAN_POINT('',(-0.00496521231503078,-2.61602322726684E-17,-0.0086));
#1029=CARTESIAN_POINT('',(0.00744781847254617,-2.24491939543401E-17,-0.0043));
#1030=CARTESIAN_POINT('',(0.00993042463006156,-2.09431528497316E-17,-4.77048955893622E-18));
#1031=CARTESIAN_POINT('',(0.00744781847254617,-2.05396103519829E-17,0.0043));
#1032=CARTESIAN_POINT('',(0.00496521231503078,-2.01360678542341E-17,0.0086));
#1033=CARTESIAN_POINT('',(0.,-2.1238566461094E-17,0.0086));
#1034=CARTESIAN_POINT('',(-0.00496521231503078,-2.23410650679539E-17,0.0086));
#1035=CARTESIAN_POINT('',(-0.00744781847254617,-2.38471061725624E-17,0.0043));
#1036=CARTESIAN_POINT('',(-0.00993042463006156,-2.5353147277171E-17,8.67361737988404E-19));
#1037=CARTESIAN_POINT('',(-0.00744781847254617,-2.57566897749197E-17,-0.0043));
#1038=CARTESIAN_POINT('',(1.00613961606657E-17,-3.12250225675825E-17,-0.0239999999999986));
#1039=CARTESIAN_POINT('',(1.45022882591662E-17,-0.02,-0.0239999999999986));
#1040=CARTESIAN_POINT('',(0.0109696551146021,-0.02,-0.0239999999999986));
#1041=CARTESIAN_POINT('',(-0.010969655114602,-0.02,-0.0239999999999986));
#1042=CARTESIAN_POINT('',(-0.010969655114602,-3.36607753036681E-17,-0.0239999999999986));
#1043=CARTESIAN_POINT('',(-0.010969655114602,-0.0112232909936917,-0.0239999999999986));
#1044=CARTESIAN_POINT('',(-0.010969655114602,-0.0112232909936917,-0.0239999999999986));
#1045=CARTESIAN_POINT('',(-0.00918193271615986,-0.0107072199897032,-0.0239999999999986));
#1046=CARTESIAN_POINT('',(-0.00557349837248245,-0.00985131070255305,-0.0239999999999986));
#1047=CARTESIAN_POINT('',(8.02288411851031E-6,-0.00936325003757268,-0.0239999999999986));
#1048=CARTESIAN_POINT('',(0.00558200975429072,-0.00985336997156433,-0.0239999999999986));
#1049=CARTESIAN_POINT('',(0.00918304551507939,-0.0107075412270811,-0.0239999999999986));
#1050=CARTESIAN_POINT('',(0.0109696551146021,-0.0112232909936917,-0.0239999999999986));
#1051=CARTESIAN_POINT('',(0.0109696551146021,-0.0112232909936917,-0.0239999999999986));
#1052=CARTESIAN_POINT('',(0.0109696551146021,-2.8789269831497E-17,-0.0239999999999986));
#1053=CARTESIAN_POINT('',(-0.0207846096908253,-3.12250225675825E-17,-0.0119999999999993));
#1054=CARTESIAN_POINT('',(-0.0207846096908253,-0.02,-0.0119999999999993));
#1055=CARTESIAN_POINT('',(-0.0152997821335243,-0.02,-0.0214999999999986));
#1056=CARTESIAN_POINT('',(-0.0262694372481263,-0.02,-0.0025));
#1057=CARTESIAN_POINT('',(-0.0262694372481263,-3.03334751888355E-17,-0.0025));
#1058=CARTESIAN_POINT('',(-0.0262694372481263,-0.0112232909936917,-0.0025));
#1059=CARTESIAN_POINT('',(-0.0262694372481263,-0.0112232909936917,-0.0025));
#1060=CARTESIAN_POINT('',(-0.0253739021346738,-0.0107062535548711,-0.00405111231646176));
#1061=CARTESIAN_POINT('',(-0.0235617245529491,-0.00984908955513006,-0.00718989596034619));
#1062=CARTESIAN_POINT('',(-0.0207914749241712,-0.00936427697625235,-0.0119881090670383));
#1063=CARTESIAN_POINT('',(-0.0179960896592637,-0.0098514818007465,-0.0168298583725875));
#1064=CARTESIAN_POINT('',(-0.016195071770669,-0.0107063952806835,-0.019949312860974));
#1065=CARTESIAN_POINT('',(-0.0152997821335243,-0.0112232909936917,-0.0214999999999986));
#1066=CARTESIAN_POINT('',(-0.0152997821335243,-0.0112232909936917,-0.0214999999999986));
#1067=CARTESIAN_POINT('',(-0.0152997821335243,-3.21165699463296E-17,-0.0214999999999986));
#1068=CARTESIAN_POINT('',(-0.0207846096908253,-2.77555756156289E-17,0.0119999999999993));
#1069=CARTESIAN_POINT('',(-0.0207846096908253,-0.02,0.0119999999999993));
#1070=CARTESIAN_POINT('',(-0.0262694372481263,-0.02,0.0025));
#1071=CARTESIAN_POINT('',(-0.0152997821335243,-0.02,0.0214999999999986));
#1072=CARTESIAN_POINT('',(-0.0152997821335243,-2.44282755007963E-17,0.0214999999999986));
#1073=CARTESIAN_POINT('',(-0.0152997821335243,-0.0112232909936917,0.0214999999999986));
#1074=CARTESIAN_POINT('',(-0.0152997821335243,-0.0112232909936917,0.0214999999999986));
#1075=CARTESIAN_POINT('',(-0.0161953172469768,-0.0107062535548711,0.0199488876835368));
#1076=CARTESIAN_POINT('',(-0.0180074948287015,-0.00984908955513007,0.0168101040396524));
#1077=CARTESIAN_POINT('',(-0.0207777444574793,-0.00936427697625234,0.0120118909329603));
#1078=CARTESIAN_POINT('',(-0.0235731297223869,-0.0098514818007465,0.00717014162741104));
#1079=CARTESIAN_POINT('',(-0.0253741476109816,-0.0107063952806835,0.00405068713902462));
#1080=CARTESIAN_POINT('',(-0.0262694372481263,-0.0112232909936917,0.0025));
#1081=CARTESIAN_POINT('',(-0.0262694372481263,-0.0112232909936917,0.0025));
#1082=CARTESIAN_POINT('',(-0.0262694372481263,-3.10828757304615E-17,0.0025));
#1083=CARTESIAN_POINT('',(-9.02056207507913E-18,-1.7347234759768E-17,0.0239999999999986));
#1084=CARTESIAN_POINT('',(-4.57966997657872E-18,-0.02,0.0239999999999986));
#1085=CARTESIAN_POINT('',(-0.0109696551146021,-0.02,0.0239999999999986));
#1086=CARTESIAN_POINT('',(0.0109696551146021,-0.02,0.0239999999999986));
#1087=CARTESIAN_POINT('',(0.0109696551146021,-1.49114820236825E-17,0.0239999999999986));
#1088=CARTESIAN_POINT('',(0.0109696551146021,-0.0112232909936917,0.0239999999999986));
#1089=CARTESIAN_POINT('',(0.0109696551146021,-0.0112232909936917,0.0239999999999986));
#1090=CARTESIAN_POINT('',(0.00918193271615988,-0.0107072199897032,0.0239999999999986));
#1091=CARTESIAN_POINT('',(0.00557349837248246,-0.00985131070255305,0.0239999999999986));
#1092=CARTESIAN_POINT('',(-8.02288411849104E-6,-0.00936325003757266,0.0239999999999986));
#1093=CARTESIAN_POINT('',(-0.00558200975429077,-0.00985336997156433,0.0239999999999986));
#1094=CARTESIAN_POINT('',(-0.00918304551507939,-0.0107075412270811,0.0239999999999986));
#1095=CARTESIAN_POINT('',(-0.0109696551146021,-0.0112232909936917,0.0239999999999986));
#1096=CARTESIAN_POINT('',(-0.0109696551146021,-0.0112232909936917,0.0239999999999986));
#1097=CARTESIAN_POINT('',(-0.0109696551146021,-1.97829874958536E-17,0.0239999999999986));
#1098=CARTESIAN_POINT('',(0.0207846096908253,-1.7347234759768E-17,0.0119999999999993));
#1099=CARTESIAN_POINT('',(0.0262694372481263,-1.82387821385151E-17,0.0025));
#1100=CARTESIAN_POINT('',(0.0262694372481263,-0.02,0.0025));
#1101=CARTESIAN_POINT('',(0.0262694372481263,-0.0112232909936917,0.0025));
#1102=CARTESIAN_POINT('',(0.0262694372481263,-0.0112232909936917,0.0025));
#1103=CARTESIAN_POINT('',(0.0253739021346738,-0.0107062535548711,0.00405111231646176));
#1104=CARTESIAN_POINT('',(0.0235617245529491,-0.00984908955513006,0.0071898959603462));
#1105=CARTESIAN_POINT('',(0.0207914749241713,-0.00936427697625234,0.0119881090670383));
#1106=CARTESIAN_POINT('',(0.0179960896592637,-0.00985148180074648,0.0168298583725875));
#1107=CARTESIAN_POINT('',(0.016195071770669,-0.0107063952806835,0.019949312860974));
#1108=CARTESIAN_POINT('',(0.0152997821335243,-0.0112232909936917,0.0214999999999986));
#1109=CARTESIAN_POINT('',(0.0152997821335243,-0.0112232909936917,0.0214999999999986));
#1110=CARTESIAN_POINT('',(0.0152997821335243,-1.6455687381021E-17,0.0214999999999986));
#1111=CARTESIAN_POINT('',(0.0152997821335243,-0.02,0.0214999999999986));
#1112=CARTESIAN_POINT('',(0.0207846096908253,-0.02,0.0119999999999993));
#1113=CARTESIAN_POINT('',(0.0207846096908253,-2.08166817117217E-17,-0.0119999999999993));
#1114=CARTESIAN_POINT('',(0.0152997821335243,-2.41439818265543E-17,-0.0214999999999986));
#1115=CARTESIAN_POINT('',(0.0152997821335243,-0.02,-0.0214999999999986));
#1116=CARTESIAN_POINT('',(0.0152997821335243,-0.0112232909936917,-0.0214999999999986));
#1117=CARTESIAN_POINT('',(0.0152997821335243,-0.0112232909936917,-0.0214999999999986));
#1118=CARTESIAN_POINT('',(0.0161953172469768,-0.0107062535548711,-0.0199488876835368));
#1119=CARTESIAN_POINT('',(0.0180074948287015,-0.00984908955513005,-0.0168101040396524));
#1120=CARTESIAN_POINT('',(0.0207777444574794,-0.00936427697625234,-0.0120118909329603));
#1121=CARTESIAN_POINT('',(0.0235731297223869,-0.00985148180074649,-0.00717014162741104));
#1122=CARTESIAN_POINT('',(0.0253741476109816,-0.0107063952806835,-0.00405068713902461));
#1123=CARTESIAN_POINT('',(0.0262694372481263,-0.0112232909936917,-0.0025));
#1124=CARTESIAN_POINT('',(0.0262694372481263,-0.0112232909936917,-0.0025));
#1125=CARTESIAN_POINT('',(0.0262694372481263,-1.74893815968891E-17,-0.0025));
#1126=CARTESIAN_POINT('',(0.0262694372481263,-0.02,-0.0025));
#1127=CARTESIAN_POINT('',(0.0207846096908253,-0.02,-0.0119999999999993));
#1128=CARTESIAN_POINT('',(5.55111512312553E-18,-0.025,0.073));
#1129=CARTESIAN_POINT('',(0.0151554445662292,-0.025,0.06425));
#1130=CARTESIAN_POINT('',(-0.0109696551146021,-0.025,0.0189999999999986));
#1131=CARTESIAN_POINT('',(-0.0219393102292041,-0.025,1.85037170770859E-18));
#1132=CARTESIAN_POINT('',(-0.0480644099100354,-0.025,0.0452500000000012));
#1133=CARTESIAN_POINT('',(-0.010969655114602,-0.025,-0.0189999999999986));
#1134=CARTESIAN_POINT('',(5.16220961510675E-17,-0.025,-0.0189999999999985));
#1135=CARTESIAN_POINT('',(0.0109696551146021,-0.025,-0.0189999999999985));
#1136=CARTESIAN_POINT('',(0.0480644099100355,-0.025,0.0452500000000013));
#1137=CARTESIAN_POINT('',(0.0219393102292041,-0.025,4.18935719448399E-18));
#1138=CARTESIAN_POINT('',(-0.0151554445662292,-0.025,0.06425));
#1139=CARTESIAN_POINT('',(0.0109696551146021,-0.025,0.0189999999999986));
#1140=CARTESIAN_POINT('',(1.90719465117613E-17,-0.025,0.0189999999999985));
#1141=CARTESIAN_POINT('',(-0.0480644099100354,-0.02,0.0452500000000012));
#1142=CARTESIAN_POINT('',(-0.010969655114602,-0.02,-0.0189999999999986));
#1143=CARTESIAN_POINT('',(-0.0219393102292041,-0.02,-4.33680868994202E-19));
#1144=CARTESIAN_POINT('',(-0.010969655114602,-0.02,-0.0189999999999986));
#1145=CARTESIAN_POINT('',(-0.010969655114602,-0.02,-0.0189999999999986));
#1146=CARTESIAN_POINT('',(-0.010969655114602,-0.02,-0.0189999999999986));
#1147=CARTESIAN_POINT('',(-0.0219393102292041,-0.02,1.79640253290465E-18));
#1148=CARTESIAN_POINT('',(-0.0219393102292041,-0.02,2.16840434497101E-18));
#1149=CARTESIAN_POINT('',(-0.0219393102292041,-0.02,7.40148683082289E-19));
#1150=CARTESIAN_POINT('',(-0.010969655114602,-3.05999770908247E-17,-0.0189999999999986));
#1151=CARTESIAN_POINT('',(-0.010969655114602,-0.0112232909936917,-0.0189999999999986));
#1152=CARTESIAN_POINT('',(5.05118731264424E-17,-0.02,-0.0189999999999985));
#1153=CARTESIAN_POINT('',(0.0109696551146021,-0.02,-0.0189999999999985));
#1154=CARTESIAN_POINT('',(0.0151554445662292,-0.02,0.06425));
#1155=CARTESIAN_POINT('',(-0.0109696551146021,-0.02,0.0189999999999986));
#1156=CARTESIAN_POINT('',(-0.0219393102292041,-3.06765058995829E-17,-3.46944695195361E-18));
#1157=CARTESIAN_POINT('',(-0.0219393102292041,-0.0112232909936917,-2.16840434497101E-18));
#1158=CARTESIAN_POINT('',(-0.0152997821335242,-0.0112232909936917,-0.0214999999999986));
#1159=CARTESIAN_POINT('',(-0.0148636380580567,-0.00820159620117206,-0.0222554236981285));
#1160=CARTESIAN_POINT('',(-0.012219655114602,-0.0068931639747695,-0.0211650635094597));
#1161=CARTESIAN_POINT('',(-0.0161788036779365,-0.0107157876675126,-0.0199774900241289));
#1162=CARTESIAN_POINT('',(-0.0157947273709488,-0.00773350924544613,-0.020642729701791));
#1163=CARTESIAN_POINT('',(-0.0132489243539661,-0.00638566064939448,-0.0195558079862942));
#1164=CARTESIAN_POINT('',(-0.0175151912239486,-0.0100806891253778,-0.0176627988958337));
#1165=CARTESIAN_POINT('',(-0.0172283283496968,-0.00714806344163711,-0.0181596599688484));
#1166=CARTESIAN_POINT('',(-0.0148294644247489,-0.00575056210627916,-0.0170688158338332));
#1167=CARTESIAN_POINT('',(-0.0193446182519359,-0.00961333499843255,-0.0144941383346199));
#1168=CARTESIAN_POINT('',(-0.0192164870935594,-0.00671914739937543,-0.0147160680109597));
#1169=CARTESIAN_POINT('',(-0.0169728565868027,-0.00528320797953646,-0.0135620139100889));
#1170=CARTESIAN_POINT('',(-0.0212256877763124,-0.00944304500260523,-0.0112360303458304));
#1171=CARTESIAN_POINT('',(-0.0212637643066966,-0.00656350756710023,-0.0111700798606296));
#1172=CARTESIAN_POINT('',(-0.0191354910841408,-0.00511291798370288,-0.00989519760393099));
#1173=CARTESIAN_POINT('',(-0.0235438946787351,-0.00984101029645875,-0.00722077820837751));
#1174=CARTESIAN_POINT('',(-0.0237994533467656,-0.00692929010543549,-0.00677813761103336));
#1175=CARTESIAN_POINT('',(-0.0216763738961073,-0.00551088327722737,-0.00530612662083693));
#1176=CARTESIAN_POINT('',(-0.025372627092363,-0.0107055174081566,-0.00405332075452589));
#1177=CARTESIAN_POINT('',(-0.0257557653660017,-0.00772409479101235,-0.00338970579826004));
#1178=CARTESIAN_POINT('',(-0.0235425000733911,-0.00637539038989873,-0.00173032275897866));
#1179=CARTESIAN_POINT('',(-0.0262694372481264,-0.0112232909936916,-0.00249999999999989));
#1180=CARTESIAN_POINT('',(-0.0267055813235939,-0.00820159620117199,-0.00174457630186997));
#1181=CARTESIAN_POINT('',(-0.0244393102292042,-0.00689316397476942,1.2481555670842E-16));
#1182=CARTESIAN_POINT('',(-0.010969655114602,-0.0112232909936917,-0.0189999999999986));
#1183=CARTESIAN_POINT('',(-0.0219393102292041,-0.0112232909936917,-2.04473520139059E-18));
#1184=CARTESIAN_POINT('',(-0.010969655114602,-0.0112232909936917,-0.0189999999999986));
#1185=CARTESIAN_POINT('',(-0.010969655114602,-0.0112232909936917,-0.0189999999999986));
#1186=CARTESIAN_POINT('',(0.0109696551146021,-0.02,-0.0189999999999985));
#1187=CARTESIAN_POINT('',(0.0109696551146021,-0.02,-0.0189999999999985));
#1188=CARTESIAN_POINT('',(0.0109696551146021,-0.02,-0.0189999999999985));
#1189=CARTESIAN_POINT('',(-0.0109696551146021,-0.02,0.0189999999999986));
#1190=CARTESIAN_POINT('',(-0.0109696551146021,-0.02,0.0189999999999986));
#1191=CARTESIAN_POINT('',(-0.0109696551146021,-0.02,0.0189999999999986));
#1192=CARTESIAN_POINT('',(-0.0219393102292041,-0.0112232909936917,-5.02471820443765E-19));
#1193=CARTESIAN_POINT('',(-0.0219393102292041,-0.0112232909936917,4.33680868994202E-19));
#1194=CARTESIAN_POINT('',(0.0109696551146021,-0.0112232909936917,-0.0239999999999986));
#1195=CARTESIAN_POINT('',(0.0118419432655371,-0.00820159620117206,-0.0239999999999986));
#1196=CARTESIAN_POINT('',(0.0122196551146021,-0.00689316397476949,-0.0211650635094597));
#1197=CARTESIAN_POINT('',(0.00919557834471505,-0.0107111591424784,-0.0239999999999986));
#1198=CARTESIAN_POINT('',(0.00996288433774573,-0.00772926612448648,-0.0239999999999885));
#1199=CARTESIAN_POINT('',(0.0102939603625915,-0.00638103212436132,-0.0212526001920937));
#1200=CARTESIAN_POINT('',(0.00561212146059704,-0.00985847826104077,-0.0239999999999986));
#1201=CARTESIAN_POINT('',(0.00613109112562951,-0.00694533414574908,-0.0240000000000032));
#1202=CARTESIAN_POINT('',(0.00634748860231946,-0.00552835124171578,-0.0214214954959001));
#1203=CARTESIAN_POINT('',(1.23475731897613E-5,-0.00936079667928216,-0.0239999999999986));
#1204=CARTESIAN_POINT('',(1.35186916392241E-5,-0.00648837434419438,-0.0239999999999973));
#1205=CARTESIAN_POINT('',(1.40393887963738E-5,-0.00503066966056213,-0.021539122580205));
#1206=CARTESIAN_POINT('',(-0.005603981436004,-0.00985602005264126,-0.0239999999999986));
#1207=CARTESIAN_POINT('',(-0.00612247238028068,-0.00694308718488934,-0.0239999999999992));
#1208=CARTESIAN_POINT('',(-0.00633854606251785,-0.0055258930333132,-0.0214220122732203));
#1209=CARTESIAN_POINT('',(-0.0091953939681031,-0.0107111059175235,-0.0239999999999986));
#1210=CARTESIAN_POINT('',(-0.00996269023634007,-0.00772921733413549,-0.0239999999999981));
#1211=CARTESIAN_POINT('',(-0.0102937602286005,-0.00638097889941353,-0.0212526092896117));
#1212=CARTESIAN_POINT('',(-0.010969655114602,-0.0112232909936917,-0.0239999999999986));
#1213=CARTESIAN_POINT('',(-0.0118419432655371,-0.00820159620117207,-0.0239999999999986));
#1214=CARTESIAN_POINT('',(-0.012219655114602,-0.0068931639747695,-0.0211650635094597));
#1215=CARTESIAN_POINT('',(0.0109696551146021,-0.0112232909936917,-0.0189999999999985));
#1216=CARTESIAN_POINT('',(0.0109696551146021,-2.76790468068707E-17,-0.0189999999999985));
#1217=CARTESIAN_POINT('',(0.0109696551146021,-0.0112232909936917,-0.0189999999999985));
#1218=CARTESIAN_POINT('',(0.0480644099100354,-0.02,0.0452500000000013));
#1219=CARTESIAN_POINT('',(0.0219393102292041,-0.02,3.07913416985768E-18));
#1220=CARTESIAN_POINT('',(-0.0151554445662292,-0.02,0.06425));
#1221=CARTESIAN_POINT('',(0.0109696551146021,-0.02,0.0189999999999986));
#1222=CARTESIAN_POINT('',(0.0219393102292041,-0.02,1.56125112837912E-17));
#1223=CARTESIAN_POINT('',(1.79617234871362E-17,-0.02,0.0189999999999986));
#1224=CARTESIAN_POINT('',(0.0109696551146021,-0.02,0.0189999999999986));
#1225=CARTESIAN_POINT('',(-0.0109696551146021,-2.08932105204799E-17,0.0189999999999985));
#1226=CARTESIAN_POINT('',(-0.0109696551146021,-0.0112232909936917,0.0189999999999986));
#1227=CARTESIAN_POINT('',(-0.0262694372481263,-0.0112232909936917,0.00249999999999999));
#1228=CARTESIAN_POINT('',(-0.0267055813235939,-0.00820159620117206,0.00174457630187009));
#1229=CARTESIAN_POINT('',(-0.0244393102292041,-0.00689316397476949,-8.28329719652573E-18));
#1230=CARTESIAN_POINT('',(-0.0253904157037041,-0.0107157876675126,0.00402250997588704));
#1231=CARTESIAN_POINT('',(-0.0257744920106878,-0.00773350924545085,0.00335727029822313));
#1232=CARTESIAN_POINT('',(-0.0235602886846322,-0.00638566064938739,0.00169600107022364));
#1233=CARTESIAN_POINT('',(-0.0240540281577046,-0.0100806891253776,0.00633720110416044));
#1234=CARTESIAN_POINT('',(-0.024340891031957,-0.00714806344163574,0.00584034003114676));
#1235=CARTESIAN_POINT('',(-0.0221967603369953,-0.00575056210628058,0.00430828499942897));
#1236=CARTESIAN_POINT('',(-0.0222246011297138,-0.009613334998433,0.00950586166538027));
#1237=CARTESIAN_POINT('',(-0.0223527322880902,-0.00671914739937598,0.00928393198903999));
#1238=CARTESIAN_POINT('',(-0.020231476866015,-0.00528320797953644,0.00791791802391854));
#1239=CARTESIAN_POINT('',(-0.0203435316053412,-0.00944304500260275,0.0127639696541631));
#1240=CARTESIAN_POINT('',(-0.0203054550749577,-0.00656350756709833,0.0128299201393647));
#1241=CARTESIAN_POINT('',(-0.018137238042546,-0.00511291798370154,0.0116242225907853));
#1242=CARTESIAN_POINT('',(-0.0180253247028933,-0.00984101029647878,0.0167792217916596));
#1243=CARTESIAN_POINT('',(-0.0177697660348547,-0.00692929010545013,0.0172218623890022));
#1244=CARTESIAN_POINT('',(-0.0154334273973618,-0.00551088327723956,0.0161192271455843));
#1245=CARTESIAN_POINT('',(-0.0161965922893341,-0.0107055174081145,0.0199466792453921));
#1246=CARTESIAN_POINT('',(-0.0158134540157158,-0.00772409479098016,0.0206102942016551));
#1247=CARTESIAN_POINT('',(-0.0132697535027877,-0.00637539038987297,0.0195232417525723));
#1248=CARTESIAN_POINT('',(-0.0152997821335242,-0.0112232909936916,0.0214999999999987));
#1249=CARTESIAN_POINT('',(-0.0148636380580567,-0.00820159620117199,0.0222554236981286));
#1250=CARTESIAN_POINT('',(-0.012219655114602,-0.00689316397476942,0.0211650635094598));
#1251=CARTESIAN_POINT('',(-0.0109696551146021,-0.0112232909936917,0.0189999999999986));
#1252=CARTESIAN_POINT('',(0.0109696551146021,-0.0112232909936917,-0.0189999999999985));
#1253=CARTESIAN_POINT('',(0.0109696551146021,-0.0112232909936917,-0.0189999999999985));
#1254=CARTESIAN_POINT('',(0.0219393102292041,-0.02,1.71766536179679E-17));
#1255=CARTESIAN_POINT('',(0.0219393102292041,-0.02,1.69135538907739E-17));
#1256=CARTESIAN_POINT('',(0.0109696551146021,-0.02,0.0189999999999986));
#1257=CARTESIAN_POINT('',(0.0109696551146021,-0.02,0.0189999999999986));
#1258=CARTESIAN_POINT('',(-0.0109696551146021,-0.0112232909936917,0.0189999999999986));
#1259=CARTESIAN_POINT('',(-0.0109696551146021,-0.0112232909936917,0.0189999999999986));
#1260=CARTESIAN_POINT('',(0.0262694372481263,-0.0112232909936917,-0.00249999999999998));
#1261=CARTESIAN_POINT('',(0.0267055813235939,-0.00820159620117205,-0.00174457630187008));
#1262=CARTESIAN_POINT('',(0.0244393102292041,-0.00689316397476948,1.73335357406598E-17));
#1263=CARTESIAN_POINT('',(0.0253904157037042,-0.0107157876675126,-0.00402250997588674));
#1264=CARTESIAN_POINT('',(0.025774492010674,-0.00773350924543869,-0.00335727029822053));
#1265=CARTESIAN_POINT('',(0.0235602886846445,-0.00638566064939447,-0.00169600107022549));
#1266=CARTESIAN_POINT('',(0.0240540281577048,-0.0100806891253775,-0.00633720110416013));
#1267=CARTESIAN_POINT('',(0.0243408910319604,-0.00714806344163846,-0.00584034003114661));
#1268=CARTESIAN_POINT('',(0.0221967603369928,-0.00575056210627886,-0.00430828499942816));
#1269=CARTESIAN_POINT('',(0.0222246011297134,-0.00961333499843316,-0.00950586166538084));
#1270=CARTESIAN_POINT('',(0.0223527322880893,-0.00671914739937555,-0.00928393198904068));
#1271=CARTESIAN_POINT('',(0.0202314768660152,-0.00528320797953694,-0.00791791802391922));
#1272=CARTESIAN_POINT('',(0.020343531605343,-0.00944304500260189,-0.0127639696541599));
#1273=CARTESIAN_POINT('',(0.0203054550749594,-0.00656350756709812,-0.012829920139361));
#1274=CARTESIAN_POINT('',(0.0181372380425474,-0.00511291798370021,-0.0116242225907819));
#1275=CARTESIAN_POINT('',(0.0180253247028786,-0.00984101029648571,-0.016779221791685));
#1276=CARTESIAN_POINT('',(0.0177697660348448,-0.00692929010545395,-0.0172218623890293));
#1277=CARTESIAN_POINT('',(0.0154334273973481,-0.00551088327724892,-0.0161192271456109));
#1278=CARTESIAN_POINT('',(0.0161965922893651,-0.0107055174080999,-0.0199466792453385));
#1279=CARTESIAN_POINT('',(0.015813454015735,-0.00772409479097246,-0.0206102942016004));
#1280=CARTESIAN_POINT('',(0.0132697535028166,-0.00637539038985341,-0.0195232417525165));
#1281=CARTESIAN_POINT('',(0.0152997821335242,-0.0112232909936916,-0.0214999999999987));
#1282=CARTESIAN_POINT('',(0.0148636380580567,-0.00820159620117197,-0.0222554236981286));
#1283=CARTESIAN_POINT('',(0.012219655114602,-0.00689316397476941,-0.0211650635094598));
#1284=CARTESIAN_POINT('',(0.0219393102292041,-0.0112232909936917,1.47451495458029E-17));
#1285=CARTESIAN_POINT('',(0.0219393102292041,-1.78957514277677E-17,1.21430643318376E-17));
#1286=CARTESIAN_POINT('',(0.0219393102292041,-0.0112232909936917,1.38777878078145E-17));
#1287=CARTESIAN_POINT('',(0.0109696551146021,-1.79722802365259E-17,0.0189999999999986));
#1288=CARTESIAN_POINT('',(0.0109696551146021,-0.0112232909936917,0.0189999999999986));
#1289=CARTESIAN_POINT('',(-0.0109696551146021,-0.0112232909936917,0.0239999999999986));
#1290=CARTESIAN_POINT('',(-0.0118419432655371,-0.00820159620117206,0.0239999999999986));
#1291=CARTESIAN_POINT('',(-0.0122196551146021,-0.00689316397476949,0.0211650635094597));
#1292=CARTESIAN_POINT('',(-0.00919557834470383,-0.0107111591424784,0.0239999999999986));
#1293=CARTESIAN_POINT('',(-0.00996288433772916,-0.00772926612448549,0.023999999999988));
#1294=CARTESIAN_POINT('',(-0.0102939603625823,-0.00638103212435409,0.0212526001920845));
#1295=CARTESIAN_POINT('',(-0.00561212146060027,-0.0098584782610415,0.0239999999999986));
#1296=CARTESIAN_POINT('',(-0.006131091125636,-0.0069453341457507,0.0240000000000038));
#1297=CARTESIAN_POINT('',(-0.00634748860232155,-0.00552835124171981,0.0214214954959045));
#1298=CARTESIAN_POINT('',(-1.23475731951355E-5,-0.00936079667927955,0.0239999999999986));
#1299=CARTESIAN_POINT('',(-1.35186916438055E-5,-0.0064883743441908,0.0239999999999962));
#1300=CARTESIAN_POINT('',(-1.40393888026427E-5,-0.00503066966055883,0.0215391225802034));
#1301=CARTESIAN_POINT('',(0.00560398143602891,-0.00985602005265091,0.0239999999999986));
#1302=CARTESIAN_POINT('',(0.00612247238030706,-0.00694308718490195,0.0240000000000031));
#1303=CARTESIAN_POINT('',(0.00633854606254519,-0.0055258930333223,0.0214220122732223));
#1304=CARTESIAN_POINT('',(0.00919539396804865,-0.0107111059175027,0.0239999999999986));
#1305=CARTESIAN_POINT('',(0.0099626902362811,-0.0077292173341082,0.0239999999999897));
#1306=CARTESIAN_POINT('',(0.0102937602285409,-0.00638097889939448,0.021252609289608));
#1307=CARTESIAN_POINT('',(0.0109696551146021,-0.0112232909936917,0.0239999999999986));
#1308=CARTESIAN_POINT('',(0.0118419432655371,-0.00820159620117206,0.0239999999999986));
#1309=CARTESIAN_POINT('',(0.0122196551146021,-0.00689316397476949,0.0211650635094597));
#1310=CARTESIAN_POINT('',(0.0109696551146021,-0.0112232909936917,0.0189999999999986));
#1311=CARTESIAN_POINT('',(0.0219393102292041,-0.0112232909936917,1.48260647737809E-17));
#1312=CARTESIAN_POINT('',(0.0219393102292041,-0.0112232909936917,1.35832137516894E-17));
#1313=CARTESIAN_POINT('',(0.0109696551146021,-0.0112232909936917,0.0189999999999986));
#1314=CARTESIAN_POINT('',(0.0109696551146021,-0.0112232909936917,0.0189999999999986));
#1315=CARTESIAN_POINT('',(0.0152997821335243,-0.0112232909936917,0.0214999999999986));
#1316=CARTESIAN_POINT('',(0.0148636380580567,-0.00820159620117205,0.0222554236981285));
#1317=CARTESIAN_POINT('',(0.0122196551146021,-0.00689316397476948,0.0211650635094597));
#1318=CARTESIAN_POINT('',(0.0161788036779544,-0.0107157876675078,0.0199774900240979));
#1319=CARTESIAN_POINT('',(0.0157947273709841,-0.00773350924543033,0.0206427297017489));
#1320=CARTESIAN_POINT('',(0.0132489243539931,-0.00638566064938642,0.0195558079862625));
#1321=CARTESIAN_POINT('',(0.0175151912239445,-0.0100806891253788,0.0176627988958407));
#1322=CARTESIAN_POINT('',(0.0172283283496891,-0.00714806344164052,0.0181596599688574));
#1323=CARTESIAN_POINT('',(0.0148294644247429,-0.00575056210628098,0.0170688158338404));
#1324=CARTESIAN_POINT('',(0.0193446182519367,-0.00961333499843244,0.0144941383346186));
#1325=CARTESIAN_POINT('',(0.0192164870935607,-0.00671914739937482,0.0147160680109582));
#1326=CARTESIAN_POINT('',(0.0169728565868038,-0.00528320797953607,0.0135620139100875));
#1327=CARTESIAN_POINT('',(0.021225687776312,-0.00944304500260477,0.0112360303458312));
#1328=CARTESIAN_POINT('',(0.021263764306696,-0.0065635075671004,0.0111700798606304));
#1329=CARTESIAN_POINT('',(0.0191354910841406,-0.0051129179837033,0.00989519760393189));
#1330=CARTESIAN_POINT('',(0.0235438946787354,-0.00984101029646331,0.00722077820837687));
#1331=CARTESIAN_POINT('',(0.0237994533467656,-0.00692929010543688,0.00677813761103246));
#1332=CARTESIAN_POINT('',(0.0216763738961044,-0.00551088327722549,0.00530612662083544));
#1333=CARTESIAN_POINT('',(0.0253726270923625,-0.0107055174081469,0.00405332075452673));
#1334=CARTESIAN_POINT('',(0.0257557653660013,-0.00772409479100859,0.00338970579826345));
#1335=CARTESIAN_POINT('',(0.0235425000733976,-0.00637539038990249,0.00173032275898125));
#1336=CARTESIAN_POINT('',(0.0262694372481264,-0.0112232909936916,0.0024999999999999));
#1337=CARTESIAN_POINT('',(0.0267055813235939,-0.00820159620117197,0.00174457630186998));
#1338=CARTESIAN_POINT('',(0.0244393102292042,-0.00689316397476941,-1.17698013894104E-16));
#1339=CARTESIAN_POINT('',(0.00744781847254617,-0.0082,-0.0043));
#1340=CARTESIAN_POINT('',(0.00496521231503077,-0.0082,-0.0086));
#1341=CARTESIAN_POINT('',(0.00496521231503077,-0.0082,-0.0086));
#1342=CARTESIAN_POINT('',(0.00744781847254617,-0.0082,-0.0043));
#1343=CARTESIAN_POINT('',(0.00993042463006156,-0.0082,-2.94972379854908E-18));
#1344=CARTESIAN_POINT('',(0.00993042463006156,-0.0082,-2.94972379854908E-18));
#1345=CARTESIAN_POINT('',(9.53404022396767E-19,-0.0082,-0.0086));
#1346=CARTESIAN_POINT('',(-0.00496521231503078,-0.0082,-0.0086));
#1347=CARTESIAN_POINT('',(-0.00496521231503078,-0.0082,-0.0086));
#1348=CARTESIAN_POINT('',(9.53404022396767E-19,-0.0082,-0.0086));
#1349=CARTESIAN_POINT('',(-0.00744781847254617,-0.0082,-0.0043));
#1350=CARTESIAN_POINT('',(-0.00993042463006156,-0.0082,2.68812749837554E-18));
#1351=CARTESIAN_POINT('',(-0.00993042463006156,-0.0082,2.68812749837554E-18));
#1352=CARTESIAN_POINT('',(-0.00744781847254617,-0.0082,-0.0043));
#1353=CARTESIAN_POINT('',(-0.00744781847254617,-0.0082,0.0043));
#1354=CARTESIAN_POINT('',(-0.00496521231503078,-0.0082,0.0086));
#1355=CARTESIAN_POINT('',(-0.00496521231503078,-0.0082,0.0086));
#1356=CARTESIAN_POINT('',(-0.00744781847254617,-0.0082,0.0043));
#1357=CARTESIAN_POINT('',(1.82076576038517E-18,-0.0082,0.0086));
#1358=CARTESIAN_POINT('',(0.00496521231503078,-0.0082,0.0086));
#1359=CARTESIAN_POINT('',(0.00496521231503078,-0.0082,0.0086));
#1360=CARTESIAN_POINT('',(1.82076576038517E-18,-0.0082,0.0086));
#1361=CARTESIAN_POINT('',(0.00744781847254617,-0.0082,0.0043));
#1362=CARTESIAN_POINT('',(0.00744781847254617,-0.0082,0.0043));
#1363=CARTESIAN_POINT('',(1.82076576038517E-18,-0.0082,1.82076576038715E-18));
#1364=CARTESIAN_POINT('',(1.82076576038517E-18,-0.0082,1.41663231666854E-18));
#1365=CARTESIAN_POINT('',(1.82076576038517E-18,-0.0082,0.00659999999999971));
#1366=CARTESIAN_POINT('',(4.88498130835046E-18,-0.022,4.48084786463714E-18));
#1367=CARTESIAN_POINT('',(4.88498130835046E-18,-0.022,4.48084786463714E-18));
#1368=CARTESIAN_POINT('',(4.88498130835046E-18,-0.022,0.00659999999999971));
#1369=CARTESIAN_POINT('',(4.88498130835046E-18,-0.022,4.88498130835575E-18));
#1370=MECHANICAL_DESIGN_GEOMETRIC_PRESENTATION_REPRESENTATION('',(#678),
#1371);
#1371=(
GEOMETRIC_REPRESENTATION_CONTEXT(3)
GLOBAL_UNCERTAINTY_ASSIGNED_CONTEXT((#1372))
GLOBAL_UNIT_ASSIGNED_CONTEXT((#1375,#1374,#1373))
REPRESENTATION_CONTEXT('Part 1','TOP_LEVEL_ASSEMBLY_PART')
);
#1372=UNCERTAINTY_MEASURE_WITH_UNIT(LENGTH_MEASURE(2.E-5),#1375,
'DISTANCE_ACCURACY_VALUE','Maximum Tolerance applied to model');
#1373=(
NAMED_UNIT(*)
SI_UNIT($,.STERADIAN.)
SOLID_ANGLE_UNIT()
);
#1374=(
NAMED_UNIT(*)
PLANE_ANGLE_UNIT()
SI_UNIT($,.RADIAN.)
);
#1375=(
LENGTH_UNIT()
NAMED_UNIT(*)
SI_UNIT($,.METRE.)
);
#1376=PRODUCT_DEFINITION_SHAPE('','',#1377);
#1377=PRODUCT_DEFINITION('','',#1379,#1378);
#1378=PRODUCT_DEFINITION_CONTEXT('',#1385,'design');
#1379=PRODUCT_DEFINITION_FORMATION_WITH_SPECIFIED_SOURCE('','',#1381,
 .NOT_KNOWN.);
#1380=PRODUCT_RELATED_PRODUCT_CATEGORY('','',(#1381));
#1381=PRODUCT('Part 1','Part 1','Part 1',(#1383));
#1382=PRODUCT_CATEGORY('','');
#1383=PRODUCT_CONTEXT('',#1385,'mechanical');
#1384=APPLICATION_PROTOCOL_DEFINITION('international standard',
'ap242_managed_model_based_3d_engineering',2011,#1385);
#1385=APPLICATION_CONTEXT('managed model based 3d engineering');
ENDSEC;
END-ISO-10303-21;
