ISO-10303-21;
HEADER;
/* Generated by software containing ST-Developer
 * from STEP Tools, Inc. (www.steptools.com) 
 */
/* OPTION: using custom renumber hook */

FILE_DESCRIPTION(
/* description */ ('STEP AP242',
'CAx-IF Rec.Pracs.---Representation and Presentation of Product Manufa
cturing Information (PMI)---4.0---2014-10-13',
'CAx-IF Rec.Pracs.---3D Tessellated Geometry---0.4---2014-09-14','2;1'),

/* implementation_level */ '2;1');

FILE_NAME(
/* name */ '6883f6584addd603f724a1f0',
/* time_stamp */ '2025-07-25T21:25:45Z',
/* author */ (''),
/* organization */ (''),
/* preprocessor_version */ 'ST-DEVELOPER v20',
/* originating_system */ 'ONSHAPE BY PTC INC, 1.201',
/* authorisation */ '  ');

FILE_SCHEMA (('AP242_MANAGED_MODEL_BASED_3D_ENGINEERING_MIM_LF { 1 0 10303 442 1 1 4 }'));
ENDSEC;

DATA;
#10=SHAPE_REPRESENTATION_RELATIONSHIP('','',#1138,#11);
#11=ADVANCED_BREP_SHAPE_REPRESENTATION('',(#1136),#1785);
#12=ORIENTED_EDGE('',*,*,#328,.T.);
#13=ORIENTED_EDGE('',*,*,#329,.F.);
#14=ORIENTED_EDGE('',*,*,#330,.F.);
#15=ORIENTED_EDGE('',*,*,#331,.T.);
#16=ORIENTED_EDGE('',*,*,#332,.F.);
#17=ORIENTED_EDGE('',*,*,#331,.F.);
#18=ORIENTED_EDGE('',*,*,#333,.T.);
#19=ORIENTED_EDGE('',*,*,#334,.T.);
#20=ORIENTED_EDGE('',*,*,#335,.F.);
#21=ORIENTED_EDGE('',*,*,#334,.F.);
#22=ORIENTED_EDGE('',*,*,#336,.T.);
#23=ORIENTED_EDGE('',*,*,#337,.T.);
#24=ORIENTED_EDGE('',*,*,#338,.F.);
#25=ORIENTED_EDGE('',*,*,#337,.F.);
#26=ORIENTED_EDGE('',*,*,#339,.T.);
#27=ORIENTED_EDGE('',*,*,#340,.T.);
#28=ORIENTED_EDGE('',*,*,#341,.T.);
#29=ORIENTED_EDGE('',*,*,#340,.F.);
#30=ORIENTED_EDGE('',*,*,#342,.F.);
#31=ORIENTED_EDGE('',*,*,#343,.T.);
#32=ORIENTED_EDGE('',*,*,#344,.F.);
#33=ORIENTED_EDGE('',*,*,#343,.F.);
#34=ORIENTED_EDGE('',*,*,#345,.T.);
#35=ORIENTED_EDGE('',*,*,#346,.T.);
#36=ORIENTED_EDGE('',*,*,#347,.F.);
#37=ORIENTED_EDGE('',*,*,#346,.F.);
#38=ORIENTED_EDGE('',*,*,#348,.T.);
#39=ORIENTED_EDGE('',*,*,#349,.T.);
#40=ORIENTED_EDGE('',*,*,#350,.F.);
#41=ORIENTED_EDGE('',*,*,#349,.F.);
#42=ORIENTED_EDGE('',*,*,#351,.T.);
#43=ORIENTED_EDGE('',*,*,#352,.T.);
#44=ORIENTED_EDGE('',*,*,#353,.T.);
#45=ORIENTED_EDGE('',*,*,#352,.F.);
#46=ORIENTED_EDGE('',*,*,#354,.F.);
#47=ORIENTED_EDGE('',*,*,#355,.T.);
#48=ORIENTED_EDGE('',*,*,#356,.F.);
#49=ORIENTED_EDGE('',*,*,#355,.F.);
#50=ORIENTED_EDGE('',*,*,#357,.T.);
#51=ORIENTED_EDGE('',*,*,#358,.T.);
#52=ORIENTED_EDGE('',*,*,#359,.F.);
#53=ORIENTED_EDGE('',*,*,#358,.F.);
#54=ORIENTED_EDGE('',*,*,#360,.T.);
#55=ORIENTED_EDGE('',*,*,#361,.T.);
#56=ORIENTED_EDGE('',*,*,#362,.F.);
#57=ORIENTED_EDGE('',*,*,#361,.F.);
#58=ORIENTED_EDGE('',*,*,#363,.T.);
#59=ORIENTED_EDGE('',*,*,#364,.T.);
#60=ORIENTED_EDGE('',*,*,#365,.T.);
#61=ORIENTED_EDGE('',*,*,#364,.F.);
#62=ORIENTED_EDGE('',*,*,#366,.F.);
#63=ORIENTED_EDGE('',*,*,#367,.T.);
#64=ORIENTED_EDGE('',*,*,#368,.F.);
#65=ORIENTED_EDGE('',*,*,#367,.F.);
#66=ORIENTED_EDGE('',*,*,#369,.T.);
#67=ORIENTED_EDGE('',*,*,#370,.T.);
#68=ORIENTED_EDGE('',*,*,#371,.F.);
#69=ORIENTED_EDGE('',*,*,#370,.F.);
#70=ORIENTED_EDGE('',*,*,#372,.T.);
#71=ORIENTED_EDGE('',*,*,#373,.T.);
#72=ORIENTED_EDGE('',*,*,#374,.F.);
#73=ORIENTED_EDGE('',*,*,#373,.F.);
#74=ORIENTED_EDGE('',*,*,#375,.T.);
#75=ORIENTED_EDGE('',*,*,#376,.T.);
#76=ORIENTED_EDGE('',*,*,#377,.T.);
#77=ORIENTED_EDGE('',*,*,#376,.F.);
#78=ORIENTED_EDGE('',*,*,#378,.F.);
#79=ORIENTED_EDGE('',*,*,#379,.T.);
#80=ORIENTED_EDGE('',*,*,#380,.F.);
#81=ORIENTED_EDGE('',*,*,#379,.F.);
#82=ORIENTED_EDGE('',*,*,#381,.T.);
#83=ORIENTED_EDGE('',*,*,#382,.T.);
#84=ORIENTED_EDGE('',*,*,#383,.F.);
#85=ORIENTED_EDGE('',*,*,#382,.F.);
#86=ORIENTED_EDGE('',*,*,#384,.T.);
#87=ORIENTED_EDGE('',*,*,#385,.T.);
#88=ORIENTED_EDGE('',*,*,#386,.F.);
#89=ORIENTED_EDGE('',*,*,#385,.F.);
#90=ORIENTED_EDGE('',*,*,#387,.T.);
#91=ORIENTED_EDGE('',*,*,#388,.T.);
#92=ORIENTED_EDGE('',*,*,#389,.T.);
#93=ORIENTED_EDGE('',*,*,#388,.F.);
#94=ORIENTED_EDGE('',*,*,#390,.F.);
#95=ORIENTED_EDGE('',*,*,#391,.T.);
#96=ORIENTED_EDGE('',*,*,#392,.F.);
#97=ORIENTED_EDGE('',*,*,#391,.F.);
#98=ORIENTED_EDGE('',*,*,#393,.T.);
#99=ORIENTED_EDGE('',*,*,#394,.T.);
#100=ORIENTED_EDGE('',*,*,#395,.F.);
#101=ORIENTED_EDGE('',*,*,#394,.F.);
#102=ORIENTED_EDGE('',*,*,#396,.T.);
#103=ORIENTED_EDGE('',*,*,#397,.T.);
#104=ORIENTED_EDGE('',*,*,#398,.F.);
#105=ORIENTED_EDGE('',*,*,#397,.F.);
#106=ORIENTED_EDGE('',*,*,#399,.T.);
#107=ORIENTED_EDGE('',*,*,#400,.T.);
#108=ORIENTED_EDGE('',*,*,#401,.T.);
#109=ORIENTED_EDGE('',*,*,#400,.F.);
#110=ORIENTED_EDGE('',*,*,#402,.F.);
#111=ORIENTED_EDGE('',*,*,#403,.T.);
#112=ORIENTED_EDGE('',*,*,#404,.F.);
#113=ORIENTED_EDGE('',*,*,#403,.F.);
#114=ORIENTED_EDGE('',*,*,#405,.T.);
#115=ORIENTED_EDGE('',*,*,#406,.T.);
#116=ORIENTED_EDGE('',*,*,#407,.F.);
#117=ORIENTED_EDGE('',*,*,#406,.F.);
#118=ORIENTED_EDGE('',*,*,#408,.T.);
#119=ORIENTED_EDGE('',*,*,#409,.T.);
#120=ORIENTED_EDGE('',*,*,#410,.F.);
#121=ORIENTED_EDGE('',*,*,#409,.F.);
#122=ORIENTED_EDGE('',*,*,#411,.T.);
#123=ORIENTED_EDGE('',*,*,#412,.T.);
#124=ORIENTED_EDGE('',*,*,#413,.T.);
#125=ORIENTED_EDGE('',*,*,#412,.F.);
#126=ORIENTED_EDGE('',*,*,#414,.F.);
#127=ORIENTED_EDGE('',*,*,#415,.T.);
#128=ORIENTED_EDGE('',*,*,#416,.F.);
#129=ORIENTED_EDGE('',*,*,#415,.F.);
#130=ORIENTED_EDGE('',*,*,#417,.T.);
#131=ORIENTED_EDGE('',*,*,#418,.T.);
#132=ORIENTED_EDGE('',*,*,#419,.F.);
#133=ORIENTED_EDGE('',*,*,#418,.F.);
#134=ORIENTED_EDGE('',*,*,#420,.T.);
#135=ORIENTED_EDGE('',*,*,#421,.T.);
#136=ORIENTED_EDGE('',*,*,#422,.F.);
#137=ORIENTED_EDGE('',*,*,#421,.F.);
#138=ORIENTED_EDGE('',*,*,#423,.T.);
#139=ORIENTED_EDGE('',*,*,#424,.T.);
#140=ORIENTED_EDGE('',*,*,#425,.T.);
#141=ORIENTED_EDGE('',*,*,#424,.F.);
#142=ORIENTED_EDGE('',*,*,#426,.F.);
#143=ORIENTED_EDGE('',*,*,#427,.T.);
#144=ORIENTED_EDGE('',*,*,#428,.F.);
#145=ORIENTED_EDGE('',*,*,#427,.F.);
#146=ORIENTED_EDGE('',*,*,#429,.T.);
#147=ORIENTED_EDGE('',*,*,#430,.T.);
#148=ORIENTED_EDGE('',*,*,#431,.F.);
#149=ORIENTED_EDGE('',*,*,#430,.F.);
#150=ORIENTED_EDGE('',*,*,#432,.T.);
#151=ORIENTED_EDGE('',*,*,#433,.T.);
#152=ORIENTED_EDGE('',*,*,#434,.F.);
#153=ORIENTED_EDGE('',*,*,#433,.F.);
#154=ORIENTED_EDGE('',*,*,#435,.T.);
#155=ORIENTED_EDGE('',*,*,#436,.T.);
#156=ORIENTED_EDGE('',*,*,#437,.T.);
#157=ORIENTED_EDGE('',*,*,#436,.F.);
#158=ORIENTED_EDGE('',*,*,#438,.F.);
#159=ORIENTED_EDGE('',*,*,#439,.T.);
#160=ORIENTED_EDGE('',*,*,#440,.F.);
#161=ORIENTED_EDGE('',*,*,#439,.F.);
#162=ORIENTED_EDGE('',*,*,#441,.T.);
#163=ORIENTED_EDGE('',*,*,#442,.T.);
#164=ORIENTED_EDGE('',*,*,#443,.F.);
#165=ORIENTED_EDGE('',*,*,#442,.F.);
#166=ORIENTED_EDGE('',*,*,#444,.T.);
#167=ORIENTED_EDGE('',*,*,#445,.T.);
#168=ORIENTED_EDGE('',*,*,#446,.F.);
#169=ORIENTED_EDGE('',*,*,#445,.F.);
#170=ORIENTED_EDGE('',*,*,#447,.T.);
#171=ORIENTED_EDGE('',*,*,#448,.T.);
#172=ORIENTED_EDGE('',*,*,#449,.T.);
#173=ORIENTED_EDGE('',*,*,#448,.F.);
#174=ORIENTED_EDGE('',*,*,#450,.F.);
#175=ORIENTED_EDGE('',*,*,#451,.T.);
#176=ORIENTED_EDGE('',*,*,#452,.F.);
#177=ORIENTED_EDGE('',*,*,#451,.F.);
#178=ORIENTED_EDGE('',*,*,#453,.T.);
#179=ORIENTED_EDGE('',*,*,#454,.T.);
#180=ORIENTED_EDGE('',*,*,#455,.F.);
#181=ORIENTED_EDGE('',*,*,#454,.F.);
#182=ORIENTED_EDGE('',*,*,#456,.T.);
#183=ORIENTED_EDGE('',*,*,#457,.T.);
#184=ORIENTED_EDGE('',*,*,#458,.F.);
#185=ORIENTED_EDGE('',*,*,#457,.F.);
#186=ORIENTED_EDGE('',*,*,#459,.T.);
#187=ORIENTED_EDGE('',*,*,#460,.T.);
#188=ORIENTED_EDGE('',*,*,#461,.T.);
#189=ORIENTED_EDGE('',*,*,#460,.F.);
#190=ORIENTED_EDGE('',*,*,#462,.F.);
#191=ORIENTED_EDGE('',*,*,#463,.T.);
#192=ORIENTED_EDGE('',*,*,#464,.F.);
#193=ORIENTED_EDGE('',*,*,#463,.F.);
#194=ORIENTED_EDGE('',*,*,#465,.T.);
#195=ORIENTED_EDGE('',*,*,#466,.T.);
#196=ORIENTED_EDGE('',*,*,#467,.F.);
#197=ORIENTED_EDGE('',*,*,#466,.F.);
#198=ORIENTED_EDGE('',*,*,#468,.T.);
#199=ORIENTED_EDGE('',*,*,#469,.F.);
#200=ORIENTED_EDGE('',*,*,#470,.T.);
#201=ORIENTED_EDGE('',*,*,#471,.T.);
#202=ORIENTED_EDGE('',*,*,#472,.T.);
#203=ORIENTED_EDGE('',*,*,#471,.F.);
#204=ORIENTED_EDGE('',*,*,#473,.F.);
#205=ORIENTED_EDGE('',*,*,#474,.T.);
#206=ORIENTED_EDGE('',*,*,#475,.F.);
#207=ORIENTED_EDGE('',*,*,#474,.F.);
#208=ORIENTED_EDGE('',*,*,#476,.T.);
#209=ORIENTED_EDGE('',*,*,#477,.T.);
#210=ORIENTED_EDGE('',*,*,#478,.T.);
#211=ORIENTED_EDGE('',*,*,#479,.F.);
#212=ORIENTED_EDGE('',*,*,#478,.F.);
#213=ORIENTED_EDGE('',*,*,#480,.T.);
#214=ORIENTED_EDGE('',*,*,#481,.T.);
#215=ORIENTED_EDGE('',*,*,#482,.F.);
#216=ORIENTED_EDGE('',*,*,#481,.F.);
#217=ORIENTED_EDGE('',*,*,#483,.T.);
#218=ORIENTED_EDGE('',*,*,#329,.T.);
#219=ORIENTED_EDGE('',*,*,#480,.F.);
#220=ORIENTED_EDGE('',*,*,#484,.T.);
#221=ORIENTED_EDGE('',*,*,#468,.F.);
#222=ORIENTED_EDGE('',*,*,#465,.F.);
#223=ORIENTED_EDGE('',*,*,#462,.T.);
#224=ORIENTED_EDGE('',*,*,#459,.F.);
#225=ORIENTED_EDGE('',*,*,#456,.F.);
#226=ORIENTED_EDGE('',*,*,#453,.F.);
#227=ORIENTED_EDGE('',*,*,#450,.T.);
#228=ORIENTED_EDGE('',*,*,#447,.F.);
#229=ORIENTED_EDGE('',*,*,#444,.F.);
#230=ORIENTED_EDGE('',*,*,#441,.F.);
#231=ORIENTED_EDGE('',*,*,#438,.T.);
#232=ORIENTED_EDGE('',*,*,#435,.F.);
#233=ORIENTED_EDGE('',*,*,#432,.F.);
#234=ORIENTED_EDGE('',*,*,#429,.F.);
#235=ORIENTED_EDGE('',*,*,#426,.T.);
#236=ORIENTED_EDGE('',*,*,#423,.F.);
#237=ORIENTED_EDGE('',*,*,#420,.F.);
#238=ORIENTED_EDGE('',*,*,#417,.F.);
#239=ORIENTED_EDGE('',*,*,#414,.T.);
#240=ORIENTED_EDGE('',*,*,#411,.F.);
#241=ORIENTED_EDGE('',*,*,#408,.F.);
#242=ORIENTED_EDGE('',*,*,#405,.F.);
#243=ORIENTED_EDGE('',*,*,#402,.T.);
#244=ORIENTED_EDGE('',*,*,#399,.F.);
#245=ORIENTED_EDGE('',*,*,#396,.F.);
#246=ORIENTED_EDGE('',*,*,#393,.F.);
#247=ORIENTED_EDGE('',*,*,#390,.T.);
#248=ORIENTED_EDGE('',*,*,#387,.F.);
#249=ORIENTED_EDGE('',*,*,#384,.F.);
#250=ORIENTED_EDGE('',*,*,#381,.F.);
#251=ORIENTED_EDGE('',*,*,#378,.T.);
#252=ORIENTED_EDGE('',*,*,#375,.F.);
#253=ORIENTED_EDGE('',*,*,#372,.F.);
#254=ORIENTED_EDGE('',*,*,#369,.F.);
#255=ORIENTED_EDGE('',*,*,#366,.T.);
#256=ORIENTED_EDGE('',*,*,#363,.F.);
#257=ORIENTED_EDGE('',*,*,#360,.F.);
#258=ORIENTED_EDGE('',*,*,#357,.F.);
#259=ORIENTED_EDGE('',*,*,#354,.T.);
#260=ORIENTED_EDGE('',*,*,#351,.F.);
#261=ORIENTED_EDGE('',*,*,#348,.F.);
#262=ORIENTED_EDGE('',*,*,#345,.F.);
#263=ORIENTED_EDGE('',*,*,#342,.T.);
#264=ORIENTED_EDGE('',*,*,#339,.F.);
#265=ORIENTED_EDGE('',*,*,#336,.F.);
#266=ORIENTED_EDGE('',*,*,#333,.F.);
#267=ORIENTED_EDGE('',*,*,#330,.T.);
#268=ORIENTED_EDGE('',*,*,#483,.F.);
#269=ORIENTED_EDGE('',*,*,#328,.F.);
#270=ORIENTED_EDGE('',*,*,#332,.T.);
#271=ORIENTED_EDGE('',*,*,#335,.T.);
#272=ORIENTED_EDGE('',*,*,#338,.T.);
#273=ORIENTED_EDGE('',*,*,#341,.F.);
#274=ORIENTED_EDGE('',*,*,#344,.T.);
#275=ORIENTED_EDGE('',*,*,#347,.T.);
#276=ORIENTED_EDGE('',*,*,#350,.T.);
#277=ORIENTED_EDGE('',*,*,#353,.F.);
#278=ORIENTED_EDGE('',*,*,#356,.T.);
#279=ORIENTED_EDGE('',*,*,#359,.T.);
#280=ORIENTED_EDGE('',*,*,#362,.T.);
#281=ORIENTED_EDGE('',*,*,#365,.F.);
#282=ORIENTED_EDGE('',*,*,#368,.T.);
#283=ORIENTED_EDGE('',*,*,#371,.T.);
#284=ORIENTED_EDGE('',*,*,#374,.T.);
#285=ORIENTED_EDGE('',*,*,#377,.F.);
#286=ORIENTED_EDGE('',*,*,#380,.T.);
#287=ORIENTED_EDGE('',*,*,#383,.T.);
#288=ORIENTED_EDGE('',*,*,#386,.T.);
#289=ORIENTED_EDGE('',*,*,#389,.F.);
#290=ORIENTED_EDGE('',*,*,#392,.T.);
#291=ORIENTED_EDGE('',*,*,#395,.T.);
#292=ORIENTED_EDGE('',*,*,#398,.T.);
#293=ORIENTED_EDGE('',*,*,#401,.F.);
#294=ORIENTED_EDGE('',*,*,#404,.T.);
#295=ORIENTED_EDGE('',*,*,#407,.T.);
#296=ORIENTED_EDGE('',*,*,#410,.T.);
#297=ORIENTED_EDGE('',*,*,#413,.F.);
#298=ORIENTED_EDGE('',*,*,#416,.T.);
#299=ORIENTED_EDGE('',*,*,#419,.T.);
#300=ORIENTED_EDGE('',*,*,#422,.T.);
#301=ORIENTED_EDGE('',*,*,#425,.F.);
#302=ORIENTED_EDGE('',*,*,#428,.T.);
#303=ORIENTED_EDGE('',*,*,#431,.T.);
#304=ORIENTED_EDGE('',*,*,#434,.T.);
#305=ORIENTED_EDGE('',*,*,#437,.F.);
#306=ORIENTED_EDGE('',*,*,#440,.T.);
#307=ORIENTED_EDGE('',*,*,#443,.T.);
#308=ORIENTED_EDGE('',*,*,#446,.T.);
#309=ORIENTED_EDGE('',*,*,#449,.F.);
#310=ORIENTED_EDGE('',*,*,#452,.T.);
#311=ORIENTED_EDGE('',*,*,#455,.T.);
#312=ORIENTED_EDGE('',*,*,#458,.T.);
#313=ORIENTED_EDGE('',*,*,#461,.F.);
#314=ORIENTED_EDGE('',*,*,#464,.T.);
#315=ORIENTED_EDGE('',*,*,#467,.T.);
#316=ORIENTED_EDGE('',*,*,#472,.F.);
#317=ORIENTED_EDGE('',*,*,#475,.T.);
#318=ORIENTED_EDGE('',*,*,#479,.T.);
#319=ORIENTED_EDGE('',*,*,#482,.T.);
#320=ORIENTED_EDGE('',*,*,#484,.F.);
#321=ORIENTED_EDGE('',*,*,#477,.F.);
#322=ORIENTED_EDGE('',*,*,#485,.T.);
#323=ORIENTED_EDGE('',*,*,#469,.T.);
#324=ORIENTED_EDGE('',*,*,#485,.F.);
#325=ORIENTED_EDGE('',*,*,#476,.F.);
#326=ORIENTED_EDGE('',*,*,#473,.T.);
#327=ORIENTED_EDGE('',*,*,#470,.F.);
#328=EDGE_CURVE('',#486,#487,#591,.T.);
#329=EDGE_CURVE('',#488,#487,#592,.T.);
#330=EDGE_CURVE('',#489,#488,#593,.T.);
#331=EDGE_CURVE('',#489,#486,#594,.T.);
#332=EDGE_CURVE('',#486,#490,#595,.T.);
#333=EDGE_CURVE('',#489,#491,#596,.T.);
#334=EDGE_CURVE('',#491,#490,#597,.T.);
#335=EDGE_CURVE('',#490,#492,#598,.T.);
#336=EDGE_CURVE('',#491,#493,#599,.T.);
#337=EDGE_CURVE('',#493,#492,#600,.T.);
#338=EDGE_CURVE('',#492,#494,#601,.T.);
#339=EDGE_CURVE('',#493,#495,#602,.T.);
#340=EDGE_CURVE('',#495,#494,#603,.T.);
#341=EDGE_CURVE('',#496,#494,#604,.T.);
#342=EDGE_CURVE('',#497,#495,#605,.T.);
#343=EDGE_CURVE('',#497,#496,#606,.T.);
#344=EDGE_CURVE('',#496,#498,#607,.T.);
#345=EDGE_CURVE('',#497,#499,#608,.T.);
#346=EDGE_CURVE('',#499,#498,#609,.T.);
#347=EDGE_CURVE('',#498,#500,#610,.T.);
#348=EDGE_CURVE('',#499,#501,#611,.T.);
#349=EDGE_CURVE('',#501,#500,#612,.T.);
#350=EDGE_CURVE('',#500,#502,#613,.T.);
#351=EDGE_CURVE('',#501,#503,#614,.T.);
#352=EDGE_CURVE('',#503,#502,#615,.T.);
#353=EDGE_CURVE('',#504,#502,#616,.T.);
#354=EDGE_CURVE('',#505,#503,#617,.T.);
#355=EDGE_CURVE('',#505,#504,#618,.T.);
#356=EDGE_CURVE('',#504,#506,#619,.T.);
#357=EDGE_CURVE('',#505,#507,#620,.T.);
#358=EDGE_CURVE('',#507,#506,#621,.T.);
#359=EDGE_CURVE('',#506,#508,#622,.T.);
#360=EDGE_CURVE('',#507,#509,#623,.T.);
#361=EDGE_CURVE('',#509,#508,#624,.T.);
#362=EDGE_CURVE('',#508,#510,#625,.T.);
#363=EDGE_CURVE('',#509,#511,#626,.T.);
#364=EDGE_CURVE('',#511,#510,#627,.T.);
#365=EDGE_CURVE('',#512,#510,#628,.T.);
#366=EDGE_CURVE('',#513,#511,#629,.T.);
#367=EDGE_CURVE('',#513,#512,#630,.T.);
#368=EDGE_CURVE('',#512,#514,#631,.T.);
#369=EDGE_CURVE('',#513,#515,#632,.T.);
#370=EDGE_CURVE('',#515,#514,#633,.T.);
#371=EDGE_CURVE('',#514,#516,#634,.T.);
#372=EDGE_CURVE('',#515,#517,#635,.T.);
#373=EDGE_CURVE('',#517,#516,#636,.T.);
#374=EDGE_CURVE('',#516,#518,#637,.T.);
#375=EDGE_CURVE('',#517,#519,#638,.T.);
#376=EDGE_CURVE('',#519,#518,#639,.T.);
#377=EDGE_CURVE('',#520,#518,#640,.T.);
#378=EDGE_CURVE('',#521,#519,#641,.T.);
#379=EDGE_CURVE('',#521,#520,#642,.T.);
#380=EDGE_CURVE('',#520,#522,#643,.T.);
#381=EDGE_CURVE('',#521,#523,#644,.T.);
#382=EDGE_CURVE('',#523,#522,#645,.T.);
#383=EDGE_CURVE('',#522,#524,#646,.T.);
#384=EDGE_CURVE('',#523,#525,#647,.T.);
#385=EDGE_CURVE('',#525,#524,#648,.T.);
#386=EDGE_CURVE('',#524,#526,#649,.T.);
#387=EDGE_CURVE('',#525,#527,#650,.T.);
#388=EDGE_CURVE('',#527,#526,#651,.T.);
#389=EDGE_CURVE('',#528,#526,#652,.T.);
#390=EDGE_CURVE('',#529,#527,#653,.T.);
#391=EDGE_CURVE('',#529,#528,#654,.T.);
#392=EDGE_CURVE('',#528,#530,#655,.T.);
#393=EDGE_CURVE('',#529,#531,#656,.T.);
#394=EDGE_CURVE('',#531,#530,#657,.T.);
#395=EDGE_CURVE('',#530,#532,#658,.T.);
#396=EDGE_CURVE('',#531,#533,#659,.T.);
#397=EDGE_CURVE('',#533,#532,#660,.T.);
#398=EDGE_CURVE('',#532,#534,#661,.T.);
#399=EDGE_CURVE('',#533,#535,#662,.T.);
#400=EDGE_CURVE('',#535,#534,#663,.T.);
#401=EDGE_CURVE('',#536,#534,#664,.T.);
#402=EDGE_CURVE('',#537,#535,#665,.T.);
#403=EDGE_CURVE('',#537,#536,#666,.T.);
#404=EDGE_CURVE('',#536,#538,#667,.T.);
#405=EDGE_CURVE('',#537,#539,#668,.T.);
#406=EDGE_CURVE('',#539,#538,#669,.T.);
#407=EDGE_CURVE('',#538,#540,#670,.T.);
#408=EDGE_CURVE('',#539,#541,#671,.T.);
#409=EDGE_CURVE('',#541,#540,#672,.T.);
#410=EDGE_CURVE('',#540,#542,#673,.T.);
#411=EDGE_CURVE('',#541,#543,#674,.T.);
#412=EDGE_CURVE('',#543,#542,#675,.T.);
#413=EDGE_CURVE('',#544,#542,#676,.T.);
#414=EDGE_CURVE('',#545,#543,#677,.T.);
#415=EDGE_CURVE('',#545,#544,#678,.T.);
#416=EDGE_CURVE('',#544,#546,#679,.T.);
#417=EDGE_CURVE('',#545,#547,#680,.T.);
#418=EDGE_CURVE('',#547,#546,#681,.T.);
#419=EDGE_CURVE('',#546,#548,#682,.T.);
#420=EDGE_CURVE('',#547,#549,#683,.T.);
#421=EDGE_CURVE('',#549,#548,#684,.T.);
#422=EDGE_CURVE('',#548,#550,#685,.T.);
#423=EDGE_CURVE('',#549,#551,#686,.T.);
#424=EDGE_CURVE('',#551,#550,#687,.T.);
#425=EDGE_CURVE('',#552,#550,#688,.T.);
#426=EDGE_CURVE('',#553,#551,#689,.T.);
#427=EDGE_CURVE('',#553,#552,#690,.T.);
#428=EDGE_CURVE('',#552,#554,#691,.T.);
#429=EDGE_CURVE('',#553,#555,#692,.T.);
#430=EDGE_CURVE('',#555,#554,#693,.T.);
#431=EDGE_CURVE('',#554,#556,#694,.T.);
#432=EDGE_CURVE('',#555,#557,#695,.T.);
#433=EDGE_CURVE('',#557,#556,#696,.T.);
#434=EDGE_CURVE('',#556,#558,#697,.T.);
#435=EDGE_CURVE('',#557,#559,#698,.T.);
#436=EDGE_CURVE('',#559,#558,#699,.T.);
#437=EDGE_CURVE('',#560,#558,#700,.T.);
#438=EDGE_CURVE('',#561,#559,#701,.T.);
#439=EDGE_CURVE('',#561,#560,#702,.T.);
#440=EDGE_CURVE('',#560,#562,#703,.T.);
#441=EDGE_CURVE('',#561,#563,#704,.T.);
#442=EDGE_CURVE('',#563,#562,#705,.T.);
#443=EDGE_CURVE('',#562,#564,#706,.T.);
#444=EDGE_CURVE('',#563,#565,#707,.T.);
#445=EDGE_CURVE('',#565,#564,#708,.T.);
#446=EDGE_CURVE('',#564,#566,#709,.T.);
#447=EDGE_CURVE('',#565,#567,#710,.T.);
#448=EDGE_CURVE('',#567,#566,#711,.T.);
#449=EDGE_CURVE('',#568,#566,#712,.T.);
#450=EDGE_CURVE('',#569,#567,#713,.T.);
#451=EDGE_CURVE('',#569,#568,#714,.T.);
#452=EDGE_CURVE('',#568,#570,#715,.T.);
#453=EDGE_CURVE('',#569,#571,#716,.T.);
#454=EDGE_CURVE('',#571,#570,#717,.T.);
#455=EDGE_CURVE('',#570,#572,#718,.T.);
#456=EDGE_CURVE('',#571,#573,#719,.T.);
#457=EDGE_CURVE('',#573,#572,#720,.T.);
#458=EDGE_CURVE('',#572,#574,#721,.T.);
#459=EDGE_CURVE('',#573,#575,#722,.T.);
#460=EDGE_CURVE('',#575,#574,#723,.T.);
#461=EDGE_CURVE('',#576,#574,#724,.T.);
#462=EDGE_CURVE('',#577,#575,#725,.T.);
#463=EDGE_CURVE('',#577,#576,#726,.T.);
#464=EDGE_CURVE('',#576,#578,#727,.T.);
#465=EDGE_CURVE('',#577,#579,#728,.T.);
#466=EDGE_CURVE('',#579,#578,#729,.T.);
#467=EDGE_CURVE('',#578,#580,#730,.T.);
#468=EDGE_CURVE('',#579,#581,#731,.T.);
#469=EDGE_CURVE('',#582,#581,#732,.T.);
#470=EDGE_CURVE('',#582,#583,#733,.T.);
#471=EDGE_CURVE('',#583,#580,#734,.T.);
#472=EDGE_CURVE('',#584,#580,#735,.T.);
#473=EDGE_CURVE('',#585,#583,#736,.T.);
#474=EDGE_CURVE('',#585,#584,#737,.T.);
#475=EDGE_CURVE('',#584,#586,#738,.T.);
#476=EDGE_CURVE('',#585,#587,#739,.T.);
#477=EDGE_CURVE('',#587,#588,#740,.T.);
#478=EDGE_CURVE('',#588,#586,#741,.T.);
#479=EDGE_CURVE('',#586,#589,#742,.T.);
#480=EDGE_CURVE('',#588,#590,#743,.T.);
#481=EDGE_CURVE('',#590,#589,#744,.T.);
#482=EDGE_CURVE('',#589,#487,#745,.T.);
#483=EDGE_CURVE('',#590,#488,#746,.T.);
#484=EDGE_CURVE('',#588,#581,#747,.T.);
#485=EDGE_CURVE('',#587,#582,#748,.T.);
#486=VERTEX_POINT('',#1468);
#487=VERTEX_POINT('',#1469);
#488=VERTEX_POINT('',#1471);
#489=VERTEX_POINT('',#1473);
#490=VERTEX_POINT('',#1477);
#491=VERTEX_POINT('',#1479);
#492=VERTEX_POINT('',#1483);
#493=VERTEX_POINT('',#1485);
#494=VERTEX_POINT('',#1489);
#495=VERTEX_POINT('',#1491);
#496=VERTEX_POINT('',#1495);
#497=VERTEX_POINT('',#1497);
#498=VERTEX_POINT('',#1501);
#499=VERTEX_POINT('',#1503);
#500=VERTEX_POINT('',#1507);
#501=VERTEX_POINT('',#1509);
#502=VERTEX_POINT('',#1513);
#503=VERTEX_POINT('',#1515);
#504=VERTEX_POINT('',#1519);
#505=VERTEX_POINT('',#1521);
#506=VERTEX_POINT('',#1525);
#507=VERTEX_POINT('',#1527);
#508=VERTEX_POINT('',#1531);
#509=VERTEX_POINT('',#1533);
#510=VERTEX_POINT('',#1537);
#511=VERTEX_POINT('',#1539);
#512=VERTEX_POINT('',#1543);
#513=VERTEX_POINT('',#1545);
#514=VERTEX_POINT('',#1549);
#515=VERTEX_POINT('',#1551);
#516=VERTEX_POINT('',#1555);
#517=VERTEX_POINT('',#1557);
#518=VERTEX_POINT('',#1561);
#519=VERTEX_POINT('',#1563);
#520=VERTEX_POINT('',#1567);
#521=VERTEX_POINT('',#1569);
#522=VERTEX_POINT('',#1573);
#523=VERTEX_POINT('',#1575);
#524=VERTEX_POINT('',#1579);
#525=VERTEX_POINT('',#1581);
#526=VERTEX_POINT('',#1585);
#527=VERTEX_POINT('',#1587);
#528=VERTEX_POINT('',#1591);
#529=VERTEX_POINT('',#1593);
#530=VERTEX_POINT('',#1597);
#531=VERTEX_POINT('',#1599);
#532=VERTEX_POINT('',#1603);
#533=VERTEX_POINT('',#1605);
#534=VERTEX_POINT('',#1609);
#535=VERTEX_POINT('',#1611);
#536=VERTEX_POINT('',#1615);
#537=VERTEX_POINT('',#1617);
#538=VERTEX_POINT('',#1621);
#539=VERTEX_POINT('',#1623);
#540=VERTEX_POINT('',#1627);
#541=VERTEX_POINT('',#1629);
#542=VERTEX_POINT('',#1633);
#543=VERTEX_POINT('',#1635);
#544=VERTEX_POINT('',#1639);
#545=VERTEX_POINT('',#1641);
#546=VERTEX_POINT('',#1645);
#547=VERTEX_POINT('',#1647);
#548=VERTEX_POINT('',#1651);
#549=VERTEX_POINT('',#1653);
#550=VERTEX_POINT('',#1657);
#551=VERTEX_POINT('',#1659);
#552=VERTEX_POINT('',#1663);
#553=VERTEX_POINT('',#1665);
#554=VERTEX_POINT('',#1669);
#555=VERTEX_POINT('',#1671);
#556=VERTEX_POINT('',#1675);
#557=VERTEX_POINT('',#1677);
#558=VERTEX_POINT('',#1681);
#559=VERTEX_POINT('',#1683);
#560=VERTEX_POINT('',#1687);
#561=VERTEX_POINT('',#1689);
#562=VERTEX_POINT('',#1693);
#563=VERTEX_POINT('',#1695);
#564=VERTEX_POINT('',#1699);
#565=VERTEX_POINT('',#1701);
#566=VERTEX_POINT('',#1705);
#567=VERTEX_POINT('',#1707);
#568=VERTEX_POINT('',#1711);
#569=VERTEX_POINT('',#1713);
#570=VERTEX_POINT('',#1717);
#571=VERTEX_POINT('',#1719);
#572=VERTEX_POINT('',#1723);
#573=VERTEX_POINT('',#1725);
#574=VERTEX_POINT('',#1729);
#575=VERTEX_POINT('',#1731);
#576=VERTEX_POINT('',#1735);
#577=VERTEX_POINT('',#1737);
#578=VERTEX_POINT('',#1741);
#579=VERTEX_POINT('',#1743);
#580=VERTEX_POINT('',#1747);
#581=VERTEX_POINT('',#1749);
#582=VERTEX_POINT('',#1751);
#583=VERTEX_POINT('',#1753);
#584=VERTEX_POINT('',#1757);
#585=VERTEX_POINT('',#1759);
#586=VERTEX_POINT('',#1763);
#587=VERTEX_POINT('',#1765);
#588=VERTEX_POINT('',#1767);
#589=VERTEX_POINT('',#1771);
#590=VERTEX_POINT('',#1773);
#591=LINE('',#1467,#749);
#592=LINE('',#1470,#750);
#593=LINE('',#1472,#751);
#594=LINE('',#1474,#752);
#595=LINE('',#1476,#753);
#596=LINE('',#1478,#754);
#597=LINE('',#1480,#755);
#598=LINE('',#1482,#756);
#599=LINE('',#1484,#757);
#600=LINE('',#1486,#758);
#601=LINE('',#1488,#759);
#602=LINE('',#1490,#760);
#603=LINE('',#1492,#761);
#604=LINE('',#1494,#762);
#605=LINE('',#1496,#763);
#606=LINE('',#1498,#764);
#607=LINE('',#1500,#765);
#608=LINE('',#1502,#766);
#609=LINE('',#1504,#767);
#610=LINE('',#1506,#768);
#611=LINE('',#1508,#769);
#612=LINE('',#1510,#770);
#613=LINE('',#1512,#771);
#614=LINE('',#1514,#772);
#615=LINE('',#1516,#773);
#616=LINE('',#1518,#774);
#617=LINE('',#1520,#775);
#618=LINE('',#1522,#776);
#619=LINE('',#1524,#777);
#620=LINE('',#1526,#778);
#621=LINE('',#1528,#779);
#622=LINE('',#1530,#780);
#623=LINE('',#1532,#781);
#624=LINE('',#1534,#782);
#625=LINE('',#1536,#783);
#626=LINE('',#1538,#784);
#627=LINE('',#1540,#785);
#628=LINE('',#1542,#786);
#629=LINE('',#1544,#787);
#630=LINE('',#1546,#788);
#631=LINE('',#1548,#789);
#632=LINE('',#1550,#790);
#633=LINE('',#1552,#791);
#634=LINE('',#1554,#792);
#635=LINE('',#1556,#793);
#636=LINE('',#1558,#794);
#637=LINE('',#1560,#795);
#638=LINE('',#1562,#796);
#639=LINE('',#1564,#797);
#640=LINE('',#1566,#798);
#641=LINE('',#1568,#799);
#642=LINE('',#1570,#800);
#643=LINE('',#1572,#801);
#644=LINE('',#1574,#802);
#645=LINE('',#1576,#803);
#646=LINE('',#1578,#804);
#647=LINE('',#1580,#805);
#648=LINE('',#1582,#806);
#649=LINE('',#1584,#807);
#650=LINE('',#1586,#808);
#651=LINE('',#1588,#809);
#652=LINE('',#1590,#810);
#653=LINE('',#1592,#811);
#654=LINE('',#1594,#812);
#655=LINE('',#1596,#813);
#656=LINE('',#1598,#814);
#657=LINE('',#1600,#815);
#658=LINE('',#1602,#816);
#659=LINE('',#1604,#817);
#660=LINE('',#1606,#818);
#661=LINE('',#1608,#819);
#662=LINE('',#1610,#820);
#663=LINE('',#1612,#821);
#664=LINE('',#1614,#822);
#665=LINE('',#1616,#823);
#666=LINE('',#1618,#824);
#667=LINE('',#1620,#825);
#668=LINE('',#1622,#826);
#669=LINE('',#1624,#827);
#670=LINE('',#1626,#828);
#671=LINE('',#1628,#829);
#672=LINE('',#1630,#830);
#673=LINE('',#1632,#831);
#674=LINE('',#1634,#832);
#675=LINE('',#1636,#833);
#676=LINE('',#1638,#834);
#677=LINE('',#1640,#835);
#678=LINE('',#1642,#836);
#679=LINE('',#1644,#837);
#680=LINE('',#1646,#838);
#681=LINE('',#1648,#839);
#682=LINE('',#1650,#840);
#683=LINE('',#1652,#841);
#684=LINE('',#1654,#842);
#685=LINE('',#1656,#843);
#686=LINE('',#1658,#844);
#687=LINE('',#1660,#845);
#688=LINE('',#1662,#846);
#689=LINE('',#1664,#847);
#690=LINE('',#1666,#848);
#691=LINE('',#1668,#849);
#692=LINE('',#1670,#850);
#693=LINE('',#1672,#851);
#694=LINE('',#1674,#852);
#695=LINE('',#1676,#853);
#696=LINE('',#1678,#854);
#697=LINE('',#1680,#855);
#698=LINE('',#1682,#856);
#699=LINE('',#1684,#857);
#700=LINE('',#1686,#858);
#701=LINE('',#1688,#859);
#702=LINE('',#1690,#860);
#703=LINE('',#1692,#861);
#704=LINE('',#1694,#862);
#705=LINE('',#1696,#863);
#706=LINE('',#1698,#864);
#707=LINE('',#1700,#865);
#708=LINE('',#1702,#866);
#709=LINE('',#1704,#867);
#710=LINE('',#1706,#868);
#711=LINE('',#1708,#869);
#712=LINE('',#1710,#870);
#713=LINE('',#1712,#871);
#714=LINE('',#1714,#872);
#715=LINE('',#1716,#873);
#716=LINE('',#1718,#874);
#717=LINE('',#1720,#875);
#718=LINE('',#1722,#876);
#719=LINE('',#1724,#877);
#720=LINE('',#1726,#878);
#721=LINE('',#1728,#879);
#722=LINE('',#1730,#880);
#723=LINE('',#1732,#881);
#724=LINE('',#1734,#882);
#725=LINE('',#1736,#883);
#726=LINE('',#1738,#884);
#727=LINE('',#1740,#885);
#728=LINE('',#1742,#886);
#729=LINE('',#1744,#887);
#730=LINE('',#1746,#888);
#731=LINE('',#1748,#889);
#732=LINE('',#1750,#890);
#733=LINE('',#1752,#891);
#734=LINE('',#1754,#892);
#735=LINE('',#1756,#893);
#736=LINE('',#1758,#894);
#737=LINE('',#1760,#895);
#738=LINE('',#1762,#896);
#739=LINE('',#1764,#897);
#740=LINE('',#1766,#898);
#741=LINE('',#1768,#899);
#742=LINE('',#1770,#900);
#743=LINE('',#1772,#901);
#744=LINE('',#1774,#902);
#745=LINE('',#1776,#903);
#746=LINE('',#1777,#904);
#747=LINE('',#1779,#905);
#748=LINE('',#1782,#906);
#749=VECTOR('',#1199,1.);
#750=VECTOR('',#1200,1.);
#751=VECTOR('',#1201,1.);
#752=VECTOR('',#1202,1.);
#753=VECTOR('',#1205,1.);
#754=VECTOR('',#1206,1.);
#755=VECTOR('',#1207,1.);
#756=VECTOR('',#1210,1.);
#757=VECTOR('',#1211,1.);
#758=VECTOR('',#1212,1.);
#759=VECTOR('',#1215,1.);
#760=VECTOR('',#1216,1.);
#761=VECTOR('',#1217,1.);
#762=VECTOR('',#1220,1.);
#763=VECTOR('',#1221,1.);
#764=VECTOR('',#1222,1.);
#765=VECTOR('',#1225,1.);
#766=VECTOR('',#1226,1.);
#767=VECTOR('',#1227,1.);
#768=VECTOR('',#1230,1.);
#769=VECTOR('',#1231,1.);
#770=VECTOR('',#1232,1.);
#771=VECTOR('',#1235,1.);
#772=VECTOR('',#1236,1.);
#773=VECTOR('',#1237,1.);
#774=VECTOR('',#1240,1.);
#775=VECTOR('',#1241,1.);
#776=VECTOR('',#1242,1.);
#777=VECTOR('',#1245,1.);
#778=VECTOR('',#1246,1.);
#779=VECTOR('',#1247,1.);
#780=VECTOR('',#1250,1.);
#781=VECTOR('',#1251,1.);
#782=VECTOR('',#1252,1.);
#783=VECTOR('',#1255,1.);
#784=VECTOR('',#1256,1.);
#785=VECTOR('',#1257,1.);
#786=VECTOR('',#1260,1.);
#787=VECTOR('',#1261,1.);
#788=VECTOR('',#1262,1.);
#789=VECTOR('',#1265,1.);
#790=VECTOR('',#1266,1.);
#791=VECTOR('',#1267,1.);
#792=VECTOR('',#1270,1.);
#793=VECTOR('',#1271,1.);
#794=VECTOR('',#1272,1.);
#795=VECTOR('',#1275,1.);
#796=VECTOR('',#1276,1.);
#797=VECTOR('',#1277,1.);
#798=VECTOR('',#1280,1.);
#799=VECTOR('',#1281,1.);
#800=VECTOR('',#1282,1.);
#801=VECTOR('',#1285,1.);
#802=VECTOR('',#1286,1.);
#803=VECTOR('',#1287,1.);
#804=VECTOR('',#1290,1.);
#805=VECTOR('',#1291,1.);
#806=VECTOR('',#1292,1.);
#807=VECTOR('',#1295,1.);
#808=VECTOR('',#1296,1.);
#809=VECTOR('',#1297,1.);
#810=VECTOR('',#1300,1.);
#811=VECTOR('',#1301,1.);
#812=VECTOR('',#1302,1.);
#813=VECTOR('',#1305,1.);
#814=VECTOR('',#1306,1.);
#815=VECTOR('',#1307,1.);
#816=VECTOR('',#1310,1.);
#817=VECTOR('',#1311,1.);
#818=VECTOR('',#1312,1.);
#819=VECTOR('',#1315,1.);
#820=VECTOR('',#1316,1.);
#821=VECTOR('',#1317,1.);
#822=VECTOR('',#1320,1.);
#823=VECTOR('',#1321,1.);
#824=VECTOR('',#1322,1.);
#825=VECTOR('',#1325,1.);
#826=VECTOR('',#1326,1.);
#827=VECTOR('',#1327,1.);
#828=VECTOR('',#1330,1.);
#829=VECTOR('',#1331,1.);
#830=VECTOR('',#1332,1.);
#831=VECTOR('',#1335,1.);
#832=VECTOR('',#1336,1.);
#833=VECTOR('',#1337,1.);
#834=VECTOR('',#1340,1.);
#835=VECTOR('',#1341,1.);
#836=VECTOR('',#1342,1.);
#837=VECTOR('',#1345,1.);
#838=VECTOR('',#1346,1.);
#839=VECTOR('',#1347,1.);
#840=VECTOR('',#1350,1.);
#841=VECTOR('',#1351,1.);
#842=VECTOR('',#1352,1.);
#843=VECTOR('',#1355,1.);
#844=VECTOR('',#1356,1.);
#845=VECTOR('',#1357,1.);
#846=VECTOR('',#1360,1.);
#847=VECTOR('',#1361,1.);
#848=VECTOR('',#1362,1.);
#849=VECTOR('',#1365,1.);
#850=VECTOR('',#1366,1.);
#851=VECTOR('',#1367,1.);
#852=VECTOR('',#1370,1.);
#853=VECTOR('',#1371,1.);
#854=VECTOR('',#1372,1.);
#855=VECTOR('',#1375,1.);
#856=VECTOR('',#1376,1.);
#857=VECTOR('',#1377,1.);
#858=VECTOR('',#1380,1.);
#859=VECTOR('',#1381,1.);
#860=VECTOR('',#1382,1.);
#861=VECTOR('',#1385,1.);
#862=VECTOR('',#1386,1.);
#863=VECTOR('',#1387,1.);
#864=VECTOR('',#1390,1.);
#865=VECTOR('',#1391,1.);
#866=VECTOR('',#1392,1.);
#867=VECTOR('',#1395,1.);
#868=VECTOR('',#1396,1.);
#869=VECTOR('',#1397,1.);
#870=VECTOR('',#1400,1.);
#871=VECTOR('',#1401,1.);
#872=VECTOR('',#1402,1.);
#873=VECTOR('',#1405,1.);
#874=VECTOR('',#1406,1.);
#875=VECTOR('',#1407,1.);
#876=VECTOR('',#1410,1.);
#877=VECTOR('',#1411,1.);
#878=VECTOR('',#1412,1.);
#879=VECTOR('',#1415,1.);
#880=VECTOR('',#1416,1.);
#881=VECTOR('',#1417,1.);
#882=VECTOR('',#1420,1.);
#883=VECTOR('',#1421,1.);
#884=VECTOR('',#1422,1.);
#885=VECTOR('',#1425,1.);
#886=VECTOR('',#1426,1.);
#887=VECTOR('',#1427,1.);
#888=VECTOR('',#1430,1.);
#889=VECTOR('',#1431,1.);
#890=VECTOR('',#1432,1.);
#891=VECTOR('',#1433,1.);
#892=VECTOR('',#1434,1.);
#893=VECTOR('',#1437,1.);
#894=VECTOR('',#1438,1.);
#895=VECTOR('',#1439,1.);
#896=VECTOR('',#1442,1.);
#897=VECTOR('',#1443,1.);
#898=VECTOR('',#1444,1.);
#899=VECTOR('',#1445,1.);
#900=VECTOR('',#1448,1.);
#901=VECTOR('',#1449,1.);
#902=VECTOR('',#1450,1.);
#903=VECTOR('',#1453,1.);
#904=VECTOR('',#1454,1.);
#905=VECTOR('',#1457,1.);
#906=VECTOR('',#1462,1.);
#907=EDGE_LOOP('',(#12,#13,#14,#15));
#908=EDGE_LOOP('',(#16,#17,#18,#19));
#909=EDGE_LOOP('',(#20,#21,#22,#23));
#910=EDGE_LOOP('',(#24,#25,#26,#27));
#911=EDGE_LOOP('',(#28,#29,#30,#31));
#912=EDGE_LOOP('',(#32,#33,#34,#35));
#913=EDGE_LOOP('',(#36,#37,#38,#39));
#914=EDGE_LOOP('',(#40,#41,#42,#43));
#915=EDGE_LOOP('',(#44,#45,#46,#47));
#916=EDGE_LOOP('',(#48,#49,#50,#51));
#917=EDGE_LOOP('',(#52,#53,#54,#55));
#918=EDGE_LOOP('',(#56,#57,#58,#59));
#919=EDGE_LOOP('',(#60,#61,#62,#63));
#920=EDGE_LOOP('',(#64,#65,#66,#67));
#921=EDGE_LOOP('',(#68,#69,#70,#71));
#922=EDGE_LOOP('',(#72,#73,#74,#75));
#923=EDGE_LOOP('',(#76,#77,#78,#79));
#924=EDGE_LOOP('',(#80,#81,#82,#83));
#925=EDGE_LOOP('',(#84,#85,#86,#87));
#926=EDGE_LOOP('',(#88,#89,#90,#91));
#927=EDGE_LOOP('',(#92,#93,#94,#95));
#928=EDGE_LOOP('',(#96,#97,#98,#99));
#929=EDGE_LOOP('',(#100,#101,#102,#103));
#930=EDGE_LOOP('',(#104,#105,#106,#107));
#931=EDGE_LOOP('',(#108,#109,#110,#111));
#932=EDGE_LOOP('',(#112,#113,#114,#115));
#933=EDGE_LOOP('',(#116,#117,#118,#119));
#934=EDGE_LOOP('',(#120,#121,#122,#123));
#935=EDGE_LOOP('',(#124,#125,#126,#127));
#936=EDGE_LOOP('',(#128,#129,#130,#131));
#937=EDGE_LOOP('',(#132,#133,#134,#135));
#938=EDGE_LOOP('',(#136,#137,#138,#139));
#939=EDGE_LOOP('',(#140,#141,#142,#143));
#940=EDGE_LOOP('',(#144,#145,#146,#147));
#941=EDGE_LOOP('',(#148,#149,#150,#151));
#942=EDGE_LOOP('',(#152,#153,#154,#155));
#943=EDGE_LOOP('',(#156,#157,#158,#159));
#944=EDGE_LOOP('',(#160,#161,#162,#163));
#945=EDGE_LOOP('',(#164,#165,#166,#167));
#946=EDGE_LOOP('',(#168,#169,#170,#171));
#947=EDGE_LOOP('',(#172,#173,#174,#175));
#948=EDGE_LOOP('',(#176,#177,#178,#179));
#949=EDGE_LOOP('',(#180,#181,#182,#183));
#950=EDGE_LOOP('',(#184,#185,#186,#187));
#951=EDGE_LOOP('',(#188,#189,#190,#191));
#952=EDGE_LOOP('',(#192,#193,#194,#195));
#953=EDGE_LOOP('',(#196,#197,#198,#199,#200,#201));
#954=EDGE_LOOP('',(#202,#203,#204,#205));
#955=EDGE_LOOP('',(#206,#207,#208,#209,#210));
#956=EDGE_LOOP('',(#211,#212,#213,#214));
#957=EDGE_LOOP('',(#215,#216,#217,#218));
#958=EDGE_LOOP('',(#219,#220,#221,#222,#223,#224,#225,#226,#227,#228,#229,
#230,#231,#232,#233,#234,#235,#236,#237,#238,#239,#240,#241,#242,#243,#244,
#245,#246,#247,#248,#249,#250,#251,#252,#253,#254,#255,#256,#257,#258,#259,
#260,#261,#262,#263,#264,#265,#266,#267,#268));
#959=EDGE_LOOP('',(#269,#270,#271,#272,#273,#274,#275,#276,#277,#278,#279,
#280,#281,#282,#283,#284,#285,#286,#287,#288,#289,#290,#291,#292,#293,#294,
#295,#296,#297,#298,#299,#300,#301,#302,#303,#304,#305,#306,#307,#308,#309,
#310,#311,#312,#313,#314,#315,#316,#317,#318,#319));
#960=EDGE_LOOP('',(#320,#321,#322,#323));
#961=EDGE_LOOP('',(#324,#325,#326,#327));
#962=FACE_BOUND('',#907,.T.);
#963=FACE_BOUND('',#908,.T.);
#964=FACE_BOUND('',#909,.T.);
#965=FACE_BOUND('',#910,.T.);
#966=FACE_BOUND('',#911,.T.);
#967=FACE_BOUND('',#912,.T.);
#968=FACE_BOUND('',#913,.T.);
#969=FACE_BOUND('',#914,.T.);
#970=FACE_BOUND('',#915,.T.);
#971=FACE_BOUND('',#916,.T.);
#972=FACE_BOUND('',#917,.T.);
#973=FACE_BOUND('',#918,.T.);
#974=FACE_BOUND('',#919,.T.);
#975=FACE_BOUND('',#920,.T.);
#976=FACE_BOUND('',#921,.T.);
#977=FACE_BOUND('',#922,.T.);
#978=FACE_BOUND('',#923,.T.);
#979=FACE_BOUND('',#924,.T.);
#980=FACE_BOUND('',#925,.T.);
#981=FACE_BOUND('',#926,.T.);
#982=FACE_BOUND('',#927,.T.);
#983=FACE_BOUND('',#928,.T.);
#984=FACE_BOUND('',#929,.T.);
#985=FACE_BOUND('',#930,.T.);
#986=FACE_BOUND('',#931,.T.);
#987=FACE_BOUND('',#932,.T.);
#988=FACE_BOUND('',#933,.T.);
#989=FACE_BOUND('',#934,.T.);
#990=FACE_BOUND('',#935,.T.);
#991=FACE_BOUND('',#936,.T.);
#992=FACE_BOUND('',#937,.T.);
#993=FACE_BOUND('',#938,.T.);
#994=FACE_BOUND('',#939,.T.);
#995=FACE_BOUND('',#940,.T.);
#996=FACE_BOUND('',#941,.T.);
#997=FACE_BOUND('',#942,.T.);
#998=FACE_BOUND('',#943,.T.);
#999=FACE_BOUND('',#944,.T.);
#1000=FACE_BOUND('',#945,.T.);
#1001=FACE_BOUND('',#946,.T.);
#1002=FACE_BOUND('',#947,.T.);
#1003=FACE_BOUND('',#948,.T.);
#1004=FACE_BOUND('',#949,.T.);
#1005=FACE_BOUND('',#950,.T.);
#1006=FACE_BOUND('',#951,.T.);
#1007=FACE_BOUND('',#952,.T.);
#1008=FACE_BOUND('',#953,.T.);
#1009=FACE_BOUND('',#954,.T.);
#1010=FACE_BOUND('',#955,.T.);
#1011=FACE_BOUND('',#956,.T.);
#1012=FACE_BOUND('',#957,.T.);
#1013=FACE_BOUND('',#958,.T.);
#1014=FACE_BOUND('',#959,.T.);
#1015=FACE_BOUND('',#960,.T.);
#1016=FACE_BOUND('',#961,.T.);
#1017=PLANE('',#1140);
#1018=PLANE('',#1141);
#1019=PLANE('',#1142);
#1020=PLANE('',#1143);
#1021=PLANE('',#1144);
#1022=PLANE('',#1145);
#1023=PLANE('',#1146);
#1024=PLANE('',#1147);
#1025=PLANE('',#1148);
#1026=PLANE('',#1149);
#1027=PLANE('',#1150);
#1028=PLANE('',#1151);
#1029=PLANE('',#1152);
#1030=PLANE('',#1153);
#1031=PLANE('',#1154);
#1032=PLANE('',#1155);
#1033=PLANE('',#1156);
#1034=PLANE('',#1157);
#1035=PLANE('',#1158);
#1036=PLANE('',#1159);
#1037=PLANE('',#1160);
#1038=PLANE('',#1161);
#1039=PLANE('',#1162);
#1040=PLANE('',#1163);
#1041=PLANE('',#1164);
#1042=PLANE('',#1165);
#1043=PLANE('',#1166);
#1044=PLANE('',#1167);
#1045=PLANE('',#1168);
#1046=PLANE('',#1169);
#1047=PLANE('',#1170);
#1048=PLANE('',#1171);
#1049=PLANE('',#1172);
#1050=PLANE('',#1173);
#1051=PLANE('',#1174);
#1052=PLANE('',#1175);
#1053=PLANE('',#1176);
#1054=PLANE('',#1177);
#1055=PLANE('',#1178);
#1056=PLANE('',#1179);
#1057=PLANE('',#1180);
#1058=PLANE('',#1181);
#1059=PLANE('',#1182);
#1060=PLANE('',#1183);
#1061=PLANE('',#1184);
#1062=PLANE('',#1185);
#1063=PLANE('',#1186);
#1064=PLANE('',#1187);
#1065=PLANE('',#1188);
#1066=PLANE('',#1189);
#1067=PLANE('',#1190);
#1068=PLANE('',#1191);
#1069=PLANE('',#1192);
#1070=PLANE('',#1193);
#1071=PLANE('',#1194);
#1072=ADVANCED_FACE('',(#962),#1017,.F.);
#1073=ADVANCED_FACE('',(#963),#1018,.T.);
#1074=ADVANCED_FACE('',(#964),#1019,.T.);
#1075=ADVANCED_FACE('',(#965),#1020,.T.);
#1076=ADVANCED_FACE('',(#966),#1021,.F.);
#1077=ADVANCED_FACE('',(#967),#1022,.T.);
#1078=ADVANCED_FACE('',(#968),#1023,.T.);
#1079=ADVANCED_FACE('',(#969),#1024,.T.);
#1080=ADVANCED_FACE('',(#970),#1025,.F.);
#1081=ADVANCED_FACE('',(#971),#1026,.T.);
#1082=ADVANCED_FACE('',(#972),#1027,.T.);
#1083=ADVANCED_FACE('',(#973),#1028,.T.);
#1084=ADVANCED_FACE('',(#974),#1029,.F.);
#1085=ADVANCED_FACE('',(#975),#1030,.T.);
#1086=ADVANCED_FACE('',(#976),#1031,.T.);
#1087=ADVANCED_FACE('',(#977),#1032,.T.);
#1088=ADVANCED_FACE('',(#978),#1033,.F.);
#1089=ADVANCED_FACE('',(#979),#1034,.T.);
#1090=ADVANCED_FACE('',(#980),#1035,.T.);
#1091=ADVANCED_FACE('',(#981),#1036,.T.);
#1092=ADVANCED_FACE('',(#982),#1037,.F.);
#1093=ADVANCED_FACE('',(#983),#1038,.T.);
#1094=ADVANCED_FACE('',(#984),#1039,.T.);
#1095=ADVANCED_FACE('',(#985),#1040,.T.);
#1096=ADVANCED_FACE('',(#986),#1041,.F.);
#1097=ADVANCED_FACE('',(#987),#1042,.T.);
#1098=ADVANCED_FACE('',(#988),#1043,.T.);
#1099=ADVANCED_FACE('',(#989),#1044,.T.);
#1100=ADVANCED_FACE('',(#990),#1045,.F.);
#1101=ADVANCED_FACE('',(#991),#1046,.T.);
#1102=ADVANCED_FACE('',(#992),#1047,.T.);
#1103=ADVANCED_FACE('',(#993),#1048,.T.);
#1104=ADVANCED_FACE('',(#994),#1049,.F.);
#1105=ADVANCED_FACE('',(#995),#1050,.T.);
#1106=ADVANCED_FACE('',(#996),#1051,.T.);
#1107=ADVANCED_FACE('',(#997),#1052,.T.);
#1108=ADVANCED_FACE('',(#998),#1053,.F.);
#1109=ADVANCED_FACE('',(#999),#1054,.T.);
#1110=ADVANCED_FACE('',(#1000),#1055,.T.);
#1111=ADVANCED_FACE('',(#1001),#1056,.T.);
#1112=ADVANCED_FACE('',(#1002),#1057,.F.);
#1113=ADVANCED_FACE('',(#1003),#1058,.T.);
#1114=ADVANCED_FACE('',(#1004),#1059,.T.);
#1115=ADVANCED_FACE('',(#1005),#1060,.T.);
#1116=ADVANCED_FACE('',(#1006),#1061,.F.);
#1117=ADVANCED_FACE('',(#1007),#1062,.T.);
#1118=ADVANCED_FACE('',(#1008),#1063,.T.);
#1119=ADVANCED_FACE('',(#1009),#1064,.F.);
#1120=ADVANCED_FACE('',(#1010),#1065,.T.);
#1121=ADVANCED_FACE('',(#1011),#1066,.T.);
#1122=ADVANCED_FACE('',(#1012),#1067,.T.);
#1123=ADVANCED_FACE('',(#1013),#1068,.F.);
#1124=ADVANCED_FACE('',(#1014),#1069,.T.);
#1125=ADVANCED_FACE('',(#1015),#1070,.T.);
#1126=ADVANCED_FACE('',(#1016),#1071,.T.);
#1127=CLOSED_SHELL('',(#1072,#1073,#1074,#1075,#1076,#1077,#1078,#1079,
#1080,#1081,#1082,#1083,#1084,#1085,#1086,#1087,#1088,#1089,#1090,#1091,
#1092,#1093,#1094,#1095,#1096,#1097,#1098,#1099,#1100,#1101,#1102,#1103,
#1104,#1105,#1106,#1107,#1108,#1109,#1110,#1111,#1112,#1113,#1114,#1115,
#1116,#1117,#1118,#1119,#1120,#1121,#1122,#1123,#1124,#1125,#1126));
#1128=STYLED_ITEM('',(#1129),#1136);
#1129=PRESENTATION_STYLE_ASSIGNMENT((#1130));
#1130=SURFACE_STYLE_USAGE(.BOTH.,#1131);
#1131=SURFACE_SIDE_STYLE('',(#1132));
#1132=SURFACE_STYLE_FILL_AREA(#1133);
#1133=FILL_AREA_STYLE('',(#1134));
#1134=FILL_AREA_STYLE_COLOUR('',#1135);
#1135=COLOUR_RGB('',0.647058823529412,0.647058823529412,0.647058823529412);
#1136=MANIFOLD_SOLID_BREP('Part 2',#1127);
#1137=SHAPE_DEFINITION_REPRESENTATION(#1790,#1138);
#1138=SHAPE_REPRESENTATION('Part 2',(#1139),#1785);
#1139=AXIS2_PLACEMENT_3D('',#1465,#1195,#1196);
#1140=AXIS2_PLACEMENT_3D('',#1466,#1197,#1198);
#1141=AXIS2_PLACEMENT_3D('',#1475,#1203,#1204);
#1142=AXIS2_PLACEMENT_3D('',#1481,#1208,#1209);
#1143=AXIS2_PLACEMENT_3D('',#1487,#1213,#1214);
#1144=AXIS2_PLACEMENT_3D('',#1493,#1218,#1219);
#1145=AXIS2_PLACEMENT_3D('',#1499,#1223,#1224);
#1146=AXIS2_PLACEMENT_3D('',#1505,#1228,#1229);
#1147=AXIS2_PLACEMENT_3D('',#1511,#1233,#1234);
#1148=AXIS2_PLACEMENT_3D('',#1517,#1238,#1239);
#1149=AXIS2_PLACEMENT_3D('',#1523,#1243,#1244);
#1150=AXIS2_PLACEMENT_3D('',#1529,#1248,#1249);
#1151=AXIS2_PLACEMENT_3D('',#1535,#1253,#1254);
#1152=AXIS2_PLACEMENT_3D('',#1541,#1258,#1259);
#1153=AXIS2_PLACEMENT_3D('',#1547,#1263,#1264);
#1154=AXIS2_PLACEMENT_3D('',#1553,#1268,#1269);
#1155=AXIS2_PLACEMENT_3D('',#1559,#1273,#1274);
#1156=AXIS2_PLACEMENT_3D('',#1565,#1278,#1279);
#1157=AXIS2_PLACEMENT_3D('',#1571,#1283,#1284);
#1158=AXIS2_PLACEMENT_3D('',#1577,#1288,#1289);
#1159=AXIS2_PLACEMENT_3D('',#1583,#1293,#1294);
#1160=AXIS2_PLACEMENT_3D('',#1589,#1298,#1299);
#1161=AXIS2_PLACEMENT_3D('',#1595,#1303,#1304);
#1162=AXIS2_PLACEMENT_3D('',#1601,#1308,#1309);
#1163=AXIS2_PLACEMENT_3D('',#1607,#1313,#1314);
#1164=AXIS2_PLACEMENT_3D('',#1613,#1318,#1319);
#1165=AXIS2_PLACEMENT_3D('',#1619,#1323,#1324);
#1166=AXIS2_PLACEMENT_3D('',#1625,#1328,#1329);
#1167=AXIS2_PLACEMENT_3D('',#1631,#1333,#1334);
#1168=AXIS2_PLACEMENT_3D('',#1637,#1338,#1339);
#1169=AXIS2_PLACEMENT_3D('',#1643,#1343,#1344);
#1170=AXIS2_PLACEMENT_3D('',#1649,#1348,#1349);
#1171=AXIS2_PLACEMENT_3D('',#1655,#1353,#1354);
#1172=AXIS2_PLACEMENT_3D('',#1661,#1358,#1359);
#1173=AXIS2_PLACEMENT_3D('',#1667,#1363,#1364);
#1174=AXIS2_PLACEMENT_3D('',#1673,#1368,#1369);
#1175=AXIS2_PLACEMENT_3D('',#1679,#1373,#1374);
#1176=AXIS2_PLACEMENT_3D('',#1685,#1378,#1379);
#1177=AXIS2_PLACEMENT_3D('',#1691,#1383,#1384);
#1178=AXIS2_PLACEMENT_3D('',#1697,#1388,#1389);
#1179=AXIS2_PLACEMENT_3D('',#1703,#1393,#1394);
#1180=AXIS2_PLACEMENT_3D('',#1709,#1398,#1399);
#1181=AXIS2_PLACEMENT_3D('',#1715,#1403,#1404);
#1182=AXIS2_PLACEMENT_3D('',#1721,#1408,#1409);
#1183=AXIS2_PLACEMENT_3D('',#1727,#1413,#1414);
#1184=AXIS2_PLACEMENT_3D('',#1733,#1418,#1419);
#1185=AXIS2_PLACEMENT_3D('',#1739,#1423,#1424);
#1186=AXIS2_PLACEMENT_3D('',#1745,#1428,#1429);
#1187=AXIS2_PLACEMENT_3D('',#1755,#1435,#1436);
#1188=AXIS2_PLACEMENT_3D('',#1761,#1440,#1441);
#1189=AXIS2_PLACEMENT_3D('',#1769,#1446,#1447);
#1190=AXIS2_PLACEMENT_3D('',#1775,#1451,#1452);
#1191=AXIS2_PLACEMENT_3D('',#1778,#1455,#1456);
#1192=AXIS2_PLACEMENT_3D('',#1780,#1458,#1459);
#1193=AXIS2_PLACEMENT_3D('',#1781,#1460,#1461);
#1194=AXIS2_PLACEMENT_3D('',#1783,#1463,#1464);
#1195=DIRECTION('',(0.,0.,1.));
#1196=DIRECTION('',(1.,0.,0.));
#1197=DIRECTION('',(0.171010071662835,0.296198132726022,-0.939692620785909));
#1198=DIRECTION('',(0.,0.953741925422948,0.30062657848322));
#1199=DIRECTION('',(-0.469846310392955,-0.813797681349374,-0.342020143325668));
#1200=DIRECTION('',(-0.866025403784438,0.5,-1.25940924355916E-15));
#1201=DIRECTION('',(-0.469846310392955,-0.813797681349374,-0.342020143325668));
#1202=DIRECTION('',(-0.866025403784438,0.5,-1.25940924355916E-15));
#1203=DIRECTION('',(-0.5,-0.866025403784438,-1.37919818181241E-15));
#1204=DIRECTION('',(-0.866025403784438,0.5,0.));
#1205=DIRECTION('',(-1.78027948958938E-15,-5.64716040523276E-16,1.));
#1206=DIRECTION('',(-1.78027948958938E-15,-5.64716040523276E-16,1.));
#1207=DIRECTION('',(-0.866025403784438,0.5,-1.25940924355916E-15));
#1208=DIRECTION('',(-0.171010071662833,-0.296198132726023,-0.939692620785909));
#1209=DIRECTION('',(0.,0.953741925422948,-0.300626578483221));
#1210=DIRECTION('',(-0.469846310392956,-0.813797681349373,0.342020143325667));
#1211=DIRECTION('',(-0.469846310392956,-0.813797681349373,0.342020143325667));
#1212=DIRECTION('',(-0.866025403784438,0.5,-1.25940924355916E-15));
#1213=DIRECTION('',(-0.5,-0.866025403784438,-8.42568685878613E-16));
#1214=DIRECTION('',(-0.866025403784438,0.5,0.));
#1215=DIRECTION('',(-1.51196474162248E-15,-9.99812646245679E-17,1.));
#1216=DIRECTION('',(-1.51196474162248E-15,-9.99812646245679E-17,1.));
#1217=DIRECTION('',(-0.866025403784438,0.5,-1.25940924355916E-15));
#1218=DIRECTION('',(0.171010071662835,0.296198132726022,-0.939692620785909));
#1219=DIRECTION('',(0.,0.953741925422948,0.30062657848322));
#1220=DIRECTION('',(-0.469846310392955,-0.813797681349374,-0.342020143325668));
#1221=DIRECTION('',(-0.469846310392955,-0.813797681349374,-0.342020143325668));
#1222=DIRECTION('',(-0.866025403784438,0.5,-1.25940924355916E-15));
#1223=DIRECTION('',(-0.5,-0.866025403784438,-1.37919818181241E-15));
#1224=DIRECTION('',(-0.866025403784438,0.5,0.));
#1225=DIRECTION('',(-1.78027948958938E-15,-5.64716040523276E-16,1.));
#1226=DIRECTION('',(-1.78027948958938E-15,-5.64716040523276E-16,1.));
#1227=DIRECTION('',(-0.866025403784438,0.5,-1.25940924355916E-15));
#1228=DIRECTION('',(-0.171010071662833,-0.296198132726023,-0.939692620785909));
#1229=DIRECTION('',(0.,0.953741925422948,-0.300626578483221));
#1230=DIRECTION('',(-0.469846310392956,-0.813797681349373,0.342020143325667));
#1231=DIRECTION('',(-0.469846310392956,-0.813797681349373,0.342020143325667));
#1232=DIRECTION('',(-0.866025403784438,0.5,-1.25940924355916E-15));
#1233=DIRECTION('',(-0.5,-0.866025403784438,-8.42568685878613E-16));
#1234=DIRECTION('',(-0.866025403784438,0.5,0.));
#1235=DIRECTION('',(-1.51196474162248E-15,-9.99812646245679E-17,1.));
#1236=DIRECTION('',(-1.51196474162248E-15,-9.99812646245679E-17,1.));
#1237=DIRECTION('',(-0.866025403784438,0.5,-1.25940924355916E-15));
#1238=DIRECTION('',(0.171010071662835,0.296198132726022,-0.939692620785909));
#1239=DIRECTION('',(0.,0.953741925422948,0.30062657848322));
#1240=DIRECTION('',(-0.469846310392955,-0.813797681349374,-0.342020143325667));
#1241=DIRECTION('',(-0.469846310392955,-0.813797681349374,-0.342020143325667));
#1242=DIRECTION('',(-0.866025403784438,0.5,-1.25940924355916E-15));
#1243=DIRECTION('',(-0.5,-0.866025403784438,-1.37919818181241E-15));
#1244=DIRECTION('',(-0.866025403784438,0.5,0.));
#1245=DIRECTION('',(-1.78027948958938E-15,-5.64716040523276E-16,1.));
#1246=DIRECTION('',(-1.78027948958938E-15,-5.64716040523276E-16,1.));
#1247=DIRECTION('',(-0.866025403784438,0.5,-1.25940924355916E-15));
#1248=DIRECTION('',(-0.171010071662833,-0.296198132726023,-0.939692620785909));
#1249=DIRECTION('',(0.,0.953741925422948,-0.300626578483221));
#1250=DIRECTION('',(-0.469846310392956,-0.813797681349373,0.342020143325667));
#1251=DIRECTION('',(-0.469846310392956,-0.813797681349373,0.342020143325667));
#1252=DIRECTION('',(-0.866025403784438,0.5,-1.25940924355916E-15));
#1253=DIRECTION('',(-0.5,-0.866025403784438,-8.42568685878613E-16));
#1254=DIRECTION('',(-0.866025403784438,0.5,0.));
#1255=DIRECTION('',(-1.51196474162248E-15,-9.99812646245679E-17,1.));
#1256=DIRECTION('',(-1.51196474162248E-15,-9.99812646245679E-17,1.));
#1257=DIRECTION('',(-0.866025403784438,0.5,-1.25940924355916E-15));
#1258=DIRECTION('',(0.171010071662835,0.296198132726022,-0.939692620785909));
#1259=DIRECTION('',(0.,0.953741925422948,0.30062657848322));
#1260=DIRECTION('',(-0.469846310392955,-0.813797681349374,-0.342020143325667));
#1261=DIRECTION('',(-0.469846310392955,-0.813797681349374,-0.342020143325667));
#1262=DIRECTION('',(-0.866025403784438,0.5,-1.25940924355916E-15));
#1263=DIRECTION('',(-0.5,-0.866025403784438,-1.37919818181242E-15));
#1264=DIRECTION('',(-0.866025403784438,0.5,0.));
#1265=DIRECTION('',(-1.78027948958938E-15,-5.64716040523283E-16,1.));
#1266=DIRECTION('',(-1.78027948958938E-15,-5.64716040523283E-16,1.));
#1267=DIRECTION('',(-0.866025403784438,0.5,-1.25940924355916E-15));
#1268=DIRECTION('',(-0.171010071662833,-0.296198132726023,-0.939692620785909));
#1269=DIRECTION('',(0.,0.953741925422948,-0.300626578483221));
#1270=DIRECTION('',(-0.469846310392956,-0.813797681349373,0.342020143325667));
#1271=DIRECTION('',(-0.469846310392956,-0.813797681349373,0.342020143325667));
#1272=DIRECTION('',(-0.866025403784438,0.5,-1.25940924355916E-15));
#1273=DIRECTION('',(-0.5,-0.866025403784438,-8.42568685878608E-16));
#1274=DIRECTION('',(-0.866025403784438,0.5,0.));
#1275=DIRECTION('',(-1.51196474162248E-15,-9.99812646245629E-17,1.));
#1276=DIRECTION('',(-1.51196474162248E-15,-9.99812646245629E-17,1.));
#1277=DIRECTION('',(-0.866025403784438,0.5,-1.25940924355916E-15));
#1278=DIRECTION('',(0.171010071662837,0.296198132726025,-0.939692620785908));
#1279=DIRECTION('',(0.,0.953741925422947,0.300626578483223));
#1280=DIRECTION('',(-0.469846310392955,-0.813797681349373,-0.34202014332567));
#1281=DIRECTION('',(-0.469846310392955,-0.813797681349373,-0.34202014332567));
#1282=DIRECTION('',(-0.866025403784438,0.5,-1.25940924355916E-15));
#1283=DIRECTION('',(-0.5,-0.866025403784438,-1.37919818181242E-15));
#1284=DIRECTION('',(-0.866025403784438,0.5,0.));
#1285=DIRECTION('',(-1.78027948958938E-15,-5.64716040523283E-16,1.));
#1286=DIRECTION('',(-1.78027948958938E-15,-5.64716040523283E-16,1.));
#1287=DIRECTION('',(-0.866025403784438,0.5,-1.25940924355916E-15));
#1288=DIRECTION('',(-0.171010071662833,-0.296198132726023,-0.939692620785909));
#1289=DIRECTION('',(0.,0.953741925422948,-0.300626578483221));
#1290=DIRECTION('',(-0.469846310392956,-0.813797681349373,0.342020143325667));
#1291=DIRECTION('',(-0.469846310392956,-0.813797681349373,0.342020143325667));
#1292=DIRECTION('',(-0.866025403784438,0.5,-1.25940924355916E-15));
#1293=DIRECTION('',(-0.5,-0.866025403784438,-8.42568685878608E-16));
#1294=DIRECTION('',(-0.866025403784438,0.5,0.));
#1295=DIRECTION('',(-1.51196474162248E-15,-9.99812646245629E-17,1.));
#1296=DIRECTION('',(-1.51196474162248E-15,-9.99812646245629E-17,1.));
#1297=DIRECTION('',(-0.866025403784438,0.5,-1.25940924355916E-15));
#1298=DIRECTION('',(0.171010071662837,0.296198132726025,-0.939692620785908));
#1299=DIRECTION('',(0.,0.953741925422947,0.300626578483223));
#1300=DIRECTION('',(-0.469846310392955,-0.813797681349373,-0.34202014332567));
#1301=DIRECTION('',(-0.469846310392955,-0.813797681349373,-0.34202014332567));
#1302=DIRECTION('',(-0.866025403784438,0.5,-1.25940924355916E-15));
#1303=DIRECTION('',(-0.5,-0.866025403784438,-1.37919818181242E-15));
#1304=DIRECTION('',(-0.866025403784438,0.5,0.));
#1305=DIRECTION('',(-1.78027948958938E-15,-5.64716040523283E-16,1.));
#1306=DIRECTION('',(-1.78027948958938E-15,-5.64716040523283E-16,1.));
#1307=DIRECTION('',(-0.866025403784438,0.5,-1.25940924355916E-15));
#1308=DIRECTION('',(-0.171010071662833,-0.296198132726023,-0.939692620785909));
#1309=DIRECTION('',(0.,0.953741925422948,-0.300626578483221));
#1310=DIRECTION('',(-0.469846310392956,-0.813797681349373,0.342020143325667));
#1311=DIRECTION('',(-0.469846310392956,-0.813797681349373,0.342020143325667));
#1312=DIRECTION('',(-0.866025403784438,0.5,-1.25940924355916E-15));
#1313=DIRECTION('',(-0.5,-0.866025403784438,-8.42568685878608E-16));
#1314=DIRECTION('',(-0.866025403784438,0.5,0.));
#1315=DIRECTION('',(-1.51196474162248E-15,-9.99812646245629E-17,1.));
#1316=DIRECTION('',(-1.51196474162248E-15,-9.99812646245629E-17,1.));
#1317=DIRECTION('',(-0.866025403784438,0.5,-1.25940924355916E-15));
#1318=DIRECTION('',(0.171010071662837,0.296198132726025,-0.939692620785908));
#1319=DIRECTION('',(0.,0.953741925422947,0.300626578483223));
#1320=DIRECTION('',(-0.469846310392955,-0.813797681349373,-0.34202014332567));
#1321=DIRECTION('',(-0.469846310392955,-0.813797681349373,-0.34202014332567));
#1322=DIRECTION('',(-0.866025403784438,0.5,-1.25940924355916E-15));
#1323=DIRECTION('',(-0.5,-0.866025403784438,-1.37919818181242E-15));
#1324=DIRECTION('',(-0.866025403784438,0.5,0.));
#1325=DIRECTION('',(-1.78027948958938E-15,-5.64716040523283E-16,1.));
#1326=DIRECTION('',(-1.78027948958938E-15,-5.64716040523283E-16,1.));
#1327=DIRECTION('',(-0.866025403784438,0.5,-1.25940924355916E-15));
#1328=DIRECTION('',(-0.171010071662833,-0.296198132726023,-0.939692620785909));
#1329=DIRECTION('',(0.,0.953741925422948,-0.300626578483221));
#1330=DIRECTION('',(-0.469846310392956,-0.813797681349373,0.342020143325667));
#1331=DIRECTION('',(-0.469846310392956,-0.813797681349373,0.342020143325667));
#1332=DIRECTION('',(-0.866025403784438,0.5,-1.25940924355916E-15));
#1333=DIRECTION('',(-0.5,-0.866025403784438,-8.42568685878608E-16));
#1334=DIRECTION('',(-0.866025403784438,0.5,0.));
#1335=DIRECTION('',(-1.51196474162248E-15,-9.99812646245629E-17,1.));
#1336=DIRECTION('',(-1.51196474162248E-15,-9.99812646245629E-17,1.));
#1337=DIRECTION('',(-0.866025403784438,0.5,-1.25940924355916E-15));
#1338=DIRECTION('',(0.171010071662837,0.296198132726025,-0.939692620785908));
#1339=DIRECTION('',(0.,0.953741925422947,0.300626578483222));
#1340=DIRECTION('',(-0.469846310392955,-0.813797681349373,-0.34202014332567));
#1341=DIRECTION('',(-0.469846310392955,-0.813797681349373,-0.34202014332567));
#1342=DIRECTION('',(-0.866025403784438,0.5,-1.25940924355916E-15));
#1343=DIRECTION('',(-0.5,-0.866025403784438,-1.37919818181242E-15));
#1344=DIRECTION('',(-0.866025403784438,0.5,0.));
#1345=DIRECTION('',(-1.78027948958938E-15,-5.64716040523283E-16,1.));
#1346=DIRECTION('',(-1.78027948958938E-15,-5.64716040523283E-16,1.));
#1347=DIRECTION('',(-0.866025403784438,0.5,-1.25940924355916E-15));
#1348=DIRECTION('',(-0.171010071662833,-0.296198132726023,-0.939692620785909));
#1349=DIRECTION('',(0.,0.953741925422948,-0.300626578483221));
#1350=DIRECTION('',(-0.469846310392956,-0.813797681349373,0.342020143325667));
#1351=DIRECTION('',(-0.469846310392956,-0.813797681349373,0.342020143325667));
#1352=DIRECTION('',(-0.866025403784438,0.5,-1.25940924355916E-15));
#1353=DIRECTION('',(-0.5,-0.866025403784438,-8.42568685878608E-16));
#1354=DIRECTION('',(-0.866025403784438,0.5,0.));
#1355=DIRECTION('',(-1.51196474162248E-15,-9.99812646245629E-17,1.));
#1356=DIRECTION('',(-1.51196474162248E-15,-9.99812646245629E-17,1.));
#1357=DIRECTION('',(-0.866025403784438,0.5,-1.25940924355916E-15));
#1358=DIRECTION('',(0.171010071662837,0.296198132726025,-0.939692620785908));
#1359=DIRECTION('',(0.,0.953741925422947,0.300626578483223));
#1360=DIRECTION('',(-0.469846310392955,-0.813797681349373,-0.34202014332567));
#1361=DIRECTION('',(-0.469846310392955,-0.813797681349373,-0.34202014332567));
#1362=DIRECTION('',(-0.866025403784438,0.5,-1.25940924355916E-15));
#1363=DIRECTION('',(-0.5,-0.866025403784438,-1.37919818181242E-15));
#1364=DIRECTION('',(-0.866025403784438,0.5,0.));
#1365=DIRECTION('',(-1.78027948958938E-15,-5.64716040523283E-16,1.));
#1366=DIRECTION('',(-1.78027948958938E-15,-5.64716040523283E-16,1.));
#1367=DIRECTION('',(-0.866025403784438,0.5,-1.25940924355916E-15));
#1368=DIRECTION('',(-0.171010071662833,-0.296198132726023,-0.939692620785909));
#1369=DIRECTION('',(0.,0.953741925422948,-0.300626578483221));
#1370=DIRECTION('',(-0.469846310392956,-0.813797681349373,0.342020143325667));
#1371=DIRECTION('',(-0.469846310392956,-0.813797681349373,0.342020143325667));
#1372=DIRECTION('',(-0.866025403784438,0.5,-1.25940924355916E-15));
#1373=DIRECTION('',(-0.5,-0.866025403784438,-8.42568685878608E-16));
#1374=DIRECTION('',(-0.866025403784438,0.5,0.));
#1375=DIRECTION('',(-1.51196474162248E-15,-9.99812646245629E-17,1.));
#1376=DIRECTION('',(-1.51196474162248E-15,-9.99812646245629E-17,1.));
#1377=DIRECTION('',(-0.866025403784438,0.5,-1.25940924355916E-15));
#1378=DIRECTION('',(0.171010071662837,0.296198132726025,-0.939692620785908));
#1379=DIRECTION('',(0.,0.953741925422947,0.300626578483223));
#1380=DIRECTION('',(-0.469846310392955,-0.813797681349373,-0.34202014332567));
#1381=DIRECTION('',(-0.469846310392955,-0.813797681349373,-0.34202014332567));
#1382=DIRECTION('',(-0.866025403784438,0.5,-1.25940924355916E-15));
#1383=DIRECTION('',(-0.5,-0.866025403784438,-1.37919818181242E-15));
#1384=DIRECTION('',(-0.866025403784438,0.5,0.));
#1385=DIRECTION('',(-1.78027948958938E-15,-5.64716040523283E-16,1.));
#1386=DIRECTION('',(-1.78027948958938E-15,-5.64716040523283E-16,1.));
#1387=DIRECTION('',(-0.866025403784438,0.5,-1.25940924355916E-15));
#1388=DIRECTION('',(-0.171010071662833,-0.296198132726023,-0.939692620785909));
#1389=DIRECTION('',(0.,0.953741925422948,-0.300626578483221));
#1390=DIRECTION('',(-0.469846310392956,-0.813797681349373,0.342020143325667));
#1391=DIRECTION('',(-0.469846310392956,-0.813797681349373,0.342020143325667));
#1392=DIRECTION('',(-0.866025403784438,0.5,-1.25940924355916E-15));
#1393=DIRECTION('',(-0.5,-0.866025403784438,-8.42568685878608E-16));
#1394=DIRECTION('',(-0.866025403784438,0.5,0.));
#1395=DIRECTION('',(-1.51196474162248E-15,-9.99812646245629E-17,1.));
#1396=DIRECTION('',(-1.51196474162248E-15,-9.99812646245629E-17,1.));
#1397=DIRECTION('',(-0.866025403784438,0.5,-1.25940924355916E-15));
#1398=DIRECTION('',(0.171010071662835,0.296198132726022,-0.939692620785909));
#1399=DIRECTION('',(0.,0.953741925422948,0.30062657848322));
#1400=DIRECTION('',(-0.469846310392955,-0.813797681349374,-0.342020143325668));
#1401=DIRECTION('',(-0.469846310392955,-0.813797681349374,-0.342020143325668));
#1402=DIRECTION('',(-0.866025403784438,0.5,-1.25940924355916E-15));
#1403=DIRECTION('',(-0.5,-0.866025403784438,-1.3791981818124E-15));
#1404=DIRECTION('',(-0.866025403784438,0.5,0.));
#1405=DIRECTION('',(-1.78027948958938E-15,-5.64716040523269E-16,1.));
#1406=DIRECTION('',(-1.78027948958938E-15,-5.64716040523269E-16,1.));
#1407=DIRECTION('',(-0.866025403784438,0.5,-1.25940924355916E-15));
#1408=DIRECTION('',(-0.171010071662833,-0.296198132726023,-0.939692620785909));
#1409=DIRECTION('',(0.,0.953741925422948,-0.300626578483221));
#1410=DIRECTION('',(-0.469846310392956,-0.813797681349373,0.342020143325667));
#1411=DIRECTION('',(-0.469846310392956,-0.813797681349373,0.342020143325667));
#1412=DIRECTION('',(-0.866025403784438,0.5,-1.25940924355916E-15));
#1413=DIRECTION('',(-0.5,-0.866025403784438,-8.42568685878608E-16));
#1414=DIRECTION('',(-0.866025403784438,0.5,0.));
#1415=DIRECTION('',(-1.51196474162248E-15,-9.99812646245629E-17,1.));
#1416=DIRECTION('',(-1.51196474162248E-15,-9.99812646245629E-17,1.));
#1417=DIRECTION('',(-0.866025403784438,0.5,-1.25940924355916E-15));
#1418=DIRECTION('',(0.171010071662835,0.296198132726022,-0.939692620785909));
#1419=DIRECTION('',(0.,0.953741925422948,0.30062657848322));
#1420=DIRECTION('',(-0.469846310392955,-0.813797681349374,-0.342020143325667));
#1421=DIRECTION('',(-0.469846310392955,-0.813797681349374,-0.342020143325667));
#1422=DIRECTION('',(-0.866025403784438,0.5,-1.25940924355916E-15));
#1423=DIRECTION('',(-1.09068039868317E-15,6.29704621779581E-16,1.));
#1424=DIRECTION('',(1.,0.,1.09068039868317E-15));
#1425=DIRECTION('',(0.5,0.866025403784438,-6.99112569812565E-32));
#1426=DIRECTION('',(0.5,0.866025403784438,-6.99112569812565E-32));
#1427=DIRECTION('',(-0.866025403784438,0.5,-1.25940924355916E-15));
#1428=DIRECTION('',(0.5,0.866025403784438,5.91621034498423E-16));
#1429=DIRECTION('',(0.866025403784438,-0.5,0.));
#1430=DIRECTION('',(1.38649091593239E-15,-1.17345776490718E-16,-1.));
#1431=DIRECTION('',(1.38649091593239E-15,-1.17345776490718E-16,-1.));
#1432=DIRECTION('',(-0.866025403784438,0.5,-1.25940924355916E-15));
#1433=DIRECTION('',(1.38649091593239E-15,-1.17345776490718E-16,-1.));
#1434=DIRECTION('',(-0.866025403784438,0.5,-1.25940924355916E-15));
#1435=DIRECTION('',(-1.09068039868317E-15,6.29704621779581E-16,1.));
#1436=DIRECTION('',(1.,0.,1.09068039868317E-15));
#1437=DIRECTION('',(0.5,0.866025403784438,-6.99112569812565E-32));
#1438=DIRECTION('',(0.5,0.866025403784438,-6.99112569812565E-32));
#1439=DIRECTION('',(-0.866025403784438,0.5,-1.25940924355916E-15));
#1440=DIRECTION('',(-0.5,-0.866025403784438,-1.37919818181241E-15));
#1441=DIRECTION('',(-0.866025403784438,0.5,0.));
#1442=DIRECTION('',(-1.78027948958938E-15,-5.64716040523276E-16,1.));
#1443=DIRECTION('',(-1.78027948958938E-15,-5.64716040523276E-16,1.));
#1444=DIRECTION('',(-0.866025403784438,0.5,-1.25940924355916E-15));
#1445=DIRECTION('',(-0.866025403784438,0.5,-1.25940924355916E-15));
#1446=DIRECTION('',(-0.171010071662833,-0.296198132726023,-0.939692620785909));
#1447=DIRECTION('',(0.,0.953741925422948,-0.300626578483221));
#1448=DIRECTION('',(-0.469846310392956,-0.813797681349373,0.342020143325667));
#1449=DIRECTION('',(-0.469846310392956,-0.813797681349373,0.342020143325667));
#1450=DIRECTION('',(-0.866025403784438,0.5,-1.25940924355916E-15));
#1451=DIRECTION('',(-0.5,-0.866025403784438,-8.42568685878613E-16));
#1452=DIRECTION('',(-0.866025403784438,0.5,0.));
#1453=DIRECTION('',(-1.51196474162248E-15,-9.99812646245679E-17,1.));
#1454=DIRECTION('',(-1.51196474162248E-15,-9.99812646245679E-17,1.));
#1455=DIRECTION('',(-0.866025403784438,0.5,-1.25940924355916E-15));
#1456=DIRECTION('',(-1.09068039868317E-15,6.29704621779581E-16,1.));
#1457=DIRECTION('',(0.5,0.866025403784438,9.08846340756334E-31));
#1458=DIRECTION('',(-0.866025403784438,0.5,-1.25940924355916E-15));
#1459=DIRECTION('',(-1.09068039868317E-15,6.29704621779581E-16,1.));
#1460=DIRECTION('',(-1.09068039868317E-15,6.2970462177958E-16,1.));
#1461=DIRECTION('',(1.,0.,1.09068039868317E-15));
#1462=DIRECTION('',(0.5,0.866025403784438,9.08846340756334E-31));
#1463=DIRECTION('',(0.866025403784438,-0.5,1.25940924355916E-15));
#1464=DIRECTION('',(1.09068039868317E-15,-6.29704621779581E-16,-1.));
#1465=CARTESIAN_POINT('',(0.,0.,0.));
#1466=CARTESIAN_POINT('',(0.0203014741668099,0.0346149962990373,0.0976849392354427));
#1467=CARTESIAN_POINT('',(0.0125072455327499,0.0391149962990374,0.0976849392354427));
#1468=CARTESIAN_POINT('',(0.0139572455327499,0.0416264699700123,0.0987404529148147));
#1469=CARTESIAN_POINT('',(0.0110572455327499,0.0366035226280625,0.0966294255560707));
#1470=CARTESIAN_POINT('',(0.0188514741668099,0.0321035226280625,0.0966294255560707));
#1471=CARTESIAN_POINT('',(0.0188514741668099,0.0321035226280625,0.0966294255560707));
#1472=CARTESIAN_POINT('',(0.0203014741668099,0.0346149962990373,0.0976849392354427));
#1473=CARTESIAN_POINT('',(0.0217514741668099,0.0371264699700123,0.0987404529148147));
#1474=CARTESIAN_POINT('',(0.0217514741668099,0.0371264699700123,0.0987404529148147));
#1475=CARTESIAN_POINT('',(0.0217514741668099,0.0371264699700123,0.0999982297150257));
#1476=CARTESIAN_POINT('',(0.0139572455327499,0.0416264699700123,0.0999982297150257));
#1477=CARTESIAN_POINT('',(0.0139572455327499,0.0416264699700123,0.101256006515237));
#1478=CARTESIAN_POINT('',(0.0217514741668099,0.0371264699700123,0.0999982297150257));
#1479=CARTESIAN_POINT('',(0.0217514741668099,0.0371264699700123,0.101256006515237));
#1480=CARTESIAN_POINT('',(0.0217514741668099,0.0371264699700123,0.101256006515237));
#1481=CARTESIAN_POINT('',(0.0203014741668099,0.0346149962990374,0.102311520194609));
#1482=CARTESIAN_POINT('',(0.0125072455327499,0.0391149962990374,0.102311520194609));
#1483=CARTESIAN_POINT('',(0.0110572455327499,0.0366035226280625,0.103367033873981));
#1484=CARTESIAN_POINT('',(0.0203014741668099,0.0346149962990374,0.102311520194609));
#1485=CARTESIAN_POINT('',(0.0188514741668099,0.0321035226280625,0.103367033873981));
#1486=CARTESIAN_POINT('',(0.0188514741668099,0.0321035226280625,0.103367033873981));
#1487=CARTESIAN_POINT('',(0.0188514741668099,0.0321035226280625,0.104396459430051));
#1488=CARTESIAN_POINT('',(0.0110572455327499,0.0366035226280625,0.104396459430051));
#1489=CARTESIAN_POINT('',(0.0110572455327499,0.0366035226280625,0.105425884986122));
#1490=CARTESIAN_POINT('',(0.0188514741668099,0.0321035226280625,0.104396459430051));
#1491=CARTESIAN_POINT('',(0.0188514741668099,0.0321035226280625,0.105425884986122));
#1492=CARTESIAN_POINT('',(0.0188514741668099,0.0321035226280625,0.105425884986122));
#1493=CARTESIAN_POINT('',(0.0203014741668099,0.0346149962990374,0.106481398665494));
#1494=CARTESIAN_POINT('',(0.0125072455327499,0.0391149962990374,0.106481398665494));
#1495=CARTESIAN_POINT('',(0.0139572455327499,0.0416264699700122,0.107536912344866));
#1496=CARTESIAN_POINT('',(0.0203014741668099,0.0346149962990374,0.106481398665494));
#1497=CARTESIAN_POINT('',(0.0217514741668098,0.0371264699700122,0.107536912344866));
#1498=CARTESIAN_POINT('',(0.0217514741668098,0.0371264699700122,0.107536912344866));
#1499=CARTESIAN_POINT('',(0.0217514741668098,0.0371264699700122,0.108794689145077));
#1500=CARTESIAN_POINT('',(0.0139572455327499,0.0416264699700122,0.108794689145077));
#1501=CARTESIAN_POINT('',(0.0139572455327499,0.0416264699700123,0.110052465945288));
#1502=CARTESIAN_POINT('',(0.0217514741668098,0.0371264699700122,0.108794689145077));
#1503=CARTESIAN_POINT('',(0.0217514741668099,0.0371264699700123,0.110052465945288));
#1504=CARTESIAN_POINT('',(0.0217514741668099,0.0371264699700123,0.110052465945288));
#1505=CARTESIAN_POINT('',(0.0203014741668098,0.0346149962990374,0.11110797962466));
#1506=CARTESIAN_POINT('',(0.0125072455327499,0.0391149962990374,0.11110797962466));
#1507=CARTESIAN_POINT('',(0.0110572455327499,0.0366035226280625,0.112163493304032));
#1508=CARTESIAN_POINT('',(0.0203014741668098,0.0346149962990374,0.11110797962466));
#1509=CARTESIAN_POINT('',(0.0188514741668098,0.0321035226280625,0.112163493304032));
#1510=CARTESIAN_POINT('',(0.0188514741668098,0.0321035226280625,0.112163493304032));
#1511=CARTESIAN_POINT('',(0.0188514741668098,0.0321035226280625,0.113192918860103));
#1512=CARTESIAN_POINT('',(0.0110572455327499,0.0366035226280625,0.113192918860103));
#1513=CARTESIAN_POINT('',(0.0110572455327499,0.0366035226280625,0.114222344416174));
#1514=CARTESIAN_POINT('',(0.0188514741668098,0.0321035226280625,0.113192918860103));
#1515=CARTESIAN_POINT('',(0.0188514741668098,0.0321035226280625,0.114222344416174));
#1516=CARTESIAN_POINT('',(0.0188514741668098,0.0321035226280625,0.114222344416174));
#1517=CARTESIAN_POINT('',(0.0203014741668098,0.0346149962990374,0.115277858095546));
#1518=CARTESIAN_POINT('',(0.0125072455327499,0.0391149962990374,0.115277858095546));
#1519=CARTESIAN_POINT('',(0.0139572455327498,0.0416264699700122,0.116333371774918));
#1520=CARTESIAN_POINT('',(0.0203014741668098,0.0346149962990374,0.115277858095546));
#1521=CARTESIAN_POINT('',(0.0217514741668098,0.0371264699700122,0.116333371774918));
#1522=CARTESIAN_POINT('',(0.0217514741668098,0.0371264699700122,0.116333371774918));
#1523=CARTESIAN_POINT('',(0.0217514741668098,0.0371264699700122,0.117591148575128));
#1524=CARTESIAN_POINT('',(0.0139572455327498,0.0416264699700122,0.117591148575128));
#1525=CARTESIAN_POINT('',(0.0139572455327499,0.0416264699700123,0.118848925375339));
#1526=CARTESIAN_POINT('',(0.0217514741668098,0.0371264699700122,0.117591148575128));
#1527=CARTESIAN_POINT('',(0.0217514741668098,0.0371264699700123,0.118848925375339));
#1528=CARTESIAN_POINT('',(0.0217514741668098,0.0371264699700123,0.118848925375339));
#1529=CARTESIAN_POINT('',(0.0203014741668098,0.0346149962990374,0.119904439054711));
#1530=CARTESIAN_POINT('',(0.0125072455327499,0.0391149962990374,0.119904439054711));
#1531=CARTESIAN_POINT('',(0.0110572455327499,0.0366035226280626,0.120959952734083));
#1532=CARTESIAN_POINT('',(0.0203014741668098,0.0346149962990374,0.119904439054711));
#1533=CARTESIAN_POINT('',(0.0188514741668098,0.0321035226280625,0.120959952734083));
#1534=CARTESIAN_POINT('',(0.0188514741668098,0.0321035226280625,0.120959952734083));
#1535=CARTESIAN_POINT('',(0.0188514741668098,0.0321035226280625,0.121989378290154));
#1536=CARTESIAN_POINT('',(0.0110572455327499,0.0366035226280626,0.121989378290154));
#1537=CARTESIAN_POINT('',(0.0110572455327499,0.0366035226280626,0.123018803846225));
#1538=CARTESIAN_POINT('',(0.0188514741668098,0.0321035226280625,0.121989378290154));
#1539=CARTESIAN_POINT('',(0.0188514741668098,0.0321035226280625,0.123018803846225));
#1540=CARTESIAN_POINT('',(0.0188514741668098,0.0321035226280625,0.123018803846225));
#1541=CARTESIAN_POINT('',(0.0203014741668098,0.0346149962990374,0.124074317525597));
#1542=CARTESIAN_POINT('',(0.0125072455327499,0.0391149962990374,0.124074317525597));
#1543=CARTESIAN_POINT('',(0.0139572455327498,0.0416264699700122,0.125129831204969));
#1544=CARTESIAN_POINT('',(0.0203014741668098,0.0346149962990374,0.124074317525597));
#1545=CARTESIAN_POINT('',(0.0217514741668097,0.0371264699700121,0.125129831204969));
#1546=CARTESIAN_POINT('',(0.0217514741668097,0.0371264699700121,0.125129831204969));
#1547=CARTESIAN_POINT('',(0.0217514741668097,0.0371264699700121,0.12638760800518));
#1548=CARTESIAN_POINT('',(0.0139572455327498,0.0416264699700122,0.12638760800518));
#1549=CARTESIAN_POINT('',(0.0139572455327499,0.0416264699700123,0.127645384805391));
#1550=CARTESIAN_POINT('',(0.0217514741668097,0.0371264699700121,0.12638760800518));
#1551=CARTESIAN_POINT('',(0.0217514741668098,0.0371264699700123,0.127645384805391));
#1552=CARTESIAN_POINT('',(0.0217514741668098,0.0371264699700123,0.127645384805391));
#1553=CARTESIAN_POINT('',(0.0203014741668098,0.0346149962990374,0.128700898484763));
#1554=CARTESIAN_POINT('',(0.0125072455327499,0.0391149962990374,0.128700898484763));
#1555=CARTESIAN_POINT('',(0.0110572455327499,0.0366035226280626,0.129756412164135));
#1556=CARTESIAN_POINT('',(0.0203014741668098,0.0346149962990374,0.128700898484763));
#1557=CARTESIAN_POINT('',(0.0188514741668098,0.0321035226280625,0.129756412164135));
#1558=CARTESIAN_POINT('',(0.0188514741668098,0.0321035226280625,0.129756412164135));
#1559=CARTESIAN_POINT('',(0.0188514741668098,0.0321035226280625,0.130785837720206));
#1560=CARTESIAN_POINT('',(0.0110572455327499,0.0366035226280626,0.130785837720206));
#1561=CARTESIAN_POINT('',(0.0110572455327498,0.0366035226280626,0.131815263276276));
#1562=CARTESIAN_POINT('',(0.0188514741668098,0.0321035226280625,0.130785837720206));
#1563=CARTESIAN_POINT('',(0.0188514741668098,0.0321035226280625,0.131815263276276));
#1564=CARTESIAN_POINT('',(0.0188514741668098,0.0321035226280625,0.131815263276276));
#1565=CARTESIAN_POINT('',(0.0203014741668098,0.0346149962990374,0.132870776955648));
#1566=CARTESIAN_POINT('',(0.0125072455327499,0.0391149962990374,0.132870776955648));
#1567=CARTESIAN_POINT('',(0.0139572455327498,0.0416264699700122,0.13392629063502));
#1568=CARTESIAN_POINT('',(0.0203014741668098,0.0346149962990374,0.132870776955648));
#1569=CARTESIAN_POINT('',(0.0217514741668097,0.0371264699700121,0.13392629063502));
#1570=CARTESIAN_POINT('',(0.0217514741668097,0.0371264699700121,0.13392629063502));
#1571=CARTESIAN_POINT('',(0.0217514741668097,0.0371264699700121,0.135184067435231));
#1572=CARTESIAN_POINT('',(0.0139572455327498,0.0416264699700122,0.135184067435231));
#1573=CARTESIAN_POINT('',(0.0139572455327499,0.0416264699700123,0.136441844235442));
#1574=CARTESIAN_POINT('',(0.0217514741668097,0.0371264699700121,0.135184067435231));
#1575=CARTESIAN_POINT('',(0.0217514741668098,0.0371264699700123,0.136441844235442));
#1576=CARTESIAN_POINT('',(0.0217514741668098,0.0371264699700123,0.136441844235442));
#1577=CARTESIAN_POINT('',(0.0203014741668098,0.0346149962990374,0.137497357914814));
#1578=CARTESIAN_POINT('',(0.0125072455327499,0.0391149962990374,0.137497357914814));
#1579=CARTESIAN_POINT('',(0.0110572455327498,0.0366035226280626,0.138552871594186));
#1580=CARTESIAN_POINT('',(0.0203014741668098,0.0346149962990374,0.137497357914814));
#1581=CARTESIAN_POINT('',(0.0188514741668098,0.0321035226280626,0.138552871594186));
#1582=CARTESIAN_POINT('',(0.0188514741668098,0.0321035226280626,0.138552871594186));
#1583=CARTESIAN_POINT('',(0.0188514741668098,0.0321035226280626,0.139582297150257));
#1584=CARTESIAN_POINT('',(0.0110572455327498,0.0366035226280626,0.139582297150257));
#1585=CARTESIAN_POINT('',(0.0110572455327498,0.0366035226280626,0.140611722706328));
#1586=CARTESIAN_POINT('',(0.0188514741668098,0.0321035226280626,0.139582297150257));
#1587=CARTESIAN_POINT('',(0.0188514741668098,0.0321035226280625,0.140611722706328));
#1588=CARTESIAN_POINT('',(0.0188514741668098,0.0321035226280625,0.140611722706328));
#1589=CARTESIAN_POINT('',(0.0203014741668098,0.0346149962990374,0.1416672363857));
#1590=CARTESIAN_POINT('',(0.0125072455327498,0.0391149962990374,0.1416672363857));
#1591=CARTESIAN_POINT('',(0.0139572455327498,0.0416264699700121,0.142722750065072));
#1592=CARTESIAN_POINT('',(0.0203014741668098,0.0346149962990374,0.1416672363857));
#1593=CARTESIAN_POINT('',(0.0217514741668097,0.0371264699700121,0.142722750065072));
#1594=CARTESIAN_POINT('',(0.0217514741668097,0.0371264699700121,0.142722750065072));
#1595=CARTESIAN_POINT('',(0.0217514741668097,0.0371264699700121,0.143980526865283));
#1596=CARTESIAN_POINT('',(0.0139572455327498,0.0416264699700121,0.143980526865283));
#1597=CARTESIAN_POINT('',(0.0139572455327499,0.0416264699700123,0.145238303665494));
#1598=CARTESIAN_POINT('',(0.0217514741668097,0.0371264699700121,0.143980526865283));
#1599=CARTESIAN_POINT('',(0.0217514741668098,0.0371264699700123,0.145238303665494));
#1600=CARTESIAN_POINT('',(0.0217514741668098,0.0371264699700123,0.145238303665494));
#1601=CARTESIAN_POINT('',(0.0203014741668098,0.0346149962990374,0.146293817344866));
#1602=CARTESIAN_POINT('',(0.0125072455327498,0.0391149962990374,0.146293817344866));
#1603=CARTESIAN_POINT('',(0.0110572455327498,0.0366035226280626,0.147349331024238));
#1604=CARTESIAN_POINT('',(0.0203014741668098,0.0346149962990374,0.146293817344866));
#1605=CARTESIAN_POINT('',(0.0188514741668098,0.0321035226280626,0.147349331024238));
#1606=CARTESIAN_POINT('',(0.0188514741668098,0.0321035226280626,0.147349331024238));
#1607=CARTESIAN_POINT('',(0.0188514741668098,0.0321035226280626,0.148378756580308));
#1608=CARTESIAN_POINT('',(0.0110572455327498,0.0366035226280626,0.148378756580308));
#1609=CARTESIAN_POINT('',(0.0110572455327498,0.0366035226280626,0.149408182136379));
#1610=CARTESIAN_POINT('',(0.0188514741668098,0.0321035226280626,0.148378756580308));
#1611=CARTESIAN_POINT('',(0.0188514741668098,0.0321035226280626,0.149408182136379));
#1612=CARTESIAN_POINT('',(0.0188514741668098,0.0321035226280626,0.149408182136379));
#1613=CARTESIAN_POINT('',(0.0203014741668098,0.0346149962990374,0.150463695815752));
#1614=CARTESIAN_POINT('',(0.0125072455327498,0.0391149962990374,0.150463695815752));
#1615=CARTESIAN_POINT('',(0.0139572455327498,0.0416264699700121,0.151519209495123));
#1616=CARTESIAN_POINT('',(0.0203014741668098,0.0346149962990374,0.150463695815752));
#1617=CARTESIAN_POINT('',(0.0217514741668097,0.0371264699700121,0.151519209495123));
#1618=CARTESIAN_POINT('',(0.0217514741668097,0.0371264699700121,0.151519209495123));
#1619=CARTESIAN_POINT('',(0.0217514741668097,0.0371264699700121,0.152776986295334));
#1620=CARTESIAN_POINT('',(0.0139572455327498,0.0416264699700121,0.152776986295334));
#1621=CARTESIAN_POINT('',(0.0139572455327498,0.0416264699700123,0.154034763095545));
#1622=CARTESIAN_POINT('',(0.0217514741668097,0.0371264699700121,0.152776986295334));
#1623=CARTESIAN_POINT('',(0.0217514741668098,0.0371264699700123,0.154034763095545));
#1624=CARTESIAN_POINT('',(0.0217514741668098,0.0371264699700123,0.154034763095545));
#1625=CARTESIAN_POINT('',(0.0203014741668098,0.0346149962990374,0.155090276774917));
#1626=CARTESIAN_POINT('',(0.0125072455327498,0.0391149962990375,0.155090276774917));
#1627=CARTESIAN_POINT('',(0.0110572455327498,0.0366035226280626,0.156145790454289));
#1628=CARTESIAN_POINT('',(0.0203014741668098,0.0346149962990374,0.155090276774917));
#1629=CARTESIAN_POINT('',(0.0188514741668098,0.0321035226280626,0.156145790454289));
#1630=CARTESIAN_POINT('',(0.0188514741668098,0.0321035226280626,0.156145790454289));
#1631=CARTESIAN_POINT('',(0.0188514741668098,0.0321035226280626,0.15717521601036));
#1632=CARTESIAN_POINT('',(0.0110572455327498,0.0366035226280626,0.15717521601036));
#1633=CARTESIAN_POINT('',(0.0110572455327498,0.0366035226280626,0.15820464156643));
#1634=CARTESIAN_POINT('',(0.0188514741668098,0.0321035226280626,0.15717521601036));
#1635=CARTESIAN_POINT('',(0.0188514741668098,0.0321035226280626,0.15820464156643));
#1636=CARTESIAN_POINT('',(0.0188514741668098,0.0321035226280626,0.15820464156643));
#1637=CARTESIAN_POINT('',(0.0203014741668097,0.0346149962990374,0.159260155245803));
#1638=CARTESIAN_POINT('',(0.0125072455327498,0.0391149962990374,0.159260155245803));
#1639=CARTESIAN_POINT('',(0.0139572455327497,0.0416264699700121,0.160315668925175));
#1640=CARTESIAN_POINT('',(0.0203014741668097,0.0346149962990374,0.159260155245803));
#1641=CARTESIAN_POINT('',(0.0217514741668097,0.0371264699700121,0.160315668925175));
#1642=CARTESIAN_POINT('',(0.0217514741668097,0.0371264699700121,0.160315668925175));
#1643=CARTESIAN_POINT('',(0.0217514741668097,0.0371264699700121,0.161573445725386));
#1644=CARTESIAN_POINT('',(0.0139572455327497,0.0416264699700121,0.161573445725386));
#1645=CARTESIAN_POINT('',(0.0139572455327498,0.0416264699700123,0.162831222525597));
#1646=CARTESIAN_POINT('',(0.0217514741668097,0.0371264699700121,0.161573445725386));
#1647=CARTESIAN_POINT('',(0.0217514741668098,0.0371264699700123,0.162831222525597));
#1648=CARTESIAN_POINT('',(0.0217514741668098,0.0371264699700123,0.162831222525597));
#1649=CARTESIAN_POINT('',(0.0203014741668097,0.0346149962990374,0.163886736204968));
#1650=CARTESIAN_POINT('',(0.0125072455327498,0.0391149962990375,0.163886736204968));
#1651=CARTESIAN_POINT('',(0.0110572455327498,0.0366035226280626,0.164942249884341));
#1652=CARTESIAN_POINT('',(0.0203014741668097,0.0346149962990374,0.163886736204968));
#1653=CARTESIAN_POINT('',(0.0188514741668098,0.0321035226280626,0.164942249884341));
#1654=CARTESIAN_POINT('',(0.0188514741668098,0.0321035226280626,0.164942249884341));
#1655=CARTESIAN_POINT('',(0.0188514741668098,0.0321035226280626,0.165971675440411));
#1656=CARTESIAN_POINT('',(0.0110572455327498,0.0366035226280626,0.165971675440411));
#1657=CARTESIAN_POINT('',(0.0110572455327498,0.0366035226280626,0.167001100996482));
#1658=CARTESIAN_POINT('',(0.0188514741668098,0.0321035226280626,0.165971675440411));
#1659=CARTESIAN_POINT('',(0.0188514741668098,0.0321035226280626,0.167001100996482));
#1660=CARTESIAN_POINT('',(0.0188514741668098,0.0321035226280626,0.167001100996482));
#1661=CARTESIAN_POINT('',(0.0203014741668097,0.0346149962990374,0.168056614675854));
#1662=CARTESIAN_POINT('',(0.0125072455327498,0.0391149962990375,0.168056614675854));
#1663=CARTESIAN_POINT('',(0.0139572455327497,0.0416264699700121,0.169112128355226));
#1664=CARTESIAN_POINT('',(0.0203014741668097,0.0346149962990374,0.168056614675854));
#1665=CARTESIAN_POINT('',(0.0217514741668097,0.0371264699700121,0.169112128355226));
#1666=CARTESIAN_POINT('',(0.0217514741668097,0.0371264699700121,0.169112128355226));
#1667=CARTESIAN_POINT('',(0.0217514741668097,0.0371264699700121,0.170369905155437));
#1668=CARTESIAN_POINT('',(0.0139572455327497,0.0416264699700121,0.170369905155437));
#1669=CARTESIAN_POINT('',(0.0139572455327498,0.0416264699700123,0.171627681955648));
#1670=CARTESIAN_POINT('',(0.0217514741668097,0.0371264699700121,0.170369905155437));
#1671=CARTESIAN_POINT('',(0.0217514741668097,0.0371264699700123,0.171627681955648));
#1672=CARTESIAN_POINT('',(0.0217514741668097,0.0371264699700123,0.171627681955648));
#1673=CARTESIAN_POINT('',(0.0203014741668097,0.0346149962990374,0.17268319563502));
#1674=CARTESIAN_POINT('',(0.0125072455327498,0.0391149962990375,0.17268319563502));
#1675=CARTESIAN_POINT('',(0.0110572455327498,0.0366035226280626,0.173738709314392));
#1676=CARTESIAN_POINT('',(0.0203014741668097,0.0346149962990374,0.17268319563502));
#1677=CARTESIAN_POINT('',(0.0188514741668098,0.0321035226280626,0.173738709314392));
#1678=CARTESIAN_POINT('',(0.0188514741668098,0.0321035226280626,0.173738709314392));
#1679=CARTESIAN_POINT('',(0.0188514741668098,0.0321035226280626,0.174768134870463));
#1680=CARTESIAN_POINT('',(0.0110572455327498,0.0366035226280626,0.174768134870463));
#1681=CARTESIAN_POINT('',(0.0110572455327498,0.0366035226280626,0.175797560426533));
#1682=CARTESIAN_POINT('',(0.0188514741668098,0.0321035226280626,0.174768134870463));
#1683=CARTESIAN_POINT('',(0.0188514741668098,0.0321035226280626,0.175797560426533));
#1684=CARTESIAN_POINT('',(0.0188514741668098,0.0321035226280626,0.175797560426533));
#1685=CARTESIAN_POINT('',(0.0203014741668097,0.0346149962990374,0.176853074105906));
#1686=CARTESIAN_POINT('',(0.0125072455327498,0.0391149962990375,0.176853074105906));
#1687=CARTESIAN_POINT('',(0.0139572455327497,0.0416264699700121,0.177908587785278));
#1688=CARTESIAN_POINT('',(0.0203014741668097,0.0346149962990374,0.176853074105906));
#1689=CARTESIAN_POINT('',(0.0217514741668097,0.0371264699700121,0.177908587785278));
#1690=CARTESIAN_POINT('',(0.0217514741668097,0.0371264699700121,0.177908587785278));
#1691=CARTESIAN_POINT('',(0.0217514741668097,0.0371264699700121,0.179166364585489));
#1692=CARTESIAN_POINT('',(0.0139572455327497,0.0416264699700121,0.179166364585489));
#1693=CARTESIAN_POINT('',(0.0139572455327498,0.0416264699700123,0.1804241413857));
#1694=CARTESIAN_POINT('',(0.0217514741668097,0.0371264699700121,0.179166364585489));
#1695=CARTESIAN_POINT('',(0.0217514741668097,0.0371264699700123,0.1804241413857));
#1696=CARTESIAN_POINT('',(0.0217514741668097,0.0371264699700123,0.1804241413857));
#1697=CARTESIAN_POINT('',(0.0203014741668097,0.0346149962990374,0.181479655065071));
#1698=CARTESIAN_POINT('',(0.0125072455327498,0.0391149962990375,0.181479655065071));
#1699=CARTESIAN_POINT('',(0.0110572455327498,0.0366035226280626,0.182535168744444));
#1700=CARTESIAN_POINT('',(0.0203014741668097,0.0346149962990374,0.181479655065071));
#1701=CARTESIAN_POINT('',(0.0188514741668098,0.0321035226280626,0.182535168744444));
#1702=CARTESIAN_POINT('',(0.0188514741668098,0.0321035226280626,0.182535168744444));
#1703=CARTESIAN_POINT('',(0.0188514741668098,0.0321035226280626,0.183564594300514));
#1704=CARTESIAN_POINT('',(0.0110572455327498,0.0366035226280626,0.183564594300514));
#1705=CARTESIAN_POINT('',(0.0110572455327498,0.0366035226280626,0.184594019856585));
#1706=CARTESIAN_POINT('',(0.0188514741668098,0.0321035226280626,0.183564594300514));
#1707=CARTESIAN_POINT('',(0.0188514741668098,0.0321035226280626,0.184594019856585));
#1708=CARTESIAN_POINT('',(0.0188514741668098,0.0321035226280626,0.184594019856585));
#1709=CARTESIAN_POINT('',(0.0203014741668097,0.0346149962990374,0.185649533535957));
#1710=CARTESIAN_POINT('',(0.0125072455327498,0.0391149962990375,0.185649533535957));
#1711=CARTESIAN_POINT('',(0.0139572455327498,0.0416264699700123,0.186705047215329));
#1712=CARTESIAN_POINT('',(0.0203014741668097,0.0346149962990374,0.185649533535957));
#1713=CARTESIAN_POINT('',(0.0217514741668097,0.0371264699700123,0.186705047215329));
#1714=CARTESIAN_POINT('',(0.0217514741668097,0.0371264699700123,0.186705047215329));
#1715=CARTESIAN_POINT('',(0.0217514741668097,0.0371264699700123,0.18796282401554));
#1716=CARTESIAN_POINT('',(0.0139572455327498,0.0416264699700123,0.18796282401554));
#1717=CARTESIAN_POINT('',(0.0139572455327498,0.0416264699700123,0.189220600815751));
#1718=CARTESIAN_POINT('',(0.0217514741668097,0.0371264699700123,0.18796282401554));
#1719=CARTESIAN_POINT('',(0.0217514741668097,0.0371264699700123,0.189220600815751));
#1720=CARTESIAN_POINT('',(0.0217514741668097,0.0371264699700123,0.189220600815751));
#1721=CARTESIAN_POINT('',(0.0203014741668097,0.0346149962990374,0.190276114495123));
#1722=CARTESIAN_POINT('',(0.0125072455327498,0.0391149962990375,0.190276114495123));
#1723=CARTESIAN_POINT('',(0.0110572455327498,0.0366035226280626,0.191331628174495));
#1724=CARTESIAN_POINT('',(0.0203014741668097,0.0346149962990374,0.190276114495123));
#1725=CARTESIAN_POINT('',(0.0188514741668098,0.0321035226280626,0.191331628174495));
#1726=CARTESIAN_POINT('',(0.0188514741668098,0.0321035226280626,0.191331628174495));
#1727=CARTESIAN_POINT('',(0.0188514741668098,0.0321035226280626,0.192361053730566));
#1728=CARTESIAN_POINT('',(0.0110572455327498,0.0366035226280626,0.192361053730566));
#1729=CARTESIAN_POINT('',(0.0110572455327498,0.0366035226280626,0.193390479286636));
#1730=CARTESIAN_POINT('',(0.0188514741668098,0.0321035226280626,0.192361053730566));
#1731=CARTESIAN_POINT('',(0.0188514741668098,0.0321035226280626,0.193390479286636));
#1732=CARTESIAN_POINT('',(0.0188514741668098,0.0321035226280626,0.193390479286636));
#1733=CARTESIAN_POINT('',(0.0203014741668097,0.0346149962990374,0.194445992966009));
#1734=CARTESIAN_POINT('',(0.0125072455327498,0.0391149962990375,0.194445992966009));
#1735=CARTESIAN_POINT('',(0.0139572455327498,0.0416264699700123,0.195501506645381));
#1736=CARTESIAN_POINT('',(0.0203014741668097,0.0346149962990374,0.194445992966009));
#1737=CARTESIAN_POINT('',(0.0217514741668097,0.0371264699700124,0.195501506645381));
#1738=CARTESIAN_POINT('',(0.0217514741668097,0.0371264699700124,0.195501506645381));
#1739=CARTESIAN_POINT('',(0.0225694233592408,0.0385431995293129,0.195501506645381));
#1740=CARTESIAN_POINT('',(0.0147751947251809,0.0430431995293129,0.195501506645381));
#1741=CARTESIAN_POINT('',(0.015593143917612,0.0444599290886135,0.195501506645381));
#1742=CARTESIAN_POINT('',(0.0225694233592408,0.0385431995293129,0.195501506645381));
#1743=CARTESIAN_POINT('',(0.023387372551672,0.0399599290886134,0.195501506645381));
#1744=CARTESIAN_POINT('',(0.023387372551672,0.0399599290886134,0.195501506645381));
#1745=CARTESIAN_POINT('',(0.023387372551672,0.0399599290886134,0.094342223199789));
#1746=CARTESIAN_POINT('',(0.0155931439176121,0.0444599290886134,0.094342223199789));
#1747=CARTESIAN_POINT('',(0.0155931439176121,0.0444599290886134,0.0719439934847633));
#1748=CARTESIAN_POINT('',(0.023387372551672,0.0399599290886134,0.094342223199789));
#1749=CARTESIAN_POINT('',(0.023387372551672,0.0399599290886134,0.0924595470851853));
#1750=CARTESIAN_POINT('',(0.0363777536084386,0.0324599290886134,0.0924595470851853));
#1751=CARTESIAN_POINT('',(0.0363777536084386,0.0324599290886134,0.0924595470851853));
#1752=CARTESIAN_POINT('',(0.0363777536084386,0.0324599290886134,0.094342223199789));
#1753=CARTESIAN_POINT('',(0.0363777536084387,0.0324599290886134,0.0719439934847633));
#1754=CARTESIAN_POINT('',(0.023387372551672,0.0399599290886134,0.0719439934847633));
#1755=CARTESIAN_POINT('',(0.0225694233592409,0.0385431995293128,0.0719439934847633));
#1756=CARTESIAN_POINT('',(0.014775194725181,0.0430431995293128,0.0719439934847633));
#1757=CARTESIAN_POINT('',(0.0139572455327499,0.0416264699700123,0.0719439934847633));
#1758=CARTESIAN_POINT('',(0.0355598044160075,0.0310431995293128,0.0719439934847633));
#1759=CARTESIAN_POINT('',(0.0347418552235765,0.0296264699700122,0.0719439934847633));
#1760=CARTESIAN_POINT('',(0.0217514741668099,0.0371264699700123,0.0719439934847633));
#1761=CARTESIAN_POINT('',(0.0217514741668099,0.0371264699700123,0.0912017702849743));
#1762=CARTESIAN_POINT('',(0.0139572455327499,0.0416264699700123,0.0912017702849743));
#1763=CARTESIAN_POINT('',(0.0139572455327499,0.0416264699700123,0.0924595470851852));
#1764=CARTESIAN_POINT('',(0.0347418552235764,0.0296264699700122,0.0912017702849743));
#1765=CARTESIAN_POINT('',(0.0347418552235764,0.0296264699700122,0.0924595470851853));
#1766=CARTESIAN_POINT('',(0.0347418552235764,0.0296264699700122,0.0924595470851853));
#1767=CARTESIAN_POINT('',(0.0217514741668099,0.0371264699700123,0.0924595470851852));
#1768=CARTESIAN_POINT('',(0.0217514741668099,0.0371264699700123,0.0924595470851852));
#1769=CARTESIAN_POINT('',(0.0203014741668099,0.0346149962990373,0.0935150607645572));
#1770=CARTESIAN_POINT('',(0.0125072455327499,0.0391149962990374,0.0935150607645572));
#1771=CARTESIAN_POINT('',(0.0110572455327499,0.0366035226280625,0.0945705744439292));
#1772=CARTESIAN_POINT('',(0.0203014741668099,0.0346149962990373,0.0935150607645572));
#1773=CARTESIAN_POINT('',(0.0188514741668099,0.0321035226280625,0.0945705744439292));
#1774=CARTESIAN_POINT('',(0.0188514741668099,0.0321035226280625,0.0945705744439292));
#1775=CARTESIAN_POINT('',(0.0188514741668099,0.0321035226280625,0.0956));
#1776=CARTESIAN_POINT('',(0.0110572455327499,0.0366035226280625,0.0956));
#1777=CARTESIAN_POINT('',(0.0188514741668099,0.0321035226280625,0.0956));
#1778=CARTESIAN_POINT('',(0.00781942335924087,0.0129954501176719,0.129280501106669));
#1779=CARTESIAN_POINT('',(0.0225694233592409,0.0385431995293128,0.0924595470851853));
#1780=CARTESIAN_POINT('',(2.51947251809328E-5,0.017495450117672,0.129280501106669));
#1781=CARTESIAN_POINT('',(0.0355598044160075,0.0310431995293128,0.0924595470851853));
#1782=CARTESIAN_POINT('',(0.0355598044160075,0.0310431995293128,0.0924595470851853));
#1783=CARTESIAN_POINT('',(0.0341098044160075,0.028531725858338,0.133722750065072));
#1784=MECHANICAL_DESIGN_GEOMETRIC_PRESENTATION_REPRESENTATION('',(#1128),
#1785);
#1785=(
GEOMETRIC_REPRESENTATION_CONTEXT(3)
GLOBAL_UNCERTAINTY_ASSIGNED_CONTEXT((#1786))
GLOBAL_UNIT_ASSIGNED_CONTEXT((#1789,#1788,#1787))
REPRESENTATION_CONTEXT('Part 2','TOP_LEVEL_ASSEMBLY_PART')
);
#1786=UNCERTAINTY_MEASURE_WITH_UNIT(LENGTH_MEASURE(1.E-8),#1789,
'DISTANCE_ACCURACY_VALUE','Maximum Tolerance applied to model');
#1787=(
NAMED_UNIT(*)
SI_UNIT($,.STERADIAN.)
SOLID_ANGLE_UNIT()
);
#1788=(
NAMED_UNIT(*)
PLANE_ANGLE_UNIT()
SI_UNIT($,.RADIAN.)
);
#1789=(
LENGTH_UNIT()
NAMED_UNIT(*)
SI_UNIT($,.METRE.)
);
#1790=PRODUCT_DEFINITION_SHAPE('','',#1791);
#1791=PRODUCT_DEFINITION('','',#1793,#1792);
#1792=PRODUCT_DEFINITION_CONTEXT('',#1799,'design');
#1793=PRODUCT_DEFINITION_FORMATION_WITH_SPECIFIED_SOURCE('','',#1795,
 .NOT_KNOWN.);
#1794=PRODUCT_RELATED_PRODUCT_CATEGORY('','',(#1795));
#1795=PRODUCT('Part 2','Part 2','Part 2',(#1797));
#1796=PRODUCT_CATEGORY('','');
#1797=PRODUCT_CONTEXT('',#1799,'mechanical');
#1798=APPLICATION_PROTOCOL_DEFINITION('international standard',
'ap242_managed_model_based_3d_engineering',2011,#1799);
#1799=APPLICATION_CONTEXT('managed model based 3d engineering');
ENDSEC;
END-ISO-10303-21;
