ISO-10303-21;
HEADER;
/* Generated by software containing ST-Developer
 * from STEP Tools, Inc. (www.steptools.com) 
 */
/* OPTION: using custom renumber hook */

FILE_DESCRIPTION(
/* description */ ('STEP AP242',
'CAx-IF Rec.Pracs.---Representation and Presentation of Product Manufa
cturing Information (PMI)---4.0---2014-10-13',
'CAx-IF Rec.Pracs.---3D Tessellated Geometry---0.4---2014-09-14','2;1'),

/* implementation_level */ '2;1');

FILE_NAME(
/* name */ '6883f5504addd603f7249b28',
/* time_stamp */ '2025-07-25T21:21:21Z',
/* author */ (''),
/* organization */ (''),
/* preprocessor_version */ 'ST-DEVELOPER v20',
/* originating_system */ 'ONSHAPE BY PTC INC, 1.201',
/* authorisation */ '  ');

FILE_SCHEMA (('AP242_MANAGED_MODEL_BASED_3D_ENGINEERING_MIM_LF { 1 0 10303 442 1 1 4 }'));
ENDSEC;

DATA;
#10=SHAPE_REPRESENTATION_RELATIONSHIP('','',#624,#11);
#11=ADVANCED_BREP_SHAPE_REPRESENTATION('',(#622),#1043);
#12=SPHERICAL_SURFACE('',#675,0.002);
#13=SPHERICAL_SURFACE('',#676,0.002);
#14=SPHERICAL_SURFACE('',#677,0.002);
#15=SPHERICAL_SURFACE('',#678,0.002);
#16=SPHERICAL_SURFACE('',#679,0.002);
#17=SPHERICAL_SURFACE('',#680,0.002);
#18=SPHERICAL_SURFACE('',#681,0.002);
#19=SPHERICAL_SURFACE('',#682,0.0015);
#20=SPHERICAL_SURFACE('',#683,0.0015);
#21=SPHERICAL_SURFACE('',#684,0.0015);
#22=SPHERICAL_SURFACE('',#685,0.0015);
#23=SPHERICAL_SURFACE('',#686,0.0015);
#24=SPHERICAL_SURFACE('',#687,0.0015);
#25=CIRCLE('',#629,0.0185);
#26=CIRCLE('',#630,0.0185);
#27=CIRCLE('',#633,0.0195);
#28=CIRCLE('',#634,0.0195);
#29=CIRCLE('',#641,0.00925);
#30=CIRCLE('',#642,0.00925);
#31=CIRCLE('',#645,0.00825);
#32=CIRCLE('',#646,0.00825);
#33=CIRCLE('',#650,0.00141421356237309);
#34=CIRCLE('',#651,0.00141421356237309);
#35=CIRCLE('',#652,0.00141421356237309);
#36=CIRCLE('',#653,0.00141421356237309);
#37=CIRCLE('',#654,0.00141421356237309);
#38=CIRCLE('',#655,0.00141421356237309);
#39=CIRCLE('',#656,0.00193649167310371);
#40=CIRCLE('',#657,0.00193649167310371);
#41=CIRCLE('',#658,0.00193649167310371);
#42=CIRCLE('',#659,0.00193649167310371);
#43=CIRCLE('',#660,0.00193649167310371);
#44=CIRCLE('',#661,0.00193649167310371);
#45=CIRCLE('',#662,0.00193649167310371);
#46=CIRCLE('',#663,0.015);
#47=CIRCLE('',#664,0.014);
#48=CIRCLE('',#667,0.014);
#49=CIRCLE('',#670,0.015);
#50=CYLINDRICAL_SURFACE('',#628,0.0185);
#51=CYLINDRICAL_SURFACE('',#632,0.0195);
#52=CYLINDRICAL_SURFACE('',#640,0.00925);
#53=CYLINDRICAL_SURFACE('',#644,0.00825);
#54=CYLINDRICAL_SURFACE('',#666,0.014);
#55=CYLINDRICAL_SURFACE('',#669,0.015);
#56=ORIENTED_EDGE('',*,*,#214,.F.);
#57=ORIENTED_EDGE('',*,*,#215,.F.);
#58=ORIENTED_EDGE('',*,*,#216,.T.);
#59=ORIENTED_EDGE('',*,*,#217,.T.);
#60=ORIENTED_EDGE('',*,*,#218,.F.);
#61=ORIENTED_EDGE('',*,*,#219,.F.);
#62=ORIENTED_EDGE('',*,*,#220,.F.);
#63=ORIENTED_EDGE('',*,*,#221,.F.);
#64=ORIENTED_EDGE('',*,*,#222,.T.);
#65=ORIENTED_EDGE('',*,*,#215,.T.);
#66=ORIENTED_EDGE('',*,*,#221,.T.);
#67=ORIENTED_EDGE('',*,*,#223,.T.);
#68=ORIENTED_EDGE('',*,*,#224,.F.);
#69=ORIENTED_EDGE('',*,*,#225,.F.);
#70=ORIENTED_EDGE('',*,*,#226,.F.);
#71=ORIENTED_EDGE('',*,*,#227,.F.);
#72=ORIENTED_EDGE('',*,*,#228,.T.);
#73=ORIENTED_EDGE('',*,*,#224,.T.);
#74=ORIENTED_EDGE('',*,*,#227,.T.);
#75=ORIENTED_EDGE('',*,*,#229,.T.);
#76=ORIENTED_EDGE('',*,*,#230,.F.);
#77=ORIENTED_EDGE('',*,*,#231,.F.);
#78=ORIENTED_EDGE('',*,*,#232,.F.);
#79=ORIENTED_EDGE('',*,*,#233,.F.);
#80=ORIENTED_EDGE('',*,*,#234,.T.);
#81=ORIENTED_EDGE('',*,*,#230,.T.);
#82=ORIENTED_EDGE('',*,*,#235,.F.);
#83=ORIENTED_EDGE('',*,*,#236,.F.);
#84=ORIENTED_EDGE('',*,*,#237,.F.);
#85=ORIENTED_EDGE('',*,*,#238,.T.);
#86=ORIENTED_EDGE('',*,*,#233,.T.);
#87=ORIENTED_EDGE('',*,*,#239,.F.);
#88=ORIENTED_EDGE('',*,*,#240,.F.);
#89=ORIENTED_EDGE('',*,*,#241,.F.);
#90=ORIENTED_EDGE('',*,*,#242,.T.);
#91=ORIENTED_EDGE('',*,*,#237,.T.);
#92=ORIENTED_EDGE('',*,*,#243,.F.);
#93=ORIENTED_EDGE('',*,*,#244,.F.);
#94=ORIENTED_EDGE('',*,*,#245,.T.);
#95=ORIENTED_EDGE('',*,*,#241,.T.);
#96=ORIENTED_EDGE('',*,*,#246,.F.);
#97=ORIENTED_EDGE('',*,*,#247,.F.);
#98=ORIENTED_EDGE('',*,*,#248,.T.);
#99=ORIENTED_EDGE('',*,*,#244,.T.);
#100=ORIENTED_EDGE('',*,*,#249,.F.);
#101=ORIENTED_EDGE('',*,*,#250,.F.);
#102=ORIENTED_EDGE('',*,*,#251,.T.);
#103=ORIENTED_EDGE('',*,*,#247,.T.);
#104=ORIENTED_EDGE('',*,*,#252,.T.);
#105=ORIENTED_EDGE('',*,*,#253,.F.);
#106=ORIENTED_EDGE('',*,*,#254,.F.);
#107=ORIENTED_EDGE('',*,*,#250,.T.);
#108=ORIENTED_EDGE('',*,*,#255,.F.);
#109=ORIENTED_EDGE('',*,*,#256,.F.);
#110=ORIENTED_EDGE('',*,*,#257,.T.);
#111=ORIENTED_EDGE('',*,*,#253,.T.);
#112=ORIENTED_EDGE('',*,*,#258,.T.);
#113=ORIENTED_EDGE('',*,*,#217,.F.);
#114=ORIENTED_EDGE('',*,*,#259,.F.);
#115=ORIENTED_EDGE('',*,*,#256,.T.);
#116=ORIENTED_EDGE('',*,*,#216,.F.);
#117=ORIENTED_EDGE('',*,*,#222,.F.);
#118=ORIENTED_EDGE('',*,*,#225,.T.);
#119=ORIENTED_EDGE('',*,*,#228,.F.);
#120=ORIENTED_EDGE('',*,*,#231,.T.);
#121=ORIENTED_EDGE('',*,*,#234,.F.);
#122=ORIENTED_EDGE('',*,*,#238,.F.);
#123=ORIENTED_EDGE('',*,*,#242,.F.);
#124=ORIENTED_EDGE('',*,*,#245,.F.);
#125=ORIENTED_EDGE('',*,*,#248,.F.);
#126=ORIENTED_EDGE('',*,*,#251,.F.);
#127=ORIENTED_EDGE('',*,*,#254,.T.);
#128=ORIENTED_EDGE('',*,*,#257,.F.);
#129=ORIENTED_EDGE('',*,*,#259,.T.);
#130=ORIENTED_EDGE('',*,*,#260,.T.);
#131=ORIENTED_EDGE('',*,*,#261,.T.);
#132=ORIENTED_EDGE('',*,*,#262,.T.);
#133=ORIENTED_EDGE('',*,*,#263,.T.);
#134=ORIENTED_EDGE('',*,*,#264,.T.);
#135=ORIENTED_EDGE('',*,*,#265,.T.);
#136=ORIENTED_EDGE('',*,*,#266,.T.);
#137=ORIENTED_EDGE('',*,*,#267,.T.);
#138=ORIENTED_EDGE('',*,*,#268,.T.);
#139=ORIENTED_EDGE('',*,*,#269,.T.);
#140=ORIENTED_EDGE('',*,*,#270,.T.);
#141=ORIENTED_EDGE('',*,*,#271,.T.);
#142=ORIENTED_EDGE('',*,*,#272,.T.);
#143=ORIENTED_EDGE('',*,*,#273,.F.);
#144=ORIENTED_EDGE('',*,*,#274,.F.);
#145=ORIENTED_EDGE('',*,*,#275,.T.);
#146=ORIENTED_EDGE('',*,*,#276,.T.);
#147=ORIENTED_EDGE('',*,*,#277,.T.);
#148=ORIENTED_EDGE('',*,*,#278,.T.);
#149=ORIENTED_EDGE('',*,*,#279,.T.);
#150=ORIENTED_EDGE('',*,*,#218,.T.);
#151=ORIENTED_EDGE('',*,*,#258,.F.);
#152=ORIENTED_EDGE('',*,*,#255,.T.);
#153=ORIENTED_EDGE('',*,*,#252,.F.);
#154=ORIENTED_EDGE('',*,*,#249,.T.);
#155=ORIENTED_EDGE('',*,*,#246,.T.);
#156=ORIENTED_EDGE('',*,*,#243,.T.);
#157=ORIENTED_EDGE('',*,*,#240,.T.);
#158=ORIENTED_EDGE('',*,*,#236,.T.);
#159=ORIENTED_EDGE('',*,*,#279,.F.);
#160=ORIENTED_EDGE('',*,*,#280,.F.);
#161=ORIENTED_EDGE('',*,*,#281,.T.);
#162=ORIENTED_EDGE('',*,*,#219,.T.);
#163=ORIENTED_EDGE('',*,*,#278,.F.);
#164=ORIENTED_EDGE('',*,*,#282,.F.);
#165=ORIENTED_EDGE('',*,*,#283,.T.);
#166=ORIENTED_EDGE('',*,*,#280,.T.);
#167=ORIENTED_EDGE('',*,*,#277,.F.);
#168=ORIENTED_EDGE('',*,*,#284,.F.);
#169=ORIENTED_EDGE('',*,*,#285,.T.);
#170=ORIENTED_EDGE('',*,*,#282,.T.);
#171=ORIENTED_EDGE('',*,*,#276,.F.);
#172=ORIENTED_EDGE('',*,*,#286,.F.);
#173=ORIENTED_EDGE('',*,*,#287,.T.);
#174=ORIENTED_EDGE('',*,*,#284,.T.);
#175=ORIENTED_EDGE('',*,*,#220,.T.);
#176=ORIENTED_EDGE('',*,*,#214,.T.);
#177=ORIENTED_EDGE('',*,*,#281,.F.);
#178=ORIENTED_EDGE('',*,*,#283,.F.);
#179=ORIENTED_EDGE('',*,*,#285,.F.);
#180=ORIENTED_EDGE('',*,*,#287,.F.);
#181=ORIENTED_EDGE('',*,*,#288,.F.);
#182=ORIENTED_EDGE('',*,*,#289,.F.);
#183=ORIENTED_EDGE('',*,*,#290,.T.);
#184=ORIENTED_EDGE('',*,*,#239,.T.);
#185=ORIENTED_EDGE('',*,*,#232,.T.);
#186=ORIENTED_EDGE('',*,*,#229,.F.);
#187=ORIENTED_EDGE('',*,*,#226,.T.);
#188=ORIENTED_EDGE('',*,*,#223,.F.);
#189=ORIENTED_EDGE('',*,*,#235,.T.);
#190=ORIENTED_EDGE('',*,*,#290,.F.);
#191=ORIENTED_EDGE('',*,*,#291,.F.);
#192=ORIENTED_EDGE('',*,*,#273,.T.);
#193=ORIENTED_EDGE('',*,*,#275,.F.);
#194=ORIENTED_EDGE('',*,*,#292,.F.);
#195=ORIENTED_EDGE('',*,*,#288,.T.);
#196=ORIENTED_EDGE('',*,*,#286,.T.);
#197=ORIENTED_EDGE('',*,*,#291,.T.);
#198=ORIENTED_EDGE('',*,*,#289,.T.);
#199=ORIENTED_EDGE('',*,*,#292,.T.);
#200=ORIENTED_EDGE('',*,*,#274,.T.);
#201=ORIENTED_EDGE('',*,*,#272,.F.);
#202=ORIENTED_EDGE('',*,*,#271,.F.);
#203=ORIENTED_EDGE('',*,*,#270,.F.);
#204=ORIENTED_EDGE('',*,*,#269,.F.);
#205=ORIENTED_EDGE('',*,*,#268,.F.);
#206=ORIENTED_EDGE('',*,*,#267,.F.);
#207=ORIENTED_EDGE('',*,*,#266,.F.);
#208=ORIENTED_EDGE('',*,*,#265,.F.);
#209=ORIENTED_EDGE('',*,*,#264,.F.);
#210=ORIENTED_EDGE('',*,*,#263,.F.);
#211=ORIENTED_EDGE('',*,*,#262,.F.);
#212=ORIENTED_EDGE('',*,*,#261,.F.);
#213=ORIENTED_EDGE('',*,*,#260,.F.);
#214=EDGE_CURVE('',#293,#294,#350,.T.);
#215=EDGE_CURVE('',#295,#293,#351,.T.);
#216=EDGE_CURVE('',#295,#296,#352,.T.);
#217=EDGE_CURVE('',#296,#297,#353,.T.);
#218=EDGE_CURVE('',#298,#297,#354,.T.);
#219=EDGE_CURVE('',#294,#298,#355,.T.);
#220=EDGE_CURVE('',#299,#293,#356,.T.);
#221=EDGE_CURVE('',#300,#299,#357,.T.);
#222=EDGE_CURVE('',#300,#295,#358,.T.);
#223=EDGE_CURVE('',#299,#301,#25,.T.);
#224=EDGE_CURVE('',#302,#301,#359,.T.);
#225=EDGE_CURVE('',#300,#302,#26,.T.);
#226=EDGE_CURVE('',#303,#301,#360,.T.);
#227=EDGE_CURVE('',#304,#303,#361,.T.);
#228=EDGE_CURVE('',#304,#302,#362,.T.);
#229=EDGE_CURVE('',#303,#305,#27,.T.);
#230=EDGE_CURVE('',#306,#305,#363,.T.);
#231=EDGE_CURVE('',#304,#306,#28,.T.);
#232=EDGE_CURVE('',#307,#305,#364,.T.);
#233=EDGE_CURVE('',#308,#307,#365,.T.);
#234=EDGE_CURVE('',#308,#306,#366,.T.);
#235=EDGE_CURVE('',#309,#310,#367,.T.);
#236=EDGE_CURVE('',#311,#309,#368,.T.);
#237=EDGE_CURVE('',#312,#311,#369,.T.);
#238=EDGE_CURVE('',#312,#308,#370,.T.);
#239=EDGE_CURVE('',#310,#307,#371,.T.);
#240=EDGE_CURVE('',#313,#311,#372,.T.);
#241=EDGE_CURVE('',#314,#313,#373,.T.);
#242=EDGE_CURVE('',#314,#312,#374,.T.);
#243=EDGE_CURVE('',#315,#313,#375,.T.);
#244=EDGE_CURVE('',#316,#315,#376,.T.);
#245=EDGE_CURVE('',#316,#314,#377,.T.);
#246=EDGE_CURVE('',#317,#315,#378,.T.);
#247=EDGE_CURVE('',#318,#317,#379,.T.);
#248=EDGE_CURVE('',#318,#316,#380,.T.);
#249=EDGE_CURVE('',#319,#317,#29,.T.);
#250=EDGE_CURVE('',#320,#319,#381,.T.);
#251=EDGE_CURVE('',#320,#318,#30,.T.);
#252=EDGE_CURVE('',#319,#321,#382,.T.);
#253=EDGE_CURVE('',#322,#321,#383,.T.);
#254=EDGE_CURVE('',#320,#322,#384,.T.);
#255=EDGE_CURVE('',#323,#321,#31,.T.);
#256=EDGE_CURVE('',#324,#323,#385,.T.);
#257=EDGE_CURVE('',#324,#322,#32,.T.);
#258=EDGE_CURVE('',#323,#297,#386,.T.);
#259=EDGE_CURVE('',#324,#296,#387,.T.);
#260=EDGE_CURVE('',#325,#325,#33,.T.);
#261=EDGE_CURVE('',#326,#326,#34,.T.);
#262=EDGE_CURVE('',#327,#327,#35,.T.);
#263=EDGE_CURVE('',#328,#328,#36,.T.);
#264=EDGE_CURVE('',#329,#329,#37,.T.);
#265=EDGE_CURVE('',#330,#330,#38,.T.);
#266=EDGE_CURVE('',#331,#331,#39,.T.);
#267=EDGE_CURVE('',#332,#332,#40,.T.);
#268=EDGE_CURVE('',#333,#333,#41,.T.);
#269=EDGE_CURVE('',#334,#334,#42,.T.);
#270=EDGE_CURVE('',#335,#335,#43,.T.);
#271=EDGE_CURVE('',#336,#336,#44,.T.);
#272=EDGE_CURVE('',#337,#337,#45,.T.);
#273=EDGE_CURVE('',#338,#309,#388,.T.);
#274=EDGE_CURVE('',#339,#338,#389,.T.);
#275=EDGE_CURVE('',#339,#340,#390,.T.);
#276=EDGE_CURVE('',#340,#341,#46,.T.);
#277=EDGE_CURVE('',#341,#342,#391,.T.);
#278=EDGE_CURVE('',#342,#343,#47,.T.);
#279=EDGE_CURVE('',#343,#298,#392,.T.);
#280=EDGE_CURVE('',#344,#343,#393,.T.);
#281=EDGE_CURVE('',#344,#294,#394,.T.);
#282=EDGE_CURVE('',#345,#342,#395,.T.);
#283=EDGE_CURVE('',#345,#344,#48,.T.);
#284=EDGE_CURVE('',#346,#341,#396,.T.);
#285=EDGE_CURVE('',#346,#345,#397,.T.);
#286=EDGE_CURVE('',#347,#340,#398,.T.);
#287=EDGE_CURVE('',#347,#346,#49,.T.);
#288=EDGE_CURVE('',#348,#347,#399,.T.);
#289=EDGE_CURVE('',#349,#348,#400,.T.);
#290=EDGE_CURVE('',#349,#310,#401,.T.);
#291=EDGE_CURVE('',#338,#349,#402,.T.);
#292=EDGE_CURVE('',#348,#339,#403,.T.);
#293=VERTEX_POINT('',#871);
#294=VERTEX_POINT('',#872);
#295=VERTEX_POINT('',#874);
#296=VERTEX_POINT('',#876);
#297=VERTEX_POINT('',#878);
#298=VERTEX_POINT('',#880);
#299=VERTEX_POINT('',#884);
#300=VERTEX_POINT('',#886);
#301=VERTEX_POINT('',#890);
#302=VERTEX_POINT('',#892);
#303=VERTEX_POINT('',#896);
#304=VERTEX_POINT('',#898);
#305=VERTEX_POINT('',#902);
#306=VERTEX_POINT('',#904);
#307=VERTEX_POINT('',#908);
#308=VERTEX_POINT('',#910);
#309=VERTEX_POINT('',#914);
#310=VERTEX_POINT('',#915);
#311=VERTEX_POINT('',#917);
#312=VERTEX_POINT('',#919);
#313=VERTEX_POINT('',#924);
#314=VERTEX_POINT('',#926);
#315=VERTEX_POINT('',#930);
#316=VERTEX_POINT('',#932);
#317=VERTEX_POINT('',#936);
#318=VERTEX_POINT('',#938);
#319=VERTEX_POINT('',#942);
#320=VERTEX_POINT('',#944);
#321=VERTEX_POINT('',#948);
#322=VERTEX_POINT('',#950);
#323=VERTEX_POINT('',#954);
#324=VERTEX_POINT('',#956);
#325=VERTEX_POINT('',#964);
#326=VERTEX_POINT('',#966);
#327=VERTEX_POINT('',#968);
#328=VERTEX_POINT('',#970);
#329=VERTEX_POINT('',#972);
#330=VERTEX_POINT('',#974);
#331=VERTEX_POINT('',#976);
#332=VERTEX_POINT('',#978);
#333=VERTEX_POINT('',#980);
#334=VERTEX_POINT('',#982);
#335=VERTEX_POINT('',#984);
#336=VERTEX_POINT('',#986);
#337=VERTEX_POINT('',#988);
#338=VERTEX_POINT('',#990);
#339=VERTEX_POINT('',#992);
#340=VERTEX_POINT('',#994);
#341=VERTEX_POINT('',#996);
#342=VERTEX_POINT('',#998);
#343=VERTEX_POINT('',#1000);
#344=VERTEX_POINT('',#1004);
#345=VERTEX_POINT('',#1008);
#346=VERTEX_POINT('',#1012);
#347=VERTEX_POINT('',#1016);
#348=VERTEX_POINT('',#1020);
#349=VERTEX_POINT('',#1022);
#350=LINE('',#870,#404);
#351=LINE('',#873,#405);
#352=LINE('',#875,#406);
#353=LINE('',#877,#407);
#354=LINE('',#879,#408);
#355=LINE('',#881,#409);
#356=LINE('',#883,#410);
#357=LINE('',#885,#411);
#358=LINE('',#887,#412);
#359=LINE('',#891,#413);
#360=LINE('',#895,#414);
#361=LINE('',#897,#415);
#362=LINE('',#899,#416);
#363=LINE('',#903,#417);
#364=LINE('',#907,#418);
#365=LINE('',#909,#419);
#366=LINE('',#911,#420);
#367=LINE('',#913,#421);
#368=LINE('',#916,#422);
#369=LINE('',#918,#423);
#370=LINE('',#920,#424);
#371=LINE('',#921,#425);
#372=LINE('',#923,#426);
#373=LINE('',#925,#427);
#374=LINE('',#927,#428);
#375=LINE('',#929,#429);
#376=LINE('',#931,#430);
#377=LINE('',#933,#431);
#378=LINE('',#935,#432);
#379=LINE('',#937,#433);
#380=LINE('',#939,#434);
#381=LINE('',#943,#435);
#382=LINE('',#947,#436);
#383=LINE('',#949,#437);
#384=LINE('',#951,#438);
#385=LINE('',#955,#439);
#386=LINE('',#959,#440);
#387=LINE('',#960,#441);
#388=LINE('',#989,#442);
#389=LINE('',#991,#443);
#390=LINE('',#993,#444);
#391=LINE('',#997,#445);
#392=LINE('',#1001,#446);
#393=LINE('',#1003,#447);
#394=LINE('',#1005,#448);
#395=LINE('',#1007,#449);
#396=LINE('',#1011,#450);
#397=LINE('',#1013,#451);
#398=LINE('',#1015,#452);
#399=LINE('',#1019,#453);
#400=LINE('',#1021,#454);
#401=LINE('',#1023,#455);
#402=LINE('',#1025,#456);
#403=LINE('',#1027,#457);
#404=VECTOR('',#692,1.);
#405=VECTOR('',#693,1.);
#406=VECTOR('',#694,1.);
#407=VECTOR('',#695,1.);
#408=VECTOR('',#696,1.);
#409=VECTOR('',#697,1.);
#410=VECTOR('',#700,1.);
#411=VECTOR('',#701,1.);
#412=VECTOR('',#702,1.);
#413=VECTOR('',#707,1.);
#414=VECTOR('',#712,1.);
#415=VECTOR('',#713,1.);
#416=VECTOR('',#714,1.);
#417=VECTOR('',#719,1.);
#418=VECTOR('',#724,1.);
#419=VECTOR('',#725,1.);
#420=VECTOR('',#726,1.);
#421=VECTOR('',#729,1.);
#422=VECTOR('',#730,1.);
#423=VECTOR('',#731,1.);
#424=VECTOR('',#732,1.);
#425=VECTOR('',#733,1.);
#426=VECTOR('',#736,1.);
#427=VECTOR('',#737,1.);
#428=VECTOR('',#738,1.);
#429=VECTOR('',#741,1.);
#430=VECTOR('',#742,1.);
#431=VECTOR('',#743,1.);
#432=VECTOR('',#746,1.);
#433=VECTOR('',#747,1.);
#434=VECTOR('',#748,1.);
#435=VECTOR('',#753,1.);
#436=VECTOR('',#758,1.);
#437=VECTOR('',#759,1.);
#438=VECTOR('',#760,1.);
#439=VECTOR('',#765,1.);
#440=VECTOR('',#770,1.);
#441=VECTOR('',#771,1.);
#442=VECTOR('',#802,1.);
#443=VECTOR('',#803,1.);
#444=VECTOR('',#804,1.);
#445=VECTOR('',#807,1.);
#446=VECTOR('',#810,1.);
#447=VECTOR('',#813,1.);
#448=VECTOR('',#814,1.);
#449=VECTOR('',#817,1.);
#450=VECTOR('',#822,1.);
#451=VECTOR('',#823,1.);
#452=VECTOR('',#826,1.);
#453=VECTOR('',#831,1.);
#454=VECTOR('',#832,1.);
#455=VECTOR('',#833,1.);
#456=VECTOR('',#836,1.);
#457=VECTOR('',#839,1.);
#458=EDGE_LOOP('',(#56,#57,#58,#59,#60,#61));
#459=EDGE_LOOP('',(#62,#63,#64,#65));
#460=EDGE_LOOP('',(#66,#67,#68,#69));
#461=EDGE_LOOP('',(#70,#71,#72,#73));
#462=EDGE_LOOP('',(#74,#75,#76,#77));
#463=EDGE_LOOP('',(#78,#79,#80,#81));
#464=EDGE_LOOP('',(#82,#83,#84,#85,#86,#87));
#465=EDGE_LOOP('',(#88,#89,#90,#91));
#466=EDGE_LOOP('',(#92,#93,#94,#95));
#467=EDGE_LOOP('',(#96,#97,#98,#99));
#468=EDGE_LOOP('',(#100,#101,#102,#103));
#469=EDGE_LOOP('',(#104,#105,#106,#107));
#470=EDGE_LOOP('',(#108,#109,#110,#111));
#471=EDGE_LOOP('',(#112,#113,#114,#115));
#472=EDGE_LOOP('',(#116,#117,#118,#119,#120,#121,#122,#123,#124,#125,#126,
#127,#128,#129));
#473=EDGE_LOOP('',(#130));
#474=EDGE_LOOP('',(#131));
#475=EDGE_LOOP('',(#132));
#476=EDGE_LOOP('',(#133));
#477=EDGE_LOOP('',(#134));
#478=EDGE_LOOP('',(#135));
#479=EDGE_LOOP('',(#136));
#480=EDGE_LOOP('',(#137));
#481=EDGE_LOOP('',(#138));
#482=EDGE_LOOP('',(#139));
#483=EDGE_LOOP('',(#140));
#484=EDGE_LOOP('',(#141));
#485=EDGE_LOOP('',(#142));
#486=EDGE_LOOP('',(#143,#144,#145,#146,#147,#148,#149,#150,#151,#152,#153,
#154,#155,#156,#157,#158));
#487=EDGE_LOOP('',(#159,#160,#161,#162));
#488=EDGE_LOOP('',(#163,#164,#165,#166));
#489=EDGE_LOOP('',(#167,#168,#169,#170));
#490=EDGE_LOOP('',(#171,#172,#173,#174));
#491=EDGE_LOOP('',(#175,#176,#177,#178,#179,#180,#181,#182,#183,#184,#185,
#186,#187,#188));
#492=EDGE_LOOP('',(#189,#190,#191,#192));
#493=EDGE_LOOP('',(#193,#194,#195,#196));
#494=EDGE_LOOP('',(#197,#198,#199,#200));
#495=EDGE_LOOP('',(#201));
#496=EDGE_LOOP('',(#202));
#497=EDGE_LOOP('',(#203));
#498=EDGE_LOOP('',(#204));
#499=EDGE_LOOP('',(#205));
#500=EDGE_LOOP('',(#206));
#501=EDGE_LOOP('',(#207));
#502=EDGE_LOOP('',(#208));
#503=EDGE_LOOP('',(#209));
#504=EDGE_LOOP('',(#210));
#505=EDGE_LOOP('',(#211));
#506=EDGE_LOOP('',(#212));
#507=EDGE_LOOP('',(#213));
#508=FACE_BOUND('',#458,.T.);
#509=FACE_BOUND('',#459,.T.);
#510=FACE_BOUND('',#460,.T.);
#511=FACE_BOUND('',#461,.T.);
#512=FACE_BOUND('',#462,.T.);
#513=FACE_BOUND('',#463,.T.);
#514=FACE_BOUND('',#464,.T.);
#515=FACE_BOUND('',#465,.T.);
#516=FACE_BOUND('',#466,.T.);
#517=FACE_BOUND('',#467,.T.);
#518=FACE_BOUND('',#468,.T.);
#519=FACE_BOUND('',#469,.T.);
#520=FACE_BOUND('',#470,.T.);
#521=FACE_BOUND('',#471,.T.);
#522=FACE_BOUND('',#472,.T.);
#523=FACE_BOUND('',#473,.T.);
#524=FACE_BOUND('',#474,.T.);
#525=FACE_BOUND('',#475,.T.);
#526=FACE_BOUND('',#476,.T.);
#527=FACE_BOUND('',#477,.T.);
#528=FACE_BOUND('',#478,.T.);
#529=FACE_BOUND('',#479,.T.);
#530=FACE_BOUND('',#480,.T.);
#531=FACE_BOUND('',#481,.T.);
#532=FACE_BOUND('',#482,.T.);
#533=FACE_BOUND('',#483,.T.);
#534=FACE_BOUND('',#484,.T.);
#535=FACE_BOUND('',#485,.T.);
#536=FACE_BOUND('',#486,.T.);
#537=FACE_BOUND('',#487,.T.);
#538=FACE_BOUND('',#488,.T.);
#539=FACE_BOUND('',#489,.T.);
#540=FACE_BOUND('',#490,.T.);
#541=FACE_BOUND('',#491,.T.);
#542=FACE_BOUND('',#492,.T.);
#543=FACE_BOUND('',#493,.T.);
#544=FACE_BOUND('',#494,.T.);
#545=FACE_BOUND('',#495,.T.);
#546=FACE_BOUND('',#496,.T.);
#547=FACE_BOUND('',#497,.T.);
#548=FACE_BOUND('',#498,.T.);
#549=FACE_BOUND('',#499,.T.);
#550=FACE_BOUND('',#500,.T.);
#551=FACE_BOUND('',#501,.T.);
#552=FACE_BOUND('',#502,.T.);
#553=FACE_BOUND('',#503,.T.);
#554=FACE_BOUND('',#504,.T.);
#555=FACE_BOUND('',#505,.T.);
#556=FACE_BOUND('',#506,.T.);
#557=FACE_BOUND('',#507,.T.);
#558=PLANE('',#626);
#559=PLANE('',#627);
#560=PLANE('',#631);
#561=PLANE('',#635);
#562=PLANE('',#636);
#563=PLANE('',#637);
#564=PLANE('',#638);
#565=PLANE('',#639);
#566=PLANE('',#643);
#567=PLANE('',#647);
#568=PLANE('',#648);
#569=PLANE('',#649);
#570=PLANE('',#665);
#571=PLANE('',#668);
#572=PLANE('',#671);
#573=PLANE('',#672);
#574=PLANE('',#673);
#575=PLANE('',#674);
#576=ADVANCED_FACE('',(#508),#558,.T.);
#577=ADVANCED_FACE('',(#509),#559,.T.);
#578=ADVANCED_FACE('',(#510),#50,.T.);
#579=ADVANCED_FACE('',(#511),#560,.T.);
#580=ADVANCED_FACE('',(#512),#51,.T.);
#581=ADVANCED_FACE('',(#513),#561,.T.);
#582=ADVANCED_FACE('',(#514),#562,.T.);
#583=ADVANCED_FACE('',(#515),#563,.T.);
#584=ADVANCED_FACE('',(#516),#564,.T.);
#585=ADVANCED_FACE('',(#517),#565,.T.);
#586=ADVANCED_FACE('',(#518),#52,.F.);
#587=ADVANCED_FACE('',(#519),#566,.F.);
#588=ADVANCED_FACE('',(#520),#53,.F.);
#589=ADVANCED_FACE('',(#521),#567,.F.);
#590=ADVANCED_FACE('',(#522),#568,.T.);
#591=ADVANCED_FACE('',(#523,#524,#525,#526,#527,#528,#529,#530,#531,#532,
#533,#534,#535,#536),#569,.F.);
#592=ADVANCED_FACE('',(#537),#570,.F.);
#593=ADVANCED_FACE('',(#538),#54,.T.);
#594=ADVANCED_FACE('',(#539),#571,.F.);
#595=ADVANCED_FACE('',(#540),#55,.T.);
#596=ADVANCED_FACE('',(#541),#572,.F.);
#597=ADVANCED_FACE('',(#542),#573,.F.);
#598=ADVANCED_FACE('',(#543),#574,.F.);
#599=ADVANCED_FACE('',(#544),#575,.F.);
#600=ADVANCED_FACE('',(#545),#12,.T.);
#601=ADVANCED_FACE('',(#546),#13,.T.);
#602=ADVANCED_FACE('',(#547),#14,.T.);
#603=ADVANCED_FACE('',(#548),#15,.T.);
#604=ADVANCED_FACE('',(#549),#16,.T.);
#605=ADVANCED_FACE('',(#550),#17,.T.);
#606=ADVANCED_FACE('',(#551),#18,.T.);
#607=ADVANCED_FACE('',(#552),#19,.T.);
#608=ADVANCED_FACE('',(#553),#20,.T.);
#609=ADVANCED_FACE('',(#554),#21,.T.);
#610=ADVANCED_FACE('',(#555),#22,.T.);
#611=ADVANCED_FACE('',(#556),#23,.T.);
#612=ADVANCED_FACE('',(#557),#24,.T.);
#613=CLOSED_SHELL('',(#576,#577,#578,#579,#580,#581,#582,#583,#584,#585,
#586,#587,#588,#589,#590,#591,#592,#593,#594,#595,#596,#597,#598,#599,#600,
#601,#602,#603,#604,#605,#606,#607,#608,#609,#610,#611,#612));
#614=STYLED_ITEM('',(#615),#622);
#615=PRESENTATION_STYLE_ASSIGNMENT((#616));
#616=SURFACE_STYLE_USAGE(.BOTH.,#617);
#617=SURFACE_SIDE_STYLE('',(#618));
#618=SURFACE_STYLE_FILL_AREA(#619);
#619=FILL_AREA_STYLE('',(#620));
#620=FILL_AREA_STYLE_COLOUR('',#621);
#621=COLOUR_RGB('',0.305882352941177,0.298039215686275,0.298039215686275);
#622=MANIFOLD_SOLID_BREP('Bender 1',#613);
#623=SHAPE_DEFINITION_REPRESENTATION(#1048,#624);
#624=SHAPE_REPRESENTATION('Bender 1',(#625),#1043);
#625=AXIS2_PLACEMENT_3D('',#868,#688,#689);
#626=AXIS2_PLACEMENT_3D('',#869,#690,#691);
#627=AXIS2_PLACEMENT_3D('',#882,#698,#699);
#628=AXIS2_PLACEMENT_3D('',#888,#703,#704);
#629=AXIS2_PLACEMENT_3D('',#889,#705,#706);
#630=AXIS2_PLACEMENT_3D('',#893,#708,#709);
#631=AXIS2_PLACEMENT_3D('',#894,#710,#711);
#632=AXIS2_PLACEMENT_3D('',#900,#715,#716);
#633=AXIS2_PLACEMENT_3D('',#901,#717,#718);
#634=AXIS2_PLACEMENT_3D('',#905,#720,#721);
#635=AXIS2_PLACEMENT_3D('',#906,#722,#723);
#636=AXIS2_PLACEMENT_3D('',#912,#727,#728);
#637=AXIS2_PLACEMENT_3D('',#922,#734,#735);
#638=AXIS2_PLACEMENT_3D('',#928,#739,#740);
#639=AXIS2_PLACEMENT_3D('',#934,#744,#745);
#640=AXIS2_PLACEMENT_3D('',#940,#749,#750);
#641=AXIS2_PLACEMENT_3D('',#941,#751,#752);
#642=AXIS2_PLACEMENT_3D('',#945,#754,#755);
#643=AXIS2_PLACEMENT_3D('',#946,#756,#757);
#644=AXIS2_PLACEMENT_3D('',#952,#761,#762);
#645=AXIS2_PLACEMENT_3D('',#953,#763,#764);
#646=AXIS2_PLACEMENT_3D('',#957,#766,#767);
#647=AXIS2_PLACEMENT_3D('',#958,#768,#769);
#648=AXIS2_PLACEMENT_3D('',#961,#772,#773);
#649=AXIS2_PLACEMENT_3D('',#962,#774,#775);
#650=AXIS2_PLACEMENT_3D('',#963,#776,#777);
#651=AXIS2_PLACEMENT_3D('',#965,#778,#779);
#652=AXIS2_PLACEMENT_3D('',#967,#780,#781);
#653=AXIS2_PLACEMENT_3D('',#969,#782,#783);
#654=AXIS2_PLACEMENT_3D('',#971,#784,#785);
#655=AXIS2_PLACEMENT_3D('',#973,#786,#787);
#656=AXIS2_PLACEMENT_3D('',#975,#788,#789);
#657=AXIS2_PLACEMENT_3D('',#977,#790,#791);
#658=AXIS2_PLACEMENT_3D('',#979,#792,#793);
#659=AXIS2_PLACEMENT_3D('',#981,#794,#795);
#660=AXIS2_PLACEMENT_3D('',#983,#796,#797);
#661=AXIS2_PLACEMENT_3D('',#985,#798,#799);
#662=AXIS2_PLACEMENT_3D('',#987,#800,#801);
#663=AXIS2_PLACEMENT_3D('',#995,#805,#806);
#664=AXIS2_PLACEMENT_3D('',#999,#808,#809);
#665=AXIS2_PLACEMENT_3D('',#1002,#811,#812);
#666=AXIS2_PLACEMENT_3D('',#1006,#815,#816);
#667=AXIS2_PLACEMENT_3D('',#1009,#818,#819);
#668=AXIS2_PLACEMENT_3D('',#1010,#820,#821);
#669=AXIS2_PLACEMENT_3D('',#1014,#824,#825);
#670=AXIS2_PLACEMENT_3D('',#1017,#827,#828);
#671=AXIS2_PLACEMENT_3D('',#1018,#829,#830);
#672=AXIS2_PLACEMENT_3D('',#1024,#834,#835);
#673=AXIS2_PLACEMENT_3D('',#1026,#837,#838);
#674=AXIS2_PLACEMENT_3D('',#1028,#840,#841);
#675=AXIS2_PLACEMENT_3D('',#1029,#842,#843);
#676=AXIS2_PLACEMENT_3D('',#1030,#844,#845);
#677=AXIS2_PLACEMENT_3D('',#1031,#846,#847);
#678=AXIS2_PLACEMENT_3D('',#1032,#848,#849);
#679=AXIS2_PLACEMENT_3D('',#1033,#850,#851);
#680=AXIS2_PLACEMENT_3D('',#1034,#852,#853);
#681=AXIS2_PLACEMENT_3D('',#1035,#854,#855);
#682=AXIS2_PLACEMENT_3D('',#1036,#856,#857);
#683=AXIS2_PLACEMENT_3D('',#1037,#858,#859);
#684=AXIS2_PLACEMENT_3D('',#1038,#860,#861);
#685=AXIS2_PLACEMENT_3D('',#1039,#862,#863);
#686=AXIS2_PLACEMENT_3D('',#1040,#864,#865);
#687=AXIS2_PLACEMENT_3D('',#1041,#866,#867);
#688=DIRECTION('',(0.,0.,1.));
#689=DIRECTION('',(1.,0.,0.));
#690=DIRECTION('',(0.,0.866025403784439,-0.5));
#691=DIRECTION('',(0.,0.5,0.866025403784439));
#692=DIRECTION('',(0.,-0.5,-0.866025403784439));
#693=DIRECTION('',(-1.,0.,0.));
#694=DIRECTION('',(0.,-0.5,-0.866025403784439));
#695=DIRECTION('',(-1.,0.,0.));
#696=DIRECTION('',(0.,-0.5,-0.866025403784439));
#697=DIRECTION('',(-1.,0.,0.));
#698=DIRECTION('',(0.,0.5,0.866025403784439));
#699=DIRECTION('',(0.,-0.866025403784439,0.5));
#700=DIRECTION('',(0.,0.866025403784439,-0.5));
#701=DIRECTION('',(-1.,0.,0.));
#702=DIRECTION('',(0.,0.866025403784439,-0.5));
#703=DIRECTION('',(-1.,0.,0.));
#704=DIRECTION('',(0.,1.,0.));
#705=DIRECTION('',(1.,0.,0.));
#706=DIRECTION('',(0.,-1.,0.));
#707=DIRECTION('',(-1.,0.,0.));
#708=DIRECTION('',(1.,0.,0.));
#709=DIRECTION('',(0.,-1.,0.));
#710=DIRECTION('',(0.,-0.996194698091746,0.0871557427476587));
#711=DIRECTION('',(0.,-0.0871557427476587,-0.996194698091746));
#712=DIRECTION('',(0.,0.0871557427476587,0.996194698091746));
#713=DIRECTION('',(-1.,0.,0.));
#714=DIRECTION('',(0.,0.0871557427476587,0.996194698091746));
#715=DIRECTION('',(-1.,0.,0.));
#716=DIRECTION('',(0.,1.,0.));
#717=DIRECTION('',(1.,0.,0.));
#718=DIRECTION('',(0.,-1.,0.));
#719=DIRECTION('',(-1.,0.,0.));
#720=DIRECTION('',(1.,0.,0.));
#721=DIRECTION('',(0.,-1.,0.));
#722=DIRECTION('',(0.,-6.38955679674447E-16,-1.));
#723=DIRECTION('',(0.,1.,-6.38955679674447E-16));
#724=DIRECTION('',(0.,-1.,6.38955679674447E-16));
#725=DIRECTION('',(-1.,0.,0.));
#726=DIRECTION('',(0.,-1.,6.38955679674447E-16));
#727=DIRECTION('',(0.,-1.,0.));
#728=DIRECTION('',(-1.,0.,0.));
#729=DIRECTION('',(1.,0.,0.));
#730=DIRECTION('',(0.,0.,1.));
#731=DIRECTION('',(-1.,0.,0.));
#732=DIRECTION('',(0.,0.,1.));
#733=DIRECTION('',(0.,0.,1.));
#734=DIRECTION('',(0.,0.,-1.));
#735=DIRECTION('',(0.,1.,0.));
#736=DIRECTION('',(0.,-1.,0.));
#737=DIRECTION('',(-1.,0.,0.));
#738=DIRECTION('',(0.,-1.,0.));
#739=DIRECTION('',(0.,1.,0.));
#740=DIRECTION('',(1.,0.,0.));
#741=DIRECTION('',(0.,0.,-1.));
#742=DIRECTION('',(-1.,0.,0.));
#743=DIRECTION('',(0.,0.,-1.));
#744=DIRECTION('',(0.,0.,1.));
#745=DIRECTION('',(0.,-1.,0.));
#746=DIRECTION('',(0.,1.,0.));
#747=DIRECTION('',(-1.,0.,0.));
#748=DIRECTION('',(0.,1.,0.));
#749=DIRECTION('',(-1.,0.,0.));
#750=DIRECTION('',(0.,1.,0.));
#751=DIRECTION('',(1.,0.,0.));
#752=DIRECTION('',(0.,-1.,0.));
#753=DIRECTION('',(-1.,0.,0.));
#754=DIRECTION('',(1.,0.,0.));
#755=DIRECTION('',(0.,-1.,0.));
#756=DIRECTION('',(0.,-0.996194698091746,0.0871557427476586));
#757=DIRECTION('',(0.,-0.0871557427476586,-0.996194698091746));
#758=DIRECTION('',(0.,0.0871557427476586,0.996194698091746));
#759=DIRECTION('',(-1.,0.,0.));
#760=DIRECTION('',(0.,0.0871557427476586,0.996194698091746));
#761=DIRECTION('',(-1.,0.,0.));
#762=DIRECTION('',(0.,1.,0.));
#763=DIRECTION('',(1.,0.,0.));
#764=DIRECTION('',(0.,-1.,0.));
#765=DIRECTION('',(-1.,0.,0.));
#766=DIRECTION('',(1.,0.,0.));
#767=DIRECTION('',(0.,-1.,0.));
#768=DIRECTION('',(0.,0.5,0.866025403784439));
#769=DIRECTION('',(0.,-0.866025403784439,0.5));
#770=DIRECTION('',(0.,0.866025403784439,-0.5));
#771=DIRECTION('',(0.,0.866025403784439,-0.5));
#772=DIRECTION('',(1.,0.,0.));
#773=DIRECTION('',(0.,0.,-1.));
#774=DIRECTION('',(1.,0.,0.));
#775=DIRECTION('',(0.,0.,-1.));
#776=DIRECTION('',(1.,0.,0.));
#777=DIRECTION('',(0.,-1.,0.));
#778=DIRECTION('',(1.,0.,0.));
#779=DIRECTION('',(0.,-1.,0.));
#780=DIRECTION('',(1.,0.,0.));
#781=DIRECTION('',(0.,-1.,0.));
#782=DIRECTION('',(1.,0.,0.));
#783=DIRECTION('',(0.,-1.,0.));
#784=DIRECTION('',(1.,0.,0.));
#785=DIRECTION('',(0.,-1.,0.));
#786=DIRECTION('',(1.,0.,0.));
#787=DIRECTION('',(0.,-1.,0.));
#788=DIRECTION('',(1.,0.,0.));
#789=DIRECTION('',(0.,-1.,0.));
#790=DIRECTION('',(1.,0.,0.));
#791=DIRECTION('',(0.,-1.,0.));
#792=DIRECTION('',(1.,0.,0.));
#793=DIRECTION('',(0.,-1.,0.));
#794=DIRECTION('',(1.,0.,0.));
#795=DIRECTION('',(0.,-1.,0.));
#796=DIRECTION('',(1.,0.,0.));
#797=DIRECTION('',(0.,-1.,0.));
#798=DIRECTION('',(1.,0.,0.));
#799=DIRECTION('',(0.,-1.,0.));
#800=DIRECTION('',(1.,0.,0.));
#801=DIRECTION('',(0.,-1.,0.));
#802=DIRECTION('',(0.,-1.,6.17348758072832E-16));
#803=DIRECTION('',(0.,0.,-1.));
#804=DIRECTION('',(0.,-1.,6.17348758072832E-16));
#805=DIRECTION('',(-1.,0.,0.));
#806=DIRECTION('',(0.,-2.08166817117217E-15,-1.));
#807=DIRECTION('',(0.,0.0871557427476587,0.996194698091746));
#808=DIRECTION('',(-1.,0.,0.));
#809=DIRECTION('',(0.,-0.996194698091746,0.0871557427476577));
#810=DIRECTION('',(0.,0.866025403784439,-0.5));
#811=DIRECTION('',(0.,-0.5,-0.866025403784439));
#812=DIRECTION('',(0.,0.866025403784439,-0.5));
#813=DIRECTION('',(-1.,0.,0.));
#814=DIRECTION('',(0.,0.866025403784439,-0.5));
#815=DIRECTION('',(-1.,0.,0.));
#816=DIRECTION('',(0.,1.,0.));
#817=DIRECTION('',(-1.,0.,0.));
#818=DIRECTION('',(-1.,0.,0.));
#819=DIRECTION('',(0.,-0.996194698091746,0.0871557427476577));
#820=DIRECTION('',(0.,0.996194698091746,-0.0871557427476587));
#821=DIRECTION('',(0.,0.0871557427476587,0.996194698091746));
#822=DIRECTION('',(-1.,0.,0.));
#823=DIRECTION('',(0.,0.0871557427476587,0.996194698091746));
#824=DIRECTION('',(-1.,0.,0.));
#825=DIRECTION('',(0.,1.,0.));
#826=DIRECTION('',(-1.,0.,0.));
#827=DIRECTION('',(-1.,0.,0.));
#828=DIRECTION('',(0.,-2.08166817117217E-15,-1.));
#829=DIRECTION('',(1.,0.,0.));
#830=DIRECTION('',(0.,-1.,0.));
#831=DIRECTION('',(0.,-1.,6.17348758072832E-16));
#832=DIRECTION('',(0.,0.,1.));
#833=DIRECTION('',(0.,-1.,6.17348758072832E-16));
#834=DIRECTION('',(0.,-6.17348758072832E-16,-1.));
#835=DIRECTION('',(0.,1.,-6.17348758072832E-16));
#836=DIRECTION('',(1.,0.,0.));
#837=DIRECTION('',(0.,6.17348758072832E-16,1.));
#838=DIRECTION('',(0.,-1.,6.17348758072832E-16));
#839=DIRECTION('',(-1.,0.,0.));
#840=DIRECTION('',(0.,1.,0.));
#841=DIRECTION('',(1.,0.,0.));
#842=DIRECTION('',(1.,0.,0.));
#843=DIRECTION('',(0.,-1.,0.));
#844=DIRECTION('',(1.,0.,0.));
#845=DIRECTION('',(0.,-1.,0.));
#846=DIRECTION('',(1.,0.,0.));
#847=DIRECTION('',(0.,-1.,0.));
#848=DIRECTION('',(1.,0.,0.));
#849=DIRECTION('',(0.,-1.,0.));
#850=DIRECTION('',(1.,0.,0.));
#851=DIRECTION('',(0.,-1.,0.));
#852=DIRECTION('',(1.,0.,0.));
#853=DIRECTION('',(0.,-1.,0.));
#854=DIRECTION('',(1.,0.,0.));
#855=DIRECTION('',(0.,-1.,0.));
#856=DIRECTION('',(1.,0.,0.));
#857=DIRECTION('',(0.,-1.,0.));
#858=DIRECTION('',(1.,0.,0.));
#859=DIRECTION('',(0.,-1.,0.));
#860=DIRECTION('',(1.,0.,0.));
#861=DIRECTION('',(0.,-1.,0.));
#862=DIRECTION('',(1.,0.,0.));
#863=DIRECTION('',(0.,-1.,0.));
#864=DIRECTION('',(1.,0.,0.));
#865=DIRECTION('',(0.,-1.,0.));
#866=DIRECTION('',(1.,0.,0.));
#867=DIRECTION('',(0.,-1.,0.));
#868=CARTESIAN_POINT('',(0.,0.,0.));
#869=CARTESIAN_POINT('',(0.0155,0.0271379316676752,0.0642754877835134));
#870=CARTESIAN_POINT('',(0.011,0.0292379316676752,0.0679127944794081));
#871=CARTESIAN_POINT('',(0.011,0.0302629316676752,0.0696881465571662));
#872=CARTESIAN_POINT('',(0.011,0.0280129316676752,0.0657910322401362));
#873=CARTESIAN_POINT('',(0.0155,0.0302629316676752,0.0696881465571662));
#874=CARTESIAN_POINT('',(0.0155,0.0302629316676752,0.0696881465571662));
#875=CARTESIAN_POINT('',(0.0155,0.0271379316676752,0.0642754877835134));
#876=CARTESIAN_POINT('',(0.0155,0.0251379316676752,0.0608113861683757));
#877=CARTESIAN_POINT('',(0.0155,0.0251379316676752,0.0608113861683757));
#878=CARTESIAN_POINT('',(0.,0.0251379316676752,0.0608113861683757));
#879=CARTESIAN_POINT('',(0.,0.0271379316676752,0.0642754877835134));
#880=CARTESIAN_POINT('',(0.,0.0280129316676752,0.0657910322401362));
#881=CARTESIAN_POINT('',(0.0055,0.0280129316676752,0.0657910322401362));
#882=CARTESIAN_POINT('',(0.0155,0.0216026776298308,0.0746881465571662));
#883=CARTESIAN_POINT('',(0.011,0.0216026776298308,0.0746881465571662));
#884=CARTESIAN_POINT('',(0.011,0.0129424235919864,0.0796881465571662));
#885=CARTESIAN_POINT('',(0.0155,0.0129424235919864,0.0796881465571662));
#886=CARTESIAN_POINT('',(0.0155,0.0129424235919864,0.0796881465571662));
#887=CARTESIAN_POINT('',(0.0155,0.0216026776298308,0.0746881465571662));
#888=CARTESIAN_POINT('',(0.0155,0.00369242359198642,0.0636666765871541));
#889=CARTESIAN_POINT('',(0.011,0.00369242359198642,0.0636666765871541));
#890=CARTESIAN_POINT('',(0.011,-0.0147371783227108,0.0652790578279858));
#891=CARTESIAN_POINT('',(0.0155,-0.0147371783227109,0.0652790578279858));
#892=CARTESIAN_POINT('',(0.0155,-0.0147371783227109,0.0652790578279858));
#893=CARTESIAN_POINT('',(0.0155,0.00369242359198642,0.0636666765871541));
#894=CARTESIAN_POINT('',(0.0155,-0.018132863448047,0.0264661992416847));
#895=CARTESIAN_POINT('',(0.011,-0.018132863448047,0.0264661992416847));
#896=CARTESIAN_POINT('',(0.011,-0.0215285485733832,-0.0123466593446162));
#897=CARTESIAN_POINT('',(0.0155,-0.0215285485733832,-0.0123466593446162));
#898=CARTESIAN_POINT('',(0.0155,-0.0215285485733832,-0.0123466593446162));
#899=CARTESIAN_POINT('',(0.0155,-0.018132863448047,0.0264661992416847));
#900=CARTESIAN_POINT('',(0.0155,-0.00210275196059416,-0.0140461963281955));
#901=CARTESIAN_POINT('',(0.011,-0.00210275196059416,-0.0140461963281955));
#902=CARTESIAN_POINT('',(0.011,-0.00210275196059416,-0.0335461963281955));
#903=CARTESIAN_POINT('',(0.0155,-0.00210275196059416,-0.0335461963281955));
#904=CARTESIAN_POINT('',(0.0155,-0.00210275196059416,-0.0335461963281955));
#905=CARTESIAN_POINT('',(0.0155,-0.00210275196059416,-0.0140461963281955));
#906=CARTESIAN_POINT('',(0.0155,0.00875699015398044,-0.0335461963281955));
#907=CARTESIAN_POINT('',(0.011,0.00875699015398044,-0.0335461963281955));
#908=CARTESIAN_POINT('',(0.011,0.019616732268555,-0.0335461963281955));
#909=CARTESIAN_POINT('',(0.0155,0.019616732268555,-0.0335461963281955));
#910=CARTESIAN_POINT('',(0.0155,0.019616732268555,-0.0335461963281955));
#911=CARTESIAN_POINT('',(0.0155,0.00875699015398044,-0.0335461963281955));
#912=CARTESIAN_POINT('',(0.0155,0.019616732268555,-0.0359211963281955));
#913=CARTESIAN_POINT('',(0.0155,0.019616732268555,-0.0339461963281956));
#914=CARTESIAN_POINT('',(0.,0.019616732268555,-0.0339461963281956));
#915=CARTESIAN_POINT('',(0.011,0.019616732268555,-0.0339461963281956));
#916=CARTESIAN_POINT('',(0.,0.019616732268555,-0.0359211963281955));
#917=CARTESIAN_POINT('',(0.,0.019616732268555,-0.0382961963281956));
#918=CARTESIAN_POINT('',(0.0155,0.019616732268555,-0.0382961963281956));
#919=CARTESIAN_POINT('',(0.0155,0.019616732268555,-0.0382961963281956));
#920=CARTESIAN_POINT('',(0.0155,0.019616732268555,-0.0359211963281955));
#921=CARTESIAN_POINT('',(0.011,0.019616732268555,-0.0359211963281955));
#922=CARTESIAN_POINT('',(0.0155,0.0271167322685551,-0.0382961963281956));
#923=CARTESIAN_POINT('',(0.,0.0271167322685551,-0.0382961963281956));
#924=CARTESIAN_POINT('',(0.,0.0346167322685551,-0.0382961963281956));
#925=CARTESIAN_POINT('',(0.0155,0.0346167322685551,-0.0382961963281956));
#926=CARTESIAN_POINT('',(0.0155,0.0346167322685551,-0.0382961963281956));
#927=CARTESIAN_POINT('',(0.0155,0.0271167322685551,-0.0382961963281956));
#928=CARTESIAN_POINT('',(0.0155,0.0346167322685551,-0.0307961963281955));
#929=CARTESIAN_POINT('',(0.,0.0346167322685551,-0.0307961963281955));
#930=CARTESIAN_POINT('',(0.,0.0346167322685551,-0.0232961963281955));
#931=CARTESIAN_POINT('',(0.0155,0.0346167322685551,-0.0232961963281955));
#932=CARTESIAN_POINT('',(0.0155,0.0346167322685551,-0.0232961963281955));
#933=CARTESIAN_POINT('',(0.0155,0.0346167322685551,-0.0307961963281955));
#934=CARTESIAN_POINT('',(0.0155,0.033116732268555,-0.0232961963281955));
#935=CARTESIAN_POINT('',(0.,0.033116732268555,-0.0232961963281955));
#936=CARTESIAN_POINT('',(0.,-0.00210275196059414,-0.0232961963281955));
#937=CARTESIAN_POINT('',(0.0155,-0.00210275196059414,-0.0232961963281955));
#938=CARTESIAN_POINT('',(0.0155,-0.00210275196059414,-0.0232961963281955));
#939=CARTESIAN_POINT('',(0.0155,0.033116732268555,-0.0232961963281955));
#940=CARTESIAN_POINT('',(0.0155,-0.00210275196059417,-0.0140461963281955));
#941=CARTESIAN_POINT('',(0.,-0.00210275196059417,-0.0140461963281955));
#942=CARTESIAN_POINT('',(0.,-0.0113175529179428,-0.0132400057077797));
#943=CARTESIAN_POINT('',(0.0155,-0.0113175529179428,-0.0132400057077797));
#944=CARTESIAN_POINT('',(0.0155,-0.0113175529179428,-0.0132400057077797));
#945=CARTESIAN_POINT('',(0.0155,-0.00210275196059417,-0.0140461963281955));
#946=CARTESIAN_POINT('',(0.0155,-0.00792186779260663,0.0255728528785213));
#947=CARTESIAN_POINT('',(0.,-0.00792186779260663,0.0255728528785213));
#948=CARTESIAN_POINT('',(0.,-0.00452618266727046,0.0643857114648223));
#949=CARTESIAN_POINT('',(0.0155,-0.00452618266727046,0.0643857114648223));
#950=CARTESIAN_POINT('',(0.0155,-0.00452618266727046,0.0643857114648223));
#951=CARTESIAN_POINT('',(0.0155,-0.00792186779260663,0.0255728528785213));
#952=CARTESIAN_POINT('',(0.0155,0.00369242359198643,0.0636666765871541));
#953=CARTESIAN_POINT('',(0.,0.00369242359198643,0.0636666765871541));
#954=CARTESIAN_POINT('',(0.,0.00781742359198643,0.0708113861683757));
#955=CARTESIAN_POINT('',(0.0155,0.00781742359198643,0.0708113861683757));
#956=CARTESIAN_POINT('',(0.0155,0.00781742359198643,0.0708113861683757));
#957=CARTESIAN_POINT('',(0.0155,0.00369242359198643,0.0636666765871541));
#958=CARTESIAN_POINT('',(0.0155,0.0164776776298308,0.0658113861683757));
#959=CARTESIAN_POINT('',(0.,0.0164776776298308,0.0658113861683757));
#960=CARTESIAN_POINT('',(0.0155,0.0164776776298308,0.0658113861683757));
#961=CARTESIAN_POINT('',(0.0155,0.00154170215589723,0.0220680153436499));
#962=CARTESIAN_POINT('',(0.,0.00154170215589723,0.0220680153436499));
#963=CARTESIAN_POINT('',(0.,0.014256732268555,-0.0260711963281955));
#964=CARTESIAN_POINT('',(0.,0.0128425187061819,-0.0260711963281955));
#965=CARTESIAN_POINT('',(0.,-0.0110422396694169,-0.0222377275955354));
#966=CARTESIAN_POINT('',(0.,-0.01245645323179,-0.0222377275955354));
#967=CARTESIAN_POINT('',(0.,-0.0126999650482464,0.00394587692017951));
#968=CARTESIAN_POINT('',(0.,-0.0141141786106195,0.00394587692017951));
#969=CARTESIAN_POINT('',(0.,-0.0100852927658166,0.0338317178629319));
#970=CARTESIAN_POINT('',(0.,-0.0114995063281897,0.0338317178629319));
#971=CARTESIAN_POINT('',(0.,-0.00752097603840573,0.0631419921780842));
#972=CARTESIAN_POINT('',(0.,-0.00893518960077882,0.0631419921780842));
#973=CARTESIAN_POINT('',(0.,-0.001386028496652,0.0735346721062618));
#974=CARTESIAN_POINT('',(0.,-0.0028002420590251,0.0735346721062618));
#975=CARTESIAN_POINT('',(0.,0.0286167322685551,-0.0260711963281955));
#976=CARTESIAN_POINT('',(0.,0.0266802405954513,-0.0260711963281955));
#977=CARTESIAN_POINT('',(0.,-0.000102751960594162,-0.0260711963281955));
#978=CARTESIAN_POINT('',(0.,-0.00203924363369787,-0.0260711963281955));
#979=CARTESIAN_POINT('',(0.,-0.0140073011894613,-0.0109970435511967));
#980=CARTESIAN_POINT('',(0.,-0.015943792862565,-0.0109970435511967));
#981=CARTESIAN_POINT('',(0.,-0.0113926289070315,0.0188887973915557));
#982=CARTESIAN_POINT('',(0.,-0.0133291205801352,0.0188887973915557));
#983=CARTESIAN_POINT('',(0.,-0.00877795662460176,0.0487746383343081));
#984=CARTESIAN_POINT('',(0.,-0.0107144482977055,0.0487746383343081));
#985=CARTESIAN_POINT('',(0.,0.0109869743995553,0.072301209204256));
#986=CARTESIAN_POINT('',(0.,0.00905048272645163,0.072301209204256));
#987=CARTESIAN_POINT('',(0.,0.023977355456322,0.064801209204256));
#988=CARTESIAN_POINT('',(0.,0.0220408637832182,0.064801209204256));
#989=CARTESIAN_POINT('',(0.,0.031616732268555,-0.0339461963281956));
#990=CARTESIAN_POINT('',(0.,0.031616732268555,-0.0339461963281956));
#991=CARTESIAN_POINT('',(0.,0.031616732268555,-0.0314961963281956));
#992=CARTESIAN_POINT('',(0.,0.031616732268555,-0.0290461963281956));
#993=CARTESIAN_POINT('',(0.,0.031616732268555,-0.0290461963281956));
#994=CARTESIAN_POINT('',(0.,-0.00210275196059416,-0.0290461963281955));
#995=CARTESIAN_POINT('',(0.,-0.00210275196059416,-0.0140461963281955));
#996=CARTESIAN_POINT('',(0.,-0.0170456724319703,-0.0127388601869806));
#997=CARTESIAN_POINT('',(0.,-0.0170456724319703,-0.0127388601869806));
#998=CARTESIAN_POINT('',(0.,-0.010254302181298,0.0648868569856213));
#999=CARTESIAN_POINT('',(0.,0.00369242359198643,0.0636666765871541));
#1000=CARTESIAN_POINT('',(0.,0.0106924235919864,0.0757910322401362));
#1001=CARTESIAN_POINT('',(0.,0.0106924235919864,0.0757910322401362));
#1002=CARTESIAN_POINT('',(0.0055,0.0106924235919864,0.0757910322401362));
#1003=CARTESIAN_POINT('',(0.0055,0.0106924235919864,0.0757910322401362));
#1004=CARTESIAN_POINT('',(0.011,0.0106924235919864,0.0757910322401362));
#1005=CARTESIAN_POINT('',(0.011,0.0106924235919864,0.0757910322401362));
#1006=CARTESIAN_POINT('',(0.,0.00369242359198643,0.0636666765871541));
#1007=CARTESIAN_POINT('',(0.0055,-0.010254302181298,0.0648868569856213));
#1008=CARTESIAN_POINT('',(0.011,-0.010254302181298,0.0648868569856213));
#1009=CARTESIAN_POINT('',(0.011,0.00369242359198643,0.0636666765871541));
#1010=CARTESIAN_POINT('',(0.0055,-0.0170456724319703,-0.0127388601869806));
#1011=CARTESIAN_POINT('',(0.0055,-0.0170456724319703,-0.0127388601869806));
#1012=CARTESIAN_POINT('',(0.011,-0.0170456724319703,-0.0127388601869806));
#1013=CARTESIAN_POINT('',(0.011,-0.0170456724319703,-0.0127388601869806));
#1014=CARTESIAN_POINT('',(0.,-0.00210275196059416,-0.0140461963281955));
#1015=CARTESIAN_POINT('',(0.0055,-0.00210275196059416,-0.0290461963281955));
#1016=CARTESIAN_POINT('',(0.011,-0.00210275196059416,-0.0290461963281955));
#1017=CARTESIAN_POINT('',(0.011,-0.00210275196059416,-0.0140461963281955));
#1018=CARTESIAN_POINT('',(0.011,0.031616732268555,-0.0314961963281956));
#1019=CARTESIAN_POINT('',(0.011,0.031616732268555,-0.0290461963281956));
#1020=CARTESIAN_POINT('',(0.011,0.031616732268555,-0.0290461963281956));
#1021=CARTESIAN_POINT('',(0.011,0.031616732268555,-0.0314961963281956));
#1022=CARTESIAN_POINT('',(0.011,0.031616732268555,-0.0339461963281956));
#1023=CARTESIAN_POINT('',(0.011,0.031616732268555,-0.0339461963281956));
#1024=CARTESIAN_POINT('',(0.0055,0.031616732268555,-0.0339461963281956));
#1025=CARTESIAN_POINT('',(0.0055,0.031616732268555,-0.0339461963281956));
#1026=CARTESIAN_POINT('',(0.0055,0.031616732268555,-0.0290461963281956));
#1027=CARTESIAN_POINT('',(0.0055,0.031616732268555,-0.0290461963281956));
#1028=CARTESIAN_POINT('',(0.0055,0.031616732268555,-0.0314961963281956));
#1029=CARTESIAN_POINT('',(0.0005,0.023977355456322,0.064801209204256));
#1030=CARTESIAN_POINT('',(0.0005,0.0109869743995553,0.072301209204256));
#1031=CARTESIAN_POINT('',(0.0005,-0.00877795662460176,0.0487746383343081));
#1032=CARTESIAN_POINT('',(0.0005,-0.0113926289070315,0.0188887973915557));
#1033=CARTESIAN_POINT('',(0.0005,-0.0140073011894613,-0.0109970435511967));
#1034=CARTESIAN_POINT('',(0.0005,-0.000102751960594162,-0.0260711963281955));
#1035=CARTESIAN_POINT('',(0.0005,0.0286167322685551,-0.0260711963281955));
#1036=CARTESIAN_POINT('',(0.0005,-0.001386028496652,0.0735346721062618));
#1037=CARTESIAN_POINT('',(0.0005,-0.00752097603840573,0.0631419921780842));
#1038=CARTESIAN_POINT('',(0.0005,-0.0100852927658166,0.0338317178629319));
#1039=CARTESIAN_POINT('',(0.0005,-0.0126999650482464,0.00394587692017951));
#1040=CARTESIAN_POINT('',(0.0005,-0.0110422396694169,-0.0222377275955354));
#1041=CARTESIAN_POINT('',(0.0005,0.014256732268555,-0.0260711963281955));
#1042=MECHANICAL_DESIGN_GEOMETRIC_PRESENTATION_REPRESENTATION('',(#614),
#1043);
#1043=(
GEOMETRIC_REPRESENTATION_CONTEXT(3)
GLOBAL_UNCERTAINTY_ASSIGNED_CONTEXT((#1044))
GLOBAL_UNIT_ASSIGNED_CONTEXT((#1047,#1046,#1045))
REPRESENTATION_CONTEXT('Bender 1','TOP_LEVEL_ASSEMBLY_PART')
);
#1044=UNCERTAINTY_MEASURE_WITH_UNIT(LENGTH_MEASURE(1.E-8),#1047,
'DISTANCE_ACCURACY_VALUE','Maximum Tolerance applied to model');
#1045=(
NAMED_UNIT(*)
SI_UNIT($,.STERADIAN.)
SOLID_ANGLE_UNIT()
);
#1046=(
NAMED_UNIT(*)
PLANE_ANGLE_UNIT()
SI_UNIT($,.RADIAN.)
);
#1047=(
LENGTH_UNIT()
NAMED_UNIT(*)
SI_UNIT($,.METRE.)
);
#1048=PRODUCT_DEFINITION_SHAPE('','',#1049);
#1049=PRODUCT_DEFINITION('','',#1051,#1050);
#1050=PRODUCT_DEFINITION_CONTEXT('',#1057,'design');
#1051=PRODUCT_DEFINITION_FORMATION_WITH_SPECIFIED_SOURCE('','',#1053,
 .NOT_KNOWN.);
#1052=PRODUCT_RELATED_PRODUCT_CATEGORY('','',(#1053));
#1053=PRODUCT('Bender 1','Bender 1','Bender 1',(#1055));
#1054=PRODUCT_CATEGORY('','');
#1055=PRODUCT_CONTEXT('',#1057,'mechanical');
#1056=APPLICATION_PROTOCOL_DEFINITION('international standard',
'ap242_managed_model_based_3d_engineering',2011,#1057);
#1057=APPLICATION_CONTEXT('managed model based 3d engineering');
ENDSEC;
END-ISO-10303-21;
