ISO-10303-21;
HEADER;
/* Generated by software containing ST-Developer
 * from STEP Tools, Inc. (www.steptools.com) 
 */
/* OPTION: using custom renumber hook */

FILE_DESCRIPTION(
/* description */ ('STEP AP242',
'CAx-IF Rec.Pracs.---Representation and Presentation of Product Manufa
cturing Information (PMI)---4.0---2014-10-13',
'CAx-IF Rec.Pracs.---3D Tessellated Geometry---0.4---2014-09-14','2;1'),

/* implementation_level */ '2;1');

FILE_NAME(
/* name */ '6883f55d4addd603f7249b37',
/* time_stamp */ '2025-07-25T21:21:34Z',
/* author */ (''),
/* organization */ (''),
/* preprocessor_version */ 'ST-DEVELOPER v20',
/* originating_system */ 'ONSHAPE BY PTC INC, 1.201',
/* authorisation */ '  ');

FILE_SCHEMA (('AP242_MANAGED_MODEL_BASED_3D_ENGINEERING_MIM_LF { 1 0 10303 442 1 1 4 }'));
ENDSEC;

DATA;
#10=SHAPE_REPRESENTATION_RELATIONSHIP('','',#460,#11);
#11=ADVANCED_BREP_SHAPE_REPRESENTATION('',(#458),#775);
#12=SPHERICAL_SURFACE('',#499,0.0022);
#13=SPHERICAL_SURFACE('',#500,0.0022);
#14=SPHERICAL_SURFACE('',#501,0.0022);
#15=SPHERICAL_SURFACE('',#502,0.0022);
#16=SPHERICAL_SURFACE('',#503,0.0022);
#17=SPHERICAL_SURFACE('',#504,0.0022);
#18=SPHERICAL_SURFACE('',#505,0.0022);
#19=SPHERICAL_SURFACE('',#506,0.0017);
#20=SPHERICAL_SURFACE('',#507,0.0017);
#21=SPHERICAL_SURFACE('',#508,0.0017);
#22=SPHERICAL_SURFACE('',#509,0.0017);
#23=SPHERICAL_SURFACE('',#510,0.0017);
#24=SPHERICAL_SURFACE('',#511,0.0017);
#25=PLANE('',#465);
#26=PLANE('',#466);
#27=PLANE('',#467);
#28=PLANE('',#468);
#29=PLANE('',#469);
#30=PLANE('',#473);
#31=PLANE('',#477);
#32=PLANE('',#478);
#33=PLANE('',#479);
#34=PLANE('',#483);
#35=PLANE('',#484);
#36=PLANE('',#485);
#37=LINE('',#653,#71);
#38=LINE('',#657,#72);
#39=LINE('',#659,#73);
#40=LINE('',#661,#74);
#41=LINE('',#663,#75);
#42=LINE('',#665,#76);
#43=LINE('',#667,#77);
#44=LINE('',#669,#78);
#45=LINE('',#671,#79);
#46=LINE('',#673,#80);
#47=LINE('',#675,#81);
#48=LINE('',#677,#82);
#49=LINE('',#679,#83);
#50=LINE('',#681,#84);
#51=LINE('',#683,#85);
#52=LINE('',#685,#86);
#53=LINE('',#687,#87);
#54=LINE('',#693,#88);
#55=LINE('',#695,#89);
#56=LINE('',#697,#90);
#57=LINE('',#699,#91);
#58=LINE('',#705,#92);
#59=LINE('',#707,#93);
#60=LINE('',#709,#94);
#61=LINE('',#711,#95);
#62=LINE('',#713,#96);
#63=LINE('',#715,#97);
#64=LINE('',#717,#98);
#65=LINE('',#719,#99);
#66=LINE('',#721,#100);
#67=LINE('',#723,#101);
#68=LINE('',#729,#102);
#69=LINE('',#731,#103);
#70=LINE('',#732,#104);
#71=VECTOR('',#518,1.);
#72=VECTOR('',#521,1.);
#73=VECTOR('',#524,1.);
#74=VECTOR('',#525,1.);
#75=VECTOR('',#526,1.);
#76=VECTOR('',#529,1.);
#77=VECTOR('',#530,1.);
#78=VECTOR('',#531,1.);
#79=VECTOR('',#534,1.);
#80=VECTOR('',#535,1.);
#81=VECTOR('',#536,1.);
#82=VECTOR('',#539,1.);
#83=VECTOR('',#540,1.);
#84=VECTOR('',#541,1.);
#85=VECTOR('',#544,1.);
#86=VECTOR('',#545,1.);
#87=VECTOR('',#546,1.);
#88=VECTOR('',#553,1.);
#89=VECTOR('',#556,1.);
#90=VECTOR('',#557,1.);
#91=VECTOR('',#558,1.);
#92=VECTOR('',#565,1.);
#93=VECTOR('',#568,1.);
#94=VECTOR('',#569,1.);
#95=VECTOR('',#570,1.);
#96=VECTOR('',#573,1.);
#97=VECTOR('',#574,1.);
#98=VECTOR('',#575,1.);
#99=VECTOR('',#578,1.);
#100=VECTOR('',#579,1.);
#101=VECTOR('',#580,1.);
#102=VECTOR('',#587,1.);
#103=VECTOR('',#590,1.);
#104=VECTOR('',#591,1.);
#105=ORIENTED_EDGE('',*,*,#215,.F.);
#106=ORIENTED_EDGE('',*,*,#216,.F.);
#107=ORIENTED_EDGE('',*,*,#217,.T.);
#108=ORIENTED_EDGE('',*,*,#218,.T.);
#109=ORIENTED_EDGE('',*,*,#219,.T.);
#110=ORIENTED_EDGE('',*,*,#218,.F.);
#111=ORIENTED_EDGE('',*,*,#220,.F.);
#112=ORIENTED_EDGE('',*,*,#221,.T.);
#113=ORIENTED_EDGE('',*,*,#222,.T.);
#114=ORIENTED_EDGE('',*,*,#221,.F.);
#115=ORIENTED_EDGE('',*,*,#223,.F.);
#116=ORIENTED_EDGE('',*,*,#224,.T.);
#117=ORIENTED_EDGE('',*,*,#225,.T.);
#118=ORIENTED_EDGE('',*,*,#224,.F.);
#119=ORIENTED_EDGE('',*,*,#226,.F.);
#120=ORIENTED_EDGE('',*,*,#227,.T.);
#121=ORIENTED_EDGE('',*,*,#228,.T.);
#122=ORIENTED_EDGE('',*,*,#227,.F.);
#123=ORIENTED_EDGE('',*,*,#229,.F.);
#124=ORIENTED_EDGE('',*,*,#230,.T.);
#125=ORIENTED_EDGE('',*,*,#231,.T.);
#126=ORIENTED_EDGE('',*,*,#230,.F.);
#127=ORIENTED_EDGE('',*,*,#232,.F.);
#128=ORIENTED_EDGE('',*,*,#233,.T.);
#129=ORIENTED_EDGE('',*,*,#234,.T.);
#130=ORIENTED_EDGE('',*,*,#233,.F.);
#131=ORIENTED_EDGE('',*,*,#235,.F.);
#132=ORIENTED_EDGE('',*,*,#236,.T.);
#133=ORIENTED_EDGE('',*,*,#237,.F.);
#134=ORIENTED_EDGE('',*,*,#236,.F.);
#135=ORIENTED_EDGE('',*,*,#238,.T.);
#136=ORIENTED_EDGE('',*,*,#239,.T.);
#137=ORIENTED_EDGE('',*,*,#240,.T.);
#138=ORIENTED_EDGE('',*,*,#239,.F.);
#139=ORIENTED_EDGE('',*,*,#241,.F.);
#140=ORIENTED_EDGE('',*,*,#242,.T.);
#141=ORIENTED_EDGE('',*,*,#243,.F.);
#142=ORIENTED_EDGE('',*,*,#242,.F.);
#143=ORIENTED_EDGE('',*,*,#244,.T.);
#144=ORIENTED_EDGE('',*,*,#245,.T.);
#145=ORIENTED_EDGE('',*,*,#246,.T.);
#146=ORIENTED_EDGE('',*,*,#245,.F.);
#147=ORIENTED_EDGE('',*,*,#247,.F.);
#148=ORIENTED_EDGE('',*,*,#248,.T.);
#149=ORIENTED_EDGE('',*,*,#249,.T.);
#150=ORIENTED_EDGE('',*,*,#248,.F.);
#151=ORIENTED_EDGE('',*,*,#250,.F.);
#152=ORIENTED_EDGE('',*,*,#251,.T.);
#153=ORIENTED_EDGE('',*,*,#252,.F.);
#154=ORIENTED_EDGE('',*,*,#251,.F.);
#155=ORIENTED_EDGE('',*,*,#253,.T.);
#156=ORIENTED_EDGE('',*,*,#254,.T.);
#157=ORIENTED_EDGE('',*,*,#255,.T.);
#158=ORIENTED_EDGE('',*,*,#254,.F.);
#159=ORIENTED_EDGE('',*,*,#256,.F.);
#160=ORIENTED_EDGE('',*,*,#216,.T.);
#161=ORIENTED_EDGE('',*,*,#217,.F.);
#162=ORIENTED_EDGE('',*,*,#256,.T.);
#163=ORIENTED_EDGE('',*,*,#253,.F.);
#164=ORIENTED_EDGE('',*,*,#250,.T.);
#165=ORIENTED_EDGE('',*,*,#247,.T.);
#166=ORIENTED_EDGE('',*,*,#244,.F.);
#167=ORIENTED_EDGE('',*,*,#241,.T.);
#168=ORIENTED_EDGE('',*,*,#238,.F.);
#169=ORIENTED_EDGE('',*,*,#235,.T.);
#170=ORIENTED_EDGE('',*,*,#232,.T.);
#171=ORIENTED_EDGE('',*,*,#229,.T.);
#172=ORIENTED_EDGE('',*,*,#226,.T.);
#173=ORIENTED_EDGE('',*,*,#223,.T.);
#174=ORIENTED_EDGE('',*,*,#220,.T.);
#175=ORIENTED_EDGE('',*,*,#257,.T.);
#176=ORIENTED_EDGE('',*,*,#258,.T.);
#177=ORIENTED_EDGE('',*,*,#259,.T.);
#178=ORIENTED_EDGE('',*,*,#260,.T.);
#179=ORIENTED_EDGE('',*,*,#261,.T.);
#180=ORIENTED_EDGE('',*,*,#262,.T.);
#181=ORIENTED_EDGE('',*,*,#263,.T.);
#182=ORIENTED_EDGE('',*,*,#264,.T.);
#183=ORIENTED_EDGE('',*,*,#265,.T.);
#184=ORIENTED_EDGE('',*,*,#266,.T.);
#185=ORIENTED_EDGE('',*,*,#267,.T.);
#186=ORIENTED_EDGE('',*,*,#268,.T.);
#187=ORIENTED_EDGE('',*,*,#269,.T.);
#188=ORIENTED_EDGE('',*,*,#215,.T.);
#189=ORIENTED_EDGE('',*,*,#219,.F.);
#190=ORIENTED_EDGE('',*,*,#222,.F.);
#191=ORIENTED_EDGE('',*,*,#225,.F.);
#192=ORIENTED_EDGE('',*,*,#228,.F.);
#193=ORIENTED_EDGE('',*,*,#231,.F.);
#194=ORIENTED_EDGE('',*,*,#234,.F.);
#195=ORIENTED_EDGE('',*,*,#237,.T.);
#196=ORIENTED_EDGE('',*,*,#240,.F.);
#197=ORIENTED_EDGE('',*,*,#243,.T.);
#198=ORIENTED_EDGE('',*,*,#246,.F.);
#199=ORIENTED_EDGE('',*,*,#249,.F.);
#200=ORIENTED_EDGE('',*,*,#252,.T.);
#201=ORIENTED_EDGE('',*,*,#255,.F.);
#202=ORIENTED_EDGE('',*,*,#269,.F.);
#203=ORIENTED_EDGE('',*,*,#268,.F.);
#204=ORIENTED_EDGE('',*,*,#267,.F.);
#205=ORIENTED_EDGE('',*,*,#266,.F.);
#206=ORIENTED_EDGE('',*,*,#265,.F.);
#207=ORIENTED_EDGE('',*,*,#264,.F.);
#208=ORIENTED_EDGE('',*,*,#263,.F.);
#209=ORIENTED_EDGE('',*,*,#262,.F.);
#210=ORIENTED_EDGE('',*,*,#261,.F.);
#211=ORIENTED_EDGE('',*,*,#260,.F.);
#212=ORIENTED_EDGE('',*,*,#259,.F.);
#213=ORIENTED_EDGE('',*,*,#258,.F.);
#214=ORIENTED_EDGE('',*,*,#257,.F.);
#215=EDGE_CURVE('',#270,#271,#311,.T.);
#216=EDGE_CURVE('',#272,#270,#37,.T.);
#217=EDGE_CURVE('',#272,#273,#312,.T.);
#218=EDGE_CURVE('',#273,#271,#38,.T.);
#219=EDGE_CURVE('',#274,#271,#39,.T.);
#220=EDGE_CURVE('',#275,#273,#40,.T.);
#221=EDGE_CURVE('',#275,#274,#41,.T.);
#222=EDGE_CURVE('',#276,#274,#42,.T.);
#223=EDGE_CURVE('',#277,#275,#43,.T.);
#224=EDGE_CURVE('',#277,#276,#44,.T.);
#225=EDGE_CURVE('',#278,#276,#45,.T.);
#226=EDGE_CURVE('',#279,#277,#46,.T.);
#227=EDGE_CURVE('',#279,#278,#47,.T.);
#228=EDGE_CURVE('',#280,#278,#48,.T.);
#229=EDGE_CURVE('',#281,#279,#49,.T.);
#230=EDGE_CURVE('',#281,#280,#50,.T.);
#231=EDGE_CURVE('',#282,#280,#51,.T.);
#232=EDGE_CURVE('',#283,#281,#52,.T.);
#233=EDGE_CURVE('',#283,#282,#53,.T.);
#234=EDGE_CURVE('',#284,#282,#313,.T.);
#235=EDGE_CURVE('',#285,#283,#314,.T.);
#236=EDGE_CURVE('',#285,#284,#54,.T.);
#237=EDGE_CURVE('',#284,#286,#55,.T.);
#238=EDGE_CURVE('',#285,#287,#56,.T.);
#239=EDGE_CURVE('',#287,#286,#57,.T.);
#240=EDGE_CURVE('',#288,#286,#315,.T.);
#241=EDGE_CURVE('',#289,#287,#316,.T.);
#242=EDGE_CURVE('',#289,#288,#58,.T.);
#243=EDGE_CURVE('',#288,#290,#59,.T.);
#244=EDGE_CURVE('',#289,#291,#60,.T.);
#245=EDGE_CURVE('',#291,#290,#61,.T.);
#246=EDGE_CURVE('',#292,#290,#62,.T.);
#247=EDGE_CURVE('',#293,#291,#63,.T.);
#248=EDGE_CURVE('',#293,#292,#64,.T.);
#249=EDGE_CURVE('',#294,#292,#65,.T.);
#250=EDGE_CURVE('',#295,#293,#66,.T.);
#251=EDGE_CURVE('',#295,#294,#67,.T.);
#252=EDGE_CURVE('',#294,#296,#317,.T.);
#253=EDGE_CURVE('',#295,#297,#318,.T.);
#254=EDGE_CURVE('',#297,#296,#68,.T.);
#255=EDGE_CURVE('',#270,#296,#69,.T.);
#256=EDGE_CURVE('',#272,#297,#70,.T.);
#257=EDGE_CURVE('',#298,#298,#319,.F.);
#258=EDGE_CURVE('',#299,#299,#320,.F.);
#259=EDGE_CURVE('',#300,#300,#321,.F.);
#260=EDGE_CURVE('',#301,#301,#322,.F.);
#261=EDGE_CURVE('',#302,#302,#323,.F.);
#262=EDGE_CURVE('',#303,#303,#324,.F.);
#263=EDGE_CURVE('',#304,#304,#325,.F.);
#264=EDGE_CURVE('',#305,#305,#326,.F.);
#265=EDGE_CURVE('',#306,#306,#327,.F.);
#266=EDGE_CURVE('',#307,#307,#328,.F.);
#267=EDGE_CURVE('',#308,#308,#329,.F.);
#268=EDGE_CURVE('',#309,#309,#330,.F.);
#269=EDGE_CURVE('',#310,#310,#331,.F.);
#270=VERTEX_POINT('',#651);
#271=VERTEX_POINT('',#652);
#272=VERTEX_POINT('',#654);
#273=VERTEX_POINT('',#656);
#274=VERTEX_POINT('',#660);
#275=VERTEX_POINT('',#662);
#276=VERTEX_POINT('',#666);
#277=VERTEX_POINT('',#668);
#278=VERTEX_POINT('',#672);
#279=VERTEX_POINT('',#674);
#280=VERTEX_POINT('',#678);
#281=VERTEX_POINT('',#680);
#282=VERTEX_POINT('',#684);
#283=VERTEX_POINT('',#686);
#284=VERTEX_POINT('',#690);
#285=VERTEX_POINT('',#692);
#286=VERTEX_POINT('',#696);
#287=VERTEX_POINT('',#698);
#288=VERTEX_POINT('',#702);
#289=VERTEX_POINT('',#704);
#290=VERTEX_POINT('',#708);
#291=VERTEX_POINT('',#710);
#292=VERTEX_POINT('',#714);
#293=VERTEX_POINT('',#716);
#294=VERTEX_POINT('',#720);
#295=VERTEX_POINT('',#722);
#296=VERTEX_POINT('',#726);
#297=VERTEX_POINT('',#728);
#298=VERTEX_POINT('',#736);
#299=VERTEX_POINT('',#738);
#300=VERTEX_POINT('',#740);
#301=VERTEX_POINT('',#742);
#302=VERTEX_POINT('',#744);
#303=VERTEX_POINT('',#746);
#304=VERTEX_POINT('',#748);
#305=VERTEX_POINT('',#750);
#306=VERTEX_POINT('',#752);
#307=VERTEX_POINT('',#754);
#308=VERTEX_POINT('',#756);
#309=VERTEX_POINT('',#758);
#310=VERTEX_POINT('',#760);
#311=CIRCLE('',#463,0.0195);
#312=CIRCLE('',#464,0.0195);
#313=CIRCLE('',#471,0.00925);
#314=CIRCLE('',#472,0.00925);
#315=CIRCLE('',#475,0.00825);
#316=CIRCLE('',#476,0.00825);
#317=CIRCLE('',#481,0.0185);
#318=CIRCLE('',#482,0.0185);
#319=CIRCLE('',#486,0.00162480768092719);
#320=CIRCLE('',#487,0.00162480768092719);
#321=CIRCLE('',#488,0.00162480768092719);
#322=CIRCLE('',#489,0.00162480768092719);
#323=CIRCLE('',#490,0.00162480768092719);
#324=CIRCLE('',#491,0.00162480768092719);
#325=CIRCLE('',#492,0.00214242852856285);
#326=CIRCLE('',#493,0.00214242852856285);
#327=CIRCLE('',#494,0.00214242852856285);
#328=CIRCLE('',#495,0.00214242852856285);
#329=CIRCLE('',#496,0.00214242852856285);
#330=CIRCLE('',#497,0.00214242852856285);
#331=CIRCLE('',#498,0.00214242852856285);
#332=EDGE_LOOP('',(#105,#106,#107,#108));
#333=EDGE_LOOP('',(#109,#110,#111,#112));
#334=EDGE_LOOP('',(#113,#114,#115,#116));
#335=EDGE_LOOP('',(#117,#118,#119,#120));
#336=EDGE_LOOP('',(#121,#122,#123,#124));
#337=EDGE_LOOP('',(#125,#126,#127,#128));
#338=EDGE_LOOP('',(#129,#130,#131,#132));
#339=EDGE_LOOP('',(#133,#134,#135,#136));
#340=EDGE_LOOP('',(#137,#138,#139,#140));
#341=EDGE_LOOP('',(#141,#142,#143,#144));
#342=EDGE_LOOP('',(#145,#146,#147,#148));
#343=EDGE_LOOP('',(#149,#150,#151,#152));
#344=EDGE_LOOP('',(#153,#154,#155,#156));
#345=EDGE_LOOP('',(#157,#158,#159,#160));
#346=EDGE_LOOP('',(#161,#162,#163,#164,#165,#166,#167,#168,#169,#170,#171,
#172,#173,#174));
#347=EDGE_LOOP('',(#175));
#348=EDGE_LOOP('',(#176));
#349=EDGE_LOOP('',(#177));
#350=EDGE_LOOP('',(#178));
#351=EDGE_LOOP('',(#179));
#352=EDGE_LOOP('',(#180));
#353=EDGE_LOOP('',(#181));
#354=EDGE_LOOP('',(#182));
#355=EDGE_LOOP('',(#183));
#356=EDGE_LOOP('',(#184));
#357=EDGE_LOOP('',(#185));
#358=EDGE_LOOP('',(#186));
#359=EDGE_LOOP('',(#187));
#360=EDGE_LOOP('',(#188,#189,#190,#191,#192,#193,#194,#195,#196,#197,#198,
#199,#200,#201));
#361=EDGE_LOOP('',(#202));
#362=EDGE_LOOP('',(#203));
#363=EDGE_LOOP('',(#204));
#364=EDGE_LOOP('',(#205));
#365=EDGE_LOOP('',(#206));
#366=EDGE_LOOP('',(#207));
#367=EDGE_LOOP('',(#208));
#368=EDGE_LOOP('',(#209));
#369=EDGE_LOOP('',(#210));
#370=EDGE_LOOP('',(#211));
#371=EDGE_LOOP('',(#212));
#372=EDGE_LOOP('',(#213));
#373=EDGE_LOOP('',(#214));
#374=FACE_BOUND('',#332,.T.);
#375=FACE_BOUND('',#333,.T.);
#376=FACE_BOUND('',#334,.T.);
#377=FACE_BOUND('',#335,.T.);
#378=FACE_BOUND('',#336,.T.);
#379=FACE_BOUND('',#337,.T.);
#380=FACE_BOUND('',#338,.T.);
#381=FACE_BOUND('',#339,.T.);
#382=FACE_BOUND('',#340,.T.);
#383=FACE_BOUND('',#341,.T.);
#384=FACE_BOUND('',#342,.T.);
#385=FACE_BOUND('',#343,.T.);
#386=FACE_BOUND('',#344,.T.);
#387=FACE_BOUND('',#345,.T.);
#388=FACE_BOUND('',#346,.T.);
#389=FACE_BOUND('',#347,.T.);
#390=FACE_BOUND('',#348,.T.);
#391=FACE_BOUND('',#349,.T.);
#392=FACE_BOUND('',#350,.T.);
#393=FACE_BOUND('',#351,.T.);
#394=FACE_BOUND('',#352,.T.);
#395=FACE_BOUND('',#353,.T.);
#396=FACE_BOUND('',#354,.T.);
#397=FACE_BOUND('',#355,.T.);
#398=FACE_BOUND('',#356,.T.);
#399=FACE_BOUND('',#357,.T.);
#400=FACE_BOUND('',#358,.T.);
#401=FACE_BOUND('',#359,.T.);
#402=FACE_BOUND('',#360,.T.);
#403=FACE_BOUND('',#361,.T.);
#404=FACE_BOUND('',#362,.T.);
#405=FACE_BOUND('',#363,.T.);
#406=FACE_BOUND('',#364,.T.);
#407=FACE_BOUND('',#365,.T.);
#408=FACE_BOUND('',#366,.T.);
#409=FACE_BOUND('',#367,.T.);
#410=FACE_BOUND('',#368,.T.);
#411=FACE_BOUND('',#369,.T.);
#412=FACE_BOUND('',#370,.T.);
#413=FACE_BOUND('',#371,.T.);
#414=FACE_BOUND('',#372,.T.);
#415=FACE_BOUND('',#373,.T.);
#416=CYLINDRICAL_SURFACE('',#462,0.0195);
#417=CYLINDRICAL_SURFACE('',#470,0.00925);
#418=CYLINDRICAL_SURFACE('',#474,0.00825);
#419=CYLINDRICAL_SURFACE('',#480,0.0185);
#420=ADVANCED_FACE('',(#374),#416,.T.);
#421=ADVANCED_FACE('',(#375),#25,.F.);
#422=ADVANCED_FACE('',(#376),#26,.F.);
#423=ADVANCED_FACE('',(#377),#27,.F.);
#424=ADVANCED_FACE('',(#378),#28,.F.);
#425=ADVANCED_FACE('',(#379),#29,.F.);
#426=ADVANCED_FACE('',(#380),#417,.F.);
#427=ADVANCED_FACE('',(#381),#30,.T.);
#428=ADVANCED_FACE('',(#382),#418,.F.);
#429=ADVANCED_FACE('',(#383),#31,.T.);
#430=ADVANCED_FACE('',(#384),#32,.F.);
#431=ADVANCED_FACE('',(#385),#33,.F.);
#432=ADVANCED_FACE('',(#386),#419,.T.);
#433=ADVANCED_FACE('',(#387),#34,.F.);
#434=ADVANCED_FACE('',(#388),#35,.F.);
#435=ADVANCED_FACE('',(#389,#390,#391,#392,#393,#394,#395,#396,#397,#398,
#399,#400,#401,#402),#36,.T.);
#436=ADVANCED_FACE('',(#403),#12,.F.);
#437=ADVANCED_FACE('',(#404),#13,.F.);
#438=ADVANCED_FACE('',(#405),#14,.F.);
#439=ADVANCED_FACE('',(#406),#15,.F.);
#440=ADVANCED_FACE('',(#407),#16,.F.);
#441=ADVANCED_FACE('',(#408),#17,.F.);
#442=ADVANCED_FACE('',(#409),#18,.F.);
#443=ADVANCED_FACE('',(#410),#19,.F.);
#444=ADVANCED_FACE('',(#411),#20,.F.);
#445=ADVANCED_FACE('',(#412),#21,.F.);
#446=ADVANCED_FACE('',(#413),#22,.F.);
#447=ADVANCED_FACE('',(#414),#23,.F.);
#448=ADVANCED_FACE('',(#415),#24,.F.);
#449=CLOSED_SHELL('',(#420,#421,#422,#423,#424,#425,#426,#427,#428,#429,
#430,#431,#432,#433,#434,#435,#436,#437,#438,#439,#440,#441,#442,#443,#444,
#445,#446,#447,#448));
#450=STYLED_ITEM('',(#451),#458);
#451=PRESENTATION_STYLE_ASSIGNMENT((#452));
#452=SURFACE_STYLE_USAGE(.BOTH.,#453);
#453=SURFACE_SIDE_STYLE('',(#454));
#454=SURFACE_STYLE_FILL_AREA(#455);
#455=FILL_AREA_STYLE('',(#456));
#456=FILL_AREA_STYLE_COLOUR('',#457);
#457=COLOUR_RGB('',0.737254901960784,0.937254901960784,0.917647058823529);
#458=MANIFOLD_SOLID_BREP('Part 4',#449);
#459=SHAPE_DEFINITION_REPRESENTATION(#780,#460);
#460=SHAPE_REPRESENTATION('Part 4',(#461),#775);
#461=AXIS2_PLACEMENT_3D('',#648,#512,#513);
#462=AXIS2_PLACEMENT_3D('',#649,#514,#515);
#463=AXIS2_PLACEMENT_3D('',#650,#516,#517);
#464=AXIS2_PLACEMENT_3D('',#655,#519,#520);
#465=AXIS2_PLACEMENT_3D('',#658,#522,#523);
#466=AXIS2_PLACEMENT_3D('',#664,#527,#528);
#467=AXIS2_PLACEMENT_3D('',#670,#532,#533);
#468=AXIS2_PLACEMENT_3D('',#676,#537,#538);
#469=AXIS2_PLACEMENT_3D('',#682,#542,#543);
#470=AXIS2_PLACEMENT_3D('',#688,#547,#548);
#471=AXIS2_PLACEMENT_3D('',#689,#549,#550);
#472=AXIS2_PLACEMENT_3D('',#691,#551,#552);
#473=AXIS2_PLACEMENT_3D('',#694,#554,#555);
#474=AXIS2_PLACEMENT_3D('',#700,#559,#560);
#475=AXIS2_PLACEMENT_3D('',#701,#561,#562);
#476=AXIS2_PLACEMENT_3D('',#703,#563,#564);
#477=AXIS2_PLACEMENT_3D('',#706,#566,#567);
#478=AXIS2_PLACEMENT_3D('',#712,#571,#572);
#479=AXIS2_PLACEMENT_3D('',#718,#576,#577);
#480=AXIS2_PLACEMENT_3D('',#724,#581,#582);
#481=AXIS2_PLACEMENT_3D('',#725,#583,#584);
#482=AXIS2_PLACEMENT_3D('',#727,#585,#586);
#483=AXIS2_PLACEMENT_3D('',#730,#588,#589);
#484=AXIS2_PLACEMENT_3D('',#733,#592,#593);
#485=AXIS2_PLACEMENT_3D('',#734,#594,#595);
#486=AXIS2_PLACEMENT_3D('',#735,#596,#597);
#487=AXIS2_PLACEMENT_3D('',#737,#598,#599);
#488=AXIS2_PLACEMENT_3D('',#739,#600,#601);
#489=AXIS2_PLACEMENT_3D('',#741,#602,#603);
#490=AXIS2_PLACEMENT_3D('',#743,#604,#605);
#491=AXIS2_PLACEMENT_3D('',#745,#606,#607);
#492=AXIS2_PLACEMENT_3D('',#747,#608,#609);
#493=AXIS2_PLACEMENT_3D('',#749,#610,#611);
#494=AXIS2_PLACEMENT_3D('',#751,#612,#613);
#495=AXIS2_PLACEMENT_3D('',#753,#614,#615);
#496=AXIS2_PLACEMENT_3D('',#755,#616,#617);
#497=AXIS2_PLACEMENT_3D('',#757,#618,#619);
#498=AXIS2_PLACEMENT_3D('',#759,#620,#621);
#499=AXIS2_PLACEMENT_3D('',#761,#622,#623);
#500=AXIS2_PLACEMENT_3D('',#762,#624,#625);
#501=AXIS2_PLACEMENT_3D('',#763,#626,#627);
#502=AXIS2_PLACEMENT_3D('',#764,#628,#629);
#503=AXIS2_PLACEMENT_3D('',#765,#630,#631);
#504=AXIS2_PLACEMENT_3D('',#766,#632,#633);
#505=AXIS2_PLACEMENT_3D('',#767,#634,#635);
#506=AXIS2_PLACEMENT_3D('',#768,#636,#637);
#507=AXIS2_PLACEMENT_3D('',#769,#638,#639);
#508=AXIS2_PLACEMENT_3D('',#770,#640,#641);
#509=AXIS2_PLACEMENT_3D('',#771,#642,#643);
#510=AXIS2_PLACEMENT_3D('',#772,#644,#645);
#511=AXIS2_PLACEMENT_3D('',#773,#646,#647);
#512=DIRECTION('',(0.,0.,1.));
#513=DIRECTION('',(1.,0.,0.));
#514=DIRECTION('',(1.,0.,0.));
#515=DIRECTION('',(0.,-1.,0.));
#516=DIRECTION('',(1.,0.,0.));
#517=DIRECTION('',(0.,-1.,0.));
#518=DIRECTION('',(1.,0.,0.));
#519=DIRECTION('',(1.,0.,0.));
#520=DIRECTION('',(0.,-1.,0.));
#521=DIRECTION('',(1.,0.,0.));
#522=DIRECTION('',(0.,0.00920793141817692,0.999957606100878));
#523=DIRECTION('',(0.,-0.999957606100878,0.00920793141817693));
#524=DIRECTION('',(0.,-0.999957606100878,0.00920793141817692));
#525=DIRECTION('',(0.,-0.999957606100878,0.00920793141817692));
#526=DIRECTION('',(1.,0.,0.));
#527=DIRECTION('',(0.,1.,0.));
#528=DIRECTION('',(1.,0.,0.));
#529=DIRECTION('',(0.,0.,1.));
#530=DIRECTION('',(0.,0.,1.));
#531=DIRECTION('',(1.,0.,0.));
#532=DIRECTION('',(0.,0.,1.));
#533=DIRECTION('',(0.,-1.,0.));
#534=DIRECTION('',(0.,-1.,0.));
#535=DIRECTION('',(0.,-1.,0.));
#536=DIRECTION('',(1.,0.,0.));
#537=DIRECTION('',(0.,-1.,0.));
#538=DIRECTION('',(-1.,0.,0.));
#539=DIRECTION('',(0.,0.,-1.));
#540=DIRECTION('',(0.,0.,-1.));
#541=DIRECTION('',(1.,0.,0.));
#542=DIRECTION('',(0.,0.,-1.));
#543=DIRECTION('',(0.,1.,0.));
#544=DIRECTION('',(0.,1.,0.));
#545=DIRECTION('',(0.,1.,0.));
#546=DIRECTION('',(1.,0.,0.));
#547=DIRECTION('',(1.,0.,0.));
#548=DIRECTION('',(0.,-1.,0.));
#549=DIRECTION('',(1.,0.,0.));
#550=DIRECTION('',(0.,-1.,0.));
#551=DIRECTION('',(1.,0.,0.));
#552=DIRECTION('',(0.,-1.,0.));
#553=DIRECTION('',(1.,0.,0.));
#554=DIRECTION('',(0.,0.996194698091746,-0.0871557427476586));
#555=DIRECTION('',(0.,0.0871557427476586,0.996194698091746));
#556=DIRECTION('',(0.,0.0871557427476586,0.996194698091746));
#557=DIRECTION('',(0.,0.0871557427476586,0.996194698091746));
#558=DIRECTION('',(1.,0.,0.));
#559=DIRECTION('',(1.,0.,0.));
#560=DIRECTION('',(0.,-1.,0.));
#561=DIRECTION('',(1.,0.,0.));
#562=DIRECTION('',(0.,-1.,0.));
#563=DIRECTION('',(1.,0.,0.));
#564=DIRECTION('',(0.,-1.,0.));
#565=DIRECTION('',(1.,0.,0.));
#566=DIRECTION('',(0.,-0.5,-0.866025403784439));
#567=DIRECTION('',(0.,0.866025403784439,-0.5));
#568=DIRECTION('',(0.,0.866025403784439,-0.5));
#569=DIRECTION('',(0.,0.866025403784439,-0.5));
#570=DIRECTION('',(1.,0.,0.));
#571=DIRECTION('',(0.,-0.866025403784439,0.5));
#572=DIRECTION('',(0.,-0.5,-0.866025403784439));
#573=DIRECTION('',(0.,-0.5,-0.866025403784439));
#574=DIRECTION('',(0.,-0.5,-0.866025403784439));
#575=DIRECTION('',(1.,0.,0.));
#576=DIRECTION('',(0.,-0.5,-0.866025403784439));
#577=DIRECTION('',(0.,0.866025403784439,-0.5));
#578=DIRECTION('',(0.,0.866025403784439,-0.5));
#579=DIRECTION('',(0.,0.866025403784439,-0.5));
#580=DIRECTION('',(1.,0.,0.));
#581=DIRECTION('',(1.,0.,0.));
#582=DIRECTION('',(0.,-1.,0.));
#583=DIRECTION('',(1.,0.,0.));
#584=DIRECTION('',(0.,-1.,0.));
#585=DIRECTION('',(1.,0.,0.));
#586=DIRECTION('',(0.,-1.,0.));
#587=DIRECTION('',(1.,0.,0.));
#588=DIRECTION('',(0.,0.996194698091745,-0.0871557427476587));
#589=DIRECTION('',(0.,0.0871557427476587,0.996194698091746));
#590=DIRECTION('',(0.,0.0871557427476587,0.996194698091746));
#591=DIRECTION('',(0.,0.0871557427476587,0.996194698091746));
#592=DIRECTION('',(1.,0.,0.));
#593=DIRECTION('',(0.,0.,-1.));
#594=DIRECTION('',(1.,0.,0.));
#595=DIRECTION('',(0.,0.,-1.));
#596=DIRECTION('',(1.,0.,0.));
#597=DIRECTION('',(0.,-1.,0.));
#598=DIRECTION('',(1.,0.,0.));
#599=DIRECTION('',(0.,-1.,0.));
#600=DIRECTION('',(1.,0.,0.));
#601=DIRECTION('',(0.,-1.,0.));
#602=DIRECTION('',(1.,0.,0.));
#603=DIRECTION('',(0.,-1.,0.));
#604=DIRECTION('',(1.,0.,0.));
#605=DIRECTION('',(0.,-1.,0.));
#606=DIRECTION('',(1.,0.,0.));
#607=DIRECTION('',(0.,-1.,0.));
#608=DIRECTION('',(1.,0.,0.));
#609=DIRECTION('',(0.,-1.,0.));
#610=DIRECTION('',(1.,0.,0.));
#611=DIRECTION('',(0.,-1.,0.));
#612=DIRECTION('',(1.,0.,0.));
#613=DIRECTION('',(0.,-1.,0.));
#614=DIRECTION('',(1.,0.,0.));
#615=DIRECTION('',(0.,-1.,0.));
#616=DIRECTION('',(1.,0.,0.));
#617=DIRECTION('',(0.,-1.,0.));
#618=DIRECTION('',(1.,0.,0.));
#619=DIRECTION('',(0.,-1.,0.));
#620=DIRECTION('',(1.,0.,0.));
#621=DIRECTION('',(0.,-1.,0.));
#622=DIRECTION('',(1.,0.,0.));
#623=DIRECTION('',(0.,-1.,0.));
#624=DIRECTION('',(1.,0.,0.));
#625=DIRECTION('',(0.,-1.,0.));
#626=DIRECTION('',(1.,0.,0.));
#627=DIRECTION('',(0.,-1.,0.));
#628=DIRECTION('',(1.,0.,0.));
#629=DIRECTION('',(0.,-1.,0.));
#630=DIRECTION('',(1.,0.,0.));
#631=DIRECTION('',(0.,-1.,0.));
#632=DIRECTION('',(1.,0.,0.));
#633=DIRECTION('',(0.,-1.,0.));
#634=DIRECTION('',(1.,0.,0.));
#635=DIRECTION('',(0.,-1.,0.));
#636=DIRECTION('',(1.,0.,0.));
#637=DIRECTION('',(0.,-1.,0.));
#638=DIRECTION('',(1.,0.,0.));
#639=DIRECTION('',(0.,-1.,0.));
#640=DIRECTION('',(1.,0.,0.));
#641=DIRECTION('',(0.,-1.,0.));
#642=DIRECTION('',(1.,0.,0.));
#643=DIRECTION('',(0.,-1.,0.));
#644=DIRECTION('',(1.,0.,0.));
#645=DIRECTION('',(0.,-1.,0.));
#646=DIRECTION('',(1.,0.,0.));
#647=DIRECTION('',(0.,-1.,0.));
#648=CARTESIAN_POINT('',(0.,0.,0.));
#649=CARTESIAN_POINT('',(-0.0045,-0.00210275196059416,-0.0140461963281955));
#650=CARTESIAN_POINT('',(0.,-0.00210275196059416,-0.0140461963281955));
#651=CARTESIAN_POINT('',(0.,-0.0215285485733832,-0.0123466593446162));
#652=CARTESIAN_POINT('',(0.,-0.00210275196059416,-0.0335461963281955));
#653=CARTESIAN_POINT('',(-0.0045,-0.0215285485733832,-0.0123466593446162));
#654=CARTESIAN_POINT('',(-0.0045,-0.0215285485733832,-0.0123466593446162));
#655=CARTESIAN_POINT('',(-0.0045,-0.00210275196059416,-0.0140461963281955));
#656=CARTESIAN_POINT('',(-0.0045,-0.00210275196059416,-0.0335461963281955));
#657=CARTESIAN_POINT('',(-0.0045,-0.00210275196059416,-0.0335461963281955));
#658=CARTESIAN_POINT('',(-0.0045,0.00875699015398042,-0.0336461963281956));
#659=CARTESIAN_POINT('',(0.,0.00875699015398042,-0.0336461963281956));
#660=CARTESIAN_POINT('',(0.,0.019616732268555,-0.0337461963281956));
#661=CARTESIAN_POINT('',(-0.0045,0.00875699015398042,-0.0336461963281956));
#662=CARTESIAN_POINT('',(-0.0045,0.019616732268555,-0.0337461963281956));
#663=CARTESIAN_POINT('',(-0.0045,0.019616732268555,-0.0337461963281956));
#664=CARTESIAN_POINT('',(-0.0045,0.019616732268555,-0.0359211963281955));
#665=CARTESIAN_POINT('',(0.,0.019616732268555,-0.0359211963281955));
#666=CARTESIAN_POINT('',(0.,0.019616732268555,-0.0382961963281956));
#667=CARTESIAN_POINT('',(-0.0045,0.019616732268555,-0.0359211963281955));
#668=CARTESIAN_POINT('',(-0.0045,0.019616732268555,-0.0382961963281956));
#669=CARTESIAN_POINT('',(-0.0045,0.019616732268555,-0.0382961963281956));
#670=CARTESIAN_POINT('',(-0.0045,0.0271167322685551,-0.0382961963281956));
#671=CARTESIAN_POINT('',(0.,0.0271167322685551,-0.0382961963281956));
#672=CARTESIAN_POINT('',(0.,0.0346167322685551,-0.0382961963281956));
#673=CARTESIAN_POINT('',(-0.0045,0.0271167322685551,-0.0382961963281956));
#674=CARTESIAN_POINT('',(-0.0045,0.0346167322685551,-0.0382961963281956));
#675=CARTESIAN_POINT('',(-0.0045,0.0346167322685551,-0.0382961963281956));
#676=CARTESIAN_POINT('',(-0.0045,0.0346167322685551,-0.0307961963281955));
#677=CARTESIAN_POINT('',(0.,0.0346167322685551,-0.0307961963281955));
#678=CARTESIAN_POINT('',(0.,0.0346167322685551,-0.0232961963281955));
#679=CARTESIAN_POINT('',(-0.0045,0.0346167322685551,-0.0307961963281955));
#680=CARTESIAN_POINT('',(-0.0045,0.0346167322685551,-0.0232961963281955));
#681=CARTESIAN_POINT('',(-0.0045,0.0346167322685551,-0.0232961963281955));
#682=CARTESIAN_POINT('',(-0.0045,0.033116732268555,-0.0232961963281955));
#683=CARTESIAN_POINT('',(0.,0.033116732268555,-0.0232961963281955));
#684=CARTESIAN_POINT('',(0.,-0.00210275196059414,-0.0232961963281955));
#685=CARTESIAN_POINT('',(-0.0045,0.033116732268555,-0.0232961963281955));
#686=CARTESIAN_POINT('',(-0.0045,-0.00210275196059414,-0.0232961963281955));
#687=CARTESIAN_POINT('',(-0.0045,-0.00210275196059414,-0.0232961963281955));
#688=CARTESIAN_POINT('',(-0.0045,-0.00210275196059417,-0.0140461963281955));
#689=CARTESIAN_POINT('',(0.,-0.00210275196059417,-0.0140461963281955));
#690=CARTESIAN_POINT('',(0.,-0.0113175529179428,-0.0132400057077797));
#691=CARTESIAN_POINT('',(-0.0045,-0.00210275196059417,-0.0140461963281955));
#692=CARTESIAN_POINT('',(-0.0045,-0.0113175529179428,-0.0132400057077797));
#693=CARTESIAN_POINT('',(-0.0045,-0.0113175529179428,-0.0132400057077797));
#694=CARTESIAN_POINT('',(-0.0045,-0.00792186779260663,0.0255728528785213));
#695=CARTESIAN_POINT('',(0.,-0.00792186779260663,0.0255728528785213));
#696=CARTESIAN_POINT('',(0.,-0.00452618266727046,0.0643857114648223));
#697=CARTESIAN_POINT('',(-0.0045,-0.00792186779260663,0.0255728528785213));
#698=CARTESIAN_POINT('',(-0.0045,-0.00452618266727046,0.0643857114648223));
#699=CARTESIAN_POINT('',(-0.0045,-0.00452618266727046,0.0643857114648223));
#700=CARTESIAN_POINT('',(-0.0045,0.00369242359198643,0.0636666765871541));
#701=CARTESIAN_POINT('',(0.,0.00369242359198643,0.0636666765871541));
#702=CARTESIAN_POINT('',(0.,0.00781742359198643,0.0708113861683757));
#703=CARTESIAN_POINT('',(-0.0045,0.00369242359198643,0.0636666765871541));
#704=CARTESIAN_POINT('',(-0.0045,0.00781742359198643,0.0708113861683757));
#705=CARTESIAN_POINT('',(-0.0045,0.00781742359198643,0.0708113861683757));
#706=CARTESIAN_POINT('',(-0.0045,0.0164776776298308,0.0658113861683757));
#707=CARTESIAN_POINT('',(0.,0.0164776776298308,0.0658113861683757));
#708=CARTESIAN_POINT('',(0.,0.0251379316676752,0.0608113861683757));
#709=CARTESIAN_POINT('',(-0.0045,0.0164776776298308,0.0658113861683757));
#710=CARTESIAN_POINT('',(-0.0045,0.0251379316676752,0.0608113861683757));
#711=CARTESIAN_POINT('',(-0.0045,0.0251379316676752,0.0608113861683757));
#712=CARTESIAN_POINT('',(-0.0045,0.0271379316676752,0.0642754877835134));
#713=CARTESIAN_POINT('',(0.,0.0271379316676752,0.0642754877835134));
#714=CARTESIAN_POINT('',(0.,0.0302629316676752,0.0696881465571662));
#715=CARTESIAN_POINT('',(-0.0045,0.0271379316676752,0.0642754877835134));
#716=CARTESIAN_POINT('',(-0.0045,0.0302629316676752,0.0696881465571662));
#717=CARTESIAN_POINT('',(-0.0045,0.0302629316676752,0.0696881465571662));
#718=CARTESIAN_POINT('',(-0.0045,0.0216026776298308,0.0746881465571662));
#719=CARTESIAN_POINT('',(0.,0.0216026776298308,0.0746881465571662));
#720=CARTESIAN_POINT('',(0.,0.0129424235919864,0.0796881465571662));
#721=CARTESIAN_POINT('',(-0.0045,0.0216026776298308,0.0746881465571662));
#722=CARTESIAN_POINT('',(-0.0045,0.0129424235919864,0.0796881465571662));
#723=CARTESIAN_POINT('',(-0.0045,0.0129424235919864,0.0796881465571662));
#724=CARTESIAN_POINT('',(-0.0045,0.00369242359198642,0.0636666765871541));
#725=CARTESIAN_POINT('',(0.,0.00369242359198642,0.0636666765871541));
#726=CARTESIAN_POINT('',(0.,-0.0147371783227109,0.0652790578279858));
#727=CARTESIAN_POINT('',(-0.0045,0.00369242359198642,0.0636666765871541));
#728=CARTESIAN_POINT('',(-0.0045,-0.0147371783227109,0.0652790578279858));
#729=CARTESIAN_POINT('',(-0.0045,-0.0147371783227109,0.0652790578279858));
#730=CARTESIAN_POINT('',(-0.0045,-0.018132863448047,0.0264661992416847));
#731=CARTESIAN_POINT('',(0.,-0.018132863448047,0.0264661992416847));
#732=CARTESIAN_POINT('',(-0.0045,-0.018132863448047,0.0264661992416847));
#733=CARTESIAN_POINT('',(-0.0045,0.00650699015398043,0.0219352401294792));
#734=CARTESIAN_POINT('',(0.,0.00650699015398043,0.0219352401294792));
#735=CARTESIAN_POINT('',(0.,0.014256732268555,-0.0260711963281955));
#736=CARTESIAN_POINT('',(0.,0.0126319245876278,-0.0260711963281955));
#737=CARTESIAN_POINT('',(0.,-0.0110422396694169,-0.0222377275955354));
#738=CARTESIAN_POINT('',(0.,-0.0126670473503441,-0.0222377275955354));
#739=CARTESIAN_POINT('',(0.,-0.0126999650482464,0.00394587692017951));
#740=CARTESIAN_POINT('',(0.,-0.0143247727291736,0.00394587692017951));
#741=CARTESIAN_POINT('',(0.,-0.0100852927658166,0.0338317178629319));
#742=CARTESIAN_POINT('',(0.,-0.0117101004467438,0.0338317178629319));
#743=CARTESIAN_POINT('',(0.,-0.00752097603840573,0.0631419921780842));
#744=CARTESIAN_POINT('',(0.,-0.00914578371933292,0.0631419921780842));
#745=CARTESIAN_POINT('',(0.,-0.001386028496652,0.0735346721062618));
#746=CARTESIAN_POINT('',(0.,-0.00301083617757919,0.0735346721062618));
#747=CARTESIAN_POINT('',(0.,0.023977355456322,0.064801209204256));
#748=CARTESIAN_POINT('',(0.,0.0218349269277591,0.064801209204256));
#749=CARTESIAN_POINT('',(0.,0.0109869743995553,0.072301209204256));
#750=CARTESIAN_POINT('',(0.,0.00884454587099248,0.072301209204256));
#751=CARTESIAN_POINT('',(0.,-0.00877795662460176,0.0487746383343081));
#752=CARTESIAN_POINT('',(0.,-0.0109203851531646,0.0487746383343081));
#753=CARTESIAN_POINT('',(0.,-0.0113926289070315,0.0188887973915557));
#754=CARTESIAN_POINT('',(0.,-0.0135350574355944,0.0188887973915557));
#755=CARTESIAN_POINT('',(0.,-0.0140073011894613,-0.0109970435511967));
#756=CARTESIAN_POINT('',(0.,-0.0161497297180241,-0.0109970435511967));
#757=CARTESIAN_POINT('',(0.,-0.000102751960594162,-0.0260711963281955));
#758=CARTESIAN_POINT('',(0.,-0.00224518048915702,-0.0260711963281955));
#759=CARTESIAN_POINT('',(0.,0.0286167322685551,-0.0260711963281955));
#760=CARTESIAN_POINT('',(0.,0.0264743037399922,-0.0260711963281955));
#761=CARTESIAN_POINT('',(0.0005,0.0286167322685551,-0.0260711963281955));
#762=CARTESIAN_POINT('',(0.0005,-0.000102751960594162,-0.0260711963281955));
#763=CARTESIAN_POINT('',(0.0005,-0.0140073011894613,-0.0109970435511967));
#764=CARTESIAN_POINT('',(0.0005,-0.0113926289070315,0.0188887973915557));
#765=CARTESIAN_POINT('',(0.0005,-0.00877795662460176,0.0487746383343081));
#766=CARTESIAN_POINT('',(0.0005,0.0109869743995553,0.072301209204256));
#767=CARTESIAN_POINT('',(0.0005,0.023977355456322,0.064801209204256));
#768=CARTESIAN_POINT('',(0.0005,-0.001386028496652,0.0735346721062618));
#769=CARTESIAN_POINT('',(0.0005,-0.00752097603840573,0.0631419921780842));
#770=CARTESIAN_POINT('',(0.0005,-0.0100852927658166,0.0338317178629319));
#771=CARTESIAN_POINT('',(0.0005,-0.0126999650482464,0.00394587692017951));
#772=CARTESIAN_POINT('',(0.0005,-0.0110422396694169,-0.0222377275955354));
#773=CARTESIAN_POINT('',(0.0005,0.014256732268555,-0.0260711963281955));
#774=MECHANICAL_DESIGN_GEOMETRIC_PRESENTATION_REPRESENTATION('',(#450),
#775);
#775=(
GEOMETRIC_REPRESENTATION_CONTEXT(3)
GLOBAL_UNCERTAINTY_ASSIGNED_CONTEXT((#776))
GLOBAL_UNIT_ASSIGNED_CONTEXT((#779,#778,#777))
REPRESENTATION_CONTEXT('Part 4','TOP_LEVEL_ASSEMBLY_PART')
);
#776=UNCERTAINTY_MEASURE_WITH_UNIT(LENGTH_MEASURE(1.E-8),#779,
'DISTANCE_ACCURACY_VALUE','Maximum Tolerance applied to model');
#777=(
NAMED_UNIT(*)
SI_UNIT($,.STERADIAN.)
SOLID_ANGLE_UNIT()
);
#778=(
NAMED_UNIT(*)
PLANE_ANGLE_UNIT()
SI_UNIT($,.RADIAN.)
);
#779=(
LENGTH_UNIT()
NAMED_UNIT(*)
SI_UNIT($,.METRE.)
);
#780=PRODUCT_DEFINITION_SHAPE('','',#781);
#781=PRODUCT_DEFINITION('','',#783,#782);
#782=PRODUCT_DEFINITION_CONTEXT('',#789,'design');
#783=PRODUCT_DEFINITION_FORMATION_WITH_SPECIFIED_SOURCE('','',#785,
 .NOT_KNOWN.);
#784=PRODUCT_RELATED_PRODUCT_CATEGORY('','',(#785));
#785=PRODUCT('Part 4','Part 4','Part 4',(#787));
#786=PRODUCT_CATEGORY('','');
#787=PRODUCT_CONTEXT('',#789,'mechanical');
#788=APPLICATION_PROTOCOL_DEFINITION('international standard',
'ap242_managed_model_based_3d_engineering',2011,#789);
#789=APPLICATION_CONTEXT('managed model based 3d engineering');
ENDSEC;
END-ISO-10303-21;
