ISO-10303-21;
HEADER;
/* Generated by software containing ST-Developer
 * from STEP Tools, Inc. (www.steptools.com) 
 */
/* OPTION: using custom renumber hook */

FILE_DESCRIPTION(
/* description */ ('STEP AP242',
'CAx-IF Rec.Pracs.---Representation and Presentation of Product Manufa
cturing Information (PMI)---4.0---2014-10-13',
'CAx-IF Rec.Pracs.---3D Tessellated Geometry---0.4---2014-09-14','2;1'),

/* implementation_level */ '2;1');

FILE_NAME(
/* name */ '6883f56f4addd603f7249b4c',
/* time_stamp */ '2025-07-25T21:21:52Z',
/* author */ (''),
/* organization */ (''),
/* preprocessor_version */ 'ST-DEVELOPER v20',
/* originating_system */ 'ONSHAPE BY PTC INC, 1.201',
/* authorisation */ '  ');

FILE_SCHEMA (('AP242_MANAGED_MODEL_BASED_3D_ENGINEERING_MIM_LF { 1 0 10303 442 1 1 4 }'));
ENDSEC;

DATA;
#10=SHAPE_REPRESENTATION_RELATIONSHIP('','',#469,#11);
#11=ADVANCED_BREP_SHAPE_REPRESENTATION('',(#467),#771);
#12=PLANE('',#476);
#13=PLANE('',#480);
#14=PLANE('',#481);
#15=PLANE('',#482);
#16=PLANE('',#486);
#17=PLANE('',#487);
#18=PLANE('',#491);
#19=PLANE('',#492);
#20=PLANE('',#496);
#21=PLANE('',#497);
#22=PLANE('',#498);
#23=PLANE('',#499);
#24=PLANE('',#503);
#25=PLANE('',#504);
#26=PLANE('',#506);
#27=LINE('',#642,#77);
#28=LINE('',#646,#78);
#29=LINE('',#650,#79);
#30=LINE('',#654,#80);
#31=LINE('',#656,#81);
#32=LINE('',#659,#82);
#33=LINE('',#661,#83);
#34=LINE('',#663,#84);
#35=LINE('',#669,#85);
#36=LINE('',#671,#86);
#37=LINE('',#674,#87);
#38=LINE('',#675,#88);
#39=LINE('',#677,#89);
#40=LINE('',#680,#90);
#41=LINE('',#682,#91);
#42=LINE('',#683,#92);
#43=LINE('',#685,#93);
#44=LINE('',#687,#94);
#45=LINE('',#689,#95);
#46=LINE('',#691,#96);
#47=LINE('',#693,#97);
#48=LINE('',#695,#98);
#49=LINE('',#699,#99);
#50=LINE('',#703,#100);
#51=LINE('',#704,#101);
#52=LINE('',#706,#102);
#53=LINE('',#708,#103);
#54=LINE('',#710,#104);
#55=LINE('',#711,#105);
#56=LINE('',#713,#106);
#57=LINE('',#715,#107);
#58=LINE('',#719,#108);
#59=LINE('',#723,#109);
#60=LINE('',#725,#110);
#61=LINE('',#727,#111);
#62=LINE('',#729,#112);
#63=LINE('',#731,#113);
#64=LINE('',#732,#114);
#65=LINE('',#734,#115);
#66=LINE('',#736,#116);
#67=LINE('',#738,#117);
#68=LINE('',#742,#118);
#69=LINE('',#746,#119);
#70=LINE('',#747,#120);
#71=LINE('',#751,#121);
#72=LINE('',#753,#122);
#73=LINE('',#755,#123);
#74=LINE('',#759,#124);
#75=LINE('',#763,#125);
#76=LINE('',#764,#126);
#77=VECTOR('',#515,1.);
#78=VECTOR('',#518,1.);
#79=VECTOR('',#521,1.);
#80=VECTOR('',#524,1.);
#81=VECTOR('',#527,1.);
#82=VECTOR('',#528,1.);
#83=VECTOR('',#529,1.);
#84=VECTOR('',#530,1.);
#85=VECTOR('',#537,1.);
#86=VECTOR('',#540,1.);
#87=VECTOR('',#541,1.);
#88=VECTOR('',#542,1.);
#89=VECTOR('',#545,1.);
#90=VECTOR('',#546,1.);
#91=VECTOR('',#547,1.);
#92=VECTOR('',#548,1.);
#93=VECTOR('',#549,1.);
#94=VECTOR('',#550,1.);
#95=VECTOR('',#551,1.);
#96=VECTOR('',#554,1.);
#97=VECTOR('',#555,1.);
#98=VECTOR('',#556,1.);
#99=VECTOR('',#561,1.);
#100=VECTOR('',#566,1.);
#101=VECTOR('',#567,1.);
#102=VECTOR('',#570,1.);
#103=VECTOR('',#571,1.);
#104=VECTOR('',#572,1.);
#105=VECTOR('',#573,1.);
#106=VECTOR('',#574,1.);
#107=VECTOR('',#575,1.);
#108=VECTOR('',#580,1.);
#109=VECTOR('',#585,1.);
#110=VECTOR('',#586,1.);
#111=VECTOR('',#587,1.);
#112=VECTOR('',#588,1.);
#113=VECTOR('',#589,1.);
#114=VECTOR('',#590,1.);
#115=VECTOR('',#593,1.);
#116=VECTOR('',#594,1.);
#117=VECTOR('',#595,1.);
#118=VECTOR('',#600,1.);
#119=VECTOR('',#605,1.);
#120=VECTOR('',#606,1.);
#121=VECTOR('',#613,1.);
#122=VECTOR('',#614,1.);
#123=VECTOR('',#615,1.);
#124=VECTOR('',#620,1.);
#125=VECTOR('',#625,1.);
#126=VECTOR('',#626,1.);
#127=ORIENTED_EDGE('',*,*,#259,.T.);
#128=ORIENTED_EDGE('',*,*,#260,.F.);
#129=ORIENTED_EDGE('',*,*,#261,.F.);
#130=ORIENTED_EDGE('',*,*,#262,.T.);
#131=ORIENTED_EDGE('',*,*,#263,.T.);
#132=ORIENTED_EDGE('',*,*,#264,.F.);
#133=ORIENTED_EDGE('',*,*,#265,.F.);
#134=ORIENTED_EDGE('',*,*,#266,.T.);
#135=ORIENTED_EDGE('',*,*,#267,.F.);
#136=ORIENTED_EDGE('',*,*,#268,.T.);
#137=ORIENTED_EDGE('',*,*,#269,.T.);
#138=ORIENTED_EDGE('',*,*,#270,.T.);
#139=ORIENTED_EDGE('',*,*,#271,.F.);
#140=ORIENTED_EDGE('',*,*,#267,.T.);
#141=ORIENTED_EDGE('',*,*,#272,.F.);
#142=ORIENTED_EDGE('',*,*,#273,.F.);
#143=ORIENTED_EDGE('',*,*,#274,.F.);
#144=ORIENTED_EDGE('',*,*,#275,.T.);
#145=ORIENTED_EDGE('',*,*,#273,.T.);
#146=ORIENTED_EDGE('',*,*,#276,.T.);
#147=ORIENTED_EDGE('',*,*,#277,.F.);
#148=ORIENTED_EDGE('',*,*,#278,.F.);
#149=ORIENTED_EDGE('',*,*,#279,.F.);
#150=ORIENTED_EDGE('',*,*,#274,.T.);
#151=ORIENTED_EDGE('',*,*,#280,.F.);
#152=ORIENTED_EDGE('',*,*,#281,.F.);
#153=ORIENTED_EDGE('',*,*,#282,.T.);
#154=ORIENTED_EDGE('',*,*,#283,.T.);
#155=ORIENTED_EDGE('',*,*,#281,.T.);
#156=ORIENTED_EDGE('',*,*,#284,.F.);
#157=ORIENTED_EDGE('',*,*,#285,.F.);
#158=ORIENTED_EDGE('',*,*,#286,.T.);
#159=ORIENTED_EDGE('',*,*,#285,.T.);
#160=ORIENTED_EDGE('',*,*,#287,.T.);
#161=ORIENTED_EDGE('',*,*,#288,.F.);
#162=ORIENTED_EDGE('',*,*,#289,.F.);
#163=ORIENTED_EDGE('',*,*,#288,.T.);
#164=ORIENTED_EDGE('',*,*,#290,.F.);
#165=ORIENTED_EDGE('',*,*,#262,.F.);
#166=ORIENTED_EDGE('',*,*,#291,.T.);
#167=ORIENTED_EDGE('',*,*,#260,.T.);
#168=ORIENTED_EDGE('',*,*,#292,.T.);
#169=ORIENTED_EDGE('',*,*,#293,.T.);
#170=ORIENTED_EDGE('',*,*,#294,.T.);
#171=ORIENTED_EDGE('',*,*,#264,.T.);
#172=ORIENTED_EDGE('',*,*,#295,.F.);
#173=ORIENTED_EDGE('',*,*,#296,.F.);
#174=ORIENTED_EDGE('',*,*,#297,.T.);
#175=ORIENTED_EDGE('',*,*,#296,.T.);
#176=ORIENTED_EDGE('',*,*,#298,.F.);
#177=ORIENTED_EDGE('',*,*,#299,.F.);
#178=ORIENTED_EDGE('',*,*,#300,.T.);
#179=ORIENTED_EDGE('',*,*,#301,.F.);
#180=ORIENTED_EDGE('',*,*,#302,.F.);
#181=ORIENTED_EDGE('',*,*,#303,.F.);
#182=ORIENTED_EDGE('',*,*,#304,.F.);
#183=ORIENTED_EDGE('',*,*,#305,.T.);
#184=ORIENTED_EDGE('',*,*,#299,.T.);
#185=ORIENTED_EDGE('',*,*,#306,.F.);
#186=ORIENTED_EDGE('',*,*,#269,.F.);
#187=ORIENTED_EDGE('',*,*,#304,.T.);
#188=ORIENTED_EDGE('',*,*,#307,.T.);
#189=ORIENTED_EDGE('',*,*,#308,.F.);
#190=ORIENTED_EDGE('',*,*,#309,.F.);
#191=ORIENTED_EDGE('',*,*,#310,.F.);
#192=ORIENTED_EDGE('',*,*,#311,.F.);
#193=ORIENTED_EDGE('',*,*,#312,.T.);
#194=ORIENTED_EDGE('',*,*,#308,.T.);
#195=ORIENTED_EDGE('',*,*,#311,.T.);
#196=ORIENTED_EDGE('',*,*,#313,.T.);
#197=ORIENTED_EDGE('',*,*,#283,.F.);
#198=ORIENTED_EDGE('',*,*,#314,.F.);
#199=ORIENTED_EDGE('',*,*,#282,.F.);
#200=ORIENTED_EDGE('',*,*,#286,.F.);
#201=ORIENTED_EDGE('',*,*,#289,.T.);
#202=ORIENTED_EDGE('',*,*,#291,.F.);
#203=ORIENTED_EDGE('',*,*,#261,.T.);
#204=ORIENTED_EDGE('',*,*,#297,.F.);
#205=ORIENTED_EDGE('',*,*,#300,.F.);
#206=ORIENTED_EDGE('',*,*,#305,.F.);
#207=ORIENTED_EDGE('',*,*,#309,.T.);
#208=ORIENTED_EDGE('',*,*,#312,.F.);
#209=ORIENTED_EDGE('',*,*,#314,.T.);
#210=ORIENTED_EDGE('',*,*,#280,.T.);
#211=ORIENTED_EDGE('',*,*,#276,.F.);
#212=ORIENTED_EDGE('',*,*,#272,.T.);
#213=ORIENTED_EDGE('',*,*,#270,.F.);
#214=ORIENTED_EDGE('',*,*,#306,.T.);
#215=ORIENTED_EDGE('',*,*,#298,.T.);
#216=ORIENTED_EDGE('',*,*,#295,.T.);
#217=ORIENTED_EDGE('',*,*,#263,.F.);
#218=ORIENTED_EDGE('',*,*,#290,.T.);
#219=ORIENTED_EDGE('',*,*,#287,.F.);
#220=ORIENTED_EDGE('',*,*,#284,.T.);
#221=ORIENTED_EDGE('',*,*,#315,.F.);
#222=ORIENTED_EDGE('',*,*,#316,.F.);
#223=ORIENTED_EDGE('',*,*,#317,.T.);
#224=ORIENTED_EDGE('',*,*,#278,.T.);
#225=ORIENTED_EDGE('',*,*,#318,.F.);
#226=ORIENTED_EDGE('',*,*,#319,.F.);
#227=ORIENTED_EDGE('',*,*,#320,.T.);
#228=ORIENTED_EDGE('',*,*,#316,.T.);
#229=ORIENTED_EDGE('',*,*,#319,.T.);
#230=ORIENTED_EDGE('',*,*,#321,.F.);
#231=ORIENTED_EDGE('',*,*,#266,.F.);
#232=ORIENTED_EDGE('',*,*,#322,.T.);
#233=ORIENTED_EDGE('',*,*,#292,.F.);
#234=ORIENTED_EDGE('',*,*,#259,.F.);
#235=ORIENTED_EDGE('',*,*,#321,.T.);
#236=ORIENTED_EDGE('',*,*,#318,.T.);
#237=ORIENTED_EDGE('',*,*,#315,.T.);
#238=ORIENTED_EDGE('',*,*,#277,.T.);
#239=ORIENTED_EDGE('',*,*,#313,.F.);
#240=ORIENTED_EDGE('',*,*,#310,.T.);
#241=ORIENTED_EDGE('',*,*,#307,.F.);
#242=ORIENTED_EDGE('',*,*,#303,.T.);
#243=ORIENTED_EDGE('',*,*,#323,.F.);
#244=ORIENTED_EDGE('',*,*,#265,.T.);
#245=ORIENTED_EDGE('',*,*,#294,.F.);
#246=ORIENTED_EDGE('',*,*,#324,.T.);
#247=ORIENTED_EDGE('',*,*,#301,.T.);
#248=ORIENTED_EDGE('',*,*,#268,.F.);
#249=ORIENTED_EDGE('',*,*,#271,.T.);
#250=ORIENTED_EDGE('',*,*,#275,.F.);
#251=ORIENTED_EDGE('',*,*,#279,.T.);
#252=ORIENTED_EDGE('',*,*,#317,.F.);
#253=ORIENTED_EDGE('',*,*,#320,.F.);
#254=ORIENTED_EDGE('',*,*,#322,.F.);
#255=ORIENTED_EDGE('',*,*,#324,.F.);
#256=ORIENTED_EDGE('',*,*,#293,.F.);
#257=ORIENTED_EDGE('',*,*,#323,.T.);
#258=ORIENTED_EDGE('',*,*,#302,.T.);
#259=EDGE_CURVE('',#325,#326,#369,.T.);
#260=EDGE_CURVE('',#327,#326,#27,.T.);
#261=EDGE_CURVE('',#328,#327,#370,.T.);
#262=EDGE_CURVE('',#328,#329,#28,.T.);
#263=EDGE_CURVE('',#329,#330,#371,.T.);
#264=EDGE_CURVE('',#331,#330,#29,.T.);
#265=EDGE_CURVE('',#332,#331,#372,.T.);
#266=EDGE_CURVE('',#332,#325,#30,.F.);
#267=EDGE_CURVE('',#333,#334,#31,.T.);
#268=EDGE_CURVE('',#333,#335,#32,.T.);
#269=EDGE_CURVE('',#335,#336,#33,.T.);
#270=EDGE_CURVE('',#336,#334,#34,.T.);
#271=EDGE_CURVE('',#333,#337,#373,.F.);
#272=EDGE_CURVE('',#338,#334,#374,.T.);
#273=EDGE_CURVE('',#337,#338,#35,.T.);
#274=EDGE_CURVE('',#339,#340,#36,.T.);
#275=EDGE_CURVE('',#339,#337,#37,.T.);
#276=EDGE_CURVE('',#338,#340,#38,.T.);
#277=EDGE_CURVE('',#341,#342,#39,.T.);
#278=EDGE_CURVE('',#343,#341,#40,.T.);
#279=EDGE_CURVE('',#339,#343,#41,.T.);
#280=EDGE_CURVE('',#344,#340,#42,.T.);
#281=EDGE_CURVE('',#345,#344,#43,.T.);
#282=EDGE_CURVE('',#345,#346,#44,.T.);
#283=EDGE_CURVE('',#346,#342,#45,.T.);
#284=EDGE_CURVE('',#347,#344,#46,.T.);
#285=EDGE_CURVE('',#348,#347,#47,.T.);
#286=EDGE_CURVE('',#348,#345,#48,.T.);
#287=EDGE_CURVE('',#347,#349,#375,.T.);
#288=EDGE_CURVE('',#350,#349,#49,.T.);
#289=EDGE_CURVE('',#348,#350,#376,.T.);
#290=EDGE_CURVE('',#329,#349,#50,.T.);
#291=EDGE_CURVE('',#328,#350,#51,.T.);
#292=EDGE_CURVE('',#326,#351,#52,.T.);
#293=EDGE_CURVE('',#351,#352,#53,.T.);
#294=EDGE_CURVE('',#352,#331,#54,.T.);
#295=EDGE_CURVE('',#353,#330,#55,.T.);
#296=EDGE_CURVE('',#354,#353,#56,.T.);
#297=EDGE_CURVE('',#354,#327,#57,.T.);
#298=EDGE_CURVE('',#355,#353,#377,.T.);
#299=EDGE_CURVE('',#356,#355,#58,.T.);
#300=EDGE_CURVE('',#356,#354,#378,.T.);
#301=EDGE_CURVE('',#357,#335,#59,.T.);
#302=EDGE_CURVE('',#358,#357,#60,.T.);
#303=EDGE_CURVE('',#359,#358,#61,.T.);
#304=EDGE_CURVE('',#360,#359,#62,.T.);
#305=EDGE_CURVE('',#360,#356,#63,.T.);
#306=EDGE_CURVE('',#336,#355,#64,.T.);
#307=EDGE_CURVE('',#359,#361,#65,.T.);
#308=EDGE_CURVE('',#362,#361,#66,.T.);
#309=EDGE_CURVE('',#360,#362,#67,.T.);
#310=EDGE_CURVE('',#363,#361,#379,.F.);
#311=EDGE_CURVE('',#364,#363,#68,.T.);
#312=EDGE_CURVE('',#364,#362,#380,.T.);
#313=EDGE_CURVE('',#363,#342,#69,.T.);
#314=EDGE_CURVE('',#364,#346,#70,.T.);
#315=EDGE_CURVE('',#365,#341,#71,.T.);
#316=EDGE_CURVE('',#366,#365,#72,.T.);
#317=EDGE_CURVE('',#366,#343,#73,.T.);
#318=EDGE_CURVE('',#367,#365,#381,.T.);
#319=EDGE_CURVE('',#368,#367,#74,.T.);
#320=EDGE_CURVE('',#368,#366,#382,.T.);
#321=EDGE_CURVE('',#325,#367,#75,.T.);
#322=EDGE_CURVE('',#332,#368,#76,.T.);
#323=EDGE_CURVE('',#351,#358,#383,.T.);
#324=EDGE_CURVE('',#352,#357,#384,.T.);
#325=VERTEX_POINT('',#640);
#326=VERTEX_POINT('',#641);
#327=VERTEX_POINT('',#643);
#328=VERTEX_POINT('',#645);
#329=VERTEX_POINT('',#647);
#330=VERTEX_POINT('',#649);
#331=VERTEX_POINT('',#651);
#332=VERTEX_POINT('',#653);
#333=VERTEX_POINT('',#657);
#334=VERTEX_POINT('',#658);
#335=VERTEX_POINT('',#660);
#336=VERTEX_POINT('',#662);
#337=VERTEX_POINT('',#666);
#338=VERTEX_POINT('',#668);
#339=VERTEX_POINT('',#672);
#340=VERTEX_POINT('',#673);
#341=VERTEX_POINT('',#678);
#342=VERTEX_POINT('',#679);
#343=VERTEX_POINT('',#681);
#344=VERTEX_POINT('',#684);
#345=VERTEX_POINT('',#686);
#346=VERTEX_POINT('',#688);
#347=VERTEX_POINT('',#692);
#348=VERTEX_POINT('',#694);
#349=VERTEX_POINT('',#698);
#350=VERTEX_POINT('',#700);
#351=VERTEX_POINT('',#707);
#352=VERTEX_POINT('',#709);
#353=VERTEX_POINT('',#712);
#354=VERTEX_POINT('',#714);
#355=VERTEX_POINT('',#718);
#356=VERTEX_POINT('',#720);
#357=VERTEX_POINT('',#724);
#358=VERTEX_POINT('',#726);
#359=VERTEX_POINT('',#728);
#360=VERTEX_POINT('',#730);
#361=VERTEX_POINT('',#735);
#362=VERTEX_POINT('',#737);
#363=VERTEX_POINT('',#741);
#364=VERTEX_POINT('',#743);
#365=VERTEX_POINT('',#752);
#366=VERTEX_POINT('',#754);
#367=VERTEX_POINT('',#758);
#368=VERTEX_POINT('',#760);
#369=CIRCLE('',#472,0.02525);
#370=CIRCLE('',#473,0.02525);
#371=CIRCLE('',#474,0.02525);
#372=CIRCLE('',#475,0.02525);
#373=CIRCLE('',#478,0.0195);
#374=CIRCLE('',#479,0.0195);
#375=CIRCLE('',#484,0.00925000000000015);
#376=CIRCLE('',#485,0.00925000000000015);
#377=CIRCLE('',#489,0.01);
#378=CIRCLE('',#490,0.01);
#379=CIRCLE('',#494,0.0195);
#380=CIRCLE('',#495,0.0195);
#381=CIRCLE('',#501,0.0149000000000001);
#382=CIRCLE('',#502,0.0149000000000001);
#383=CIRCLE('',#505,0.0149);
#384=CIRCLE('',#507,0.0149);
#385=EDGE_LOOP('',(#127,#128,#129,#130,#131,#132,#133,#134));
#386=EDGE_LOOP('',(#135,#136,#137,#138));
#387=EDGE_LOOP('',(#139,#140,#141,#142));
#388=EDGE_LOOP('',(#143,#144,#145,#146));
#389=EDGE_LOOP('',(#147,#148,#149,#150,#151,#152,#153,#154));
#390=EDGE_LOOP('',(#155,#156,#157,#158));
#391=EDGE_LOOP('',(#159,#160,#161,#162));
#392=EDGE_LOOP('',(#163,#164,#165,#166));
#393=EDGE_LOOP('',(#167,#168,#169,#170,#171,#172,#173,#174));
#394=EDGE_LOOP('',(#175,#176,#177,#178));
#395=EDGE_LOOP('',(#179,#180,#181,#182,#183,#184,#185,#186));
#396=EDGE_LOOP('',(#187,#188,#189,#190));
#397=EDGE_LOOP('',(#191,#192,#193,#194));
#398=EDGE_LOOP('',(#195,#196,#197,#198));
#399=EDGE_LOOP('',(#199,#200,#201,#202,#203,#204,#205,#206,#207,#208,#209));
#400=EDGE_LOOP('',(#210,#211,#212,#213,#214,#215,#216,#217,#218,#219,#220));
#401=EDGE_LOOP('',(#221,#222,#223,#224));
#402=EDGE_LOOP('',(#225,#226,#227,#228));
#403=EDGE_LOOP('',(#229,#230,#231,#232));
#404=EDGE_LOOP('',(#233,#234,#235,#236,#237,#238,#239,#240,#241,#242,#243));
#405=EDGE_LOOP('',(#244,#245,#246,#247,#248,#249,#250,#251,#252,#253,#254));
#406=EDGE_LOOP('',(#255,#256,#257,#258));
#407=FACE_BOUND('',#385,.T.);
#408=FACE_BOUND('',#386,.T.);
#409=FACE_BOUND('',#387,.T.);
#410=FACE_BOUND('',#388,.T.);
#411=FACE_BOUND('',#389,.T.);
#412=FACE_BOUND('',#390,.T.);
#413=FACE_BOUND('',#391,.T.);
#414=FACE_BOUND('',#392,.T.);
#415=FACE_BOUND('',#393,.T.);
#416=FACE_BOUND('',#394,.T.);
#417=FACE_BOUND('',#395,.T.);
#418=FACE_BOUND('',#396,.T.);
#419=FACE_BOUND('',#397,.T.);
#420=FACE_BOUND('',#398,.T.);
#421=FACE_BOUND('',#399,.T.);
#422=FACE_BOUND('',#400,.T.);
#423=FACE_BOUND('',#401,.T.);
#424=FACE_BOUND('',#402,.T.);
#425=FACE_BOUND('',#403,.T.);
#426=FACE_BOUND('',#404,.T.);
#427=FACE_BOUND('',#405,.T.);
#428=FACE_BOUND('',#406,.T.);
#429=CYLINDRICAL_SURFACE('',#471,0.02525);
#430=CYLINDRICAL_SURFACE('',#477,0.0195);
#431=CYLINDRICAL_SURFACE('',#483,0.00925000000000015);
#432=CYLINDRICAL_SURFACE('',#488,0.01);
#433=CYLINDRICAL_SURFACE('',#493,0.0195);
#434=CYLINDRICAL_SURFACE('',#500,0.0149000000000001);
#435=CYLINDRICAL_SURFACE('',#508,0.0149);
#436=ADVANCED_FACE('',(#407),#429,.T.);
#437=ADVANCED_FACE('',(#408),#12,.F.);
#438=ADVANCED_FACE('',(#409),#430,.T.);
#439=ADVANCED_FACE('',(#410),#13,.F.);
#440=ADVANCED_FACE('',(#411),#14,.T.);
#441=ADVANCED_FACE('',(#412),#15,.T.);
#442=ADVANCED_FACE('',(#413),#431,.F.);
#443=ADVANCED_FACE('',(#414),#16,.T.);
#444=ADVANCED_FACE('',(#415),#17,.T.);
#445=ADVANCED_FACE('',(#416),#432,.F.);
#446=ADVANCED_FACE('',(#417),#18,.T.);
#447=ADVANCED_FACE('',(#418),#19,.F.);
#448=ADVANCED_FACE('',(#419),#433,.T.);
#449=ADVANCED_FACE('',(#420),#20,.F.);
#450=ADVANCED_FACE('',(#421),#21,.T.);
#451=ADVANCED_FACE('',(#422),#22,.F.);
#452=ADVANCED_FACE('',(#423),#23,.F.);
#453=ADVANCED_FACE('',(#424),#434,.T.);
#454=ADVANCED_FACE('',(#425),#24,.F.);
#455=ADVANCED_FACE('',(#426),#25,.F.);
#456=ADVANCED_FACE('',(#427),#26,.F.);
#457=ADVANCED_FACE('',(#428),#435,.T.);
#458=CLOSED_SHELL('',(#436,#437,#438,#439,#440,#441,#442,#443,#444,#445,
#446,#447,#448,#449,#450,#451,#452,#453,#454,#455,#456,#457));
#459=STYLED_ITEM('',(#460),#467);
#460=PRESENTATION_STYLE_ASSIGNMENT((#461));
#461=SURFACE_STYLE_USAGE(.BOTH.,#462);
#462=SURFACE_SIDE_STYLE('',(#463));
#463=SURFACE_STYLE_FILL_AREA(#464);
#464=FILL_AREA_STYLE('',(#465));
#465=FILL_AREA_STYLE_COLOUR('',#466);
#466=COLOUR_RGB('',0.305882352941177,0.298039215686275,0.298039215686275);
#467=MANIFOLD_SOLID_BREP('Bender 1',#458);
#468=SHAPE_DEFINITION_REPRESENTATION(#776,#469);
#469=SHAPE_REPRESENTATION('Bender 1',(#470),#771);
#470=AXIS2_PLACEMENT_3D('',#637,#509,#510);
#471=AXIS2_PLACEMENT_3D('',#638,#511,#512);
#472=AXIS2_PLACEMENT_3D('',#639,#513,#514);
#473=AXIS2_PLACEMENT_3D('',#644,#516,#517);
#474=AXIS2_PLACEMENT_3D('',#648,#519,#520);
#475=AXIS2_PLACEMENT_3D('',#652,#522,#523);
#476=AXIS2_PLACEMENT_3D('',#655,#525,#526);
#477=AXIS2_PLACEMENT_3D('',#664,#531,#532);
#478=AXIS2_PLACEMENT_3D('',#665,#533,#534);
#479=AXIS2_PLACEMENT_3D('',#667,#535,#536);
#480=AXIS2_PLACEMENT_3D('',#670,#538,#539);
#481=AXIS2_PLACEMENT_3D('',#676,#543,#544);
#482=AXIS2_PLACEMENT_3D('',#690,#552,#553);
#483=AXIS2_PLACEMENT_3D('',#696,#557,#558);
#484=AXIS2_PLACEMENT_3D('',#697,#559,#560);
#485=AXIS2_PLACEMENT_3D('',#701,#562,#563);
#486=AXIS2_PLACEMENT_3D('',#702,#564,#565);
#487=AXIS2_PLACEMENT_3D('',#705,#568,#569);
#488=AXIS2_PLACEMENT_3D('',#716,#576,#577);
#489=AXIS2_PLACEMENT_3D('',#717,#578,#579);
#490=AXIS2_PLACEMENT_3D('',#721,#581,#582);
#491=AXIS2_PLACEMENT_3D('',#722,#583,#584);
#492=AXIS2_PLACEMENT_3D('',#733,#591,#592);
#493=AXIS2_PLACEMENT_3D('',#739,#596,#597);
#494=AXIS2_PLACEMENT_3D('',#740,#598,#599);
#495=AXIS2_PLACEMENT_3D('',#744,#601,#602);
#496=AXIS2_PLACEMENT_3D('',#745,#603,#604);
#497=AXIS2_PLACEMENT_3D('',#748,#607,#608);
#498=AXIS2_PLACEMENT_3D('',#749,#609,#610);
#499=AXIS2_PLACEMENT_3D('',#750,#611,#612);
#500=AXIS2_PLACEMENT_3D('',#756,#616,#617);
#501=AXIS2_PLACEMENT_3D('',#757,#618,#619);
#502=AXIS2_PLACEMENT_3D('',#761,#621,#622);
#503=AXIS2_PLACEMENT_3D('',#762,#623,#624);
#504=AXIS2_PLACEMENT_3D('',#765,#627,#628);
#505=AXIS2_PLACEMENT_3D('',#766,#629,#630);
#506=AXIS2_PLACEMENT_3D('',#767,#631,#632);
#507=AXIS2_PLACEMENT_3D('',#768,#633,#634);
#508=AXIS2_PLACEMENT_3D('',#769,#635,#636);
#509=DIRECTION('',(0.,0.,1.));
#510=DIRECTION('',(1.,0.,0.));
#511=DIRECTION('',(-1.,0.,0.));
#512=DIRECTION('',(0.,1.,0.));
#513=DIRECTION('',(1.,0.,0.));
#514=DIRECTION('',(0.,-1.,0.));
#515=DIRECTION('',(-1.,0.,0.));
#516=DIRECTION('',(1.,0.,0.));
#517=DIRECTION('',(0.,-1.,0.));
#518=DIRECTION('',(-1.,0.,0.));
#519=DIRECTION('',(1.,0.,0.));
#520=DIRECTION('',(0.,-1.,0.));
#521=DIRECTION('',(-1.,0.,0.));
#522=DIRECTION('',(1.,1.72352625939832E-16,-1.50789008986594E-17));
#523=DIRECTION('',(1.72352625939832E-16,-1.,0.));
#524=DIRECTION('',(-1.,0.,0.));
#525=DIRECTION('',(0.,-0.996194698091746,0.0871557427476584));
#526=DIRECTION('',(0.,-0.0871557427476584,-0.996194698091746));
#527=DIRECTION('',(-1.,0.,0.));
#528=DIRECTION('',(0.,-0.0871557427476584,-0.996194698091746));
#529=DIRECTION('',(-1.,0.,0.));
#530=DIRECTION('',(0.,0.0871557427476584,0.996194698091746));
#531=DIRECTION('',(-1.,0.,0.));
#532=DIRECTION('',(0.,1.,0.));
#533=DIRECTION('',(-1.,0.,0.));
#534=DIRECTION('',(0.,1.,0.));
#535=DIRECTION('',(-1.,0.,0.));
#536=DIRECTION('',(0.,-1.,0.));
#537=DIRECTION('',(-1.,0.,0.));
#538=DIRECTION('',(0.,-0.90630778703665,-0.422618261740699));
#539=DIRECTION('',(0.,0.422618261740699,-0.90630778703665));
#540=DIRECTION('',(-1.,0.,0.));
#541=DIRECTION('',(0.,0.422618261740699,-0.90630778703665));
#542=DIRECTION('',(0.,-0.422618261740699,0.90630778703665));
#543=DIRECTION('',(0.,-0.422618261740701,0.906307787036649));
#544=DIRECTION('',(0.,-0.906307787036649,-0.422618261740701));
#545=DIRECTION('',(0.,0.90630778703665,0.4226182617407));
#546=DIRECTION('',(1.,0.,0.));
#547=DIRECTION('',(0.,-0.90630778703665,-0.4226182617407));
#548=DIRECTION('',(0.,0.906307787036649,0.422618261740701));
#549=DIRECTION('',(-1.,0.,0.));
#550=DIRECTION('',(0.,0.906307787036649,0.422618261740701));
#551=DIRECTION('',(-1.,0.,0.));
#552=DIRECTION('',(0.,-0.90630778703665,-0.422618261740699));
#553=DIRECTION('',(0.,0.422618261740699,-0.90630778703665));
#554=DIRECTION('',(0.,-0.422618261740699,0.90630778703665));
#555=DIRECTION('',(-1.,0.,0.));
#556=DIRECTION('',(0.,-0.422618261740699,0.90630778703665));
#557=DIRECTION('',(-1.,0.,0.));
#558=DIRECTION('',(0.,1.,0.));
#559=DIRECTION('',(-1.,0.,0.));
#560=DIRECTION('',(0.,-1.,0.));
#561=DIRECTION('',(-1.,0.,0.));
#562=DIRECTION('',(-1.,0.,0.));
#563=DIRECTION('',(0.,-1.,0.));
#564=DIRECTION('',(0.,-0.996194698091746,0.0871557427476582));
#565=DIRECTION('',(0.,-0.0871557427476582,-0.996194698091746));
#566=DIRECTION('',(0.,0.0871557427476582,0.996194698091746));
#567=DIRECTION('',(0.,0.0871557427476582,0.996194698091746));
#568=DIRECTION('',(0.,1.,1.92747052886313E-16));
#569=DIRECTION('',(0.,-1.92747052886313E-16,1.));
#570=DIRECTION('',(0.,-1.92747052886313E-16,1.));
#571=DIRECTION('',(-1.,0.,0.));
#572=DIRECTION('',(0.,1.92747052886313E-16,-1.));
#573=DIRECTION('',(0.,1.92747052886313E-16,-1.));
#574=DIRECTION('',(-1.,0.,0.));
#575=DIRECTION('',(0.,1.92747052886313E-16,-1.));
#576=DIRECTION('',(-1.,0.,0.));
#577=DIRECTION('',(0.,1.,0.));
#578=DIRECTION('',(1.,0.,0.));
#579=DIRECTION('',(0.,-1.,0.));
#580=DIRECTION('',(-1.,0.,0.));
#581=DIRECTION('',(1.,0.,0.));
#582=DIRECTION('',(0.,-1.,0.));
#583=DIRECTION('',(0.,0.0871557427476583,0.996194698091746));
#584=DIRECTION('',(0.,-0.996194698091746,0.0871557427476583));
#585=DIRECTION('',(0.,-0.996194698091746,0.0871557427476583));
#586=DIRECTION('',(-1.,0.,0.));
#587=DIRECTION('',(0.,0.996194698091746,-0.0871557427476583));
#588=DIRECTION('',(-1.,0.,0.));
#589=DIRECTION('',(0.,0.996194698091746,-0.0871557427476583));
#590=DIRECTION('',(0.,0.996194698091746,-0.0871557427476583));
#591=DIRECTION('',(0.,-0.996194698091746,0.0871557427476584));
#592=DIRECTION('',(0.,-0.0871557427476584,-0.996194698091746));
#593=DIRECTION('',(0.,0.0871557427476584,0.996194698091746));
#594=DIRECTION('',(-1.,0.,0.));
#595=DIRECTION('',(0.,0.0871557427476584,0.996194698091746));
#596=DIRECTION('',(-1.,0.,0.));
#597=DIRECTION('',(0.,1.,0.));
#598=DIRECTION('',(1.,0.,0.));
#599=DIRECTION('',(0.,-1.,0.));
#600=DIRECTION('',(-1.,0.,0.));
#601=DIRECTION('',(-1.,0.,0.));
#602=DIRECTION('',(0.,-1.,0.));
#603=DIRECTION('',(0.,-0.90630778703665,-0.422618261740699));
#604=DIRECTION('',(0.,0.422618261740699,-0.90630778703665));
#605=DIRECTION('',(0.,-0.422618261740699,0.90630778703665));
#606=DIRECTION('',(0.,-0.422618261740699,0.90630778703665));
#607=DIRECTION('',(1.,0.,0.));
#608=DIRECTION('',(0.,0.,-1.));
#609=DIRECTION('',(1.,0.,0.));
#610=DIRECTION('',(0.,0.,-1.));
#611=DIRECTION('',(0.,-0.90630778703665,-0.4226182617407));
#612=DIRECTION('',(0.,0.4226182617407,-0.90630778703665));
#613=DIRECTION('',(0.,-0.4226182617407,0.90630778703665));
#614=DIRECTION('',(1.,0.,0.));
#615=DIRECTION('',(0.,-0.4226182617407,0.90630778703665));
#616=DIRECTION('',(1.,0.,0.));
#617=DIRECTION('',(0.,-1.,0.));
#618=DIRECTION('',(1.,0.,0.));
#619=DIRECTION('',(0.,0.996194698091745,-0.0871557427476591));
#620=DIRECTION('',(1.,0.,0.));
#621=DIRECTION('',(1.,0.,0.));
#622=DIRECTION('',(0.,0.996194698091745,-0.0871557427476591));
#623=DIRECTION('',(0.,-0.996194698091746,0.0871557427476583));
#624=DIRECTION('',(0.,-0.0871557427476583,-0.996194698091746));
#625=DIRECTION('',(0.,0.0871557427476583,0.996194698091746));
#626=DIRECTION('',(0.,0.0871557427476583,0.996194698091746));
#627=DIRECTION('',(1.,0.,0.));
#628=DIRECTION('',(0.,-1.,0.));
#629=DIRECTION('',(-1.,0.,0.));
#630=DIRECTION('',(0.,1.39709273233031E-15,-1.));
#631=DIRECTION('',(-1.,0.,0.));
#632=DIRECTION('',(0.,1.,0.));
#633=DIRECTION('',(-1.,0.,0.));
#634=DIRECTION('',(0.,1.39709273233031E-15,-1.));
#635=DIRECTION('',(-1.,0.,0.));
#636=DIRECTION('',(0.,1.,0.));
#637=CARTESIAN_POINT('',(0.,0.,0.));
#638=CARTESIAN_POINT('',(0.0155,-0.00210275196059416,-0.0140461963281955));
#639=CARTESIAN_POINT('',(0.01075,-0.00210275196059416,-0.0140461963281955));
#640=CARTESIAN_POINT('',(0.01075,-0.0230155672949083,-0.0281959897822667));
#641=CARTESIAN_POINT('',(0.01075,-0.00210275196059414,-0.0392961963281956));
#642=CARTESIAN_POINT('',(0.0155,-0.00210275196059414,-0.0392961963281956));
#643=CARTESIAN_POINT('',(0.0155,-0.00210275196059414,-0.0392961963281956));
#644=CARTESIAN_POINT('',(0.0155,-0.00210275196059416,-0.0140461963281955));
#645=CARTESIAN_POINT('',(0.0155,-0.0272566680874108,-0.0118455138238172));
#646=CARTESIAN_POINT('',(0.0155,-0.0272566680874108,-0.0118455138238172));
#647=CARTESIAN_POINT('',(-0.005,-0.0272566680874108,-0.0118455138238172));
#648=CARTESIAN_POINT('',(-0.005,-0.00210275196059416,-0.0140461963281955));
#649=CARTESIAN_POINT('',(-0.005,-0.00210275196059414,-0.0392961963281956));
#650=CARTESIAN_POINT('',(0.0155,-0.00210275196059414,-0.0392961963281956));
#651=CARTESIAN_POINT('',(-0.000250000000000007,-0.00210275196059414,-0.0392961963281956));
#652=CARTESIAN_POINT('',(-0.000250000000000004,-0.00210275196059416,-0.0140461963281955));
#653=CARTESIAN_POINT('',(-0.00025,-0.0230155672949083,-0.0281959897822667));
#654=CARTESIAN_POINT('',(0.0155,-0.0230155672949083,-0.0281959897822667));
#655=CARTESIAN_POINT('',(0.0155,-0.0166098937182321,-0.00775788669652191));
#656=CARTESIAN_POINT('',(0.0155,-0.0142460351991407,0.0192611398130193));
#657=CARTESIAN_POINT('',(-0.00025,-0.0142460351991407,0.0192611398130193));
#658=CARTESIAN_POINT('',(-0.005,-0.0142460351991407,0.0192611398130193));
#659=CARTESIAN_POINT('',(-0.00025,-0.0166098937182321,-0.00775788669652191));
#660=CARTESIAN_POINT('',(-0.00025,-0.0170456724319703,-0.0127388601869806));
#661=CARTESIAN_POINT('',(0.0155,-0.0170456724319703,-0.0127388601869806));
#662=CARTESIAN_POINT('',(-0.005,-0.0170456724319703,-0.0127388601869806));
#663=CARTESIAN_POINT('',(-0.005,-0.0166098937182321,-0.00775788669652191));
#664=CARTESIAN_POINT('',(0.0155,-0.03367183181193,0.0209606767965986));
#665=CARTESIAN_POINT('',(-0.00025,-0.03367183181193,0.0209606767965986));
#666=CARTESIAN_POINT('',(-0.00025,-0.0159988299647151,0.0292017329005424));
#667=CARTESIAN_POINT('',(-0.005,-0.03367183181193,0.0209606767965986));
#668=CARTESIAN_POINT('',(-0.005,-0.0159988299647151,0.0292017329005424));
#669=CARTESIAN_POINT('',(0.0155,-0.0159988299647151,0.0292017329005424));
#670=CARTESIAN_POINT('',(0.0155,-0.0202250125821221,0.0382648107709088));
#671=CARTESIAN_POINT('',(0.0155,-0.0244511951995291,0.0473278886412754));
#672=CARTESIAN_POINT('',(-0.00025,-0.0244511951995291,0.0473278886412753));
#673=CARTESIAN_POINT('',(-0.005,-0.0244511951995291,0.0473278886412754));
#674=CARTESIAN_POINT('',(-0.00025,-0.0202250125821221,0.0382648107709088));
#675=CARTESIAN_POINT('',(-0.005,-0.0202250125821221,0.0382648107709088));
#676=CARTESIAN_POINT('',(0.0155,-0.0254707914599454,0.0468524430968171));
#677=CARTESIAN_POINT('',(0.01075,-0.0264903877203615,0.0463769975523588));
#678=CARTESIAN_POINT('',(0.01075,-0.0286202110198977,0.0453838446372681));
#679=CARTESIAN_POINT('',(0.01075,-0.0244511951995291,0.0473278886412754));
#680=CARTESIAN_POINT('',(0.00525,-0.0286202110198977,0.0453838446372681));
#681=CARTESIAN_POINT('',(-0.00025,-0.0286202110198977,0.0453838446372681));
#682=CARTESIAN_POINT('',(-0.00025,-0.0264903877203615,0.0463769975523588));
#683=CARTESIAN_POINT('',(-0.005,-0.0254707914599454,0.0468524430968171));
#684=CARTESIAN_POINT('',(-0.005,-0.0337408500166548,0.0429960514584332));
#685=CARTESIAN_POINT('',(0.0155,-0.0337408500166548,0.0429960514584332));
#686=CARTESIAN_POINT('',(0.0155,-0.0337408500166548,0.0429960514584332));
#687=CARTESIAN_POINT('',(0.0155,-0.0254707914599454,0.0468524430968171));
#688=CARTESIAN_POINT('',(0.0155,-0.0244511951995291,0.0473278886412754));
#689=CARTESIAN_POINT('',(0.0155,-0.0244511951995291,0.0473278886412754));
#690=CARTESIAN_POINT('',(0.0155,-0.0295146673992478,0.0339329735880667));
#691=CARTESIAN_POINT('',(-0.005,-0.0295146673992478,0.0339329735880667));
#692=CARTESIAN_POINT('',(-0.005,-0.0252884847818408,0.0248698957177002));
#693=CARTESIAN_POINT('',(0.0155,-0.0252884847818408,0.0248698957177002));
#694=CARTESIAN_POINT('',(0.0155,-0.0252884847818408,0.0248698957177002));
#695=CARTESIAN_POINT('',(0.0155,-0.0295146673992478,0.0339329735880667));
#696=CARTESIAN_POINT('',(0.0155,-0.0336718318119299,0.0209606767965986));
#697=CARTESIAN_POINT('',(-0.005,-0.0336718318119299,0.0209606767965986));
#698=CARTESIAN_POINT('',(-0.005,-0.0244570308545811,0.0201544861761828));
#699=CARTESIAN_POINT('',(0.0155,-0.0244570308545811,0.0201544861761828));
#700=CARTESIAN_POINT('',(0.0155,-0.0244570308545811,0.0201544861761828));
#701=CARTESIAN_POINT('',(0.0155,-0.0336718318119299,0.0209606767965986));
#702=CARTESIAN_POINT('',(0.0155,-0.0258568494709959,0.00415448617618283));
#703=CARTESIAN_POINT('',(-0.005,-0.0258568494709959,0.00415448617618283));
#704=CARTESIAN_POINT('',(0.0155,-0.0258568494709959,0.00415448617618283));
#705=CARTESIAN_POINT('',(0.0155,-0.00210275196059414,-0.0301711963281956));
#706=CARTESIAN_POINT('',(0.01075,-0.00210275196059414,-0.0312961963281956));
#707=CARTESIAN_POINT('',(0.01075,-0.00210275196059414,-0.0289461963281955));
#708=CARTESIAN_POINT('',(0.00525,-0.00210275196059414,-0.0289461963281955));
#709=CARTESIAN_POINT('',(-0.00025,-0.00210275196059414,-0.0289461963281955));
#710=CARTESIAN_POINT('',(-0.00025,-0.00210275196059414,-0.0312961963281956));
#711=CARTESIAN_POINT('',(-0.005,-0.00210275196059414,-0.0301711963281956));
#712=CARTESIAN_POINT('',(-0.005,-0.00210275196059414,-0.0240461963281955));
#713=CARTESIAN_POINT('',(0.0155,-0.00210275196059414,-0.0240461963281955));
#714=CARTESIAN_POINT('',(0.0155,-0.00210275196059414,-0.0240461963281955));
#715=CARTESIAN_POINT('',(0.0155,-0.00210275196059414,-0.0301711963281956));
#716=CARTESIAN_POINT('',(0.0155,-0.00210275196059412,-0.0140461963281955));
#717=CARTESIAN_POINT('',(-0.005,-0.00210275196059412,-0.0140461963281955));
#718=CARTESIAN_POINT('',(-0.005,-0.0120646989415116,-0.0131746389007189));
#719=CARTESIAN_POINT('',(0.0155,-0.0120646989415116,-0.0131746389007189));
#720=CARTESIAN_POINT('',(0.0155,-0.0120646989415116,-0.0131746389007189));
#721=CARTESIAN_POINT('',(0.0155,-0.00210275196059412,-0.0140461963281955));
#722=CARTESIAN_POINT('',(0.0155,-0.014555185686741,-0.0129567495438498));
#723=CARTESIAN_POINT('',(-0.00025,-0.014555185686741,-0.0129567495438498));
#724=CARTESIAN_POINT('',(-0.00025,-0.0169460529621611,-0.0127475757612554));
#725=CARTESIAN_POINT('',(0.00525,-0.0169460529621611,-0.0127475757612554));
#726=CARTESIAN_POINT('',(0.01075,-0.0169460529621611,-0.0127475757612554));
#727=CARTESIAN_POINT('',(0.01075,-0.014555185686741,-0.0129567495438498));
#728=CARTESIAN_POINT('',(0.01075,-0.0170456724319703,-0.0127388601869806));
#729=CARTESIAN_POINT('',(0.0155,-0.0170456724319703,-0.0127388601869806));
#730=CARTESIAN_POINT('',(0.0155,-0.0170456724319703,-0.0127388601869806));
#731=CARTESIAN_POINT('',(0.0155,-0.014555185686741,-0.0129567495438498));
#732=CARTESIAN_POINT('',(-0.005,-0.014555185686741,-0.0129567495438498));
#733=CARTESIAN_POINT('',(0.0155,-0.0166098937182321,-0.00775788669652191));
#734=CARTESIAN_POINT('',(0.01075,-0.0166098937182321,-0.00775788669652191));
#735=CARTESIAN_POINT('',(0.01075,-0.0142460351991407,0.0192611398130193));
#736=CARTESIAN_POINT('',(0.0155,-0.0142460351991407,0.0192611398130193));
#737=CARTESIAN_POINT('',(0.0155,-0.0142460351991407,0.0192611398130193));
#738=CARTESIAN_POINT('',(0.0155,-0.0166098937182321,-0.00775788669652191));
#739=CARTESIAN_POINT('',(0.0155,-0.03367183181193,0.0209606767965986));
#740=CARTESIAN_POINT('',(0.01075,-0.03367183181193,0.0209606767965986));
#741=CARTESIAN_POINT('',(0.01075,-0.0159988299647151,0.0292017329005424));
#742=CARTESIAN_POINT('',(0.0155,-0.0159988299647151,0.0292017329005424));
#743=CARTESIAN_POINT('',(0.0155,-0.0159988299647151,0.0292017329005424));
#744=CARTESIAN_POINT('',(0.0155,-0.03367183181193,0.0209606767965986));
#745=CARTESIAN_POINT('',(0.0155,-0.0202250125821221,0.0382648107709088));
#746=CARTESIAN_POINT('',(0.01075,-0.0202250125821221,0.0382648107709088));
#747=CARTESIAN_POINT('',(0.0155,-0.0202250125821221,0.0382648107709088));
#748=CARTESIAN_POINT('',(0.0155,-0.00106205887404989,0.011609687511465));
#749=CARTESIAN_POINT('',(-0.005,-0.00106205887404989,0.011609687511465));
#750=CARTESIAN_POINT('',(0.00525,-0.0201678457850837,0.0272576888965352));
#751=CARTESIAN_POINT('',(0.01075,-0.0201678457850837,0.0272576888965352));
#752=CARTESIAN_POINT('',(0.01075,-0.0201678457850837,0.0272576888965352));
#753=CARTESIAN_POINT('',(0.00525,-0.0201678457850837,0.0272576888965352));
#754=CARTESIAN_POINT('',(-0.00025,-0.0201678457850837,0.0272576888965352));
#755=CARTESIAN_POINT('',(-0.00025,-0.0201678457850837,0.0272576888965352));
#756=CARTESIAN_POINT('',(0.,-0.0336718318119299,0.0209606767965986));
#757=CARTESIAN_POINT('',(0.01075,-0.0336718318119299,0.0209606767965986));
#758=CARTESIAN_POINT('',(0.01075,-0.0188285308103628,0.0196620562296585));
#759=CARTESIAN_POINT('',(0.00525,-0.0188285308103628,0.0196620562296585));
#760=CARTESIAN_POINT('',(-0.00025,-0.0188285308103628,0.0196620562296585));
#761=CARTESIAN_POINT('',(-0.00025,-0.0336718318119299,0.0209606767965986));
#762=CARTESIAN_POINT('',(0.00525,-0.0216281680431924,-0.0123379437703414));
#763=CARTESIAN_POINT('',(0.01075,-0.0216281680431924,-0.0123379437703414));
#764=CARTESIAN_POINT('',(-0.00025,-0.0216281680431924,-0.0123379437703414));
#765=CARTESIAN_POINT('',(0.01075,-0.00210275196059414,-0.0312961963281956));
#766=CARTESIAN_POINT('',(0.01075,-0.00210275196059416,-0.0140461963281955));
#767=CARTESIAN_POINT('',(-0.00025,-0.00210275196059414,-0.0312961963281956));
#768=CARTESIAN_POINT('',(-0.00025,-0.00210275196059416,-0.0140461963281955));
#769=CARTESIAN_POINT('',(0.,-0.00210275196059416,-0.0140461963281955));
#770=MECHANICAL_DESIGN_GEOMETRIC_PRESENTATION_REPRESENTATION('',(#459),
#771);
#771=(
GEOMETRIC_REPRESENTATION_CONTEXT(3)
GLOBAL_UNCERTAINTY_ASSIGNED_CONTEXT((#772))
GLOBAL_UNIT_ASSIGNED_CONTEXT((#775,#774,#773))
REPRESENTATION_CONTEXT('Bender 1','TOP_LEVEL_ASSEMBLY_PART')
);
#772=UNCERTAINTY_MEASURE_WITH_UNIT(LENGTH_MEASURE(1.E-8),#775,
'DISTANCE_ACCURACY_VALUE','Maximum Tolerance applied to model');
#773=(
NAMED_UNIT(*)
SI_UNIT($,.STERADIAN.)
SOLID_ANGLE_UNIT()
);
#774=(
NAMED_UNIT(*)
PLANE_ANGLE_UNIT()
SI_UNIT($,.RADIAN.)
);
#775=(
LENGTH_UNIT()
NAMED_UNIT(*)
SI_UNIT($,.METRE.)
);
#776=PRODUCT_DEFINITION_SHAPE('','',#777);
#777=PRODUCT_DEFINITION('','',#779,#778);
#778=PRODUCT_DEFINITION_CONTEXT('',#785,'design');
#779=PRODUCT_DEFINITION_FORMATION_WITH_SPECIFIED_SOURCE('','',#781,
 .NOT_KNOWN.);
#780=PRODUCT_RELATED_PRODUCT_CATEGORY('','',(#781));
#781=PRODUCT('Bender 1','Bender 1','Bender 1',(#783));
#782=PRODUCT_CATEGORY('','');
#783=PRODUCT_CONTEXT('',#785,'mechanical');
#784=APPLICATION_PROTOCOL_DEFINITION('international standard',
'ap242_managed_model_based_3d_engineering',2011,#785);
#785=APPLICATION_CONTEXT('managed model based 3d engineering');
ENDSEC;
END-ISO-10303-21;
